<?xml version="1.0" encoding="UTF-8"?> <svg xmlns="http://www.w3.org/2000/svg" width="304" height="120" viewBox="0 0 304 120" fill="none"> <rect x="0.75" y="0.75" width="302.5" height="118.5" rx="19.25" fill="url(#paint0_linear_8966_55385)"></rect> <g filter="url(#filter0_ii_8966_55385)"> <rect x="40" y="40" width="224" height="48" rx="10" fill="url(#paint1_linear_8966_55385)"></rect> </g> <rect x="40.5" y="40.5" width="223" height="47" rx="9.5" stroke="url(#paint2_linear_8966_55385)"></rect> <g filter="url(#filter1_d_8966_55385)"> <path d="M58.599 70.5V59.061H54.18V57.54H64.62V59.061H60.201V70.5H58.599ZM69.054 70.77C68.088 70.77 67.254 70.551 66.552 70.113C65.856 69.675 65.319 69.069 64.941 68.295C64.563 67.521 64.374 66.633 64.374 65.631C64.374 64.611 64.566 63.717 64.95 62.949C65.334 62.181 65.877 61.584 66.579 61.158C67.281 60.726 68.106 60.51 69.054 60.51C70.026 60.51 70.863 60.729 71.565 61.167C72.267 61.599 72.804 62.202 73.176 62.976C73.554 63.744 73.743 64.629 73.743 65.631C73.743 66.645 73.554 67.539 73.176 68.313C72.798 69.081 72.258 69.684 71.556 70.122C70.854 70.554 70.02 70.77 69.054 70.77ZM69.054 69.249C70.062 69.249 70.812 68.913 71.304 68.241C71.796 67.569 72.042 66.699 72.042 65.631C72.042 64.533 71.793 63.66 71.295 63.012C70.797 62.358 70.05 62.031 69.054 62.031C68.376 62.031 67.818 62.184 67.38 62.49C66.942 62.796 66.615 63.219 66.399 63.759C66.183 64.299 66.075 64.923 66.075 65.631C66.075 66.723 66.327 67.599 66.831 68.259C67.335 68.919 68.076 69.249 69.054 69.249ZM87.6459 70.5L87.6549 64.281C87.6549 63.555 87.4599 62.988 87.0699 62.58C86.6859 62.166 86.1849 61.959 85.5669 61.959C85.2069 61.959 84.8649 62.043 84.5409 62.211C84.2169 62.373 83.9529 62.631 83.7489 62.985C83.5449 63.333 83.4429 63.78 83.4429 64.326L82.5969 63.984C82.5849 63.294 82.7259 62.691 83.0199 62.175C83.3199 61.653 83.7279 61.248 84.2439 60.96C84.7599 60.672 85.3419 60.528 85.9899 60.528C87.0039 60.528 87.8019 60.837 88.3839 61.455C88.9659 62.067 89.2569 62.892 89.2569 63.93L89.2479 70.5H87.6459ZM76.0179 70.5V60.78H77.4489V63.381H77.6289V70.5H76.0179ZM81.8409 70.5L81.8499 64.344C81.8499 63.6 81.6579 63.018 81.2739 62.598C80.8899 62.172 80.3799 61.959 79.7439 61.959C79.1139 61.959 78.6039 62.175 78.2139 62.607C77.8239 63.039 77.6289 63.612 77.6289 64.326L76.7829 63.822C76.7829 63.192 76.9329 62.628 77.2329 62.13C77.5329 61.632 77.9409 61.242 78.4569 60.96C78.9729 60.672 79.5579 60.528 80.2119 60.528C80.8659 60.528 81.4359 60.666 81.9219 60.942C82.4079 61.218 82.7829 61.614 83.0469 62.13C83.3109 62.64 83.4429 63.249 83.4429 63.957L83.4339 70.5H81.8409ZM95.9556 70.77C94.9896 70.77 94.1556 70.551 93.4536 70.113C92.7576 69.675 92.2206 69.069 91.8426 68.295C91.4646 67.521 91.2756 66.633 91.2756 65.631C91.2756 64.611 91.4676 63.717 91.8516 62.949C92.2356 62.181 92.7786 61.584 93.4806 61.158C94.1826 60.726 95.0076 60.51 95.9556 60.51C96.9276 60.51 97.7646 60.729 98.4666 61.167C99.1686 61.599 99.7056 62.202 100.078 62.976C100.456 63.744 100.645 64.629 100.645 65.631C100.645 66.645 100.456 67.539 100.078 68.313C99.6996 69.081 99.1596 69.684 98.4576 70.122C97.7556 70.554 96.9216 70.77 95.9556 70.77ZM95.9556 69.249C96.9636 69.249 97.7136 68.913 98.2056 68.241C98.6976 67.569 98.9436 66.699 98.9436 65.631C98.9436 64.533 98.6946 63.66 98.1966 63.012C97.6986 62.358 96.9516 62.031 95.9556 62.031C95.2776 62.031 94.7196 62.184 94.2816 62.49C93.8436 62.796 93.5166 63.219 93.3006 63.759C93.0846 64.299 92.9766 64.923 92.9766 65.631C92.9766 66.723 93.2286 67.599 93.7326 68.259C94.2366 68.919 94.9776 69.249 95.9556 69.249ZM102.929 70.5V60.78H104.36V63.129L104.126 62.823C104.24 62.523 104.387 62.247 104.567 61.995C104.753 61.743 104.96 61.536 105.188 61.374C105.44 61.17 105.725 61.014 106.043 60.906C106.361 60.798 106.685 60.735 107.015 60.717C107.345 60.693 107.654 60.714 107.942 60.78V62.283C107.606 62.193 107.237 62.169 106.835 62.211C106.433 62.253 106.061 62.4 105.719 62.652C105.407 62.874 105.164 63.144 104.99 63.462C104.822 63.78 104.705 64.125 104.639 64.497C104.573 64.863 104.54 65.238 104.54 65.622V70.5H102.929ZM109.946 70.5V60.78H111.377V63.129L111.143 62.823C111.257 62.523 111.404 62.247 111.584 61.995C111.77 61.743 111.977 61.536 112.205 61.374C112.457 61.17 112.742 61.014 113.06 60.906C113.378 60.798 113.702 60.735 114.032 60.717C114.362 60.693 114.671 60.714 114.959 60.78V62.283C114.623 62.193 114.254 62.169 113.852 62.211C113.45 62.253 113.078 62.4 112.736 62.652C112.424 62.874 112.181 63.144 112.007 63.462C111.839 63.78 111.722 64.125 111.656 64.497C111.59 64.863 111.557 65.238 111.557 65.622V70.5H109.946ZM120.927 70.77C119.961 70.77 119.127 70.551 118.425 70.113C117.729 69.675 117.192 69.069 116.814 68.295C116.436 67.521 116.247 66.633 116.247 65.631C116.247 64.611 116.439 63.717 116.823 62.949C117.207 62.181 117.75 61.584 118.452 61.158C119.154 60.726 119.979 60.51 120.927 60.51C121.899 60.51 122.736 60.729 123.438 61.167C124.14 61.599 124.677 62.202 125.049 62.976C125.427 63.744 125.616 64.629 125.616 65.631C125.616 66.645 125.427 67.539 125.049 68.313C124.671 69.081 124.131 69.684 123.429 70.122C122.727 70.554 121.893 70.77 120.927 70.77ZM120.927 69.249C121.935 69.249 122.685 68.913 123.177 68.241C123.669 67.569 123.915 66.699 123.915 65.631C123.915 64.533 123.666 63.66 123.168 63.012C122.67 62.358 121.923 62.031 120.927 62.031C120.249 62.031 119.691 62.184 119.253 62.49C118.815 62.796 118.488 63.219 118.272 63.759C118.056 64.299 117.948 64.923 117.948 65.631C117.948 66.723 118.2 67.599 118.704 68.259C119.208 68.919 119.949 69.249 120.927 69.249ZM129.619 70.5L126.649 60.771L128.242 60.78L130.411 67.89L132.598 60.78H134.011L136.189 67.89L138.367 60.78H139.951L136.981 70.5H135.649L133.3 63.111L130.951 70.5H129.619Z" fill="black"></path> </g> <g filter="url(#filter2_dd_8966_55385)"> <path d="M236 62C235.448 62 235 62.4477 235 63C235 63.5523 235.448 64 236 64H244C244.552 64 245 63.5523 245 63C245 62.4477 244.552 62 244 62H236Z" fill="#1672EC"></path> <path fill-rule="evenodd" clip-rule="evenodd" d="M234 55C232.343 55 231 56.3431 231 58V70C231 71.6569 232.343 73 234 73H246C247.657 73 249 71.6569 249 70V58C249 56.3431 247.657 55 246 55H234ZM233 70V60H247V70C247 70.5523 246.552 71 246 71H234C233.448 71 233 70.5523 233 70Z" fill="#1672EC"></path> </g> <rect x="37" y="16" width="76" height="24" rx="4" fill="white"></rect> <path d="M41.98 33V22.92H45.039C45.1463 22.92 45.3283 22.9223 45.585 22.927C45.8463 22.9317 46.096 22.9503 46.334 22.983C47.0993 23.0903 47.7387 23.375 48.252 23.837C48.7653 24.299 49.1503 24.887 49.407 25.601C49.6637 26.315 49.792 27.1013 49.792 27.96C49.792 28.8187 49.6637 29.605 49.407 30.319C49.1503 31.033 48.7653 31.621 48.252 32.083C47.7387 32.545 47.0993 32.8297 46.334 32.937C46.1007 32.965 45.851 32.9837 45.585 32.993C45.319 32.9977 45.137 33 45.039 33H41.98ZM43.044 32.013H45.039C45.2303 32.013 45.4357 32.0083 45.655 31.999C45.879 31.985 46.0703 31.9617 46.229 31.929C46.817 31.8263 47.2907 31.5883 47.65 31.215C48.014 30.8417 48.28 30.375 48.448 29.815C48.616 29.2503 48.7 28.632 48.7 27.96C48.7 27.2833 48.616 26.6627 48.448 26.098C48.28 25.5333 48.014 25.0667 47.65 24.698C47.286 24.3293 46.8123 24.0937 46.229 23.991C46.0703 23.9583 45.8767 23.9373 45.648 23.928C45.424 23.914 45.221 23.907 45.039 23.907H43.044V32.013ZM54.8204 33.21C54.0831 33.21 53.4438 33.0467 52.9025 32.72C52.3658 32.3933 51.9481 31.9337 51.6494 31.341C51.3508 30.7483 51.2014 30.053 51.2014 29.255C51.2014 28.429 51.3484 27.715 51.6424 27.113C51.9365 26.511 52.3495 26.0467 52.8815 25.72C53.4181 25.3933 54.0505 25.23 54.7785 25.23C55.5251 25.23 56.1621 25.4027 56.6895 25.748C57.2168 26.0887 57.6158 26.5787 57.8865 27.218C58.1571 27.8573 58.2808 28.6203 58.2575 29.507H57.2075V29.143C57.1888 28.163 56.9765 27.4233 56.5705 26.924C56.1691 26.4247 55.5811 26.175 54.8065 26.175C53.9945 26.175 53.3715 26.4387 52.9374 26.966C52.5081 27.4933 52.2935 28.2447 52.2935 29.22C52.2935 30.172 52.5081 30.9117 52.9374 31.439C53.3715 31.9617 53.9851 32.223 54.7785 32.223C55.3198 32.223 55.7911 32.0993 56.1925 31.852C56.5985 31.6 56.9181 31.2383 57.1515 30.767L58.1105 31.138C57.8118 31.796 57.3708 32.307 56.7875 32.671C56.2088 33.0303 55.5531 33.21 54.8204 33.21ZM51.9295 29.507V28.646H57.7045V29.507H51.9295ZM63.236 33.21C62.5407 33.21 61.9527 33.035 61.472 32.685C60.9914 32.3303 60.6274 31.852 60.38 31.25C60.1327 30.6433 60.009 29.9643 60.009 29.213C60.009 28.4477 60.1327 27.7663 60.38 27.169C60.632 26.567 61.0007 26.0933 61.486 25.748C61.9714 25.4027 62.5687 25.23 63.278 25.23C63.9687 25.23 64.5614 25.405 65.056 25.755C65.5507 26.105 65.9287 26.581 66.19 27.183C66.456 27.785 66.589 28.4617 66.589 29.213C66.589 29.969 66.456 30.648 66.19 31.25C65.924 31.852 65.5414 32.3303 65.042 32.685C64.5427 33.035 63.9407 33.21 63.236 33.21ZM59.834 36.36V25.44H60.758V31.131H60.87V36.36H59.834ZM63.131 32.251C63.6584 32.251 64.097 32.118 64.447 31.852C64.797 31.586 65.0584 31.2243 65.231 30.767C65.4084 30.305 65.497 29.787 65.497 29.213C65.497 28.6437 65.4107 28.1303 65.238 27.673C65.0654 27.2157 64.8017 26.854 64.447 26.588C64.097 26.322 63.6514 26.189 63.11 26.189C62.5827 26.189 62.144 26.3173 61.794 26.574C61.4487 26.8307 61.1897 27.1877 61.017 27.645C60.8444 28.0977 60.758 28.6203 60.758 29.213C60.758 29.7963 60.8444 30.319 61.017 30.781C61.1897 31.2383 61.451 31.5977 61.801 31.859C62.151 32.1203 62.5944 32.251 63.131 32.251ZM70.5244 33.21C69.955 33.21 69.4767 33.1073 69.0894 32.902C68.7067 32.6967 68.4197 32.4237 68.2284 32.083C68.037 31.7423 67.9414 31.3713 67.9414 30.97C67.9414 30.5593 68.023 30.2093 68.1864 29.92C68.3544 29.626 68.5807 29.3857 68.8654 29.199C69.1547 29.0123 69.4884 28.87 69.8664 28.772C70.249 28.6787 70.6714 28.597 71.1334 28.527C71.6 28.4523 72.055 28.3893 72.4984 28.338C72.9464 28.282 73.3384 28.2283 73.6744 28.177L73.3104 28.401C73.3244 27.6543 73.1797 27.1013 72.8764 26.742C72.573 26.3827 72.0457 26.203 71.2944 26.203C70.7764 26.203 70.3377 26.3197 69.9784 26.553C69.6237 26.7863 69.374 27.155 69.2294 27.659L68.2284 27.365C68.401 26.6883 68.7487 26.1633 69.2714 25.79C69.794 25.4167 70.473 25.23 71.3084 25.23C71.999 25.23 72.5847 25.3607 73.0654 25.622C73.5507 25.8787 73.8937 26.252 74.0944 26.742C74.1877 26.9613 74.2484 27.2063 74.2764 27.477C74.3044 27.7477 74.3184 28.023 74.3184 28.303V33H73.4014V31.103L73.6674 31.215C73.4107 31.8637 73.0117 32.3583 72.4704 32.699C71.929 33.0397 71.2804 33.21 70.5244 33.21ZM70.6434 32.321C71.124 32.321 71.544 32.2347 71.9034 32.062C72.2627 31.8893 72.552 31.6537 72.7714 31.355C72.9907 31.0517 73.133 30.711 73.1984 30.333C73.2544 30.0903 73.2847 29.8243 73.2894 29.535C73.294 29.241 73.2964 29.0217 73.2964 28.877L73.6884 29.08C73.3384 29.1267 72.958 29.1733 72.5474 29.22C72.1414 29.2667 71.74 29.3203 71.3434 29.381C70.9514 29.4417 70.5967 29.514 70.2794 29.598C70.0647 29.6587 69.857 29.745 69.6564 29.857C69.4557 29.9643 69.29 30.109 69.1594 30.291C69.0334 30.473 68.9704 30.6993 68.9704 30.97C68.9704 31.1893 69.024 31.4017 69.1314 31.607C69.2434 31.8123 69.4207 31.9827 69.6634 32.118C69.9107 32.2533 70.2374 32.321 70.6434 32.321ZM76.3759 33V25.44H77.2999V27.26L77.1179 27.022C77.2019 26.798 77.3115 26.5927 77.4469 26.406C77.5822 26.2147 77.7292 26.0583 77.8879 25.937C78.0839 25.7643 78.3125 25.6337 78.5739 25.545C78.8352 25.4517 79.0989 25.398 79.3649 25.384C79.6309 25.3653 79.8735 25.384 80.0929 25.44V26.406C79.8175 26.336 79.5165 26.3197 79.1899 26.357C78.8632 26.3943 78.5622 26.525 78.2869 26.749C78.0349 26.945 77.8459 27.1807 77.7199 27.456C77.5939 27.7267 77.5099 28.016 77.4679 28.324C77.4259 28.6273 77.4049 28.9283 77.4049 29.227V33H76.3759ZM85.772 33C85.3473 33.0887 84.9273 33.1237 84.512 33.105C84.1013 33.0863 83.7327 32.9977 83.406 32.839C83.084 32.6803 82.839 32.433 82.671 32.097C82.5357 31.817 82.461 31.5347 82.447 31.25C82.4377 30.9607 82.433 30.6317 82.433 30.263V23.34H83.455V30.221C83.455 30.5383 83.4573 30.8043 83.462 31.019C83.4713 31.229 83.5203 31.4157 83.609 31.579C83.777 31.8917 84.043 32.0783 84.407 32.139C84.7757 32.1997 85.2307 32.1857 85.772 32.097V33ZM80.816 26.322V25.44H85.772V26.322H80.816ZM90.3877 33.189C89.935 33.189 89.5383 33.119 89.1977 32.979C88.8617 32.839 88.5747 32.65 88.3367 32.412C88.1033 32.174 87.9143 31.9033 87.7697 31.6C87.625 31.292 87.52 30.9677 87.4547 30.627C87.3893 30.2817 87.3567 29.9387 87.3567 29.598V25.44H88.3927V29.297C88.3927 29.7123 88.4323 30.0973 88.5117 30.452C88.591 30.8067 88.717 31.117 88.8897 31.383C89.067 31.6443 89.2933 31.8473 89.5687 31.992C89.8487 32.1367 90.187 32.209 90.5837 32.209C90.9477 32.209 91.2673 32.146 91.5427 32.02C91.8227 31.894 92.056 31.7143 92.2427 31.481C92.434 31.243 92.5787 30.956 92.6767 30.62C92.7747 30.2793 92.8237 29.8967 92.8237 29.472L93.5517 29.633C93.5517 30.4077 93.4163 31.0587 93.1457 31.586C92.875 32.1133 92.5017 32.5123 92.0257 32.783C91.5497 33.0537 91.0037 33.189 90.3877 33.189ZM92.9287 33V31.138H92.8237V25.44H93.8527V33H92.9287ZM96.0444 33V25.44H96.9684V27.26L96.7864 27.022C96.8704 26.798 96.98 26.5927 97.1154 26.406C97.2507 26.2147 97.3977 26.0583 97.5564 25.937C97.7524 25.7643 97.981 25.6337 98.2424 25.545C98.5037 25.4517 98.7674 25.398 99.0334 25.384C99.2994 25.3653 99.542 25.384 99.7614 25.44V26.406C99.486 26.336 99.185 26.3197 98.8584 26.357C98.5317 26.3943 98.2307 26.525 97.9554 26.749C97.7034 26.945 97.5144 27.1807 97.3884 27.456C97.2624 27.7267 97.1784 28.016 97.1364 28.324C97.0944 28.6273 97.0734 28.9283 97.0734 29.227V33H96.0444ZM104.387 33.21C103.649 33.21 103.01 33.0467 102.469 32.72C101.932 32.3933 101.514 31.9337 101.216 31.341C100.917 30.7483 100.768 30.053 100.768 29.255C100.768 28.429 100.915 27.715 101.209 27.113C101.503 26.511 101.916 26.0467 102.448 25.72C102.984 25.3933 103.617 25.23 104.345 25.23C105.091 25.23 105.728 25.4027 106.256 25.748C106.783 26.0887 107.182 26.5787 107.453 27.218C107.723 27.8573 107.847 28.6203 107.824 29.507H106.774V29.143C106.755 28.163 106.543 27.4233 106.137 26.924C105.735 26.4247 105.147 26.175 104.373 26.175C103.561 26.175 102.938 26.4387 102.504 26.966C102.074 27.4933 101.86 28.2447 101.86 29.22C101.86 30.172 102.074 30.9117 102.504 31.439C102.938 31.9617 103.551 32.223 104.345 32.223C104.886 32.223 105.357 32.0993 105.759 31.852C106.165 31.6 106.484 31.2383 106.718 30.767L107.677 31.138C107.378 31.796 106.937 32.307 106.354 32.671C105.775 33.0303 105.119 33.21 104.387 33.21ZM101.496 29.507V28.646H107.271V29.507H101.496Z" fill="#616161"></path> <rect x="0.75" y="0.75" width="302.5" height="118.5" rx="19.25" stroke="#F7F7F7" stroke-width="1.5"></rect> <defs> <filter id="filter0_ii_8966_55385" x="40" y="40" width="224" height="51" filterUnits="userSpaceOnUse" color-interpolation-filters="sRGB"> <feFlood flood-opacity="0" result="BackgroundImageFix"></feFlood> <feBlend mode="normal" in="SourceGraphic" in2="BackgroundImageFix" result="shape"></feBlend> <feColorMatrix in="SourceAlpha" type="matrix" values="0 0 0 0 0 0 0 0 0 0 0 0 0 0 0 0 0 0 127 0" result="hardAlpha"></feColorMatrix> <feOffset dy="3"></feOffset> <feGaussianBlur stdDeviation="3"></feGaussianBlur> <feComposite in2="hardAlpha" operator="arithmetic" k2="-1" k3="1"></feComposite> <feColorMatrix type="matrix" values="0 0 0 0 0 0 0 0 0 0 0 0 0 0 0 0 0 0 0.06 0"></feColorMatrix> <feBlend mode="normal" in2="shape" result="effect1_innerShadow_8966_55385"></feBlend> <feColorMatrix in="SourceAlpha" type="matrix" values="0 0 0 0 0 0 0 0 0 0 0 0 0 0 0 0 0 0 127 0" result="hardAlpha"></feColorMatrix> <feOffset dy="1"></feOffset> <feGaussianBlur stdDeviation="1"></feGaussianBlur> <feComposite in2="hardAlpha" operator="arithmetic" k2="-1" k3="1"></feComposite> <feColorMatrix type="matrix" values="0 0 0 0 0 0 0 0 0 0 0 0 0 0 0 0 0 0 0.12 0"></feColorMatrix> <feBlend mode="normal" in2="effect1_innerShadow_8966_55385" result="effect2_innerShadow_8966_55385"></feBlend> </filter> <filter id="filter1_d_8966_55385" x="53.1797" y="57.54" width="87.7705" height="15.23" filterUnits="userSpaceOnUse" color-interpolation-filters="sRGB"> <feFlood flood-opacity="0" result="BackgroundImageFix"></feFlood> <feColorMatrix in="SourceAlpha" type="matrix" values="0 0 0 0 0 0 0 0 0 0 0 0 0 0 0 0 0 0 127 0" result="hardAlpha"></feColorMatrix> <feOffset dy="1"></feOffset> <feGaussianBlur stdDeviation="0.5"></feGaussianBlur> <feComposite in2="hardAlpha" operator="out"></feComposite> <feColorMatrix type="matrix" values="0 0 0 0 1 0 0 0 0 1 0 0 0 0 1 0 0 0 1 0"></feColorMatrix> <feBlend mode="normal" in2="BackgroundImageFix" result="effect1_dropShadow_8966_55385"></feBlend> <feBlend mode="normal" in="SourceGraphic" in2="effect1_dropShadow_8966_55385" result="shape"></feBlend> </filter> <filter id="filter2_dd_8966_55385" x="215" y="47" width="50" height="50" filterUnits="userSpaceOnUse" color-interpolation-filters="sRGB"> <feFlood flood-opacity="0" result="BackgroundImageFix"></feFlood> <feColorMatrix in="SourceAlpha" type="matrix" values="0 0 0 0 0 0 0 0 0 0 0 0 0 0 0 0 0 0 127 0" result="hardAlpha"></feColorMatrix> <feOffset dy="8"></feOffset> <feGaussianBlur stdDeviation="8"></feGaussianBlur> <feColorMatrix type="matrix" values="0 0 0 0 0.0588235 0 0 0 0 0.337255 0 0 0 0 0.701961 0 0 0 0.14 0"></feColorMatrix> <feBlend mode="multiply" in2="BackgroundImageFix" result="effect1_dropShadow_8966_55385"></feBlend> <feColorMatrix in="SourceAlpha" type="matrix" values="0 0 0 0 0 0 0 0 0 0 0 0 0 0 0 0 0 0 127 0" result="hardAlpha"></feColorMatrix> <feOffset dy="4"></feOffset> <feGaussianBlur stdDeviation="4"></feGaussianBlur> <feColorMatrix type="matrix" values="0 0 0 0 0.0588235 0 0 0 0 0.337255 0 0 0 0 0.701961 0 0 0 0.14 0"></feColorMatrix> <feBlend mode="multiply" in2="effect1_dropShadow_8966_55385" result="effect2_dropShadow_8966_55385"></feBlend> <feBlend mode="normal" in="SourceGraphic" in2="effect2_dropShadow_8966_55385" result="shape"></feBlend> </filter> <linearGradient id="paint0_linear_8966_55385" x1="152" y1="0" x2="152" y2="120" gradientUnits="userSpaceOnUse"> <stop stop-color="white"></stop> <stop offset="0.8125" stop-color="#FAF9FA"></stop> </linearGradient> <linearGradient id="paint1_linear_8966_55385" x1="152" y1="40" x2="152" y2="88" gradientUnits="userSpaceOnUse"> <stop stop-color="#F5F5F5"></stop> <stop offset="1" stop-color="white"></stop> </linearGradient> <linearGradient id="paint2_linear_8966_55385" x1="152" y1="40" x2="152" y2="88" gradientUnits="userSpaceOnUse"> <stop stop-color="#EEEEEE" stop-opacity="0"></stop> <stop offset="1" stop-color="#F1F0F4"></stop> </linearGradient> </defs> </svg> 