<?xml version="1.0" encoding="UTF-8"?> <svg xmlns="http://www.w3.org/2000/svg" width="474" height="156" viewBox="0 0 474 156" fill="none"> <g filter="url(#filter0_ii_8939_48420)"> <rect x="10" y="60" width="464" height="96" rx="20" fill="url(#paint0_linear_8939_48420)"></rect> </g> <rect x="11" y="61" width="462" height="94" rx="19" stroke="url(#paint1_linear_8939_48420)" stroke-width="2"></rect> <g filter="url(#filter1_d_8939_48420)"> <path d="M42.082 122L34.594 96.08H37.348L43.414 117.482L49.444 96.098L52.216 96.08L58.282 117.482L64.312 96.08H67.084L59.614 122H56.95L50.83 100.742L44.746 122H42.082ZM84.8445 122V112.082C84.8445 111.002 84.7425 110.012 84.5385 109.112C84.3345 108.2 84.0045 107.408 83.5485 106.736C83.1045 106.052 82.5225 105.524 81.8025 105.152C81.0945 104.78 80.2305 104.594 79.2105 104.594C78.2745 104.594 77.4465 104.756 76.7265 105.08C76.0185 105.404 75.4185 105.872 74.9265 106.484C74.4465 107.084 74.0805 107.816 73.8285 108.68C73.5765 109.544 73.4505 110.528 73.4505 111.632L71.5785 111.218C71.5785 109.226 71.9265 107.552 72.6225 106.196C73.3185 104.84 74.2785 103.814 75.5025 103.118C76.7265 102.422 78.1305 102.074 79.7145 102.074C80.8785 102.074 81.8925 102.254 82.7565 102.614C83.6325 102.974 84.3705 103.46 84.9705 104.072C85.5825 104.684 86.0745 105.386 86.4465 106.178C86.8185 106.958 87.0885 107.792 87.2565 108.68C87.4245 109.556 87.5085 110.432 87.5085 111.308V122H84.8445ZM70.7865 122V96.08H73.1805V110.714H73.4505V122H70.7865ZM98.3463 122.54C96.8823 122.54 95.6523 122.276 94.6563 121.748C93.6723 121.22 92.9343 120.518 92.4423 119.642C91.9503 118.766 91.7043 117.812 91.7043 116.78C91.7043 115.724 91.9143 114.824 92.3343 114.08C92.7663 113.324 93.3483 112.706 94.0803 112.226C94.8243 111.746 95.6823 111.38 96.6543 111.128C97.6383 110.888 98.7243 110.678 99.9123 110.498C101.112 110.306 102.282 110.144 103.422 110.012C104.574 109.868 105.582 109.73 106.446 109.598L105.51 110.174C105.546 108.254 105.174 106.832 104.394 105.908C103.614 104.984 102.258 104.522 100.326 104.522C98.9943 104.522 97.8663 104.822 96.9423 105.422C96.0303 106.022 95.3883 106.97 95.0163 108.266L92.4423 107.51C92.8863 105.77 93.7803 104.42 95.1243 103.46C96.4683 102.5 98.2143 102.02 100.362 102.02C102.138 102.02 103.644 102.356 104.88 103.028C106.128 103.688 107.01 104.648 107.526 105.908C107.766 106.472 107.922 107.102 107.994 107.798C108.066 108.494 108.102 109.202 108.102 109.922V122H105.744V117.122L106.428 117.41C105.768 119.078 104.742 120.35 103.35 121.226C101.958 122.102 100.29 122.54 98.3463 122.54ZM98.6523 120.254C99.8883 120.254 100.968 120.032 101.892 119.588C102.816 119.144 103.56 118.538 104.124 117.77C104.688 116.99 105.054 116.114 105.222 115.142C105.366 114.518 105.444 113.834 105.456 113.09C105.468 112.334 105.474 111.77 105.474 111.398L106.482 111.92C105.582 112.04 104.604 112.16 103.548 112.28C102.504 112.4 101.472 112.538 100.452 112.694C99.4443 112.85 98.5323 113.036 97.7163 113.252C97.1643 113.408 96.6303 113.63 96.1143 113.918C95.5983 114.194 95.1723 114.566 94.8363 115.034C94.5123 115.502 94.3503 116.084 94.3503 116.78C94.3503 117.344 94.4883 117.89 94.7643 118.418C95.0523 118.946 95.5083 119.384 96.1323 119.732C96.7683 120.08 97.6083 120.254 98.6523 120.254ZM123.977 122C122.885 122.228 121.805 122.318 120.737 122.27C119.681 122.222 118.733 121.994 117.893 121.586C117.065 121.178 116.435 120.542 116.003 119.678C115.655 118.958 115.463 118.232 115.427 117.5C115.403 116.756 115.391 115.91 115.391 114.962V97.16H118.019V114.854C118.019 115.67 118.025 116.354 118.037 116.906C118.061 117.446 118.187 117.926 118.415 118.346C118.847 119.15 119.531 119.63 120.467 119.786C121.415 119.942 122.585 119.906 123.977 119.678V122ZM111.233 104.828V102.56H123.977V104.828H111.233ZM128.412 103.64L128.574 102.326C129.054 102.362 129.402 102.266 129.618 102.038C129.834 101.81 129.966 101.504 130.014 101.12C130.062 100.736 130.074 100.322 130.05 99.878H128.412V96.08H131.49V100.598C131.49 101.702 131.208 102.53 130.644 103.082C130.092 103.634 129.348 103.82 128.412 103.64ZM141.368 122.522C139.088 122.522 137.21 122.03 135.734 121.046C134.27 120.062 133.37 118.694 133.034 116.942L135.734 116.492C136.022 117.596 136.676 118.478 137.696 119.138C138.728 119.786 140 120.11 141.512 120.11C142.988 120.11 144.152 119.804 145.004 119.192C145.856 118.568 146.282 117.722 146.282 116.654C146.282 116.054 146.144 115.568 145.868 115.196C145.604 114.812 145.058 114.458 144.23 114.134C143.402 113.81 142.166 113.426 140.522 112.982C138.758 112.502 137.378 112.022 136.382 111.542C135.386 111.062 134.678 110.51 134.258 109.886C133.838 109.25 133.628 108.476 133.628 107.564C133.628 106.46 133.94 105.494 134.564 104.666C135.188 103.826 136.052 103.178 137.156 102.722C138.26 102.254 139.544 102.02 141.008 102.02C142.472 102.02 143.78 102.26 144.932 102.74C146.096 103.208 147.032 103.868 147.74 104.72C148.448 105.572 148.868 106.562 149 107.69L146.3 108.176C146.12 107.036 145.55 106.136 144.59 105.476C143.642 104.804 142.436 104.456 140.972 104.432C139.592 104.396 138.47 104.66 137.606 105.224C136.742 105.776 136.31 106.514 136.31 107.438C136.31 107.954 136.466 108.398 136.778 108.77C137.09 109.13 137.654 109.472 138.47 109.796C139.298 110.12 140.474 110.474 141.998 110.858C143.786 111.314 145.19 111.794 146.21 112.298C147.23 112.802 147.956 113.396 148.388 114.08C148.82 114.764 149.036 115.61 149.036 116.618C149.036 118.454 148.352 119.9 146.984 120.956C145.628 122 143.756 122.522 141.368 122.522ZM164.217 130.64L167.979 120.434L168.033 123.458L159.519 102.56H162.327L169.311 120.038H168.159L174.603 102.56H177.303L166.863 130.64H164.217ZM188.449 122.54C186.517 122.54 184.867 122.102 183.499 121.226C182.131 120.35 181.081 119.138 180.349 117.59C179.617 116.042 179.251 114.266 179.251 112.262C179.251 110.222 179.623 108.434 180.367 106.898C181.111 105.362 182.167 104.168 183.535 103.316C184.915 102.452 186.553 102.02 188.449 102.02C190.393 102.02 192.049 102.458 193.417 103.334C194.797 104.198 195.847 105.404 196.567 106.952C197.299 108.488 197.665 110.258 197.665 112.262C197.665 114.302 197.299 116.096 196.567 117.644C195.835 119.18 194.779 120.38 193.399 121.244C192.019 122.108 190.369 122.54 188.449 122.54ZM188.449 120.002C190.609 120.002 192.217 119.288 193.273 117.86C194.329 116.42 194.857 114.554 194.857 112.262C194.857 109.91 194.323 108.038 193.255 106.646C192.199 105.254 190.597 104.558 188.449 104.558C186.997 104.558 185.797 104.888 184.849 105.548C183.913 106.196 183.211 107.102 182.743 108.266C182.287 109.418 182.059 110.75 182.059 112.262C182.059 114.602 182.599 116.48 183.679 117.896C184.759 119.3 186.349 120.002 188.449 120.002ZM209.675 122.486C208.511 122.486 207.491 122.306 206.615 121.946C205.751 121.586 205.013 121.1 204.401 120.488C203.801 119.876 203.315 119.18 202.943 118.4C202.571 117.608 202.301 116.774 202.133 115.898C201.965 115.01 201.881 114.128 201.881 113.252V102.56H204.545V112.478C204.545 113.546 204.647 114.536 204.851 115.448C205.055 116.36 205.379 117.158 205.823 117.842C206.279 118.514 206.861 119.036 207.569 119.408C208.289 119.78 209.159 119.966 210.179 119.966C211.115 119.966 211.937 119.804 212.645 119.48C213.365 119.156 213.965 118.694 214.445 118.094C214.937 117.482 215.309 116.744 215.561 115.88C215.813 115.004 215.939 114.02 215.939 112.928L217.811 113.342C217.811 115.334 217.463 117.008 216.767 118.364C216.071 119.72 215.111 120.746 213.887 121.442C212.663 122.138 211.259 122.486 209.675 122.486ZM216.209 122V117.212H215.939V102.56H218.585V122H216.209ZM224.22 122V102.56H226.596V107.24L226.128 106.628C226.344 106.052 226.626 105.524 226.974 105.044C227.322 104.552 227.7 104.15 228.108 103.838C228.612 103.394 229.2 103.058 229.872 102.83C230.544 102.59 231.222 102.452 231.906 102.416C232.59 102.368 233.214 102.416 233.778 102.56V105.044C233.07 104.864 232.296 104.822 231.456 104.918C230.616 105.014 229.842 105.35 229.134 105.926C228.486 106.43 228 107.036 227.676 107.744C227.352 108.44 227.136 109.184 227.028 109.976C226.92 110.756 226.866 111.53 226.866 112.298V122H224.22ZM259.65 122V112.082C259.65 111.002 259.548 110.012 259.344 109.112C259.14 108.2 258.81 107.408 258.354 106.736C257.91 106.052 257.328 105.524 256.608 105.152C255.9 104.78 255.036 104.594 254.016 104.594C253.08 104.594 252.252 104.756 251.532 105.08C250.824 105.404 250.224 105.872 249.732 106.484C249.252 107.084 248.886 107.816 248.634 108.68C248.382 109.544 248.256 110.528 248.256 111.632L246.384 111.218C246.384 109.226 246.732 107.552 247.428 106.196C248.124 104.84 249.084 103.814 250.308 103.118C251.532 102.422 252.936 102.074 254.52 102.074C255.684 102.074 256.698 102.254 257.562 102.614C258.438 102.974 259.176 103.46 259.776 104.072C260.388 104.684 260.88 105.386 261.252 106.178C261.624 106.958 261.894 107.792 262.062 108.68C262.23 109.556 262.314 110.432 262.314 111.308V122H259.65ZM245.592 122V102.56H247.986V107.348H248.256V122H245.592ZM273.151 122.54C271.687 122.54 270.457 122.276 269.461 121.748C268.477 121.22 267.739 120.518 267.247 119.642C266.755 118.766 266.509 117.812 266.509 116.78C266.509 115.724 266.719 114.824 267.139 114.08C267.571 113.324 268.153 112.706 268.885 112.226C269.629 111.746 270.487 111.38 271.459 111.128C272.443 110.888 273.529 110.678 274.717 110.498C275.917 110.306 277.087 110.144 278.227 110.012C279.379 109.868 280.387 109.73 281.251 109.598L280.315 110.174C280.351 108.254 279.979 106.832 279.199 105.908C278.419 104.984 277.063 104.522 275.131 104.522C273.799 104.522 272.671 104.822 271.747 105.422C270.835 106.022 270.193 106.97 269.821 108.266L267.247 107.51C267.691 105.77 268.585 104.42 269.929 103.46C271.273 102.5 273.019 102.02 275.167 102.02C276.943 102.02 278.449 102.356 279.685 103.028C280.933 103.688 281.815 104.648 282.331 105.908C282.571 106.472 282.727 107.102 282.799 107.798C282.871 108.494 282.907 109.202 282.907 109.922V122H280.549V117.122L281.233 117.41C280.573 119.078 279.547 120.35 278.155 121.226C276.763 122.102 275.095 122.54 273.151 122.54ZM273.457 120.254C274.693 120.254 275.773 120.032 276.697 119.588C277.621 119.144 278.365 118.538 278.929 117.77C279.493 116.99 279.859 116.114 280.027 115.142C280.171 114.518 280.249 113.834 280.261 113.09C280.273 112.334 280.279 111.77 280.279 111.398L281.287 111.92C280.387 112.04 279.409 112.16 278.353 112.28C277.309 112.4 276.277 112.538 275.257 112.694C274.249 112.85 273.337 113.036 272.521 113.252C271.969 113.408 271.435 113.63 270.919 113.918C270.403 114.194 269.977 114.566 269.641 115.034C269.317 115.502 269.155 116.084 269.155 116.78C269.155 117.344 269.293 117.89 269.569 118.418C269.857 118.946 270.313 119.384 270.937 119.732C271.573 120.08 272.413 120.254 273.457 120.254ZM311.382 122L311.4 109.238C311.4 107.738 310.98 106.562 310.14 105.71C309.312 104.846 308.256 104.414 306.972 104.414C306.24 104.414 305.526 104.582 304.83 104.918C304.134 105.254 303.558 105.794 303.102 106.538C302.658 107.282 302.436 108.254 302.436 109.454L300.87 109.004C300.834 107.612 301.104 106.394 301.68 105.35C302.268 104.306 303.072 103.496 304.092 102.92C305.124 102.332 306.288 102.038 307.584 102.038C309.54 102.038 311.106 102.644 312.282 103.856C313.458 105.056 314.046 106.682 314.046 108.734L314.028 122H311.382ZM288.18 122V102.56H290.556V107.348H290.844V122H288.18ZM299.808 122L299.826 109.418C299.826 107.87 299.412 106.652 298.584 105.764C297.768 104.864 296.688 104.414 295.344 104.414C294 104.414 292.914 104.876 292.086 105.8C291.258 106.712 290.844 107.93 290.844 109.454L289.26 108.59C289.26 107.342 289.554 106.226 290.142 105.242C290.73 104.246 291.534 103.466 292.554 102.902C293.574 102.326 294.732 102.038 296.028 102.038C297.264 102.038 298.362 102.302 299.322 102.83C300.294 103.358 301.056 104.126 301.608 105.134C302.16 106.142 302.436 107.366 302.436 108.806L302.418 122H299.808ZM327.439 122.54C325.543 122.54 323.899 122.12 322.507 121.28C321.127 120.44 320.053 119.258 319.285 117.734C318.517 116.21 318.133 114.422 318.133 112.37C318.133 110.246 318.511 108.41 319.267 106.862C320.023 105.314 321.085 104.12 322.453 103.28C323.833 102.44 325.459 102.02 327.331 102.02C329.251 102.02 330.889 102.464 332.245 103.352C333.601 104.228 334.627 105.488 335.323 107.132C336.019 108.776 336.337 110.738 336.277 113.018H333.577V112.082C333.529 109.562 332.983 107.66 331.939 106.376C330.907 105.092 329.395 104.45 327.403 104.45C325.315 104.45 323.713 105.128 322.597 106.484C321.493 107.84 320.941 109.772 320.941 112.28C320.941 114.728 321.493 116.63 322.597 117.986C323.713 119.33 325.291 120.002 327.331 120.002C328.723 120.002 329.935 119.684 330.967 119.048C332.011 118.4 332.833 117.47 333.433 116.258L335.899 117.212C335.131 118.904 333.997 120.218 332.497 121.154C331.009 122.078 329.323 122.54 327.439 122.54ZM320.005 113.018V110.804H334.855V113.018H320.005ZM345.952 114.926C345.952 113.99 345.994 113.168 346.078 112.46C346.174 111.74 346.414 111.02 346.798 110.3C347.158 109.616 347.602 109.052 348.13 108.608C348.658 108.152 349.21 107.726 349.786 107.33C350.362 106.922 350.908 106.442 351.424 105.89C351.892 105.35 352.204 104.804 352.36 104.252C352.516 103.7 352.594 103.118 352.594 102.506C352.594 101.894 352.516 101.348 352.36 100.868C352.216 100.388 351.988 99.974 351.676 99.626C351.196 99.038 350.608 98.636 349.912 98.42C349.216 98.204 348.49 98.096 347.734 98.096C346.99 98.096 346.294 98.204 345.646 98.42C345.01 98.624 344.482 98.942 344.062 99.374C343.654 99.758 343.354 100.22 343.162 100.76C342.982 101.3 342.892 101.87 342.892 102.47H340.156C340.204 101.522 340.408 100.598 340.768 99.698C341.14 98.786 341.68 98.024 342.388 97.412C343.096 96.764 343.918 96.296 344.854 96.008C345.802 95.708 346.756 95.558 347.716 95.558C348.892 95.558 350.008 95.738 351.064 96.098C352.12 96.446 353.008 97.034 353.728 97.862C354.304 98.474 354.724 99.176 354.988 99.968C355.264 100.748 355.402 101.582 355.402 102.47C355.402 103.466 355.216 104.402 354.844 105.278C354.472 106.154 353.95 106.934 353.278 107.618C352.87 108.062 352.408 108.476 351.892 108.86C351.376 109.232 350.878 109.622 350.398 110.03C349.93 110.426 349.57 110.858 349.318 111.326C349.006 111.902 348.832 112.448 348.796 112.964C348.772 113.48 348.76 114.134 348.76 114.926H345.952ZM345.97 122V118.472H348.76V122H345.97Z" fill="#818181"></path> </g> <rect x="24" y="8" width="156" height="48" rx="8" fill="white"></rect> <path d="M34.24 43V22.84H36.298V43H34.24ZM51.8856 43V35.286C51.8856 34.446 51.8062 33.676 51.6476 32.976C51.4889 32.2667 51.2322 31.6507 50.8776 31.128C50.5322 30.596 50.0796 30.1853 49.5196 29.896C48.9689 29.6067 48.2969 29.462 47.5036 29.462C46.7756 29.462 46.1316 29.588 45.5716 29.84C45.0209 30.092 44.5542 30.456 44.1716 30.932C43.7982 31.3987 43.5136 31.968 43.3176 32.64C43.1216 33.312 43.0236 34.0773 43.0236 34.936L41.5676 34.614C41.5676 33.0647 41.8382 31.7627 42.3796 30.708C42.9209 29.6533 43.6676 28.8553 44.6196 28.314C45.5716 27.7727 46.6636 27.502 47.8956 27.502C48.8009 27.502 49.5896 27.642 50.2616 27.922C50.9429 28.202 51.5169 28.58 51.9836 29.056C52.4596 29.532 52.8422 30.078 53.1316 30.694C53.4209 31.3007 53.6309 31.9493 53.7616 32.64C53.8922 33.3213 53.9576 34.0027 53.9576 34.684V43H51.8856ZM40.9516 43V27.88H42.8136V31.604H43.0236V43H40.9516ZM64.851 43.42C63.4603 43.42 62.2843 43.07 61.323 42.37C60.3616 41.6607 59.6336 40.704 59.139 39.5C58.6443 38.2867 58.397 36.9287 58.397 35.426C58.397 33.8953 58.6443 32.5327 59.139 31.338C59.643 30.134 60.3803 29.1867 61.351 28.496C62.3216 27.8053 63.5163 27.46 64.935 27.46C66.3163 27.46 67.5016 27.81 68.491 28.51C69.4803 29.21 70.2363 30.162 70.759 31.366C71.291 32.57 71.557 33.9233 71.557 35.426C71.557 36.938 71.291 38.296 70.759 39.5C70.227 40.704 69.4616 41.6607 68.463 42.37C67.4643 43.07 66.2603 43.42 64.851 43.42ZM58.047 49.72V27.88H59.895V39.262H60.119V49.72H58.047ZM64.641 41.502C65.6956 41.502 66.573 41.236 67.273 40.704C67.973 40.172 68.4956 39.4487 68.841 38.534C69.1956 37.61 69.373 36.574 69.373 35.426C69.373 34.2873 69.2003 33.2607 68.855 32.346C68.5096 31.4313 67.9823 30.708 67.273 30.176C66.573 29.644 65.6816 29.378 64.599 29.378C63.5443 29.378 62.667 29.6347 61.967 30.148C61.2763 30.6613 60.7583 31.3753 60.413 32.29C60.0676 33.1953 59.895 34.2407 59.895 35.426C59.895 36.5927 60.0676 37.638 60.413 38.562C60.7583 39.4767 61.281 40.1953 61.981 40.718C62.681 41.2407 63.5676 41.502 64.641 41.502ZM80.8837 43.378C79.9783 43.378 79.185 43.238 78.5037 42.958C77.8317 42.678 77.2577 42.3 76.7817 41.824C76.315 41.348 75.937 40.8067 75.6477 40.2C75.3583 39.584 75.1483 38.9353 75.0177 38.254C74.887 37.5633 74.8217 36.8773 74.8217 36.196V27.88H76.8937V35.594C76.8937 36.4247 76.973 37.1947 77.1317 37.904C77.2903 38.6133 77.5423 39.234 77.8877 39.766C78.2423 40.2887 78.695 40.6947 79.2457 40.984C79.8057 41.2733 80.4823 41.418 81.2757 41.418C82.0037 41.418 82.643 41.292 83.1937 41.04C83.7537 40.788 84.2203 40.4287 84.5937 39.962C84.9763 39.486 85.2657 38.912 85.4617 38.24C85.6577 37.5587 85.7557 36.7933 85.7557 35.944L87.2117 36.266C87.2117 37.8153 86.941 39.1173 86.3997 40.172C85.8583 41.2267 85.1117 42.0247 84.1597 42.566C83.2077 43.1073 82.1157 43.378 80.8837 43.378ZM85.9657 43V39.276H85.7557V27.88H87.8137V43H85.9657ZM100.429 43C99.5797 43.1773 98.7397 43.2473 97.9091 43.21C97.0877 43.1727 96.3504 42.9953 95.6971 42.678C95.0531 42.3607 94.5631 41.866 94.2271 41.194C93.9564 40.634 93.8071 40.0693 93.7791 39.5C93.7604 38.9213 93.7511 38.2633 93.7511 37.526V23.68H95.7951V37.442C95.7951 38.0767 95.7997 38.6087 95.8091 39.038C95.8277 39.458 95.9257 39.8313 96.1031 40.158C96.4391 40.7833 96.9711 41.1567 97.6991 41.278C98.4364 41.3993 99.3464 41.3713 100.429 41.194V43ZM90.5171 29.644V27.88H100.429V29.644H90.5171ZM110.234 43V22.42H112.292V43H110.234ZM121.286 43.42C120.147 43.42 119.19 43.2147 118.416 42.804C117.65 42.3933 117.076 41.8473 116.694 41.166C116.311 40.4847 116.12 39.7427 116.12 38.94C116.12 38.1187 116.283 37.4187 116.61 36.84C116.946 36.252 117.398 35.7713 117.968 35.398C118.546 35.0247 119.214 34.74 119.97 34.544C120.735 34.3573 121.58 34.194 122.504 34.054C123.437 33.9047 124.347 33.7787 125.234 33.676C126.13 33.564 126.914 33.4567 127.586 33.354L126.858 33.802C126.886 32.3087 126.596 31.2027 125.99 30.484C125.383 29.7653 124.328 29.406 122.826 29.406C121.79 29.406 120.912 29.6393 120.194 30.106C119.484 30.5727 118.985 31.31 118.696 32.318L116.694 31.73C117.039 30.3767 117.734 29.3267 118.78 28.58C119.825 27.8333 121.183 27.46 122.854 27.46C124.235 27.46 125.406 27.7213 126.368 28.244C127.338 28.7573 128.024 29.504 128.426 30.484C128.612 30.9227 128.734 31.4127 128.79 31.954C128.846 32.4953 128.874 33.046 128.874 33.606V43H127.04V39.206L127.572 39.43C127.058 40.7273 126.26 41.7167 125.178 42.398C124.095 43.0793 122.798 43.42 121.286 43.42ZM121.524 41.642C122.485 41.642 123.325 41.4693 124.044 41.124C124.762 40.7787 125.341 40.3073 125.78 39.71C126.218 39.1033 126.503 38.422 126.634 37.666C126.746 37.1807 126.806 36.6487 126.816 36.07C126.825 35.482 126.83 35.0433 126.83 34.754L127.614 35.16C126.914 35.2533 126.153 35.3467 125.332 35.44C124.52 35.5333 123.717 35.6407 122.924 35.762C122.14 35.8833 121.43 36.028 120.796 36.196C120.366 36.3173 119.951 36.49 119.55 36.714C119.148 36.9287 118.817 37.218 118.556 37.582C118.304 37.946 118.178 38.3987 118.178 38.94C118.178 39.3787 118.285 39.8033 118.5 40.214C118.724 40.6247 119.078 40.9653 119.564 41.236C120.058 41.5067 120.712 41.642 121.524 41.642ZM139.779 43.42C138.388 43.42 137.212 43.07 136.251 42.37C135.289 41.6607 134.561 40.704 134.067 39.5C133.572 38.2867 133.325 36.9287 133.325 35.426C133.325 33.8953 133.572 32.5327 134.067 31.338C134.571 30.134 135.308 29.1867 136.279 28.496C137.249 27.8053 138.444 27.46 139.863 27.46C141.244 27.46 142.429 27.81 143.419 28.51C144.408 29.21 145.164 30.162 145.687 31.366C146.219 32.57 146.485 33.9233 146.485 35.426C146.485 36.938 146.219 38.296 145.687 39.5C145.155 40.704 144.389 41.6607 143.391 42.37C142.392 43.07 141.188 43.42 139.779 43.42ZM132.975 43V22.84H135.047V31.618H134.823V43H132.975ZM139.569 41.502C140.623 41.502 141.501 41.236 142.201 40.704C142.901 40.172 143.423 39.4487 143.769 38.534C144.123 37.61 144.301 36.574 144.301 35.426C144.301 34.2873 144.128 33.2607 143.783 32.346C143.437 31.4313 142.91 30.708 142.201 30.176C141.501 29.644 140.609 29.378 139.527 29.378C138.472 29.378 137.595 29.6347 136.895 30.148C136.204 30.6613 135.686 31.3753 135.341 32.29C134.995 33.1953 134.823 34.2407 134.823 35.426C134.823 36.5927 134.995 37.638 135.341 38.562C135.686 39.4767 136.209 40.1953 136.909 40.718C137.609 41.2407 138.495 41.502 139.569 41.502ZM156.428 43.42C154.953 43.42 153.674 43.0933 152.592 42.44C151.518 41.7867 150.683 40.8673 150.086 39.682C149.488 38.4967 149.19 37.106 149.19 35.51C149.19 33.858 149.484 32.43 150.072 31.226C150.66 30.022 151.486 29.0933 152.55 28.44C153.623 27.7867 154.888 27.46 156.344 27.46C157.837 27.46 159.111 27.8053 160.166 28.496C161.22 29.1773 162.018 30.1573 162.56 31.436C163.101 32.7147 163.348 34.2407 163.302 36.014H161.202V35.286C161.164 33.326 160.74 31.8467 159.928 30.848C159.125 29.8493 157.949 29.35 156.4 29.35C154.776 29.35 153.53 29.8773 152.662 30.932C151.803 31.9867 151.374 33.4893 151.374 35.44C151.374 37.344 151.803 38.8233 152.662 39.878C153.53 40.9233 154.757 41.446 156.344 41.446C157.426 41.446 158.369 41.1987 159.172 40.704C159.984 40.2 160.623 39.4767 161.09 38.534L163.008 39.276C162.41 40.592 161.528 41.614 160.362 42.342C159.204 43.0607 157.893 43.42 156.428 43.42ZM150.646 36.014V34.292H162.196V36.014H150.646ZM167.159 43V22.42H169.217V43H167.159Z" fill="black"></path> <g filter="url(#filter2_d_8939_48420)"> <rect x="10.9077" y="7.9079" width="183.184" height="48.9737" stroke="#7B61FF" stroke-width="1.97368"></rect> <rect x="5.64402" y="2.64475" width="11.1842" height="11.1842" fill="white" stroke="#7B61FF" stroke-width="1.97368"></rect> <rect x="188.171" y="2.64475" width="11.1842" height="11.1842" fill="white" stroke="#7B61FF" stroke-width="1.97368"></rect> <rect x="5.64402" y="50.9605" width="11.1842" height="11.1842" fill="white" stroke="#7B61FF" stroke-width="1.97368"></rect> <rect x="188.171" y="50.9605" width="11.1842" height="11.1842" fill="white" stroke="#7B61FF" stroke-width="1.97368"></rect> </g> <defs> <filter id="filter0_ii_8939_48420" x="10" y="60" width="464" height="102" filterUnits="userSpaceOnUse" color-interpolation-filters="sRGB"> <feFlood flood-opacity="0" result="BackgroundImageFix"></feFlood> <feBlend mode="normal" in="SourceGraphic" in2="BackgroundImageFix" result="shape"></feBlend> <feColorMatrix in="SourceAlpha" type="matrix" values="0 0 0 0 0 0 0 0 0 0 0 0 0 0 0 0 0 0 127 0" result="hardAlpha"></feColorMatrix> <feOffset dy="6"></feOffset> <feGaussianBlur stdDeviation="6"></feGaussianBlur> <feComposite in2="hardAlpha" operator="arithmetic" k2="-1" k3="1"></feComposite> <feColorMatrix type="matrix" values="0 0 0 0 0 0 0 0 0 0 0 0 0 0 0 0 0 0 0.06 0"></feColorMatrix> <feBlend mode="normal" in2="shape" result="effect1_innerShadow_8939_48420"></feBlend> <feColorMatrix in="SourceAlpha" type="matrix" values="0 0 0 0 0 0 0 0 0 0 0 0 0 0 0 0 0 0 127 0" result="hardAlpha"></feColorMatrix> <feOffset dy="2"></feOffset> <feGaussianBlur stdDeviation="2"></feGaussianBlur> <feComposite in2="hardAlpha" operator="arithmetic" k2="-1" k3="1"></feComposite> <feColorMatrix type="matrix" values="0 0 0 0 0 0 0 0 0 0 0 0 0 0 0 0 0 0 0.12 0"></feColorMatrix> <feBlend mode="normal" in2="effect1_innerShadow_8939_48420" result="effect2_innerShadow_8939_48420"></feBlend> </filter> <filter id="filter1_d_8939_48420" x="32.5938" y="95.558" width="324.809" height="39.082" filterUnits="userSpaceOnUse" color-interpolation-filters="sRGB"> <feFlood flood-opacity="0" result="BackgroundImageFix"></feFlood> <feColorMatrix in="SourceAlpha" type="matrix" values="0 0 0 0 0 0 0 0 0 0 0 0 0 0 0 0 0 0 127 0" result="hardAlpha"></feColorMatrix> <feOffset dy="2"></feOffset> <feGaussianBlur stdDeviation="1"></feGaussianBlur> <feComposite in2="hardAlpha" operator="out"></feComposite> <feColorMatrix type="matrix" values="0 0 0 0 1 0 0 0 0 1 0 0 0 0 1 0 0 0 1 0"></feColorMatrix> <feBlend mode="normal" in2="BackgroundImageFix" result="effect1_dropShadow_8939_48420"></feBlend> <feBlend mode="normal" in="SourceGraphic" in2="effect1_dropShadow_8939_48420" result="shape"></feBlend> </filter> <filter id="filter2_d_8939_48420" x="0.0526316" y="-0.315789" width="204.895" height="70.8947" filterUnits="userSpaceOnUse" color-interpolation-filters="sRGB"> <feFlood flood-opacity="0" result="BackgroundImageFix"></feFlood> <feColorMatrix in="SourceAlpha" type="matrix" values="0 0 0 0 0 0 0 0 0 0 0 0 0 0 0 0 0 0 127 0" result="hardAlpha"></feColorMatrix> <feOffset dy="2.63158"></feOffset> <feGaussianBlur stdDeviation="1.97368"></feGaussianBlur> <feComposite in2="hardAlpha" operator="out"></feComposite> <feColorMatrix type="matrix" values="0 0 0 0 0.482353 0 0 0 0 0.380392 0 0 0 0 1 0 0 0 0.16 0"></feColorMatrix> <feBlend mode="normal" in2="BackgroundImageFix" result="effect1_dropShadow_8939_48420"></feBlend> <feBlend mode="normal" in="SourceGraphic" in2="effect1_dropShadow_8939_48420" result="shape"></feBlend> </filter> <linearGradient id="paint0_linear_8939_48420" x1="242" y1="60" x2="242" y2="156" gradientUnits="userSpaceOnUse"> <stop stop-color="#F5F5F5"></stop> <stop offset="1" stop-color="#F5F5F5" stop-opacity="0"></stop> </linearGradient> <linearGradient id="paint1_linear_8939_48420" x1="242" y1="60" x2="242" y2="156" gradientUnits="userSpaceOnUse"> <stop stop-color="#EEEEEE" stop-opacity="0"></stop> <stop offset="1" stop-color="#F1F0F4"></stop> </linearGradient> </defs> </svg> 