<?xml version="1.0" encoding="UTF-8"?> <svg xmlns="http://www.w3.org/2000/svg" width="400" height="128" viewBox="0 0 400 128" fill="none"> <rect x="0.75" y="0.75" width="398.5" height="126.5" rx="19.25" fill="url(#paint0_linear_8971_165021)"></rect> <g filter="url(#filter0_ii_8971_165021)"> <rect x="40" y="43" width="320" height="48" rx="10" fill="url(#paint1_linear_8971_165021)"></rect> </g> <rect x="40.5" y="43.5" width="319" height="47" rx="9.5" stroke="url(#paint2_linear_8971_165021)"></rect> <g style="mix-blend-mode:multiply"> <mask id="path-5-inside-1_8971_165021" fill="white"> <path d="M360 73C360 80.4995 360 84.2492 358.09 86.8779C357.473 87.7268 356.727 88.4734 355.878 89.0902C353.249 91 349.499 91 342 91L254 91L254 43L342 43C349.499 43 353.249 43 355.878 44.9098C356.727 45.5266 357.473 46.2732 358.09 47.1221C360 49.7508 360 53.5005 360 61L360 73Z"></path> </mask> <g filter="url(#filter1_ii_8971_165021)"> <path d="M360 73C360 80.4995 360 84.2492 358.09 86.8779C357.473 87.7268 356.727 88.4734 355.878 89.0902C353.249 91 349.499 91 342 91L254 91L254 43L342 43C349.499 43 353.249 43 355.878 44.9098C356.727 45.5266 357.473 46.2732 358.09 47.1221C360 49.7508 360 53.5005 360 61L360 73Z" fill="#C5DCFA" fill-opacity="0.5"></path> </g> <path d="M360 91L254 91L360 91ZM254 43L360 43L254 43ZM360 43L360 91L360 43ZM253 91L253 43L255 43L255 91L253 91Z" fill="#E0E0E0" mask="url(#path-5-inside-1_8971_165021)"></path> </g> <path fill-rule="evenodd" clip-rule="evenodd" d="M65 58C63.0387 58 61.3037 58.7706 60.0579 59.845C59.0048 60.7533 58.2416 61.9348 58.0456 63.1219C55.7406 63.6308 54 65.6383 54 68.0625C54 70.8782 56.3479 73.125 59.1992 73.125H64.3125V65.8473L61.3611 68.7986C61.0927 69.0671 60.6573 69.0671 60.3889 68.7986C60.1204 68.5302 60.1204 68.0948 60.3889 67.8264L64.5139 63.7014C64.7823 63.4329 65.2176 63.4329 65.4861 63.7014L69.6111 67.8264C69.8796 68.0948 69.8796 68.5302 69.6111 68.7986C69.3426 69.0671 68.9074 69.0671 68.6389 68.7986L65.6875 65.8473V73.125H71.4453C73.9407 73.125 76 71.1581 76 68.6875C76 66.4378 74.2924 64.6056 72.1028 64.2961C71.7695 60.7492 68.6991 58 65 58Z" fill="#A1A1A1"></path> <path fill-rule="evenodd" clip-rule="evenodd" d="M64.3125 77.9375V73.125H65.6875V77.9375C65.6875 78.3172 65.3797 78.625 65 78.625C64.6203 78.625 64.3125 78.3172 64.3125 77.9375Z" fill="#A1A1A1"></path> <g filter="url(#filter2_d_8971_165021)"> <path d="M94.588 73.77C93.298 73.77 92.203 73.485 91.303 72.915C90.403 72.345 89.716 71.553 89.242 70.539C88.774 69.525 88.54 68.352 88.54 67.02C88.54 65.688 88.774 64.515 89.242 63.501C89.716 62.487 90.403 61.695 91.303 61.125C92.203 60.555 93.298 60.27 94.588 60.27C96.088 60.27 97.321 60.651 98.287 61.413C99.259 62.175 99.928 63.201 100.294 64.491L98.665 64.923C98.401 63.957 97.93 63.195 97.252 62.637C96.574 62.079 95.686 61.8 94.588 61.8C93.622 61.8 92.818 62.019 92.176 62.457C91.534 62.895 91.051 63.507 90.727 64.293C90.403 65.073 90.238 65.982 90.232 67.02C90.226 68.052 90.385 68.961 90.709 69.747C91.033 70.527 91.519 71.139 92.167 71.583C92.815 72.021 93.622 72.24 94.588 72.24C95.686 72.24 96.574 71.961 97.252 71.403C97.93 70.839 98.401 70.077 98.665 69.117L100.294 69.549C99.928 70.833 99.259 71.859 98.287 72.627C97.321 73.389 96.088 73.77 94.588 73.77ZM109.491 73.5V68.631C109.491 68.169 109.449 67.725 109.365 67.299C109.287 66.873 109.146 66.492 108.942 66.156C108.744 65.814 108.474 65.544 108.132 65.346C107.796 65.148 107.37 65.049 106.854 65.049C106.452 65.049 106.086 65.118 105.756 65.256C105.432 65.388 105.153 65.592 104.919 65.868C104.685 66.144 104.502 66.492 104.37 66.912C104.244 67.326 104.181 67.815 104.181 68.379L103.128 68.055C103.128 67.113 103.296 66.306 103.632 65.634C103.974 64.956 104.451 64.437 105.063 64.077C105.681 63.711 106.407 63.528 107.241 63.528C107.871 63.528 108.408 63.627 108.852 63.825C109.296 64.023 109.665 64.287 109.959 64.617C110.253 64.941 110.484 65.307 110.652 65.715C110.82 66.117 110.937 66.528 111.003 66.948C111.075 67.362 111.111 67.755 111.111 68.127V73.5H109.491ZM102.561 73.5V60.54H104.001V67.695H104.181V73.5H102.561ZM117.893 73.77C116.927 73.77 116.093 73.551 115.391 73.113C114.695 72.675 114.158 72.069 113.78 71.295C113.402 70.521 113.213 69.633 113.213 68.631C113.213 67.611 113.405 66.717 113.789 65.949C114.173 65.181 114.716 64.584 115.418 64.158C116.12 63.726 116.945 63.51 117.893 63.51C118.865 63.51 119.702 63.729 120.404 64.167C121.106 64.599 121.643 65.202 122.015 65.976C122.393 66.744 122.582 67.629 122.582 68.631C122.582 69.645 122.393 70.539 122.015 71.313C121.637 72.081 121.097 72.684 120.395 73.122C119.693 73.554 118.859 73.77 117.893 73.77ZM117.893 72.249C118.901 72.249 119.651 71.913 120.143 71.241C120.635 70.569 120.881 69.699 120.881 68.631C120.881 67.533 120.632 66.66 120.134 66.012C119.636 65.358 118.889 65.031 117.893 65.031C117.215 65.031 116.657 65.184 116.219 65.49C115.781 65.796 115.454 66.219 115.238 66.759C115.022 67.299 114.914 67.923 114.914 68.631C114.914 69.723 115.166 70.599 115.67 71.259C116.174 71.919 116.915 72.249 117.893 72.249ZM129.006 73.77C128.04 73.77 127.206 73.551 126.504 73.113C125.808 72.675 125.271 72.069 124.893 71.295C124.515 70.521 124.326 69.633 124.326 68.631C124.326 67.611 124.518 66.717 124.902 65.949C125.286 65.181 125.829 64.584 126.531 64.158C127.233 63.726 128.058 63.51 129.006 63.51C129.978 63.51 130.815 63.729 131.517 64.167C132.219 64.599 132.756 65.202 133.128 65.976C133.506 66.744 133.695 67.629 133.695 68.631C133.695 69.645 133.506 70.539 133.128 71.313C132.75 72.081 132.21 72.684 131.508 73.122C130.806 73.554 129.972 73.77 129.006 73.77ZM129.006 72.249C130.014 72.249 130.764 71.913 131.256 71.241C131.748 70.569 131.994 69.699 131.994 68.631C131.994 67.533 131.745 66.66 131.247 66.012C130.749 65.358 130.002 65.031 129.006 65.031C128.328 65.031 127.77 65.184 127.332 65.49C126.894 65.796 126.567 66.219 126.351 66.759C126.135 67.299 126.027 67.923 126.027 68.631C126.027 69.723 126.279 70.599 126.783 71.259C127.287 71.919 128.028 72.249 129.006 72.249ZM139.511 73.761C138.353 73.761 137.402 73.509 136.658 73.005C135.92 72.495 135.467 71.784 135.299 70.872L136.937 70.611C137.069 71.139 137.372 71.559 137.846 71.871C138.32 72.177 138.908 72.33 139.61 72.33C140.276 72.33 140.798 72.192 141.176 71.916C141.554 71.64 141.743 71.265 141.743 70.791C141.743 70.515 141.68 70.293 141.554 70.125C141.428 69.951 141.167 69.789 140.771 69.639C140.381 69.489 139.79 69.309 138.998 69.099C138.14 68.871 137.465 68.634 136.973 68.388C136.481 68.142 136.13 67.857 135.92 67.533C135.71 67.209 135.605 66.816 135.605 66.354C135.605 65.784 135.761 65.286 136.073 64.86C136.385 64.428 136.82 64.095 137.378 63.861C137.942 63.627 138.596 63.51 139.34 63.51C140.078 63.51 140.738 63.627 141.32 63.861C141.902 64.095 142.37 64.428 142.724 64.86C143.084 65.286 143.297 65.784 143.363 66.354L141.725 66.651C141.647 66.129 141.395 65.718 140.969 65.418C140.549 65.118 140.006 64.959 139.34 64.941C138.71 64.917 138.197 65.028 137.801 65.274C137.411 65.52 137.216 65.853 137.216 66.273C137.216 66.507 137.288 66.708 137.432 66.876C137.582 67.044 137.855 67.203 138.251 67.353C138.653 67.503 139.235 67.674 139.997 67.866C140.855 68.082 141.53 68.319 142.022 68.577C142.52 68.829 142.874 69.129 143.084 69.477C143.294 69.819 143.399 70.242 143.399 70.746C143.399 71.682 143.054 72.42 142.364 72.96C141.674 73.494 140.723 73.761 139.511 73.761ZM149.898 73.77C148.944 73.77 148.11 73.56 147.396 73.14C146.688 72.714 146.136 72.123 145.74 71.367C145.344 70.605 145.146 69.717 145.146 68.703C145.146 67.641 145.341 66.723 145.731 65.949C146.121 65.169 146.664 64.569 147.36 64.149C148.062 63.723 148.884 63.51 149.826 63.51C150.804 63.51 151.635 63.735 152.319 64.185C153.009 64.635 153.525 65.277 153.867 66.111C154.215 66.945 154.365 67.938 154.317 69.09H152.697V68.514C152.679 67.32 152.436 66.429 151.968 65.841C151.5 65.247 150.804 64.95 149.88 64.95C148.89 64.95 148.137 65.268 147.621 65.904C147.105 66.54 146.847 67.452 146.847 68.64C146.847 69.786 147.105 70.674 147.621 71.304C148.137 71.934 148.872 72.249 149.826 72.249C150.468 72.249 151.026 72.102 151.5 71.808C151.974 71.514 152.346 71.091 152.616 70.539L154.155 71.07C153.777 71.928 153.207 72.594 152.445 73.068C151.689 73.536 150.84 73.77 149.898 73.77ZM146.307 69.09V67.803H153.489V69.09H146.307ZM161.456 73.5V63.249C161.456 62.997 161.468 62.742 161.492 62.484C161.516 62.22 161.57 61.965 161.654 61.719C161.738 61.467 161.876 61.236 162.068 61.026C162.29 60.78 162.533 60.606 162.797 60.504C163.061 60.396 163.328 60.33 163.598 60.306C163.874 60.282 164.135 60.27 164.381 60.27H165.614V61.602H164.471C163.997 61.602 163.643 61.719 163.409 61.953C163.175 62.181 163.058 62.529 163.058 62.997V73.5H161.456ZM159.809 65.103V63.78H165.614V65.103H159.809ZM167.797 62.061V60.405H169.399V62.061H167.797ZM167.797 73.5V63.78H169.399V73.5H167.797ZM172.582 73.5V60.27H174.184V73.5H172.582ZM181.398 73.77C180.444 73.77 179.61 73.56 178.896 73.14C178.188 72.714 177.636 72.123 177.24 71.367C176.844 70.605 176.646 69.717 176.646 68.703C176.646 67.641 176.841 66.723 177.231 65.949C177.621 65.169 178.164 64.569 178.86 64.149C179.562 63.723 180.384 63.51 181.326 63.51C182.304 63.51 183.135 63.735 183.819 64.185C184.509 64.635 185.025 65.277 185.367 66.111C185.715 66.945 185.865 67.938 185.817 69.09H184.197V68.514C184.179 67.32 183.936 66.429 183.468 65.841C183 65.247 182.304 64.95 181.38 64.95C180.39 64.95 179.637 65.268 179.121 65.904C178.605 66.54 178.347 67.452 178.347 68.64C178.347 69.786 178.605 70.674 179.121 71.304C179.637 71.934 180.372 72.249 181.326 72.249C181.968 72.249 182.526 72.102 183 71.808C183.474 71.514 183.846 71.091 184.116 70.539L185.655 71.07C185.277 71.928 184.707 72.594 183.945 73.068C183.189 73.536 182.34 73.77 181.398 73.77ZM177.807 69.09V67.803H184.989V69.09H177.807ZM191.796 73.761C190.638 73.761 189.687 73.509 188.943 73.005C188.205 72.495 187.752 71.784 187.584 70.872L189.222 70.611C189.354 71.139 189.657 71.559 190.131 71.871C190.605 72.177 191.193 72.33 191.895 72.33C192.561 72.33 193.083 72.192 193.461 71.916C193.839 71.64 194.028 71.265 194.028 70.791C194.028 70.515 193.965 70.293 193.839 70.125C193.713 69.951 193.452 69.789 193.056 69.639C192.666 69.489 192.075 69.309 191.283 69.099C190.425 68.871 189.75 68.634 189.258 68.388C188.766 68.142 188.415 67.857 188.205 67.533C187.995 67.209 187.89 66.816 187.89 66.354C187.89 65.784 188.046 65.286 188.358 64.86C188.67 64.428 189.105 64.095 189.663 63.861C190.227 63.627 190.881 63.51 191.625 63.51C192.363 63.51 193.023 63.627 193.605 63.861C194.187 64.095 194.655 64.428 195.009 64.86C195.369 65.286 195.582 65.784 195.648 66.354L194.01 66.651C193.932 66.129 193.68 65.718 193.254 65.418C192.834 65.118 192.291 64.959 191.625 64.941C190.995 64.917 190.482 65.028 190.086 65.274C189.696 65.52 189.501 65.853 189.501 66.273C189.501 66.507 189.573 66.708 189.717 66.876C189.867 67.044 190.14 67.203 190.536 67.353C190.938 67.503 191.52 67.674 192.282 67.866C193.14 68.082 193.815 68.319 194.307 68.577C194.805 68.829 195.159 69.129 195.369 69.477C195.579 69.819 195.684 70.242 195.684 70.746C195.684 71.682 195.339 72.42 194.649 72.96C193.959 73.494 193.008 73.761 191.796 73.761ZM198.259 73.5V71.736H200.023V73.5H198.259ZM203.413 73.5V71.736H205.177V73.5H203.413ZM208.567 73.5V71.736H210.331V73.5H208.567Z" fill="#A1A1A1"></path> </g> <rect x="37" y="19" width="80" height="24" rx="4" fill="white"></rect> <path d="M41.98 36V25.92H47.769V26.949H43.009V30.449H46.929V31.471H43.009V36H41.98ZM49.4099 27.005V25.85H50.4389V27.005H49.4099ZM49.4099 36V28.44H50.4389V36H49.4099ZM52.9127 36V25.71H53.9417V36H52.9127ZM59.4744 36.21C58.7371 36.21 58.0978 36.0467 57.5564 35.72C57.0198 35.3933 56.6021 34.9337 56.3034 34.341C56.0048 33.7483 55.8554 33.053 55.8554 32.255C55.8554 31.429 56.0024 30.715 56.2964 30.113C56.5904 29.511 57.0034 29.0467 57.5354 28.72C58.0721 28.3933 58.7044 28.23 59.4324 28.23C60.1791 28.23 60.8161 28.4027 61.3434 28.748C61.8708 29.0887 62.2698 29.5787 62.5404 30.218C62.8111 30.8573 62.9348 31.6203 62.9114 32.507H61.8614V32.143C61.8428 31.163 61.6304 30.4233 61.2244 29.924C60.8231 29.4247 60.2351 29.175 59.4604 29.175C58.6484 29.175 58.0254 29.4387 57.5914 29.966C57.1621 30.4933 56.9474 31.2447 56.9474 32.22C56.9474 33.172 57.1621 33.9117 57.5914 34.439C58.0254 34.9617 58.6391 35.223 59.4324 35.223C59.9738 35.223 60.4451 35.0993 60.8464 34.852C61.2524 34.6 61.5721 34.2383 61.8054 33.767L62.7644 34.138C62.4658 34.796 62.0248 35.307 61.4414 35.671C60.8628 36.0303 60.2071 36.21 59.4744 36.21ZM56.5834 32.507V31.646H62.3584V32.507H56.5834ZM70.629 36.189C70.1764 36.189 69.7797 36.119 69.439 35.979C69.103 35.839 68.816 35.65 68.578 35.412C68.3447 35.174 68.1557 34.9033 68.011 34.6C67.8664 34.292 67.7614 33.9677 67.696 33.627C67.6307 33.2817 67.598 32.9387 67.598 32.598V28.44H68.634V32.297C68.634 32.7123 68.6737 33.0973 68.753 33.452C68.8324 33.8067 68.9584 34.117 69.131 34.383C69.3084 34.6443 69.5347 34.8473 69.81 34.992C70.09 35.1367 70.4284 35.209 70.825 35.209C71.189 35.209 71.5087 35.146 71.784 35.02C72.064 34.894 72.2974 34.7143 72.484 34.481C72.6754 34.243 72.82 33.956 72.918 33.62C73.016 33.2793 73.065 32.8967 73.065 32.472L73.793 32.633C73.793 33.4077 73.6577 34.0587 73.387 34.586C73.1164 35.1133 72.743 35.5123 72.267 35.783C71.791 36.0537 71.245 36.189 70.629 36.189ZM73.17 36V34.138H73.065V28.44H74.094V36H73.17ZM79.6807 36.21C78.9854 36.21 78.3974 36.035 77.9167 35.685C77.4361 35.3303 77.0721 34.852 76.8247 34.25C76.5774 33.6433 76.4537 32.9643 76.4537 32.213C76.4537 31.4477 76.5774 30.7663 76.8247 30.169C77.0767 29.567 77.4454 29.0933 77.9307 28.748C78.4161 28.4027 79.0134 28.23 79.7227 28.23C80.4134 28.23 81.0061 28.405 81.5007 28.755C81.9954 29.105 82.3734 29.581 82.6347 30.183C82.9007 30.785 83.0337 31.4617 83.0337 32.213C83.0337 32.969 82.9007 33.648 82.6347 34.25C82.3687 34.852 81.9861 35.3303 81.4867 35.685C80.9874 36.035 80.3854 36.21 79.6807 36.21ZM76.2787 39.36V28.44H77.2027V34.131H77.3147V39.36H76.2787ZM79.5757 35.251C80.1031 35.251 80.5417 35.118 80.8917 34.852C81.2417 34.586 81.5031 34.2243 81.6757 33.767C81.8531 33.305 81.9417 32.787 81.9417 32.213C81.9417 31.6437 81.8554 31.1303 81.6827 30.673C81.5101 30.2157 81.2464 29.854 80.8917 29.588C80.5417 29.322 80.0961 29.189 79.5547 29.189C79.0274 29.189 78.5887 29.3173 78.2387 29.574C77.8934 29.8307 77.6344 30.1877 77.4617 30.645C77.2891 31.0977 77.2027 31.6203 77.2027 32.213C77.2027 32.7963 77.2891 33.319 77.4617 33.781C77.6344 34.2383 77.8957 34.5977 78.2457 34.859C78.5957 35.1203 79.0391 35.251 79.5757 35.251ZM84.9461 36V25.71H85.9751V36H84.9461ZM91.4659 36.21C90.7145 36.21 90.0729 36.0397 89.5409 35.699C89.0089 35.3583 88.6005 34.887 88.3159 34.285C88.0312 33.683 87.8889 32.9923 87.8889 32.213C87.8889 31.4197 88.0335 30.7243 88.3229 30.127C88.6122 29.5297 89.0229 29.0653 89.5549 28.734C90.0915 28.398 90.7285 28.23 91.4659 28.23C92.2219 28.23 92.8659 28.4003 93.3979 28.741C93.9345 29.077 94.3429 29.546 94.6229 30.148C94.9075 30.7453 95.0499 31.4337 95.0499 32.213C95.0499 33.0063 94.9075 33.704 94.6229 34.306C94.3382 34.9033 93.9275 35.37 93.3909 35.706C92.8542 36.042 92.2125 36.21 91.4659 36.21ZM91.4659 35.223C92.3059 35.223 92.9312 34.9453 93.3419 34.39C93.7525 33.83 93.9579 33.1043 93.9579 32.213C93.9579 31.2983 93.7502 30.5703 93.3349 30.029C92.9242 29.4877 92.3012 29.217 91.4659 29.217C90.9012 29.217 90.4345 29.3453 90.0659 29.602C89.7019 29.854 89.4289 30.2063 89.2469 30.659C89.0695 31.107 88.9809 31.625 88.9809 32.213C88.9809 33.123 89.1909 33.8533 89.6109 34.404C90.0309 34.95 90.6492 35.223 91.4659 35.223ZM98.9922 36.21C98.4229 36.21 97.9446 36.1073 97.5572 35.902C97.1746 35.6967 96.8876 35.4237 96.6962 35.083C96.5049 34.7423 96.4092 34.3713 96.4092 33.97C96.4092 33.5593 96.4909 33.2093 96.6542 32.92C96.8222 32.626 97.0486 32.3857 97.3332 32.199C97.6226 32.0123 97.9562 31.87 98.3342 31.772C98.7169 31.6787 99.1392 31.597 99.6012 31.527C100.068 31.4523 100.523 31.3893 100.966 31.338C101.414 31.282 101.806 31.2283 102.142 31.177L101.778 31.401C101.792 30.6543 101.648 30.1013 101.344 29.742C101.041 29.3827 100.514 29.203 99.7622 29.203C99.2442 29.203 98.8056 29.3197 98.4462 29.553C98.0916 29.7863 97.8419 30.155 97.6972 30.659L96.6962 30.365C96.8689 29.6883 97.2166 29.1633 97.7392 28.79C98.2619 28.4167 98.9409 28.23 99.7762 28.23C100.467 28.23 101.053 28.3607 101.533 28.622C102.019 28.8787 102.362 29.252 102.562 29.742C102.656 29.9613 102.716 30.2063 102.744 30.477C102.772 30.7477 102.786 31.023 102.786 31.303V36H101.869V34.103L102.135 34.215C101.879 34.8637 101.48 35.3583 100.938 35.699C100.397 36.0397 99.7482 36.21 98.9922 36.21ZM99.1112 35.321C99.5919 35.321 100.012 35.2347 100.371 35.062C100.731 34.8893 101.02 34.6537 101.239 34.355C101.459 34.0517 101.601 33.711 101.666 33.333C101.722 33.0903 101.753 32.8243 101.757 32.535C101.762 32.241 101.764 32.0217 101.764 31.877L102.156 32.08C101.806 32.1267 101.426 32.1733 101.015 32.22C100.609 32.2667 100.208 32.3203 99.8112 32.381C99.4192 32.4417 99.0646 32.514 98.7472 32.598C98.5326 32.6587 98.3249 32.745 98.1242 32.857C97.9236 32.9643 97.7579 33.109 97.6272 33.291C97.5012 33.473 97.4382 33.6993 97.4382 33.97C97.4382 34.1893 97.4919 34.4017 97.5992 34.607C97.7112 34.8123 97.8886 34.9827 98.1312 35.118C98.3786 35.2533 98.7052 35.321 99.1112 35.321ZM107.777 36.21C107.072 36.21 106.47 36.035 105.971 35.685C105.471 35.3303 105.089 34.852 104.823 34.25C104.557 33.648 104.424 32.969 104.424 32.213C104.424 31.4617 104.554 30.785 104.816 30.183C105.082 29.581 105.462 29.105 105.957 28.755C106.451 28.405 107.044 28.23 107.735 28.23C108.444 28.23 109.041 28.4027 109.527 28.748C110.012 29.0933 110.378 29.567 110.626 30.169C110.878 30.7663 111.004 31.4477 111.004 32.213C111.004 32.9643 110.88 33.6433 110.633 34.25C110.385 34.852 110.021 35.3303 109.541 35.685C109.06 36.035 108.472 36.21 107.777 36.21ZM107.882 35.251C108.418 35.251 108.862 35.1203 109.212 34.859C109.562 34.5977 109.823 34.2383 109.996 33.781C110.168 33.319 110.255 32.7963 110.255 32.213C110.255 31.6203 110.168 31.0977 109.996 30.645C109.823 30.1877 109.562 29.8307 109.212 29.574C108.866 29.3173 108.43 29.189 107.903 29.189C107.361 29.189 106.913 29.322 106.559 29.588C106.204 29.854 105.94 30.2157 105.768 30.673C105.6 31.1303 105.516 31.6437 105.516 32.213C105.516 32.787 105.602 33.305 105.775 33.767C105.952 34.2243 106.216 34.586 106.566 34.852C106.916 35.118 107.354 35.251 107.882 35.251ZM110.255 36V30.309H110.143V25.92H111.179V36H110.255Z" fill="#616161"></path> <g filter="url(#filter3_dd_8971_165021)"> <path d="M273.26 74V61.04H278.399C279.275 61.04 279.992 61.217 280.55 61.571C281.114 61.919 281.531 62.366 281.801 62.912C282.077 63.458 282.215 64.022 282.215 64.604C282.215 65.318 282.044 65.924 281.702 66.422C281.366 66.92 280.907 67.256 280.325 67.43V66.98C281.141 67.166 281.759 67.553 282.179 68.141C282.605 68.729 282.818 69.398 282.818 70.148C282.818 70.916 282.671 71.588 282.377 72.164C282.083 72.74 281.645 73.19 281.063 73.514C280.487 73.838 279.773 74 278.921 74H273.26ZM275.456 71.957H278.651C279.029 71.957 279.368 71.882 279.668 71.732C279.968 71.576 280.202 71.36 280.37 71.084C280.544 70.802 280.631 70.469 280.631 70.085C280.631 69.737 280.556 69.425 280.406 69.149C280.256 68.873 280.037 68.654 279.749 68.492C279.461 68.324 279.116 68.24 278.714 68.24H275.456V71.957ZM275.456 66.215H278.372C278.684 66.215 278.963 66.155 279.209 66.035C279.455 65.915 279.65 65.738 279.794 65.504C279.938 65.27 280.01 64.982 280.01 64.64C280.01 64.19 279.866 63.815 279.578 63.515C279.29 63.215 278.888 63.065 278.372 63.065H275.456V66.215ZM285.515 74V64.28H287.432V66.647L287.198 66.341C287.318 66.017 287.477 65.723 287.675 65.459C287.879 65.189 288.122 64.967 288.404 64.793C288.644 64.631 288.908 64.505 289.196 64.415C289.49 64.319 289.79 64.262 290.096 64.244C290.402 64.22 290.699 64.232 290.987 64.28V66.305C290.699 66.221 290.366 66.194 289.988 66.224C289.616 66.254 289.28 66.359 288.98 66.539C288.68 66.701 288.434 66.908 288.242 67.16C288.056 67.412 287.918 67.7 287.828 68.024C287.738 68.342 287.693 68.687 287.693 69.059V74H285.515ZM297.722 74.27C296.75 74.27 295.901 74.051 295.175 73.613C294.449 73.175 293.885 72.572 293.483 71.804C293.087 71.03 292.889 70.142 292.889 69.14C292.889 68.12 293.093 67.226 293.501 66.458C293.909 65.69 294.476 65.09 295.202 64.658C295.928 64.226 296.768 64.01 297.722 64.01C298.7 64.01 299.552 64.229 300.278 64.667C301.004 65.105 301.568 65.711 301.97 66.485C302.372 67.253 302.573 68.138 302.573 69.14C302.573 70.148 302.369 71.039 301.961 71.813C301.559 72.581 300.995 73.184 300.269 73.622C299.543 74.054 298.694 74.27 297.722 74.27ZM297.722 72.236C298.586 72.236 299.228 71.948 299.648 71.372C300.068 70.796 300.278 70.052 300.278 69.14C300.278 68.198 300.065 67.448 299.639 66.89C299.213 66.326 298.574 66.044 297.722 66.044C297.14 66.044 296.66 66.176 296.282 66.44C295.91 66.698 295.634 67.061 295.454 67.529C295.274 67.991 295.184 68.528 295.184 69.14C295.184 70.082 295.397 70.835 295.823 71.399C296.255 71.957 296.888 72.236 297.722 72.236ZM307.175 74L304.205 64.262L306.329 64.28L308.228 70.517L310.154 64.28H311.981L313.898 70.517L315.806 64.28H317.93L314.96 74H313.268L311.063 67.313L308.867 74H307.175ZM323.855 74.27C322.655 74.27 321.68 74 320.93 73.46C320.18 72.92 319.724 72.161 319.562 71.183L321.776 70.841C321.89 71.321 322.142 71.699 322.532 71.975C322.922 72.251 323.414 72.389 324.008 72.389C324.53 72.389 324.932 72.287 325.214 72.083C325.502 71.873 325.646 71.588 325.646 71.228C325.646 71.006 325.592 70.829 325.484 70.697C325.382 70.559 325.154 70.427 324.8 70.301C324.446 70.175 323.903 70.016 323.171 69.824C322.355 69.608 321.707 69.377 321.227 69.131C320.747 68.879 320.402 68.582 320.192 68.24C319.982 67.898 319.877 67.484 319.877 66.998C319.877 66.392 320.036 65.864 320.354 65.414C320.672 64.964 321.116 64.619 321.686 64.379C322.256 64.133 322.928 64.01 323.702 64.01C324.458 64.01 325.127 64.127 325.709 64.361C326.297 64.595 326.771 64.928 327.131 65.36C327.491 65.792 327.713 66.299 327.797 66.881L325.583 67.277C325.529 66.863 325.34 66.536 325.016 66.296C324.698 66.056 324.272 65.921 323.738 65.891C323.228 65.861 322.817 65.939 322.505 66.125C322.193 66.305 322.037 66.56 322.037 66.89C322.037 67.076 322.1 67.235 322.226 67.367C322.352 67.499 322.604 67.631 322.982 67.763C323.366 67.895 323.936 68.057 324.692 68.249C325.466 68.447 326.084 68.675 326.546 68.933C327.014 69.185 327.35 69.488 327.554 69.842C327.764 70.196 327.869 70.625 327.869 71.129C327.869 72.107 327.512 72.875 326.798 73.433C326.09 73.991 325.109 74.27 323.855 74.27ZM335.159 74.27C334.175 74.27 333.311 74.057 332.567 73.631C331.823 73.205 331.241 72.614 330.821 71.858C330.407 71.102 330.2 70.232 330.2 69.248C330.2 68.186 330.404 67.265 330.812 66.485C331.22 65.699 331.787 65.09 332.513 64.658C333.239 64.226 334.079 64.01 335.033 64.01C336.041 64.01 336.896 64.247 337.598 64.721C338.306 65.189 338.831 65.852 339.173 66.71C339.515 67.568 339.644 68.579 339.56 69.743H337.409V68.951C337.403 67.895 337.217 67.124 336.851 66.638C336.485 66.152 335.909 65.909 335.123 65.909C334.235 65.909 333.575 66.185 333.143 66.737C332.711 67.283 332.495 68.084 332.495 69.14C332.495 70.124 332.711 70.886 333.143 71.426C333.575 71.966 334.205 72.236 335.033 72.236C335.567 72.236 336.026 72.119 336.41 71.885C336.8 71.645 337.1 71.3 337.31 70.85L339.452 71.498C339.08 72.374 338.504 73.055 337.724 73.541C336.95 74.027 336.095 74.27 335.159 74.27ZM331.811 69.743V68.105H338.498V69.743H331.811Z" fill="#2E41B6"></path> </g> <rect x="0.75" y="0.75" width="398.5" height="126.5" rx="19.25" stroke="#F7F7F7" stroke-width="1.5"></rect> <defs> <filter id="filter0_ii_8971_165021" x="40" y="43" width="320" height="51" filterUnits="userSpaceOnUse" color-interpolation-filters="sRGB"> <feFlood flood-opacity="0" result="BackgroundImageFix"></feFlood> <feBlend mode="normal" in="SourceGraphic" in2="BackgroundImageFix" result="shape"></feBlend> <feColorMatrix in="SourceAlpha" type="matrix" values="0 0 0 0 0 0 0 0 0 0 0 0 0 0 0 0 0 0 127 0" result="hardAlpha"></feColorMatrix> <feOffset dy="3"></feOffset> <feGaussianBlur stdDeviation="3"></feGaussianBlur> <feComposite in2="hardAlpha" operator="arithmetic" k2="-1" k3="1"></feComposite> <feColorMatrix type="matrix" values="0 0 0 0 0 0 0 0 0 0 0 0 0 0 0 0 0 0 0.06 0"></feColorMatrix> <feBlend mode="normal" in2="shape" result="effect1_innerShadow_8971_165021"></feBlend> <feColorMatrix in="SourceAlpha" type="matrix" values="0 0 0 0 0 0 0 0 0 0 0 0 0 0 0 0 0 0 127 0" result="hardAlpha"></feColorMatrix> <feOffset dy="1"></feOffset> <feGaussianBlur stdDeviation="1"></feGaussianBlur> <feComposite in2="hardAlpha" operator="arithmetic" k2="-1" k3="1"></feComposite> <feColorMatrix type="matrix" values="0 0 0 0 0 0 0 0 0 0 0 0 0 0 0 0 0 0 0.12 0"></feColorMatrix> <feBlend mode="normal" in2="effect1_innerShadow_8971_165021" result="effect2_innerShadow_8971_165021"></feBlend> </filter> <filter id="filter1_ii_8971_165021" x="254" y="43" width="106" height="51" filterUnits="userSpaceOnUse" color-interpolation-filters="sRGB"> <feFlood flood-opacity="0" result="BackgroundImageFix"></feFlood> <feBlend mode="normal" in="SourceGraphic" in2="BackgroundImageFix" result="shape"></feBlend> <feColorMatrix in="SourceAlpha" type="matrix" values="0 0 0 0 0 0 0 0 0 0 0 0 0 0 0 0 0 0 127 0" result="hardAlpha"></feColorMatrix> <feOffset dy="3"></feOffset> <feGaussianBlur stdDeviation="3"></feGaussianBlur> <feComposite in2="hardAlpha" operator="arithmetic" k2="-1" k3="1"></feComposite> <feColorMatrix type="matrix" values="0 0 0 0 0 0 0 0 0 0 0 0 0 0 0 0 0 0 0.06 0"></feColorMatrix> <feBlend mode="normal" in2="shape" result="effect1_innerShadow_8971_165021"></feBlend> <feColorMatrix in="SourceAlpha" type="matrix" values="0 0 0 0 0 0 0 0 0 0 0 0 0 0 0 0 0 0 127 0" result="hardAlpha"></feColorMatrix> <feOffset dy="1"></feOffset> <feGaussianBlur stdDeviation="1"></feGaussianBlur> <feComposite in2="hardAlpha" operator="arithmetic" k2="-1" k3="1"></feComposite> <feColorMatrix type="matrix" values="0 0 0 0 0 0 0 0 0 0 0 0 0 0 0 0 0 0 0.12 0"></feColorMatrix> <feBlend mode="normal" in2="effect1_innerShadow_8971_165021" result="effect2_innerShadow_8971_165021"></feBlend> </filter> <filter id="filter2_d_8971_165021" x="87.54" y="60.27" width="123.791" height="15.5" filterUnits="userSpaceOnUse" color-interpolation-filters="sRGB"> <feFlood flood-opacity="0" result="BackgroundImageFix"></feFlood> <feColorMatrix in="SourceAlpha" type="matrix" values="0 0 0 0 0 0 0 0 0 0 0 0 0 0 0 0 0 0 127 0" result="hardAlpha"></feColorMatrix> <feOffset dy="1"></feOffset> <feGaussianBlur stdDeviation="0.5"></feGaussianBlur> <feComposite in2="hardAlpha" operator="out"></feComposite> <feColorMatrix type="matrix" values="0 0 0 0 1 0 0 0 0 1 0 0 0 0 1 0 0 0 1 0"></feColorMatrix> <feBlend mode="normal" in2="BackgroundImageFix" result="effect1_dropShadow_8971_165021"></feBlend> <feBlend mode="normal" in="SourceGraphic" in2="effect1_dropShadow_8971_165021" result="shape"></feBlend> </filter> <filter id="filter3_dd_8971_165021" x="257.26" y="53.04" width="98.4268" height="45.23" filterUnits="userSpaceOnUse" color-interpolation-filters="sRGB"> <feFlood flood-opacity="0" result="BackgroundImageFix"></feFlood> <feColorMatrix in="SourceAlpha" type="matrix" values="0 0 0 0 0 0 0 0 0 0 0 0 0 0 0 0 0 0 127 0" result="hardAlpha"></feColorMatrix> <feOffset dy="8"></feOffset> <feGaussianBlur stdDeviation="8"></feGaussianBlur> <feColorMatrix type="matrix" values="0 0 0 0 0.0588235 0 0 0 0 0.337255 0 0 0 0 0.701961 0 0 0 0.14 0"></feColorMatrix> <feBlend mode="multiply" in2="BackgroundImageFix" result="effect1_dropShadow_8971_165021"></feBlend> <feColorMatrix in="SourceAlpha" type="matrix" values="0 0 0 0 0 0 0 0 0 0 0 0 0 0 0 0 0 0 127 0" result="hardAlpha"></feColorMatrix> <feOffset dy="4"></feOffset> <feGaussianBlur stdDeviation="4"></feGaussianBlur> <feColorMatrix type="matrix" values="0 0 0 0 0.0588235 0 0 0 0 0.337255 0 0 0 0 0.701961 0 0 0 0.14 0"></feColorMatrix> <feBlend mode="multiply" in2="effect1_dropShadow_8971_165021" result="effect2_dropShadow_8971_165021"></feBlend> <feBlend mode="normal" in="SourceGraphic" in2="effect2_dropShadow_8971_165021" result="shape"></feBlend> </filter> <linearGradient id="paint0_linear_8971_165021" x1="200" y1="0" x2="200" y2="128" gradientUnits="userSpaceOnUse"> <stop stop-color="white"></stop> <stop offset="0.8125" stop-color="#FAF9FA"></stop> </linearGradient> <linearGradient id="paint1_linear_8971_165021" x1="200" y1="43" x2="200" y2="91" gradientUnits="userSpaceOnUse"> <stop stop-color="#F5F5F5"></stop> <stop offset="1" stop-color="white"></stop> </linearGradient> <linearGradient id="paint2_linear_8971_165021" x1="200" y1="43" x2="200" y2="91" gradientUnits="userSpaceOnUse"> <stop stop-color="#EEEEEE" stop-opacity="0"></stop> <stop offset="1" stop-color="#F1F0F4"></stop> </linearGradient> </defs> </svg> 