<?xml version="1.0" encoding="UTF-8"?> <svg xmlns="http://www.w3.org/2000/svg" width="304" height="120" viewBox="0 0 304 120" fill="none"> <rect x="0.75" y="0.75" width="302.5" height="118.5" rx="19.25" fill="url(#paint0_linear_8971_165083)"></rect> <g filter="url(#filter0_ii_8971_165083)"> <rect x="40" y="40" width="224" height="48" rx="10" fill="url(#paint1_linear_8971_165083)"></rect> </g> <rect x="40.5" y="40.5" width="223" height="47" rx="9.5" stroke="url(#paint2_linear_8971_165083)"></rect> <path fill-rule="evenodd" clip-rule="evenodd" d="M70.6873 53.4476C71.989 53.1222 73.25 54.1067 73.25 55.4485V57.125H73.9375C75.0766 57.125 76 58.0484 76 59.1875V71.5625C76 72.7015 75.0766 73.625 73.9375 73.625H56.0625C54.9234 73.625 54 72.7015 54 71.5625V59.1875C54 58.0795 54.8737 57.1756 55.9697 57.127L70.6873 53.4476ZM61.6471 57.125H71.875V55.4485C71.875 55.0013 71.4547 54.6731 71.0208 54.7816L61.6471 57.125ZM56.0625 58.5C55.6828 58.5 55.375 58.8078 55.375 59.1875V71.5625C55.375 71.9422 55.6828 72.25 56.0625 72.25H73.9375C74.3172 72.25 74.625 71.9422 74.625 71.5625V59.1875C74.625 58.8078 74.3172 58.5 73.9375 58.5H56.0625Z" fill="#616161"></path> <g filter="url(#filter1_d_8971_165083)"> <path d="M89.51 70.5V59.907L87.08 61.392V58.998L89.51 57.54H91.724V70.5H89.51ZM99.694 70.77C98.836 70.77 98.074 70.596 97.408 70.248C96.742 69.9 96.22 69.417 95.842 68.799C95.464 68.181 95.275 67.473 95.275 66.675C95.275 65.961 95.44 65.298 95.77 64.686C96.1 64.074 96.583 63.585 97.219 63.219L97.174 63.912C96.676 63.534 96.289 63.099 96.013 62.607C95.743 62.109 95.608 61.551 95.608 60.933C95.608 60.189 95.782 59.544 96.13 58.998C96.484 58.452 96.967 58.029 97.579 57.729C98.191 57.423 98.896 57.27 99.694 57.27C100.492 57.27 101.197 57.423 101.809 57.729C102.427 58.029 102.91 58.452 103.258 58.998C103.612 59.544 103.789 60.189 103.789 60.933C103.789 61.551 103.657 62.106 103.393 62.598C103.135 63.09 102.742 63.534 102.214 63.93L102.205 63.228C102.829 63.582 103.306 64.068 103.636 64.686C103.972 65.298 104.14 65.961 104.14 66.675C104.14 67.473 103.948 68.181 103.564 68.799C103.186 69.417 102.661 69.9 101.989 70.248C101.323 70.596 100.558 70.77 99.694 70.77ZM99.694 68.727C100.33 68.727 100.846 68.553 101.242 68.205C101.644 67.857 101.845 67.347 101.845 66.675C101.845 66.003 101.647 65.493 101.251 65.145C100.855 64.791 100.336 64.614 99.694 64.614C99.058 64.614 98.545 64.791 98.155 65.145C97.765 65.493 97.57 66.003 97.57 66.675C97.57 67.347 97.765 67.857 98.155 68.205C98.545 68.553 99.058 68.727 99.694 68.727ZM99.694 62.553C100.228 62.553 100.66 62.421 100.99 62.157C101.326 61.887 101.494 61.479 101.494 60.933C101.494 60.387 101.326 59.982 100.99 59.718C100.66 59.448 100.228 59.313 99.694 59.313C99.166 59.313 98.734 59.448 98.398 59.718C98.068 59.982 97.903 60.387 97.903 60.933C97.903 61.479 98.068 61.887 98.398 62.157C98.734 62.421 99.166 62.553 99.694 62.553ZM106.599 72.795L106.725 71.859C107.001 71.883 107.22 71.835 107.382 71.715C107.544 71.601 107.652 71.436 107.706 71.22C107.766 71.01 107.781 70.77 107.751 70.5H106.599V68.187H108.822V70.59C108.822 71.376 108.636 71.97 108.264 72.372C107.892 72.774 107.337 72.915 106.599 72.795ZM113.205 70.5L117.669 59.592H112.008V57.54H119.991V59.592L115.545 70.5H113.205ZM127.109 70.5V68.358H121.367V66.333L125.516 57.54H127.991L123.842 66.333H127.109V62.958H129.305V66.333H130.52V68.358H129.305V70.5H127.109ZM132.621 70.482V68.592L138.165 63.651C138.597 63.267 138.897 62.904 139.065 62.562C139.233 62.22 139.317 61.89 139.317 61.572C139.317 61.14 139.224 60.756 139.038 60.42C138.852 60.078 138.594 59.808 138.264 59.61C137.94 59.412 137.565 59.313 137.139 59.313C136.689 59.313 136.29 59.418 135.942 59.628C135.6 59.832 135.333 60.105 135.141 60.447C134.949 60.789 134.859 61.158 134.871 61.554H132.639C132.639 60.69 132.831 59.937 133.215 59.295C133.605 58.653 134.139 58.155 134.817 57.801C135.501 57.447 136.29 57.27 137.184 57.27C138.012 57.27 138.756 57.456 139.416 57.828C140.076 58.194 140.595 58.704 140.973 59.358C141.351 60.006 141.54 60.753 141.54 61.599C141.54 62.217 141.456 62.736 141.288 63.156C141.12 63.576 140.868 63.963 140.532 64.317C140.202 64.671 139.791 65.064 139.299 65.496L135.366 68.979L135.168 68.439H141.54V70.482H132.621Z" fill="black"></path> <path d="M144.366 70.5V68.277H146.589V70.5H144.366ZM154.437 70.77C153.519 70.77 152.709 70.575 152.007 70.185C151.305 69.789 150.756 69.24 150.36 68.538C149.97 67.836 149.775 67.026 149.775 66.108V61.932C149.775 61.014 149.97 60.204 150.36 59.502C150.756 58.8 151.305 58.254 152.007 57.864C152.709 57.468 153.519 57.27 154.437 57.27C155.355 57.27 156.162 57.468 156.858 57.864C157.56 58.254 158.109 58.8 158.505 59.502C158.901 60.204 159.099 61.014 159.099 61.932V66.108C159.099 67.026 158.901 67.836 158.505 68.538C158.109 69.24 157.56 69.789 156.858 70.185C156.162 70.575 155.355 70.77 154.437 70.77ZM154.437 68.709C154.893 68.709 155.307 68.601 155.679 68.385C156.051 68.163 156.345 67.869 156.561 67.503C156.777 67.131 156.885 66.717 156.885 66.261V61.77C156.885 61.308 156.777 60.894 156.561 60.528C156.345 60.156 156.051 59.862 155.679 59.646C155.307 59.424 154.893 59.313 154.437 59.313C153.981 59.313 153.567 59.424 153.195 59.646C152.823 59.862 152.529 60.156 152.313 60.528C152.097 60.894 151.989 61.308 151.989 61.77V66.261C151.989 66.717 152.097 67.131 152.313 67.503C152.529 67.869 152.823 68.163 153.195 68.385C153.567 68.601 153.981 68.709 154.437 68.709ZM165.768 70.77C165.108 70.77 164.493 70.635 163.923 70.365C163.353 70.089 162.861 69.711 162.447 69.231C162.039 68.751 161.745 68.193 161.565 67.557L163.653 66.999C163.737 67.347 163.89 67.647 164.112 67.899C164.34 68.151 164.604 68.346 164.904 68.484C165.21 68.622 165.525 68.691 165.849 68.691C166.269 68.691 166.653 68.589 167.001 68.385C167.349 68.181 167.625 67.908 167.829 67.566C168.033 67.218 168.135 66.834 168.135 66.414C168.135 65.994 168.03 65.613 167.82 65.271C167.616 64.923 167.34 64.65 166.992 64.452C166.644 64.248 166.263 64.146 165.849 64.146C165.351 64.146 164.937 64.236 164.607 64.416C164.283 64.596 164.034 64.788 163.86 64.992L162.006 64.398L162.402 57.54H169.44V59.574H163.563L164.373 58.809L164.085 63.579L163.689 63.093C164.025 62.787 164.415 62.559 164.859 62.409C165.303 62.259 165.732 62.184 166.146 62.184C166.956 62.184 167.673 62.37 168.297 62.742C168.927 63.108 169.419 63.609 169.773 64.245C170.133 64.881 170.313 65.604 170.313 66.414C170.313 67.224 170.103 67.959 169.683 68.619C169.263 69.273 168.708 69.795 168.018 70.185C167.334 70.575 166.584 70.77 165.768 70.77Z" fill="#A1A1A1"></path> </g> <g clip-path="url(#clip0_8971_165083)"> <g filter="url(#filter2_dd_8971_165083)"> <path d="M243.384 67.2891C243.184 67.5289 242.816 67.5289 242.616 67.2891L237.433 61.0701C237.162 60.7444 237.394 60.25 237.818 60.25L248.182 60.25C248.606 60.25 248.838 60.7444 248.567 61.0701L243.384 67.2891Z" fill="#223189"></path> </g> </g> <rect x="37" y="16" width="106" height="24" rx="4" fill="white"></rect> <path d="M44.143 33L41.231 22.92H42.302L44.661 31.243L47.006 22.927L48.084 22.92L50.443 31.243L52.788 22.92H53.866L50.961 33H49.925L47.545 24.733L45.179 33H44.143ZM56.847 33.21C56.2776 33.21 55.7993 33.1073 55.412 32.902C55.0293 32.6967 54.7423 32.4237 54.5509 32.083C54.3596 31.7423 54.2639 31.3713 54.2639 30.97C54.2639 30.5593 54.3456 30.2093 54.5089 29.92C54.6769 29.626 54.9033 29.3857 55.188 29.199C55.4773 29.0123 55.811 28.87 56.189 28.772C56.5716 28.6787 56.9939 28.597 57.456 28.527C57.9226 28.4523 58.3776 28.3893 58.8209 28.338C59.269 28.282 59.661 28.2283 59.997 28.177L59.633 28.401C59.647 27.6543 59.5023 27.1013 59.199 26.742C58.8956 26.3827 58.3683 26.203 57.617 26.203C57.099 26.203 56.6603 26.3197 56.301 26.553C55.9463 26.7863 55.6966 27.155 55.5519 27.659L54.5509 27.365C54.7236 26.6883 55.0713 26.1633 55.594 25.79C56.1166 25.4167 56.7956 25.23 57.631 25.23C58.3216 25.23 58.9073 25.3607 59.388 25.622C59.8733 25.8787 60.2163 26.252 60.417 26.742C60.5103 26.9613 60.571 27.2063 60.599 27.477C60.627 27.7477 60.641 28.023 60.641 28.303V33H59.724V31.103L59.99 31.215C59.7333 31.8637 59.3343 32.3583 58.793 32.699C58.2516 33.0397 57.603 33.21 56.847 33.21ZM56.966 32.321C57.4466 32.321 57.8666 32.2347 58.226 32.062C58.5853 31.8893 58.8746 31.6537 59.094 31.355C59.3133 31.0517 59.4556 30.711 59.521 30.333C59.577 30.0903 59.6073 29.8243 59.612 29.535C59.6166 29.241 59.619 29.0217 59.619 28.877L60.011 29.08C59.661 29.1267 59.2806 29.1733 58.87 29.22C58.464 29.2667 58.0626 29.3203 57.666 29.381C57.274 29.4417 56.9193 29.514 56.602 29.598C56.3873 29.6587 56.1796 29.745 55.979 29.857C55.7783 29.9643 55.6126 30.109 55.4819 30.291C55.356 30.473 55.293 30.6993 55.293 30.97C55.293 31.1893 55.3466 31.4017 55.4539 31.607C55.566 31.8123 55.7433 31.9827 55.9859 32.118C56.2333 32.2533 56.56 32.321 56.966 32.321ZM62.8384 33V22.71H63.8674V33H62.8384ZM66.3412 33V22.71H67.3702V33H66.3412ZM72.903 33.21C72.1657 33.21 71.5263 33.0467 70.985 32.72C70.4483 32.3933 70.0307 31.9337 69.732 31.341C69.4333 30.7483 69.284 30.053 69.284 29.255C69.284 28.429 69.431 27.715 69.725 27.113C70.019 26.511 70.432 26.0467 70.964 25.72C71.5007 25.3933 72.133 25.23 72.861 25.23C73.6077 25.23 74.2447 25.4027 74.772 25.748C75.2993 26.0887 75.6983 26.5787 75.969 27.218C76.2397 27.8573 76.3633 28.6203 76.34 29.507H75.29V29.143C75.2713 28.163 75.059 27.4233 74.653 26.924C74.2517 26.4247 73.6637 26.175 72.889 26.175C72.077 26.175 71.454 26.4387 71.02 26.966C70.5907 27.4933 70.376 28.2447 70.376 29.22C70.376 30.172 70.5907 30.9117 71.02 31.439C71.454 31.9617 72.0677 32.223 72.861 32.223C73.4023 32.223 73.8737 32.0993 74.275 31.852C74.681 31.6 75.0007 31.2383 75.234 30.767L76.193 31.138C75.8943 31.796 75.4533 32.307 74.87 32.671C74.2913 33.0303 73.6357 33.21 72.903 33.21ZM70.012 29.507V28.646H75.787V29.507H70.012ZM82.2447 33C81.82 33.0887 81.4 33.1237 80.9847 33.105C80.574 33.0863 80.2053 32.9977 79.8787 32.839C79.5567 32.6803 79.3117 32.433 79.1437 32.097C79.0083 31.817 78.9337 31.5347 78.9197 31.25C78.9103 30.9607 78.9057 30.6317 78.9057 30.263V23.34H79.9277V30.221C79.9277 30.5383 79.93 30.8043 79.9347 31.019C79.944 31.229 79.993 31.4157 80.0817 31.579C80.2497 31.8917 80.5157 32.0783 80.8797 32.139C81.2483 32.1997 81.7033 32.1857 82.2447 32.097V33ZM77.2887 26.322V25.44H82.2447V26.322H77.2887ZM90.4023 33.21C89.7069 33.21 89.1189 33.035 88.6383 32.685C88.1576 32.3303 87.7936 31.852 87.5463 31.25C87.2989 30.6433 87.1753 29.9643 87.1753 29.213C87.1753 28.4477 87.2989 27.7663 87.5463 27.169C87.7983 26.567 88.1669 26.0933 88.6523 25.748C89.1376 25.4027 89.7349 25.23 90.4443 25.23C91.1349 25.23 91.7276 25.405 92.2223 25.755C92.7169 26.105 93.0949 26.581 93.3563 27.183C93.6223 27.785 93.7553 28.4617 93.7553 29.213C93.7553 29.969 93.6223 30.648 93.3563 31.25C93.0903 31.852 92.7076 32.3303 92.2083 32.685C91.7089 33.035 91.1069 33.21 90.4023 33.21ZM87.0003 33V22.92H88.0363V27.309H87.9243V33H87.0003ZM90.2973 32.251C90.8246 32.251 91.2633 32.118 91.6133 31.852C91.9633 31.586 92.2246 31.2243 92.3973 30.767C92.5746 30.305 92.6633 29.787 92.6633 29.213C92.6633 28.6437 92.5769 28.1303 92.4043 27.673C92.2316 27.2157 91.9679 26.854 91.6133 26.588C91.2633 26.322 90.8176 26.189 90.2763 26.189C89.7489 26.189 89.3103 26.3173 88.9603 26.574C88.6149 26.8307 88.3559 27.1877 88.1833 27.645C88.0106 28.0977 87.9243 28.6203 87.9243 29.213C87.9243 29.7963 88.0106 30.319 88.1833 30.781C88.3559 31.2383 88.6173 31.5977 88.9673 31.859C89.3173 32.1203 89.7606 32.251 90.2973 32.251ZM97.6906 33.21C97.1213 33.21 96.6429 33.1073 96.2556 32.902C95.8729 32.6967 95.5859 32.4237 95.3946 32.083C95.2033 31.7423 95.1076 31.3713 95.1076 30.97C95.1076 30.5593 95.1893 30.2093 95.3526 29.92C95.5206 29.626 95.7469 29.3857 96.0316 29.199C96.3209 29.0123 96.6546 28.87 97.0326 28.772C97.4153 28.6787 97.8376 28.597 98.2996 28.527C98.7663 28.4523 99.2213 28.3893 99.6646 28.338C100.113 28.282 100.505 28.2283 100.841 28.177L100.477 28.401C100.491 27.6543 100.346 27.1013 100.043 26.742C99.7393 26.3827 99.2119 26.203 98.4606 26.203C97.9426 26.203 97.5039 26.3197 97.1446 26.553C96.7899 26.7863 96.5403 27.155 96.3956 27.659L95.3946 27.365C95.5673 26.6883 95.9149 26.1633 96.4376 25.79C96.9603 25.4167 97.6393 25.23 98.4746 25.23C99.1653 25.23 99.7509 25.3607 100.232 25.622C100.717 25.8787 101.06 26.252 101.261 26.742C101.354 26.9613 101.415 27.2063 101.443 27.477C101.471 27.7477 101.485 28.023 101.485 28.303V33H100.568V31.103L100.834 31.215C100.577 31.8637 100.178 32.3583 99.6366 32.699C99.0953 33.0397 98.4466 33.21 97.6906 33.21ZM97.8096 32.321C98.2903 32.321 98.7103 32.2347 99.0696 32.062C99.4289 31.8893 99.7183 31.6537 99.9376 31.355C100.157 31.0517 100.299 30.711 100.365 30.333C100.421 30.0903 100.451 29.8243 100.456 29.535C100.46 29.241 100.463 29.0217 100.463 28.877L100.855 29.08C100.505 29.1267 100.124 29.1733 99.7136 29.22C99.3076 29.2667 98.9063 29.3203 98.5096 29.381C98.1176 29.4417 97.7629 29.514 97.4456 29.598C97.2309 29.6587 97.0233 29.745 96.8226 29.857C96.6219 29.9643 96.4563 30.109 96.3256 30.291C96.1996 30.473 96.1366 30.6993 96.1366 30.97C96.1366 31.1893 96.1903 31.4017 96.2976 31.607C96.4096 31.8123 96.5869 31.9827 96.8296 32.118C97.0769 32.2533 97.4036 32.321 97.8096 32.321ZM103.682 33V22.71H104.711V33H103.682ZM109.208 33.21C108.639 33.21 108.16 33.1073 107.773 32.902C107.39 32.6967 107.103 32.4237 106.912 32.083C106.721 31.7423 106.625 31.3713 106.625 30.97C106.625 30.5593 106.707 30.2093 106.87 29.92C107.038 29.626 107.264 29.3857 107.549 29.199C107.838 29.0123 108.172 28.87 108.55 28.772C108.933 28.6787 109.355 28.597 109.817 28.527C110.284 28.4523 110.739 28.3893 111.182 28.338C111.63 28.282 112.022 28.2283 112.358 28.177L111.994 28.401C112.008 27.6543 111.863 27.1013 111.56 26.742C111.257 26.3827 110.729 26.203 109.978 26.203C109.46 26.203 109.021 26.3197 108.662 26.553C108.307 26.7863 108.058 27.155 107.913 27.659L106.912 27.365C107.085 26.6883 107.432 26.1633 107.955 25.79C108.478 25.4167 109.157 25.23 109.992 25.23C110.683 25.23 111.268 25.3607 111.749 25.622C112.234 25.8787 112.577 26.252 112.778 26.742C112.871 26.9613 112.932 27.2063 112.96 27.477C112.988 27.7477 113.002 28.023 113.002 28.303V33H112.085V31.103L112.351 31.215C112.094 31.8637 111.695 32.3583 111.154 32.699C110.613 33.0397 109.964 33.21 109.208 33.21ZM109.327 32.321C109.808 32.321 110.228 32.2347 110.587 32.062C110.946 31.8893 111.236 31.6537 111.455 31.355C111.674 31.0517 111.817 30.711 111.882 30.333C111.938 30.0903 111.968 29.8243 111.973 29.535C111.978 29.241 111.98 29.0217 111.98 28.877L112.372 29.08C112.022 29.1267 111.642 29.1733 111.231 29.22C110.825 29.2667 110.424 29.3203 110.027 29.381C109.635 29.4417 109.28 29.514 108.963 29.598C108.748 29.6587 108.541 29.745 108.34 29.857C108.139 29.9643 107.974 30.109 107.843 30.291C107.717 30.473 107.654 30.6993 107.654 30.97C107.654 31.1893 107.708 31.4017 107.815 31.607C107.927 31.8123 108.104 31.9827 108.347 32.118C108.594 32.2533 108.921 32.321 109.327 32.321ZM120.519 33V29.143C120.519 28.723 120.48 28.338 120.4 27.988C120.321 27.6333 120.193 27.3253 120.015 27.064C119.843 26.798 119.616 26.5927 119.336 26.448C119.061 26.3033 118.725 26.231 118.328 26.231C117.964 26.231 117.642 26.294 117.362 26.42C117.087 26.546 116.854 26.728 116.662 26.966C116.476 27.1993 116.333 27.484 116.235 27.82C116.137 28.156 116.088 28.5387 116.088 28.968L115.36 28.807C115.36 28.0323 115.496 27.3813 115.766 26.854C116.037 26.3267 116.41 25.9277 116.886 25.657C117.362 25.3863 117.908 25.251 118.524 25.251C118.977 25.251 119.371 25.321 119.707 25.461C120.048 25.601 120.335 25.79 120.568 26.028C120.806 26.266 120.998 26.539 121.142 26.847C121.287 27.1503 121.392 27.4747 121.457 27.82C121.523 28.1607 121.555 28.5013 121.555 28.842V33H120.519ZM115.052 33V25.44H115.983V27.302H116.088V33H115.052ZM126.702 33.21C125.941 33.21 125.297 33.0397 124.77 32.699C124.243 32.3583 123.841 31.8893 123.566 31.292C123.295 30.69 123.155 29.9993 123.146 29.22C123.155 28.4267 123.3 27.7313 123.58 27.134C123.86 26.532 124.264 26.0653 124.791 25.734C125.318 25.398 125.958 25.23 126.709 25.23C127.474 25.23 128.139 25.4167 128.704 25.79C129.273 26.1633 129.663 26.6743 129.873 27.323L128.865 27.645C128.688 27.1923 128.405 26.8423 128.018 26.595C127.635 26.343 127.197 26.217 126.702 26.217C126.147 26.217 125.687 26.3453 125.323 26.602C124.959 26.854 124.688 27.2063 124.511 27.659C124.334 28.1117 124.243 28.632 124.238 29.22C124.247 30.1253 124.457 30.8533 124.868 31.404C125.279 31.95 125.89 32.223 126.702 32.223C127.215 32.223 127.652 32.1063 128.011 31.873C128.375 31.635 128.65 31.2897 128.837 30.837L129.873 31.145C129.593 31.817 129.182 32.3303 128.641 32.685C128.1 33.035 127.453 33.21 126.702 33.21ZM134.547 33.21C133.81 33.21 133.17 33.0467 132.629 32.72C132.092 32.3933 131.675 31.9337 131.376 31.341C131.077 30.7483 130.928 30.053 130.928 29.255C130.928 28.429 131.075 27.715 131.369 27.113C131.663 26.511 132.076 26.0467 132.608 25.72C133.145 25.3933 133.777 25.23 134.505 25.23C135.252 25.23 135.889 25.4027 136.416 25.748C136.943 26.0887 137.342 26.5787 137.613 27.218C137.884 27.8573 138.007 28.6203 137.984 29.507H136.934V29.143C136.915 28.163 136.703 27.4233 136.297 26.924C135.896 26.4247 135.308 26.175 134.533 26.175C133.721 26.175 133.098 26.4387 132.664 26.966C132.235 27.4933 132.02 28.2447 132.02 29.22C132.02 30.172 132.235 30.9117 132.664 31.439C133.098 31.9617 133.712 32.223 134.505 32.223C135.046 32.223 135.518 32.0993 135.919 31.852C136.325 31.6 136.645 31.2383 136.878 30.767L137.837 31.138C137.538 31.796 137.097 32.307 136.514 32.671C135.935 33.0303 135.28 33.21 134.547 33.21ZM131.656 29.507V28.646H137.431V29.507H131.656Z" fill="#616161"></path> <g filter="url(#filter3_d_8971_165083)"> <path d="M199.372 70.77C198.37 70.77 197.485 70.563 196.717 70.149C195.949 69.735 195.346 69.156 194.908 68.412C194.476 67.662 194.26 66.783 194.26 65.775V57.549L195.88 57.54V65.64C195.88 66.252 195.982 66.786 196.186 67.242C196.396 67.692 196.672 68.067 197.014 68.367C197.356 68.667 197.731 68.892 198.139 69.042C198.553 69.186 198.964 69.258 199.372 69.258C199.786 69.258 200.2 69.183 200.614 69.033C201.028 68.883 201.403 68.661 201.739 68.367C202.081 68.067 202.354 67.689 202.558 67.233C202.762 66.777 202.864 66.246 202.864 65.64V57.54H204.484V65.775C204.484 66.777 204.265 67.653 203.827 68.403C203.395 69.153 202.795 69.735 202.027 70.149C201.259 70.563 200.374 70.77 199.372 70.77ZM211.361 70.77C210.443 70.77 209.615 70.614 208.877 70.302C208.145 69.99 207.539 69.546 207.059 68.97C206.585 68.388 206.276 67.701 206.132 66.909L207.788 66.648C207.998 67.464 208.433 68.103 209.093 68.565C209.759 69.021 210.542 69.249 211.442 69.249C212.024 69.249 212.549 69.159 213.017 68.979C213.491 68.793 213.866 68.529 214.142 68.187C214.418 67.845 214.556 67.44 214.556 66.972C214.556 66.684 214.505 66.438 214.403 66.234C214.307 66.024 214.172 65.847 213.998 65.703C213.83 65.553 213.638 65.427 213.422 65.325C213.206 65.223 212.981 65.139 212.747 65.073L209.444 64.092C209.084 63.984 208.736 63.849 208.4 63.687C208.064 63.519 207.764 63.312 207.5 63.066C207.236 62.814 207.026 62.514 206.87 62.166C206.714 61.812 206.636 61.395 206.636 60.915C206.636 60.147 206.834 59.493 207.23 58.953C207.632 58.407 208.175 57.99 208.859 57.702C209.543 57.414 210.314 57.273 211.172 57.279C212.042 57.285 212.819 57.441 213.503 57.747C214.193 58.047 214.763 58.479 215.213 59.043C215.669 59.607 215.975 60.282 216.131 61.068L214.43 61.365C214.34 60.837 214.139 60.384 213.827 60.006C213.521 59.622 213.137 59.328 212.675 59.124C212.213 58.914 211.706 58.806 211.154 58.8C210.626 58.794 210.149 58.878 209.723 59.052C209.297 59.226 208.958 59.469 208.706 59.781C208.454 60.087 208.328 60.441 208.328 60.843C208.328 61.239 208.442 61.56 208.67 61.806C208.898 62.046 209.177 62.238 209.507 62.382C209.843 62.52 210.17 62.634 210.488 62.724L212.954 63.435C213.236 63.513 213.56 63.621 213.926 63.759C214.298 63.897 214.658 64.092 215.006 64.344C215.354 64.59 215.642 64.92 215.87 65.334C216.098 65.742 216.212 66.258 216.212 66.882C216.212 67.506 216.086 68.061 215.834 68.547C215.588 69.033 215.243 69.441 214.799 69.771C214.355 70.095 213.839 70.341 213.251 70.509C212.663 70.683 212.033 70.77 211.361 70.77ZM218.402 70.5V57.54H222.398C222.53 57.54 222.761 57.543 223.091 57.549C223.421 57.555 223.736 57.579 224.036 57.621C225.038 57.753 225.875 58.119 226.547 58.719C227.225 59.313 227.735 60.069 228.077 60.987C228.419 61.905 228.59 62.916 228.59 64.02C228.59 65.124 228.419 66.135 228.077 67.053C227.735 67.971 227.225 68.73 226.547 69.33C225.875 69.924 225.038 70.287 224.036 70.419C223.736 70.455 223.418 70.479 223.082 70.491C222.752 70.497 222.524 70.5 222.398 70.5H218.402ZM220.049 68.97H222.398C222.626 68.97 222.881 68.964 223.163 68.952C223.445 68.934 223.691 68.907 223.901 68.871C224.609 68.739 225.182 68.442 225.62 67.98C226.058 67.518 226.379 66.942 226.583 66.252C226.787 65.562 226.889 64.818 226.889 64.02C226.889 63.204 226.784 62.451 226.574 61.761C226.37 61.071 226.049 60.498 225.611 60.042C225.173 59.586 224.603 59.295 223.901 59.169C223.691 59.127 223.442 59.1 223.154 59.088C222.866 59.076 222.614 59.07 222.398 59.07H220.049V68.97Z" fill="#5668D5"></path> </g> <rect x="0.75" y="0.75" width="302.5" height="118.5" rx="19.25" stroke="#F7F7F7" stroke-width="1.5"></rect> <defs> <filter id="filter0_ii_8971_165083" x="40" y="40" width="224" height="51" filterUnits="userSpaceOnUse" color-interpolation-filters="sRGB"> <feFlood flood-opacity="0" result="BackgroundImageFix"></feFlood> <feBlend mode="normal" in="SourceGraphic" in2="BackgroundImageFix" result="shape"></feBlend> <feColorMatrix in="SourceAlpha" type="matrix" values="0 0 0 0 0 0 0 0 0 0 0 0 0 0 0 0 0 0 127 0" result="hardAlpha"></feColorMatrix> <feOffset dy="3"></feOffset> <feGaussianBlur stdDeviation="3"></feGaussianBlur> <feComposite in2="hardAlpha" operator="arithmetic" k2="-1" k3="1"></feComposite> <feColorMatrix type="matrix" values="0 0 0 0 0 0 0 0 0 0 0 0 0 0 0 0 0 0 0.06 0"></feColorMatrix> <feBlend mode="normal" in2="shape" result="effect1_innerShadow_8971_165083"></feBlend> <feColorMatrix in="SourceAlpha" type="matrix" values="0 0 0 0 0 0 0 0 0 0 0 0 0 0 0 0 0 0 127 0" result="hardAlpha"></feColorMatrix> <feOffset dy="1"></feOffset> <feGaussianBlur stdDeviation="1"></feGaussianBlur> <feComposite in2="hardAlpha" operator="arithmetic" k2="-1" k3="1"></feComposite> <feColorMatrix type="matrix" values="0 0 0 0 0 0 0 0 0 0 0 0 0 0 0 0 0 0 0.12 0"></feColorMatrix> <feBlend mode="normal" in2="effect1_innerShadow_8971_165083" result="effect2_innerShadow_8971_165083"></feBlend> </filter> <filter id="filter1_d_8971_165083" x="86.0801" y="57.27" width="85.2334" height="17.705" filterUnits="userSpaceOnUse" color-interpolation-filters="sRGB"> <feFlood flood-opacity="0" result="BackgroundImageFix"></feFlood> <feColorMatrix in="SourceAlpha" type="matrix" values="0 0 0 0 0 0 0 0 0 0 0 0 0 0 0 0 0 0 127 0" result="hardAlpha"></feColorMatrix> <feOffset dy="1"></feOffset> <feGaussianBlur stdDeviation="0.5"></feGaussianBlur> <feComposite in2="hardAlpha" operator="out"></feComposite> <feColorMatrix type="matrix" values="0 0 0 0 1 0 0 0 0 1 0 0 0 0 1 0 0 0 1 0"></feColorMatrix> <feBlend mode="normal" in2="BackgroundImageFix" result="effect1_dropShadow_8971_165083"></feBlend> <feBlend mode="normal" in="SourceGraphic" in2="effect1_dropShadow_8971_165083" result="shape"></feBlend> </filter> <filter id="filter2_dd_8971_165083" x="221.316" y="52.25" width="43.3672" height="39.219" filterUnits="userSpaceOnUse" color-interpolation-filters="sRGB"> <feFlood flood-opacity="0" result="BackgroundImageFix"></feFlood> <feColorMatrix in="SourceAlpha" type="matrix" values="0 0 0 0 0 0 0 0 0 0 0 0 0 0 0 0 0 0 127 0" result="hardAlpha"></feColorMatrix> <feOffset dy="8"></feOffset> <feGaussianBlur stdDeviation="8"></feGaussianBlur> <feColorMatrix type="matrix" values="0 0 0 0 0.380392 0 0 0 0 0.380392 0 0 0 0 0.380392 0 0 0 0.14 0"></feColorMatrix> <feBlend mode="multiply" in2="BackgroundImageFix" result="effect1_dropShadow_8971_165083"></feBlend> <feColorMatrix in="SourceAlpha" type="matrix" values="0 0 0 0 0 0 0 0 0 0 0 0 0 0 0 0 0 0 127 0" result="hardAlpha"></feColorMatrix> <feOffset dy="4"></feOffset> <feGaussianBlur stdDeviation="4"></feGaussianBlur> <feColorMatrix type="matrix" values="0 0 0 0 0.380392 0 0 0 0 0.380392 0 0 0 0 0.380392 0 0 0 0.14 0"></feColorMatrix> <feBlend mode="multiply" in2="effect1_dropShadow_8971_165083" result="effect2_dropShadow_8971_165083"></feBlend> <feBlend mode="normal" in="SourceGraphic" in2="effect2_dropShadow_8971_165083" result="shape"></feBlend> </filter> <filter id="filter3_d_8971_165083" x="193.26" y="57.27" width="36.3301" height="15.5" filterUnits="userSpaceOnUse" color-interpolation-filters="sRGB"> <feFlood flood-opacity="0" result="BackgroundImageFix"></feFlood> <feColorMatrix in="SourceAlpha" type="matrix" values="0 0 0 0 0 0 0 0 0 0 0 0 0 0 0 0 0 0 127 0" result="hardAlpha"></feColorMatrix> <feOffset dy="1"></feOffset> <feGaussianBlur stdDeviation="0.5"></feGaussianBlur> <feComposite in2="hardAlpha" operator="out"></feComposite> <feColorMatrix type="matrix" values="0 0 0 0 1 0 0 0 0 1 0 0 0 0 1 0 0 0 1 0"></feColorMatrix> <feBlend mode="normal" in2="BackgroundImageFix" result="effect1_dropShadow_8971_165083"></feBlend> <feBlend mode="normal" in="SourceGraphic" in2="effect1_dropShadow_8971_165083" result="shape"></feBlend> </filter> <linearGradient id="paint0_linear_8971_165083" x1="152" y1="0" x2="152" y2="120" gradientUnits="userSpaceOnUse"> <stop stop-color="white"></stop> <stop offset="0.8125" stop-color="#FAF9FA"></stop> </linearGradient> <linearGradient id="paint1_linear_8971_165083" x1="152" y1="40" x2="152" y2="88" gradientUnits="userSpaceOnUse"> <stop stop-color="#F5F5F5"></stop> <stop offset="1" stop-color="white"></stop> </linearGradient> <linearGradient id="paint2_linear_8971_165083" x1="152" y1="40" x2="152" y2="88" gradientUnits="userSpaceOnUse"> <stop stop-color="#EEEEEE" stop-opacity="0"></stop> <stop offset="1" stop-color="#F1F0F4"></stop> </linearGradient> <clipPath id="clip0_8971_165083"> <rect width="30" height="30" fill="white" transform="translate(228 49)"></rect> </clipPath> </defs> </svg> 