<?xml version="1.0" encoding="UTF-8"?> <svg xmlns="http://www.w3.org/2000/svg" width="344" height="132" viewBox="0 0 344 132" fill="none"> <rect x="0.75" y="0.75" width="342.5" height="130.5" rx="19.25" fill="url(#paint0_linear_8968_56777)"></rect> <g filter="url(#filter0_ii_8968_56777)"> <rect x="40" y="40" width="264" height="56" rx="10" fill="url(#paint1_linear_8968_56777)"></rect> </g> <rect x="40.5" y="40.5" width="263" height="55" rx="9.5" stroke="url(#paint2_linear_8968_56777)"></rect> <g clip-path="url(#clip0_8968_56777)"> <path fill-rule="evenodd" clip-rule="evenodd" d="M58.5 60.75H73.5C74.1904 60.75 74.75 61.3096 74.75 62V76.4822L72.25 73.9822C71.7812 73.5134 71.1453 73.25 70.4822 73.25H58.5C57.8096 73.25 57.25 72.6904 57.25 72V62C57.25 61.3096 57.8096 60.75 58.5 60.75ZM73.5 59.5C74.8807 59.5 76 60.6193 76 62V77.9911C76 78.5479 75.3268 78.8268 74.9331 78.4331L71.3661 74.8661C71.1317 74.6317 70.8138 74.5 70.4822 74.5H58.5C57.1193 74.5 56 73.3807 56 72V62C56 60.6193 57.1193 59.5 58.5 59.5H73.5Z" fill="#818181"></path> <path fill-rule="evenodd" clip-rule="evenodd" d="M59.75 63.875C59.75 63.5298 60.0298 63.25 60.375 63.25H71.625C71.9702 63.25 72.25 63.5298 72.25 63.875C72.25 64.2202 71.9702 64.5 71.625 64.5H60.375C60.0298 64.5 59.75 64.2202 59.75 63.875ZM59.75 67C59.75 66.6548 60.0298 66.375 60.375 66.375H71.625C71.9702 66.375 72.25 66.6548 72.25 67C72.25 67.3452 71.9702 67.625 71.625 67.625H60.375C60.0298 67.625 59.75 67.3452 59.75 67ZM59.75 70.125C59.75 69.7798 60.0298 69.5 60.375 69.5H66.625C66.9702 69.5 67.25 69.7798 67.25 70.125C67.25 70.4702 66.9702 70.75 66.625 70.75H60.375C60.0298 70.75 59.75 70.4702 59.75 70.125Z" fill="#818181"></path> </g> <g filter="url(#filter1_d_8968_56777)"> <path d="M92.507 74.77C91.619 74.77 90.809 74.614 90.077 74.302C89.345 73.99 88.715 73.543 88.187 72.961C87.659 72.373 87.251 71.665 86.963 70.837C86.681 70.003 86.54 69.064 86.54 68.02C86.54 66.64 86.786 65.446 87.278 64.438C87.77 63.43 88.463 62.653 89.357 62.107C90.251 61.555 91.301 61.279 92.507 61.279C93.959 61.279 95.129 61.618 96.017 62.296C96.905 62.968 97.517 63.889 97.853 65.059L96.233 65.392C95.963 64.606 95.519 63.979 94.901 63.511C94.283 63.043 93.512 62.809 92.588 62.809C91.622 62.803 90.818 63.019 90.176 63.457C89.54 63.889 89.06 64.498 88.736 65.284C88.412 66.07 88.247 66.982 88.241 68.02C88.235 69.052 88.394 69.958 88.718 70.738C89.042 71.518 89.525 72.13 90.167 72.574C90.815 73.012 91.622 73.234 92.588 73.24C93.422 73.246 94.124 73.087 94.694 72.763C95.264 72.439 95.705 71.971 96.017 71.359C96.329 70.747 96.518 70.012 96.584 69.154H93.83V67.831H98.276C98.294 67.951 98.303 68.095 98.303 68.263C98.309 68.425 98.312 68.536 98.312 68.596C98.312 69.778 98.09 70.837 97.646 71.773C97.208 72.703 96.557 73.435 95.693 73.969C94.835 74.503 93.773 74.77 92.507 74.77ZM100.412 74.5V64.78H101.843V67.129L101.609 66.823C101.723 66.523 101.87 66.247 102.05 65.995C102.236 65.743 102.443 65.536 102.671 65.374C102.923 65.17 103.208 65.014 103.526 64.906C103.844 64.798 104.168 64.735 104.498 64.717C104.828 64.693 105.137 64.714 105.425 64.78V66.283C105.089 66.193 104.72 66.169 104.318 66.211C103.916 66.253 103.544 66.4 103.202 66.652C102.89 66.874 102.647 67.144 102.473 67.462C102.305 67.78 102.188 68.125 102.122 68.497C102.056 68.863 102.023 69.238 102.023 69.622V74.5H100.412ZM111.465 74.77C110.511 74.77 109.677 74.56 108.963 74.14C108.255 73.714 107.703 73.123 107.307 72.367C106.911 71.605 106.713 70.717 106.713 69.703C106.713 68.641 106.908 67.723 107.298 66.949C107.688 66.169 108.231 65.569 108.927 65.149C109.629 64.723 110.451 64.51 111.393 64.51C112.371 64.51 113.202 64.735 113.886 65.185C114.576 65.635 115.092 66.277 115.434 67.111C115.782 67.945 115.932 68.938 115.884 70.09H114.264V69.514C114.246 68.32 114.003 67.429 113.535 66.841C113.067 66.247 112.371 65.95 111.447 65.95C110.457 65.95 109.704 66.268 109.188 66.904C108.672 67.54 108.414 68.452 108.414 69.64C108.414 70.786 108.672 71.674 109.188 72.304C109.704 72.934 110.439 73.249 111.393 73.249C112.035 73.249 112.593 73.102 113.067 72.808C113.541 72.514 113.913 72.091 114.183 71.539L115.722 72.07C115.344 72.928 114.774 73.594 114.012 74.068C113.256 74.536 112.407 74.77 111.465 74.77ZM107.874 70.09V68.803H115.056V70.09H107.874ZM120.778 74.77C120.052 74.77 119.443 74.638 118.951 74.374C118.465 74.104 118.096 73.75 117.844 73.312C117.598 72.874 117.475 72.394 117.475 71.872C117.475 71.362 117.571 70.921 117.763 70.549C117.961 70.171 118.237 69.859 118.591 69.613C118.945 69.361 119.368 69.163 119.86 69.019C120.322 68.893 120.838 68.785 121.408 68.695C121.984 68.599 122.566 68.512 123.154 68.434C123.742 68.356 124.291 68.281 124.801 68.209L124.225 68.542C124.243 67.678 124.069 67.039 123.703 66.625C123.343 66.211 122.719 66.004 121.831 66.004C121.243 66.004 120.727 66.139 120.283 66.409C119.845 66.673 119.536 67.105 119.356 67.705L117.835 67.246C118.069 66.394 118.522 65.725 119.194 65.239C119.866 64.753 120.751 64.51 121.849 64.51C122.731 64.51 123.487 64.669 124.117 64.987C124.753 65.299 125.209 65.773 125.485 66.409C125.623 66.709 125.71 67.036 125.746 67.39C125.782 67.738 125.8 68.104 125.8 68.488V74.5H124.378V72.169L124.711 72.385C124.345 73.171 123.832 73.765 123.172 74.167C122.518 74.569 121.72 74.77 120.778 74.77ZM121.021 73.429C121.597 73.429 122.095 73.327 122.515 73.123C122.941 72.913 123.283 72.64 123.541 72.304C123.799 71.962 123.967 71.59 124.045 71.188C124.135 70.888 124.183 70.555 124.189 70.189C124.201 69.817 124.207 69.532 124.207 69.334L124.765 69.577C124.243 69.649 123.73 69.718 123.226 69.784C122.722 69.85 122.245 69.922 121.795 70C121.345 70.072 120.94 70.159 120.58 70.261C120.316 70.345 120.067 70.453 119.833 70.585C119.605 70.717 119.419 70.888 119.275 71.098C119.137 71.302 119.068 71.557 119.068 71.863C119.068 72.127 119.134 72.379 119.266 72.619C119.404 72.859 119.614 73.054 119.896 73.204C120.184 73.354 120.559 73.429 121.021 73.429ZM133.869 74.5C133.293 74.614 132.723 74.659 132.159 74.635C131.601 74.617 131.103 74.506 130.665 74.302C130.227 74.092 129.894 73.768 129.666 73.33C129.474 72.946 129.369 72.559 129.351 72.169C129.339 71.773 129.333 71.326 129.333 70.828V62.08H130.935V70.756C130.935 71.152 130.938 71.491 130.944 71.773C130.956 72.055 131.019 72.298 131.133 72.502C131.349 72.886 131.691 73.111 132.159 73.177C132.633 73.243 133.203 73.225 133.869 73.123V74.5ZM127.362 66.103V64.78H133.869V66.103H127.362ZM145.478 74.5C144.902 74.614 144.332 74.659 143.768 74.635C143.21 74.617 142.712 74.506 142.274 74.302C141.836 74.092 141.503 73.768 141.275 73.33C141.083 72.946 140.978 72.559 140.96 72.169C140.948 71.773 140.942 71.326 140.942 70.828V62.08H142.544V70.756C142.544 71.152 142.547 71.491 142.553 71.773C142.565 72.055 142.628 72.298 142.742 72.502C142.958 72.886 143.3 73.111 143.768 73.177C144.242 73.243 144.812 73.225 145.478 73.123V74.5ZM138.971 66.103V64.78H145.478V66.103H138.971ZM151.444 74.752C150.82 74.752 150.283 74.653 149.833 74.455C149.389 74.257 149.02 73.993 148.726 73.663C148.432 73.333 148.201 72.967 148.033 72.565C147.865 72.163 147.745 71.752 147.673 71.332C147.607 70.912 147.574 70.519 147.574 70.153V64.78H149.194V69.649C149.194 70.105 149.236 70.546 149.32 70.972C149.404 71.398 149.545 71.782 149.743 72.124C149.947 72.466 150.217 72.736 150.553 72.934C150.895 73.132 151.321 73.231 151.831 73.231C152.233 73.231 152.599 73.162 152.929 73.024C153.259 72.886 153.541 72.682 153.775 72.412C154.009 72.136 154.189 71.788 154.315 71.368C154.441 70.948 154.504 70.459 154.504 69.901L155.557 70.225C155.557 71.161 155.386 71.968 155.044 72.646C154.708 73.324 154.231 73.846 153.613 74.212C153.001 74.572 152.278 74.752 151.444 74.752ZM154.684 74.5V71.899H154.504V64.78H156.115V74.5H154.684ZM164.364 74.5C163.788 74.614 163.218 74.659 162.654 74.635C162.096 74.617 161.598 74.506 161.16 74.302C160.722 74.092 160.389 73.768 160.161 73.33C159.969 72.946 159.864 72.559 159.846 72.169C159.834 71.773 159.828 71.326 159.828 70.828V62.08H161.43V70.756C161.43 71.152 161.433 71.491 161.439 71.773C161.451 72.055 161.514 72.298 161.628 72.502C161.844 72.886 162.186 73.111 162.654 73.177C163.128 73.243 163.698 73.225 164.364 73.123V74.5ZM157.857 66.103V64.78H164.364V66.103H157.857ZM170.376 74.77C169.41 74.77 168.576 74.551 167.874 74.113C167.178 73.675 166.641 73.069 166.263 72.295C165.885 71.521 165.696 70.633 165.696 69.631C165.696 68.611 165.888 67.717 166.272 66.949C166.656 66.181 167.199 65.584 167.901 65.158C168.603 64.726 169.428 64.51 170.376 64.51C171.348 64.51 172.185 64.729 172.887 65.167C173.589 65.599 174.126 66.202 174.498 66.976C174.876 67.744 175.065 68.629 175.065 69.631C175.065 70.645 174.876 71.539 174.498 72.313C174.12 73.081 173.58 73.684 172.878 74.122C172.176 74.554 171.342 74.77 170.376 74.77ZM170.376 73.249C171.384 73.249 172.134 72.913 172.626 72.241C173.118 71.569 173.364 70.699 173.364 69.631C173.364 68.533 173.115 67.66 172.617 67.012C172.119 66.358 171.372 66.031 170.376 66.031C169.698 66.031 169.14 66.184 168.702 66.49C168.264 66.796 167.937 67.219 167.721 67.759C167.505 68.299 167.397 68.923 167.397 69.631C167.397 70.723 167.649 71.599 168.153 72.259C168.657 72.919 169.398 73.249 170.376 73.249ZM177.348 74.5V64.78H178.779V67.129L178.545 66.823C178.659 66.523 178.806 66.247 178.986 65.995C179.172 65.743 179.379 65.536 179.607 65.374C179.859 65.17 180.144 65.014 180.462 64.906C180.78 64.798 181.104 64.735 181.434 64.717C181.764 64.693 182.073 64.714 182.361 64.78V66.283C182.025 66.193 181.656 66.169 181.254 66.211C180.852 66.253 180.48 66.4 180.138 66.652C179.826 66.874 179.583 67.144 179.409 67.462C179.241 67.78 179.124 68.125 179.058 68.497C178.992 68.863 178.959 69.238 178.959 69.622V74.5H177.348ZM184.546 63.061V61.405H186.148V63.061H184.546ZM184.546 74.5V64.78H186.148V74.5H184.546Z" fill="black"></path> </g> <g filter="url(#filter2_dd_8968_56777)"> <path d="M274.668 68.4495L290.477 60.785" stroke="#00776A" stroke-width="2.25879" stroke-linecap="round" stroke-linejoin="round"></path> </g> <g filter="url(#filter3_dd_8968_56777)"> <path d="M290.478 60.7848L276.878 77.5842C276.796 77.6701 276.691 77.7306 276.575 77.7585C276.46 77.7864 276.339 77.7805 276.226 77.7415C276.114 77.7025 276.015 77.632 275.941 77.5385C275.868 77.445 275.823 77.3324 275.811 77.214L274.669 68.4493L268.495 62.1233C268.409 62.041 268.349 61.9358 268.321 61.8202C268.293 61.7046 268.299 61.5834 268.338 61.471C268.377 61.3586 268.448 61.2598 268.541 61.1863C268.635 61.1128 268.747 61.0677 268.866 61.0563L290.478 60.7848Z" stroke="#00776A" stroke-width="2.25879" stroke-linecap="round" stroke-linejoin="round"></path> </g> <rect x="37" y="16" width="117" height="24" rx="4" fill="white"></rect> <path d="M46.061 33.21C45.0577 33.21 44.2107 32.9883 43.52 32.545C42.8293 32.097 42.3067 31.4787 41.952 30.69C41.5973 29.9013 41.42 28.9913 41.42 27.96C41.42 26.9287 41.5973 26.0187 41.952 25.23C42.3067 24.4413 42.8293 23.8253 43.52 23.382C44.2107 22.934 45.0577 22.71 46.061 22.71C47.2323 22.71 48.189 23.011 48.931 23.613C49.673 24.2103 50.1817 25.013 50.457 26.021L49.407 26.294C49.1923 25.496 48.8073 24.8637 48.252 24.397C47.6967 23.9303 46.9663 23.697 46.061 23.697C45.2723 23.697 44.6167 23.8767 44.094 24.236C43.5713 24.5953 43.177 25.097 42.911 25.741C42.6497 26.3803 42.5143 27.12 42.505 27.96C42.5003 28.8 42.6287 29.5397 42.89 30.179C43.156 30.8183 43.5527 31.32 44.08 31.684C44.612 32.0433 45.2723 32.223 46.061 32.223C46.9663 32.223 47.6967 31.9897 48.252 31.523C48.8073 31.0517 49.1923 30.4193 49.407 29.626L50.457 29.899C50.1817 30.907 49.673 31.712 48.931 32.314C48.189 32.9113 47.2323 33.21 46.061 33.21ZM55.3937 33.21C54.6424 33.21 54.0007 33.0397 53.4687 32.699C52.9367 32.3583 52.5284 31.887 52.2437 31.285C51.959 30.683 51.8167 29.9923 51.8167 29.213C51.8167 28.4197 51.9614 27.7243 52.2507 27.127C52.54 26.5297 52.9507 26.0653 53.4827 25.734C54.0194 25.398 54.6564 25.23 55.3937 25.23C56.1497 25.23 56.7937 25.4003 57.3257 25.741C57.8624 26.077 58.2707 26.546 58.5507 27.148C58.8354 27.7453 58.9777 28.4337 58.9777 29.213C58.9777 30.0063 58.8354 30.704 58.5507 31.306C58.266 31.9033 57.8554 32.37 57.3187 32.706C56.782 33.042 56.1404 33.21 55.3937 33.21ZM55.3937 32.223C56.2337 32.223 56.859 31.9453 57.2697 31.39C57.6804 30.83 57.8857 30.1043 57.8857 29.213C57.8857 28.2983 57.678 27.5703 57.2627 27.029C56.852 26.4877 56.229 26.217 55.3937 26.217C54.829 26.217 54.3624 26.3453 53.9937 26.602C53.6297 26.854 53.3567 27.2063 53.1747 27.659C52.9974 28.107 52.9087 28.625 52.9087 29.213C52.9087 30.123 53.1187 30.8533 53.5387 31.404C53.9587 31.95 54.577 32.223 55.3937 32.223ZM69.773 33L69.78 28.037C69.78 27.4537 69.6167 26.9963 69.29 26.665C68.968 26.329 68.5574 26.161 68.058 26.161C67.7734 26.161 67.4957 26.2263 67.225 26.357C66.9544 26.4877 66.7304 26.6977 66.553 26.987C66.3804 27.2763 66.294 27.6543 66.294 28.121L65.685 27.946C65.671 27.4047 65.776 26.931 66 26.525C66.2287 26.119 66.5414 25.804 66.938 25.58C67.3394 25.3513 67.792 25.237 68.296 25.237C69.0567 25.237 69.6657 25.4727 70.123 25.944C70.5804 26.4107 70.809 27.043 70.809 27.841L70.802 33H69.773ZM60.75 33V25.44H61.674V27.302H61.786V33H60.75ZM65.272 33L65.279 28.107C65.279 27.505 65.118 27.0313 64.796 26.686C64.4787 26.336 64.0587 26.161 63.536 26.161C63.0134 26.161 62.591 26.3407 62.269 26.7C61.947 27.0547 61.786 27.5283 61.786 28.121L61.17 27.785C61.17 27.2997 61.2844 26.8657 61.513 26.483C61.7417 26.0957 62.0544 25.7923 62.451 25.573C62.8477 25.349 63.298 25.237 63.802 25.237C64.2827 25.237 64.7097 25.3397 65.083 25.545C65.461 25.7503 65.7574 26.049 65.972 26.441C66.1867 26.833 66.294 27.309 66.294 27.869L66.287 33H65.272ZM81.8754 33L81.8824 28.037C81.8824 27.4537 81.7191 26.9963 81.3924 26.665C81.0704 26.329 80.6598 26.161 80.1604 26.161C79.8758 26.161 79.5981 26.2263 79.3274 26.357C79.0568 26.4877 78.8328 26.6977 78.6554 26.987C78.4828 27.2763 78.3964 27.6543 78.3964 28.121L77.7874 27.946C77.7734 27.4047 77.8784 26.931 78.1024 26.525C78.3311 26.119 78.6438 25.804 79.0404 25.58C79.4418 25.3513 79.8944 25.237 80.3984 25.237C81.1591 25.237 81.7681 25.4727 82.2254 25.944C82.6828 26.4107 82.9114 27.043 82.9114 27.841L82.9044 33H81.8754ZM72.8524 33V25.44H73.7764V27.302H73.8884V33H72.8524ZM77.3744 33L77.3814 28.107C77.3814 27.505 77.2204 27.0313 76.8984 26.686C76.5811 26.336 76.1611 26.161 75.6384 26.161C75.1158 26.161 74.6934 26.3407 74.3714 26.7C74.0494 27.0547 73.8884 27.5283 73.8884 28.121L73.2724 27.785C73.2724 27.2997 73.3868 26.8657 73.6154 26.483C73.8441 26.0957 74.1568 25.7923 74.5534 25.573C74.9501 25.349 75.4004 25.237 75.9044 25.237C76.3851 25.237 76.8121 25.3397 77.1854 25.545C77.5634 25.7503 77.8598 26.049 78.0744 26.441C78.2891 26.833 78.3964 27.309 78.3964 27.869L78.3894 33H77.3744ZM88.1198 33.21C87.3825 33.21 86.7431 33.0467 86.2018 32.72C85.6651 32.3933 85.2475 31.9337 84.9488 31.341C84.6501 30.7483 84.5008 30.053 84.5008 29.255C84.5008 28.429 84.6478 27.715 84.9418 27.113C85.2358 26.511 85.6488 26.0467 86.1808 25.72C86.7175 25.3933 87.3498 25.23 88.0778 25.23C88.8245 25.23 89.4615 25.4027 89.9888 25.748C90.5161 26.0887 90.9151 26.5787 91.1858 27.218C91.4565 27.8573 91.5801 28.6203 91.5568 29.507H90.5068V29.143C90.4881 28.163 90.2758 27.4233 89.8698 26.924C89.4685 26.4247 88.8805 26.175 88.1058 26.175C87.2938 26.175 86.6708 26.4387 86.2368 26.966C85.8075 27.4933 85.5928 28.2447 85.5928 29.22C85.5928 30.172 85.8075 30.9117 86.2368 31.439C86.6708 31.9617 87.2845 32.223 88.0778 32.223C88.6191 32.223 89.0905 32.0993 89.4918 31.852C89.8978 31.6 90.2175 31.2383 90.4508 30.767L91.4098 31.138C91.1111 31.796 90.6701 32.307 90.0868 32.671C89.5081 33.0303 88.8525 33.21 88.1198 33.21ZM85.2288 29.507V28.646H91.0038V29.507H85.2288ZM98.6004 33V29.143C98.6004 28.723 98.5607 28.338 98.4814 27.988C98.402 27.6333 98.2737 27.3253 98.0964 27.064C97.9237 26.798 97.6974 26.5927 97.4174 26.448C97.142 26.3033 96.806 26.231 96.4094 26.231C96.0454 26.231 95.7234 26.294 95.4434 26.42C95.168 26.546 94.9347 26.728 94.7434 26.966C94.5567 27.1993 94.4144 27.484 94.3164 27.82C94.2184 28.156 94.1694 28.5387 94.1694 28.968L93.4414 28.807C93.4414 28.0323 93.5767 27.3813 93.8474 26.854C94.118 26.3267 94.4914 25.9277 94.9674 25.657C95.4434 25.3863 95.9894 25.251 96.6054 25.251C97.058 25.251 97.4524 25.321 97.7884 25.461C98.129 25.601 98.416 25.79 98.6494 26.028C98.8874 26.266 99.0787 26.539 99.2234 26.847C99.368 27.1503 99.473 27.4747 99.5384 27.82C99.6037 28.1607 99.6364 28.5013 99.6364 28.842V33H98.6004ZM93.1334 33V25.44H94.0644V27.302H94.1694V33H93.1334ZM105.804 33C105.379 33.0887 104.959 33.1237 104.544 33.105C104.133 33.0863 103.765 32.9977 103.438 32.839C103.116 32.6803 102.871 32.433 102.703 32.097C102.568 31.817 102.493 31.5347 102.479 31.25C102.47 30.9607 102.465 30.6317 102.465 30.263V23.34H103.487V30.221C103.487 30.5383 103.489 30.8043 103.494 31.019C103.503 31.229 103.552 31.4157 103.641 31.579C103.809 31.8917 104.075 32.0783 104.439 32.139C104.808 32.1997 105.263 32.1857 105.804 32.097V33ZM100.848 26.322V25.44H105.804V26.322H100.848ZM113.962 33.21C113.266 33.21 112.678 33.035 112.198 32.685C111.717 32.3303 111.353 31.852 111.106 31.25C110.858 30.6433 110.735 29.9643 110.735 29.213C110.735 28.4477 110.858 27.7663 111.106 27.169C111.358 26.567 111.726 26.0933 112.212 25.748C112.697 25.4027 113.294 25.23 114.004 25.23C114.694 25.23 115.287 25.405 115.782 25.755C116.276 26.105 116.654 26.581 116.916 27.183C117.182 27.785 117.315 28.4617 117.315 29.213C117.315 29.969 117.182 30.648 116.916 31.25C116.65 31.852 116.267 32.3303 115.768 32.685C115.268 33.035 114.666 33.21 113.962 33.21ZM110.56 33V22.92H111.596V27.309H111.484V33H110.56ZM113.857 32.251C114.384 32.251 114.823 32.118 115.173 31.852C115.523 31.586 115.784 31.2243 115.957 30.767C116.134 30.305 116.223 29.787 116.223 29.213C116.223 28.6437 116.136 28.1303 115.964 27.673C115.791 27.2157 115.527 26.854 115.173 26.588C114.823 26.322 114.377 26.189 113.836 26.189C113.308 26.189 112.87 26.3173 112.52 26.574C112.174 26.8307 111.915 27.1877 111.743 27.645C111.57 28.0977 111.484 28.6203 111.484 29.213C111.484 29.7963 111.57 30.319 111.743 30.781C111.915 31.2383 112.177 31.5977 112.527 31.859C112.877 32.1203 113.32 32.251 113.857 32.251ZM122.286 33.21C121.549 33.21 120.909 33.0467 120.368 32.72C119.831 32.3933 119.414 31.9337 119.115 31.341C118.816 30.7483 118.667 30.053 118.667 29.255C118.667 28.429 118.814 27.715 119.108 27.113C119.402 26.511 119.815 26.0467 120.347 25.72C120.884 25.3933 121.516 25.23 122.244 25.23C122.991 25.23 123.628 25.4027 124.155 25.748C124.682 26.0887 125.081 26.5787 125.352 27.218C125.623 27.8573 125.746 28.6203 125.723 29.507H124.673V29.143C124.654 28.163 124.442 27.4233 124.036 26.924C123.635 26.4247 123.047 26.175 122.272 26.175C121.46 26.175 120.837 26.4387 120.403 26.966C119.974 27.4933 119.759 28.2447 119.759 29.22C119.759 30.172 119.974 30.9117 120.403 31.439C120.837 31.9617 121.451 32.223 122.244 32.223C122.785 32.223 123.257 32.0993 123.658 31.852C124.064 31.6 124.384 31.2383 124.617 30.767L125.576 31.138C125.277 31.796 124.836 32.307 124.253 32.671C123.674 33.0303 123.019 33.21 122.286 33.21ZM119.395 29.507V28.646H125.17V29.507H119.395ZM127.652 33V22.71H128.681V33H127.652ZM134.171 33.21C133.42 33.21 132.778 33.0397 132.246 32.699C131.714 32.3583 131.306 31.887 131.021 31.285C130.737 30.683 130.594 29.9923 130.594 29.213C130.594 28.4197 130.739 27.7243 131.028 27.127C131.318 26.5297 131.728 26.0653 132.26 25.734C132.797 25.398 133.434 25.23 134.171 25.23C134.927 25.23 135.571 25.4003 136.103 25.741C136.64 26.077 137.048 26.546 137.328 27.148C137.613 27.7453 137.755 28.4337 137.755 29.213C137.755 30.0063 137.613 30.704 137.328 31.306C137.044 31.9033 136.633 32.37 136.096 32.706C135.56 33.042 134.918 33.21 134.171 33.21ZM134.171 32.223C135.011 32.223 135.637 31.9453 136.047 31.39C136.458 30.83 136.663 30.1043 136.663 29.213C136.663 28.2983 136.456 27.5703 136.04 27.029C135.63 26.4877 135.007 26.217 134.171 26.217C133.607 26.217 133.14 26.3453 132.771 26.602C132.407 26.854 132.134 27.2063 131.952 27.659C131.775 28.107 131.686 28.625 131.686 29.213C131.686 30.123 131.896 30.8533 132.316 31.404C132.736 31.95 133.355 32.223 134.171 32.223ZM140.871 33L138.561 25.433L139.59 25.44L141.382 31.313L143.181 25.44H144.119L145.918 31.313L147.724 25.44H148.746L146.436 33H145.54L143.65 26.98L141.767 33H140.871Z" fill="#616161"></path> <path d="M250.629 111V103.938L249.009 104.928V103.332L250.629 102.36H252.105V111H250.629ZM254.51 110.988V109.728L258.206 106.434C258.494 106.178 258.694 105.936 258.806 105.708C258.918 105.48 258.974 105.26 258.974 105.048C258.974 104.76 258.912 104.504 258.788 104.28C258.664 104.052 258.492 103.872 258.272 103.74C258.056 103.608 257.806 103.542 257.522 103.542C257.222 103.542 256.956 103.612 256.724 103.752C256.496 103.888 256.318 104.07 256.19 104.298C256.062 104.526 256.002 104.772 256.01 105.036H254.522C254.522 104.46 254.65 103.958 254.906 103.53C255.166 103.102 255.522 102.77 255.974 102.534C256.43 102.298 256.956 102.18 257.552 102.18C258.104 102.18 258.6 102.304 259.04 102.552C259.48 102.796 259.826 103.136 260.078 103.572C260.33 104.004 260.456 104.502 260.456 105.066C260.456 105.478 260.4 105.824 260.288 106.104C260.176 106.384 260.008 106.642 259.784 106.878C259.564 107.114 259.29 107.376 258.962 107.664L256.34 109.986L256.208 109.626H260.456V110.988H254.51Z" fill="#616161"></path> <path d="M267.205 102.36H268.111L265.807 111H264.901L267.205 102.36ZM274.302 111V103.344L272.676 104.322V103.332L274.302 102.36H275.196V111H274.302ZM280.652 111.18C280.12 111.18 279.64 111.056 279.212 110.808C278.788 110.56 278.452 110.224 278.204 109.8C277.956 109.372 277.832 108.892 277.832 108.36V105C277.832 104.468 277.956 103.99 278.204 103.566C278.452 103.138 278.788 102.8 279.212 102.552C279.64 102.304 280.12 102.18 280.652 102.18C281.184 102.18 281.662 102.304 282.086 102.552C282.514 102.8 282.852 103.138 283.1 103.566C283.348 103.99 283.472 104.468 283.472 105V108.36C283.472 108.892 283.348 109.372 283.1 109.8C282.852 110.224 282.514 110.56 282.086 110.808C281.662 111.056 281.184 111.18 280.652 111.18ZM280.652 110.328C281.008 110.328 281.332 110.242 281.624 110.07C281.916 109.894 282.148 109.66 282.32 109.368C282.492 109.076 282.578 108.754 282.578 108.402V104.958C282.578 104.602 282.492 104.278 282.32 103.986C282.148 103.694 281.916 103.462 281.624 103.29C281.332 103.114 281.008 103.026 280.652 103.026C280.296 103.026 279.972 103.114 279.68 103.29C279.388 103.462 279.156 103.694 278.984 103.986C278.812 104.278 278.726 104.602 278.726 104.958V108.402C278.726 108.754 278.812 109.076 278.984 109.368C279.156 109.66 279.388 109.894 279.68 110.07C279.972 110.242 280.296 110.328 280.652 110.328ZM288.336 111.18C287.804 111.18 287.324 111.056 286.896 110.808C286.472 110.56 286.136 110.224 285.888 109.8C285.64 109.372 285.516 108.892 285.516 108.36V105C285.516 104.468 285.64 103.99 285.888 103.566C286.136 103.138 286.472 102.8 286.896 102.552C287.324 102.304 287.804 102.18 288.336 102.18C288.868 102.18 289.346 102.304 289.77 102.552C290.198 102.8 290.536 103.138 290.784 103.566C291.032 103.99 291.156 104.468 291.156 105V108.36C291.156 108.892 291.032 109.372 290.784 109.8C290.536 110.224 290.198 110.56 289.77 110.808C289.346 111.056 288.868 111.18 288.336 111.18ZM288.336 110.328C288.692 110.328 289.016 110.242 289.308 110.07C289.6 109.894 289.832 109.66 290.004 109.368C290.176 109.076 290.262 108.754 290.262 108.402V104.958C290.262 104.602 290.176 104.278 290.004 103.986C289.832 103.694 289.6 103.462 289.308 103.29C289.016 103.114 288.692 103.026 288.336 103.026C287.98 103.026 287.656 103.114 287.364 103.29C287.072 103.462 286.84 103.694 286.668 103.986C286.496 104.278 286.41 104.602 286.41 104.958V108.402C286.41 108.754 286.496 109.076 286.668 109.368C286.84 109.66 287.072 109.894 287.364 110.07C287.656 110.242 287.98 110.328 288.336 110.328Z" fill="#818181"></path> <g filter="url(#filter4_dd_8968_56777)"> <rect x="188" y="52" width="2.5" height="31" rx="1.12281" fill="#1672EC"></rect> </g> <rect x="0.75" y="0.75" width="342.5" height="130.5" rx="19.25" stroke="#F7F7F7" stroke-width="1.5"></rect> <defs> <filter id="filter0_ii_8968_56777" x="40" y="40" width="264" height="59" filterUnits="userSpaceOnUse" color-interpolation-filters="sRGB"> <feFlood flood-opacity="0" result="BackgroundImageFix"></feFlood> <feBlend mode="normal" in="SourceGraphic" in2="BackgroundImageFix" result="shape"></feBlend> <feColorMatrix in="SourceAlpha" type="matrix" values="0 0 0 0 0 0 0 0 0 0 0 0 0 0 0 0 0 0 127 0" result="hardAlpha"></feColorMatrix> <feOffset dy="3"></feOffset> <feGaussianBlur stdDeviation="3"></feGaussianBlur> <feComposite in2="hardAlpha" operator="arithmetic" k2="-1" k3="1"></feComposite> <feColorMatrix type="matrix" values="0 0 0 0 0 0 0 0 0 0 0 0 0 0 0 0 0 0 0.06 0"></feColorMatrix> <feBlend mode="normal" in2="shape" result="effect1_innerShadow_8968_56777"></feBlend> <feColorMatrix in="SourceAlpha" type="matrix" values="0 0 0 0 0 0 0 0 0 0 0 0 0 0 0 0 0 0 127 0" result="hardAlpha"></feColorMatrix> <feOffset dy="1"></feOffset> <feGaussianBlur stdDeviation="1"></feGaussianBlur> <feComposite in2="hardAlpha" operator="arithmetic" k2="-1" k3="1"></feComposite> <feColorMatrix type="matrix" values="0 0 0 0 0 0 0 0 0 0 0 0 0 0 0 0 0 0 0.12 0"></feColorMatrix> <feBlend mode="normal" in2="effect1_innerShadow_8968_56777" result="effect2_innerShadow_8968_56777"></feBlend> </filter> <filter id="filter1_d_8968_56777" x="85.54" y="61.279" width="101.607" height="15.491" filterUnits="userSpaceOnUse" color-interpolation-filters="sRGB"> <feFlood flood-opacity="0" result="BackgroundImageFix"></feFlood> <feColorMatrix in="SourceAlpha" type="matrix" values="0 0 0 0 0 0 0 0 0 0 0 0 0 0 0 0 0 0 127 0" result="hardAlpha"></feColorMatrix> <feOffset dy="1"></feOffset> <feGaussianBlur stdDeviation="0.5"></feGaussianBlur> <feComposite in2="hardAlpha" operator="out"></feComposite> <feColorMatrix type="matrix" values="0 0 0 0 1 0 0 0 0 1 0 0 0 0 1 0 0 0 1 0"></feColorMatrix> <feBlend mode="normal" in2="BackgroundImageFix" result="effect1_dropShadow_8968_56777"></feBlend> <feBlend mode="normal" in="SourceGraphic" in2="effect1_dropShadow_8968_56777" result="shape"></feBlend> </filter> <filter id="filter2_dd_8968_56777" x="257.538" y="51.6553" width="50.0684" height="41.9238" filterUnits="userSpaceOnUse" color-interpolation-filters="sRGB"> <feFlood flood-opacity="0" result="BackgroundImageFix"></feFlood> <feColorMatrix in="SourceAlpha" type="matrix" values="0 0 0 0 0 0 0 0 0 0 0 0 0 0 0 0 0 0 127 0" result="hardAlpha"></feColorMatrix> <feOffset dy="8"></feOffset> <feGaussianBlur stdDeviation="8"></feGaussianBlur> <feColorMatrix type="matrix" values="0 0 0 0 0.121569 0 0 0 0 0.545098 0 0 0 0 0.141176 0 0 0 0.14 0"></feColorMatrix> <feBlend mode="multiply" in2="BackgroundImageFix" result="effect1_dropShadow_8968_56777"></feBlend> <feColorMatrix in="SourceAlpha" type="matrix" values="0 0 0 0 0 0 0 0 0 0 0 0 0 0 0 0 0 0 127 0" result="hardAlpha"></feColorMatrix> <feOffset dy="4"></feOffset> <feGaussianBlur stdDeviation="4"></feGaussianBlur> <feColorMatrix type="matrix" values="0 0 0 0 0.121569 0 0 0 0 0.545098 0 0 0 0 0.141176 0 0 0 0.14 0"></feColorMatrix> <feBlend mode="multiply" in2="effect1_dropShadow_8968_56777" result="effect2_dropShadow_8968_56777"></feBlend> <feBlend mode="normal" in="SourceGraphic" in2="effect2_dropShadow_8968_56777" result="shape"></feBlend> </filter> <filter id="filter3_dd_8968_56777" x="251.175" y="51.6555" width="56.4326" height="51.2498" filterUnits="userSpaceOnUse" color-interpolation-filters="sRGB"> <feFlood flood-opacity="0" result="BackgroundImageFix"></feFlood> <feColorMatrix in="SourceAlpha" type="matrix" values="0 0 0 0 0 0 0 0 0 0 0 0 0 0 0 0 0 0 127 0" result="hardAlpha"></feColorMatrix> <feOffset dy="8"></feOffset> <feGaussianBlur stdDeviation="8"></feGaussianBlur> <feColorMatrix type="matrix" values="0 0 0 0 0.121569 0 0 0 0 0.545098 0 0 0 0 0.141176 0 0 0 0.14 0"></feColorMatrix> <feBlend mode="multiply" in2="BackgroundImageFix" result="effect1_dropShadow_8968_56777"></feBlend> <feColorMatrix in="SourceAlpha" type="matrix" values="0 0 0 0 0 0 0 0 0 0 0 0 0 0 0 0 0 0 127 0" result="hardAlpha"></feColorMatrix> <feOffset dy="4"></feOffset> <feGaussianBlur stdDeviation="4"></feGaussianBlur> <feColorMatrix type="matrix" values="0 0 0 0 0.121569 0 0 0 0 0.545098 0 0 0 0 0.141176 0 0 0 0.14 0"></feColorMatrix> <feBlend mode="multiply" in2="effect1_dropShadow_8968_56777" result="effect2_dropShadow_8968_56777"></feBlend> <feBlend mode="normal" in="SourceGraphic" in2="effect2_dropShadow_8968_56777" result="shape"></feBlend> </filter> <filter id="filter4_dd_8968_56777" x="179.018" y="47.5088" width="20.4649" height="48.9649" filterUnits="userSpaceOnUse" color-interpolation-filters="sRGB"> <feFlood flood-opacity="0" result="BackgroundImageFix"></feFlood> <feColorMatrix in="SourceAlpha" type="matrix" values="0 0 0 0 0 0 0 0 0 0 0 0 0 0 0 0 0 0 127 0" result="hardAlpha"></feColorMatrix> <feOffset dy="4.49123"></feOffset> <feGaussianBlur stdDeviation="4.49123"></feGaussianBlur> <feColorMatrix type="matrix" values="0 0 0 0 0.0588235 0 0 0 0 0.337255 0 0 0 0 0.701961 0 0 0 0.14 0"></feColorMatrix> <feBlend mode="multiply" in2="BackgroundImageFix" result="effect1_dropShadow_8968_56777"></feBlend> <feColorMatrix in="SourceAlpha" type="matrix" values="0 0 0 0 0 0 0 0 0 0 0 0 0 0 0 0 0 0 127 0" result="hardAlpha"></feColorMatrix> <feOffset dy="2.24561"></feOffset> <feGaussianBlur stdDeviation="2.24561"></feGaussianBlur> <feColorMatrix type="matrix" values="0 0 0 0 0.0588235 0 0 0 0 0.337255 0 0 0 0 0.701961 0 0 0 0.14 0"></feColorMatrix> <feBlend mode="multiply" in2="effect1_dropShadow_8968_56777" result="effect2_dropShadow_8968_56777"></feBlend> <feBlend mode="normal" in="SourceGraphic" in2="effect2_dropShadow_8968_56777" result="shape"></feBlend> </filter> <linearGradient id="paint0_linear_8968_56777" x1="172" y1="0" x2="172" y2="132" gradientUnits="userSpaceOnUse"> <stop stop-color="white"></stop> <stop offset="0.8125" stop-color="#FAF9FA"></stop> </linearGradient> <linearGradient id="paint1_linear_8968_56777" x1="172" y1="40" x2="172" y2="96" gradientUnits="userSpaceOnUse"> <stop stop-color="#F5F5F5"></stop> <stop offset="1" stop-color="white"></stop> </linearGradient> <linearGradient id="paint2_linear_8968_56777" x1="172" y1="40" x2="172" y2="96" gradientUnits="userSpaceOnUse"> <stop stop-color="#EEEEEE" stop-opacity="0"></stop> <stop offset="1" stop-color="#F1F0F4"></stop> </linearGradient> <clipPath id="clip0_8968_56777"> <rect width="20" height="23" fill="white" transform="translate(56 56.5)"></rect> </clipPath> </defs> </svg> 