<?xml version="1.0" encoding="UTF-8"?> <svg xmlns="http://www.w3.org/2000/svg" width="432" height="184" viewBox="0 0 432 184" fill="none"> <g filter="url(#filter0_ii_8941_133984)"> <rect y="54" width="432" height="96" rx="20" fill="url(#paint0_linear_8941_133984)"></rect> </g> <rect x="1" y="55" width="430" height="94" rx="19" stroke="url(#paint1_linear_8941_133984)" stroke-width="2"></rect> <g filter="url(#filter1_d_8941_133984)"> <path d="M24.52 116V90.08H26.95L37.138 111.878L47.272 90.08H49.738V115.982H47.218V95.984L37.984 116H36.274L27.058 95.984V116H24.52ZM60.9563 116.54C59.4923 116.54 58.2623 116.276 57.2663 115.748C56.2823 115.22 55.5443 114.518 55.0523 113.642C54.5603 112.766 54.3143 111.812 54.3143 110.78C54.3143 109.724 54.5243 108.824 54.9443 108.08C55.3763 107.324 55.9583 106.706 56.6903 106.226C57.4343 105.746 58.2923 105.38 59.2643 105.128C60.2483 104.888 61.3343 104.678 62.5223 104.498C63.7223 104.306 64.8923 104.144 66.0323 104.012C67.1843 103.868 68.1923 103.73 69.0563 103.598L68.1203 104.174C68.1563 102.254 67.7843 100.832 67.0043 99.908C66.2243 98.984 64.8683 98.522 62.9363 98.522C61.6043 98.522 60.4763 98.822 59.5523 99.422C58.6403 100.022 57.9983 100.97 57.6263 102.266L55.0523 101.51C55.4963 99.77 56.3903 98.42 57.7343 97.46C59.0783 96.5 60.8243 96.02 62.9723 96.02C64.7483 96.02 66.2543 96.356 67.4903 97.028C68.7383 97.688 69.6203 98.648 70.1363 99.908C70.3763 100.472 70.5323 101.102 70.6043 101.798C70.6763 102.494 70.7123 103.202 70.7123 103.922V116H68.3543V111.122L69.0383 111.41C68.3783 113.078 67.3523 114.35 65.9603 115.226C64.5683 116.102 62.9003 116.54 60.9563 116.54ZM61.2623 114.254C62.4983 114.254 63.5783 114.032 64.5023 113.588C65.4263 113.144 66.1703 112.538 66.7343 111.77C67.2983 110.99 67.6643 110.114 67.8323 109.142C67.9763 108.518 68.0543 107.834 68.0663 107.09C68.0783 106.334 68.0843 105.77 68.0843 105.398L69.0923 105.92C68.1923 106.04 67.2143 106.16 66.1583 106.28C65.1143 106.4 64.0823 106.538 63.0623 106.694C62.0543 106.85 61.1423 107.036 60.3263 107.252C59.7743 107.408 59.2403 107.63 58.7243 107.918C58.2083 108.194 57.7823 108.566 57.4463 109.034C57.1223 109.502 56.9603 110.084 56.9603 110.78C56.9603 111.344 57.0983 111.89 57.3743 112.418C57.6623 112.946 58.1183 113.384 58.7423 113.732C59.3783 114.08 60.2183 114.254 61.2623 114.254ZM76.003 116V96.56H78.379V101.24L77.911 100.628C78.127 100.052 78.409 99.524 78.757 99.044C79.105 98.552 79.483 98.15 79.891 97.838C80.395 97.394 80.983 97.058 81.655 96.83C82.327 96.59 83.005 96.452 83.689 96.416C84.373 96.368 84.997 96.416 85.561 96.56V99.044C84.853 98.864 84.079 98.822 83.239 98.918C82.399 99.014 81.625 99.35 80.917 99.926C80.269 100.43 79.783 101.036 79.459 101.744C79.135 102.44 78.919 103.184 78.811 103.976C78.703 104.756 78.649 105.53 78.649 106.298V116H76.003ZM100.164 116C99.0725 116.228 97.9925 116.318 96.9245 116.27C95.8685 116.222 94.9205 115.994 94.0805 115.586C93.2525 115.178 92.6225 114.542 92.1905 113.678C91.8425 112.958 91.6505 112.232 91.6145 111.5C91.5905 110.756 91.5785 109.91 91.5785 108.962V91.16H94.2065V108.854C94.2065 109.67 94.2125 110.354 94.2245 110.906C94.2485 111.446 94.3745 111.926 94.6025 112.346C95.0345 113.15 95.7185 113.63 96.6545 113.786C97.6025 113.942 98.7725 113.906 100.164 113.678V116ZM87.4205 98.828V96.56H100.164V98.828H87.4205ZM104.959 92.87V89.9H107.605V92.87H104.959ZM104.959 116V96.56H107.605V116H104.959ZM119.169 116.54C117.705 116.54 116.475 116.276 115.479 115.748C114.495 115.22 113.757 114.518 113.265 113.642C112.773 112.766 112.527 111.812 112.527 110.78C112.527 109.724 112.737 108.824 113.157 108.08C113.589 107.324 114.171 106.706 114.903 106.226C115.647 105.746 116.505 105.38 117.477 105.128C118.461 104.888 119.547 104.678 120.735 104.498C121.935 104.306 123.105 104.144 124.245 104.012C125.397 103.868 126.405 103.73 127.269 103.598L126.333 104.174C126.369 102.254 125.997 100.832 125.217 99.908C124.437 98.984 123.081 98.522 121.149 98.522C119.817 98.522 118.689 98.822 117.765 99.422C116.853 100.022 116.211 100.97 115.839 102.266L113.265 101.51C113.709 99.77 114.603 98.42 115.947 97.46C117.291 96.5 119.037 96.02 121.185 96.02C122.961 96.02 124.467 96.356 125.703 97.028C126.951 97.688 127.833 98.648 128.349 99.908C128.589 100.472 128.745 101.102 128.817 101.798C128.889 102.494 128.925 103.202 128.925 103.922V116H126.567V111.122L127.251 111.41C126.591 113.078 125.565 114.35 124.173 115.226C122.781 116.102 121.113 116.54 119.169 116.54ZM119.475 114.254C120.711 114.254 121.791 114.032 122.715 113.588C123.639 113.144 124.383 112.538 124.947 111.77C125.511 110.99 125.877 110.114 126.045 109.142C126.189 108.518 126.267 107.834 126.279 107.09C126.291 106.334 126.297 105.77 126.297 105.398L127.305 105.92C126.405 106.04 125.427 106.16 124.371 106.28C123.327 106.4 122.295 106.538 121.275 106.694C120.267 106.85 119.355 107.036 118.539 107.252C117.987 107.408 117.453 107.63 116.937 107.918C116.421 108.194 115.995 108.566 115.659 109.034C115.335 109.502 115.173 110.084 115.173 110.78C115.173 111.344 115.311 111.89 115.587 112.418C115.875 112.946 116.331 113.384 116.955 113.732C117.591 114.08 118.431 114.254 119.475 114.254ZM148.255 116V106.082C148.255 105.002 148.153 104.012 147.949 103.112C147.745 102.2 147.415 101.408 146.959 100.736C146.515 100.052 145.933 99.524 145.213 99.152C144.505 98.78 143.641 98.594 142.621 98.594C141.685 98.594 140.857 98.756 140.137 99.08C139.429 99.404 138.829 99.872 138.337 100.484C137.857 101.084 137.491 101.816 137.239 102.68C136.987 103.544 136.861 104.528 136.861 105.632L134.989 105.218C134.989 103.226 135.337 101.552 136.033 100.196C136.729 98.84 137.689 97.814 138.913 97.118C140.137 96.422 141.541 96.074 143.125 96.074C144.289 96.074 145.303 96.254 146.167 96.614C147.043 96.974 147.781 97.46 148.381 98.072C148.993 98.684 149.485 99.386 149.857 100.178C150.229 100.958 150.499 101.792 150.667 102.68C150.835 103.556 150.919 104.432 150.919 105.308V116H148.255ZM134.197 116V96.56H136.591V101.348H136.861V116H134.197ZM156.555 92.87V89.9H159.201V92.87H156.555ZM156.555 116V96.56H159.201V116H156.555ZM179.242 116V106.082C179.242 105.002 179.14 104.012 178.936 103.112C178.732 102.2 178.402 101.408 177.946 100.736C177.502 100.052 176.92 99.524 176.2 99.152C175.492 98.78 174.628 98.594 173.608 98.594C172.672 98.594 171.844 98.756 171.124 99.08C170.416 99.404 169.816 99.872 169.324 100.484C168.844 101.084 168.478 101.816 168.226 102.68C167.974 103.544 167.848 104.528 167.848 105.632L165.976 105.218C165.976 103.226 166.324 101.552 167.02 100.196C167.716 98.84 168.676 97.814 169.9 97.118C171.124 96.422 172.528 96.074 174.112 96.074C175.276 96.074 176.29 96.254 177.154 96.614C178.03 96.974 178.768 97.46 179.368 98.072C179.98 98.684 180.472 99.386 180.844 100.178C181.216 100.958 181.486 101.792 181.654 102.68C181.822 103.556 181.906 104.432 181.906 105.308V116H179.242ZM165.184 116V96.56H167.578V101.348H167.848V116H165.184ZM187.344 115.982L187.362 113.57L199.08 102.986C200.088 102.074 200.754 101.21 201.078 100.394C201.414 99.566 201.582 98.702 201.582 97.802C201.582 96.734 201.33 95.768 200.826 94.904C200.322 94.04 199.644 93.356 198.792 92.852C197.94 92.336 196.986 92.078 195.93 92.078C194.826 92.078 193.842 92.342 192.978 92.87C192.114 93.398 191.43 94.094 190.926 94.958C190.434 95.822 190.194 96.764 190.206 97.784H187.506C187.506 96.212 187.878 94.802 188.622 93.554C189.366 92.306 190.374 91.328 191.646 90.62C192.918 89.9 194.358 89.54 195.966 89.54C197.538 89.54 198.948 89.912 200.196 90.656C201.456 91.388 202.446 92.384 203.166 93.644C203.898 94.892 204.264 96.284 204.264 97.82C204.264 98.9 204.132 99.854 203.868 100.682C203.616 101.498 203.214 102.26 202.662 102.968C202.122 103.664 201.432 104.384 200.592 105.128L190.188 114.524L189.774 113.444H204.264V115.982H187.344ZM218.805 116.54C217.197 116.54 215.757 116.168 214.485 115.424C213.213 114.68 212.205 113.672 211.461 112.4C210.717 111.116 210.345 109.676 210.345 108.08V98C210.345 96.404 210.717 94.97 211.461 93.698C212.205 92.414 213.213 91.4 214.485 90.656C215.757 89.912 217.197 89.54 218.805 89.54C220.401 89.54 221.835 89.912 223.107 90.656C224.391 91.4 225.405 92.414 226.149 93.698C226.893 94.97 227.265 96.404 227.265 98V108.08C227.265 109.676 226.893 111.116 226.149 112.4C225.405 113.672 224.391 114.68 223.107 115.424C221.835 116.168 220.401 116.54 218.805 116.54ZM218.805 113.984C219.861 113.984 220.827 113.726 221.703 113.21C222.579 112.682 223.275 111.98 223.791 111.104C224.319 110.228 224.583 109.262 224.583 108.206V97.874C224.583 96.806 224.319 95.834 223.791 94.958C223.275 94.082 222.579 93.386 221.703 92.87C220.827 92.342 219.861 92.078 218.805 92.078C217.737 92.078 216.765 92.342 215.889 92.87C215.013 93.386 214.311 94.082 213.783 94.958C213.267 95.834 213.009 96.806 213.009 97.874V108.206C213.009 109.262 213.267 110.228 213.783 111.104C214.311 111.98 215.013 112.682 215.889 113.21C216.765 113.726 217.737 113.984 218.805 113.984ZM245.28 116V110.978H233.148V108.458L241.824 90.08H244.794L236.118 108.458H245.28V100.898H247.944V108.458H250.77V110.978H247.944V116H245.28ZM264.591 116.54C262.971 116.54 261.537 116.216 260.289 115.568C259.053 114.92 258.081 114.014 257.373 112.85C256.677 111.674 256.329 110.3 256.329 108.728C256.329 107.12 256.719 105.692 257.499 104.444C258.279 103.184 259.467 102.23 261.063 101.582L261.027 102.626C259.695 102.134 258.681 101.33 257.985 100.214C257.289 99.098 256.941 97.862 256.941 96.506C256.941 95.066 257.271 93.83 257.931 92.798C258.591 91.754 259.491 90.95 260.631 90.386C261.783 89.822 263.103 89.54 264.591 89.54C266.079 89.54 267.399 89.822 268.551 90.386C269.703 90.95 270.609 91.754 271.269 92.798C271.929 93.83 272.259 95.066 272.259 96.506C272.259 97.862 271.923 99.092 271.251 100.196C270.591 101.3 269.577 102.11 268.209 102.626L268.119 101.582C269.715 102.218 270.909 103.166 271.701 104.426C272.505 105.686 272.907 107.12 272.907 108.728C272.907 110.3 272.553 111.674 271.845 112.85C271.137 114.014 270.159 114.92 268.911 115.568C267.663 116.216 266.223 116.54 264.591 116.54ZM264.591 114.002C266.223 114.002 267.549 113.552 268.569 112.652C269.589 111.74 270.099 110.432 270.099 108.728C270.099 107 269.595 105.692 268.587 104.804C267.579 103.904 266.247 103.454 264.591 103.454C262.935 103.454 261.609 103.904 260.613 104.804C259.617 105.692 259.119 107 259.119 108.728C259.119 110.432 259.623 111.74 260.631 112.652C261.639 113.552 262.959 114.002 264.591 114.002ZM264.591 100.898C266.031 100.898 267.201 100.532 268.101 99.8C269.001 99.056 269.451 97.958 269.451 96.506C269.451 95.054 269.001 93.968 268.101 93.248C267.201 92.516 266.031 92.15 264.591 92.15C263.151 92.15 261.981 92.516 261.081 93.248C260.193 93.968 259.749 95.054 259.749 96.506C259.749 97.958 260.193 99.056 261.081 99.8C261.981 100.532 263.151 100.898 264.591 100.898Z" fill="black"></path> </g> <rect x="14" y="4" width="142" height="48" rx="8" fill="white"></rect> <path d="M28.762 39V30.558L22 18.84H24.38L29.798 28.206L35.188 18.84H37.568L30.834 30.558V39H28.762ZM44.0608 39.42C42.5581 39.42 41.2748 39.0793 40.2108 38.398C39.1468 37.7167 38.3301 36.774 37.7608 35.57C37.1915 34.366 36.9068 32.9847 36.9068 31.426C36.9068 29.8393 37.1961 28.4487 37.7748 27.254C38.3535 26.0593 39.1748 25.1307 40.2388 24.468C41.3121 23.796 42.5861 23.46 44.0608 23.46C45.5728 23.46 46.8608 23.8007 47.9248 24.482C48.9981 25.154 49.8148 26.092 50.3748 27.296C50.9441 28.4907 51.2288 29.8673 51.2288 31.426C51.2288 33.0127 50.9441 34.408 50.3748 35.612C49.8055 36.8067 48.9841 37.74 47.9108 38.412C46.8375 39.084 45.5541 39.42 44.0608 39.42ZM44.0608 37.446C45.7408 37.446 46.9915 36.8907 47.8128 35.78C48.6341 34.66 49.0448 33.2087 49.0448 31.426C49.0448 29.5967 48.6295 28.1407 47.7988 27.058C46.9775 25.9753 45.7315 25.434 44.0608 25.434C42.9315 25.434 41.9981 25.6907 41.2608 26.204C40.5328 26.708 39.9868 27.4127 39.6228 28.318C39.2681 29.214 39.0908 30.25 39.0908 31.426C39.0908 33.246 39.5108 34.7067 40.3508 35.808C41.1908 36.9 42.4275 37.446 44.0608 37.446ZM60.5695 39.378C59.6642 39.378 58.8709 39.238 58.1895 38.958C57.5175 38.678 56.9435 38.3 56.4675 37.824C56.0009 37.348 55.6229 36.8067 55.3335 36.2C55.0442 35.584 54.8342 34.9353 54.7035 34.254C54.5729 33.5633 54.5075 32.8773 54.5075 32.196V23.88H56.5795V31.594C56.5795 32.4247 56.6589 33.1947 56.8175 33.904C56.9762 34.6133 57.2282 35.234 57.5735 35.766C57.9282 36.2887 58.3809 36.6947 58.9315 36.984C59.4915 37.2733 60.1682 37.418 60.9615 37.418C61.6895 37.418 62.3289 37.292 62.8795 37.04C63.4395 36.788 63.9062 36.4287 64.2795 35.962C64.6622 35.486 64.9515 34.912 65.1475 34.24C65.3435 33.5587 65.4415 32.7933 65.4415 31.944L66.8975 32.266C66.8975 33.8153 66.6269 35.1173 66.0855 36.172C65.5442 37.2267 64.7975 38.0247 63.8455 38.566C62.8935 39.1073 61.8015 39.378 60.5695 39.378ZM65.6515 39V35.276H65.4415V23.88H67.4995V39H65.6515ZM71.8829 39V23.88H73.7309V27.52L73.3669 27.044C73.5349 26.596 73.7543 26.1853 74.0249 25.812C74.2956 25.4293 74.5896 25.1167 74.9069 24.874C75.2989 24.5287 75.7563 24.2673 76.2789 24.09C76.8016 23.9033 77.3289 23.796 77.8609 23.768C78.3929 23.7307 78.8783 23.768 79.3169 23.88V25.812C78.7663 25.672 78.1643 25.6393 77.5109 25.714C76.8576 25.7887 76.2556 26.05 75.7049 26.498C75.2009 26.89 74.8229 27.3613 74.5709 27.912C74.3189 28.4533 74.1509 29.032 74.0669 29.648C73.9829 30.2547 73.9409 30.8567 73.9409 31.454V39H71.8829ZM92.845 39.42C91.7064 39.42 90.7497 39.2147 89.975 38.804C89.2097 38.3933 88.6357 37.8473 88.253 37.166C87.8704 36.4847 87.679 35.7427 87.679 34.94C87.679 34.1187 87.8424 33.4187 88.169 32.84C88.505 32.252 88.9577 31.7713 89.527 31.398C90.1057 31.0247 90.773 30.74 91.529 30.544C92.2944 30.3573 93.139 30.194 94.063 30.054C94.9964 29.9047 95.9064 29.7787 96.793 29.676C97.689 29.564 98.473 29.4567 99.145 29.354L98.417 29.802C98.445 28.3087 98.1557 27.2027 97.549 26.484C96.9424 25.7653 95.8877 25.406 94.385 25.406C93.349 25.406 92.4717 25.6393 91.753 26.106C91.0437 26.5727 90.5444 27.31 90.255 28.318L88.253 27.73C88.5984 26.3767 89.2937 25.3267 90.339 24.58C91.3844 23.8333 92.7424 23.46 94.413 23.46C95.7944 23.46 96.9657 23.7213 97.927 24.244C98.8977 24.7573 99.5837 25.504 99.985 26.484C100.172 26.9227 100.293 27.4127 100.349 27.954C100.405 28.4953 100.433 29.046 100.433 29.606V39H98.599V35.206L99.131 35.43C98.6177 36.7273 97.8197 37.7167 96.737 38.398C95.6544 39.0793 94.357 39.42 92.845 39.42ZM93.083 37.642C94.0444 37.642 94.8844 37.4693 95.603 37.124C96.3217 36.7787 96.9004 36.3073 97.339 35.71C97.7777 35.1033 98.0624 34.422 98.193 33.666C98.305 33.1807 98.3657 32.6487 98.375 32.07C98.3844 31.482 98.389 31.0433 98.389 30.754L99.173 31.16C98.473 31.2533 97.7124 31.3467 96.891 31.44C96.079 31.5333 95.2764 31.6407 94.483 31.762C93.699 31.8833 92.9897 32.028 92.355 32.196C91.9257 32.3173 91.5104 32.49 91.109 32.714C90.7077 32.9287 90.3764 33.218 90.115 33.582C89.863 33.946 89.737 34.3987 89.737 34.94C89.737 35.3787 89.8444 35.8033 90.059 36.214C90.283 36.6247 90.6377 36.9653 91.123 37.236C91.6177 37.5067 92.271 37.642 93.083 37.642ZM104.828 39V18.42H106.886V39H104.828ZM111.834 21.01V18.7H113.892V21.01H111.834ZM111.834 39V23.88H113.892V39H111.834ZM122.885 39.42C121.746 39.42 120.79 39.2147 120.015 38.804C119.25 38.3933 118.676 37.8473 118.293 37.166C117.91 36.4847 117.719 35.7427 117.719 34.94C117.719 34.1187 117.882 33.4187 118.209 32.84C118.545 32.252 118.998 31.7713 119.567 31.398C120.146 31.0247 120.813 30.74 121.569 30.544C122.334 30.3573 123.179 30.194 124.103 30.054C125.036 29.9047 125.946 29.7787 126.833 29.676C127.729 29.564 128.513 29.4567 129.185 29.354L128.457 29.802C128.485 28.3087 128.196 27.2027 127.589 26.484C126.982 25.7653 125.928 25.406 124.425 25.406C123.389 25.406 122.512 25.6393 121.793 26.106C121.084 26.5727 120.584 27.31 120.295 28.318L118.293 27.73C118.638 26.3767 119.334 25.3267 120.379 24.58C121.424 23.8333 122.782 23.46 124.453 23.46C125.834 23.46 127.006 23.7213 127.967 24.244C128.938 24.7573 129.624 25.504 130.025 26.484C130.212 26.9227 130.333 27.4127 130.389 27.954C130.445 28.4953 130.473 29.046 130.473 29.606V39H128.639V35.206L129.171 35.43C128.658 36.7273 127.86 37.7167 126.777 38.398C125.694 39.0793 124.397 39.42 122.885 39.42ZM123.123 37.642C124.084 37.642 124.924 37.4693 125.643 37.124C126.362 36.7787 126.94 36.3073 127.379 35.71C127.818 35.1033 128.102 34.422 128.233 33.666C128.345 33.1807 128.406 32.6487 128.415 32.07C128.424 31.482 128.429 31.0433 128.429 30.754L129.213 31.16C128.513 31.2533 127.752 31.3467 126.931 31.44C126.119 31.5333 125.316 31.6407 124.523 31.762C123.739 31.8833 123.03 32.028 122.395 32.196C121.966 32.3173 121.55 32.49 121.149 32.714C120.748 32.9287 120.416 33.218 120.155 33.582C119.903 33.946 119.777 34.3987 119.777 34.94C119.777 35.3787 119.884 35.8033 120.099 36.214C120.323 36.6247 120.678 36.9653 121.163 37.236C121.658 37.5067 122.311 37.642 123.123 37.642ZM140.23 39.406C138.457 39.406 136.996 39.0233 135.848 38.258C134.709 37.4927 134.009 36.4287 133.748 35.066L135.848 34.716C136.072 35.5747 136.581 36.2607 137.374 36.774C138.177 37.278 139.166 37.53 140.342 37.53C141.49 37.53 142.395 37.292 143.058 36.816C143.721 36.3307 144.052 35.6727 144.052 34.842C144.052 34.3753 143.945 33.9973 143.73 33.708C143.525 33.4093 143.1 33.134 142.456 32.882C141.812 32.63 140.851 32.3313 139.572 31.986C138.2 31.6127 137.127 31.2393 136.352 30.866C135.577 30.4927 135.027 30.0633 134.7 29.578C134.373 29.0833 134.21 28.4813 134.21 27.772C134.21 26.9133 134.453 26.162 134.938 25.518C135.423 24.8647 136.095 24.3607 136.954 24.006C137.813 23.642 138.811 23.46 139.95 23.46C141.089 23.46 142.106 23.6467 143.002 24.02C143.907 24.384 144.635 24.8973 145.186 25.56C145.737 26.2227 146.063 26.9927 146.166 27.87L144.066 28.248C143.926 27.3613 143.483 26.6613 142.736 26.148C141.999 25.6253 141.061 25.3547 139.922 25.336C138.849 25.308 137.976 25.5133 137.304 25.952C136.632 26.3813 136.296 26.9553 136.296 27.674C136.296 28.0753 136.417 28.4207 136.66 28.71C136.903 28.99 137.341 29.256 137.976 29.508C138.62 29.76 139.535 30.0353 140.72 30.334C142.111 30.6887 143.203 31.062 143.996 31.454C144.789 31.846 145.354 32.308 145.69 32.84C146.026 33.372 146.194 34.03 146.194 34.814C146.194 36.242 145.662 37.3667 144.598 38.188C143.543 39 142.087 39.406 140.23 39.406Z" fill="#818181"></path> <path d="M360.641 183V168.876L357.401 170.856V167.664L360.641 165.72H363.593V183H360.641ZM373.829 183.324C372.965 183.324 372.149 183.156 371.381 182.82C370.613 182.484 369.945 182.008 369.377 181.392C368.817 180.776 368.413 180.048 368.165 179.208L370.961 178.452C371.161 179.14 371.525 179.672 372.053 180.048C372.589 180.416 373.177 180.596 373.817 180.588C374.385 180.588 374.893 180.456 375.341 180.192C375.789 179.928 376.141 179.572 376.397 179.124C376.653 178.668 376.781 178.16 376.781 177.6C376.781 176.744 376.505 176.028 375.953 175.452C375.401 174.876 374.689 174.588 373.817 174.588C373.553 174.588 373.293 174.624 373.037 174.696C372.789 174.768 372.549 174.868 372.317 174.996L370.997 172.716L376.805 167.748L377.057 168.444H368.837V165.72H379.433V168.456L374.765 172.944L374.741 172.092C375.789 172.164 376.681 172.456 377.417 172.968C378.161 173.48 378.729 174.14 379.121 174.948C379.521 175.756 379.721 176.64 379.721 177.6C379.721 178.688 379.453 179.664 378.917 180.528C378.389 181.392 377.677 182.076 376.781 182.58C375.893 183.076 374.909 183.324 373.829 183.324Z" fill="#1672EC"></path> <path d="M393.443 165.72H395.255L390.647 183H388.835L393.443 165.72ZM404.144 182.988L404.156 181.38L411.968 174.324C412.64 173.716 413.084 173.14 413.3 172.596C413.524 172.044 413.636 171.468 413.636 170.868C413.636 170.156 413.468 169.512 413.132 168.936C412.796 168.36 412.344 167.904 411.776 167.568C411.208 167.224 410.572 167.052 409.868 167.052C409.132 167.052 408.476 167.228 407.9 167.58C407.324 167.932 406.868 168.396 406.532 168.972C406.204 169.548 406.044 170.176 406.052 170.856H404.252C404.252 169.808 404.5 168.868 404.996 168.036C405.492 167.204 406.164 166.552 407.012 166.08C407.86 165.6 408.82 165.36 409.892 165.36C410.94 165.36 411.88 165.608 412.712 166.104C413.552 166.592 414.212 167.256 414.692 168.096C415.18 168.928 415.424 169.856 415.424 170.88C415.424 171.6 415.336 172.236 415.16 172.788C414.992 173.332 414.724 173.84 414.356 174.312C413.996 174.776 413.536 175.256 412.976 175.752L406.04 182.016L405.764 181.296H415.424V182.988H404.144ZM424.672 183.36C423.608 183.36 422.648 183.112 421.792 182.616C420.944 182.12 420.272 181.448 419.776 180.6C419.28 179.744 419.032 178.784 419.032 177.72V171C419.032 169.936 419.28 168.98 419.776 168.132C420.272 167.276 420.944 166.6 421.792 166.104C422.648 165.608 423.608 165.36 424.672 165.36C425.736 165.36 426.692 165.608 427.54 166.104C428.396 166.6 429.072 167.276 429.568 168.132C430.064 168.98 430.312 169.936 430.312 171V177.72C430.312 178.784 430.064 179.744 429.568 180.6C429.072 181.448 428.396 182.12 427.54 182.616C426.692 183.112 425.736 183.36 424.672 183.36ZM424.672 181.656C425.384 181.656 426.032 181.484 426.616 181.14C427.2 180.788 427.664 180.32 428.008 179.736C428.352 179.152 428.524 178.508 428.524 177.804V170.916C428.524 170.204 428.352 169.556 428.008 168.972C427.664 168.388 427.2 167.924 426.616 167.58C426.032 167.228 425.384 167.052 424.672 167.052C423.96 167.052 423.312 167.228 422.728 167.58C422.144 167.924 421.68 168.388 421.336 168.972C420.992 169.556 420.82 170.204 420.82 170.916V177.804C420.82 178.508 420.992 179.152 421.336 179.736C421.68 180.32 422.144 180.788 422.728 181.14C423.312 181.484 423.96 181.656 424.672 181.656Z" fill="#818181"></path> <g filter="url(#filter2_dd_8941_133984)"> <rect x="277" y="74" width="5" height="57" rx="2" fill="#1672EC"></rect> </g> <defs> <filter id="filter0_ii_8941_133984" x="0" y="54" width="432" height="102" filterUnits="userSpaceOnUse" color-interpolation-filters="sRGB"> <feFlood flood-opacity="0" result="BackgroundImageFix"></feFlood> <feBlend mode="normal" in="SourceGraphic" in2="BackgroundImageFix" result="shape"></feBlend> <feColorMatrix in="SourceAlpha" type="matrix" values="0 0 0 0 0 0 0 0 0 0 0 0 0 0 0 0 0 0 127 0" result="hardAlpha"></feColorMatrix> <feOffset dy="6"></feOffset> <feGaussianBlur stdDeviation="6"></feGaussianBlur> <feComposite in2="hardAlpha" operator="arithmetic" k2="-1" k3="1"></feComposite> <feColorMatrix type="matrix" values="0 0 0 0 0 0 0 0 0 0 0 0 0 0 0 0 0 0 0.06 0"></feColorMatrix> <feBlend mode="normal" in2="shape" result="effect1_innerShadow_8941_133984"></feBlend> <feColorMatrix in="SourceAlpha" type="matrix" values="0 0 0 0 0 0 0 0 0 0 0 0 0 0 0 0 0 0 127 0" result="hardAlpha"></feColorMatrix> <feOffset dy="2"></feOffset> <feGaussianBlur stdDeviation="2"></feGaussianBlur> <feComposite in2="hardAlpha" operator="arithmetic" k2="-1" k3="1"></feComposite> <feColorMatrix type="matrix" values="0 0 0 0 0 0 0 0 0 0 0 0 0 0 0 0 0 0 0.12 0"></feColorMatrix> <feBlend mode="normal" in2="effect1_innerShadow_8941_133984" result="effect2_innerShadow_8941_133984"></feBlend> </filter> <filter id="filter1_d_8941_133984" x="22.5195" y="89.54" width="252.388" height="31" filterUnits="userSpaceOnUse" color-interpolation-filters="sRGB"> <feFlood flood-opacity="0" result="BackgroundImageFix"></feFlood> <feColorMatrix in="SourceAlpha" type="matrix" values="0 0 0 0 0 0 0 0 0 0 0 0 0 0 0 0 0 0 127 0" result="hardAlpha"></feColorMatrix> <feOffset dy="2"></feOffset> <feGaussianBlur stdDeviation="1"></feGaussianBlur> <feComposite in2="hardAlpha" operator="out"></feComposite> <feColorMatrix type="matrix" values="0 0 0 0 1 0 0 0 0 1 0 0 0 0 1 0 0 0 1 0"></feColorMatrix> <feBlend mode="normal" in2="BackgroundImageFix" result="effect1_dropShadow_8941_133984"></feBlend> <feBlend mode="normal" in="SourceGraphic" in2="effect1_dropShadow_8941_133984" result="shape"></feBlend> </filter> <filter id="filter2_dd_8941_133984" x="261" y="66" width="37" height="89" filterUnits="userSpaceOnUse" color-interpolation-filters="sRGB"> <feFlood flood-opacity="0" result="BackgroundImageFix"></feFlood> <feColorMatrix in="SourceAlpha" type="matrix" values="0 0 0 0 0 0 0 0 0 0 0 0 0 0 0 0 0 0 127 0" result="hardAlpha"></feColorMatrix> <feOffset dy="8"></feOffset> <feGaussianBlur stdDeviation="8"></feGaussianBlur> <feColorMatrix type="matrix" values="0 0 0 0 0.0588235 0 0 0 0 0.337255 0 0 0 0 0.701961 0 0 0 0.14 0"></feColorMatrix> <feBlend mode="multiply" in2="BackgroundImageFix" result="effect1_dropShadow_8941_133984"></feBlend> <feColorMatrix in="SourceAlpha" type="matrix" values="0 0 0 0 0 0 0 0 0 0 0 0 0 0 0 0 0 0 127 0" result="hardAlpha"></feColorMatrix> <feOffset dy="4"></feOffset> <feGaussianBlur stdDeviation="4"></feGaussianBlur> <feColorMatrix type="matrix" values="0 0 0 0 0.0588235 0 0 0 0 0.337255 0 0 0 0 0.701961 0 0 0 0.14 0"></feColorMatrix> <feBlend mode="multiply" in2="effect1_dropShadow_8941_133984" result="effect2_dropShadow_8941_133984"></feBlend> <feBlend mode="normal" in="SourceGraphic" in2="effect2_dropShadow_8941_133984" result="shape"></feBlend> </filter> <linearGradient id="paint0_linear_8941_133984" x1="216" y1="54" x2="216" y2="150" gradientUnits="userSpaceOnUse"> <stop stop-color="#F5F5F5"></stop> <stop offset="1" stop-color="#F5F5F5" stop-opacity="0"></stop> </linearGradient> <linearGradient id="paint1_linear_8941_133984" x1="216" y1="54" x2="216" y2="150" gradientUnits="userSpaceOnUse"> <stop stop-color="#EEEEEE" stop-opacity="0"></stop> <stop offset="1" stop-color="#F1F0F4"></stop> </linearGradient> </defs> </svg> 