<?xml version="1.0" encoding="UTF-8"?> <svg xmlns="http://www.w3.org/2000/svg" width="461" height="140" viewBox="0 0 461 140" fill="none"> <g clip-path="url(#clip0_8979_47871)"> <rect x="173.75" y="0.75" width="286.5" height="46.5" rx="7.25" fill="white" stroke="url(#paint0_linear_8979_47871)" stroke-width="1.5"></rect> <path d="M189.848 30.24C189.256 30.24 188.704 30.1173 188.192 29.872C187.685 29.6267 187.251 29.2907 186.888 28.864C186.531 28.432 186.275 27.936 186.12 27.376L187.488 27.008C187.584 27.3867 187.755 27.7147 188 27.992C188.245 28.264 188.531 28.4773 188.856 28.632C189.187 28.7813 189.531 28.856 189.888 28.856C190.357 28.856 190.779 28.744 191.152 28.52C191.531 28.2907 191.829 27.9893 192.048 27.616C192.267 27.2373 192.376 26.824 192.376 26.376C192.376 25.912 192.261 25.4933 192.032 25.12C191.808 24.7413 191.507 24.4427 191.128 24.224C190.749 24.0053 190.336 23.896 189.888 23.896C189.381 23.896 188.947 24.0027 188.584 24.216C188.227 24.424 187.944 24.68 187.736 24.984L186.472 24.504L186.824 18.48H193.008V19.832H187.512L188.144 19.24L187.848 24.064L187.536 23.656C187.856 23.3147 188.237 23.0507 188.68 22.864C189.128 22.6773 189.584 22.584 190.048 22.584C190.763 22.584 191.403 22.752 191.968 23.088C192.533 23.4187 192.981 23.872 193.312 24.448C193.643 25.0187 193.808 25.6613 193.808 26.376C193.808 27.0853 193.627 27.7333 193.264 28.32C192.901 28.9013 192.419 29.368 191.816 29.72C191.219 30.0667 190.563 30.24 189.848 30.24ZM201.599 30V27.88H196.303V26.528L200.103 18.48H201.719L197.919 26.528H201.599V23.288H203.039V26.528H204.239V27.88H203.039V30H201.599ZM209.973 30V18.48H214.461C215.149 18.48 215.736 18.6213 216.221 18.904C216.712 19.1867 217.085 19.56 217.341 20.024C217.603 20.4827 217.733 20.9787 217.733 21.512C217.733 22.136 217.573 22.6827 217.253 23.152C216.933 23.6213 216.501 23.944 215.957 24.12L215.941 23.728C216.683 23.9253 217.259 24.288 217.669 24.816C218.08 25.344 218.285 25.9733 218.285 26.704C218.285 27.376 218.147 27.9573 217.869 28.448C217.597 28.9387 217.203 29.32 216.685 29.592C216.173 29.864 215.565 30 214.861 30H209.973ZM211.413 28.64H214.589C215.016 28.64 215.397 28.5627 215.733 28.408C216.069 28.248 216.333 28.024 216.525 27.736C216.723 27.448 216.821 27.1013 216.821 26.696C216.821 26.3067 216.733 25.9573 216.557 25.648C216.387 25.3387 216.144 25.0933 215.829 24.912C215.52 24.7253 215.16 24.632 214.749 24.632H211.413V28.64ZM211.413 23.288H214.445C214.787 23.288 215.093 23.216 215.365 23.072C215.643 22.9227 215.861 22.7147 216.021 22.448C216.187 22.1813 216.269 21.8693 216.269 21.512C216.269 21.016 216.101 20.6107 215.765 20.296C215.429 19.9813 214.989 19.824 214.445 19.824H211.413V23.288ZM223.828 30.24C222.97 30.24 222.228 30.0453 221.604 29.656C220.986 29.2667 220.508 28.728 220.172 28.04C219.836 27.352 219.668 26.5627 219.668 25.672C219.668 24.7653 219.839 23.9707 220.18 23.288C220.522 22.6053 221.004 22.0747 221.628 21.696C222.252 21.312 222.986 21.12 223.828 21.12C224.692 21.12 225.436 21.3147 226.06 21.704C226.684 22.088 227.162 22.624 227.492 23.312C227.828 23.9947 227.996 24.7813 227.996 25.672C227.996 26.5733 227.828 27.368 227.492 28.056C227.156 28.7387 226.676 29.2747 226.052 29.664C225.428 30.048 224.687 30.24 223.828 30.24ZM223.828 28.888C224.724 28.888 225.391 28.5893 225.828 27.992C226.266 27.3947 226.484 26.6213 226.484 25.672C226.484 24.696 226.263 23.92 225.82 23.344C225.378 22.7627 224.714 22.472 223.828 22.472C223.226 22.472 222.73 22.608 222.34 22.88C221.951 23.152 221.66 23.528 221.468 24.008C221.276 24.488 221.18 25.0427 221.18 25.672C221.18 26.6427 221.404 27.4213 221.852 28.008C222.3 28.5947 222.959 28.888 223.828 28.888ZM236.179 30V25.672C236.179 25.2613 236.141 24.8667 236.067 24.488C235.997 24.1093 235.872 23.7707 235.691 23.472C235.515 23.168 235.275 22.928 234.971 22.752C234.672 22.576 234.293 22.488 233.835 22.488C233.477 22.488 233.152 22.5493 232.859 22.672C232.571 22.7893 232.323 22.9707 232.115 23.216C231.907 23.4613 231.744 23.7707 231.627 24.144C231.515 24.512 231.459 24.9467 231.459 25.448L230.523 25.16C230.523 24.3227 230.672 23.6053 230.971 23.008C231.275 22.4053 231.699 21.944 232.243 21.624C232.792 21.2987 233.437 21.136 234.179 21.136C234.739 21.136 235.216 21.224 235.611 21.4C236.005 21.576 236.333 21.8107 236.595 22.104C236.856 22.392 237.061 22.7173 237.211 23.08C237.36 23.4373 237.464 23.8027 237.523 24.176C237.587 24.544 237.619 24.8933 237.619 25.224V30H236.179ZM230.019 30V21.36H231.299V23.672H231.459V30H230.019ZM242.423 30.24C241.778 30.24 241.237 30.1227 240.799 29.888C240.367 29.648 240.039 29.3333 239.815 28.944C239.597 28.5547 239.487 28.128 239.487 27.664C239.487 27.2107 239.573 26.8187 239.743 26.488C239.919 26.152 240.165 25.8747 240.479 25.656C240.794 25.432 241.17 25.256 241.607 25.128C242.018 25.016 242.477 24.92 242.983 24.84C243.495 24.7547 244.013 24.6773 244.535 24.608C245.058 24.5387 245.546 24.472 245.999 24.408L245.487 24.704C245.503 23.936 245.349 23.368 245.023 23C244.703 22.632 244.149 22.448 243.359 22.448C242.837 22.448 242.378 22.568 241.983 22.808C241.594 23.0427 241.319 23.4267 241.159 23.96L239.807 23.552C240.015 22.7947 240.418 22.2 241.015 21.768C241.613 21.336 242.399 21.12 243.375 21.12C244.159 21.12 244.831 21.2613 245.391 21.544C245.957 21.8213 246.362 22.2427 246.607 22.808C246.73 23.0747 246.807 23.3653 246.839 23.68C246.871 23.9893 246.887 24.3147 246.887 24.656V30H245.623V27.928L245.919 28.12C245.594 28.8187 245.138 29.3467 244.551 29.704C243.97 30.0613 243.261 30.24 242.423 30.24ZM242.639 29.048C243.151 29.048 243.594 28.9573 243.967 28.776C244.346 28.5893 244.65 28.3467 244.879 28.048C245.109 27.744 245.258 27.4133 245.327 27.056C245.407 26.7893 245.45 26.4933 245.455 26.168C245.466 25.8373 245.471 25.584 245.471 25.408L245.967 25.624C245.503 25.688 245.047 25.7493 244.599 25.808C244.151 25.8667 243.727 25.9307 243.327 26C242.927 26.064 242.567 26.1413 242.247 26.232C242.013 26.3067 241.791 26.4027 241.583 26.52C241.381 26.6373 241.215 26.7893 241.087 26.976C240.965 27.1573 240.903 27.384 240.903 27.656C240.903 27.8907 240.962 28.1147 241.079 28.328C241.202 28.5413 241.389 28.7147 241.639 28.848C241.895 28.9813 242.229 29.048 242.639 29.048ZM249.396 19.832V18.36H250.82V19.832H249.396ZM249.396 30V21.36H250.82V30H249.396ZM253.489 30V21.36H254.761V23.448L254.553 23.176C254.654 22.9093 254.785 22.664 254.945 22.44C255.11 22.216 255.294 22.032 255.497 21.888C255.721 21.7067 255.974 21.568 256.257 21.472C256.54 21.376 256.828 21.32 257.121 21.304C257.414 21.2827 257.689 21.3013 257.945 21.36V22.696C257.646 22.616 257.318 22.5947 256.961 22.632C256.604 22.6693 256.273 22.8 255.969 23.024C255.692 23.2213 255.476 23.4613 255.321 23.744C255.172 24.0267 255.068 24.3333 255.009 24.664C254.95 24.9893 254.921 25.3227 254.921 25.664V30H253.489ZM267.287 30.24C266.471 30.24 265.735 30.1013 265.079 29.824C264.428 29.5467 263.889 29.152 263.463 28.64C263.041 28.1227 262.767 27.512 262.639 26.808L264.111 26.576C264.297 27.3013 264.684 27.8693 265.271 28.28C265.863 28.6853 266.559 28.888 267.359 28.888C267.876 28.888 268.343 28.808 268.759 28.648C269.18 28.4827 269.513 28.248 269.759 27.944C270.004 27.64 270.127 27.28 270.127 26.864C270.127 26.608 270.081 26.3893 269.991 26.208C269.905 26.0213 269.785 25.864 269.631 25.736C269.481 25.6027 269.311 25.4907 269.119 25.4C268.927 25.3093 268.727 25.2347 268.519 25.176L265.583 24.304C265.263 24.208 264.953 24.088 264.655 23.944C264.356 23.7947 264.089 23.6107 263.855 23.392C263.62 23.168 263.433 22.9013 263.295 22.592C263.156 22.2773 263.087 21.9067 263.087 21.48C263.087 20.7973 263.263 20.216 263.615 19.736C263.972 19.2507 264.455 18.88 265.063 18.624C265.671 18.368 266.356 18.2427 267.119 18.248C267.892 18.2533 268.583 18.392 269.191 18.664C269.804 18.9307 270.311 19.3147 270.711 19.816C271.116 20.3173 271.388 20.9173 271.527 21.616L270.015 21.88C269.935 21.4107 269.756 21.008 269.479 20.672C269.207 20.3307 268.865 20.0693 268.455 19.888C268.044 19.7013 267.593 19.6053 267.103 19.6C266.633 19.5947 266.209 19.6693 265.831 19.824C265.452 19.9787 265.151 20.1947 264.927 20.472C264.703 20.744 264.591 21.0587 264.591 21.416C264.591 21.768 264.692 22.0533 264.895 22.272C265.097 22.4853 265.345 22.656 265.639 22.784C265.937 22.9067 266.228 23.008 266.511 23.088L268.703 23.72C268.953 23.7893 269.241 23.8853 269.567 24.008C269.897 24.1307 270.217 24.304 270.527 24.528C270.836 24.7467 271.092 25.04 271.295 25.408C271.497 25.7707 271.599 26.2293 271.599 26.784C271.599 27.3387 271.487 27.832 271.263 28.264C271.044 28.696 270.737 29.0587 270.343 29.352C269.948 29.64 269.489 29.8587 268.967 30.008C268.444 30.1627 267.884 30.24 267.287 30.24ZM273.706 19.832V18.36H275.13V19.832H273.706ZM273.706 30V21.36H275.13V30H273.706ZM281.191 30.24C280.385 30.24 279.695 30.04 279.119 29.64C278.543 29.2347 278.097 28.688 277.783 28C277.473 27.312 277.319 26.536 277.319 25.672C277.319 24.808 277.473 24.032 277.783 23.344C278.097 22.656 278.543 22.1147 279.119 21.72C279.695 21.32 280.383 21.12 281.183 21.12C281.999 21.12 282.684 21.3173 283.239 21.712C283.793 22.1067 284.212 22.648 284.495 23.336C284.783 24.024 284.927 24.8027 284.927 25.672C284.927 26.5307 284.783 27.3067 284.495 28C284.212 28.688 283.793 29.2347 283.239 29.64C282.684 30.04 282.001 30.24 281.191 30.24ZM281.367 28.936C281.948 28.936 282.425 28.7973 282.799 28.52C283.172 28.2373 283.447 27.8507 283.623 27.36C283.804 26.864 283.895 26.3013 283.895 25.672C283.895 25.032 283.804 24.4693 283.623 23.984C283.447 23.4933 283.175 23.112 282.807 22.84C282.439 22.5627 281.972 22.424 281.407 22.424C280.82 22.424 280.335 22.568 279.951 22.856C279.572 23.144 279.289 23.5333 279.103 24.024C278.921 24.5147 278.831 25.064 278.831 25.672C278.831 26.2853 278.924 26.84 279.111 27.336C279.297 27.8267 279.577 28.216 279.951 28.504C280.329 28.792 280.801 28.936 281.367 28.936ZM283.895 30V23.64H283.735V18.48H285.167V30H283.895ZM287.837 19.832V18.36H289.261V19.832H287.837ZM287.837 30V21.36H289.261V30H287.837ZM298.082 30V25.672C298.082 25.2613 298.045 24.8667 297.97 24.488C297.901 24.1093 297.775 23.7707 297.594 23.472C297.418 23.168 297.178 22.928 296.874 22.752C296.575 22.576 296.197 22.488 295.738 22.488C295.381 22.488 295.055 22.5493 294.762 22.672C294.474 22.7893 294.226 22.9707 294.018 23.216C293.81 23.4613 293.647 23.7707 293.53 24.144C293.418 24.512 293.362 24.9467 293.362 25.448L292.426 25.16C292.426 24.3227 292.575 23.6053 292.874 23.008C293.178 22.4053 293.602 21.944 294.146 21.624C294.695 21.2987 295.341 21.136 296.082 21.136C296.642 21.136 297.119 21.224 297.514 21.4C297.909 21.576 298.237 21.8107 298.498 22.104C298.759 22.392 298.965 22.7173 299.114 23.08C299.263 23.4373 299.367 23.8027 299.426 24.176C299.49 24.544 299.522 24.8933 299.522 25.224V30H298.082ZM291.922 30V21.36H293.202V23.672H293.362V30H291.922ZM305.367 34.08C304.913 34.08 304.471 34.0107 304.039 33.872C303.607 33.7333 303.209 33.5227 302.847 33.24C302.489 32.9627 302.191 32.6107 301.951 32.184L303.255 31.496C303.468 31.9173 303.769 32.224 304.159 32.416C304.553 32.608 304.959 32.704 305.375 32.704C305.924 32.704 306.38 32.6027 306.743 32.4C307.105 32.2027 307.372 31.9067 307.543 31.512C307.719 31.1173 307.804 30.6267 307.799 30.04V27.68H307.967V21.36H309.231V30.056C309.231 30.2907 309.223 30.5173 309.207 30.736C309.196 30.9547 309.169 31.1707 309.127 31.384C309.015 31.9973 308.793 32.5013 308.463 32.896C308.132 33.296 307.705 33.592 307.183 33.784C306.66 33.9813 306.055 34.08 305.367 34.08ZM305.263 30.24C304.457 30.24 303.767 30.04 303.191 29.64C302.615 29.2347 302.169 28.688 301.855 28C301.545 27.312 301.391 26.536 301.391 25.672C301.391 24.808 301.545 24.032 301.855 23.344C302.169 22.656 302.615 22.1147 303.191 21.72C303.767 21.32 304.455 21.12 305.255 21.12C306.071 21.12 306.756 21.3173 307.311 21.712C307.865 22.1067 308.284 22.648 308.567 23.336C308.855 24.024 308.999 24.8027 308.999 25.672C308.999 26.5307 308.855 27.3067 308.567 28C308.284 28.688 307.865 29.2347 307.311 29.64C306.756 30.04 306.073 30.24 305.263 30.24ZM305.439 28.936C306.02 28.936 306.497 28.7973 306.871 28.52C307.244 28.2373 307.519 27.8507 307.695 27.36C307.876 26.864 307.967 26.3013 307.967 25.672C307.967 25.032 307.876 24.4693 307.695 23.984C307.519 23.4933 307.247 23.112 306.879 22.84C306.511 22.5627 306.044 22.424 305.479 22.424C304.892 22.424 304.407 22.568 304.023 22.856C303.644 23.144 303.361 23.5333 303.175 24.024C302.993 24.5147 302.903 25.064 302.903 25.672C302.903 26.2853 302.996 26.84 303.183 27.336C303.369 27.8267 303.649 28.216 304.023 28.504C304.401 28.792 304.873 28.936 305.439 28.936ZM315.205 30V18.48H319.757C319.869 18.48 320.003 18.4853 320.157 18.496C320.312 18.5013 320.461 18.5173 320.605 18.544C321.229 18.64 321.752 18.8533 322.173 19.184C322.6 19.5147 322.92 19.9333 323.133 20.44C323.347 20.9413 323.453 21.4987 323.453 22.112C323.453 23.0027 323.221 23.776 322.757 24.432C322.293 25.0827 321.613 25.4907 320.717 25.656L320.173 25.744H316.629V30H315.205ZM322.061 30L319.789 25.312L321.197 24.88L323.693 30H322.061ZM316.629 24.392H319.709C319.811 24.392 319.925 24.3867 320.053 24.376C320.187 24.3653 320.312 24.3467 320.429 24.32C320.797 24.2347 321.096 24.08 321.325 23.856C321.56 23.6267 321.731 23.36 321.837 23.056C321.944 22.7467 321.997 22.432 321.997 22.112C321.997 21.792 321.944 21.48 321.837 21.176C321.731 20.8667 321.56 20.5973 321.325 20.368C321.096 20.1387 320.797 19.984 320.429 19.904C320.312 19.872 320.187 19.8533 320.053 19.848C319.925 19.8373 319.811 19.832 319.709 19.832H316.629V24.392ZM329.116 30.24C328.311 30.24 327.62 30.04 327.044 29.64C326.468 29.2347 326.023 28.688 325.708 28C325.399 27.312 325.244 26.536 325.244 25.672C325.244 24.808 325.399 24.032 325.708 23.344C326.023 22.656 326.468 22.1147 327.044 21.72C327.62 21.32 328.308 21.12 329.108 21.12C329.924 21.12 330.609 21.3173 331.164 21.712C331.719 22.1067 332.137 22.648 332.42 23.336C332.708 24.024 332.852 24.8027 332.852 25.672C332.852 26.5307 332.708 27.3067 332.42 28C332.137 28.688 331.719 29.2347 331.164 29.64C330.609 30.04 329.927 30.24 329.116 30.24ZM329.292 28.936C329.873 28.936 330.351 28.7973 330.724 28.52C331.097 28.2373 331.372 27.8507 331.548 27.36C331.729 26.864 331.82 26.3013 331.82 25.672C331.82 25.032 331.729 24.4693 331.548 23.984C331.372 23.4933 331.1 23.112 330.732 22.84C330.364 22.5627 329.897 22.424 329.332 22.424C328.745 22.424 328.26 22.568 327.876 22.856C327.497 23.144 327.215 23.5333 327.028 24.024C326.847 24.5147 326.756 25.064 326.756 25.672C326.756 26.2853 326.849 26.84 327.036 27.336C327.223 27.8267 327.503 28.216 327.876 28.504C328.255 28.792 328.727 28.936 329.292 28.936ZM331.82 30V23.64H331.66V18.48H333.092V30H331.82ZM335.442 31.792L335.53 31.128C335.754 31.144 335.922 31.1013 336.034 31C336.146 30.8987 336.218 30.76 336.25 30.584C336.282 30.408 336.288 30.2133 336.266 30H335.442V28.192H337.01V30.24C337.01 30.8 336.872 31.2213 336.594 31.504C336.322 31.7867 335.938 31.8827 335.442 31.792ZM347.884 30.24C347.068 30.24 346.332 30.1013 345.676 29.824C345.025 29.5467 344.487 29.152 344.06 28.64C343.639 28.1227 343.364 27.512 343.236 26.808L344.708 26.576C344.895 27.3013 345.281 27.8693 345.868 28.28C346.46 28.6853 347.156 28.888 347.956 28.888C348.473 28.888 348.94 28.808 349.356 28.648C349.777 28.4827 350.111 28.248 350.356 27.944C350.601 27.64 350.724 27.28 350.724 26.864C350.724 26.608 350.679 26.3893 350.588 26.208C350.503 26.0213 350.383 25.864 350.228 25.736C350.079 25.6027 349.908 25.4907 349.716 25.4C349.524 25.3093 349.324 25.2347 349.116 25.176L346.18 24.304C345.86 24.208 345.551 24.088 345.252 23.944C344.953 23.7947 344.687 23.6107 344.452 23.392C344.217 23.168 344.031 22.9013 343.892 22.592C343.753 22.2773 343.684 21.9067 343.684 21.48C343.684 20.7973 343.86 20.216 344.212 19.736C344.569 19.2507 345.052 18.88 345.66 18.624C346.268 18.368 346.953 18.2427 347.716 18.248C348.489 18.2533 349.18 18.392 349.788 18.664C350.401 18.9307 350.908 19.3147 351.308 19.816C351.713 20.3173 351.985 20.9173 352.124 21.616L350.612 21.88C350.532 21.4107 350.353 21.008 350.076 20.672C349.804 20.3307 349.463 20.0693 349.052 19.888C348.641 19.7013 348.191 19.6053 347.7 19.6C347.231 19.5947 346.807 19.6693 346.428 19.824C346.049 19.9787 345.748 20.1947 345.524 20.472C345.3 20.744 345.188 21.0587 345.188 21.416C345.188 21.768 345.289 22.0533 345.492 22.272C345.695 22.4853 345.943 22.656 346.236 22.784C346.535 22.9067 346.825 23.008 347.108 23.088L349.3 23.72C349.551 23.7893 349.839 23.8853 350.164 24.008C350.495 24.1307 350.815 24.304 351.124 24.528C351.433 24.7467 351.689 25.04 351.892 25.408C352.095 25.7707 352.196 26.2293 352.196 26.784C352.196 27.3387 352.084 27.832 351.86 28.264C351.641 28.696 351.335 29.0587 350.94 29.352C350.545 29.64 350.087 29.8587 349.564 30.008C349.041 30.1627 348.481 30.24 347.884 30.24ZM358.967 30C358.455 30.1013 357.948 30.1413 357.447 30.12C356.951 30.104 356.508 30.0053 356.119 29.824C355.73 29.6373 355.434 29.3493 355.231 28.96C355.06 28.6187 354.967 28.2747 354.951 27.928C354.94 27.576 354.935 27.1787 354.935 26.736V18.96H356.359V26.672C356.359 27.024 356.362 27.3253 356.367 27.576C356.378 27.8267 356.434 28.0427 356.535 28.224C356.727 28.5653 357.031 28.7653 357.447 28.824C357.868 28.8827 358.375 28.8667 358.967 28.776V30ZM353.183 22.536V21.36H358.967V22.536H353.183ZM363.446 30.24C362.801 30.24 362.259 30.1227 361.822 29.888C361.39 29.648 361.062 29.3333 360.838 28.944C360.619 28.5547 360.51 28.128 360.51 27.664C360.51 27.2107 360.595 26.8187 360.766 26.488C360.942 26.152 361.187 25.8747 361.502 25.656C361.817 25.432 362.193 25.256 362.63 25.128C363.041 25.016 363.499 24.92 364.006 24.84C364.518 24.7547 365.035 24.6773 365.558 24.608C366.081 24.5387 366.569 24.472 367.022 24.408L366.51 24.704C366.526 23.936 366.371 23.368 366.046 23C365.726 22.632 365.171 22.448 364.382 22.448C363.859 22.448 363.401 22.568 363.006 22.808C362.617 23.0427 362.342 23.4267 362.182 23.96L360.83 23.552C361.038 22.7947 361.441 22.2 362.038 21.768C362.635 21.336 363.422 21.12 364.398 21.12C365.182 21.12 365.854 21.2613 366.414 21.544C366.979 21.8213 367.385 22.2427 367.63 22.808C367.753 23.0747 367.83 23.3653 367.862 23.68C367.894 23.9893 367.91 24.3147 367.91 24.656V30H366.646V27.928L366.942 28.12C366.617 28.8187 366.161 29.3467 365.574 29.704C364.993 30.0613 364.283 30.24 363.446 30.24ZM363.662 29.048C364.174 29.048 364.617 28.9573 364.99 28.776C365.369 28.5893 365.673 28.3467 365.902 28.048C366.131 27.744 366.281 27.4133 366.35 27.056C366.43 26.7893 366.473 26.4933 366.478 26.168C366.489 25.8373 366.494 25.584 366.494 25.408L366.99 25.624C366.526 25.688 366.07 25.7493 365.622 25.808C365.174 25.8667 364.75 25.9307 364.35 26C363.95 26.064 363.59 26.1413 363.27 26.232C363.035 26.3067 362.814 26.4027 362.606 26.52C362.403 26.6373 362.238 26.7893 362.11 26.976C361.987 27.1573 361.926 27.384 361.926 27.656C361.926 27.8907 361.985 28.1147 362.102 28.328C362.225 28.5413 362.411 28.7147 362.662 28.848C362.918 28.9813 363.251 29.048 363.662 29.048ZM376.411 30V25.672C376.411 25.2613 376.373 24.8667 376.299 24.488C376.229 24.1093 376.104 23.7707 375.923 23.472C375.747 23.168 375.507 22.928 375.203 22.752C374.904 22.576 374.525 22.488 374.067 22.488C373.709 22.488 373.384 22.5493 373.091 22.672C372.803 22.7893 372.555 22.9707 372.347 23.216C372.139 23.4613 371.976 23.7707 371.859 24.144C371.747 24.512 371.691 24.9467 371.691 25.448L370.755 25.16C370.755 24.3227 370.904 23.6053 371.203 23.008C371.507 22.4053 371.931 21.944 372.475 21.624C373.024 21.2987 373.669 21.136 374.411 21.136C374.971 21.136 375.448 21.224 375.843 21.4C376.237 21.576 376.565 21.8107 376.827 22.104C377.088 22.392 377.293 22.7173 377.443 23.08C377.592 23.4373 377.696 23.8027 377.755 24.176C377.819 24.544 377.851 24.8933 377.851 25.224V30H376.411ZM370.251 30V21.36H371.531V23.672H371.691V30H370.251ZM381.023 30V20.888C381.023 20.664 381.034 20.4373 381.055 20.208C381.077 19.9733 381.125 19.7467 381.199 19.528C381.274 19.304 381.397 19.0987 381.567 18.912C381.765 18.6933 381.981 18.5387 382.215 18.448C382.45 18.352 382.687 18.2933 382.927 18.272C383.173 18.2507 383.405 18.24 383.623 18.24H384.719V19.424H383.703C383.282 19.424 382.967 19.528 382.759 19.736C382.551 19.9387 382.447 20.248 382.447 20.664V30H381.023ZM379.559 22.536V21.36H384.719V22.536H379.559ZM389.633 30.24C388.774 30.24 388.033 30.0453 387.409 29.656C386.79 29.2667 386.313 28.728 385.977 28.04C385.641 27.352 385.473 26.5627 385.473 25.672C385.473 24.7653 385.643 23.9707 385.985 23.288C386.326 22.6053 386.809 22.0747 387.433 21.696C388.057 21.312 388.79 21.12 389.633 21.12C390.497 21.12 391.241 21.3147 391.865 21.704C392.489 22.088 392.966 22.624 393.297 23.312C393.633 23.9947 393.801 24.7813 393.801 25.672C393.801 26.5733 393.633 27.368 393.297 28.056C392.961 28.7387 392.481 29.2747 391.857 29.664C391.233 30.048 390.491 30.24 389.633 30.24ZM389.633 28.888C390.529 28.888 391.195 28.5893 391.633 27.992C392.07 27.3947 392.289 26.6213 392.289 25.672C392.289 24.696 392.067 23.92 391.625 23.344C391.182 22.7627 390.518 22.472 389.633 22.472C389.03 22.472 388.534 22.608 388.145 22.88C387.755 23.152 387.465 23.528 387.273 24.008C387.081 24.488 386.985 25.0427 386.985 25.672C386.985 26.6427 387.209 27.4213 387.657 28.008C388.105 28.5947 388.763 28.888 389.633 28.888ZM395.831 30V21.36H397.103V23.448L396.895 23.176C396.996 22.9093 397.127 22.664 397.287 22.44C397.452 22.216 397.636 22.032 397.839 21.888C398.063 21.7067 398.316 21.568 398.599 21.472C398.881 21.376 399.169 21.32 399.463 21.304C399.756 21.2827 400.031 21.3013 400.287 21.36V22.696C399.988 22.616 399.66 22.5947 399.303 22.632C398.945 22.6693 398.615 22.8 398.311 23.024C398.033 23.2213 397.817 23.4613 397.663 23.744C397.513 24.0267 397.409 24.3333 397.351 24.664C397.292 24.9893 397.263 25.3227 397.263 25.664V30H395.831ZM405.304 30.24C404.499 30.24 403.808 30.04 403.232 29.64C402.656 29.2347 402.211 28.688 401.896 28C401.587 27.312 401.432 26.536 401.432 25.672C401.432 24.808 401.587 24.032 401.896 23.344C402.211 22.656 402.656 22.1147 403.232 21.72C403.808 21.32 404.496 21.12 405.296 21.12C406.112 21.12 406.797 21.3173 407.352 21.712C407.907 22.1067 408.325 22.648 408.608 23.336C408.896 24.024 409.04 24.8027 409.04 25.672C409.04 26.5307 408.896 27.3067 408.608 28C408.325 28.688 407.907 29.2347 407.352 29.64C406.797 30.04 406.115 30.24 405.304 30.24ZM405.48 28.936C406.061 28.936 406.539 28.7973 406.912 28.52C407.285 28.2373 407.56 27.8507 407.736 27.36C407.917 26.864 408.008 26.3013 408.008 25.672C408.008 25.032 407.917 24.4693 407.736 23.984C407.56 23.4933 407.288 23.112 406.92 22.84C406.552 22.5627 406.085 22.424 405.52 22.424C404.933 22.424 404.448 22.568 404.064 22.856C403.685 23.144 403.403 23.5333 403.216 24.024C403.035 24.5147 402.944 25.064 402.944 25.672C402.944 26.2853 403.037 26.84 403.224 27.336C403.411 27.8267 403.691 28.216 404.064 28.504C404.443 28.792 404.915 28.936 405.48 28.936ZM408.008 30V23.64H407.848V18.48H409.28V30H408.008Z" fill="black"></path> <g filter="url(#filter0_dd_8979_47871)"> <path d="M435.983 28.1834L431.317 23.5166L429.667 25.1665L435.983 31.4832L448.817 18.6499L447.167 17L435.983 28.1834Z" fill="#1F8B24"></path> </g> <g filter="url(#filter1_i_8979_47871)"> <rect x="173" y="64" width="288" height="48" rx="8" fill="url(#paint1_linear_8979_47871)"></rect> </g> <g filter="url(#filter2_d_8979_47871)"> <path d="M189.184 94.5V84.108H185.16V82.98H194.384V84.108H190.36V94.5H189.184ZM198.262 94.74C197.404 94.74 196.67 94.5453 196.062 94.156C195.454 93.7667 194.988 93.228 194.662 92.54C194.337 91.852 194.174 91.0627 194.174 90.172C194.174 89.2653 194.34 88.4707 194.67 87.788C195.001 87.1053 195.47 86.5747 196.078 86.196C196.692 85.812 197.42 85.62 198.262 85.62C199.126 85.62 199.862 85.8147 200.47 86.204C201.084 86.588 201.55 87.124 201.87 87.812C202.196 88.4947 202.358 89.2813 202.358 90.172C202.358 91.0787 202.196 91.876 201.87 92.564C201.545 93.2467 201.076 93.78 200.462 94.164C199.849 94.548 199.116 94.74 198.262 94.74ZM198.262 93.612C199.222 93.612 199.937 93.2947 200.406 92.66C200.876 92.02 201.11 91.1907 201.11 90.172C201.11 89.1267 200.873 88.2947 200.398 87.676C199.929 87.0573 199.217 86.748 198.262 86.748C197.617 86.748 197.084 86.8947 196.662 87.188C196.246 87.476 195.934 87.8787 195.726 88.396C195.524 88.908 195.422 89.5 195.422 90.172C195.422 91.212 195.662 92.0467 196.142 92.676C196.622 93.3 197.329 93.612 198.262 93.612ZM211.088 94.732C210.075 94.732 209.24 94.5133 208.584 94.076C207.933 93.6387 207.533 93.0307 207.384 92.252L208.584 92.052C208.712 92.5427 209.003 92.9347 209.456 93.228C209.915 93.516 210.48 93.66 211.152 93.66C211.808 93.66 212.325 93.524 212.704 93.252C213.083 92.9747 213.272 92.5987 213.272 92.124C213.272 91.8573 213.211 91.6413 213.088 91.476C212.971 91.3053 212.728 91.148 212.36 91.004C211.992 90.86 211.443 90.6893 210.712 90.492C209.928 90.2787 209.315 90.0653 208.872 89.852C208.429 89.6387 208.115 89.3933 207.928 89.116C207.741 88.8333 207.648 88.4893 207.648 88.084C207.648 87.5933 207.787 87.164 208.064 86.796C208.341 86.4227 208.725 86.1347 209.216 85.932C209.707 85.724 210.277 85.62 210.928 85.62C211.579 85.62 212.16 85.7267 212.672 85.94C213.189 86.148 213.605 86.4413 213.92 86.82C214.235 87.1987 214.421 87.6387 214.48 88.14L213.28 88.356C213.2 87.8493 212.947 87.4493 212.52 87.156C212.099 86.8573 211.563 86.7027 210.912 86.692C210.299 86.676 209.8 86.7933 209.416 87.044C209.032 87.2893 208.84 87.6173 208.84 88.028C208.84 88.2573 208.909 88.4547 209.048 88.62C209.187 88.78 209.437 88.932 209.8 89.076C210.168 89.22 210.691 89.3773 211.368 89.548C212.163 89.7507 212.787 89.964 213.24 90.188C213.693 90.412 214.016 90.676 214.208 90.98C214.4 91.284 214.496 91.66 214.496 92.108C214.496 92.924 214.192 93.5667 213.584 94.036C212.981 94.5 212.149 94.732 211.088 94.732ZM222.779 94.5V90.092C222.779 89.612 222.734 89.172 222.643 88.772C222.552 88.3667 222.406 88.0147 222.203 87.716C222.006 87.412 221.747 87.1773 221.427 87.012C221.112 86.8467 220.728 86.764 220.275 86.764C219.859 86.764 219.491 86.836 219.171 86.98C218.856 87.124 218.59 87.332 218.371 87.604C218.158 87.8707 217.995 88.196 217.883 88.58C217.771 88.964 217.715 89.4013 217.715 89.892L216.883 89.708C216.883 88.8227 217.038 88.0787 217.347 87.476C217.656 86.8733 218.083 86.4173 218.627 86.108C219.171 85.7987 219.795 85.644 220.499 85.644C221.016 85.644 221.467 85.724 221.851 85.884C222.24 86.044 222.568 86.26 222.835 86.532C223.107 86.804 223.326 87.116 223.491 87.468C223.656 87.8147 223.776 88.1853 223.851 88.58C223.926 88.9693 223.963 89.3587 223.963 89.748V94.5H222.779ZM216.531 94.5V82.98H217.595V89.484H217.715V94.5H216.531ZM226.468 84.22V82.9H227.644V84.22H226.468ZM226.468 94.5V85.86H227.644V94.5H226.468ZM234.191 94.74C233.396 94.74 232.724 94.54 232.175 94.14C231.626 93.7347 231.21 93.188 230.927 92.5C230.644 91.8067 230.503 91.0307 230.503 90.172C230.503 89.2973 230.644 88.5187 230.927 87.836C231.215 87.148 231.636 86.6067 232.191 86.212C232.746 85.8173 233.428 85.62 234.239 85.62C235.028 85.62 235.706 85.82 236.271 86.22C236.836 86.62 237.268 87.164 237.567 87.852C237.871 88.54 238.023 89.3133 238.023 90.172C238.023 91.036 237.871 91.812 237.567 92.5C237.263 93.188 236.826 93.7347 236.255 94.14C235.684 94.54 234.996 94.74 234.191 94.74ZM230.303 98.34V85.86H231.359V92.364H231.487V98.34H230.303ZM234.071 93.644C234.674 93.644 235.175 93.492 235.575 93.188C235.975 92.884 236.274 92.4707 236.471 91.948C236.674 91.42 236.775 90.828 236.775 90.172C236.775 89.5213 236.676 88.9347 236.479 88.412C236.282 87.8893 235.98 87.476 235.575 87.172C235.175 86.868 234.666 86.716 234.047 86.716C233.444 86.716 232.943 86.8627 232.543 87.156C232.148 87.4493 231.852 87.8573 231.655 88.38C231.458 88.8973 231.359 89.4947 231.359 90.172C231.359 90.8387 231.458 91.436 231.655 91.964C231.852 92.4867 232.151 92.8973 232.551 93.196C232.951 93.4947 233.458 93.644 234.071 93.644ZM244.752 98.34L246.424 93.804L246.448 95.148L242.664 85.86H243.912L247.016 93.628H246.504L249.368 85.86H250.568L245.928 98.34H244.752ZM255.522 94.74C254.664 94.74 253.93 94.5453 253.322 94.156C252.714 93.7667 252.248 93.228 251.922 92.54C251.597 91.852 251.434 91.0627 251.434 90.172C251.434 89.2653 251.6 88.4707 251.93 87.788C252.261 87.1053 252.73 86.5747 253.338 86.196C253.952 85.812 254.68 85.62 255.522 85.62C256.386 85.62 257.122 85.8147 257.73 86.204C258.344 86.588 258.81 87.124 259.13 87.812C259.456 88.4947 259.618 89.2813 259.618 90.172C259.618 91.0787 259.456 91.876 259.13 92.564C258.805 93.2467 258.336 93.78 257.722 94.164C257.109 94.548 256.376 94.74 255.522 94.74ZM255.522 93.612C256.482 93.612 257.197 93.2947 257.666 92.66C258.136 92.02 258.37 91.1907 258.37 90.172C258.37 89.1267 258.133 88.2947 257.658 87.676C257.189 87.0573 256.477 86.748 255.522 86.748C254.877 86.748 254.344 86.8947 253.922 87.188C253.506 87.476 253.194 87.8787 252.986 88.396C252.784 88.908 252.682 89.5 252.682 90.172C252.682 91.212 252.922 92.0467 253.402 92.676C253.882 93.3 254.589 93.612 255.522 93.612ZM264.956 94.716C264.438 94.716 263.985 94.636 263.596 94.476C263.212 94.316 262.884 94.1 262.612 93.828C262.345 93.556 262.129 93.2467 261.964 92.9C261.798 92.548 261.678 92.1773 261.604 91.788C261.529 91.3933 261.492 91.0013 261.492 90.612V85.86H262.676V90.268C262.676 90.7427 262.721 91.1827 262.812 91.588C262.902 91.9933 263.046 92.348 263.244 92.652C263.446 92.9507 263.705 93.1827 264.02 93.348C264.34 93.5133 264.726 93.596 265.18 93.596C265.596 93.596 265.961 93.524 266.276 93.38C266.596 93.236 266.862 93.0307 267.076 92.764C267.294 92.492 267.46 92.164 267.572 91.78C267.684 91.3907 267.74 90.9533 267.74 90.468L268.572 90.652C268.572 91.5373 268.417 92.2813 268.108 92.884C267.798 93.4867 267.372 93.9427 266.828 94.252C266.284 94.5613 265.66 94.716 264.956 94.716ZM267.86 94.5V92.372H267.74V85.86H268.916V94.5H267.86ZM271.421 94.5V85.86H272.477V87.94L272.269 87.668C272.365 87.412 272.49 87.1773 272.645 86.964C272.799 86.7453 272.967 86.5667 273.149 86.428C273.373 86.2307 273.634 86.0813 273.933 85.98C274.231 85.8733 274.533 85.812 274.837 85.796C275.141 85.7747 275.418 85.796 275.669 85.86V86.964C275.354 86.884 275.01 86.8653 274.637 86.908C274.263 86.9507 273.919 87.1 273.605 87.356C273.317 87.58 273.101 87.8493 272.957 88.164C272.813 88.4733 272.717 88.804 272.669 89.156C272.621 89.5027 272.597 89.8467 272.597 90.188V94.5H271.421ZM281.087 84.22V82.9H282.263V84.22H281.087ZM281.087 94.5V85.86H282.263V94.5H281.087ZM289.634 94.5C289.149 94.6013 288.669 94.6413 288.194 94.62C287.725 94.5987 287.303 94.4973 286.93 94.316C286.562 94.1347 286.282 93.852 286.09 93.468C285.935 93.148 285.85 92.8253 285.834 92.5C285.823 92.1693 285.818 91.7933 285.818 91.372V83.46H286.986V91.324C286.986 91.6867 286.989 91.9907 286.994 92.236C287.005 92.476 287.061 92.6893 287.162 92.876C287.354 93.2333 287.658 93.4467 288.074 93.516C288.495 93.5853 289.015 93.5693 289.634 93.468V94.5ZM283.97 86.868V85.86H289.634V86.868H283.97ZM294.949 94.74C294.106 94.74 293.375 94.5533 292.757 94.18C292.143 93.8067 291.666 93.2813 291.325 92.604C290.983 91.9267 290.813 91.132 290.813 90.22C290.813 89.276 290.981 88.46 291.317 87.772C291.653 87.084 292.125 86.5533 292.733 86.18C293.346 85.8067 294.069 85.62 294.901 85.62C295.754 85.62 296.482 85.8173 297.085 86.212C297.687 86.6013 298.143 87.1613 298.453 87.892C298.762 88.6227 298.903 89.4947 298.877 90.508H297.677V90.092C297.655 88.972 297.413 88.1267 296.949 87.556C296.49 86.9853 295.818 86.7 294.933 86.7C294.005 86.7 293.293 87.0013 292.797 87.604C292.306 88.2067 292.061 89.0653 292.061 90.18C292.061 91.268 292.306 92.1133 292.797 92.716C293.293 93.3133 293.994 93.612 294.901 93.612C295.519 93.612 296.058 93.4707 296.517 93.188C296.981 92.9 297.346 92.4867 297.613 91.948L298.709 92.372C298.367 93.124 297.863 93.708 297.197 94.124C296.535 94.5347 295.786 94.74 294.949 94.74ZM291.645 90.508V89.524H298.245V90.508H291.645ZM310.99 94.5L310.998 88.828C310.998 88.1613 310.812 87.6387 310.438 87.26C310.07 86.876 309.601 86.684 309.03 86.684C308.705 86.684 308.388 86.7587 308.078 86.908C307.769 87.0573 307.513 87.2973 307.31 87.628C307.113 87.9587 307.014 88.3907 307.014 88.924L306.318 88.724C306.302 88.1053 306.422 87.564 306.678 87.1C306.94 86.636 307.297 86.276 307.75 86.02C308.209 85.7587 308.726 85.628 309.302 85.628C310.172 85.628 310.868 85.8973 311.39 86.436C311.913 86.9693 312.174 87.692 312.174 88.604L312.166 94.5H310.99ZM300.678 94.5V85.86H301.734V87.988H301.862V94.5H300.678ZM305.846 94.5L305.854 88.908C305.854 88.22 305.67 87.6787 305.302 87.284C304.94 86.884 304.46 86.684 303.862 86.684C303.265 86.684 302.782 86.8893 302.414 87.3C302.046 87.7053 301.862 88.2467 301.862 88.924L301.158 88.54C301.158 87.9853 301.289 87.4893 301.55 87.052C301.812 86.6093 302.169 86.2627 302.622 86.012C303.076 85.756 303.59 85.628 304.166 85.628C304.716 85.628 305.204 85.7453 305.63 85.98C306.062 86.2147 306.401 86.556 306.646 87.004C306.892 87.452 307.014 87.996 307.014 88.636L307.006 94.5H305.846ZM317.742 94.732C316.728 94.732 315.894 94.5133 315.238 94.076C314.587 93.6387 314.187 93.0307 314.038 92.252L315.238 92.052C315.366 92.5427 315.656 92.9347 316.11 93.228C316.568 93.516 317.134 93.66 317.806 93.66C318.462 93.66 318.979 93.524 319.358 93.252C319.736 92.9747 319.926 92.5987 319.926 92.124C319.926 91.8573 319.864 91.6413 319.742 91.476C319.624 91.3053 319.382 91.148 319.014 91.004C318.646 90.86 318.096 90.6893 317.366 90.492C316.582 90.2787 315.968 90.0653 315.526 89.852C315.083 89.6387 314.768 89.3933 314.582 89.116C314.395 88.8333 314.302 88.4893 314.302 88.084C314.302 87.5933 314.44 87.164 314.718 86.796C314.995 86.4227 315.379 86.1347 315.87 85.932C316.36 85.724 316.931 85.62 317.582 85.62C318.232 85.62 318.814 85.7267 319.326 85.94C319.843 86.148 320.259 86.4413 320.574 86.82C320.888 87.1987 321.075 87.6387 321.134 88.14L319.934 88.356C319.854 87.8493 319.6 87.4493 319.174 87.156C318.752 86.8573 318.216 86.7027 317.566 86.692C316.952 86.676 316.454 86.7933 316.07 87.044C315.686 87.2893 315.494 87.6173 315.494 88.028C315.494 88.2573 315.563 88.4547 315.702 88.62C315.84 88.78 316.091 88.932 316.454 89.076C316.822 89.22 317.344 89.3773 318.022 89.548C318.816 89.7507 319.44 89.964 319.894 90.188C320.347 90.412 320.67 90.676 320.862 90.98C321.054 91.284 321.15 91.66 321.15 92.108C321.15 92.924 320.846 93.5667 320.238 94.036C319.635 94.5 318.803 94.732 317.742 94.732ZM331.369 94.5C330.883 94.6013 330.403 94.6413 329.929 94.62C329.459 94.5987 329.038 94.4973 328.665 94.316C328.297 94.1347 328.017 93.852 327.825 93.468C327.67 93.148 327.585 92.8253 327.569 92.5C327.558 92.1693 327.553 91.7933 327.553 91.372V83.46H328.721V91.324C328.721 91.6867 328.723 91.9907 328.729 92.236C328.739 92.476 328.795 92.6893 328.897 92.876C329.089 93.2333 329.393 93.4467 329.809 93.516C330.23 93.5853 330.75 93.5693 331.369 93.468V94.5ZM325.705 86.868V85.86H331.369V86.868H325.705ZM339.58 94.5V90.092C339.58 89.612 339.534 89.172 339.444 88.772C339.353 88.3667 339.206 88.0147 339.004 87.716C338.806 87.412 338.548 87.1773 338.228 87.012C337.913 86.8467 337.529 86.764 337.076 86.764C336.66 86.764 336.292 86.836 335.972 86.98C335.657 87.124 335.39 87.332 335.172 87.604C334.958 87.8707 334.796 88.196 334.684 88.58C334.572 88.964 334.516 89.4013 334.516 89.892L333.684 89.708C333.684 88.8227 333.838 88.0787 334.148 87.476C334.457 86.8733 334.884 86.4173 335.428 86.108C335.972 85.7987 336.596 85.644 337.3 85.644C337.817 85.644 338.268 85.724 338.652 85.884C339.041 86.044 339.369 86.26 339.636 86.532C339.908 86.804 340.126 87.116 340.292 87.468C340.457 87.8147 340.577 88.1853 340.652 88.58C340.726 88.9693 340.764 89.3587 340.764 89.748V94.5H339.58ZM333.332 94.5V82.98H334.396V89.484H334.516V94.5H333.332ZM346.765 94.74C345.922 94.74 345.191 94.5533 344.573 94.18C343.959 93.8067 343.482 93.2813 343.141 92.604C342.799 91.9267 342.629 91.132 342.629 90.22C342.629 89.276 342.797 88.46 343.133 87.772C343.469 87.084 343.941 86.5533 344.549 86.18C345.162 85.8067 345.885 85.62 346.717 85.62C347.57 85.62 348.298 85.8173 348.901 86.212C349.503 86.6013 349.959 87.1613 350.269 87.892C350.578 88.6227 350.719 89.4947 350.693 90.508H349.493V90.092C349.471 88.972 349.229 88.1267 348.765 87.556C348.306 86.9853 347.634 86.7 346.749 86.7C345.821 86.7 345.109 87.0013 344.613 87.604C344.122 88.2067 343.877 89.0653 343.877 90.18C343.877 91.268 344.122 92.1133 344.613 92.716C345.109 93.3133 345.81 93.612 346.717 93.612C347.335 93.612 347.874 93.4707 348.333 93.188C348.797 92.9 349.162 92.4867 349.429 91.948L350.525 92.372C350.183 93.124 349.679 93.708 349.013 94.124C348.351 94.5347 347.602 94.74 346.765 94.74ZM343.461 90.508V89.524H350.061V90.508H343.461ZM352.737 94.5V85.86H353.793V87.94L353.585 87.668C353.681 87.412 353.806 87.1773 353.961 86.964C354.115 86.7453 354.283 86.5667 354.465 86.428C354.689 86.2307 354.95 86.0813 355.249 85.98C355.547 85.8733 355.849 85.812 356.153 85.796C356.457 85.7747 356.734 85.796 356.985 85.86V86.964C356.67 86.884 356.326 86.8653 355.953 86.908C355.579 86.9507 355.235 87.1 354.921 87.356C354.633 87.58 354.417 87.8493 354.273 88.164C354.129 88.4733 354.033 88.804 353.985 89.156C353.937 89.5027 353.913 89.8467 353.913 90.188V94.5H352.737ZM362.271 94.74C361.428 94.74 360.698 94.5533 360.079 94.18C359.466 93.8067 358.988 93.2813 358.647 92.604C358.306 91.9267 358.135 91.132 358.135 90.22C358.135 89.276 358.303 88.46 358.639 87.772C358.975 87.084 359.447 86.5533 360.055 86.18C360.668 85.8067 361.391 85.62 362.223 85.62C363.076 85.62 363.804 85.8173 364.407 86.212C365.01 86.6013 365.466 87.1613 365.775 87.892C366.084 88.6227 366.226 89.4947 366.199 90.508H364.999V90.092C364.978 88.972 364.735 88.1267 364.271 87.556C363.812 86.9853 363.14 86.7 362.255 86.7C361.327 86.7 360.615 87.0013 360.119 87.604C359.628 88.2067 359.383 89.0653 359.383 90.18C359.383 91.268 359.628 92.1133 360.119 92.716C360.615 93.3133 361.316 93.612 362.223 93.612C362.842 93.612 363.38 93.4707 363.839 93.188C364.303 92.9 364.668 92.4867 364.935 91.948L366.031 92.372C365.69 93.124 365.186 93.708 364.519 94.124C363.858 94.5347 363.108 94.74 362.271 94.74ZM358.967 90.508V89.524H365.567V90.508H358.967Z" fill="#818181"></path> </g> <path d="M21.4 31V16.6H22.87V23.09H30.83V16.6H32.29V31H30.83V24.5H22.87V31H21.4ZM39.9374 31.3C38.8641 31.3 37.9474 31.0567 37.1874 30.57C36.4274 30.0833 35.8441 29.41 35.4374 28.55C35.0307 27.69 34.8274 26.7033 34.8274 25.59C34.8274 24.4567 35.0341 23.4633 35.4474 22.61C35.8607 21.7567 36.4474 21.0933 37.2074 20.62C37.9741 20.14 38.8841 19.9 39.9374 19.9C41.0174 19.9 41.9374 20.1433 42.6974 20.63C43.4641 21.11 44.0474 21.78 44.4474 22.64C44.8541 23.4933 45.0574 24.4767 45.0574 25.59C45.0574 26.7233 44.8541 27.72 44.4474 28.58C44.0407 29.4333 43.4541 30.1 42.6874 30.58C41.9207 31.06 41.0041 31.3 39.9374 31.3ZM39.9374 29.89C41.1374 29.89 42.0307 29.4933 42.6174 28.7C43.2041 27.9 43.4974 26.8633 43.4974 25.59C43.4974 24.2833 43.2007 23.2433 42.6074 22.47C42.0207 21.6967 41.1307 21.31 39.9374 21.31C39.1307 21.31 38.4641 21.4933 37.9374 21.86C37.4174 22.22 37.0274 22.7233 36.7674 23.37C36.5141 24.01 36.3874 24.75 36.3874 25.59C36.3874 26.89 36.6874 27.9333 37.2874 28.72C37.8874 29.5 38.7707 29.89 39.9374 29.89ZM60.4793 31L60.4893 23.91C60.4893 23.0767 60.256 22.4233 59.7893 21.95C59.3293 21.47 58.7427 21.23 58.0293 21.23C57.6227 21.23 57.226 21.3233 56.8393 21.51C56.4527 21.6967 56.1327 21.9967 55.8793 22.41C55.6327 22.8233 55.5093 23.3633 55.5093 24.03L54.6393 23.78C54.6193 23.0067 54.7693 22.33 55.0893 21.75C55.416 21.17 55.8627 20.72 56.4293 20.4C57.0027 20.0733 57.6493 19.91 58.3693 19.91C59.456 19.91 60.326 20.2467 60.9793 20.92C61.6327 21.5867 61.9593 22.49 61.9593 23.63L61.9493 31H60.4793ZM47.5893 31V20.2H48.9093V22.86H49.0693V31H47.5893ZM54.0493 31L54.0593 24.01C54.0593 23.15 53.8293 22.4733 53.3693 21.98C52.916 21.48 52.316 21.23 51.5693 21.23C50.8227 21.23 50.2193 21.4867 49.7593 22C49.2993 22.5067 49.0693 23.1833 49.0693 24.03L48.1893 23.55C48.1893 22.8567 48.3527 22.2367 48.6793 21.69C49.006 21.1367 49.4527 20.7033 50.0193 20.39C50.586 20.07 51.2293 19.91 51.9493 19.91C52.636 19.91 53.246 20.0567 53.7793 20.35C54.3193 20.6433 54.7427 21.07 55.0493 21.63C55.356 22.19 55.5093 22.87 55.5093 23.67L55.4993 31H54.0493ZM69.3999 31.3C68.3465 31.3 67.4332 31.0667 66.6599 30.6C65.8932 30.1333 65.2965 29.4767 64.8699 28.63C64.4432 27.7833 64.2299 26.79 64.2299 25.65C64.2299 24.47 64.4399 23.45 64.8599 22.59C65.2799 21.73 65.8699 21.0667 66.6299 20.6C67.3965 20.1333 68.2999 19.9 69.3399 19.9C70.4065 19.9 71.3165 20.1467 72.0699 20.64C72.8232 21.1267 73.3932 21.8267 73.7799 22.74C74.1665 23.6533 74.3432 24.7433 74.3099 26.01H72.8099V25.49C72.7832 24.09 72.4799 23.0333 71.8999 22.32C71.3265 21.6067 70.4865 21.25 69.3799 21.25C68.2199 21.25 67.3299 21.6267 66.7099 22.38C66.0965 23.1333 65.7899 24.2067 65.7899 25.6C65.7899 26.96 66.0965 28.0167 66.7099 28.77C67.3299 29.5167 68.2065 29.89 69.3399 29.89C70.1132 29.89 70.7865 29.7133 71.3599 29.36C71.9399 29 72.3965 28.4833 72.7299 27.81L74.0999 28.34C73.6732 29.28 73.0432 30.01 72.2099 30.53C71.3832 31.0433 70.4465 31.3 69.3999 31.3ZM65.2699 26.01V24.78H73.5199V26.01H65.2699ZM84.295 31.3C83.4817 31.3 82.7983 31.1533 82.245 30.86C81.6983 30.5667 81.2883 30.1767 81.015 29.69C80.7417 29.2033 80.605 28.6733 80.605 28.1C80.605 27.5133 80.7217 27.0133 80.955 26.6C81.195 26.18 81.5183 25.8367 81.925 25.57C82.3383 25.3033 82.815 25.1 83.355 24.96C83.9017 24.8267 84.505 24.71 85.165 24.61C85.8317 24.5033 86.4817 24.4133 87.115 24.34C87.755 24.26 88.315 24.1833 88.795 24.11L88.275 24.43C88.295 23.3633 88.0883 22.5733 87.655 22.06C87.2217 21.5467 86.4683 21.29 85.395 21.29C84.655 21.29 84.0283 21.4567 83.515 21.79C83.0083 22.1233 82.6517 22.65 82.445 23.37L81.015 22.95C81.2617 21.9833 81.7583 21.2333 82.505 20.7C83.2517 20.1667 84.2217 19.9 85.415 19.9C86.4017 19.9 87.2383 20.0867 87.925 20.46C88.6183 20.8267 89.1083 21.36 89.395 22.06C89.5283 22.3733 89.615 22.7233 89.655 23.11C89.695 23.4967 89.715 23.89 89.715 24.29V31H88.405V28.29L88.785 28.45C88.4183 29.3767 87.8483 30.0833 87.075 30.57C86.3017 31.0567 85.375 31.3 84.295 31.3ZM84.465 30.03C85.1517 30.03 85.7517 29.9067 86.265 29.66C86.7783 29.4133 87.1917 29.0767 87.505 28.65C87.8183 28.2167 88.0217 27.73 88.115 27.19C88.195 26.8433 88.2383 26.4633 88.245 26.05C88.2517 25.63 88.255 25.3167 88.255 25.11L88.815 25.4C88.315 25.4667 87.7717 25.5333 87.185 25.6C86.605 25.6667 86.0317 25.7433 85.465 25.83C84.905 25.9167 84.3983 26.02 83.945 26.14C83.6383 26.2267 83.3417 26.35 83.055 26.51C82.7683 26.6633 82.5317 26.87 82.345 27.13C82.165 27.39 82.075 27.7133 82.075 28.1C82.075 28.4133 82.1517 28.7167 82.305 29.01C82.465 29.3033 82.7183 29.5467 83.065 29.74C83.4183 29.9333 83.885 30.03 84.465 30.03ZM96.8443 31.3C95.8376 31.3 94.9776 31.05 94.2643 30.55C93.5509 30.0433 93.0043 29.36 92.6243 28.5C92.2443 27.64 92.0543 26.67 92.0543 25.59C92.0543 24.5167 92.2409 23.55 92.6143 22.69C92.9943 21.83 93.5376 21.15 94.2443 20.65C94.9509 20.15 95.7976 19.9 96.7843 19.9C97.7976 19.9 98.6509 20.1467 99.3443 20.64C100.038 21.1333 100.561 21.81 100.914 22.67C101.274 23.5233 101.454 24.4967 101.454 25.59C101.454 26.6633 101.278 27.6333 100.924 28.5C100.571 29.36 100.051 30.0433 99.3643 30.55C98.6776 31.05 97.8376 31.3 96.8443 31.3ZM96.9943 29.93C97.7609 29.93 98.3943 29.7433 98.8943 29.37C99.3943 28.9967 99.7676 28.4833 100.014 27.83C100.261 27.17 100.384 26.4233 100.384 25.59C100.384 24.7433 100.261 23.9967 100.014 23.35C99.7676 22.6967 99.3943 22.1867 98.8943 21.82C98.4009 21.4533 97.7776 21.27 97.0243 21.27C96.2509 21.27 95.6109 21.46 95.1043 21.84C94.5976 22.22 94.2209 22.7367 93.9743 23.39C93.7343 24.0433 93.6143 24.7767 93.6143 25.59C93.6143 26.41 93.7376 27.15 93.9843 27.81C94.2376 28.4633 94.6143 28.98 95.1143 29.36C95.6143 29.74 96.2409 29.93 96.9943 29.93ZM100.384 31V22.87H100.224V16.6H101.704V31H100.384ZM109.036 31.3C108.029 31.3 107.169 31.05 106.456 30.55C105.742 30.0433 105.196 29.36 104.816 28.5C104.436 27.64 104.246 26.67 104.246 25.59C104.246 24.5167 104.432 23.55 104.806 22.69C105.186 21.83 105.729 21.15 106.436 20.65C107.142 20.15 107.989 19.9 108.976 19.9C109.989 19.9 110.842 20.1467 111.536 20.64C112.229 21.1333 112.752 21.81 113.106 22.67C113.466 23.5233 113.646 24.4967 113.646 25.59C113.646 26.6633 113.469 27.6333 113.116 28.5C112.762 29.36 112.242 30.0433 111.556 30.55C110.869 31.05 110.029 31.3 109.036 31.3ZM109.186 29.93C109.952 29.93 110.586 29.7433 111.086 29.37C111.586 28.9967 111.959 28.4833 112.206 27.83C112.452 27.17 112.576 26.4233 112.576 25.59C112.576 24.7433 112.452 23.9967 112.206 23.35C111.959 22.6967 111.586 22.1867 111.086 21.82C110.592 21.4533 109.969 21.27 109.216 21.27C108.442 21.27 107.802 21.46 107.296 21.84C106.789 22.22 106.412 22.7367 106.166 23.39C105.926 24.0433 105.806 24.7767 105.806 25.59C105.806 26.41 105.929 27.15 106.176 27.81C106.429 28.4633 106.806 28.98 107.306 29.36C107.806 29.74 108.432 29.93 109.186 29.93ZM112.576 31V22.87H112.416V16.6H113.896V31H112.576ZM117.037 31V20.2H118.357V22.8L118.097 22.46C118.217 22.14 118.374 21.8467 118.567 21.58C118.761 21.3067 118.971 21.0833 119.197 20.91C119.477 20.6633 119.804 20.4767 120.177 20.35C120.551 20.2167 120.927 20.14 121.307 20.12C121.687 20.0933 122.034 20.12 122.347 20.2V21.58C121.954 21.48 121.524 21.4567 121.057 21.51C120.591 21.5633 120.161 21.75 119.767 22.07C119.407 22.35 119.137 22.6867 118.957 23.08C118.777 23.4667 118.657 23.88 118.597 24.32C118.537 24.7533 118.507 25.1833 118.507 25.61V31H117.037ZM128.955 31.3C127.902 31.3 126.988 31.0667 126.215 30.6C125.448 30.1333 124.852 29.4767 124.425 28.63C123.998 27.7833 123.785 26.79 123.785 25.65C123.785 24.47 123.995 23.45 124.415 22.59C124.835 21.73 125.425 21.0667 126.185 20.6C126.952 20.1333 127.855 19.9 128.895 19.9C129.962 19.9 130.872 20.1467 131.625 20.64C132.378 21.1267 132.948 21.8267 133.335 22.74C133.722 23.6533 133.898 24.7433 133.865 26.01H132.365V25.49C132.338 24.09 132.035 23.0333 131.455 22.32C130.882 21.6067 130.042 21.25 128.935 21.25C127.775 21.25 126.885 21.6267 126.265 22.38C125.652 23.1333 125.345 24.2067 125.345 25.6C125.345 26.96 125.652 28.0167 126.265 28.77C126.885 29.5167 127.762 29.89 128.895 29.89C129.668 29.89 130.342 29.7133 130.915 29.36C131.495 29 131.952 28.4833 132.285 27.81L133.655 28.34C133.228 29.28 132.598 30.01 131.765 30.53C130.938 31.0433 130.002 31.3 128.955 31.3ZM124.825 26.01V24.78H133.075V26.01H124.825ZM140.45 31.29C139.183 31.29 138.14 31.0167 137.32 30.47C136.507 29.9233 136.007 29.1633 135.82 28.19L137.32 27.94C137.48 28.5533 137.843 29.0433 138.41 29.41C138.983 29.77 139.69 29.95 140.53 29.95C141.35 29.95 141.997 29.78 142.47 29.44C142.943 29.0933 143.18 28.6233 143.18 28.03C143.18 27.6967 143.103 27.4267 142.95 27.22C142.803 27.0067 142.5 26.81 142.04 26.63C141.58 26.45 140.893 26.2367 139.98 25.99C139 25.7233 138.233 25.4567 137.68 25.19C137.127 24.9233 136.733 24.6167 136.5 24.27C136.267 23.9167 136.15 23.4867 136.15 22.98C136.15 22.3667 136.323 21.83 136.67 21.37C137.017 20.9033 137.497 20.5433 138.11 20.29C138.723 20.03 139.437 19.9 140.25 19.9C141.063 19.9 141.79 20.0333 142.43 20.3C143.077 20.56 143.597 20.9267 143.99 21.4C144.383 21.8733 144.617 22.4233 144.69 23.05L143.19 23.32C143.09 22.6867 142.773 22.1867 142.24 21.82C141.713 21.4467 141.043 21.2533 140.23 21.24C139.463 21.22 138.84 21.3667 138.36 21.68C137.88 21.9867 137.64 22.3967 137.64 22.91C137.64 23.1967 137.727 23.4433 137.9 23.65C138.073 23.85 138.387 24.04 138.84 24.22C139.3 24.4 139.953 24.5967 140.8 24.81C141.793 25.0633 142.573 25.33 143.14 25.61C143.707 25.89 144.11 26.22 144.35 26.6C144.59 26.98 144.71 27.45 144.71 28.01C144.71 29.03 144.33 29.8333 143.57 30.42C142.817 31 141.777 31.29 140.45 31.29ZM151.294 31.29C150.027 31.29 148.984 31.0167 148.164 30.47C147.351 29.9233 146.851 29.1633 146.664 28.19L148.164 27.94C148.324 28.5533 148.687 29.0433 149.254 29.41C149.827 29.77 150.534 29.95 151.374 29.95C152.194 29.95 152.841 29.78 153.314 29.44C153.787 29.0933 154.024 28.6233 154.024 28.03C154.024 27.6967 153.947 27.4267 153.794 27.22C153.647 27.0067 153.344 26.81 152.884 26.63C152.424 26.45 151.737 26.2367 150.824 25.99C149.844 25.7233 149.077 25.4567 148.524 25.19C147.971 24.9233 147.577 24.6167 147.344 24.27C147.111 23.9167 146.994 23.4867 146.994 22.98C146.994 22.3667 147.167 21.83 147.514 21.37C147.861 20.9033 148.341 20.5433 148.954 20.29C149.567 20.03 150.281 19.9 151.094 19.9C151.907 19.9 152.634 20.0333 153.274 20.3C153.921 20.56 154.441 20.9267 154.834 21.4C155.227 21.8733 155.461 22.4233 155.534 23.05L154.034 23.32C153.934 22.6867 153.617 22.1867 153.084 21.82C152.557 21.4467 151.887 21.2533 151.074 21.24C150.307 21.22 149.684 21.3667 149.204 21.68C148.724 21.9867 148.484 22.3967 148.484 22.91C148.484 23.1967 148.571 23.4433 148.744 23.65C148.917 23.85 149.231 24.04 149.684 24.22C150.144 24.4 150.797 24.5967 151.644 24.81C152.637 25.0633 153.417 25.33 153.984 25.61C154.551 25.89 154.954 26.22 155.194 26.6C155.434 26.98 155.554 27.45 155.554 28.01C155.554 29.03 155.174 29.8333 154.414 30.42C153.661 31 152.621 31.29 151.294 31.29Z" fill="#818181"></path> <path d="M1.25063 95V80.6H5.62063C5.77397 80.6 6.03397 80.6033 6.40063 80.61C6.77397 80.6167 7.13063 80.6433 7.47063 80.69C8.56397 80.8433 9.4773 81.25 10.2106 81.91C10.944 82.57 11.494 83.41 11.8606 84.43C12.2273 85.45 12.4106 86.5733 12.4106 87.8C12.4106 89.0267 12.2273 90.15 11.8606 91.17C11.494 92.19 10.944 93.03 10.2106 93.69C9.4773 94.35 8.56397 94.7567 7.47063 94.91C7.1373 94.95 6.78063 94.9767 6.40063 94.99C6.02063 94.9967 5.76063 95 5.62063 95H1.25063ZM2.77063 93.59H5.62063C5.89397 93.59 6.1873 93.5833 6.50063 93.57C6.82063 93.55 7.09397 93.5167 7.32063 93.47C8.16063 93.3233 8.8373 92.9833 9.35063 92.45C9.87063 91.9167 10.2506 91.25 10.4906 90.45C10.7306 89.6433 10.8506 88.76 10.8506 87.8C10.8506 86.8333 10.7306 85.9467 10.4906 85.14C10.2506 84.3333 9.87063 83.6667 9.35063 83.14C8.83063 82.6133 8.15397 82.2767 7.32063 82.13C7.09397 82.0833 6.8173 82.0533 6.49063 82.04C6.17063 82.02 5.88063 82.01 5.62063 82.01H2.77063V93.59ZM19.5941 95.3C18.5408 95.3 17.6275 95.0667 16.8541 94.6C16.0875 94.1333 15.4908 93.4767 15.0641 92.63C14.6375 91.7833 14.4241 90.79 14.4241 89.65C14.4241 88.47 14.6341 87.45 15.0541 86.59C15.4741 85.73 16.0641 85.0667 16.8241 84.6C17.5908 84.1333 18.4941 83.9 19.5341 83.9C20.6008 83.9 21.5108 84.1467 22.2641 84.64C23.0175 85.1267 23.5875 85.8267 23.9741 86.74C24.3608 87.6533 24.5375 88.7433 24.5041 90.01H23.0041V89.49C22.9775 88.09 22.6741 87.0333 22.0941 86.32C21.5208 85.6067 20.6808 85.25 19.5741 85.25C18.4141 85.25 17.5241 85.6267 16.9041 86.38C16.2908 87.1333 15.9841 88.2067 15.9841 89.6C15.9841 90.96 16.2908 92.0167 16.9041 92.77C17.5241 93.5167 18.4008 93.89 19.5341 93.89C20.3075 93.89 20.9808 93.7133 21.5541 93.36C22.1341 93 22.5908 92.4833 22.9241 91.81L24.2941 92.34C23.8675 93.28 23.2375 94.01 22.4041 94.53C21.5775 95.0433 20.6408 95.3 19.5941 95.3ZM15.4641 90.01V88.78H23.7141V90.01H15.4641ZM27.2594 95V80.3H28.7294V95H27.2594ZM32.2633 82.15V80.5H33.7333V82.15H32.2633ZM32.2633 95V84.2H33.7333V95H32.2633ZM39.9873 95L36.0673 84.2H37.5573L40.7473 93.08L43.9173 84.2H45.4273L41.5073 95H39.9873ZM51.7389 95.3C50.6856 95.3 49.7722 95.0667 48.9989 94.6C48.2322 94.1333 47.6356 93.4767 47.2089 92.63C46.7822 91.7833 46.5689 90.79 46.5689 89.65C46.5689 88.47 46.7789 87.45 47.1989 86.59C47.6189 85.73 48.2089 85.0667 48.9689 84.6C49.7356 84.1333 50.6389 83.9 51.6789 83.9C52.7456 83.9 53.6556 84.1467 54.4089 84.64C55.1622 85.1267 55.7322 85.8267 56.1189 86.74C56.5056 87.6533 56.6822 88.7433 56.6489 90.01H55.1489V89.49C55.1222 88.09 54.8189 87.0333 54.2389 86.32C53.6656 85.6067 52.8256 85.25 51.7189 85.25C50.5589 85.25 49.6689 85.6267 49.0489 86.38C48.4356 87.1333 48.1289 88.2067 48.1289 89.6C48.1289 90.96 48.4356 92.0167 49.0489 92.77C49.6689 93.5167 50.5456 93.89 51.6789 93.89C52.4522 93.89 53.1256 93.7133 53.6989 93.36C54.2789 93 54.7356 92.4833 55.0689 91.81L56.4389 92.34C56.0122 93.28 55.3822 94.01 54.5489 94.53C53.7222 95.0433 52.7856 95.3 51.7389 95.3ZM47.6089 90.01V88.78H55.8589V90.01H47.6089ZM59.2041 95V84.2H60.5241V86.8L60.2641 86.46C60.3841 86.14 60.5408 85.8467 60.7341 85.58C60.9275 85.3067 61.1375 85.0833 61.3641 84.91C61.6441 84.6633 61.9708 84.4767 62.3441 84.35C62.7175 84.2167 63.0941 84.14 63.4741 84.12C63.8541 84.0933 64.2008 84.12 64.5141 84.2V85.58C64.1208 85.48 63.6908 85.4567 63.2241 85.51C62.7575 85.5633 62.3275 85.75 61.9341 86.07C61.5741 86.35 61.3041 86.6867 61.1241 87.08C60.9441 87.4667 60.8241 87.88 60.7641 88.32C60.7041 88.7533 60.6741 89.1833 60.6741 89.61V95H59.2041ZM68.1504 99.8L70.2404 94.13L70.2704 95.81L65.5404 84.2H67.1004L70.9804 93.91H70.3404L73.9204 84.2H75.4204L69.6204 99.8H68.1504ZM84.9232 95.3C84.1099 95.3 83.4266 95.1533 82.8732 94.86C82.3266 94.5667 81.9166 94.1767 81.6432 93.69C81.3699 93.2033 81.2332 92.6733 81.2332 92.1C81.2332 91.5133 81.3499 91.0133 81.5832 90.6C81.8232 90.18 82.1466 89.8367 82.5532 89.57C82.9666 89.3033 83.4432 89.1 83.9832 88.96C84.5299 88.8267 85.1332 88.71 85.7932 88.61C86.4599 88.5033 87.1099 88.4133 87.7432 88.34C88.3832 88.26 88.9432 88.1833 89.4232 88.11L88.9032 88.43C88.9232 87.3633 88.7166 86.5733 88.2832 86.06C87.8499 85.5467 87.0966 85.29 86.0232 85.29C85.2832 85.29 84.6566 85.4567 84.1432 85.79C83.6366 86.1233 83.2799 86.65 83.0732 87.37L81.6432 86.95C81.8899 85.9833 82.3866 85.2333 83.1332 84.7C83.8799 84.1667 84.8499 83.9 86.0432 83.9C87.0299 83.9 87.8666 84.0867 88.5532 84.46C89.2466 84.8267 89.7366 85.36 90.0232 86.06C90.1566 86.3733 90.2432 86.7233 90.2832 87.11C90.3232 87.4967 90.3432 87.89 90.3432 88.29V95H89.0332V92.29L89.4132 92.45C89.0466 93.3767 88.4766 94.0833 87.7032 94.57C86.9299 95.0567 86.0032 95.3 84.9232 95.3ZM85.0932 94.03C85.7799 94.03 86.3799 93.9067 86.8932 93.66C87.4066 93.4133 87.8199 93.0767 88.1332 92.65C88.4466 92.2167 88.6499 91.73 88.7432 91.19C88.8232 90.8433 88.8666 90.4633 88.8732 90.05C88.8799 89.63 88.8832 89.3167 88.8832 89.11L89.4432 89.4C88.9432 89.4667 88.3999 89.5333 87.8132 89.6C87.2332 89.6667 86.6599 89.7433 86.0932 89.83C85.5332 89.9167 85.0266 90.02 84.5732 90.14C84.2666 90.2267 83.9699 90.35 83.6832 90.51C83.3966 90.6633 83.1599 90.87 82.9732 91.13C82.7932 91.39 82.7032 91.7133 82.7032 92.1C82.7032 92.4133 82.7799 92.7167 82.9332 93.01C83.0932 93.3033 83.3466 93.5467 83.6932 93.74C84.0466 93.9333 84.5132 94.03 85.0932 94.03ZM97.4725 95.3C96.4658 95.3 95.6058 95.05 94.8925 94.55C94.1792 94.0433 93.6325 93.36 93.2525 92.5C92.8725 91.64 92.6825 90.67 92.6825 89.59C92.6825 88.5167 92.8692 87.55 93.2425 86.69C93.6225 85.83 94.1658 85.15 94.8725 84.65C95.5792 84.15 96.4258 83.9 97.4125 83.9C98.4258 83.9 99.2792 84.1467 99.9725 84.64C100.666 85.1333 101.189 85.81 101.543 86.67C101.903 87.5233 102.083 88.4967 102.083 89.59C102.083 90.6633 101.906 91.6333 101.553 92.5C101.199 93.36 100.679 94.0433 99.9925 94.55C99.3058 95.05 98.4658 95.3 97.4725 95.3ZM97.6225 93.93C98.3892 93.93 99.0225 93.7433 99.5225 93.37C100.023 92.9967 100.396 92.4833 100.643 91.83C100.889 91.17 101.013 90.4233 101.013 89.59C101.013 88.7433 100.889 87.9967 100.643 87.35C100.396 86.6967 100.023 86.1867 99.5225 85.82C99.0292 85.4533 98.4058 85.27 97.6525 85.27C96.8792 85.27 96.2392 85.46 95.7325 85.84C95.2258 86.22 94.8492 86.7367 94.6025 87.39C94.3625 88.0433 94.2425 88.7767 94.2425 89.59C94.2425 90.41 94.3658 91.15 94.6125 91.81C94.8658 92.4633 95.2425 92.98 95.7425 93.36C96.2425 93.74 96.8692 93.93 97.6225 93.93ZM101.013 95V86.87H100.853V80.6H102.333V95H101.013ZM109.664 95.3C108.657 95.3 107.797 95.05 107.084 94.55C106.371 94.0433 105.824 93.36 105.444 92.5C105.064 91.64 104.874 90.67 104.874 89.59C104.874 88.5167 105.061 87.55 105.434 86.69C105.814 85.83 106.357 85.15 107.064 84.65C107.771 84.15 108.617 83.9 109.604 83.9C110.617 83.9 111.471 84.1467 112.164 84.64C112.857 85.1333 113.381 85.81 113.734 86.67C114.094 87.5233 114.274 88.4967 114.274 89.59C114.274 90.6633 114.097 91.6333 113.744 92.5C113.391 93.36 112.871 94.0433 112.184 94.55C111.497 95.05 110.657 95.3 109.664 95.3ZM109.814 93.93C110.581 93.93 111.214 93.7433 111.714 93.37C112.214 92.9967 112.587 92.4833 112.834 91.83C113.081 91.17 113.204 90.4233 113.204 89.59C113.204 88.7433 113.081 87.9967 112.834 87.35C112.587 86.6967 112.214 86.1867 111.714 85.82C111.221 85.4533 110.597 85.27 109.844 85.27C109.071 85.27 108.431 85.46 107.924 85.84C107.417 86.22 107.041 86.7367 106.794 87.39C106.554 88.0433 106.434 88.7767 106.434 89.59C106.434 90.41 106.557 91.15 106.804 91.81C107.057 92.4633 107.434 92.98 107.934 93.36C108.434 93.74 109.061 93.93 109.814 93.93ZM113.204 95V86.87H113.044V80.6H114.524V95H113.204ZM117.665 95V84.2H118.985V86.8L118.725 86.46C118.845 86.14 119.002 85.8467 119.195 85.58C119.389 85.3067 119.599 85.0833 119.825 84.91C120.105 84.6633 120.432 84.4767 120.805 84.35C121.179 84.2167 121.555 84.14 121.935 84.12C122.315 84.0933 122.662 84.12 122.975 84.2V85.58C122.582 85.48 122.152 85.4567 121.685 85.51C121.219 85.5633 120.789 85.75 120.395 86.07C120.035 86.35 119.765 86.6867 119.585 87.08C119.405 87.4667 119.285 87.88 119.225 88.32C119.165 88.7533 119.135 89.1833 119.135 89.61V95H117.665ZM129.583 95.3C128.53 95.3 127.616 95.0667 126.843 94.6C126.076 94.1333 125.48 93.4767 125.053 92.63C124.626 91.7833 124.413 90.79 124.413 89.65C124.413 88.47 124.623 87.45 125.043 86.59C125.463 85.73 126.053 85.0667 126.813 84.6C127.58 84.1333 128.483 83.9 129.523 83.9C130.59 83.9 131.5 84.1467 132.253 84.64C133.006 85.1267 133.576 85.8267 133.963 86.74C134.35 87.6533 134.526 88.7433 134.493 90.01H132.993V89.49C132.966 88.09 132.663 87.0333 132.083 86.32C131.51 85.6067 130.67 85.25 129.563 85.25C128.403 85.25 127.513 85.6267 126.893 86.38C126.28 87.1333 125.973 88.2067 125.973 89.6C125.973 90.96 126.28 92.0167 126.893 92.77C127.513 93.5167 128.39 93.89 129.523 93.89C130.296 93.89 130.97 93.7133 131.543 93.36C132.123 93 132.58 92.4833 132.913 91.81L134.283 92.34C133.856 93.28 133.226 94.01 132.393 94.53C131.566 95.0433 130.63 95.3 129.583 95.3ZM125.453 90.01V88.78H133.703V90.01H125.453ZM141.078 95.29C139.812 95.29 138.768 95.0167 137.948 94.47C137.135 93.9233 136.635 93.1633 136.448 92.19L137.948 91.94C138.108 92.5533 138.472 93.0433 139.038 93.41C139.612 93.77 140.318 93.95 141.158 93.95C141.978 93.95 142.625 93.78 143.098 93.44C143.572 93.0933 143.808 92.6233 143.808 92.03C143.808 91.6967 143.732 91.4267 143.578 91.22C143.432 91.0067 143.128 90.81 142.668 90.63C142.208 90.45 141.522 90.2367 140.608 89.99C139.628 89.7233 138.862 89.4567 138.308 89.19C137.755 88.9233 137.362 88.6167 137.128 88.27C136.895 87.9167 136.778 87.4867 136.778 86.98C136.778 86.3667 136.952 85.83 137.298 85.37C137.645 84.9033 138.125 84.5433 138.738 84.29C139.352 84.03 140.065 83.9 140.878 83.9C141.692 83.9 142.418 84.0333 143.058 84.3C143.705 84.56 144.225 84.9267 144.618 85.4C145.012 85.8733 145.245 86.4233 145.318 87.05L143.818 87.32C143.718 86.6867 143.402 86.1867 142.868 85.82C142.342 85.4467 141.672 85.2533 140.858 85.24C140.092 85.22 139.468 85.3667 138.988 85.68C138.508 85.9867 138.268 86.3967 138.268 86.91C138.268 87.1967 138.355 87.4433 138.528 87.65C138.702 87.85 139.015 88.04 139.468 88.22C139.928 88.4 140.582 88.5967 141.428 88.81C142.422 89.0633 143.202 89.33 143.768 89.61C144.335 89.89 144.738 90.22 144.978 90.6C145.218 90.98 145.338 91.45 145.338 92.01C145.338 93.03 144.958 93.8333 144.198 94.42C143.445 95 142.405 95.29 141.078 95.29ZM151.922 95.29C150.656 95.29 149.612 95.0167 148.792 94.47C147.979 93.9233 147.479 93.1633 147.292 92.19L148.792 91.94C148.952 92.5533 149.316 93.0433 149.882 93.41C150.456 93.77 151.162 93.95 152.002 93.95C152.822 93.95 153.469 93.78 153.942 93.44C154.416 93.0933 154.652 92.6233 154.652 92.03C154.652 91.6967 154.576 91.4267 154.422 91.22C154.276 91.0067 153.972 90.81 153.512 90.63C153.052 90.45 152.366 90.2367 151.452 89.99C150.472 89.7233 149.706 89.4567 149.152 89.19C148.599 88.9233 148.206 88.6167 147.972 88.27C147.739 87.9167 147.622 87.4867 147.622 86.98C147.622 86.3667 147.796 85.83 148.142 85.37C148.489 84.9033 148.969 84.5433 149.582 84.29C150.196 84.03 150.909 83.9 151.722 83.9C152.536 83.9 153.262 84.0333 153.902 84.3C154.549 84.56 155.069 84.9267 155.462 85.4C155.856 85.8733 156.089 86.4233 156.162 87.05L154.662 87.32C154.562 86.6867 154.246 86.1867 153.712 85.82C153.186 85.4467 152.516 85.2533 151.702 85.24C150.936 85.22 150.312 85.3667 149.832 85.68C149.352 85.9867 149.112 86.3967 149.112 86.91C149.112 87.1967 149.199 87.4433 149.372 87.65C149.546 87.85 149.859 88.04 150.312 88.22C150.772 88.4 151.426 88.5967 152.272 88.81C153.266 89.0633 154.046 89.33 154.612 89.61C155.179 89.89 155.582 90.22 155.822 90.6C156.062 90.98 156.182 91.45 156.182 92.01C156.182 93.03 155.802 93.8333 155.042 94.42C154.289 95 153.249 95.29 151.922 95.29Z" fill="#818181"></path> <g filter="url(#filter3_dd_8979_47871)"> <path d="M181.667 102.655L158.065 96.9102L164.173 119.684L169.09 115.491L177.216 121.495L183.064 115.491L176.491 107.831L181.667 102.655Z" fill="black" stroke="black" stroke-width="0.963636"></path> <path d="M184.34 114.556L178.253 108.47L182.645 104.078C183.025 103.697 183.182 103.147 183.058 102.623C182.934 102.099 182.549 101.677 182.038 101.507L158.024 95.0602C157.466 94.8742 156.851 95.0194 156.435 95.4353C156.019 95.8513 155.874 96.4664 156.06 97.0243L162.507 121.038C162.677 121.549 163.099 121.935 163.623 122.058C164.147 122.182 164.697 122.026 165.078 121.645L169.47 117.253L175.556 123.34C175.859 123.643 176.257 123.794 176.654 123.794C177.051 123.794 177.449 123.643 177.752 123.34L184.34 116.752C184.946 116.146 184.946 115.162 184.34 114.556ZM176.654 120.046L170.567 113.959C169.961 113.353 168.978 113.353 168.372 113.959L164.658 117.673L159.988 98.9884L178.672 103.658L174.959 107.372C174.353 107.977 174.353 108.961 174.959 109.568L181.046 115.654L176.654 120.046Z" fill="white"></path> </g> </g> <defs> <filter id="filter0_dd_8979_47871" x="421.667" y="13" width="35.1494" height="30.4834" filterUnits="userSpaceOnUse" color-interpolation-filters="sRGB"> <feFlood flood-opacity="0" result="BackgroundImageFix"></feFlood> <feColorMatrix in="SourceAlpha" type="matrix" values="0 0 0 0 0 0 0 0 0 0 0 0 0 0 0 0 0 0 127 0" result="hardAlpha"></feColorMatrix> <feOffset dy="4"></feOffset> <feGaussianBlur stdDeviation="4"></feGaussianBlur> <feColorMatrix type="matrix" values="0 0 0 0 0.121569 0 0 0 0 0.545098 0 0 0 0 0.141176 0 0 0 0.18 0"></feColorMatrix> <feBlend mode="multiply" in2="BackgroundImageFix" result="effect1_dropShadow_8979_47871"></feBlend> <feColorMatrix in="SourceAlpha" type="matrix" values="0 0 0 0 0 0 0 0 0 0 0 0 0 0 0 0 0 0 127 0" result="hardAlpha"></feColorMatrix> <feOffset dy="2"></feOffset> <feGaussianBlur stdDeviation="2"></feGaussianBlur> <feColorMatrix type="matrix" values="0 0 0 0 0.121569 0 0 0 0 0.545098 0 0 0 0 0.141176 0 0 0 0.18 0"></feColorMatrix> <feBlend mode="multiply" in2="effect1_dropShadow_8979_47871" result="effect2_dropShadow_8979_47871"></feBlend> <feBlend mode="normal" in="SourceGraphic" in2="effect2_dropShadow_8979_47871" result="shape"></feBlend> </filter> <filter id="filter1_i_8979_47871" x="173" y="64" width="288" height="52.3636" filterUnits="userSpaceOnUse" color-interpolation-filters="sRGB"> <feFlood flood-opacity="0" result="BackgroundImageFix"></feFlood> <feBlend mode="normal" in="SourceGraphic" in2="BackgroundImageFix" result="shape"></feBlend> <feColorMatrix in="SourceAlpha" type="matrix" values="0 0 0 0 0 0 0 0 0 0 0 0 0 0 0 0 0 0 127 0" result="hardAlpha"></feColorMatrix> <feOffset dy="4.36364"></feOffset> <feGaussianBlur stdDeviation="4.36364"></feGaussianBlur> <feComposite in2="hardAlpha" operator="arithmetic" k2="-1" k3="1"></feComposite> <feColorMatrix type="matrix" values="0 0 0 0 0 0 0 0 0 0 0 0 0 0 0 0 0 0 0.06 0"></feColorMatrix> <feBlend mode="multiply" in2="shape" result="effect1_innerShadow_8979_47871"></feBlend> </filter> <filter id="filter2_d_8979_47871" x="184.16" y="82.8999" width="183.079" height="17.4399" filterUnits="userSpaceOnUse" color-interpolation-filters="sRGB"> <feFlood flood-opacity="0" result="BackgroundImageFix"></feFlood> <feColorMatrix in="SourceAlpha" type="matrix" values="0 0 0 0 0 0 0 0 0 0 0 0 0 0 0 0 0 0 127 0" result="hardAlpha"></feColorMatrix> <feOffset dy="1"></feOffset> <feGaussianBlur stdDeviation="0.5"></feGaussianBlur> <feComposite in2="hardAlpha" operator="out"></feComposite> <feColorMatrix type="matrix" values="0 0 0 0 1 0 0 0 0 1 0 0 0 0 1 0 0 0 1 0"></feColorMatrix> <feBlend mode="normal" in2="BackgroundImageFix" result="effect1_dropShadow_8979_47871"></feBlend> <feBlend mode="normal" in="SourceGraphic" in2="effect1_dropShadow_8979_47871" result="shape"></feBlend> </filter> <filter id="filter3_dd_8979_47871" x="118.156" y="66.5778" width="90.6889" height="90.6889" filterUnits="userSpaceOnUse" color-interpolation-filters="sRGB"> <feFlood flood-opacity="0" result="BackgroundImageFix"></feFlood> <feColorMatrix in="SourceAlpha" type="matrix" values="0 0 0 0 0 0 0 0 0 0 0 0 0 0 0 0 0 0 127 0" result="hardAlpha"></feColorMatrix> <feOffset dy="9.42222"></feOffset> <feGaussianBlur stdDeviation="9.42222"></feGaussianBlur> <feColorMatrix type="matrix" values="0 0 0 0 0.380392 0 0 0 0 0.380392 0 0 0 0 0.380392 0 0 0 0.14 0"></feColorMatrix> <feBlend mode="multiply" in2="BackgroundImageFix" result="effect1_dropShadow_8979_47871"></feBlend> <feColorMatrix in="SourceAlpha" type="matrix" values="0 0 0 0 0 0 0 0 0 0 0 0 0 0 0 0 0 0 127 0" result="hardAlpha"></feColorMatrix> <feOffset dy="4.71111"></feOffset> <feGaussianBlur stdDeviation="4.71111"></feGaussianBlur> <feColorMatrix type="matrix" values="0 0 0 0 0.380392 0 0 0 0 0.380392 0 0 0 0 0.380392 0 0 0 0.14 0"></feColorMatrix> <feBlend mode="multiply" in2="effect1_dropShadow_8979_47871" result="effect2_dropShadow_8979_47871"></feBlend> <feBlend mode="normal" in="SourceGraphic" in2="effect2_dropShadow_8979_47871" result="shape"></feBlend> </filter> <linearGradient id="paint0_linear_8979_47871" x1="317" y1="0" x2="317" y2="48" gradientUnits="userSpaceOnUse"> <stop stop-color="#C0C0C0"></stop> <stop offset="1" stop-color="#AFA3D1"></stop> </linearGradient> <linearGradient id="paint1_linear_8979_47871" x1="317" y1="64" x2="317" y2="112" gradientUnits="userSpaceOnUse"> <stop stop-color="#FBFBFB"></stop> <stop offset="1" stop-color="#EFEDF1"></stop> </linearGradient> <clipPath id="clip0_8979_47871"> <rect width="461" height="140" fill="white"></rect> </clipPath> </defs> </svg> 