<?xml version="1.0" encoding="UTF-8"?> <svg xmlns="http://www.w3.org/2000/svg" width="304" height="120" viewBox="0 0 304 120" fill="none"> <rect x="0.75" y="0.75" width="302.5" height="118.5" rx="19.25" fill="url(#paint0_linear_8966_55275)"></rect> <g filter="url(#filter0_ii_8966_55275)"> <rect x="40" y="40" width="224" height="48" rx="10" fill="url(#paint1_linear_8966_55275)"></rect> </g> <rect x="40.5" y="40.5" width="223" height="47" rx="9.5" stroke="url(#paint2_linear_8966_55275)"></rect> <path fill-rule="evenodd" clip-rule="evenodd" d="M68.8688 67.4575C71.3126 64.319 71.0918 59.7783 68.2067 56.8931C65.0825 53.7689 60.0171 53.7689 56.893 56.8931C53.7688 60.0173 53.7688 65.0826 56.893 68.2068C59.7781 71.092 64.3188 71.3128 67.4573 68.869C67.4708 68.8843 67.4849 68.8993 67.4996 68.9139L71.7422 73.1566C72.1327 73.5471 72.7659 73.5471 73.1564 73.1566C73.5469 72.7661 73.5469 72.1329 73.1564 71.7424L68.9138 67.4997C68.8991 67.4851 68.8841 67.471 68.8688 67.4575ZM66.7924 58.3073C69.1356 60.6505 69.1356 64.4495 66.7924 66.7926C64.4493 69.1358 60.6503 69.1358 58.3072 66.7926C55.964 64.4495 55.964 60.6505 58.3072 58.3073C60.6503 55.9642 64.4493 55.9642 66.7924 58.3073Z" fill="#616161"></path> <g filter="url(#filter1_d_8966_55275)"> <path d="M87.26 70.5V57.54H94.82V59.142H88.862V63.219H93.74V64.821H88.862V70.5H87.26ZM96.7382 70.5V60.78H98.1692V63.129L97.9352 62.823C98.0492 62.523 98.1962 62.247 98.3762 61.995C98.5622 61.743 98.7692 61.536 98.9972 61.374C99.2492 61.17 99.5342 61.014 99.8522 60.906C100.17 60.798 100.494 60.735 100.824 60.717C101.154 60.693 101.463 60.714 101.751 60.78V62.283C101.415 62.193 101.046 62.169 100.644 62.211C100.242 62.253 99.8702 62.4 99.5282 62.652C99.2162 62.874 98.9732 63.144 98.7992 63.462C98.6312 63.78 98.5142 64.125 98.4482 64.497C98.3822 64.863 98.3492 65.238 98.3492 65.622V70.5H96.7382ZM107.792 70.77C106.838 70.77 106.004 70.56 105.29 70.14C104.582 69.714 104.03 69.123 103.634 68.367C103.238 67.605 103.04 66.717 103.04 65.703C103.04 64.641 103.235 63.723 103.625 62.949C104.015 62.169 104.558 61.569 105.254 61.149C105.956 60.723 106.778 60.51 107.72 60.51C108.698 60.51 109.529 60.735 110.213 61.185C110.903 61.635 111.419 62.277 111.761 63.111C112.109 63.945 112.259 64.938 112.211 66.09H110.591V65.514C110.573 64.32 110.33 63.429 109.862 62.841C109.394 62.247 108.698 61.95 107.774 61.95C106.784 61.95 106.031 62.268 105.515 62.904C104.999 63.54 104.741 64.452 104.741 65.64C104.741 66.786 104.999 67.674 105.515 68.304C106.031 68.934 106.766 69.249 107.72 69.249C108.362 69.249 108.92 69.102 109.394 68.808C109.868 68.514 110.24 68.091 110.51 67.539L112.049 68.07C111.671 68.928 111.101 69.594 110.339 70.068C109.583 70.536 108.734 70.77 107.792 70.77ZM104.201 66.09V64.803H111.383V66.09H104.201ZM118.729 70.77C117.775 70.77 116.941 70.56 116.227 70.14C115.519 69.714 114.967 69.123 114.571 68.367C114.175 67.605 113.977 66.717 113.977 65.703C113.977 64.641 114.172 63.723 114.562 62.949C114.952 62.169 115.495 61.569 116.191 61.149C116.893 60.723 117.715 60.51 118.657 60.51C119.635 60.51 120.466 60.735 121.15 61.185C121.84 61.635 122.356 62.277 122.698 63.111C123.046 63.945 123.196 64.938 123.148 66.09H121.528V65.514C121.51 64.32 121.267 63.429 120.799 62.841C120.331 62.247 119.635 61.95 118.711 61.95C117.721 61.95 116.968 62.268 116.452 62.904C115.936 63.54 115.678 64.452 115.678 65.64C115.678 66.786 115.936 67.674 116.452 68.304C116.968 68.934 117.703 69.249 118.657 69.249C119.299 69.249 119.857 69.102 120.331 68.808C120.805 68.514 121.177 68.091 121.447 67.539L122.986 68.07C122.608 68.928 122.038 69.594 121.276 70.068C120.52 70.536 119.671 70.77 118.729 70.77ZM115.138 66.09V64.803H122.32V66.09H115.138ZM133.824 70.77C132.912 70.77 132.144 70.545 131.52 70.095C130.896 69.639 130.422 69.024 130.098 68.25C129.78 67.47 129.621 66.597 129.621 65.631C129.621 64.653 129.78 63.777 130.098 63.003C130.422 62.229 130.896 61.62 131.52 61.176C132.15 60.732 132.921 60.51 133.833 60.51C134.733 60.51 135.507 60.735 136.155 61.185C136.809 61.629 137.31 62.238 137.658 63.012C138.006 63.786 138.18 64.659 138.18 65.631C138.18 66.603 138.006 67.476 137.658 68.25C137.31 69.024 136.809 69.639 136.155 70.095C135.507 70.545 134.73 70.77 133.824 70.77ZM129.351 74.82V60.78H130.782V67.935H130.962V74.82H129.351ZM133.626 69.303C134.268 69.303 134.799 69.141 135.219 68.817C135.639 68.493 135.954 68.055 136.164 67.503C136.374 66.945 136.479 66.321 136.479 65.631C136.479 64.947 136.374 64.329 136.164 63.777C135.96 63.225 135.642 62.787 135.21 62.463C134.784 62.139 134.241 61.977 133.581 61.977C132.951 61.977 132.429 62.133 132.015 62.445C131.601 62.751 131.292 63.18 131.088 63.732C130.884 64.278 130.782 64.911 130.782 65.631C130.782 66.339 130.881 66.972 131.079 67.53C131.283 68.082 131.595 68.517 132.015 68.835C132.435 69.147 132.972 69.303 133.626 69.303ZM144.595 70.77C143.629 70.77 142.795 70.551 142.093 70.113C141.397 69.675 140.86 69.069 140.482 68.295C140.104 67.521 139.915 66.633 139.915 65.631C139.915 64.611 140.107 63.717 140.491 62.949C140.875 62.181 141.418 61.584 142.12 61.158C142.822 60.726 143.647 60.51 144.595 60.51C145.567 60.51 146.404 60.729 147.106 61.167C147.808 61.599 148.345 62.202 148.717 62.976C149.095 63.744 149.284 64.629 149.284 65.631C149.284 66.645 149.095 67.539 148.717 68.313C148.339 69.081 147.799 69.684 147.097 70.122C146.395 70.554 145.561 70.77 144.595 70.77ZM144.595 69.249C145.603 69.249 146.353 68.913 146.845 68.241C147.337 67.569 147.583 66.699 147.583 65.631C147.583 64.533 147.334 63.66 146.836 63.012C146.338 62.358 145.591 62.031 144.595 62.031C143.917 62.031 143.359 62.184 142.921 62.49C142.483 62.796 142.156 63.219 141.94 63.759C141.724 64.299 141.616 64.923 141.616 65.631C141.616 66.723 141.868 67.599 142.372 68.259C142.876 68.919 143.617 69.249 144.595 69.249ZM151.568 70.5V60.78H152.999V63.129L152.765 62.823C152.879 62.523 153.026 62.247 153.206 61.995C153.392 61.743 153.599 61.536 153.827 61.374C154.079 61.17 154.364 61.014 154.682 60.906C155 60.798 155.324 60.735 155.654 60.717C155.984 60.693 156.293 60.714 156.581 60.78V62.283C156.245 62.193 155.876 62.169 155.474 62.211C155.072 62.253 154.7 62.4 154.358 62.652C154.046 62.874 153.803 63.144 153.629 63.462C153.461 63.78 153.344 64.125 153.278 64.497C153.212 64.863 153.179 65.238 153.179 65.622V70.5H151.568Z" fill="black"></path> </g> <g filter="url(#filter2_dd_8966_55275)"> <path d="M234.226 56.8111C233.835 56.4206 233.202 56.4206 232.811 56.8111C232.421 57.2016 232.421 57.8348 232.811 58.2253L238.586 64L232.812 69.7747C232.421 70.1652 232.421 70.7984 232.812 71.1889C233.202 71.5794 233.835 71.5794 234.226 71.1889L240 65.4142L245.775 71.1889C246.166 71.5794 246.799 71.5794 247.189 71.1889C247.58 70.7984 247.58 70.1652 247.189 69.7747L241.415 64L247.189 58.2253C247.58 57.8348 247.58 57.2016 247.189 56.8111C246.799 56.4206 246.166 56.4206 245.775 56.8111L240 62.5858L234.226 56.8111Z" fill="#BF710F"></path> </g> <rect x="37" y="16" width="89" height="24" rx="4" fill="white"></rect> <path d="M45.48 33.21C44.7753 33.21 44.1407 33.0933 43.576 32.86C43.016 32.622 42.5517 32.286 42.183 31.852C41.819 31.418 41.581 30.9023 41.469 30.305L42.519 30.13C42.687 30.7833 43.0417 31.2967 43.583 31.67C44.1243 32.0387 44.7707 32.223 45.522 32.223C46.0167 32.223 46.46 32.146 46.852 31.992C47.244 31.8333 47.552 31.6093 47.776 31.32C48 31.0307 48.112 30.6877 48.112 30.291C48.112 30.0297 48.0653 29.808 47.972 29.626C47.8787 29.4393 47.755 29.2853 47.601 29.164C47.447 29.0427 47.279 28.9423 47.097 28.863C46.915 28.779 46.7377 28.7113 46.565 28.66L44.01 27.897C43.702 27.8083 43.4173 27.6963 43.156 27.561C42.8947 27.421 42.666 27.2553 42.47 27.064C42.2787 26.868 42.1293 26.6393 42.022 26.378C41.9147 26.1167 41.861 25.818 41.861 25.482C41.861 24.9127 42.0103 24.4203 42.309 24.005C42.6077 23.5897 43.016 23.27 43.534 23.046C44.052 22.822 44.6423 22.7123 45.305 22.717C45.977 22.717 46.5767 22.836 47.104 23.074C47.636 23.312 48.0747 23.6527 48.42 24.096C48.7653 24.5347 48.994 25.055 49.106 25.657L48.028 25.853C47.958 25.4143 47.797 25.034 47.545 24.712C47.293 24.39 46.971 24.1427 46.579 23.97C46.1917 23.7927 45.7647 23.7017 45.298 23.697C44.8453 23.697 44.4417 23.774 44.087 23.928C43.737 24.0773 43.4593 24.2827 43.254 24.544C43.0487 24.8053 42.946 25.104 42.946 25.44C42.946 25.7807 43.0393 26.0537 43.226 26.259C43.4173 26.4643 43.6507 26.6253 43.926 26.742C44.206 26.8587 44.4767 26.9543 44.738 27.029L46.712 27.61C46.9173 27.666 47.1577 27.7477 47.433 27.855C47.713 27.9577 47.9837 28.107 48.245 28.303C48.511 28.4943 48.7303 28.7463 48.903 29.059C49.0757 29.3717 49.162 29.7683 49.162 30.249C49.162 30.7157 49.0687 31.1333 48.882 31.502C48.7 31.8707 48.441 32.181 48.105 32.433C47.7737 32.685 47.384 32.8763 46.936 33.007C46.4927 33.1423 46.0073 33.21 45.48 33.21ZM54.0412 33.21C53.3038 33.21 52.6645 33.0467 52.1232 32.72C51.5865 32.3933 51.1688 31.9337 50.8702 31.341C50.5715 30.7483 50.4222 30.053 50.4222 29.255C50.4222 28.429 50.5692 27.715 50.8632 27.113C51.1572 26.511 51.5702 26.0467 52.1022 25.72C52.6388 25.3933 53.2712 25.23 53.9992 25.23C54.7458 25.23 55.3828 25.4027 55.9102 25.748C56.4375 26.0887 56.8365 26.5787 57.1072 27.218C57.3778 27.8573 57.5015 28.6203 57.4782 29.507H56.4282V29.143C56.4095 28.163 56.1972 27.4233 55.7912 26.924C55.3898 26.4247 54.8018 26.175 54.0272 26.175C53.2152 26.175 52.5922 26.4387 52.1582 26.966C51.7288 27.4933 51.5142 28.2447 51.5142 29.22C51.5142 30.172 51.7288 30.9117 52.1582 31.439C52.5922 31.9617 53.2058 32.223 53.9992 32.223C54.5405 32.223 55.0118 32.0993 55.4132 31.852C55.8192 31.6 56.1388 31.2383 56.3722 30.767L57.3312 31.138C57.0325 31.796 56.5915 32.307 56.0082 32.671C55.4295 33.0303 54.7738 33.21 54.0412 33.21ZM51.1502 29.507V28.646H56.9252V29.507H51.1502ZM61.2931 33.21C60.7238 33.21 60.2454 33.1073 59.8581 32.902C59.4754 32.6967 59.1884 32.4237 58.9971 32.083C58.8058 31.7423 58.7101 31.3713 58.7101 30.97C58.7101 30.5593 58.7918 30.2093 58.9551 29.92C59.1231 29.626 59.3494 29.3857 59.6341 29.199C59.9234 29.0123 60.2571 28.87 60.6351 28.772C61.0178 28.6787 61.4401 28.597 61.9021 28.527C62.3688 28.4523 62.8238 28.3893 63.2671 28.338C63.7151 28.282 64.1071 28.2283 64.4431 28.177L64.0791 28.401C64.0931 27.6543 63.9484 27.1013 63.6451 26.742C63.3418 26.3827 62.8144 26.203 62.0631 26.203C61.5451 26.203 61.1064 26.3197 60.7471 26.553C60.3924 26.7863 60.1428 27.155 59.9981 27.659L58.9971 27.365C59.1698 26.6883 59.5174 26.1633 60.0401 25.79C60.5628 25.4167 61.2418 25.23 62.0771 25.23C62.7678 25.23 63.3534 25.3607 63.8341 25.622C64.3194 25.8787 64.6624 26.252 64.8631 26.742C64.9564 26.9613 65.0171 27.2063 65.0451 27.477C65.0731 27.7477 65.0871 28.023 65.0871 28.303V33H64.1701V31.103L64.4361 31.215C64.1794 31.8637 63.7804 32.3583 63.2391 32.699C62.6978 33.0397 62.0491 33.21 61.2931 33.21ZM61.4121 32.321C61.8928 32.321 62.3128 32.2347 62.6721 32.062C63.0314 31.8893 63.3208 31.6537 63.5401 31.355C63.7594 31.0517 63.9018 30.711 63.9671 30.333C64.0231 30.0903 64.0534 29.8243 64.0581 29.535C64.0628 29.241 64.0651 29.0217 64.0651 28.877L64.4571 29.08C64.1071 29.1267 63.7268 29.1733 63.3161 29.22C62.9101 29.2667 62.5088 29.3203 62.1121 29.381C61.7201 29.4417 61.3654 29.514 61.0481 29.598C60.8334 29.6587 60.6258 29.745 60.4251 29.857C60.2244 29.9643 60.0588 30.109 59.9281 30.291C59.8021 30.473 59.7391 30.6993 59.7391 30.97C59.7391 31.1893 59.7928 31.4017 59.9001 31.607C60.0121 31.8123 60.1894 31.9827 60.4321 32.118C60.6794 32.2533 61.0061 32.321 61.4121 32.321ZM67.1446 33V25.44H68.0686V27.26L67.8866 27.022C67.9706 26.798 68.0803 26.5927 68.2156 26.406C68.3509 26.2147 68.4979 26.0583 68.6566 25.937C68.8526 25.7643 69.0813 25.6337 69.3426 25.545C69.6039 25.4517 69.8676 25.398 70.1336 25.384C70.3996 25.3653 70.6423 25.384 70.8616 25.44V26.406C70.5863 26.336 70.2853 26.3197 69.9586 26.357C69.6319 26.3943 69.3309 26.525 69.0556 26.749C68.8036 26.945 68.6146 27.1807 68.4886 27.456C68.3626 27.7267 68.2786 28.016 68.2366 28.324C68.1946 28.6273 68.1736 28.9283 68.1736 29.227V33H67.1446ZM75.424 33.21C74.6633 33.21 74.0193 33.0397 73.492 32.699C72.9647 32.3583 72.5633 31.8893 72.288 31.292C72.0173 30.69 71.8773 29.9993 71.868 29.22C71.8773 28.4267 72.022 27.7313 72.302 27.134C72.582 26.532 72.9857 26.0653 73.513 25.734C74.0403 25.398 74.6797 25.23 75.431 25.23C76.1963 25.23 76.8613 25.4167 77.426 25.79C77.9953 26.1633 78.385 26.6743 78.595 27.323L77.587 27.645C77.4097 27.1923 77.1273 26.8423 76.74 26.595C76.3573 26.343 75.9187 26.217 75.424 26.217C74.8687 26.217 74.409 26.3453 74.045 26.602C73.681 26.854 73.4103 27.2063 73.233 27.659C73.0557 28.1117 72.9647 28.632 72.96 29.22C72.9693 30.1253 73.1793 30.8533 73.59 31.404C74.0007 31.95 74.612 32.223 75.424 32.223C75.9373 32.223 76.3737 32.1063 76.733 31.873C77.097 31.635 77.3723 31.2897 77.559 30.837L78.595 31.145C78.315 31.817 77.9043 32.3303 77.363 32.685C76.8217 33.035 76.1753 33.21 75.424 33.21ZM85.7351 33V29.143C85.7351 28.723 85.6955 28.338 85.6161 27.988C85.5368 27.6333 85.4085 27.3253 85.2311 27.064C85.0585 26.798 84.8321 26.5927 84.5521 26.448C84.2768 26.3033 83.9408 26.231 83.5441 26.231C83.1801 26.231 82.8581 26.294 82.5781 26.42C82.3028 26.546 82.0695 26.728 81.8781 26.966C81.6915 27.1993 81.5491 27.484 81.4511 27.82C81.3531 28.156 81.3041 28.5387 81.3041 28.968L80.5761 28.807C80.5761 28.0323 80.7115 27.3813 80.9821 26.854C81.2528 26.3267 81.6261 25.9277 82.1021 25.657C82.5781 25.3863 83.1241 25.251 83.7401 25.251C84.1928 25.251 84.5871 25.321 84.9231 25.461C85.2638 25.601 85.5508 25.79 85.7841 26.028C86.0221 26.266 86.2135 26.539 86.3581 26.847C86.5028 27.1503 86.6078 27.4747 86.6731 27.82C86.7385 28.1607 86.7711 28.5013 86.7711 28.842V33H85.7351ZM80.2681 33V22.92H81.1991V28.611H81.3041V33H80.2681ZM97.3208 33V29.143C97.3208 28.723 97.2811 28.338 97.2018 27.988C97.1224 27.6333 96.9941 27.3253 96.8168 27.064C96.6441 26.798 96.4178 26.5927 96.1378 26.448C95.8624 26.3033 95.5264 26.231 95.1298 26.231C94.7658 26.231 94.4438 26.294 94.1638 26.42C93.8884 26.546 93.6551 26.728 93.4638 26.966C93.2771 27.1993 93.1348 27.484 93.0368 27.82C92.9388 28.156 92.8898 28.5387 92.8898 28.968L92.1618 28.807C92.1618 28.0323 92.2971 27.3813 92.5678 26.854C92.8384 26.3267 93.2118 25.9277 93.6878 25.657C94.1638 25.3863 94.7098 25.251 95.3258 25.251C95.7784 25.251 96.1728 25.321 96.5088 25.461C96.8494 25.601 97.1364 25.79 97.3698 26.028C97.6078 26.266 97.7991 26.539 97.9438 26.847C98.0884 27.1503 98.1934 27.4747 98.2588 27.82C98.3241 28.1607 98.3568 28.5013 98.3568 28.842V33H97.3208ZM91.8538 33V22.92H92.7848V28.611H92.8898V33H91.8538ZM103.607 33.21C102.87 33.21 102.231 33.0467 101.689 32.72C101.153 32.3933 100.735 31.9337 100.436 31.341C100.138 30.7483 99.9885 30.053 99.9885 29.255C99.9885 28.429 100.135 27.715 100.429 27.113C100.723 26.511 101.136 26.0467 101.668 25.72C102.205 25.3933 102.837 25.23 103.565 25.23C104.312 25.23 104.949 25.4027 105.476 25.748C106.004 26.0887 106.403 26.5787 106.673 27.218C106.944 27.8573 107.068 28.6203 107.044 29.507H105.994V29.143C105.976 28.163 105.763 27.4233 105.357 26.924C104.956 26.4247 104.368 26.175 103.593 26.175C102.781 26.175 102.158 26.4387 101.724 26.966C101.295 27.4933 101.08 28.2447 101.08 29.22C101.08 30.172 101.295 30.9117 101.724 31.439C102.158 31.9617 102.772 32.223 103.565 32.223C104.107 32.223 104.578 32.0993 104.979 31.852C105.385 31.6 105.705 31.2383 105.938 30.767L106.897 31.138C106.599 31.796 106.158 32.307 105.574 32.671C104.996 33.0303 104.34 33.21 103.607 33.21ZM100.716 29.507V28.646H106.491V29.507H100.716ZM108.833 33V25.44H109.757V27.26L109.575 27.022C109.659 26.798 109.769 26.5927 109.904 26.406C110.039 26.2147 110.186 26.0583 110.345 25.937C110.541 25.7643 110.77 25.6337 111.031 25.545C111.292 25.4517 111.556 25.398 111.822 25.384C112.088 25.3653 112.331 25.384 112.55 25.44V26.406C112.275 26.336 111.974 26.3197 111.647 26.357C111.32 26.3943 111.019 26.525 110.744 26.749C110.492 26.945 110.303 27.1807 110.177 27.456C110.051 27.7267 109.967 28.016 109.925 28.324C109.883 28.6273 109.862 28.9283 109.862 29.227V33H108.833ZM117.176 33.21C116.438 33.21 115.799 33.0467 115.258 32.72C114.721 32.3933 114.303 31.9337 114.005 31.341C113.706 30.7483 113.557 30.053 113.557 29.255C113.557 28.429 113.704 27.715 113.998 27.113C114.292 26.511 114.705 26.0467 115.237 25.72C115.773 25.3933 116.406 25.23 117.134 25.23C117.88 25.23 118.517 25.4027 119.045 25.748C119.572 26.0887 119.971 26.5787 120.242 27.218C120.512 27.8573 120.636 28.6203 120.613 29.507H119.563V29.143C119.544 28.163 119.332 27.4233 118.926 26.924C118.524 26.4247 117.936 26.175 117.162 26.175C116.35 26.175 115.727 26.4387 115.293 26.966C114.863 27.4933 114.649 28.2447 114.649 29.22C114.649 30.172 114.863 30.9117 115.293 31.439C115.727 31.9617 116.34 32.223 117.134 32.223C117.675 32.223 118.146 32.0993 118.548 31.852C118.954 31.6 119.273 31.2383 119.507 30.767L120.466 31.138C120.167 31.796 119.726 32.307 119.143 32.671C118.564 33.0303 117.908 33.21 117.176 33.21ZM114.285 29.507V28.646H120.06V29.507H114.285Z" fill="#616161"></path> <g filter="url(#filter3_dd_8966_55275)"> <rect x="159" y="50" width="2.5" height="28" rx="1.12281" fill="#1672EC"></rect> </g> <rect x="0.75" y="0.75" width="302.5" height="118.5" rx="19.25" stroke="#F7F7F7" stroke-width="1.5"></rect> <defs> <filter id="filter0_ii_8966_55275" x="40" y="40" width="224" height="51" filterUnits="userSpaceOnUse" color-interpolation-filters="sRGB"> <feFlood flood-opacity="0" result="BackgroundImageFix"></feFlood> <feBlend mode="normal" in="SourceGraphic" in2="BackgroundImageFix" result="shape"></feBlend> <feColorMatrix in="SourceAlpha" type="matrix" values="0 0 0 0 0 0 0 0 0 0 0 0 0 0 0 0 0 0 127 0" result="hardAlpha"></feColorMatrix> <feOffset dy="3"></feOffset> <feGaussianBlur stdDeviation="3"></feGaussianBlur> <feComposite in2="hardAlpha" operator="arithmetic" k2="-1" k3="1"></feComposite> <feColorMatrix type="matrix" values="0 0 0 0 0 0 0 0 0 0 0 0 0 0 0 0 0 0 0.06 0"></feColorMatrix> <feBlend mode="normal" in2="shape" result="effect1_innerShadow_8966_55275"></feBlend> <feColorMatrix in="SourceAlpha" type="matrix" values="0 0 0 0 0 0 0 0 0 0 0 0 0 0 0 0 0 0 127 0" result="hardAlpha"></feColorMatrix> <feOffset dy="1"></feOffset> <feGaussianBlur stdDeviation="1"></feGaussianBlur> <feComposite in2="hardAlpha" operator="arithmetic" k2="-1" k3="1"></feComposite> <feColorMatrix type="matrix" values="0 0 0 0 0 0 0 0 0 0 0 0 0 0 0 0 0 0 0.12 0"></feColorMatrix> <feBlend mode="normal" in2="effect1_innerShadow_8966_55275" result="effect2_innerShadow_8966_55275"></feBlend> </filter> <filter id="filter1_d_8966_55275" x="86.2598" y="57.54" width="71.3213" height="19.28" filterUnits="userSpaceOnUse" color-interpolation-filters="sRGB"> <feFlood flood-opacity="0" result="BackgroundImageFix"></feFlood> <feColorMatrix in="SourceAlpha" type="matrix" values="0 0 0 0 0 0 0 0 0 0 0 0 0 0 0 0 0 0 127 0" result="hardAlpha"></feColorMatrix> <feOffset dy="1"></feOffset> <feGaussianBlur stdDeviation="0.5"></feGaussianBlur> <feComposite in2="hardAlpha" operator="out"></feComposite> <feColorMatrix type="matrix" values="0 0 0 0 1 0 0 0 0 1 0 0 0 0 1 0 0 0 1 0"></feColorMatrix> <feBlend mode="normal" in2="BackgroundImageFix" result="effect1_dropShadow_8966_55275"></feBlend> <feBlend mode="normal" in="SourceGraphic" in2="effect1_dropShadow_8966_55275" result="shape"></feBlend> </filter> <filter id="filter2_dd_8966_55275" x="216.519" y="48.5182" width="46.9639" height="46.9636" filterUnits="userSpaceOnUse" color-interpolation-filters="sRGB"> <feFlood flood-opacity="0" result="BackgroundImageFix"></feFlood> <feColorMatrix in="SourceAlpha" type="matrix" values="0 0 0 0 0 0 0 0 0 0 0 0 0 0 0 0 0 0 127 0" result="hardAlpha"></feColorMatrix> <feOffset dy="8"></feOffset> <feGaussianBlur stdDeviation="8"></feGaussianBlur> <feColorMatrix type="matrix" values="0 0 0 0 0.74902 0 0 0 0 0.443137 0 0 0 0 0.0588235 0 0 0 0.14 0"></feColorMatrix> <feBlend mode="multiply" in2="BackgroundImageFix" result="effect1_dropShadow_8966_55275"></feBlend> <feColorMatrix in="SourceAlpha" type="matrix" values="0 0 0 0 0 0 0 0 0 0 0 0 0 0 0 0 0 0 127 0" result="hardAlpha"></feColorMatrix> <feOffset dy="4"></feOffset> <feGaussianBlur stdDeviation="4"></feGaussianBlur> <feColorMatrix type="matrix" values="0 0 0 0 0.74902 0 0 0 0 0.443137 0 0 0 0 0.0588235 0 0 0 0.14 0"></feColorMatrix> <feBlend mode="multiply" in2="effect1_dropShadow_8966_55275" result="effect2_dropShadow_8966_55275"></feBlend> <feBlend mode="normal" in="SourceGraphic" in2="effect2_dropShadow_8966_55275" result="shape"></feBlend> </filter> <filter id="filter3_dd_8966_55275" x="150.018" y="45.5088" width="20.4649" height="45.9649" filterUnits="userSpaceOnUse" color-interpolation-filters="sRGB"> <feFlood flood-opacity="0" result="BackgroundImageFix"></feFlood> <feColorMatrix in="SourceAlpha" type="matrix" values="0 0 0 0 0 0 0 0 0 0 0 0 0 0 0 0 0 0 127 0" result="hardAlpha"></feColorMatrix> <feOffset dy="4.49123"></feOffset> <feGaussianBlur stdDeviation="4.49123"></feGaussianBlur> <feColorMatrix type="matrix" values="0 0 0 0 0.0588235 0 0 0 0 0.337255 0 0 0 0 0.701961 0 0 0 0.14 0"></feColorMatrix> <feBlend mode="multiply" in2="BackgroundImageFix" result="effect1_dropShadow_8966_55275"></feBlend> <feColorMatrix in="SourceAlpha" type="matrix" values="0 0 0 0 0 0 0 0 0 0 0 0 0 0 0 0 0 0 127 0" result="hardAlpha"></feColorMatrix> <feOffset dy="2.24561"></feOffset> <feGaussianBlur stdDeviation="2.24561"></feGaussianBlur> <feColorMatrix type="matrix" values="0 0 0 0 0.0588235 0 0 0 0 0.337255 0 0 0 0 0.701961 0 0 0 0.14 0"></feColorMatrix> <feBlend mode="multiply" in2="effect1_dropShadow_8966_55275" result="effect2_dropShadow_8966_55275"></feBlend> <feBlend mode="normal" in="SourceGraphic" in2="effect2_dropShadow_8966_55275" result="shape"></feBlend> </filter> <linearGradient id="paint0_linear_8966_55275" x1="152" y1="0" x2="152" y2="120" gradientUnits="userSpaceOnUse"> <stop stop-color="white"></stop> <stop offset="0.8125" stop-color="#FAF9FA"></stop> </linearGradient> <linearGradient id="paint1_linear_8966_55275" x1="152" y1="40" x2="152" y2="88" gradientUnits="userSpaceOnUse"> <stop stop-color="#F5F5F5"></stop> <stop offset="1" stop-color="white"></stop> </linearGradient> <linearGradient id="paint2_linear_8966_55275" x1="152" y1="40" x2="152" y2="88" gradientUnits="userSpaceOnUse"> <stop stop-color="#EEEEEE" stop-opacity="0"></stop> <stop offset="1" stop-color="#F1F0F4"></stop> </linearGradient> </defs> </svg> 