<?xml version="1.0" encoding="UTF-8"?> <svg xmlns="http://www.w3.org/2000/svg" width="288" height="215" viewBox="0 0 288 215" fill="none"> <rect x="0.75" y="0.75" width="286.5" height="213.5" rx="19.25" fill="url(#paint0_linear_8969_164923)"></rect> <g filter="url(#filter0_ii_8969_164923)"> <rect x="40" y="40" width="208" height="48" rx="10" fill="url(#paint1_linear_8969_164923)"></rect> </g> <rect x="40.5" y="40.5" width="207" height="47" rx="9.5" stroke="url(#paint2_linear_8969_164923)"></rect> <g filter="url(#filter1_d_8969_164923)"> <path d="M57.31 70.5V59.61L54.871 61.095V58.998L57.31 57.54H59.227V70.5H57.31ZM68.9005 70.77C68.2345 70.77 67.6135 70.635 67.0375 70.365C66.4675 70.089 65.9785 69.711 65.5705 69.231C65.1625 68.745 64.8715 68.187 64.6975 67.557L66.5065 67.071C66.6085 67.455 66.7825 67.788 67.0285 68.07C67.2805 68.352 67.5745 68.571 67.9105 68.727C68.2465 68.877 68.5945 68.952 68.9545 68.952C69.4285 68.952 69.8575 68.838 70.2415 68.61C70.6315 68.382 70.9375 68.076 71.1595 67.692C71.3875 67.308 71.5015 66.885 71.5015 66.423C71.5015 65.949 71.3845 65.52 71.1505 65.136C70.9225 64.752 70.6135 64.449 70.2235 64.227C69.8395 63.999 69.4165 63.885 68.9545 63.885C68.4265 63.885 67.9795 63.99 67.6135 64.2C67.2475 64.41 66.9625 64.653 66.7585 64.929L65.1205 64.353L65.5165 57.54H72.5095V59.313H66.4795L67.2445 58.602L66.9295 63.705L66.5605 63.228C66.9025 62.886 67.3105 62.625 67.7845 62.445C68.2585 62.265 68.7295 62.175 69.1975 62.175C70.0015 62.175 70.7185 62.361 71.3485 62.733C71.9845 63.105 72.4855 63.612 72.8515 64.254C73.2175 64.89 73.4005 65.613 73.4005 66.423C73.4005 67.227 73.1935 67.959 72.7795 68.619C72.3655 69.273 71.8165 69.795 71.1325 70.185C70.4485 70.575 69.7045 70.77 68.9005 70.77ZM76.009 72.651L76.126 71.814C76.384 71.832 76.585 71.784 76.729 71.67C76.873 71.556 76.969 71.397 77.017 71.193C77.065 70.989 77.074 70.758 77.044 70.5H76.009V68.331H77.998V70.68C77.998 71.388 77.827 71.922 77.485 72.282C77.149 72.642 76.657 72.765 76.009 72.651ZM86.0411 70.77C85.1651 70.77 84.3851 70.578 83.7011 70.194C83.0231 69.804 82.4891 69.27 82.0991 68.592C81.7151 67.914 81.5231 67.134 81.5231 66.252V61.788C81.5231 60.906 81.7151 60.126 82.0991 59.448C82.4891 58.77 83.0231 58.239 83.7011 57.855C84.3851 57.465 85.1651 57.27 86.0411 57.27C86.9231 57.27 87.7031 57.465 88.3811 57.855C89.0591 58.239 89.5901 58.77 89.9741 59.448C90.3641 60.126 90.5591 60.906 90.5591 61.788V66.252C90.5591 67.134 90.3641 67.914 89.9741 68.592C89.5901 69.27 89.0591 69.804 88.3811 70.194C87.7031 70.578 86.9231 70.77 86.0411 70.77ZM86.0411 68.97C86.5271 68.97 86.9651 68.856 87.3551 68.628C87.7511 68.394 88.0631 68.082 88.2911 67.692C88.5251 67.296 88.6421 66.855 88.6421 66.369V61.653C88.6421 61.173 88.5251 60.738 88.2911 60.348C88.0631 59.952 87.7511 59.64 87.3551 59.412C86.9651 59.178 86.5271 59.061 86.0411 59.061C85.5611 59.061 85.1231 59.178 84.7271 59.412C84.3371 59.64 84.0251 59.952 83.7911 60.348C83.5631 60.738 83.4491 61.173 83.4491 61.653V66.369C83.4491 66.855 83.5631 67.296 83.7911 67.692C84.0251 68.082 84.3371 68.394 84.7271 68.628C85.1231 68.856 85.5611 68.97 86.0411 68.97ZM97.5056 70.77C96.6296 70.77 95.8496 70.578 95.1656 70.194C94.4876 69.804 93.9536 69.27 93.5636 68.592C93.1796 67.914 92.9876 67.134 92.9876 66.252V61.788C92.9876 60.906 93.1796 60.126 93.5636 59.448C93.9536 58.77 94.4876 58.239 95.1656 57.855C95.8496 57.465 96.6296 57.27 97.5056 57.27C98.3876 57.27 99.1676 57.465 99.8456 57.855C100.524 58.239 101.055 58.77 101.439 59.448C101.829 60.126 102.024 60.906 102.024 61.788V66.252C102.024 67.134 101.829 67.914 101.439 68.592C101.055 69.27 100.524 69.804 99.8456 70.194C99.1676 70.578 98.3876 70.77 97.5056 70.77ZM97.5056 68.97C97.9916 68.97 98.4296 68.856 98.8196 68.628C99.2156 68.394 99.5276 68.082 99.7556 67.692C99.9896 67.296 100.107 66.855 100.107 66.369V61.653C100.107 61.173 99.9896 60.738 99.7556 60.348C99.5276 59.952 99.2156 59.64 98.8196 59.412C98.4296 59.178 97.9916 59.061 97.5056 59.061C97.0256 59.061 96.5876 59.178 96.1916 59.412C95.8016 59.64 95.4896 59.952 95.2556 60.348C95.0276 60.738 94.9136 61.173 94.9136 61.653V66.369C94.9136 66.855 95.0276 67.296 95.2556 67.692C95.4896 68.082 95.8016 68.394 96.1916 68.628C96.5876 68.856 97.0256 68.97 97.5056 68.97ZM108.97 70.77C108.094 70.77 107.314 70.578 106.63 70.194C105.952 69.804 105.418 69.27 105.028 68.592C104.644 67.914 104.452 67.134 104.452 66.252V61.788C104.452 60.906 104.644 60.126 105.028 59.448C105.418 58.77 105.952 58.239 106.63 57.855C107.314 57.465 108.094 57.27 108.97 57.27C109.852 57.27 110.632 57.465 111.31 57.855C111.988 58.239 112.519 58.77 112.903 59.448C113.293 60.126 113.488 60.906 113.488 61.788V66.252C113.488 67.134 113.293 67.914 112.903 68.592C112.519 69.27 111.988 69.804 111.31 70.194C110.632 70.578 109.852 70.77 108.97 70.77ZM108.97 68.97C109.456 68.97 109.894 68.856 110.284 68.628C110.68 68.394 110.992 68.082 111.22 67.692C111.454 67.296 111.571 66.855 111.571 66.369V61.653C111.571 61.173 111.454 60.738 111.22 60.348C110.992 59.952 110.68 59.64 110.284 59.412C109.894 59.178 109.456 59.061 108.97 59.061C108.49 59.061 108.052 59.178 107.656 59.412C107.266 59.64 106.954 59.952 106.72 60.348C106.492 60.738 106.378 61.173 106.378 61.653V66.369C106.378 66.855 106.492 67.296 106.72 67.692C106.954 68.082 107.266 68.394 107.656 68.628C108.052 68.856 108.49 68.97 108.97 68.97Z" fill="black"></path> <path d="M124.476 70.77C123.564 70.77 122.796 70.545 122.172 70.095C121.548 69.639 121.074 69.024 120.75 68.25C120.432 67.47 120.273 66.597 120.273 65.631C120.273 64.653 120.432 63.777 120.75 63.003C121.074 62.229 121.548 61.62 122.172 61.176C122.802 60.732 123.573 60.51 124.485 60.51C125.385 60.51 126.159 60.735 126.807 61.185C127.461 61.629 127.962 62.238 128.31 63.012C128.658 63.786 128.832 64.659 128.832 65.631C128.832 66.603 128.658 67.476 128.31 68.25C127.962 69.024 127.461 69.639 126.807 70.095C126.159 70.545 125.382 70.77 124.476 70.77ZM120.003 74.82V60.78H121.434V67.935H121.614V74.82H120.003ZM124.278 69.303C124.92 69.303 125.451 69.141 125.871 68.817C126.291 68.493 126.606 68.055 126.816 67.503C127.026 66.945 127.131 66.321 127.131 65.631C127.131 64.947 127.026 64.329 126.816 63.777C126.612 63.225 126.294 62.787 125.862 62.463C125.436 62.139 124.893 61.977 124.233 61.977C123.603 61.977 123.081 62.133 122.667 62.445C122.253 62.751 121.944 63.18 121.74 63.732C121.536 64.278 121.434 64.911 121.434 65.631C121.434 66.339 121.533 66.972 121.731 67.53C121.935 68.082 122.247 68.517 122.667 68.835C123.087 69.147 123.624 69.303 124.278 69.303ZM136.534 70.5C135.958 70.614 135.388 70.659 134.824 70.635C134.266 70.617 133.768 70.506 133.33 70.302C132.892 70.092 132.559 69.768 132.331 69.33C132.139 68.946 132.034 68.559 132.016 68.169C132.004 67.773 131.998 67.326 131.998 66.828V58.08H133.6V66.756C133.6 67.152 133.603 67.491 133.609 67.773C133.621 68.055 133.684 68.298 133.798 68.502C134.014 68.886 134.356 69.111 134.824 69.177C135.298 69.243 135.868 69.225 136.534 69.123V70.5ZM130.027 62.103V60.78H136.534V62.103H130.027ZM142.482 70.761C141.324 70.761 140.373 70.509 139.629 70.005C138.891 69.495 138.438 68.784 138.27 67.872L139.908 67.611C140.04 68.139 140.343 68.559 140.817 68.871C141.291 69.177 141.879 69.33 142.581 69.33C143.247 69.33 143.769 69.192 144.147 68.916C144.525 68.64 144.714 68.265 144.714 67.791C144.714 67.515 144.651 67.293 144.525 67.125C144.399 66.951 144.138 66.789 143.742 66.639C143.352 66.489 142.761 66.309 141.969 66.099C141.111 65.871 140.436 65.634 139.944 65.388C139.452 65.142 139.101 64.857 138.891 64.533C138.681 64.209 138.576 63.816 138.576 63.354C138.576 62.784 138.732 62.286 139.044 61.86C139.356 61.428 139.791 61.095 140.349 60.861C140.913 60.627 141.567 60.51 142.311 60.51C143.049 60.51 143.709 60.627 144.291 60.861C144.873 61.095 145.341 61.428 145.695 61.86C146.055 62.286 146.268 62.784 146.334 63.354L144.696 63.651C144.618 63.129 144.366 62.718 143.94 62.418C143.52 62.118 142.977 61.959 142.311 61.941C141.681 61.917 141.168 62.028 140.772 62.274C140.382 62.52 140.187 62.853 140.187 63.273C140.187 63.507 140.259 63.708 140.403 63.876C140.553 64.044 140.826 64.203 141.222 64.353C141.624 64.503 142.206 64.674 142.968 64.866C143.826 65.082 144.501 65.319 144.993 65.577C145.491 65.829 145.845 66.129 146.055 66.477C146.265 66.819 146.37 67.242 146.37 67.746C146.37 68.682 146.025 69.42 145.335 69.96C144.645 70.494 143.694 70.761 142.482 70.761ZM148.945 70.5V68.736H150.709V70.5H148.945Z" fill="#A1A1A1"></path> </g> <rect x="37" y="16" width="66" height="24" rx="4" fill="white"></rect> <path d="M49.897 33.203L47.209 30.529L47.909 29.829L50.583 32.503L49.897 33.203ZM46.061 33.21C45.0577 33.21 44.2107 32.9883 43.52 32.545C42.8293 32.097 42.3067 31.4787 41.952 30.69C41.5973 29.9013 41.42 28.9913 41.42 27.96C41.42 26.9287 41.5973 26.0187 41.952 25.23C42.3067 24.4413 42.8293 23.8253 43.52 23.382C44.2107 22.934 45.0577 22.71 46.061 22.71C47.069 22.71 47.916 22.934 48.602 23.382C49.2927 23.8253 49.8153 24.4413 50.17 25.23C50.5293 26.0187 50.709 26.9287 50.709 27.96C50.709 28.9913 50.5293 29.9013 50.17 30.69C49.8153 31.4787 49.2927 32.097 48.602 32.545C47.916 32.9883 47.069 33.21 46.061 33.21ZM46.061 32.223C46.8497 32.223 47.5077 32.0433 48.035 31.684C48.5623 31.3247 48.9567 30.8253 49.218 30.186C49.484 29.542 49.617 28.8 49.617 27.96C49.617 27.12 49.484 26.3803 49.218 25.741C48.9567 25.1017 48.5623 24.6023 48.035 24.243C47.5077 23.8837 46.8497 23.7017 46.061 23.697C45.2723 23.697 44.6167 23.8767 44.094 24.236C43.5713 24.5953 43.177 25.097 42.911 25.741C42.6497 26.3803 42.5167 27.12 42.512 27.96C42.5073 28.8 42.6357 29.5397 42.897 30.179C43.163 30.8137 43.5597 31.313 44.087 31.677C44.6143 32.0363 45.2723 32.2183 46.061 32.223ZM55.2371 33.189C54.7844 33.189 54.3877 33.119 54.0471 32.979C53.7111 32.839 53.4241 32.65 53.1861 32.412C52.9527 32.174 52.7637 31.9033 52.6191 31.6C52.4744 31.292 52.3694 30.9677 52.3041 30.627C52.2387 30.2817 52.2061 29.9387 52.2061 29.598V25.44H53.2421V29.297C53.2421 29.7123 53.2817 30.0973 53.3611 30.452C53.4404 30.8067 53.5664 31.117 53.7391 31.383C53.9164 31.6443 54.1427 31.8473 54.4181 31.992C54.6981 32.1367 55.0364 32.209 55.4331 32.209C55.7971 32.209 56.1167 32.146 56.3921 32.02C56.6721 31.894 56.9054 31.7143 57.0921 31.481C57.2834 31.243 57.4281 30.956 57.5261 30.62C57.6241 30.2793 57.6731 29.8967 57.6731 29.472L58.4011 29.633C58.4011 30.4077 58.2657 31.0587 57.9951 31.586C57.7244 32.1133 57.3511 32.5123 56.8751 32.783C56.3991 33.0537 55.8531 33.189 55.2371 33.189ZM57.7781 33V31.138H57.6731V25.44H58.7021V33H57.7781ZM63.0568 33.21C62.4874 33.21 62.0091 33.1073 61.6218 32.902C61.2391 32.6967 60.9521 32.4237 60.7608 32.083C60.5694 31.7423 60.4738 31.3713 60.4738 30.97C60.4738 30.5593 60.5554 30.2093 60.7188 29.92C60.8868 29.626 61.1131 29.3857 61.3978 29.199C61.6871 29.0123 62.0208 28.87 62.3988 28.772C62.7814 28.6787 63.2038 28.597 63.6658 28.527C64.1324 28.4523 64.5874 28.3893 65.0308 28.338C65.4788 28.282 65.8708 28.2283 66.2068 28.177L65.8428 28.401C65.8568 27.6543 65.7121 27.1013 65.4088 26.742C65.1054 26.3827 64.5781 26.203 63.8268 26.203C63.3088 26.203 62.8701 26.3197 62.5108 26.553C62.1561 26.7863 61.9064 27.155 61.7618 27.659L60.7608 27.365C60.9334 26.6883 61.2811 26.1633 61.8038 25.79C62.3264 25.4167 63.0054 25.23 63.8408 25.23C64.5314 25.23 65.1171 25.3607 65.5978 25.622C66.0831 25.8787 66.4261 26.252 66.6268 26.742C66.7201 26.9613 66.7808 27.2063 66.8088 27.477C66.8368 27.7477 66.8508 28.023 66.8508 28.303V33H65.9338V31.103L66.1998 31.215C65.9431 31.8637 65.5441 32.3583 65.0028 32.699C64.4614 33.0397 63.8128 33.21 63.0568 33.21ZM63.1758 32.321C63.6564 32.321 64.0764 32.2347 64.4358 32.062C64.7951 31.8893 65.0844 31.6537 65.3038 31.355C65.5231 31.0517 65.6654 30.711 65.7308 30.333C65.7868 30.0903 65.8171 29.8243 65.8218 29.535C65.8264 29.241 65.8288 29.0217 65.8288 28.877L66.2208 29.08C65.8708 29.1267 65.4904 29.1733 65.0798 29.22C64.6738 29.2667 64.2724 29.3203 63.8758 29.381C63.4838 29.4417 63.1291 29.514 62.8118 29.598C62.5971 29.6587 62.3894 29.745 62.1888 29.857C61.9881 29.9643 61.8224 30.109 61.6918 30.291C61.5658 30.473 61.5028 30.6993 61.5028 30.97C61.5028 31.1893 61.5564 31.4017 61.6638 31.607C61.7758 31.8123 61.9531 31.9827 62.1958 32.118C62.4431 32.2533 62.7698 32.321 63.1758 32.321ZM74.3683 33V29.143C74.3683 28.723 74.3286 28.338 74.2493 27.988C74.1699 27.6333 74.0416 27.3253 73.8643 27.064C73.6916 26.798 73.4653 26.5927 73.1853 26.448C72.9099 26.3033 72.5739 26.231 72.1773 26.231C71.8133 26.231 71.4913 26.294 71.2113 26.42C70.9359 26.546 70.7026 26.728 70.5113 26.966C70.3246 27.1993 70.1823 27.484 70.0843 27.82C69.9863 28.156 69.9373 28.5387 69.9373 28.968L69.2093 28.807C69.2093 28.0323 69.3446 27.3813 69.6153 26.854C69.8859 26.3267 70.2593 25.9277 70.7353 25.657C71.2113 25.3863 71.7573 25.251 72.3733 25.251C72.8259 25.251 73.2203 25.321 73.5563 25.461C73.8969 25.601 74.1839 25.79 74.4173 26.028C74.6553 26.266 74.8466 26.539 74.9913 26.847C75.1359 27.1503 75.2409 27.4747 75.3063 27.82C75.3716 28.1607 75.4043 28.5013 75.4043 28.842V33H74.3683ZM68.9013 33V25.44H69.8323V27.302H69.9373V33H68.9013ZM81.572 33C81.1473 33.0887 80.7273 33.1237 80.312 33.105C79.9013 33.0863 79.5326 32.9977 79.206 32.839C78.884 32.6803 78.639 32.433 78.471 32.097C78.3356 31.817 78.261 31.5347 78.247 31.25C78.2376 30.9607 78.233 30.6317 78.233 30.263V23.34H79.255V30.221C79.255 30.5383 79.2573 30.8043 79.262 31.019C79.2713 31.229 79.3203 31.4157 79.409 31.579C79.577 31.8917 79.843 32.0783 80.207 32.139C80.5756 32.1997 81.0306 32.1857 81.572 32.097V33ZM76.616 26.322V25.44H81.572V26.322H76.616ZM83.4366 24.005V22.85H84.4656V24.005H83.4366ZM83.4366 33V25.44H84.4656V33H83.4366ZM90.9154 33C90.4907 33.0887 90.0707 33.1237 89.6554 33.105C89.2447 33.0863 88.8761 32.9977 88.5494 32.839C88.2274 32.6803 87.9824 32.433 87.8144 32.097C87.6791 31.817 87.6044 31.5347 87.5904 31.25C87.5811 30.9607 87.5764 30.6317 87.5764 30.263V23.34H88.5984V30.221C88.5984 30.5383 88.6007 30.8043 88.6054 31.019C88.6147 31.229 88.6637 31.4157 88.7524 31.579C88.9204 31.8917 89.1864 32.0783 89.5504 32.139C89.9191 32.1997 90.3741 32.1857 90.9154 32.097V33ZM85.9594 26.322V25.44H90.9154V26.322H85.9594ZM93.513 36.36L94.976 32.391L94.997 33.567L91.686 25.44H92.778L95.494 32.237H95.046L97.552 25.44H98.602L94.542 36.36H93.513Z" fill="#616161"></path> <g clip-path="url(#clip0_8969_164923)"> <g filter="url(#filter2_dd_8969_164923)"> <path d="M224.768 76.0781C224.368 76.5579 223.631 76.5579 223.231 76.0781L217.033 68.6402C216.49 67.9889 216.954 67 217.801 67L230.198 67C231.046 67 231.509 67.9889 230.966 68.6402L224.768 76.0781Z" fill="#1672EC"></path> </g> </g> <path d="M223.232 51.9219C223.632 51.4421 224.369 51.4421 224.769 51.9219L230.967 59.3598C231.51 60.0111 231.046 61 230.199 61L217.802 61C216.954 61 216.491 60.0111 217.034 59.3598L223.232 51.9219Z" fill="#1672EC"></path> <g filter="url(#filter3_ii_8969_164923)"> <rect x="40" y="128" width="208" height="48" rx="10" fill="url(#paint3_linear_8969_164923)"></rect> </g> <rect x="40.5" y="128.5" width="207" height="47" rx="9.5" stroke="url(#paint4_linear_8969_164923)"></rect> <g filter="url(#filter4_d_8969_164923)"> <path d="M57.31 158.5V147.61L54.871 149.095V146.998L57.31 145.54H59.227V158.5H57.31ZM69.0535 158.77C68.1775 158.77 67.3975 158.578 66.7135 158.194C66.0355 157.804 65.5015 157.27 65.1115 156.592C64.7275 155.914 64.5355 155.134 64.5355 154.252V149.788C64.5355 148.906 64.7275 148.126 65.1115 147.448C65.5015 146.77 66.0355 146.239 66.7135 145.855C67.3975 145.465 68.1775 145.27 69.0535 145.27C69.9355 145.27 70.7155 145.465 71.3935 145.855C72.0715 146.239 72.6025 146.77 72.9865 147.448C73.3765 148.126 73.5715 148.906 73.5715 149.788V154.252C73.5715 155.134 73.3765 155.914 72.9865 156.592C72.6025 157.27 72.0715 157.804 71.3935 158.194C70.7155 158.578 69.9355 158.77 69.0535 158.77ZM69.0535 156.97C69.5395 156.97 69.9775 156.856 70.3675 156.628C70.7635 156.394 71.0755 156.082 71.3035 155.692C71.5375 155.296 71.6545 154.855 71.6545 154.369V149.653C71.6545 149.173 71.5375 148.738 71.3035 148.348C71.0755 147.952 70.7635 147.64 70.3675 147.412C69.9775 147.178 69.5395 147.061 69.0535 147.061C68.5735 147.061 68.1355 147.178 67.7395 147.412C67.3495 147.64 67.0375 147.952 66.8035 148.348C66.5755 148.738 66.4615 149.173 66.4615 149.653V154.369C66.4615 154.855 66.5755 155.296 66.8035 155.692C67.0375 156.082 67.3495 156.394 67.7395 156.628C68.1355 156.856 68.5735 156.97 69.0535 156.97ZM76.108 158.491L76.117 156.817L81.76 151.759C82.216 151.357 82.525 150.973 82.687 150.607C82.855 150.241 82.939 149.875 82.939 149.509C82.939 149.047 82.837 148.633 82.633 148.267C82.429 147.895 82.147 147.601 81.787 147.385C81.427 147.169 81.013 147.061 80.545 147.061C80.065 147.061 79.636 147.175 79.258 147.403C78.886 147.625 78.595 147.922 78.385 148.294C78.175 148.666 78.073 149.068 78.079 149.5H76.153C76.153 148.66 76.342 147.925 76.72 147.295C77.104 146.659 77.629 146.164 78.295 145.81C78.961 145.45 79.723 145.27 80.581 145.27C81.397 145.27 82.129 145.456 82.777 145.828C83.425 146.194 83.935 146.698 84.307 147.34C84.685 147.982 84.874 148.714 84.874 149.536C84.874 150.13 84.796 150.634 84.64 151.048C84.484 151.462 84.25 151.846 83.938 152.2C83.626 152.554 83.236 152.938 82.768 153.352L78.412 157.24L78.205 156.7H84.874V158.491H76.108ZM93.4315 158.5V156.241H87.5815V154.459L91.7935 145.54H93.9445L89.7325 154.459H93.4315V150.949H95.3395V154.459H96.6265V156.241H95.3395V158.5H93.4315Z" fill="black"></path> <path d="M107.488 158.77C106.576 158.77 105.808 158.545 105.184 158.095C104.56 157.639 104.086 157.024 103.762 156.25C103.444 155.47 103.285 154.597 103.285 153.631C103.285 152.653 103.444 151.777 103.762 151.003C104.086 150.229 104.56 149.62 105.184 149.176C105.814 148.732 106.585 148.51 107.497 148.51C108.397 148.51 109.171 148.735 109.819 149.185C110.473 149.629 110.974 150.238 111.322 151.012C111.67 151.786 111.844 152.659 111.844 153.631C111.844 154.603 111.67 155.476 111.322 156.25C110.974 157.024 110.473 157.639 109.819 158.095C109.171 158.545 108.394 158.77 107.488 158.77ZM103.015 162.82V148.78H104.446V155.935H104.626V162.82H103.015ZM107.29 157.303C107.932 157.303 108.463 157.141 108.883 156.817C109.303 156.493 109.618 156.055 109.828 155.503C110.038 154.945 110.143 154.321 110.143 153.631C110.143 152.947 110.038 152.329 109.828 151.777C109.624 151.225 109.306 150.787 108.874 150.463C108.448 150.139 107.905 149.977 107.245 149.977C106.615 149.977 106.093 150.133 105.679 150.445C105.265 150.751 104.956 151.18 104.752 151.732C104.548 152.278 104.446 152.911 104.446 153.631C104.446 154.339 104.545 154.972 104.743 155.53C104.947 156.082 105.259 156.517 105.679 156.835C106.099 157.147 106.636 157.303 107.29 157.303ZM112.811 158.5L116.528 153.586L112.892 148.78H114.8L117.464 152.344L120.101 148.78H122.009L118.373 153.586L122.099 158.5H120.182L117.464 154.828L114.728 158.5H112.811Z" fill="#A1A1A1"></path> </g> <g filter="url(#filter5_dd_8969_164923)"> <path fill-rule="evenodd" clip-rule="evenodd" d="M236 152C236 158.627 230.627 164 224 164C217.373 164 212 158.627 212 152C212 145.373 217.373 140 224 140C230.627 140 236 145.373 236 152ZM224.75 146.75C224.75 146.336 224.414 146 224 146C223.586 146 223.25 146.336 223.25 146.75V151.25H218.75C218.336 151.25 218 151.586 218 152C218 152.414 218.336 152.75 218.75 152.75H223.25V157.25C223.25 157.664 223.586 158 224 158C224.414 158 224.75 157.664 224.75 157.25V152.75H229.25C229.664 152.75 230 152.414 230 152C230 151.586 229.664 151.25 229.25 151.25H224.75V146.75Z" fill="#2AB930"></path> </g> <path fill-rule="evenodd" clip-rule="evenodd" d="M186 152C186 158.627 180.627 164 174 164C167.373 164 162 158.627 162 152C162 145.373 167.373 140 174 140C180.627 140 186 145.373 186 152ZM168.75 151.5C168.336 151.5 168 151.724 168 152C168 152.276 168.336 152.5 168.75 152.5H179.25C179.664 152.5 180 152.276 180 152C180 151.724 179.664 151.5 179.25 151.5H168.75Z" fill="#C0C0C0"></path> <path d="M44.143 121L41.231 110.92H42.302L44.661 119.243L47.006 110.927L48.084 110.92L50.443 119.243L52.788 110.92H53.866L50.961 121H49.925L47.545 112.733L45.179 121H44.143ZM55.1794 112.005V110.85H56.2084V112.005H55.1794ZM55.1794 121V113.44H56.2084V121H55.1794ZM61.4752 121.21C60.7705 121.21 60.1685 121.035 59.6692 120.685C59.1699 120.33 58.7872 119.852 58.5212 119.25C58.2552 118.648 58.1222 117.969 58.1222 117.213C58.1222 116.462 58.2529 115.785 58.5142 115.183C58.7802 114.581 59.1605 114.105 59.6552 113.755C60.1499 113.405 60.7425 113.23 61.4332 113.23C62.1425 113.23 62.7399 113.403 63.2252 113.748C63.7105 114.093 64.0769 114.567 64.3242 115.169C64.5762 115.766 64.7022 116.448 64.7022 117.213C64.7022 117.964 64.5785 118.643 64.3312 119.25C64.0839 119.852 63.7199 120.33 63.2392 120.685C62.7585 121.035 62.1705 121.21 61.4752 121.21ZM61.5802 120.251C62.1169 120.251 62.5602 120.12 62.9102 119.859C63.2602 119.598 63.5215 119.238 63.6942 118.781C63.8669 118.319 63.9532 117.796 63.9532 117.213C63.9532 116.62 63.8669 116.098 63.6942 115.645C63.5215 115.188 63.2602 114.831 62.9102 114.574C62.5649 114.317 62.1285 114.189 61.6012 114.189C61.0599 114.189 60.6119 114.322 60.2572 114.588C59.9025 114.854 59.6389 115.216 59.4662 115.673C59.2982 116.13 59.2142 116.644 59.2142 117.213C59.2142 117.787 59.3005 118.305 59.4732 118.767C59.6505 119.224 59.9142 119.586 60.2642 119.852C60.6142 120.118 61.0529 120.251 61.5802 120.251ZM63.9532 121V115.309H63.8412V110.92H64.8772V121H63.9532ZM71.1922 121C70.7676 121.089 70.3476 121.124 69.9322 121.105C69.5216 121.086 69.1529 120.998 68.8262 120.839C68.5042 120.68 68.2592 120.433 68.0912 120.097C67.9559 119.817 67.8812 119.535 67.8672 119.25C67.8579 118.961 67.8532 118.632 67.8532 118.263V111.34H68.8752V118.221C68.8752 118.538 68.8776 118.804 68.8822 119.019C68.8916 119.229 68.9406 119.416 69.0292 119.579C69.1972 119.892 69.4632 120.078 69.8272 120.139C70.1959 120.2 70.6509 120.186 71.1922 120.097V121ZM66.2362 114.322V113.44H71.1922V114.322H66.2362ZM78.3769 121V117.143C78.3769 116.723 78.3372 116.338 78.2579 115.988C78.1786 115.633 78.0502 115.325 77.8729 115.064C77.7002 114.798 77.4739 114.593 77.1939 114.448C76.9186 114.303 76.5826 114.231 76.1859 114.231C75.8219 114.231 75.4999 114.294 75.2199 114.42C74.9446 114.546 74.7112 114.728 74.5199 114.966C74.3332 115.199 74.1909 115.484 74.0929 115.82C73.9949 116.156 73.9459 116.539 73.9459 116.968L73.2179 116.807C73.2179 116.032 73.3532 115.381 73.6239 114.854C73.8946 114.327 74.2679 113.928 74.7439 113.657C75.2199 113.386 75.7659 113.251 76.3819 113.251C76.8346 113.251 77.2289 113.321 77.5649 113.461C77.9056 113.601 78.1926 113.79 78.4259 114.028C78.6639 114.266 78.8552 114.539 78.9999 114.847C79.1446 115.15 79.2496 115.475 79.3149 115.82C79.3802 116.161 79.4129 116.501 79.4129 116.842V121H78.3769ZM72.9099 121V110.92H73.8409V116.611H73.9459V121H72.9099Z" fill="#616161"></path> <rect x="198" y="136" width="1.5" height="32" rx="0.75" fill="#C0C0C0"></rect> <g filter="url(#filter6_dd_8969_164923)"> <path d="M248.667 163.655L225.065 157.91L231.173 180.684L236.09 176.491L244.216 182.495L250.064 176.491L243.491 168.831L248.667 163.655Z" fill="black" stroke="black" stroke-width="0.963636"></path> <path d="M251.34 175.556L245.253 169.47L249.645 165.078C250.025 164.697 250.182 164.147 250.058 163.623C249.934 163.099 249.549 162.677 249.038 162.507L225.024 156.06C224.466 155.874 223.851 156.02 223.435 156.435C223.019 156.851 222.874 157.466 223.06 158.024L229.507 182.038C229.677 182.549 230.099 182.935 230.623 183.058C231.147 183.182 231.697 183.026 232.078 182.645L236.47 178.253L242.556 184.34C242.859 184.643 243.257 184.795 243.654 184.795C244.051 184.795 244.449 184.643 244.752 184.34L251.34 177.752C251.946 177.146 251.946 176.163 251.34 175.556ZM243.654 181.046L237.567 174.959C236.961 174.353 235.978 174.353 235.372 174.959L231.658 178.673L226.988 159.989L245.672 164.659L241.959 168.372C241.353 168.978 241.353 169.961 241.959 170.568L248.046 176.654L243.654 181.046Z" fill="white"></path> </g> <rect x="0.75" y="0.75" width="286.5" height="213.5" rx="19.25" stroke="#F7F7F7" stroke-width="1.5"></rect> <defs> <filter id="filter0_ii_8969_164923" x="40" y="40" width="208" height="51" filterUnits="userSpaceOnUse" color-interpolation-filters="sRGB"> <feFlood flood-opacity="0" result="BackgroundImageFix"></feFlood> <feBlend mode="normal" in="SourceGraphic" in2="BackgroundImageFix" result="shape"></feBlend> <feColorMatrix in="SourceAlpha" type="matrix" values="0 0 0 0 0 0 0 0 0 0 0 0 0 0 0 0 0 0 127 0" result="hardAlpha"></feColorMatrix> <feOffset dy="3"></feOffset> <feGaussianBlur stdDeviation="3"></feGaussianBlur> <feComposite in2="hardAlpha" operator="arithmetic" k2="-1" k3="1"></feComposite> <feColorMatrix type="matrix" values="0 0 0 0 0 0 0 0 0 0 0 0 0 0 0 0 0 0 0.06 0"></feColorMatrix> <feBlend mode="normal" in2="shape" result="effect1_innerShadow_8969_164923"></feBlend> <feColorMatrix in="SourceAlpha" type="matrix" values="0 0 0 0 0 0 0 0 0 0 0 0 0 0 0 0 0 0 127 0" result="hardAlpha"></feColorMatrix> <feOffset dy="1"></feOffset> <feGaussianBlur stdDeviation="1"></feGaussianBlur> <feComposite in2="hardAlpha" operator="arithmetic" k2="-1" k3="1"></feComposite> <feColorMatrix type="matrix" values="0 0 0 0 0 0 0 0 0 0 0 0 0 0 0 0 0 0 0.12 0"></feColorMatrix> <feBlend mode="normal" in2="effect1_innerShadow_8969_164923" result="effect2_innerShadow_8969_164923"></feBlend> </filter> <filter id="filter1_d_8969_164923" x="53.8711" y="57.27" width="97.8379" height="19.55" filterUnits="userSpaceOnUse" color-interpolation-filters="sRGB"> <feFlood flood-opacity="0" result="BackgroundImageFix"></feFlood> <feColorMatrix in="SourceAlpha" type="matrix" values="0 0 0 0 0 0 0 0 0 0 0 0 0 0 0 0 0 0 127 0" result="hardAlpha"></feColorMatrix> <feOffset dy="1"></feOffset> <feGaussianBlur stdDeviation="0.5"></feGaussianBlur> <feComposite in2="hardAlpha" operator="out"></feComposite> <feColorMatrix type="matrix" values="0 0 0 0 1 0 0 0 0 1 0 0 0 0 1 0 0 0 1 0"></feColorMatrix> <feBlend mode="normal" in2="BackgroundImageFix" result="effect1_dropShadow_8969_164923"></feBlend> <feBlend mode="normal" in="SourceGraphic" in2="effect1_dropShadow_8969_164923" result="shape"></feBlend> </filter> <filter id="filter2_dd_8969_164923" x="200.8" y="59" width="46.4004" height="41.4379" filterUnits="userSpaceOnUse" color-interpolation-filters="sRGB"> <feFlood flood-opacity="0" result="BackgroundImageFix"></feFlood> <feColorMatrix in="SourceAlpha" type="matrix" values="0 0 0 0 0 0 0 0 0 0 0 0 0 0 0 0 0 0 127 0" result="hardAlpha"></feColorMatrix> <feOffset dy="8"></feOffset> <feGaussianBlur stdDeviation="8"></feGaussianBlur> <feColorMatrix type="matrix" values="0 0 0 0 0.0588235 0 0 0 0 0.337255 0 0 0 0 0.701961 0 0 0 0.14 0"></feColorMatrix> <feBlend mode="multiply" in2="BackgroundImageFix" result="effect1_dropShadow_8969_164923"></feBlend> <feColorMatrix in="SourceAlpha" type="matrix" values="0 0 0 0 0 0 0 0 0 0 0 0 0 0 0 0 0 0 127 0" result="hardAlpha"></feColorMatrix> <feOffset dy="4"></feOffset> <feGaussianBlur stdDeviation="4"></feGaussianBlur> <feColorMatrix type="matrix" values="0 0 0 0 0.0588235 0 0 0 0 0.337255 0 0 0 0 0.701961 0 0 0 0.14 0"></feColorMatrix> <feBlend mode="multiply" in2="effect1_dropShadow_8969_164923" result="effect2_dropShadow_8969_164923"></feBlend> <feBlend mode="normal" in="SourceGraphic" in2="effect2_dropShadow_8969_164923" result="shape"></feBlend> </filter> <filter id="filter3_ii_8969_164923" x="40" y="128" width="208" height="51" filterUnits="userSpaceOnUse" color-interpolation-filters="sRGB"> <feFlood flood-opacity="0" result="BackgroundImageFix"></feFlood> <feBlend mode="normal" in="SourceGraphic" in2="BackgroundImageFix" result="shape"></feBlend> <feColorMatrix in="SourceAlpha" type="matrix" values="0 0 0 0 0 0 0 0 0 0 0 0 0 0 0 0 0 0 127 0" result="hardAlpha"></feColorMatrix> <feOffset dy="3"></feOffset> <feGaussianBlur stdDeviation="3"></feGaussianBlur> <feComposite in2="hardAlpha" operator="arithmetic" k2="-1" k3="1"></feComposite> <feColorMatrix type="matrix" values="0 0 0 0 0 0 0 0 0 0 0 0 0 0 0 0 0 0 0.06 0"></feColorMatrix> <feBlend mode="normal" in2="shape" result="effect1_innerShadow_8969_164923"></feBlend> <feColorMatrix in="SourceAlpha" type="matrix" values="0 0 0 0 0 0 0 0 0 0 0 0 0 0 0 0 0 0 127 0" result="hardAlpha"></feColorMatrix> <feOffset dy="1"></feOffset> <feGaussianBlur stdDeviation="1"></feGaussianBlur> <feComposite in2="hardAlpha" operator="arithmetic" k2="-1" k3="1"></feComposite> <feColorMatrix type="matrix" values="0 0 0 0 0 0 0 0 0 0 0 0 0 0 0 0 0 0 0.12 0"></feColorMatrix> <feBlend mode="normal" in2="effect1_innerShadow_8969_164923" result="effect2_innerShadow_8969_164923"></feBlend> </filter> <filter id="filter4_d_8969_164923" x="53.8711" y="145.27" width="69.2275" height="19.5499" filterUnits="userSpaceOnUse" color-interpolation-filters="sRGB"> <feFlood flood-opacity="0" result="BackgroundImageFix"></feFlood> <feColorMatrix in="SourceAlpha" type="matrix" values="0 0 0 0 0 0 0 0 0 0 0 0 0 0 0 0 0 0 127 0" result="hardAlpha"></feColorMatrix> <feOffset dy="1"></feOffset> <feGaussianBlur stdDeviation="0.5"></feGaussianBlur> <feComposite in2="hardAlpha" operator="out"></feComposite> <feColorMatrix type="matrix" values="0 0 0 0 1 0 0 0 0 1 0 0 0 0 1 0 0 0 1 0"></feColorMatrix> <feBlend mode="normal" in2="BackgroundImageFix" result="effect1_dropShadow_8969_164923"></feBlend> <feBlend mode="normal" in="SourceGraphic" in2="effect1_dropShadow_8969_164923" result="shape"></feBlend> </filter> <filter id="filter5_dd_8969_164923" x="196" y="132" width="56" height="56" filterUnits="userSpaceOnUse" color-interpolation-filters="sRGB"> <feFlood flood-opacity="0" result="BackgroundImageFix"></feFlood> <feColorMatrix in="SourceAlpha" type="matrix" values="0 0 0 0 0 0 0 0 0 0 0 0 0 0 0 0 0 0 127 0" result="hardAlpha"></feColorMatrix> <feOffset dy="8"></feOffset> <feGaussianBlur stdDeviation="8"></feGaussianBlur> <feColorMatrix type="matrix" values="0 0 0 0 0.121569 0 0 0 0 0.545098 0 0 0 0 0.141176 0 0 0 0.14 0"></feColorMatrix> <feBlend mode="multiply" in2="BackgroundImageFix" result="effect1_dropShadow_8969_164923"></feBlend> <feColorMatrix in="SourceAlpha" type="matrix" values="0 0 0 0 0 0 0 0 0 0 0 0 0 0 0 0 0 0 127 0" result="hardAlpha"></feColorMatrix> <feOffset dy="4"></feOffset> <feGaussianBlur stdDeviation="4"></feGaussianBlur> <feColorMatrix type="matrix" values="0 0 0 0 0.121569 0 0 0 0 0.545098 0 0 0 0 0.141176 0 0 0 0.14 0"></feColorMatrix> <feBlend mode="multiply" in2="effect1_dropShadow_8969_164923" result="effect2_dropShadow_8969_164923"></feBlend> <feBlend mode="normal" in="SourceGraphic" in2="effect2_dropShadow_8969_164923" result="shape"></feBlend> </filter> <filter id="filter6_dd_8969_164923" x="185.156" y="127.578" width="90.6889" height="90.6889" filterUnits="userSpaceOnUse" color-interpolation-filters="sRGB"> <feFlood flood-opacity="0" result="BackgroundImageFix"></feFlood> <feColorMatrix in="SourceAlpha" type="matrix" values="0 0 0 0 0 0 0 0 0 0 0 0 0 0 0 0 0 0 127 0" result="hardAlpha"></feColorMatrix> <feOffset dy="9.42222"></feOffset> <feGaussianBlur stdDeviation="9.42222"></feGaussianBlur> <feColorMatrix type="matrix" values="0 0 0 0 0.380392 0 0 0 0 0.380392 0 0 0 0 0.380392 0 0 0 0.14 0"></feColorMatrix> <feBlend mode="multiply" in2="BackgroundImageFix" result="effect1_dropShadow_8969_164923"></feBlend> <feColorMatrix in="SourceAlpha" type="matrix" values="0 0 0 0 0 0 0 0 0 0 0 0 0 0 0 0 0 0 127 0" result="hardAlpha"></feColorMatrix> <feOffset dy="4.71111"></feOffset> <feGaussianBlur stdDeviation="4.71111"></feGaussianBlur> <feColorMatrix type="matrix" values="0 0 0 0 0.380392 0 0 0 0 0.380392 0 0 0 0 0.380392 0 0 0 0.14 0"></feColorMatrix> <feBlend mode="multiply" in2="effect1_dropShadow_8969_164923" result="effect2_dropShadow_8969_164923"></feBlend> <feBlend mode="normal" in="SourceGraphic" in2="effect2_dropShadow_8969_164923" result="shape"></feBlend> </filter> <linearGradient id="paint0_linear_8969_164923" x1="144" y1="0" x2="144" y2="215" gradientUnits="userSpaceOnUse"> <stop stop-color="white"></stop> <stop offset="0.8125" stop-color="#FAF9FA"></stop> </linearGradient> <linearGradient id="paint1_linear_8969_164923" x1="144" y1="40" x2="144" y2="88" gradientUnits="userSpaceOnUse"> <stop stop-color="#F5F5F5"></stop> <stop offset="1" stop-color="white"></stop> </linearGradient> <linearGradient id="paint2_linear_8969_164923" x1="144" y1="40" x2="144" y2="88" gradientUnits="userSpaceOnUse"> <stop stop-color="#EEEEEE" stop-opacity="0"></stop> <stop offset="1" stop-color="#F1F0F4"></stop> </linearGradient> <linearGradient id="paint3_linear_8969_164923" x1="144" y1="128" x2="144" y2="176" gradientUnits="userSpaceOnUse"> <stop stop-color="#F5F5F5"></stop> <stop offset="1" stop-color="white"></stop> </linearGradient> <linearGradient id="paint4_linear_8969_164923" x1="144" y1="128" x2="144" y2="176" gradientUnits="userSpaceOnUse"> <stop stop-color="#EEEEEE" stop-opacity="0"></stop> <stop offset="1" stop-color="#F1F0F4"></stop> </linearGradient> <clipPath id="clip0_8969_164923"> <rect width="40" height="40" fill="white" transform="translate(204 52)"></rect> </clipPath> </defs> </svg> 