<?xml version="1.0" encoding="UTF-8"?> <svg xmlns="http://www.w3.org/2000/svg" width="312" height="60" viewBox="0 0 312 60" fill="none"> <g filter="url(#filter0_ii_8955_59671)"> <rect width="312" height="60" rx="8" fill="url(#paint0_linear_8955_59671)"></rect> </g> <g filter="url(#filter1_d_8955_59671)"> <path d="M16.848 45.74C16.256 45.74 15.704 45.6173 15.192 45.372C14.6853 45.1267 14.2507 44.7907 13.888 44.364C13.5307 43.932 13.2747 43.436 13.12 42.876L14.488 42.508C14.584 42.8867 14.7547 43.2147 15 43.492C15.2453 43.764 15.5307 43.9773 15.856 44.132C16.1867 44.2813 16.5307 44.356 16.888 44.356C17.3573 44.356 17.7787 44.244 18.152 44.02C18.5307 43.7907 18.8293 43.4893 19.048 43.116C19.2667 42.7373 19.376 42.324 19.376 41.876C19.376 41.412 19.2613 40.9933 19.032 40.62C18.808 40.2413 18.5067 39.9427 18.128 39.724C17.7493 39.5053 17.336 39.396 16.888 39.396C16.3813 39.396 15.9467 39.5027 15.584 39.716C15.2267 39.924 14.944 40.18 14.736 40.484L13.472 40.004L13.824 33.98H20.008V35.332H14.512L15.144 34.74L14.848 39.564L14.536 39.156C14.856 38.8147 15.2373 38.5507 15.68 38.364C16.128 38.1773 16.584 38.084 17.048 38.084C17.7627 38.084 18.4027 38.252 18.968 38.588C19.5333 38.9187 19.9813 39.372 20.312 39.948C20.6427 40.5187 20.808 41.1613 20.808 41.876C20.808 42.5853 20.6267 43.2333 20.264 43.82C19.9013 44.4013 19.4187 44.868 18.816 45.22C18.2187 45.5667 17.5627 45.74 16.848 45.74ZM28.5987 45.5V43.38H23.3027V42.028L27.1027 33.98H28.7187L24.9187 42.028H28.5987V38.788H30.0387V42.028H31.2387V43.38H30.0387V45.5H28.5987ZM36.9733 45.5V33.98H41.4613C42.1493 33.98 42.7359 34.1213 43.2213 34.404C43.7119 34.6867 44.0853 35.06 44.3413 35.524C44.6026 35.9827 44.7333 36.4787 44.7333 37.012C44.7333 37.636 44.5733 38.1827 44.2533 38.652C43.9333 39.1213 43.5013 39.444 42.9573 39.62L42.9413 39.228C43.6826 39.4253 44.2586 39.788 44.6693 40.316C45.0799 40.844 45.2853 41.4733 45.2853 42.204C45.2853 42.876 45.1466 43.4573 44.8693 43.948C44.5973 44.4387 44.2026 44.82 43.6853 45.092C43.1733 45.364 42.5653 45.5 41.8613 45.5H36.9733ZM38.4133 44.14H41.5893C42.0159 44.14 42.3973 44.0627 42.7333 43.908C43.0693 43.748 43.3333 43.524 43.5253 43.236C43.7226 42.948 43.8213 42.6013 43.8213 42.196C43.8213 41.8067 43.7333 41.4573 43.5573 41.148C43.3866 40.8387 43.1439 40.5933 42.8293 40.412C42.5199 40.2253 42.1599 40.132 41.7493 40.132H38.4133V44.14ZM38.4133 38.788H41.4453C41.7866 38.788 42.0933 38.716 42.3653 38.572C42.6426 38.4227 42.8613 38.2147 43.0213 37.948C43.1866 37.6813 43.2693 37.3693 43.2693 37.012C43.2693 36.516 43.1013 36.1107 42.7653 35.796C42.4293 35.4813 41.9893 35.324 41.4453 35.324H38.4133V38.788ZM50.8283 45.74C49.9697 45.74 49.2283 45.5453 48.6043 45.156C47.9857 44.7667 47.5083 44.228 47.1723 43.54C46.8363 42.852 46.6683 42.0627 46.6683 41.172C46.6683 40.2653 46.839 39.4707 47.1803 38.788C47.5217 38.1053 48.0043 37.5747 48.6283 37.196C49.2523 36.812 49.9857 36.62 50.8283 36.62C51.6923 36.62 52.4363 36.8147 53.0603 37.204C53.6843 37.588 54.1617 38.124 54.4923 38.812C54.8283 39.4947 54.9963 40.2813 54.9963 41.172C54.9963 42.0733 54.8283 42.868 54.4923 43.556C54.1563 44.2387 53.6763 44.7747 53.0523 45.164C52.4283 45.548 51.687 45.74 50.8283 45.74ZM50.8283 44.388C51.7243 44.388 52.391 44.0893 52.8283 43.492C53.2657 42.8947 53.4843 42.1213 53.4843 41.172C53.4843 40.196 53.263 39.42 52.8203 38.844C52.3777 38.2627 51.7137 37.972 50.8283 37.972C50.2257 37.972 49.7297 38.108 49.3403 38.38C48.951 38.652 48.6603 39.028 48.4683 39.508C48.2763 39.988 48.1803 40.5427 48.1803 41.172C48.1803 42.1427 48.4043 42.9213 48.8523 43.508C49.3003 44.0947 49.959 44.388 50.8283 44.388ZM63.1785 45.5V41.172C63.1785 40.7613 63.1412 40.3667 63.0665 39.988C62.9972 39.6093 62.8718 39.2707 62.6905 38.972C62.5145 38.668 62.2745 38.428 61.9705 38.252C61.6718 38.076 61.2932 37.988 60.8345 37.988C60.4772 37.988 60.1518 38.0493 59.8585 38.172C59.5705 38.2893 59.3225 38.4707 59.1145 38.716C58.9065 38.9613 58.7438 39.2707 58.6265 39.644C58.5145 40.012 58.4585 40.4467 58.4585 40.948L57.5225 40.66C57.5225 39.8227 57.6718 39.1053 57.9705 38.508C58.2745 37.9053 58.6985 37.444 59.2425 37.124C59.7918 36.7987 60.4372 36.636 61.1785 36.636C61.7385 36.636 62.2158 36.724 62.6105 36.9C63.0052 37.076 63.3332 37.3107 63.5945 37.604C63.8558 37.892 64.0612 38.2173 64.2105 38.58C64.3598 38.9373 64.4638 39.3027 64.5225 39.676C64.5865 40.044 64.6185 40.3933 64.6185 40.724V45.5H63.1785ZM57.0185 45.5V36.86H58.2985V39.172H58.4585V45.5H57.0185ZM69.4232 45.74C68.7778 45.74 68.2365 45.6227 67.7992 45.388C67.3672 45.148 67.0392 44.8333 66.8152 44.444C66.5965 44.0547 66.4872 43.628 66.4872 43.164C66.4872 42.7107 66.5725 42.3187 66.7432 41.988C66.9192 41.652 67.1645 41.3747 67.4792 41.156C67.7938 40.932 68.1698 40.756 68.6072 40.628C69.0178 40.516 69.4765 40.42 69.9832 40.34C70.4952 40.2547 71.0125 40.1773 71.5352 40.108C72.0578 40.0387 72.5458 39.972 72.9992 39.908L72.4872 40.204C72.5032 39.436 72.3485 38.868 72.0232 38.5C71.7032 38.132 71.1485 37.948 70.3592 37.948C69.8365 37.948 69.3778 38.068 68.9832 38.308C68.5938 38.5427 68.3192 38.9267 68.1592 39.46L66.8072 39.052C67.0152 38.2947 67.4178 37.7 68.0152 37.268C68.6125 36.836 69.3992 36.62 70.3752 36.62C71.1592 36.62 71.8312 36.7613 72.3912 37.044C72.9565 37.3213 73.3618 37.7427 73.6072 38.308C73.7298 38.5747 73.8072 38.8653 73.8392 39.18C73.8712 39.4893 73.8872 39.8147 73.8872 40.156V45.5H72.6232V43.428L72.9192 43.62C72.5938 44.3187 72.1378 44.8467 71.5512 45.204C70.9698 45.5613 70.2605 45.74 69.4232 45.74ZM69.6392 44.548C70.1512 44.548 70.5938 44.4573 70.9672 44.276C71.3458 44.0893 71.6498 43.8467 71.8792 43.548C72.1085 43.244 72.2578 42.9133 72.3272 42.556C72.4072 42.2893 72.4498 41.9933 72.4552 41.668C72.4658 41.3373 72.4712 41.084 72.4712 40.908L72.9672 41.124C72.5032 41.188 72.0472 41.2493 71.5992 41.308C71.1512 41.3667 70.7272 41.4307 70.3272 41.5C69.9272 41.564 69.5672 41.6413 69.2472 41.732C69.0125 41.8067 68.7912 41.9027 68.5832 42.02C68.3805 42.1373 68.2152 42.2893 68.0872 42.476C67.9645 42.6573 67.9032 42.884 67.9032 43.156C67.9032 43.3907 67.9618 43.6147 68.0792 43.828C68.2018 44.0413 68.3885 44.2147 68.6392 44.348C68.8952 44.4813 69.2285 44.548 69.6392 44.548ZM76.396 35.332V33.86H77.82V35.332H76.396ZM76.396 45.5V36.86H77.82V45.5H76.396ZM80.4891 45.5V36.86H81.7611V38.948L81.5531 38.676C81.6545 38.4093 81.7851 38.164 81.9451 37.94C82.1105 37.716 82.2945 37.532 82.4971 37.388C82.7211 37.2067 82.9745 37.068 83.2571 36.972C83.5398 36.876 83.8278 36.82 84.1211 36.804C84.4145 36.7827 84.6891 36.8013 84.9451 36.86V38.196C84.6465 38.116 84.3185 38.0947 83.9611 38.132C83.6038 38.1693 83.2731 38.3 82.9691 38.524C82.6918 38.7213 82.4758 38.9613 82.3211 39.244C82.1718 39.5267 82.0678 39.8333 82.0091 40.164C81.9505 40.4893 81.9211 40.8227 81.9211 41.164V45.5H80.4891ZM94.2866 45.74C93.4706 45.74 92.7346 45.6013 92.0786 45.324C91.428 45.0467 90.8893 44.652 90.4626 44.14C90.0413 43.6227 89.7666 43.012 89.6386 42.308L91.1106 42.076C91.2973 42.8013 91.684 43.3693 92.2706 43.78C92.8626 44.1853 93.5586 44.388 94.3586 44.388C94.876 44.388 95.3426 44.308 95.7586 44.148C96.18 43.9827 96.5133 43.748 96.7586 43.444C97.004 43.14 97.1266 42.78 97.1266 42.364C97.1266 42.108 97.0813 41.8893 96.9906 41.708C96.9053 41.5213 96.7853 41.364 96.6306 41.236C96.4813 41.1027 96.3106 40.9907 96.1186 40.9C95.9266 40.8093 95.7266 40.7347 95.5186 40.676L92.5826 39.804C92.2626 39.708 91.9533 39.588 91.6546 39.444C91.356 39.2947 91.0893 39.1107 90.8546 38.892C90.62 38.668 90.4333 38.4013 90.2946 38.092C90.156 37.7773 90.0866 37.4067 90.0866 36.98C90.0866 36.2973 90.2626 35.716 90.6146 35.236C90.972 34.7507 91.4546 34.38 92.0626 34.124C92.6706 33.868 93.356 33.7427 94.1186 33.748C94.892 33.7533 95.5826 33.892 96.1906 34.164C96.804 34.4307 97.3106 34.8147 97.7106 35.316C98.116 35.8173 98.388 36.4173 98.5266 37.116L97.0146 37.38C96.9346 36.9107 96.756 36.508 96.4786 36.172C96.2066 35.8307 95.8653 35.5693 95.4546 35.388C95.044 35.2013 94.5933 35.1053 94.1026 35.1C93.6333 35.0947 93.2093 35.1693 92.8306 35.324C92.452 35.4787 92.1506 35.6947 91.9266 35.972C91.7026 36.244 91.5906 36.5587 91.5906 36.916C91.5906 37.268 91.692 37.5533 91.8946 37.772C92.0973 37.9853 92.3453 38.156 92.6386 38.284C92.9373 38.4067 93.228 38.508 93.5106 38.588L95.7026 39.22C95.9533 39.2893 96.2413 39.3853 96.5666 39.508C96.8973 39.6307 97.2173 39.804 97.5266 40.028C97.836 40.2467 98.092 40.54 98.2946 40.908C98.4973 41.2707 98.5986 41.7293 98.5986 42.284C98.5986 42.8387 98.4866 43.332 98.2626 43.764C98.044 44.196 97.7373 44.5587 97.3426 44.852C96.948 45.14 96.4893 45.3587 95.9666 45.508C95.444 45.6627 94.884 45.74 94.2866 45.74ZM100.706 35.332V33.86H102.13V35.332H100.706ZM100.706 45.5V36.86H102.13V45.5H100.706ZM108.191 45.74C107.385 45.74 106.695 45.54 106.119 45.14C105.543 44.7347 105.097 44.188 104.783 43.5C104.473 42.812 104.319 42.036 104.319 41.172C104.319 40.308 104.473 39.532 104.783 38.844C105.097 38.156 105.543 37.6147 106.119 37.22C106.695 36.82 107.383 36.62 108.183 36.62C108.999 36.62 109.684 36.8173 110.239 37.212C110.793 37.6067 111.212 38.148 111.495 38.836C111.783 39.524 111.927 40.3027 111.927 41.172C111.927 42.0307 111.783 42.8067 111.495 43.5C111.212 44.188 110.793 44.7347 110.239 45.14C109.684 45.54 109.001 45.74 108.191 45.74ZM108.367 44.436C108.948 44.436 109.425 44.2973 109.799 44.02C110.172 43.7373 110.447 43.3507 110.623 42.86C110.804 42.364 110.895 41.8013 110.895 41.172C110.895 40.532 110.804 39.9693 110.623 39.484C110.447 38.9933 110.175 38.612 109.807 38.34C109.439 38.0627 108.972 37.924 108.407 37.924C107.82 37.924 107.335 38.068 106.951 38.356C106.572 38.644 106.289 39.0333 106.103 39.524C105.921 40.0147 105.831 40.564 105.831 41.172C105.831 41.7853 105.924 42.34 106.111 42.836C106.297 43.3267 106.577 43.716 106.951 44.004C107.329 44.292 107.801 44.436 108.367 44.436ZM110.895 45.5V39.14H110.735V33.98H112.167V45.5H110.895ZM114.837 35.332V33.86H116.261V35.332H114.837ZM114.837 45.5V36.86H116.261V45.5H114.837ZM125.082 45.5V41.172C125.082 40.7613 125.045 40.3667 124.97 39.988C124.901 39.6093 124.775 39.2707 124.594 38.972C124.418 38.668 124.178 38.428 123.874 38.252C123.575 38.076 123.197 37.988 122.738 37.988C122.381 37.988 122.055 38.0493 121.762 38.172C121.474 38.2893 121.226 38.4707 121.018 38.716C120.81 38.9613 120.647 39.2707 120.53 39.644C120.418 40.012 120.362 40.4467 120.362 40.948L119.426 40.66C119.426 39.8227 119.575 39.1053 119.874 38.508C120.178 37.9053 120.602 37.444 121.146 37.124C121.695 36.7987 122.341 36.636 123.082 36.636C123.642 36.636 124.119 36.724 124.514 36.9C124.909 37.076 125.237 37.3107 125.498 37.604C125.759 37.892 125.965 38.2173 126.114 38.58C126.263 38.9373 126.367 39.3027 126.426 39.676C126.49 40.044 126.522 40.3933 126.522 40.724V45.5H125.082ZM118.922 45.5V36.86H120.202V39.172H120.362V45.5H118.922ZM132.367 49.58C131.913 49.58 131.471 49.5107 131.039 49.372C130.607 49.2333 130.209 49.0227 129.847 48.74C129.489 48.4627 129.191 48.1107 128.951 47.684L130.255 46.996C130.468 47.4173 130.769 47.724 131.159 47.916C131.553 48.108 131.959 48.204 132.375 48.204C132.924 48.204 133.38 48.1027 133.743 47.9C134.105 47.7027 134.372 47.4067 134.543 47.012C134.719 46.6173 134.804 46.1267 134.799 45.54V43.18H134.967V36.86H136.231V45.556C136.231 45.7907 136.223 46.0173 136.207 46.236C136.196 46.4547 136.169 46.6707 136.127 46.884C136.015 47.4973 135.793 48.0013 135.463 48.396C135.132 48.796 134.705 49.092 134.183 49.284C133.66 49.4813 133.055 49.58 132.367 49.58ZM132.263 45.74C131.457 45.74 130.767 45.54 130.191 45.14C129.615 44.7347 129.169 44.188 128.855 43.5C128.545 42.812 128.391 42.036 128.391 41.172C128.391 40.308 128.545 39.532 128.855 38.844C129.169 38.156 129.615 37.6147 130.191 37.22C130.767 36.82 131.455 36.62 132.255 36.62C133.071 36.62 133.756 36.8173 134.311 37.212C134.865 37.6067 135.284 38.148 135.567 38.836C135.855 39.524 135.999 40.3027 135.999 41.172C135.999 42.0307 135.855 42.8067 135.567 43.5C135.284 44.188 134.865 44.7347 134.311 45.14C133.756 45.54 133.073 45.74 132.263 45.74ZM132.439 44.436C133.02 44.436 133.497 44.2973 133.871 44.02C134.244 43.7373 134.519 43.3507 134.695 42.86C134.876 42.364 134.967 41.8013 134.967 41.172C134.967 40.532 134.876 39.9693 134.695 39.484C134.519 38.9933 134.247 38.612 133.879 38.34C133.511 38.0627 133.044 37.924 132.479 37.924C131.892 37.924 131.407 38.068 131.023 38.356C130.644 38.644 130.361 39.0333 130.175 39.524C129.993 40.0147 129.903 40.564 129.903 41.172C129.903 41.7853 129.996 42.34 130.183 42.836C130.369 43.3267 130.649 43.716 131.023 44.004C131.401 44.292 131.873 44.436 132.439 44.436ZM142.205 45.5V33.98H146.757C146.869 33.98 147.003 33.9853 147.157 33.996C147.312 34.0013 147.461 34.0173 147.605 34.044C148.229 34.14 148.752 34.3533 149.173 34.684C149.6 35.0147 149.92 35.4333 150.133 35.94C150.347 36.4413 150.453 36.9987 150.453 37.612C150.453 38.5027 150.221 39.276 149.757 39.932C149.293 40.5827 148.613 40.9907 147.717 41.156L147.173 41.244H143.629V45.5H142.205ZM149.061 45.5L146.789 40.812L148.197 40.38L150.693 45.5H149.061ZM143.629 39.892H146.709C146.811 39.892 146.925 39.8867 147.053 39.876C147.187 39.8653 147.312 39.8467 147.429 39.82C147.797 39.7347 148.096 39.58 148.325 39.356C148.56 39.1267 148.731 38.86 148.837 38.556C148.944 38.2467 148.997 37.932 148.997 37.612C148.997 37.292 148.944 36.98 148.837 36.676C148.731 36.3667 148.56 36.0973 148.325 35.868C148.096 35.6387 147.797 35.484 147.429 35.404C147.312 35.372 147.187 35.3533 147.053 35.348C146.925 35.3373 146.811 35.332 146.709 35.332H143.629V39.892ZM156.116 45.74C155.311 45.74 154.62 45.54 154.044 45.14C153.468 44.7347 153.023 44.188 152.708 43.5C152.399 42.812 152.244 42.036 152.244 41.172C152.244 40.308 152.399 39.532 152.708 38.844C153.023 38.156 153.468 37.6147 154.044 37.22C154.62 36.82 155.308 36.62 156.108 36.62C156.924 36.62 157.609 36.8173 158.164 37.212C158.719 37.6067 159.137 38.148 159.42 38.836C159.708 39.524 159.852 40.3027 159.852 41.172C159.852 42.0307 159.708 42.8067 159.42 43.5C159.137 44.188 158.719 44.7347 158.164 45.14C157.609 45.54 156.927 45.74 156.116 45.74ZM156.292 44.436C156.873 44.436 157.351 44.2973 157.724 44.02C158.097 43.7373 158.372 43.3507 158.548 42.86C158.729 42.364 158.82 41.8013 158.82 41.172C158.82 40.532 158.729 39.9693 158.548 39.484C158.372 38.9933 158.1 38.612 157.732 38.34C157.364 38.0627 156.897 37.924 156.332 37.924C155.745 37.924 155.26 38.068 154.876 38.356C154.497 38.644 154.215 39.0333 154.028 39.524C153.847 40.0147 153.756 40.564 153.756 41.172C153.756 41.7853 153.849 42.34 154.036 42.836C154.223 43.3267 154.503 43.716 154.876 44.004C155.255 44.292 155.727 44.436 156.292 44.436ZM158.82 45.5V39.14H158.66V33.98H160.092V45.5H158.82ZM162.442 47.292L162.53 46.628C162.754 46.644 162.922 46.6013 163.034 46.5C163.146 46.3987 163.218 46.26 163.25 46.084C163.282 45.908 163.288 45.7133 163.266 45.5H162.442V43.692H164.01V45.74C164.01 46.3 163.872 46.7213 163.594 47.004C163.322 47.2867 162.938 47.3827 162.442 47.292ZM174.884 45.74C174.068 45.74 173.332 45.6013 172.676 45.324C172.025 45.0467 171.487 44.652 171.06 44.14C170.639 43.6227 170.364 43.012 170.236 42.308L171.708 42.076C171.895 42.8013 172.281 43.3693 172.868 43.78C173.46 44.1853 174.156 44.388 174.956 44.388C175.473 44.388 175.94 44.308 176.356 44.148C176.777 43.9827 177.111 43.748 177.356 43.444C177.601 43.14 177.724 42.78 177.724 42.364C177.724 42.108 177.679 41.8893 177.588 41.708C177.503 41.5213 177.383 41.364 177.228 41.236C177.079 41.1027 176.908 40.9907 176.716 40.9C176.524 40.8093 176.324 40.7347 176.116 40.676L173.18 39.804C172.86 39.708 172.551 39.588 172.252 39.444C171.953 39.2947 171.687 39.1107 171.452 38.892C171.217 38.668 171.031 38.4013 170.892 38.092C170.753 37.7773 170.684 37.4067 170.684 36.98C170.684 36.2973 170.86 35.716 171.212 35.236C171.569 34.7507 172.052 34.38 172.66 34.124C173.268 33.868 173.953 33.7427 174.716 33.748C175.489 33.7533 176.18 33.892 176.788 34.164C177.401 34.4307 177.908 34.8147 178.308 35.316C178.713 35.8173 178.985 36.4173 179.124 37.116L177.612 37.38C177.532 36.9107 177.353 36.508 177.076 36.172C176.804 35.8307 176.463 35.5693 176.052 35.388C175.641 35.2013 175.191 35.1053 174.7 35.1C174.231 35.0947 173.807 35.1693 173.428 35.324C173.049 35.4787 172.748 35.6947 172.524 35.972C172.3 36.244 172.188 36.5587 172.188 36.916C172.188 37.268 172.289 37.5533 172.492 37.772C172.695 37.9853 172.943 38.156 173.236 38.284C173.535 38.4067 173.825 38.508 174.108 38.588L176.3 39.22C176.551 39.2893 176.839 39.3853 177.164 39.508C177.495 39.6307 177.815 39.804 178.124 40.028C178.433 40.2467 178.689 40.54 178.892 40.908C179.095 41.2707 179.196 41.7293 179.196 42.284C179.196 42.8387 179.084 43.332 178.86 43.764C178.641 44.196 178.335 44.5587 177.94 44.852C177.545 45.14 177.087 45.3587 176.564 45.508C176.041 45.6627 175.481 45.74 174.884 45.74ZM185.967 45.5C185.455 45.6013 184.948 45.6413 184.447 45.62C183.951 45.604 183.508 45.5053 183.119 45.324C182.73 45.1373 182.434 44.8493 182.231 44.46C182.06 44.1187 181.967 43.7747 181.951 43.428C181.94 43.076 181.935 42.6787 181.935 42.236V34.46H183.359V42.172C183.359 42.524 183.362 42.8253 183.367 43.076C183.378 43.3267 183.434 43.5427 183.535 43.724C183.727 44.0653 184.031 44.2653 184.447 44.324C184.868 44.3827 185.375 44.3667 185.967 44.276V45.5ZM180.183 38.036V36.86H185.967V38.036H180.183ZM190.446 45.74C189.801 45.74 189.259 45.6227 188.822 45.388C188.39 45.148 188.062 44.8333 187.838 44.444C187.619 44.0547 187.51 43.628 187.51 43.164C187.51 42.7107 187.595 42.3187 187.766 41.988C187.942 41.652 188.187 41.3747 188.502 41.156C188.817 40.932 189.193 40.756 189.63 40.628C190.041 40.516 190.499 40.42 191.006 40.34C191.518 40.2547 192.035 40.1773 192.558 40.108C193.081 40.0387 193.569 39.972 194.022 39.908L193.51 40.204C193.526 39.436 193.371 38.868 193.046 38.5C192.726 38.132 192.171 37.948 191.382 37.948C190.859 37.948 190.401 38.068 190.006 38.308C189.617 38.5427 189.342 38.9267 189.182 39.46L187.83 39.052C188.038 38.2947 188.441 37.7 189.038 37.268C189.635 36.836 190.422 36.62 191.398 36.62C192.182 36.62 192.854 36.7613 193.414 37.044C193.979 37.3213 194.385 37.7427 194.63 38.308C194.753 38.5747 194.83 38.8653 194.862 39.18C194.894 39.4893 194.91 39.8147 194.91 40.156V45.5H193.646V43.428L193.942 43.62C193.617 44.3187 193.161 44.8467 192.574 45.204C191.993 45.5613 191.283 45.74 190.446 45.74ZM190.662 44.548C191.174 44.548 191.617 44.4573 191.99 44.276C192.369 44.0893 192.673 43.8467 192.902 43.548C193.131 43.244 193.281 42.9133 193.35 42.556C193.43 42.2893 193.473 41.9933 193.478 41.668C193.489 41.3373 193.494 41.084 193.494 40.908L193.99 41.124C193.526 41.188 193.07 41.2493 192.622 41.308C192.174 41.3667 191.75 41.4307 191.35 41.5C190.95 41.564 190.59 41.6413 190.27 41.732C190.035 41.8067 189.814 41.9027 189.606 42.02C189.403 42.1373 189.238 42.2893 189.11 42.476C188.987 42.6573 188.926 42.884 188.926 43.156C188.926 43.3907 188.985 43.6147 189.102 43.828C189.225 44.0413 189.411 44.2147 189.662 44.348C189.918 44.4813 190.251 44.548 190.662 44.548ZM203.411 45.5V41.172C203.411 40.7613 203.373 40.3667 203.299 39.988C203.229 39.6093 203.104 39.2707 202.923 38.972C202.747 38.668 202.507 38.428 202.203 38.252C201.904 38.076 201.525 37.988 201.067 37.988C200.709 37.988 200.384 38.0493 200.091 38.172C199.803 38.2893 199.555 38.4707 199.347 38.716C199.139 38.9613 198.976 39.2707 198.859 39.644C198.747 40.012 198.691 40.4467 198.691 40.948L197.755 40.66C197.755 39.8227 197.904 39.1053 198.203 38.508C198.507 37.9053 198.931 37.444 199.475 37.124C200.024 36.7987 200.669 36.636 201.411 36.636C201.971 36.636 202.448 36.724 202.843 36.9C203.237 37.076 203.565 37.3107 203.827 37.604C204.088 37.892 204.293 38.2173 204.443 38.58C204.592 38.9373 204.696 39.3027 204.755 39.676C204.819 40.044 204.851 40.3933 204.851 40.724V45.5H203.411ZM197.251 45.5V36.86H198.531V39.172H198.691V45.5H197.251ZM208.023 45.5V36.388C208.023 36.164 208.034 35.9373 208.055 35.708C208.077 35.4733 208.125 35.2467 208.199 35.028C208.274 34.804 208.397 34.5987 208.567 34.412C208.765 34.1933 208.981 34.0387 209.215 33.948C209.45 33.852 209.687 33.7933 209.927 33.772C210.173 33.7507 210.405 33.74 210.623 33.74H211.719V34.924H210.703C210.282 34.924 209.967 35.028 209.759 35.236C209.551 35.4387 209.447 35.748 209.447 36.164V45.5H208.023ZM206.559 38.036V36.86H211.719V38.036H206.559ZM216.633 45.74C215.774 45.74 215.033 45.5453 214.409 45.156C213.79 44.7667 213.313 44.228 212.977 43.54C212.641 42.852 212.473 42.0627 212.473 41.172C212.473 40.2653 212.643 39.4707 212.985 38.788C213.326 38.1053 213.809 37.5747 214.433 37.196C215.057 36.812 215.79 36.62 216.633 36.62C217.497 36.62 218.241 36.8147 218.865 37.204C219.489 37.588 219.966 38.124 220.297 38.812C220.633 39.4947 220.801 40.2813 220.801 41.172C220.801 42.0733 220.633 42.868 220.297 43.556C219.961 44.2387 219.481 44.7747 218.857 45.164C218.233 45.548 217.491 45.74 216.633 45.74ZM216.633 44.388C217.529 44.388 218.195 44.0893 218.633 43.492C219.07 42.8947 219.289 42.1213 219.289 41.172C219.289 40.196 219.067 39.42 218.625 38.844C218.182 38.2627 217.518 37.972 216.633 37.972C216.03 37.972 215.534 38.108 215.145 38.38C214.755 38.652 214.465 39.028 214.273 39.508C214.081 39.988 213.985 40.5427 213.985 41.172C213.985 42.1427 214.209 42.9213 214.657 43.508C215.105 44.0947 215.763 44.388 216.633 44.388ZM222.831 45.5V36.86H224.103V38.948L223.895 38.676C223.996 38.4093 224.127 38.164 224.287 37.94C224.452 37.716 224.636 37.532 224.839 37.388C225.063 37.2067 225.316 37.068 225.599 36.972C225.881 36.876 226.169 36.82 226.463 36.804C226.756 36.7827 227.031 36.8013 227.287 36.86V38.196C226.988 38.116 226.66 38.0947 226.303 38.132C225.945 38.1693 225.615 38.3 225.311 38.524C225.033 38.7213 224.817 38.9613 224.663 39.244C224.513 39.5267 224.409 39.8333 224.351 40.164C224.292 40.4893 224.263 40.8227 224.263 41.164V45.5H222.831ZM232.304 45.74C231.499 45.74 230.808 45.54 230.232 45.14C229.656 44.7347 229.211 44.188 228.896 43.5C228.587 42.812 228.432 42.036 228.432 41.172C228.432 40.308 228.587 39.532 228.896 38.844C229.211 38.156 229.656 37.6147 230.232 37.22C230.808 36.82 231.496 36.62 232.296 36.62C233.112 36.62 233.797 36.8173 234.352 37.212C234.907 37.6067 235.325 38.148 235.608 38.836C235.896 39.524 236.04 40.3027 236.04 41.172C236.04 42.0307 235.896 42.8067 235.608 43.5C235.325 44.188 234.907 44.7347 234.352 45.14C233.797 45.54 233.115 45.74 232.304 45.74ZM232.48 44.436C233.061 44.436 233.539 44.2973 233.912 44.02C234.285 43.7373 234.56 43.3507 234.736 42.86C234.917 42.364 235.008 41.8013 235.008 41.172C235.008 40.532 234.917 39.9693 234.736 39.484C234.56 38.9933 234.288 38.612 233.92 38.34C233.552 38.0627 233.085 37.924 232.52 37.924C231.933 37.924 231.448 38.068 231.064 38.356C230.685 38.644 230.403 39.0333 230.216 39.524C230.035 40.0147 229.944 40.564 229.944 41.172C229.944 41.7853 230.037 42.34 230.224 42.836C230.411 43.3267 230.691 43.716 231.064 44.004C231.443 44.292 231.915 44.436 232.48 44.436ZM235.008 45.5V39.14H234.848V33.98H236.28V45.5H235.008Z" fill="black"></path> </g> <g filter="url(#filter2_d_8955_59671)"> <path d="M287 28.9794C287 28.4271 287.448 27.9794 288 27.9794C288.552 27.9794 289 28.4271 289 28.9794V34.9794C289 35.5317 288.552 35.9794 288 35.9794C287.448 35.9794 287 35.5317 287 34.9794V28.9794Z" fill="#A1A1A1"></path> <path d="M288 24.0511C287.448 24.0511 287 24.4989 287 25.0511C287 25.6034 287.448 26.0511 288 26.0511C288.552 26.0511 289 25.6034 289 25.0511C289 24.4989 288.552 24.0511 288 24.0511Z" fill="#A1A1A1"></path> <path fill-rule="evenodd" clip-rule="evenodd" d="M288 20C282.477 20 278 24.4772 278 30C278 35.5228 282.477 40 288 40C293.523 40 298 35.5228 298 30C298 24.4772 293.523 20 288 20ZM280 30C280 34.4183 283.582 38 288 38C292.418 38 296 34.4183 296 30C296 25.5817 292.418 22 288 22C283.582 22 280 25.5817 280 30Z" fill="#A1A1A1"></path> </g> <path d="M12.91 23V13.64H15.7505C15.8502 13.64 16.0192 13.6422 16.2575 13.6465C16.5002 13.6508 16.732 13.6682 16.953 13.6985C17.6637 13.7982 18.2573 14.0625 18.734 14.4915C19.2107 14.9205 19.5682 15.4665 19.8065 16.1295C20.0448 16.7925 20.164 17.5227 20.164 18.32C20.164 19.1173 20.0448 19.8475 19.8065 20.5105C19.5682 21.1735 19.2107 21.7195 18.734 22.1485C18.2573 22.5775 17.6637 22.8418 16.953 22.9415C16.7363 22.9675 16.5045 22.9848 16.2575 22.9935C16.0105 22.9978 15.8415 23 15.7505 23H12.91ZM13.898 22.0835H15.7505C15.9282 22.0835 16.1188 22.0792 16.3225 22.0705C16.5305 22.0575 16.7082 22.0358 16.8555 22.0055C17.4015 21.9102 17.8413 21.6892 18.175 21.3425C18.513 20.9958 18.76 20.5625 18.916 20.0425C19.072 19.5182 19.15 18.944 19.15 18.32C19.15 17.6917 19.072 17.1153 18.916 16.591C18.76 16.0667 18.513 15.6333 18.175 15.291C17.837 14.9487 17.3972 14.7298 16.8555 14.6345C16.7082 14.6042 16.5283 14.5847 16.316 14.576C16.108 14.563 15.9195 14.5565 15.7505 14.5565H13.898V22.0835ZM25.0049 23.195C24.3202 23.195 23.7265 23.0433 23.2239 22.74C22.7255 22.4367 22.3377 22.0098 22.0604 21.4595C21.783 20.9092 21.6444 20.2635 21.6444 19.5225C21.6444 18.7555 21.7809 18.0925 22.0539 17.5335C22.3269 16.9745 22.7104 16.5433 23.2044 16.24C23.7027 15.9367 24.2899 15.785 24.9659 15.785C25.6592 15.785 26.2507 15.9453 26.7404 16.266C27.23 16.5823 27.6005 17.0373 27.8519 17.631C28.1032 18.2247 28.218 18.9332 28.1964 19.7565H27.2214V19.4185C27.204 18.5085 27.0069 17.8217 26.6299 17.358C26.2572 16.8943 25.7112 16.6625 24.9919 16.6625C24.2379 16.6625 23.6594 16.9073 23.2564 17.397C22.8577 17.8867 22.6584 18.5843 22.6584 19.49C22.6584 20.374 22.8577 21.0608 23.2564 21.5505C23.6594 22.0358 24.2292 22.2785 24.9659 22.2785C25.4685 22.2785 25.9062 22.1637 26.2789 21.934C26.6559 21.7 26.9527 21.3642 27.1694 20.9265L28.0599 21.271C27.7825 21.882 27.373 22.3565 26.8314 22.6945C26.294 23.0282 25.6852 23.195 25.0049 23.195ZM22.3204 19.7565V18.957H27.6829V19.7565H22.3204ZM30.1589 23V13.445H31.1144V23H30.1589ZM33.583 14.6475V13.575H34.5385V14.6475H33.583ZM33.583 23V15.98H34.5385V23H33.583ZM38.7752 23L36.2272 15.98H37.1957L39.2692 21.752L41.3297 15.98H42.3112L39.7632 23H38.7752ZM46.5854 23.195C45.9007 23.195 45.3071 23.0433 44.8044 22.74C44.3061 22.4367 43.9182 22.0098 43.6409 21.4595C43.3636 20.9092 43.2249 20.2635 43.2249 19.5225C43.2249 18.7555 43.3614 18.0925 43.6344 17.5335C43.9074 16.9745 44.2909 16.5433 44.7849 16.24C45.2832 15.9367 45.8704 15.785 46.5464 15.785C47.2397 15.785 47.8312 15.9453 48.3209 16.266C48.8106 16.5823 49.1811 17.0373 49.4324 17.631C49.6837 18.2247 49.7986 18.9332 49.7769 19.7565H48.8019V19.4185C48.7846 18.5085 48.5874 17.8217 48.2104 17.358C47.8377 16.8943 47.2917 16.6625 46.5724 16.6625C45.8184 16.6625 45.2399 16.9073 44.8369 17.397C44.4382 17.8867 44.2389 18.5843 44.2389 19.49C44.2389 20.374 44.4382 21.0608 44.8369 21.5505C45.2399 22.0358 45.8097 22.2785 46.5464 22.2785C47.0491 22.2785 47.4867 22.1637 47.8594 21.934C48.2364 21.7 48.5332 21.3642 48.7499 20.9265L49.6404 21.271C49.3631 21.882 48.9536 22.3565 48.4119 22.6945C47.8746 23.0282 47.2657 23.195 46.5854 23.195ZM43.9009 19.7565V18.957H49.2634V19.7565H43.9009ZM51.6094 23V15.98H52.4674V17.67L52.2984 17.449C52.3764 17.241 52.4782 17.0503 52.6039 16.877C52.7295 16.6993 52.866 16.5542 53.0134 16.4415C53.1954 16.2812 53.4077 16.1598 53.6504 16.0775C53.893 15.9908 54.1379 15.941 54.3849 15.928C54.6319 15.9107 54.8572 15.928 55.0609 15.98V16.877C54.8052 16.812 54.5257 16.7968 54.2224 16.8315C53.919 16.8662 53.6395 16.9875 53.3839 17.1955C53.1499 17.3775 52.9744 17.5963 52.8574 17.852C52.7404 18.1033 52.6624 18.372 52.6234 18.658C52.5844 18.9397 52.5649 19.2192 52.5649 19.4965V23H51.6094ZM57.5961 26.12L58.9546 22.4345L58.9741 23.5265L55.8996 15.98H56.9136L59.4356 22.2915H59.0196L61.3466 15.98H62.3216L58.5516 26.12H57.5961ZM68.8416 23.195C68.3129 23.195 67.8688 23.0997 67.5091 22.909C67.1538 22.7183 66.8873 22.4648 66.7096 22.1485C66.5319 21.8322 66.4431 21.4877 66.4431 21.115C66.4431 20.7337 66.5189 20.4087 66.6706 20.14C66.8266 19.867 67.0368 19.6438 67.3011 19.4705C67.5698 19.2972 67.8796 19.165 68.2306 19.074C68.5859 18.9873 68.9781 18.9115 69.4071 18.8465C69.8404 18.7772 70.2629 18.7187 70.6746 18.671C71.0906 18.619 71.4546 18.5692 71.7666 18.5215L71.4286 18.7295C71.4416 18.0362 71.3073 17.5227 71.0256 17.189C70.7439 16.8553 70.2543 16.6885 69.5566 16.6885C69.0756 16.6885 68.6683 16.7968 68.3346 17.0135C68.0053 17.2302 67.7734 17.5725 67.6391 18.0405L66.7096 17.7675C66.8699 17.1392 67.1928 16.6517 67.6781 16.305C68.1634 15.9583 68.7939 15.785 69.5696 15.785C70.2109 15.785 70.7548 15.9063 71.2011 16.149C71.6518 16.3873 71.9703 16.734 72.1566 17.189C72.2433 17.3927 72.2996 17.6202 72.3256 17.8715C72.3516 18.1228 72.3646 18.3785 72.3646 18.6385V23H71.5131V21.2385L71.7601 21.3425C71.5218 21.9448 71.1513 22.4042 70.6486 22.7205C70.1459 23.0368 69.5436 23.195 68.8416 23.195ZM68.9521 22.3695C69.3984 22.3695 69.7884 22.2893 70.1221 22.129C70.4558 21.9687 70.7244 21.7498 70.9281 21.4725C71.1318 21.1908 71.2639 20.8745 71.3246 20.5235C71.3766 20.2982 71.4048 20.0512 71.4091 19.7825C71.4134 19.5095 71.4156 19.3058 71.4156 19.1715L71.7796 19.36C71.4546 19.4033 71.1014 19.4467 70.7201 19.49C70.3431 19.5333 69.9704 19.5832 69.6021 19.6395C69.2381 19.6958 68.9088 19.763 68.6141 19.841C68.4148 19.8973 68.2219 19.9775 68.0356 20.0815C67.8493 20.1812 67.6954 20.3155 67.5741 20.4845C67.4571 20.6535 67.3986 20.8637 67.3986 21.115C67.3986 21.3187 67.4484 21.5158 67.5481 21.7065C67.6521 21.8972 67.8168 22.0553 68.0421 22.181C68.2718 22.3067 68.5751 22.3695 68.9521 22.3695ZM77.1702 23.195C76.5159 23.195 75.9569 23.0325 75.4932 22.7075C75.0296 22.3782 74.6742 21.934 74.4272 21.375C74.1802 20.816 74.0567 20.1855 74.0567 19.4835C74.0567 18.7858 74.1781 18.1575 74.4207 17.5985C74.6677 17.0395 75.0209 16.5975 75.4802 16.2725C75.9396 15.9475 76.4899 15.785 77.1312 15.785C77.7899 15.785 78.3446 15.9453 78.7952 16.266C79.2459 16.5867 79.5861 17.0265 79.8157 17.5855C80.0497 18.1402 80.1667 18.7728 80.1667 19.4835C80.1667 20.1812 80.0519 20.8117 79.8222 21.375C79.5926 21.934 79.2546 22.3782 78.8082 22.7075C78.3619 23.0325 77.8159 23.195 77.1702 23.195ZM77.2677 22.3045C77.7661 22.3045 78.1777 22.1832 78.5027 21.9405C78.8277 21.6978 79.0704 21.3642 79.2307 20.9395C79.3911 20.5105 79.4712 20.0252 79.4712 19.4835C79.4712 18.9332 79.3911 18.4478 79.2307 18.0275C79.0704 17.6028 78.8277 17.2713 78.5027 17.033C78.1821 16.7947 77.7769 16.6755 77.2872 16.6755C76.7846 16.6755 76.3686 16.799 76.0392 17.046C75.7099 17.293 75.4651 17.6288 75.3047 18.0535C75.1487 18.4782 75.0707 18.9548 75.0707 19.4835C75.0707 20.0165 75.1509 20.4975 75.3112 20.9265C75.4759 21.3512 75.7207 21.687 76.0457 21.934C76.3707 22.181 76.7781 22.3045 77.2677 22.3045ZM79.4712 23V17.7155H79.3672V13.64H80.3292V23H79.4712ZM85.2663 23.195C84.6119 23.195 84.0529 23.0325 83.5893 22.7075C83.1256 22.3782 82.7703 21.934 82.5233 21.375C82.2763 20.816 82.1528 20.1855 82.1528 19.4835C82.1528 18.7858 82.2741 18.1575 82.5168 17.5985C82.7638 17.0395 83.1169 16.5975 83.5763 16.2725C84.0356 15.9475 84.5859 15.785 85.2273 15.785C85.8859 15.785 86.4406 15.9453 86.8913 16.266C87.3419 16.5867 87.6821 17.0265 87.9118 17.5855C88.1458 18.1402 88.2628 18.7728 88.2628 19.4835C88.2628 20.1812 88.1479 20.8117 87.9183 21.375C87.6886 21.934 87.3506 22.3782 86.9043 22.7075C86.4579 23.0325 85.9119 23.195 85.2663 23.195ZM85.3638 22.3045C85.8621 22.3045 86.2738 22.1832 86.5988 21.9405C86.9238 21.6978 87.1664 21.3642 87.3268 20.9395C87.4871 20.5105 87.5673 20.0252 87.5673 19.4835C87.5673 18.9332 87.4871 18.4478 87.3268 18.0275C87.1664 17.6028 86.9238 17.2713 86.5988 17.033C86.2781 16.7947 85.8729 16.6755 85.3833 16.6755C84.8806 16.6755 84.4646 16.799 84.1353 17.046C83.8059 17.293 83.5611 17.6288 83.4008 18.0535C83.2448 18.4782 83.1668 18.9548 83.1668 19.4835C83.1668 20.0165 83.2469 20.4975 83.4073 20.9265C83.5719 21.3512 83.8168 21.687 84.1418 21.934C84.4668 22.181 84.8741 22.3045 85.3638 22.3045ZM87.5673 23V17.7155H87.4633V13.64H88.4253V23H87.5673ZM90.6388 23V15.98H91.4968V17.67L91.3278 17.449C91.4058 17.241 91.5077 17.0503 91.6333 16.877C91.759 16.6993 91.8955 16.5542 92.0428 16.4415C92.2248 16.2812 92.4372 16.1598 92.6798 16.0775C92.9225 15.9908 93.1673 15.941 93.4143 15.928C93.6613 15.9107 93.8867 15.928 94.0903 15.98V16.877C93.8347 16.812 93.5552 16.7968 93.2518 16.8315C92.9485 16.8662 92.669 16.9875 92.4133 17.1955C92.1793 17.3775 92.0038 17.5963 91.8868 17.852C91.7698 18.1033 91.6918 18.372 91.6528 18.658C91.6138 18.9397 91.5943 19.2192 91.5943 19.4965V23H90.6388ZM98.5569 23.195C97.8723 23.195 97.2786 23.0433 96.7759 22.74C96.2776 22.4367 95.8898 22.0098 95.6124 21.4595C95.3351 20.9092 95.1964 20.2635 95.1964 19.5225C95.1964 18.7555 95.3329 18.0925 95.6059 17.5335C95.8789 16.9745 96.2624 16.5433 96.7564 16.24C97.2548 15.9367 97.8419 15.785 98.5179 15.785C99.2113 15.785 99.8028 15.9453 100.292 16.266C100.782 16.5823 101.153 17.0373 101.404 17.631C101.655 18.2247 101.77 18.9332 101.748 19.7565H100.773V19.4185C100.756 18.5085 100.559 17.8217 100.182 17.358C99.8093 16.8943 99.2633 16.6625 98.5439 16.6625C97.7899 16.6625 97.2114 16.9073 96.8084 17.397C96.4098 17.8867 96.2104 18.5843 96.2104 19.49C96.2104 20.374 96.4098 21.0608 96.8084 21.5505C97.2114 22.0358 97.7813 22.2785 98.5179 22.2785C99.0206 22.2785 99.4583 22.1637 99.8309 21.934C100.208 21.7 100.505 21.3642 100.721 20.9265L101.612 21.271C101.335 21.882 100.925 22.3565 100.383 22.6945C99.8461 23.0282 99.2373 23.195 98.5569 23.195ZM95.8724 19.7565V18.957H101.235V19.7565H95.8724ZM106.2 23.1885C105.377 23.1885 104.699 23.0108 104.166 22.6555C103.637 22.3002 103.312 21.8062 103.191 21.1735L104.166 21.011C104.27 21.4097 104.506 21.7282 104.874 21.9665C105.247 22.2005 105.706 22.3175 106.252 22.3175C106.785 22.3175 107.206 22.207 107.513 21.986C107.821 21.7607 107.975 21.4552 107.975 21.0695C107.975 20.8528 107.925 20.6773 107.825 20.543C107.73 20.4043 107.533 20.2765 107.234 20.1595C106.935 20.0425 106.489 19.9038 105.895 19.7435C105.258 19.5702 104.76 19.3968 104.4 19.2235C104.04 19.0502 103.785 18.8508 103.633 18.6255C103.481 18.3958 103.405 18.1163 103.405 17.787C103.405 17.3883 103.518 17.0395 103.743 16.7405C103.969 16.4372 104.281 16.2032 104.679 16.0385C105.078 15.8695 105.542 15.785 106.07 15.785C106.599 15.785 107.071 15.8717 107.487 16.045C107.908 16.214 108.246 16.4523 108.501 16.76C108.757 17.0677 108.909 17.4252 108.956 17.8325L107.981 18.008C107.916 17.5963 107.711 17.2713 107.364 17.033C107.022 16.7903 106.586 16.6647 106.057 16.656C105.559 16.643 105.154 16.7383 104.842 16.942C104.53 17.1413 104.374 17.4078 104.374 17.7415C104.374 17.9278 104.43 18.0882 104.543 18.2225C104.656 18.3525 104.859 18.476 105.154 18.593C105.453 18.71 105.878 18.8378 106.428 18.9765C107.074 19.1412 107.581 19.3145 107.949 19.4965C108.317 19.6785 108.579 19.893 108.735 20.14C108.891 20.387 108.969 20.6925 108.969 21.0565C108.969 21.7195 108.722 22.2417 108.228 22.623C107.739 23 107.063 23.1885 106.2 23.1885ZM113.421 23.1885C112.597 23.1885 111.919 23.0108 111.386 22.6555C110.857 22.3002 110.532 21.8062 110.411 21.1735L111.386 21.011C111.49 21.4097 111.726 21.7282 112.095 21.9665C112.467 22.2005 112.927 22.3175 113.473 22.3175C114.006 22.3175 114.426 22.207 114.734 21.986C115.041 21.7607 115.195 21.4552 115.195 21.0695C115.195 20.8528 115.145 20.6773 115.046 20.543C114.95 20.4043 114.753 20.2765 114.454 20.1595C114.155 20.0425 113.709 19.9038 113.115 19.7435C112.478 19.5702 111.98 19.3968 111.62 19.2235C111.26 19.0502 111.005 18.8508 110.853 18.6255C110.701 18.3958 110.626 18.1163 110.626 17.787C110.626 17.3883 110.738 17.0395 110.964 16.7405C111.189 16.4372 111.501 16.2032 111.9 16.0385C112.298 15.8695 112.762 15.785 113.291 15.785C113.819 15.785 114.292 15.8717 114.708 16.045C115.128 16.214 115.466 16.4523 115.722 16.76C115.977 17.0677 116.129 17.4252 116.177 17.8325L115.202 18.008C115.137 17.5963 114.931 17.2713 114.584 17.033C114.242 16.7903 113.806 16.6647 113.278 16.656C112.779 16.643 112.374 16.7383 112.062 16.942C111.75 17.1413 111.594 17.4078 111.594 17.7415C111.594 17.9278 111.65 18.0882 111.763 18.2225C111.876 18.3525 112.079 18.476 112.374 18.593C112.673 18.71 113.098 18.8378 113.648 18.9765C114.294 19.1412 114.801 19.3145 115.169 19.4965C115.537 19.6785 115.8 19.893 115.956 20.14C116.112 20.387 116.19 20.6925 116.19 21.0565C116.19 21.7195 115.943 22.2417 115.449 22.623C114.959 23 114.283 23.1885 113.421 23.1885Z" fill="#616161"></path> <defs> <filter id="filter0_ii_8955_59671" x="0" y="0" width="312" height="64.3636" filterUnits="userSpaceOnUse" color-interpolation-filters="sRGB"> <feFlood flood-opacity="0" result="BackgroundImageFix"></feFlood> <feBlend mode="normal" in="SourceGraphic" in2="BackgroundImageFix" result="shape"></feBlend> <feColorMatrix in="SourceAlpha" type="matrix" values="0 0 0 0 0 0 0 0 0 0 0 0 0 0 0 0 0 0 127 0" result="hardAlpha"></feColorMatrix> <feOffset dy="4.36364"></feOffset> <feGaussianBlur stdDeviation="4.36364"></feGaussianBlur> <feComposite in2="hardAlpha" operator="arithmetic" k2="-1" k3="1"></feComposite> <feColorMatrix type="matrix" values="0 0 0 0 0 0 0 0 0 0 0 0 0 0 0 0 0 0 0.06 0"></feColorMatrix> <feBlend mode="multiply" in2="shape" result="effect1_innerShadow_8955_59671"></feBlend> <feColorMatrix in="SourceAlpha" type="matrix" values="0 0 0 0 0 0 0 0 0 0 0 0 0 0 0 0 0 0 127 0" result="hardAlpha"></feColorMatrix> <feOffset dy="1"></feOffset> <feGaussianBlur stdDeviation="1"></feGaussianBlur> <feComposite in2="hardAlpha" operator="arithmetic" k2="-1" k3="1"></feComposite> <feColorMatrix type="matrix" values="0 0 0 0 0 0 0 0 0 0 0 0 0 0 0 0 0 0 0.09 0"></feColorMatrix> <feBlend mode="multiply" in2="effect1_innerShadow_8955_59671" result="effect2_innerShadow_8955_59671"></feBlend> </filter> <filter id="filter1_d_8955_59671" x="12.1201" y="33.7402" width="225.16" height="17.8398" filterUnits="userSpaceOnUse" color-interpolation-filters="sRGB"> <feFlood flood-opacity="0" result="BackgroundImageFix"></feFlood> <feColorMatrix in="SourceAlpha" type="matrix" values="0 0 0 0 0 0 0 0 0 0 0 0 0 0 0 0 0 0 127 0" result="hardAlpha"></feColorMatrix> <feOffset dy="1"></feOffset> <feGaussianBlur stdDeviation="0.5"></feGaussianBlur> <feComposite in2="hardAlpha" operator="out"></feComposite> <feColorMatrix type="matrix" values="0 0 0 0 1 0 0 0 0 1 0 0 0 0 1 0 0 0 1 0"></feColorMatrix> <feBlend mode="normal" in2="BackgroundImageFix" result="effect1_dropShadow_8955_59671"></feBlend> <feBlend mode="normal" in="SourceGraphic" in2="effect1_dropShadow_8955_59671" result="shape"></feBlend> </filter> <filter id="filter2_d_8955_59671" x="277" y="20" width="22" height="22" filterUnits="userSpaceOnUse" color-interpolation-filters="sRGB"> <feFlood flood-opacity="0" result="BackgroundImageFix"></feFlood> <feColorMatrix in="SourceAlpha" type="matrix" values="0 0 0 0 0 0 0 0 0 0 0 0 0 0 0 0 0 0 127 0" result="hardAlpha"></feColorMatrix> <feOffset dy="1"></feOffset> <feGaussianBlur stdDeviation="0.5"></feGaussianBlur> <feComposite in2="hardAlpha" operator="out"></feComposite> <feColorMatrix type="matrix" values="0 0 0 0 1 0 0 0 0 1 0 0 0 0 1 0 0 0 1 0"></feColorMatrix> <feBlend mode="normal" in2="BackgroundImageFix" result="effect1_dropShadow_8955_59671"></feBlend> <feBlend mode="normal" in="SourceGraphic" in2="effect1_dropShadow_8955_59671" result="shape"></feBlend> </filter> <linearGradient id="paint0_linear_8955_59671" x1="156" y1="0" x2="156" y2="60" gradientUnits="userSpaceOnUse"> <stop stop-color="#FBFBFB"></stop> <stop offset="1" stop-color="#EAE8EC"></stop> </linearGradient> </defs> </svg> 