<?xml version="1.0" encoding="UTF-8"?> <svg xmlns="http://www.w3.org/2000/svg" width="464" height="220" viewBox="0 0 464 220" fill="none"> <g filter="url(#filter0_ii_8939_123851)"> <rect y="54" width="464" height="96" rx="20" fill="url(#paint0_linear_8939_123851)"></rect> </g> <rect x="1" y="55" width="462" height="94" rx="19" stroke="url(#paint1_linear_8939_123851)" stroke-width="2"></rect> <g filter="url(#filter1_d_8939_123851)"> <path d="M26.52 116V90.08H36.528C37.98 90.08 39.246 90.38 40.326 90.98C41.406 91.58 42.246 92.39 42.846 93.41C43.446 94.418 43.746 95.534 43.746 96.758C43.746 98.15 43.374 99.392 42.63 100.484C41.886 101.564 40.89 102.314 39.642 102.734L39.606 101.852C41.286 102.332 42.606 103.172 43.566 104.372C44.526 105.572 45.006 107.024 45.006 108.728C45.006 110.228 44.688 111.524 44.052 112.616C43.416 113.696 42.522 114.53 41.37 115.118C40.218 115.706 38.88 116 37.356 116H26.52ZM29.184 113.462H36.708C37.764 113.462 38.712 113.276 39.552 112.904C40.392 112.52 41.052 111.98 41.532 111.284C42.024 110.588 42.27 109.748 42.27 108.764C42.27 107.804 42.048 106.94 41.604 106.172C41.16 105.404 40.554 104.792 39.786 104.336C39.03 103.868 38.166 103.634 37.194 103.634H29.184V113.462ZM29.184 101.132H36.51C37.338 101.132 38.094 100.946 38.778 100.574C39.462 100.19 40.002 99.668 40.398 99.008C40.806 98.348 41.01 97.586 41.01 96.722C41.01 95.498 40.584 94.502 39.732 93.734C38.892 92.966 37.818 92.582 36.51 92.582H29.184V101.132ZM56.6369 116.486C55.4729 116.486 54.4529 116.306 53.5769 115.946C52.7129 115.586 51.9749 115.1 51.3629 114.488C50.7629 113.876 50.2769 113.18 49.9049 112.4C49.5329 111.608 49.2629 110.774 49.0949 109.898C48.9269 109.01 48.8429 108.128 48.8429 107.252V96.56H51.5069V106.478C51.5069 107.546 51.6089 108.536 51.8129 109.448C52.0169 110.36 52.3409 111.158 52.7849 111.842C53.2409 112.514 53.8229 113.036 54.5309 113.408C55.2509 113.78 56.1209 113.966 57.1409 113.966C58.0769 113.966 58.8989 113.804 59.6069 113.48C60.3269 113.156 60.9269 112.694 61.4069 112.094C61.8989 111.482 62.2709 110.744 62.5229 109.88C62.7749 109.004 62.9009 108.02 62.9009 106.928L64.7729 107.342C64.7729 109.334 64.4249 111.008 63.7289 112.364C63.0329 113.72 62.0729 114.746 60.8489 115.442C59.6249 116.138 58.2209 116.486 56.6369 116.486ZM63.1709 116V111.212H62.9009V96.56H65.5469V116H63.1709ZM78.4367 116.522C76.1567 116.522 74.2787 116.03 72.8027 115.046C71.3387 114.062 70.4387 112.694 70.1027 110.942L72.8027 110.492C73.0907 111.596 73.7447 112.478 74.7647 113.138C75.7967 113.786 77.0687 114.11 78.5807 114.11C80.0567 114.11 81.2207 113.804 82.0727 113.192C82.9247 112.568 83.3507 111.722 83.3507 110.654C83.3507 110.054 83.2127 109.568 82.9367 109.196C82.6727 108.812 82.1267 108.458 81.2987 108.134C80.4707 107.81 79.2347 107.426 77.5907 106.982C75.8267 106.502 74.4467 106.022 73.4507 105.542C72.4547 105.062 71.7467 104.51 71.3267 103.886C70.9067 103.25 70.6967 102.476 70.6967 101.564C70.6967 100.46 71.0087 99.494 71.6327 98.666C72.2567 97.826 73.1207 97.178 74.2247 96.722C75.3287 96.254 76.6127 96.02 78.0767 96.02C79.5407 96.02 80.8487 96.26 82.0007 96.74C83.1647 97.208 84.1007 97.868 84.8087 98.72C85.5167 99.572 85.9367 100.562 86.0687 101.69L83.3687 102.176C83.1887 101.036 82.6187 100.136 81.6587 99.476C80.7107 98.804 79.5047 98.456 78.0407 98.432C76.6607 98.396 75.5387 98.66 74.6747 99.224C73.8107 99.776 73.3787 100.514 73.3787 101.438C73.3787 101.954 73.5347 102.398 73.8467 102.77C74.1587 103.13 74.7227 103.472 75.5387 103.796C76.3667 104.12 77.5427 104.474 79.0667 104.858C80.8547 105.314 82.2587 105.794 83.2787 106.298C84.2987 106.802 85.0247 107.396 85.4567 108.08C85.8887 108.764 86.1047 109.61 86.1047 110.618C86.1047 112.454 85.4207 113.9 84.0527 114.956C82.6967 116 80.8247 116.522 78.4367 116.522ZM91.0616 92.87V89.9H93.7076V92.87H91.0616ZM91.0616 116V96.56H93.7076V116H91.0616ZM113.749 116V106.082C113.749 105.002 113.647 104.012 113.443 103.112C113.239 102.2 112.909 101.408 112.453 100.736C112.009 100.052 111.427 99.524 110.707 99.152C109.999 98.78 109.135 98.594 108.115 98.594C107.179 98.594 106.351 98.756 105.631 99.08C104.923 99.404 104.323 99.872 103.831 100.484C103.351 101.084 102.985 101.816 102.733 102.68C102.481 103.544 102.355 104.528 102.355 105.632L100.483 105.218C100.483 103.226 100.831 101.552 101.527 100.196C102.223 98.84 103.183 97.814 104.407 97.118C105.631 96.422 107.035 96.074 108.619 96.074C109.783 96.074 110.797 96.254 111.661 96.614C112.537 96.974 113.275 97.46 113.875 98.072C114.487 98.684 114.979 99.386 115.351 100.178C115.723 100.958 115.993 101.792 116.161 102.68C116.329 103.556 116.413 104.432 116.413 105.308V116H113.749ZM99.6907 116V96.56H102.085V101.348H102.355V116H99.6907ZM129.809 116.54C127.913 116.54 126.269 116.12 124.877 115.28C123.497 114.44 122.423 113.258 121.655 111.734C120.887 110.21 120.503 108.422 120.503 106.37C120.503 104.246 120.881 102.41 121.637 100.862C122.393 99.314 123.455 98.12 124.823 97.28C126.203 96.44 127.829 96.02 129.701 96.02C131.621 96.02 133.259 96.464 134.615 97.352C135.971 98.228 136.997 99.488 137.693 101.132C138.389 102.776 138.707 104.738 138.647 107.018H135.947V106.082C135.899 103.562 135.353 101.66 134.309 100.376C133.277 99.092 131.765 98.45 129.773 98.45C127.685 98.45 126.083 99.128 124.967 100.484C123.863 101.84 123.311 103.772 123.311 106.28C123.311 108.728 123.863 110.63 124.967 111.986C126.083 113.33 127.661 114.002 129.701 114.002C131.093 114.002 132.305 113.684 133.337 113.048C134.381 112.4 135.203 111.47 135.803 110.258L138.269 111.212C137.501 112.904 136.367 114.218 134.867 115.154C133.379 116.078 131.693 116.54 129.809 116.54ZM122.375 107.018V104.804H137.225V107.018H122.375ZM150.5 116.522C148.22 116.522 146.342 116.03 144.866 115.046C143.402 114.062 142.502 112.694 142.166 110.942L144.866 110.492C145.154 111.596 145.808 112.478 146.828 113.138C147.86 113.786 149.132 114.11 150.644 114.11C152.12 114.11 153.284 113.804 154.136 113.192C154.988 112.568 155.414 111.722 155.414 110.654C155.414 110.054 155.276 109.568 155 109.196C154.736 108.812 154.19 108.458 153.362 108.134C152.534 107.81 151.298 107.426 149.654 106.982C147.89 106.502 146.51 106.022 145.514 105.542C144.518 105.062 143.81 104.51 143.39 103.886C142.97 103.25 142.76 102.476 142.76 101.564C142.76 100.46 143.072 99.494 143.696 98.666C144.32 97.826 145.184 97.178 146.288 96.722C147.392 96.254 148.676 96.02 150.14 96.02C151.604 96.02 152.912 96.26 154.064 96.74C155.228 97.208 156.164 97.868 156.872 98.72C157.58 99.572 158 100.562 158.132 101.69L155.432 102.176C155.252 101.036 154.682 100.136 153.722 99.476C152.774 98.804 151.568 98.456 150.104 98.432C148.724 98.396 147.602 98.66 146.738 99.224C145.874 99.776 145.442 100.514 145.442 101.438C145.442 101.954 145.598 102.398 145.91 102.77C146.222 103.13 146.786 103.472 147.602 103.796C148.43 104.12 149.606 104.474 151.13 104.858C152.918 105.314 154.322 105.794 155.342 106.298C156.362 106.802 157.088 107.396 157.52 108.08C157.952 108.764 158.168 109.61 158.168 110.618C158.168 112.454 157.484 113.9 156.116 114.956C154.76 116 152.888 116.522 150.5 116.522ZM170.019 116.522C167.739 116.522 165.861 116.03 164.385 115.046C162.921 114.062 162.021 112.694 161.685 110.942L164.385 110.492C164.673 111.596 165.327 112.478 166.347 113.138C167.379 113.786 168.651 114.11 170.163 114.11C171.639 114.11 172.803 113.804 173.655 113.192C174.507 112.568 174.933 111.722 174.933 110.654C174.933 110.054 174.795 109.568 174.519 109.196C174.255 108.812 173.709 108.458 172.881 108.134C172.053 107.81 170.817 107.426 169.173 106.982C167.409 106.502 166.029 106.022 165.033 105.542C164.037 105.062 163.329 104.51 162.909 103.886C162.489 103.25 162.279 102.476 162.279 101.564C162.279 100.46 162.591 99.494 163.215 98.666C163.839 97.826 164.703 97.178 165.807 96.722C166.911 96.254 168.195 96.02 169.659 96.02C171.123 96.02 172.431 96.26 173.583 96.74C174.747 97.208 175.683 97.868 176.391 98.72C177.099 99.572 177.519 100.562 177.651 101.69L174.951 102.176C174.771 101.036 174.201 100.136 173.241 99.476C172.293 98.804 171.087 98.456 169.623 98.432C168.243 98.396 167.121 98.66 166.257 99.224C165.393 99.776 164.961 100.514 164.961 101.438C164.961 101.954 165.117 102.398 165.429 102.77C165.741 103.13 166.305 103.472 167.121 103.796C167.949 104.12 169.125 104.474 170.649 104.858C172.437 105.314 173.841 105.794 174.861 106.298C175.881 106.802 176.607 107.396 177.039 108.08C177.471 108.764 177.687 109.61 177.687 110.618C177.687 112.454 177.003 113.9 175.635 114.956C174.279 116 172.407 116.522 170.019 116.522ZM198.322 116.54C196.426 116.54 194.782 116.12 193.39 115.28C192.01 114.44 190.936 113.258 190.168 111.734C189.4 110.21 189.016 108.422 189.016 106.37C189.016 104.246 189.394 102.41 190.15 100.862C190.906 99.314 191.968 98.12 193.336 97.28C194.716 96.44 196.342 96.02 198.214 96.02C200.134 96.02 201.772 96.464 203.128 97.352C204.484 98.228 205.51 99.488 206.206 101.132C206.902 102.776 207.22 104.738 207.16 107.018H204.46V106.082C204.412 103.562 203.866 101.66 202.822 100.376C201.79 99.092 200.278 98.45 198.286 98.45C196.198 98.45 194.596 99.128 193.48 100.484C192.376 101.84 191.824 103.772 191.824 106.28C191.824 108.728 192.376 110.63 193.48 111.986C194.596 113.33 196.174 114.002 198.214 114.002C199.606 114.002 200.818 113.684 201.85 113.048C202.894 112.4 203.716 111.47 204.316 110.258L206.782 111.212C206.014 112.904 204.88 114.218 203.38 115.154C201.892 116.078 200.206 116.54 198.322 116.54ZM190.888 107.018V104.804H205.738V107.018H190.888ZM234.416 116L234.434 103.238C234.434 101.738 234.014 100.562 233.174 99.71C232.346 98.846 231.29 98.414 230.006 98.414C229.274 98.414 228.56 98.582 227.864 98.918C227.168 99.254 226.592 99.794 226.136 100.538C225.692 101.282 225.47 102.254 225.47 103.454L223.904 103.004C223.868 101.612 224.138 100.394 224.714 99.35C225.302 98.306 226.106 97.496 227.126 96.92C228.158 96.332 229.322 96.038 230.618 96.038C232.574 96.038 234.14 96.644 235.316 97.856C236.492 99.056 237.08 100.682 237.08 102.734L237.062 116H234.416ZM211.214 116V96.56H213.59V101.348H213.878V116H211.214ZM222.842 116L222.86 103.418C222.86 101.87 222.446 100.652 221.618 99.764C220.802 98.864 219.722 98.414 218.378 98.414C217.034 98.414 215.948 98.876 215.12 99.8C214.292 100.712 213.878 101.93 213.878 103.454L212.294 102.59C212.294 101.342 212.588 100.226 213.176 99.242C213.764 98.246 214.568 97.466 215.588 96.902C216.608 96.326 217.766 96.038 219.062 96.038C220.298 96.038 221.396 96.302 222.356 96.83C223.328 97.358 224.09 98.126 224.642 99.134C225.194 100.142 225.47 101.366 225.47 102.806L225.452 116H222.842ZM247.914 116.54C246.45 116.54 245.22 116.276 244.224 115.748C243.24 115.22 242.502 114.518 242.01 113.642C241.518 112.766 241.272 111.812 241.272 110.78C241.272 109.724 241.482 108.824 241.902 108.08C242.334 107.324 242.916 106.706 243.648 106.226C244.392 105.746 245.25 105.38 246.222 105.128C247.206 104.888 248.292 104.678 249.48 104.498C250.68 104.306 251.85 104.144 252.99 104.012C254.142 103.868 255.15 103.73 256.014 103.598L255.078 104.174C255.114 102.254 254.742 100.832 253.962 99.908C253.182 98.984 251.826 98.522 249.894 98.522C248.562 98.522 247.434 98.822 246.51 99.422C245.598 100.022 244.956 100.97 244.584 102.266L242.01 101.51C242.454 99.77 243.348 98.42 244.692 97.46C246.036 96.5 247.782 96.02 249.93 96.02C251.706 96.02 253.212 96.356 254.448 97.028C255.696 97.688 256.578 98.648 257.094 99.908C257.334 100.472 257.49 101.102 257.562 101.798C257.634 102.494 257.67 103.202 257.67 103.922V116H255.312V111.122L255.996 111.41C255.336 113.078 254.31 114.35 252.918 115.226C251.526 116.102 249.858 116.54 247.914 116.54ZM248.22 114.254C249.456 114.254 250.536 114.032 251.46 113.588C252.384 113.144 253.128 112.538 253.692 111.77C254.256 110.99 254.622 110.114 254.79 109.142C254.934 108.518 255.012 107.834 255.024 107.09C255.036 106.334 255.042 105.77 255.042 105.398L256.05 105.92C255.15 106.04 254.172 106.16 253.116 106.28C252.072 106.4 251.04 106.538 250.02 106.694C249.012 106.85 248.1 107.036 247.284 107.252C246.732 107.408 246.198 107.63 245.682 107.918C245.166 108.194 244.74 108.566 244.404 109.034C244.08 109.502 243.918 110.084 243.918 110.78C243.918 111.344 244.056 111.89 244.332 112.418C244.62 112.946 245.076 113.384 245.7 113.732C246.336 114.08 247.176 114.254 248.22 114.254ZM263.321 92.87V89.9H265.967V92.87H263.321ZM263.321 116V96.56H265.967V116H263.321ZM272.328 116V89.54H274.974V116H272.328ZM296.905 116.54C294.973 116.54 293.323 116.102 291.955 115.226C290.587 114.35 289.537 113.138 288.805 111.59C288.073 110.042 287.707 108.266 287.707 106.262C287.707 104.222 288.079 102.434 288.823 100.898C289.567 99.362 290.623 98.168 291.991 97.316C293.371 96.452 295.009 96.02 296.905 96.02C298.849 96.02 300.505 96.458 301.873 97.334C303.253 98.198 304.303 99.404 305.023 100.952C305.755 102.488 306.121 104.258 306.121 106.262C306.121 108.302 305.755 110.096 305.023 111.644C304.291 113.18 303.235 114.38 301.855 115.244C300.475 116.108 298.825 116.54 296.905 116.54ZM296.905 114.002C299.065 114.002 300.673 113.288 301.729 111.86C302.785 110.42 303.313 108.554 303.313 106.262C303.313 103.91 302.779 102.038 301.711 100.646C300.655 99.254 299.053 98.558 296.905 98.558C295.453 98.558 294.253 98.888 293.305 99.548C292.369 100.196 291.667 101.102 291.199 102.266C290.743 103.418 290.515 104.75 290.515 106.262C290.515 108.602 291.055 110.48 292.135 111.896C293.215 113.3 294.805 114.002 296.905 114.002ZM324.737 116V106.082C324.737 105.002 324.635 104.012 324.431 103.112C324.227 102.2 323.897 101.408 323.441 100.736C322.997 100.052 322.415 99.524 321.695 99.152C320.987 98.78 320.123 98.594 319.103 98.594C318.167 98.594 317.339 98.756 316.619 99.08C315.911 99.404 315.311 99.872 314.819 100.484C314.339 101.084 313.973 101.816 313.721 102.68C313.469 103.544 313.343 104.528 313.343 105.632L311.471 105.218C311.471 103.226 311.819 101.552 312.515 100.196C313.211 98.84 314.171 97.814 315.395 97.118C316.619 96.422 318.023 96.074 319.607 96.074C320.771 96.074 321.785 96.254 322.649 96.614C323.525 96.974 324.263 97.46 324.863 98.072C325.475 98.684 325.967 99.386 326.339 100.178C326.711 100.958 326.981 101.792 327.149 102.68C327.317 103.556 327.401 104.432 327.401 105.308V116H324.737ZM310.679 116V96.56H313.073V101.348H313.343V116H310.679ZM333.037 116V89.54H335.683V116H333.037ZM344.456 124.64L348.218 114.434L348.272 117.458L339.758 96.56H342.566L349.55 114.038H348.398L354.842 96.56H357.542L347.102 124.64H344.456Z" fill="black"></path> </g> <rect x="14" y="4" width="151" height="48" rx="8" fill="white"></rect> <path d="M28.762 39V30.558L22 18.84H24.38L29.798 28.206L35.188 18.84H37.568L30.834 30.558V39H28.762ZM44.0608 39.42C42.5581 39.42 41.2748 39.0793 40.2108 38.398C39.1468 37.7167 38.3301 36.774 37.7608 35.57C37.1915 34.366 36.9068 32.9847 36.9068 31.426C36.9068 29.8393 37.1961 28.4487 37.7748 27.254C38.3535 26.0593 39.1748 25.1307 40.2388 24.468C41.3121 23.796 42.5861 23.46 44.0608 23.46C45.5728 23.46 46.8608 23.8007 47.9248 24.482C48.9981 25.154 49.8148 26.092 50.3748 27.296C50.9441 28.4907 51.2288 29.8673 51.2288 31.426C51.2288 33.0127 50.9441 34.408 50.3748 35.612C49.8055 36.8067 48.9841 37.74 47.9108 38.412C46.8375 39.084 45.5541 39.42 44.0608 39.42ZM44.0608 37.446C45.7408 37.446 46.9915 36.8907 47.8128 35.78C48.6341 34.66 49.0448 33.2087 49.0448 31.426C49.0448 29.5967 48.6295 28.1407 47.7988 27.058C46.9775 25.9753 45.7315 25.434 44.0608 25.434C42.9315 25.434 41.9981 25.6907 41.2608 26.204C40.5328 26.708 39.9868 27.4127 39.6228 28.318C39.2681 29.214 39.0908 30.25 39.0908 31.426C39.0908 33.246 39.5108 34.7067 40.3508 35.808C41.1908 36.9 42.4275 37.446 44.0608 37.446ZM60.5695 39.378C59.6642 39.378 58.8709 39.238 58.1895 38.958C57.5175 38.678 56.9435 38.3 56.4675 37.824C56.0009 37.348 55.6229 36.8067 55.3335 36.2C55.0442 35.584 54.8342 34.9353 54.7035 34.254C54.5729 33.5633 54.5075 32.8773 54.5075 32.196V23.88H56.5795V31.594C56.5795 32.4247 56.6589 33.1947 56.8175 33.904C56.9762 34.6133 57.2282 35.234 57.5735 35.766C57.9282 36.2887 58.3809 36.6947 58.9315 36.984C59.4915 37.2733 60.1682 37.418 60.9615 37.418C61.6895 37.418 62.3289 37.292 62.8795 37.04C63.4395 36.788 63.9062 36.4287 64.2795 35.962C64.6622 35.486 64.9515 34.912 65.1475 34.24C65.3435 33.5587 65.4415 32.7933 65.4415 31.944L66.8975 32.266C66.8975 33.8153 66.6269 35.1173 66.0855 36.172C65.5442 37.2267 64.7975 38.0247 63.8455 38.566C62.8935 39.1073 61.8015 39.378 60.5695 39.378ZM65.6515 39V35.276H65.4415V23.88H67.4995V39H65.6515ZM71.8829 39V23.88H73.7309V27.52L73.3669 27.044C73.5349 26.596 73.7543 26.1853 74.0249 25.812C74.2956 25.4293 74.5896 25.1167 74.9069 24.874C75.2989 24.5287 75.7563 24.2673 76.2789 24.09C76.8016 23.9033 77.3289 23.796 77.8609 23.768C78.3929 23.7307 78.8783 23.768 79.3169 23.88V25.812C78.7663 25.672 78.1643 25.6393 77.5109 25.714C76.8576 25.7887 76.2556 26.05 75.7049 26.498C75.2009 26.89 74.8229 27.3613 74.5709 27.912C74.3189 28.4533 74.1509 29.032 74.0669 29.648C73.9829 30.2547 73.9409 30.8567 73.9409 31.454V39H71.8829ZM94.917 39.42C93.4424 39.42 92.1637 39.0933 91.081 38.44C90.0077 37.7867 89.1724 36.8673 88.575 35.682C87.9777 34.4967 87.679 33.106 87.679 31.51C87.679 29.858 87.973 28.43 88.561 27.226C89.149 26.022 89.975 25.0933 91.039 24.44C92.1124 23.7867 93.377 23.46 94.833 23.46C96.3264 23.46 97.6004 23.8053 98.655 24.496C99.7097 25.1773 100.508 26.1573 101.049 27.436C101.59 28.7147 101.838 30.2407 101.791 32.014H99.691V31.286C99.6537 29.326 99.229 27.8467 98.417 26.848C97.6144 25.8493 96.4384 25.35 94.889 25.35C93.265 25.35 92.019 25.8773 91.151 26.932C90.2924 27.9867 89.863 29.4893 89.863 31.44C89.863 33.344 90.2924 34.8233 91.151 35.878C92.019 36.9233 93.2464 37.446 94.833 37.446C95.9157 37.446 96.8584 37.1987 97.661 36.704C98.473 36.2 99.1124 35.4767 99.579 34.534L101.497 35.276C100.9 36.592 100.018 37.614 98.851 38.342C97.6937 39.0607 96.3824 39.42 94.917 39.42ZM89.135 32.014V30.292H100.685V32.014H89.135ZM122.99 39L123.004 29.074C123.004 27.9073 122.678 26.9927 122.024 26.33C121.38 25.658 120.559 25.322 119.56 25.322C118.991 25.322 118.436 25.4527 117.894 25.714C117.353 25.9753 116.905 26.3953 116.55 26.974C116.205 27.5527 116.032 28.3087 116.032 29.242L114.814 28.892C114.786 27.8093 114.996 26.862 115.444 26.05C115.902 25.238 116.527 24.608 117.32 24.16C118.123 23.7027 119.028 23.474 120.036 23.474C121.558 23.474 122.776 23.9453 123.69 24.888C124.605 25.8213 125.062 27.086 125.062 28.682L125.048 39H122.99ZM104.944 39V23.88H106.792V27.604H107.016V39H104.944ZM113.988 39L114.002 29.214C114.002 28.01 113.68 27.0627 113.036 26.372C112.402 25.672 111.562 25.322 110.516 25.322C109.471 25.322 108.626 25.6813 107.982 26.4C107.338 27.1093 107.016 28.0567 107.016 29.242L105.784 28.57C105.784 27.5993 106.013 26.7313 106.47 25.966C106.928 25.1913 107.553 24.5847 108.346 24.146C109.14 23.698 110.04 23.474 111.048 23.474C112.01 23.474 112.864 23.6793 113.61 24.09C114.366 24.5007 114.959 25.098 115.388 25.882C115.818 26.666 116.032 27.618 116.032 28.738L116.018 39H113.988ZM133.489 39.42C132.35 39.42 131.394 39.2147 130.619 38.804C129.854 38.3933 129.28 37.8473 128.897 37.166C128.514 36.4847 128.323 35.7427 128.323 34.94C128.323 34.1187 128.486 33.4187 128.813 32.84C129.149 32.252 129.602 31.7713 130.171 31.398C130.75 31.0247 131.417 30.74 132.173 30.544C132.938 30.3573 133.783 30.194 134.707 30.054C135.64 29.9047 136.55 29.7787 137.437 29.676C138.333 29.564 139.117 29.4567 139.789 29.354L139.061 29.802C139.089 28.3087 138.8 27.2027 138.193 26.484C137.586 25.7653 136.532 25.406 135.029 25.406C133.993 25.406 133.116 25.6393 132.397 26.106C131.688 26.5727 131.188 27.31 130.899 28.318L128.897 27.73C129.242 26.3767 129.938 25.3267 130.983 24.58C132.028 23.8333 133.386 23.46 135.057 23.46C136.438 23.46 137.61 23.7213 138.571 24.244C139.542 24.7573 140.228 25.504 140.629 26.484C140.816 26.9227 140.937 27.4127 140.993 27.954C141.049 28.4953 141.077 29.046 141.077 29.606V39H139.243V35.206L139.775 35.43C139.262 36.7273 138.464 37.7167 137.381 38.398C136.298 39.0793 135.001 39.42 133.489 39.42ZM133.727 37.642C134.688 37.642 135.528 37.4693 136.247 37.124C136.966 36.7787 137.544 36.3073 137.983 35.71C138.422 35.1033 138.706 34.422 138.837 33.666C138.949 33.1807 139.01 32.6487 139.019 32.07C139.028 31.482 139.033 31.0433 139.033 30.754L139.817 31.16C139.117 31.2533 138.356 31.3467 137.535 31.44C136.723 31.5333 135.92 31.6407 135.127 31.762C134.343 31.8833 133.634 32.028 132.999 32.196C132.57 32.3173 132.154 32.49 131.753 32.714C131.352 32.9287 131.02 33.218 130.759 33.582C130.507 33.946 130.381 34.3987 130.381 34.94C130.381 35.3787 130.488 35.8033 130.703 36.214C130.927 36.6247 131.282 36.9653 131.767 37.236C132.262 37.5067 132.915 37.642 133.727 37.642ZM145.472 21.01V18.7H147.53V21.01H145.472ZM145.472 39V23.88H147.53V39H145.472ZM152.478 39V18.42H154.536V39H152.478Z" fill="#818181"></path> <g filter="url(#filter2_dd_8939_123851)"> <path d="M215.85 135.264L175.771 125.508L186.143 164.18L194.492 157.061L208.291 167.256L218.223 157.061L207.061 144.053L215.85 135.264Z" fill="black" stroke="black" stroke-width="1.63636"></path> <path d="M220.389 155.473L210.054 145.137L217.512 137.679C218.158 137.033 218.423 136.099 218.213 135.209C218.003 134.32 217.348 133.603 216.481 133.314L175.703 122.367C174.756 122.051 173.711 122.297 173.005 123.004C172.299 123.71 172.052 124.754 172.368 125.702L183.315 166.48C183.604 167.347 184.321 168.002 185.21 168.212C186.1 168.423 187.034 168.157 187.681 167.511L195.139 160.053L205.474 170.388C205.989 170.903 206.664 171.161 207.338 171.161C208.013 171.161 208.688 170.903 209.203 170.388L220.39 159.202C221.419 158.172 221.419 156.502 220.389 155.473ZM207.338 164.795L197.003 154.46C195.973 153.43 194.303 153.43 193.274 154.46L186.968 160.765L179.038 129.037L210.766 136.967L204.461 143.273C203.432 144.301 203.431 145.972 204.461 147.002L214.796 157.337L207.338 164.795Z" fill="white"></path> </g> <defs> <filter id="filter0_ii_8939_123851" x="0" y="54" width="464" height="102" filterUnits="userSpaceOnUse" color-interpolation-filters="sRGB"> <feFlood flood-opacity="0" result="BackgroundImageFix"></feFlood> <feBlend mode="normal" in="SourceGraphic" in2="BackgroundImageFix" result="shape"></feBlend> <feColorMatrix in="SourceAlpha" type="matrix" values="0 0 0 0 0 0 0 0 0 0 0 0 0 0 0 0 0 0 127 0" result="hardAlpha"></feColorMatrix> <feOffset dy="6"></feOffset> <feGaussianBlur stdDeviation="6"></feGaussianBlur> <feComposite in2="hardAlpha" operator="arithmetic" k2="-1" k3="1"></feComposite> <feColorMatrix type="matrix" values="0 0 0 0 0 0 0 0 0 0 0 0 0 0 0 0 0 0 0.06 0"></feColorMatrix> <feBlend mode="normal" in2="shape" result="effect1_innerShadow_8939_123851"></feBlend> <feColorMatrix in="SourceAlpha" type="matrix" values="0 0 0 0 0 0 0 0 0 0 0 0 0 0 0 0 0 0 127 0" result="hardAlpha"></feColorMatrix> <feOffset dy="2"></feOffset> <feGaussianBlur stdDeviation="2"></feGaussianBlur> <feComposite in2="hardAlpha" operator="arithmetic" k2="-1" k3="1"></feComposite> <feColorMatrix type="matrix" values="0 0 0 0 0 0 0 0 0 0 0 0 0 0 0 0 0 0 0.12 0"></feColorMatrix> <feBlend mode="normal" in2="effect1_innerShadow_8939_123851" result="effect2_innerShadow_8939_123851"></feBlend> </filter> <filter id="filter1_d_8939_123851" x="24.5195" y="89.54" width="335.022" height="39.1" filterUnits="userSpaceOnUse" color-interpolation-filters="sRGB"> <feFlood flood-opacity="0" result="BackgroundImageFix"></feFlood> <feColorMatrix in="SourceAlpha" type="matrix" values="0 0 0 0 0 0 0 0 0 0 0 0 0 0 0 0 0 0 127 0" result="hardAlpha"></feColorMatrix> <feOffset dy="2"></feOffset> <feGaussianBlur stdDeviation="1"></feGaussianBlur> <feComposite in2="hardAlpha" operator="out"></feComposite> <feColorMatrix type="matrix" values="0 0 0 0 1 0 0 0 0 1 0 0 0 0 1 0 0 0 1 0"></feColorMatrix> <feBlend mode="normal" in2="BackgroundImageFix" result="effect1_dropShadow_8939_123851"></feBlend> <feBlend mode="normal" in="SourceGraphic" in2="effect1_dropShadow_8939_123851" result="shape"></feBlend> </filter> <filter id="filter2_dd_8939_123851" x="108" y="74" width="154" height="154" filterUnits="userSpaceOnUse" color-interpolation-filters="sRGB"> <feFlood flood-opacity="0" result="BackgroundImageFix"></feFlood> <feColorMatrix in="SourceAlpha" type="matrix" values="0 0 0 0 0 0 0 0 0 0 0 0 0 0 0 0 0 0 127 0" result="hardAlpha"></feColorMatrix> <feOffset dy="16"></feOffset> <feGaussianBlur stdDeviation="16"></feGaussianBlur> <feColorMatrix type="matrix" values="0 0 0 0 0.380392 0 0 0 0 0.380392 0 0 0 0 0.380392 0 0 0 0.14 0"></feColorMatrix> <feBlend mode="multiply" in2="BackgroundImageFix" result="effect1_dropShadow_8939_123851"></feBlend> <feColorMatrix in="SourceAlpha" type="matrix" values="0 0 0 0 0 0 0 0 0 0 0 0 0 0 0 0 0 0 127 0" result="hardAlpha"></feColorMatrix> <feOffset dy="8"></feOffset> <feGaussianBlur stdDeviation="8"></feGaussianBlur> <feColorMatrix type="matrix" values="0 0 0 0 0.380392 0 0 0 0 0.380392 0 0 0 0 0.380392 0 0 0 0.14 0"></feColorMatrix> <feBlend mode="multiply" in2="effect1_dropShadow_8939_123851" result="effect2_dropShadow_8939_123851"></feBlend> <feBlend mode="normal" in="SourceGraphic" in2="effect2_dropShadow_8939_123851" result="shape"></feBlend> </filter> <linearGradient id="paint0_linear_8939_123851" x1="232" y1="54" x2="232" y2="150" gradientUnits="userSpaceOnUse"> <stop stop-color="#F5F5F5"></stop> <stop offset="1" stop-color="#F5F5F5" stop-opacity="0"></stop> </linearGradient> <linearGradient id="paint1_linear_8939_123851" x1="232" y1="54" x2="232" y2="150" gradientUnits="userSpaceOnUse"> <stop stop-color="#EEEEEE" stop-opacity="0"></stop> <stop offset="1" stop-color="#F1F0F4"></stop> </linearGradient> </defs> </svg> 