<?xml version="1.0" encoding="UTF-8"?> <svg xmlns="http://www.w3.org/2000/svg" width="348" height="120" viewBox="0 0 348 120" fill="none"> <rect x="0.75" y="0.75" width="346.5" height="118.5" rx="19.25" fill="url(#paint0_linear_8972_166339)"></rect> <g filter="url(#filter0_ii_8972_166339)"> <rect x="40" y="40" width="268" height="48" rx="10" fill="url(#paint1_linear_8972_166339)"></rect> </g> <rect x="40.5" y="40.5" width="267" height="47" rx="9.5" stroke="url(#paint2_linear_8972_166339)"></rect> <g clip-path="url(#clip0_8972_166339)"> <g filter="url(#filter1_dd_8972_166339)"> <path d="M76 58.25C76 56.6622 74.7688 55.375 73.25 55.375H56.75C55.2312 55.375 54 56.6622 54 58.25V59.6875H76V58.25Z" fill="#5668D5"></path> <path fill-rule="evenodd" clip-rule="evenodd" d="M76 62.5625V69.75C76 71.3378 74.7688 72.625 73.25 72.625H56.75C55.2312 72.625 54 71.3378 54 69.75V62.5625H76ZM71.875 65.4375C72.6344 65.4375 73.25 66.0811 73.25 66.875V68.3125C73.25 69.1064 72.6344 69.75 71.875 69.75H70.5C69.7406 69.75 69.125 69.1064 69.125 68.3125V66.875C69.125 66.0811 69.7406 65.4375 70.5 65.4375H71.875Z" fill="#5668D5"></path> </g> <g filter="url(#filter2_d_8972_166339)"> <path d="M87.107 70.482V68.592L92.651 63.651C93.083 63.267 93.383 62.904 93.551 62.562C93.719 62.22 93.803 61.89 93.803 61.572C93.803 61.14 93.71 60.756 93.524 60.42C93.338 60.078 93.08 59.808 92.75 59.61C92.426 59.412 92.051 59.313 91.625 59.313C91.175 59.313 90.776 59.418 90.428 59.628C90.086 59.832 89.819 60.105 89.627 60.447C89.435 60.789 89.345 61.158 89.357 61.554H87.125C87.125 60.69 87.317 59.937 87.701 59.295C88.091 58.653 88.625 58.155 89.303 57.801C89.987 57.447 90.776 57.27 91.67 57.27C92.498 57.27 93.242 57.456 93.902 57.828C94.562 58.194 95.081 58.704 95.459 59.358C95.837 60.006 96.026 60.753 96.026 61.599C96.026 62.217 95.942 62.736 95.774 63.156C95.606 63.576 95.354 63.963 95.018 64.317C94.688 64.671 94.277 65.064 93.785 65.496L89.852 68.979L89.654 68.439H96.026V70.482H87.107ZM98.5715 70.482V68.592L104.116 63.651C104.548 63.267 104.848 62.904 105.016 62.562C105.184 62.22 105.268 61.89 105.268 61.572C105.268 61.14 105.175 60.756 104.989 60.42C104.803 60.078 104.545 59.808 104.215 59.61C103.891 59.412 103.516 59.313 103.09 59.313C102.64 59.313 102.241 59.418 101.893 59.628C101.551 59.832 101.284 60.105 101.092 60.447C100.9 60.789 100.81 61.158 100.822 61.554H98.5895C98.5895 60.69 98.7815 59.937 99.1655 59.295C99.5555 58.653 100.09 58.155 100.768 57.801C101.452 57.447 102.241 57.27 103.135 57.27C103.963 57.27 104.707 57.456 105.367 57.828C106.027 58.194 106.546 58.704 106.924 59.358C107.302 60.006 107.491 60.753 107.491 61.599C107.491 62.217 107.407 62.736 107.239 63.156C107.071 63.576 106.819 63.963 106.483 64.317C106.153 64.671 105.742 65.064 105.25 65.496L101.317 68.979L101.119 68.439H107.491V70.482H98.5715ZM114.518 70.77C113.594 70.77 112.781 70.575 112.079 70.185C111.383 69.789 110.837 69.24 110.441 68.538C110.051 67.836 109.856 67.026 109.856 66.108V61.932C109.856 61.014 110.051 60.204 110.441 59.502C110.837 58.8 111.383 58.254 112.079 57.864C112.781 57.468 113.594 57.27 114.518 57.27C115.436 57.27 116.243 57.468 116.939 57.864C117.641 58.254 118.19 58.8 118.586 59.502C118.982 60.204 119.18 61.014 119.18 61.932V66.108C119.18 67.026 118.982 67.836 118.586 68.538C118.19 69.24 117.641 69.789 116.939 70.185C116.243 70.575 115.436 70.77 114.518 70.77ZM114.518 68.709C114.974 68.709 115.385 68.601 115.751 68.385C116.123 68.163 116.417 67.869 116.633 67.503C116.855 67.131 116.966 66.717 116.966 66.261V61.77C116.966 61.308 116.855 60.894 116.633 60.528C116.417 60.156 116.123 59.862 115.751 59.646C115.385 59.424 114.974 59.313 114.518 59.313C114.056 59.313 113.639 59.424 113.267 59.646C112.901 59.862 112.607 60.156 112.385 60.528C112.169 60.894 112.061 61.308 112.061 61.77V66.261C112.061 66.717 112.169 67.131 112.385 67.503C112.607 67.869 112.901 68.163 113.267 68.385C113.639 68.601 114.056 68.709 114.518 68.709ZM121.501 70.482V68.592L127.045 63.651C127.477 63.267 127.777 62.904 127.945 62.562C128.113 62.22 128.197 61.89 128.197 61.572C128.197 61.14 128.104 60.756 127.918 60.42C127.732 60.078 127.474 59.808 127.144 59.61C126.82 59.412 126.445 59.313 126.019 59.313C125.569 59.313 125.17 59.418 124.822 59.628C124.48 59.832 124.213 60.105 124.021 60.447C123.829 60.789 123.739 61.158 123.751 61.554H121.519C121.519 60.69 121.711 59.937 122.095 59.295C122.485 58.653 123.019 58.155 123.697 57.801C124.381 57.447 125.17 57.27 126.064 57.27C126.892 57.27 127.636 57.456 128.296 57.828C128.956 58.194 129.475 58.704 129.853 59.358C130.231 60.006 130.42 60.753 130.42 61.599C130.42 62.217 130.336 62.736 130.168 63.156C130 63.576 129.748 63.963 129.412 64.317C129.082 64.671 128.671 65.064 128.179 65.496L124.246 68.979L124.048 68.439H130.42V70.482H121.501ZM145.088 70.77C144.428 70.77 143.813 70.635 143.243 70.365C142.673 70.089 142.181 69.711 141.767 69.231C141.359 68.751 141.065 68.193 140.885 67.557L142.973 66.999C143.057 67.347 143.21 67.647 143.432 67.899C143.66 68.151 143.924 68.346 144.224 68.484C144.53 68.622 144.845 68.691 145.169 68.691C145.589 68.691 145.973 68.589 146.321 68.385C146.669 68.181 146.945 67.908 147.149 67.566C147.353 67.218 147.455 66.834 147.455 66.414C147.455 65.994 147.35 65.613 147.14 65.271C146.936 64.923 146.66 64.65 146.312 64.452C145.964 64.248 145.583 64.146 145.169 64.146C144.671 64.146 144.257 64.236 143.927 64.416C143.603 64.596 143.354 64.788 143.18 64.992L141.326 64.398L141.722 57.54H148.76V59.574H142.883L143.693 58.809L143.405 63.579L143.009 63.093C143.345 62.787 143.735 62.559 144.179 62.409C144.623 62.259 145.052 62.184 145.466 62.184C146.276 62.184 146.993 62.37 147.617 62.742C148.247 63.108 148.739 63.609 149.093 64.245C149.453 64.881 149.633 65.604 149.633 66.414C149.633 67.224 149.423 67.959 149.003 68.619C148.583 69.273 148.028 69.795 147.338 70.185C146.654 70.575 145.904 70.77 145.088 70.77ZM156.696 70.77C155.838 70.77 155.076 70.596 154.41 70.248C153.744 69.9 153.222 69.417 152.844 68.799C152.466 68.181 152.277 67.473 152.277 66.675C152.277 65.961 152.442 65.298 152.772 64.686C153.102 64.074 153.585 63.585 154.221 63.219L154.176 63.912C153.678 63.534 153.291 63.099 153.015 62.607C152.745 62.109 152.61 61.551 152.61 60.933C152.61 60.189 152.784 59.544 153.132 58.998C153.486 58.452 153.969 58.029 154.581 57.729C155.193 57.423 155.898 57.27 156.696 57.27C157.494 57.27 158.199 57.423 158.811 57.729C159.429 58.029 159.912 58.452 160.26 58.998C160.614 59.544 160.791 60.189 160.791 60.933C160.791 61.551 160.659 62.106 160.395 62.598C160.137 63.09 159.744 63.534 159.216 63.93L159.207 63.228C159.831 63.582 160.308 64.068 160.638 64.686C160.974 65.298 161.142 65.961 161.142 66.675C161.142 67.473 160.95 68.181 160.566 68.799C160.188 69.417 159.663 69.9 158.991 70.248C158.325 70.596 157.56 70.77 156.696 70.77ZM156.696 68.727C157.332 68.727 157.848 68.553 158.244 68.205C158.646 67.857 158.847 67.347 158.847 66.675C158.847 66.003 158.649 65.493 158.253 65.145C157.857 64.791 157.338 64.614 156.696 64.614C156.06 64.614 155.547 64.791 155.157 65.145C154.767 65.493 154.572 66.003 154.572 66.675C154.572 67.347 154.767 67.857 155.157 68.205C155.547 68.553 156.06 68.727 156.696 68.727ZM156.696 62.553C157.23 62.553 157.662 62.421 157.992 62.157C158.328 61.887 158.496 61.479 158.496 60.933C158.496 60.387 158.328 59.982 157.992 59.718C157.662 59.448 157.23 59.313 156.696 59.313C156.168 59.313 155.736 59.448 155.4 59.718C155.07 59.982 154.905 60.387 154.905 60.933C154.905 61.479 155.07 61.887 155.4 62.157C155.736 62.421 156.168 62.553 156.696 62.553Z" fill="black"></path> <path d="M171.383 70.77C170.543 70.77 169.793 70.581 169.133 70.203C168.479 69.819 167.96 69.3 167.576 68.646C167.198 67.986 167.009 67.236 167.009 66.396V61.644C167.009 60.804 167.198 60.054 167.576 59.394C167.96 58.734 168.479 58.215 169.133 57.837C169.793 57.459 170.543 57.27 171.383 57.27C172.223 57.27 172.973 57.459 173.633 57.837C174.293 58.215 174.812 58.734 175.19 59.394C175.568 60.054 175.757 60.804 175.757 61.644V66.396C175.757 67.236 175.568 67.986 175.19 68.646C174.812 69.3 174.293 69.819 173.633 70.203C172.973 70.581 172.223 70.77 171.383 70.77ZM171.383 69.231C171.893 69.231 172.355 69.108 172.769 68.862C173.183 68.616 173.513 68.286 173.759 67.872C174.005 67.452 174.128 66.99 174.128 66.486V61.545C174.128 61.035 174.005 60.573 173.759 60.159C173.513 59.745 173.183 59.415 172.769 59.169C172.355 58.923 171.893 58.8 171.383 58.8C170.879 58.8 170.417 58.923 169.997 59.169C169.583 59.415 169.253 59.745 169.007 60.159C168.761 60.573 168.638 61.035 168.638 61.545V66.486C168.638 66.99 168.761 67.452 169.007 67.872C169.253 68.286 169.583 68.616 169.997 68.862C170.417 69.108 170.879 69.231 171.383 69.231ZM182.847 70.77C182.007 70.77 181.257 70.581 180.597 70.203C179.943 69.819 179.424 69.3 179.04 68.646C178.662 67.986 178.473 67.236 178.473 66.396V61.644C178.473 60.804 178.662 60.054 179.04 59.394C179.424 58.734 179.943 58.215 180.597 57.837C181.257 57.459 182.007 57.27 182.847 57.27C183.687 57.27 184.437 57.459 185.097 57.837C185.757 58.215 186.276 58.734 186.654 59.394C187.032 60.054 187.221 60.804 187.221 61.644V66.396C187.221 67.236 187.032 67.986 186.654 68.646C186.276 69.3 185.757 69.819 185.097 70.203C184.437 70.581 183.687 70.77 182.847 70.77ZM182.847 69.231C183.357 69.231 183.819 69.108 184.233 68.862C184.647 68.616 184.977 68.286 185.223 67.872C185.469 67.452 185.592 66.99 185.592 66.486V61.545C185.592 61.035 185.469 60.573 185.223 60.159C184.977 59.745 184.647 59.415 184.233 59.169C183.819 58.923 183.357 58.8 182.847 58.8C182.343 58.8 181.881 58.923 181.461 59.169C181.047 59.415 180.717 59.745 180.471 60.159C180.225 60.573 180.102 61.035 180.102 61.545V66.486C180.102 66.99 180.225 67.452 180.471 67.872C180.717 68.286 181.047 68.616 181.461 68.862C181.881 69.108 182.343 69.231 182.847 69.231ZM202.124 70.77C201.284 70.77 200.534 70.581 199.874 70.203C199.22 69.819 198.701 69.3 198.317 68.646C197.939 67.986 197.75 67.236 197.75 66.396V61.644C197.75 60.804 197.939 60.054 198.317 59.394C198.701 58.734 199.22 58.215 199.874 57.837C200.534 57.459 201.284 57.27 202.124 57.27C202.964 57.27 203.714 57.459 204.374 57.837C205.034 58.215 205.553 58.734 205.931 59.394C206.309 60.054 206.498 60.804 206.498 61.644V66.396C206.498 67.236 206.309 67.986 205.931 68.646C205.553 69.3 205.034 69.819 204.374 70.203C203.714 70.581 202.964 70.77 202.124 70.77ZM202.124 69.231C202.634 69.231 203.096 69.108 203.51 68.862C203.924 68.616 204.254 68.286 204.5 67.872C204.746 67.452 204.869 66.99 204.869 66.486V61.545C204.869 61.035 204.746 60.573 204.5 60.159C204.254 59.745 203.924 59.415 203.51 59.169C203.096 58.923 202.634 58.8 202.124 58.8C201.62 58.8 201.158 58.923 200.738 59.169C200.324 59.415 199.994 59.745 199.748 60.159C199.502 60.573 199.379 61.035 199.379 61.545V66.486C199.379 66.99 199.502 67.452 199.748 67.872C199.994 68.286 200.324 68.616 200.738 68.862C201.158 69.108 201.62 69.231 202.124 69.231ZM213.588 70.77C212.748 70.77 211.998 70.581 211.338 70.203C210.684 69.819 210.165 69.3 209.781 68.646C209.403 67.986 209.214 67.236 209.214 66.396V61.644C209.214 60.804 209.403 60.054 209.781 59.394C210.165 58.734 210.684 58.215 211.338 57.837C211.998 57.459 212.748 57.27 213.588 57.27C214.428 57.27 215.178 57.459 215.838 57.837C216.498 58.215 217.017 58.734 217.395 59.394C217.773 60.054 217.962 60.804 217.962 61.644V66.396C217.962 67.236 217.773 67.986 217.395 68.646C217.017 69.3 216.498 69.819 215.838 70.203C215.178 70.581 214.428 70.77 213.588 70.77ZM213.588 69.231C214.098 69.231 214.56 69.108 214.974 68.862C215.388 68.616 215.718 68.286 215.964 67.872C216.21 67.452 216.333 66.99 216.333 66.486V61.545C216.333 61.035 216.21 60.573 215.964 60.159C215.718 59.745 215.388 59.415 214.974 59.169C214.56 58.923 214.098 58.8 213.588 58.8C213.084 58.8 212.622 58.923 212.202 59.169C211.788 59.415 211.458 59.745 211.212 60.159C210.966 60.573 210.843 61.035 210.843 61.545V66.486C210.843 66.99 210.966 67.452 211.212 67.872C211.458 68.286 211.788 68.616 212.202 68.862C212.622 69.108 213.084 69.231 213.588 69.231ZM225.053 70.77C224.213 70.77 223.463 70.581 222.803 70.203C222.149 69.819 221.63 69.3 221.246 68.646C220.868 67.986 220.679 67.236 220.679 66.396V61.644C220.679 60.804 220.868 60.054 221.246 59.394C221.63 58.734 222.149 58.215 222.803 57.837C223.463 57.459 224.213 57.27 225.053 57.27C225.893 57.27 226.643 57.459 227.303 57.837C227.963 58.215 228.482 58.734 228.86 59.394C229.238 60.054 229.427 60.804 229.427 61.644V66.396C229.427 67.236 229.238 67.986 228.86 68.646C228.482 69.3 227.963 69.819 227.303 70.203C226.643 70.581 225.893 70.77 225.053 70.77ZM225.053 69.231C225.563 69.231 226.025 69.108 226.439 68.862C226.853 68.616 227.183 68.286 227.429 67.872C227.675 67.452 227.798 66.99 227.798 66.486V61.545C227.798 61.035 227.675 60.573 227.429 60.159C227.183 59.745 226.853 59.415 226.439 59.169C226.025 58.923 225.563 58.8 225.053 58.8C224.549 58.8 224.087 58.923 223.667 59.169C223.253 59.415 222.923 59.745 222.677 60.159C222.431 60.573 222.308 61.035 222.308 61.545V66.486C222.308 66.99 222.431 67.452 222.677 67.872C222.923 68.286 223.253 68.616 223.667 68.862C224.087 69.108 224.549 69.231 225.053 69.231ZM236.517 70.77C235.677 70.77 234.927 70.581 234.267 70.203C233.613 69.819 233.094 69.3 232.71 68.646C232.332 67.986 232.143 67.236 232.143 66.396V61.644C232.143 60.804 232.332 60.054 232.71 59.394C233.094 58.734 233.613 58.215 234.267 57.837C234.927 57.459 235.677 57.27 236.517 57.27C237.357 57.27 238.107 57.459 238.767 57.837C239.427 58.215 239.946 58.734 240.324 59.394C240.702 60.054 240.891 60.804 240.891 61.644V66.396C240.891 67.236 240.702 67.986 240.324 68.646C239.946 69.3 239.427 69.819 238.767 70.203C238.107 70.581 237.357 70.77 236.517 70.77ZM236.517 69.231C237.027 69.231 237.489 69.108 237.903 68.862C238.317 68.616 238.647 68.286 238.893 67.872C239.139 67.452 239.262 66.99 239.262 66.486V61.545C239.262 61.035 239.139 60.573 238.893 60.159C238.647 59.745 238.317 59.415 237.903 59.169C237.489 58.923 237.027 58.8 236.517 58.8C236.013 58.8 235.551 58.923 235.131 59.169C234.717 59.415 234.387 59.745 234.141 60.159C233.895 60.573 233.772 61.035 233.772 61.545V66.486C233.772 66.99 233.895 67.452 234.141 67.872C234.387 68.286 234.717 68.616 235.131 68.862C235.551 69.108 236.013 69.231 236.517 69.231ZM255.794 70.77C254.954 70.77 254.204 70.581 253.544 70.203C252.89 69.819 252.371 69.3 251.987 68.646C251.609 67.986 251.42 67.236 251.42 66.396V61.644C251.42 60.804 251.609 60.054 251.987 59.394C252.371 58.734 252.89 58.215 253.544 57.837C254.204 57.459 254.954 57.27 255.794 57.27C256.634 57.27 257.384 57.459 258.044 57.837C258.704 58.215 259.223 58.734 259.601 59.394C259.979 60.054 260.168 60.804 260.168 61.644V66.396C260.168 67.236 259.979 67.986 259.601 68.646C259.223 69.3 258.704 69.819 258.044 70.203C257.384 70.581 256.634 70.77 255.794 70.77ZM255.794 69.231C256.304 69.231 256.766 69.108 257.18 68.862C257.594 68.616 257.924 68.286 258.17 67.872C258.416 67.452 258.539 66.99 258.539 66.486V61.545C258.539 61.035 258.416 60.573 258.17 60.159C257.924 59.745 257.594 59.415 257.18 59.169C256.766 58.923 256.304 58.8 255.794 58.8C255.29 58.8 254.828 58.923 254.408 59.169C253.994 59.415 253.664 59.745 253.418 60.159C253.172 60.573 253.049 61.035 253.049 61.545V66.486C253.049 66.99 253.172 67.452 253.418 67.872C253.664 68.286 253.994 68.616 254.408 68.862C254.828 69.108 255.29 69.231 255.794 69.231ZM267.258 70.77C266.418 70.77 265.668 70.581 265.008 70.203C264.354 69.819 263.835 69.3 263.451 68.646C263.073 67.986 262.884 67.236 262.884 66.396V61.644C262.884 60.804 263.073 60.054 263.451 59.394C263.835 58.734 264.354 58.215 265.008 57.837C265.668 57.459 266.418 57.27 267.258 57.27C268.098 57.27 268.848 57.459 269.508 57.837C270.168 58.215 270.687 58.734 271.065 59.394C271.443 60.054 271.632 60.804 271.632 61.644V66.396C271.632 67.236 271.443 67.986 271.065 68.646C270.687 69.3 270.168 69.819 269.508 70.203C268.848 70.581 268.098 70.77 267.258 70.77ZM267.258 69.231C267.768 69.231 268.23 69.108 268.644 68.862C269.058 68.616 269.388 68.286 269.634 67.872C269.88 67.452 270.003 66.99 270.003 66.486V61.545C270.003 61.035 269.88 60.573 269.634 60.159C269.388 59.745 269.058 59.415 268.644 59.169C268.23 58.923 267.768 58.8 267.258 58.8C266.754 58.8 266.292 58.923 265.872 59.169C265.458 59.415 265.128 59.745 264.882 60.159C264.636 60.573 264.513 61.035 264.513 61.545V66.486C264.513 66.99 264.636 67.452 264.882 67.872C265.128 68.286 265.458 68.616 265.872 68.862C266.292 69.108 266.754 69.231 267.258 69.231ZM278.723 70.77C277.883 70.77 277.133 70.581 276.473 70.203C275.819 69.819 275.3 69.3 274.916 68.646C274.538 67.986 274.349 67.236 274.349 66.396V61.644C274.349 60.804 274.538 60.054 274.916 59.394C275.3 58.734 275.819 58.215 276.473 57.837C277.133 57.459 277.883 57.27 278.723 57.27C279.563 57.27 280.313 57.459 280.973 57.837C281.633 58.215 282.152 58.734 282.53 59.394C282.908 60.054 283.097 60.804 283.097 61.644V66.396C283.097 67.236 282.908 67.986 282.53 68.646C282.152 69.3 281.633 69.819 280.973 70.203C280.313 70.581 279.563 70.77 278.723 70.77ZM278.723 69.231C279.233 69.231 279.695 69.108 280.109 68.862C280.523 68.616 280.853 68.286 281.099 67.872C281.345 67.452 281.468 66.99 281.468 66.486V61.545C281.468 61.035 281.345 60.573 281.099 60.159C280.853 59.745 280.523 59.415 280.109 59.169C279.695 58.923 279.233 58.8 278.723 58.8C278.219 58.8 277.757 58.923 277.337 59.169C276.923 59.415 276.593 59.745 276.347 60.159C276.101 60.573 275.978 61.035 275.978 61.545V66.486C275.978 66.99 276.101 67.452 276.347 67.872C276.593 68.286 276.923 68.616 277.337 68.862C277.757 69.108 278.219 69.231 278.723 69.231ZM290.187 70.77C289.347 70.77 288.597 70.581 287.937 70.203C287.283 69.819 286.764 69.3 286.38 68.646C286.002 67.986 285.813 67.236 285.813 66.396V61.644C285.813 60.804 286.002 60.054 286.38 59.394C286.764 58.734 287.283 58.215 287.937 57.837C288.597 57.459 289.347 57.27 290.187 57.27C291.027 57.27 291.777 57.459 292.437 57.837C293.097 58.215 293.616 58.734 293.994 59.394C294.372 60.054 294.561 60.804 294.561 61.644V66.396C294.561 67.236 294.372 67.986 293.994 68.646C293.616 69.3 293.097 69.819 292.437 70.203C291.777 70.581 291.027 70.77 290.187 70.77ZM290.187 69.231C290.697 69.231 291.159 69.108 291.573 68.862C291.987 68.616 292.317 68.286 292.563 67.872C292.809 67.452 292.932 66.99 292.932 66.486V61.545C292.932 61.035 292.809 60.573 292.563 60.159C292.317 59.745 291.987 59.415 291.573 59.169C291.159 58.923 290.697 58.8 290.187 58.8C289.683 58.8 289.221 58.923 288.801 59.169C288.387 59.415 288.057 59.745 287.811 60.159C287.565 60.573 287.442 61.035 287.442 61.545V66.486C287.442 66.99 287.565 67.452 287.811 67.872C288.057 68.286 288.387 68.616 288.801 68.862C289.221 69.108 289.683 69.231 290.187 69.231Z" fill="#A1A1A1"></path> </g> </g> <rect x="37" y="16" width="137" height="24" rx="4" fill="white"></rect> <path d="M46.061 33.21C45.0577 33.21 44.2107 32.9883 43.52 32.545C42.8293 32.097 42.3067 31.4787 41.952 30.69C41.5973 29.9013 41.42 28.9913 41.42 27.96C41.42 26.9287 41.5973 26.0187 41.952 25.23C42.3067 24.4413 42.8293 23.8253 43.52 23.382C44.2107 22.934 45.0577 22.71 46.061 22.71C47.2323 22.71 48.189 23.011 48.931 23.613C49.673 24.2103 50.1817 25.013 50.457 26.021L49.407 26.294C49.1923 25.496 48.8073 24.8637 48.252 24.397C47.6967 23.9303 46.9663 23.697 46.061 23.697C45.2723 23.697 44.6167 23.8767 44.094 24.236C43.5713 24.5953 43.177 25.097 42.911 25.741C42.6497 26.3803 42.5143 27.12 42.505 27.96C42.5003 28.8 42.6287 29.5397 42.89 30.179C43.156 30.8183 43.5527 31.32 44.08 31.684C44.612 32.0433 45.2723 32.223 46.061 32.223C46.9663 32.223 47.6967 31.9897 48.252 31.523C48.8073 31.0517 49.1923 30.4193 49.407 29.626L50.457 29.899C50.1817 30.907 49.673 31.712 48.931 32.314C48.189 32.9113 47.2323 33.21 46.061 33.21ZM52.2367 33V25.44H53.1607V27.26L52.9787 27.022C53.0627 26.798 53.1724 26.5927 53.3077 26.406C53.443 26.2147 53.59 26.0583 53.7487 25.937C53.9447 25.7643 54.1734 25.6337 54.4347 25.545C54.696 25.4517 54.9597 25.398 55.2257 25.384C55.4917 25.3653 55.7344 25.384 55.9537 25.44V26.406C55.6784 26.336 55.3774 26.3197 55.0507 26.357C54.724 26.3943 54.423 26.525 54.1477 26.749C53.8957 26.945 53.7067 27.1807 53.5807 27.456C53.4547 27.7267 53.3707 28.016 53.3287 28.324C53.2867 28.6273 53.2657 28.9283 53.2657 29.227V33H52.2367ZM60.5791 33.21C59.8418 33.21 59.2024 33.0467 58.6611 32.72C58.1244 32.3933 57.7068 31.9337 57.4081 31.341C57.1094 30.7483 56.9601 30.053 56.9601 29.255C56.9601 28.429 57.1071 27.715 57.4011 27.113C57.6951 26.511 58.1081 26.0467 58.6401 25.72C59.1768 25.3933 59.8091 25.23 60.5371 25.23C61.2838 25.23 61.9208 25.4027 62.4481 25.748C62.9754 26.0887 63.3744 26.5787 63.6451 27.218C63.9158 27.8573 64.0394 28.6203 64.0161 29.507H62.9661V29.143C62.9474 28.163 62.7351 27.4233 62.3291 26.924C61.9278 26.4247 61.3398 26.175 60.5651 26.175C59.7531 26.175 59.1301 26.4387 58.6961 26.966C58.2668 27.4933 58.0521 28.2447 58.0521 29.22C58.0521 30.172 58.2668 30.9117 58.6961 31.439C59.1301 31.9617 59.7438 32.223 60.5371 32.223C61.0784 32.223 61.5498 32.0993 61.9511 31.852C62.3571 31.6 62.6768 31.2383 62.9101 30.767L63.8691 31.138C63.5704 31.796 63.1294 32.307 62.5461 32.671C61.9674 33.0303 61.3118 33.21 60.5791 33.21ZM57.6881 29.507V28.646H63.4631V29.507H57.6881ZM68.7377 33.21C68.0331 33.21 67.4311 33.035 66.9317 32.685C66.4324 32.3303 66.0497 31.852 65.7837 31.25C65.5177 30.648 65.3847 29.969 65.3847 29.213C65.3847 28.4617 65.5154 27.785 65.7767 27.183C66.0427 26.581 66.4231 26.105 66.9177 25.755C67.4124 25.405 68.0051 25.23 68.6957 25.23C69.4051 25.23 70.0024 25.4027 70.4877 25.748C70.9731 26.0933 71.3394 26.567 71.5867 27.169C71.8387 27.7663 71.9647 28.4477 71.9647 29.213C71.9647 29.9643 71.8411 30.6433 71.5937 31.25C71.3464 31.852 70.9824 32.3303 70.5017 32.685C70.0211 33.035 69.4331 33.21 68.7377 33.21ZM68.8427 32.251C69.3794 32.251 69.8227 32.1203 70.1727 31.859C70.5227 31.5977 70.7841 31.2383 70.9567 30.781C71.1294 30.319 71.2157 29.7963 71.2157 29.213C71.2157 28.6203 71.1294 28.0977 70.9567 27.645C70.7841 27.1877 70.5227 26.8307 70.1727 26.574C69.8274 26.3173 69.3911 26.189 68.8637 26.189C68.3224 26.189 67.8744 26.322 67.5197 26.588C67.1651 26.854 66.9014 27.2157 66.7287 27.673C66.5607 28.1303 66.4767 28.6437 66.4767 29.213C66.4767 29.787 66.5631 30.305 66.7357 30.767C66.9131 31.2243 67.1767 31.586 67.5267 31.852C67.8767 32.118 68.3154 32.251 68.8427 32.251ZM71.2157 33V27.309H71.1037V22.92H72.1397V33H71.2157ZM74.4788 24.005V22.85H75.5078V24.005H74.4788ZM74.4788 33V25.44H75.5078V33H74.4788ZM81.9575 33C81.5329 33.0887 81.1129 33.1237 80.6975 33.105C80.2869 33.0863 79.9182 32.9977 79.5915 32.839C79.2695 32.6803 79.0245 32.433 78.8565 32.097C78.7212 31.817 78.6465 31.5347 78.6325 31.25C78.6232 30.9607 78.6185 30.6317 78.6185 30.263V23.34H79.6405V30.221C79.6405 30.5383 79.6429 30.8043 79.6475 31.019C79.6569 31.229 79.7059 31.4157 79.7945 31.579C79.9625 31.8917 80.2285 32.0783 80.5925 32.139C80.9612 32.1997 81.4162 32.1857 81.9575 32.097V33ZM77.0015 26.322V25.44H81.9575V26.322H77.0015ZM89.8562 33.21C89.0955 33.21 88.4515 33.0397 87.9242 32.699C87.3968 32.3583 86.9955 31.8893 86.7202 31.292C86.4495 30.69 86.3095 29.9993 86.3002 29.22C86.3095 28.4267 86.4542 27.7313 86.7342 27.134C87.0142 26.532 87.4178 26.0653 87.9452 25.734C88.4725 25.398 89.1118 25.23 89.8632 25.23C90.6285 25.23 91.2935 25.4167 91.8582 25.79C92.4275 26.1633 92.8172 26.6743 93.0272 27.323L92.0192 27.645C91.8418 27.1923 91.5595 26.8423 91.1722 26.595C90.7895 26.343 90.3508 26.217 89.8562 26.217C89.3008 26.217 88.8412 26.3453 88.4772 26.602C88.1132 26.854 87.8425 27.2063 87.6652 27.659C87.4878 28.1117 87.3968 28.632 87.3922 29.22C87.4015 30.1253 87.6115 30.8533 88.0222 31.404C88.4328 31.95 89.0442 32.223 89.8562 32.223C90.3695 32.223 90.8058 32.1063 91.1652 31.873C91.5292 31.635 91.8045 31.2897 91.9912 30.837L93.0272 31.145C92.7472 31.817 92.3365 32.3303 91.7952 32.685C91.2538 33.035 90.6075 33.21 89.8562 33.21ZM96.8293 33.21C96.26 33.21 95.7816 33.1073 95.3943 32.902C95.0116 32.6967 94.7246 32.4237 94.5333 32.083C94.342 31.7423 94.2463 31.3713 94.2463 30.97C94.2463 30.5593 94.328 30.2093 94.4913 29.92C94.6593 29.626 94.8856 29.3857 95.1703 29.199C95.4596 29.0123 95.7933 28.87 96.1713 28.772C96.554 28.6787 96.9763 28.597 97.4383 28.527C97.905 28.4523 98.36 28.3893 98.8033 28.338C99.2513 28.282 99.6433 28.2283 99.9793 28.177L99.6153 28.401C99.6293 27.6543 99.4846 27.1013 99.1813 26.742C98.878 26.3827 98.3506 26.203 97.5993 26.203C97.0813 26.203 96.6426 26.3197 96.2833 26.553C95.9286 26.7863 95.679 27.155 95.5343 27.659L94.5333 27.365C94.706 26.6883 95.0536 26.1633 95.5763 25.79C96.099 25.4167 96.778 25.23 97.6133 25.23C98.304 25.23 98.8896 25.3607 99.3703 25.622C99.8556 25.8787 100.199 26.252 100.399 26.742C100.493 26.9613 100.553 27.2063 100.581 27.477C100.609 27.7477 100.623 28.023 100.623 28.303V33H99.7063V31.103L99.9723 31.215C99.7156 31.8637 99.3166 32.3583 98.7753 32.699C98.234 33.0397 97.5853 33.21 96.8293 33.21ZM96.9483 32.321C97.429 32.321 97.849 32.2347 98.2083 32.062C98.5676 31.8893 98.857 31.6537 99.0763 31.355C99.2956 31.0517 99.438 30.711 99.5033 30.333C99.5593 30.0903 99.5896 29.8243 99.5943 29.535C99.599 29.241 99.6013 29.0217 99.6013 28.877L99.9933 29.08C99.6433 29.1267 99.263 29.1733 98.8523 29.22C98.4463 29.2667 98.045 29.3203 97.6483 29.381C97.2563 29.4417 96.9016 29.514 96.5843 29.598C96.3696 29.6587 96.162 29.745 95.9613 29.857C95.7606 29.9643 95.595 30.109 95.4643 30.291C95.3383 30.473 95.2753 30.6993 95.2753 30.97C95.2753 31.1893 95.329 31.4017 95.4363 31.607C95.5483 31.8123 95.7256 31.9827 95.9683 32.118C96.2156 32.2533 96.5423 32.321 96.9483 32.321ZM102.681 33V25.44H103.605V27.26L103.423 27.022C103.507 26.798 103.616 26.5927 103.752 26.406C103.887 26.2147 104.034 26.0583 104.193 25.937C104.389 25.7643 104.617 25.6337 104.879 25.545C105.14 25.4517 105.404 25.398 105.67 25.384C105.936 25.3653 106.178 25.384 106.398 25.44V26.406C106.122 26.336 105.821 26.3197 105.495 26.357C105.168 26.3943 104.867 26.525 104.592 26.749C104.34 26.945 104.151 27.1807 104.025 27.456C103.899 27.7267 103.815 28.016 103.773 28.324C103.731 28.6273 103.71 28.9283 103.71 29.227V33H102.681ZM110.757 33.21C110.053 33.21 109.451 33.035 108.951 32.685C108.452 32.3303 108.069 31.852 107.803 31.25C107.537 30.648 107.404 29.969 107.404 29.213C107.404 28.4617 107.535 27.785 107.796 27.183C108.062 26.581 108.443 26.105 108.937 25.755C109.432 25.405 110.025 25.23 110.715 25.23C111.425 25.23 112.022 25.4027 112.507 25.748C112.993 26.0933 113.359 26.567 113.606 27.169C113.858 27.7663 113.984 28.4477 113.984 29.213C113.984 29.9643 113.861 30.6433 113.613 31.25C113.366 31.852 113.002 32.3303 112.521 32.685C112.041 33.035 111.453 33.21 110.757 33.21ZM110.862 32.251C111.399 32.251 111.842 32.1203 112.192 31.859C112.542 31.5977 112.804 31.2383 112.976 30.781C113.149 30.319 113.235 29.7963 113.235 29.213C113.235 28.6203 113.149 28.0977 112.976 27.645C112.804 27.1877 112.542 26.8307 112.192 26.574C111.847 26.3173 111.411 26.189 110.883 26.189C110.342 26.189 109.894 26.322 109.539 26.588C109.185 26.854 108.921 27.2157 108.748 27.673C108.58 28.1303 108.496 28.6437 108.496 29.213C108.496 29.787 108.583 30.305 108.755 30.767C108.933 31.2243 109.196 31.586 109.546 31.852C109.896 32.118 110.335 32.251 110.862 32.251ZM113.235 33V27.309H113.123V22.92H114.159V33H113.235ZM124.856 33V29.143C124.856 28.723 124.816 28.338 124.737 27.988C124.658 27.6333 124.529 27.3253 124.352 27.064C124.179 26.798 123.953 26.5927 123.673 26.448C123.398 26.3033 123.062 26.231 122.665 26.231C122.301 26.231 121.979 26.294 121.699 26.42C121.424 26.546 121.19 26.728 120.999 26.966C120.812 27.1993 120.67 27.484 120.572 27.82C120.474 28.156 120.425 28.5387 120.425 28.968L119.697 28.807C119.697 28.0323 119.832 27.3813 120.103 26.854C120.374 26.3267 120.747 25.9277 121.223 25.657C121.699 25.3863 122.245 25.251 122.861 25.251C123.314 25.251 123.708 25.321 124.044 25.461C124.385 25.601 124.672 25.79 124.905 26.028C125.143 26.266 125.334 26.539 125.479 26.847C125.624 27.1503 125.729 27.4747 125.794 27.82C125.859 28.1607 125.892 28.5013 125.892 28.842V33H124.856ZM119.389 33V25.44H120.32V27.302H120.425V33H119.389ZM130.835 33.189C130.382 33.189 129.986 33.119 129.645 32.979C129.309 32.839 129.022 32.65 128.784 32.412C128.551 32.174 128.362 31.9033 128.217 31.6C128.072 31.292 127.967 30.9677 127.902 30.627C127.837 30.2817 127.804 29.9387 127.804 29.598V25.44H128.84V29.297C128.84 29.7123 128.88 30.0973 128.959 30.452C129.038 30.8067 129.164 31.117 129.337 31.383C129.514 31.6443 129.741 31.8473 130.016 31.992C130.296 32.1367 130.634 32.209 131.031 32.209C131.395 32.209 131.715 32.146 131.99 32.02C132.27 31.894 132.503 31.7143 132.69 31.481C132.881 31.243 133.026 30.956 133.124 30.62C133.222 30.2793 133.271 29.8967 133.271 29.472L133.999 29.633C133.999 30.4077 133.864 31.0587 133.593 31.586C133.322 32.1133 132.949 32.5123 132.473 32.783C131.997 33.0537 131.451 33.189 130.835 33.189ZM133.376 33V31.138H133.271V25.44H134.3V33H133.376ZM145.508 33L145.515 28.037C145.515 27.4537 145.351 26.9963 145.025 26.665C144.703 26.329 144.292 26.161 143.793 26.161C143.508 26.161 143.23 26.2263 142.96 26.357C142.689 26.4877 142.465 26.6977 142.288 26.987C142.115 27.2763 142.029 27.6543 142.029 28.121L141.42 27.946C141.406 27.4047 141.511 26.931 141.735 26.525C141.963 26.119 142.276 25.804 142.673 25.58C143.074 25.3513 143.527 25.237 144.031 25.237C144.791 25.237 145.4 25.4727 145.858 25.944C146.315 26.4107 146.544 27.043 146.544 27.841L146.537 33H145.508ZM136.485 33V25.44H137.409V27.302H137.521V33H136.485ZM141.007 33L141.014 28.107C141.014 27.505 140.853 27.0313 140.531 26.686C140.213 26.336 139.793 26.161 139.271 26.161C138.748 26.161 138.326 26.3407 138.004 26.7C137.682 27.0547 137.521 27.5283 137.521 28.121L136.905 27.785C136.905 27.2997 137.019 26.8657 137.248 26.483C137.476 26.0957 137.789 25.7923 138.186 25.573C138.582 25.349 139.033 25.237 139.537 25.237C140.017 25.237 140.444 25.3397 140.818 25.545C141.196 25.7503 141.492 26.049 141.707 26.441C141.921 26.833 142.029 27.309 142.029 27.869L142.022 33H141.007ZM151.989 33.21C151.294 33.21 150.706 33.035 150.225 32.685C149.744 32.3303 149.38 31.852 149.133 31.25C148.886 30.6433 148.762 29.9643 148.762 29.213C148.762 28.4477 148.886 27.7663 149.133 27.169C149.385 26.567 149.754 26.0933 150.239 25.748C150.724 25.4027 151.322 25.23 152.031 25.23C152.722 25.23 153.314 25.405 153.809 25.755C154.304 26.105 154.682 26.581 154.943 27.183C155.209 27.785 155.342 28.4617 155.342 29.213C155.342 29.969 155.209 30.648 154.943 31.25C154.677 31.852 154.294 32.3303 153.795 32.685C153.296 33.035 152.694 33.21 151.989 33.21ZM148.587 33V22.92H149.623V27.309H149.511V33H148.587ZM151.884 32.251C152.411 32.251 152.85 32.118 153.2 31.852C153.55 31.586 153.811 31.2243 153.984 30.767C154.161 30.305 154.25 29.787 154.25 29.213C154.25 28.6437 154.164 28.1303 153.991 27.673C153.818 27.2157 153.555 26.854 153.2 26.588C152.85 26.322 152.404 26.189 151.863 26.189C151.336 26.189 150.897 26.3173 150.547 26.574C150.202 26.8307 149.943 27.1877 149.77 27.645C149.597 28.0977 149.511 28.6203 149.511 29.213C149.511 29.7963 149.597 30.319 149.77 30.781C149.943 31.2383 150.204 31.5977 150.554 31.859C150.904 32.1203 151.347 32.251 151.884 32.251ZM160.313 33.21C159.576 33.21 158.937 33.0467 158.395 32.72C157.859 32.3933 157.441 31.9337 157.142 31.341C156.844 30.7483 156.694 30.053 156.694 29.255C156.694 28.429 156.841 27.715 157.135 27.113C157.429 26.511 157.842 26.0467 158.374 25.72C158.911 25.3933 159.543 25.23 160.271 25.23C161.018 25.23 161.655 25.4027 162.182 25.748C162.71 26.0887 163.109 26.5787 163.379 27.218C163.65 27.8573 163.774 28.6203 163.75 29.507H162.7V29.143C162.682 28.163 162.469 27.4233 162.063 26.924C161.662 26.4247 161.074 26.175 160.299 26.175C159.487 26.175 158.864 26.4387 158.43 26.966C158.001 27.4933 157.786 28.2447 157.786 29.22C157.786 30.172 158.001 30.9117 158.43 31.439C158.864 31.9617 159.478 32.223 160.271 32.223C160.813 32.223 161.284 32.0993 161.685 31.852C162.091 31.6 162.411 31.2383 162.644 30.767L163.603 31.138C163.305 31.796 162.864 32.307 162.28 32.671C161.702 33.0303 161.046 33.21 160.313 33.21ZM157.422 29.507V28.646H163.197V29.507H157.422ZM165.539 33V25.44H166.463V27.26L166.281 27.022C166.365 26.798 166.475 26.5927 166.61 26.406C166.745 26.2147 166.892 26.0583 167.051 25.937C167.247 25.7643 167.476 25.6337 167.737 25.545C167.998 25.4517 168.262 25.398 168.528 25.384C168.794 25.3653 169.037 25.384 169.256 25.44V26.406C168.981 26.336 168.68 26.3197 168.353 26.357C168.026 26.3943 167.725 26.525 167.45 26.749C167.198 26.945 167.009 27.1807 166.883 27.456C166.757 27.7267 166.673 28.016 166.631 28.324C166.589 28.6273 166.568 28.9283 166.568 29.227V33H165.539Z" fill="#616161"></path> <g filter="url(#filter3_dd_8972_166339)"> <rect x="162" y="50" width="2.5" height="28" rx="1.12281" fill="#1672EC"></rect> </g> <rect x="0.75" y="0.75" width="346.5" height="118.5" rx="19.25" stroke="#F7F7F7" stroke-width="1.5"></rect> <defs> <filter id="filter0_ii_8972_166339" x="40" y="40" width="268" height="51" filterUnits="userSpaceOnUse" color-interpolation-filters="sRGB"> <feFlood flood-opacity="0" result="BackgroundImageFix"></feFlood> <feBlend mode="normal" in="SourceGraphic" in2="BackgroundImageFix" result="shape"></feBlend> <feColorMatrix in="SourceAlpha" type="matrix" values="0 0 0 0 0 0 0 0 0 0 0 0 0 0 0 0 0 0 127 0" result="hardAlpha"></feColorMatrix> <feOffset dy="3"></feOffset> <feGaussianBlur stdDeviation="3"></feGaussianBlur> <feComposite in2="hardAlpha" operator="arithmetic" k2="-1" k3="1"></feComposite> <feColorMatrix type="matrix" values="0 0 0 0 0 0 0 0 0 0 0 0 0 0 0 0 0 0 0.06 0"></feColorMatrix> <feBlend mode="normal" in2="shape" result="effect1_innerShadow_8972_166339"></feBlend> <feColorMatrix in="SourceAlpha" type="matrix" values="0 0 0 0 0 0 0 0 0 0 0 0 0 0 0 0 0 0 127 0" result="hardAlpha"></feColorMatrix> <feOffset dy="1"></feOffset> <feGaussianBlur stdDeviation="1"></feGaussianBlur> <feComposite in2="hardAlpha" operator="arithmetic" k2="-1" k3="1"></feComposite> <feColorMatrix type="matrix" values="0 0 0 0 0 0 0 0 0 0 0 0 0 0 0 0 0 0 0.12 0"></feColorMatrix> <feBlend mode="normal" in2="effect1_innerShadow_8972_166339" result="effect2_innerShadow_8972_166339"></feBlend> </filter> <filter id="filter1_dd_8972_166339" x="38" y="44.5" width="54" height="55" filterUnits="userSpaceOnUse" color-interpolation-filters="sRGB"> <feFlood flood-opacity="0" result="BackgroundImageFix"></feFlood> <feColorMatrix in="SourceAlpha" type="matrix" values="0 0 0 0 0 0 0 0 0 0 0 0 0 0 0 0 0 0 127 0" result="hardAlpha"></feColorMatrix> <feOffset dy="8"></feOffset> <feGaussianBlur stdDeviation="8"></feGaussianBlur> <feColorMatrix type="matrix" values="0 0 0 0 0.0588235 0 0 0 0 0.337255 0 0 0 0 0.701961 0 0 0 0.14 0"></feColorMatrix> <feBlend mode="multiply" in2="BackgroundImageFix" result="effect1_dropShadow_8972_166339"></feBlend> <feColorMatrix in="SourceAlpha" type="matrix" values="0 0 0 0 0 0 0 0 0 0 0 0 0 0 0 0 0 0 127 0" result="hardAlpha"></feColorMatrix> <feOffset dy="4"></feOffset> <feGaussianBlur stdDeviation="4"></feGaussianBlur> <feColorMatrix type="matrix" values="0 0 0 0 0.0588235 0 0 0 0 0.337255 0 0 0 0 0.701961 0 0 0 0.14 0"></feColorMatrix> <feBlend mode="multiply" in2="effect1_dropShadow_8972_166339" result="effect2_dropShadow_8972_166339"></feBlend> <feBlend mode="normal" in="SourceGraphic" in2="effect2_dropShadow_8972_166339" result="shape"></feBlend> </filter> <filter id="filter2_d_8972_166339" x="86.1074" y="57.27" width="209.454" height="15.5" filterUnits="userSpaceOnUse" color-interpolation-filters="sRGB"> <feFlood flood-opacity="0" result="BackgroundImageFix"></feFlood> <feColorMatrix in="SourceAlpha" type="matrix" values="0 0 0 0 0 0 0 0 0 0 0 0 0 0 0 0 0 0 127 0" result="hardAlpha"></feColorMatrix> <feOffset dy="1"></feOffset> <feGaussianBlur stdDeviation="0.5"></feGaussianBlur> <feComposite in2="hardAlpha" operator="out"></feComposite> <feColorMatrix type="matrix" values="0 0 0 0 1 0 0 0 0 1 0 0 0 0 1 0 0 0 1 0"></feColorMatrix> <feBlend mode="normal" in2="BackgroundImageFix" result="effect1_dropShadow_8972_166339"></feBlend> <feBlend mode="normal" in="SourceGraphic" in2="effect1_dropShadow_8972_166339" result="shape"></feBlend> </filter> <filter id="filter3_dd_8972_166339" x="153.018" y="45.5088" width="20.4649" height="45.9649" filterUnits="userSpaceOnUse" color-interpolation-filters="sRGB"> <feFlood flood-opacity="0" result="BackgroundImageFix"></feFlood> <feColorMatrix in="SourceAlpha" type="matrix" values="0 0 0 0 0 0 0 0 0 0 0 0 0 0 0 0 0 0 127 0" result="hardAlpha"></feColorMatrix> <feOffset dy="4.49123"></feOffset> <feGaussianBlur stdDeviation="4.49123"></feGaussianBlur> <feColorMatrix type="matrix" values="0 0 0 0 0.0588235 0 0 0 0 0.337255 0 0 0 0 0.701961 0 0 0 0.14 0"></feColorMatrix> <feBlend mode="multiply" in2="BackgroundImageFix" result="effect1_dropShadow_8972_166339"></feBlend> <feColorMatrix in="SourceAlpha" type="matrix" values="0 0 0 0 0 0 0 0 0 0 0 0 0 0 0 0 0 0 127 0" result="hardAlpha"></feColorMatrix> <feOffset dy="2.24561"></feOffset> <feGaussianBlur stdDeviation="2.24561"></feGaussianBlur> <feColorMatrix type="matrix" values="0 0 0 0 0.0588235 0 0 0 0 0.337255 0 0 0 0 0.701961 0 0 0 0.14 0"></feColorMatrix> <feBlend mode="multiply" in2="effect1_dropShadow_8972_166339" result="effect2_dropShadow_8972_166339"></feBlend> <feBlend mode="normal" in="SourceGraphic" in2="effect2_dropShadow_8972_166339" result="shape"></feBlend> </filter> <linearGradient id="paint0_linear_8972_166339" x1="174" y1="0" x2="174" y2="120" gradientUnits="userSpaceOnUse"> <stop stop-color="white"></stop> <stop offset="0.8125" stop-color="#FAF9FA"></stop> </linearGradient> <linearGradient id="paint1_linear_8972_166339" x1="174" y1="40" x2="174" y2="88" gradientUnits="userSpaceOnUse"> <stop stop-color="#F5F5F5"></stop> <stop offset="1" stop-color="white"></stop> </linearGradient> <linearGradient id="paint2_linear_8972_166339" x1="174" y1="40" x2="174" y2="88" gradientUnits="userSpaceOnUse"> <stop stop-color="#EEEEEE" stop-opacity="0"></stop> <stop offset="1" stop-color="#F1F0F4"></stop> </linearGradient> <clipPath id="clip0_8972_166339"> <rect x="40" y="40" width="270" height="48" rx="8" fill="white"></rect> </clipPath> </defs> </svg> 