<?xml version="1.0" encoding="UTF-8"?> <svg xmlns="http://www.w3.org/2000/svg" width="464" height="155" viewBox="0 0 464 155" fill="none"> <g filter="url(#filter0_ii_8940_123884)"> <rect y="54" width="464" height="96" rx="20" fill="url(#paint0_linear_8940_123884)"></rect> </g> <rect x="1" y="55" width="462" height="94" rx="19" stroke="url(#paint1_linear_8940_123884)" stroke-width="2"></rect> <g filter="url(#filter1_d_8940_123884)"> <path d="M24.52 116V90.08H34.528C34.78 90.08 35.062 90.092 35.374 90.116C35.698 90.128 36.022 90.164 36.346 90.224C37.702 90.428 38.848 90.902 39.784 91.646C40.732 92.378 41.446 93.302 41.926 94.418C42.418 95.534 42.664 96.77 42.664 98.126C42.664 100.082 42.148 101.78 41.116 103.22C40.084 104.66 38.608 105.566 36.688 105.938L35.77 106.154H27.166V116H24.52ZM40.216 116L35.104 105.452L37.642 104.48L43.258 116H40.216ZM27.166 103.634H34.456C34.672 103.634 34.924 103.622 35.212 103.598C35.5 103.574 35.782 103.532 36.058 103.472C36.946 103.28 37.672 102.914 38.236 102.374C38.812 101.834 39.238 101.192 39.514 100.448C39.802 99.704 39.946 98.93 39.946 98.126C39.946 97.322 39.802 96.548 39.514 95.804C39.238 95.048 38.812 94.4 38.236 93.86C37.672 93.32 36.946 92.954 36.058 92.762C35.782 92.702 35.5 92.666 35.212 92.654C34.924 92.63 34.672 92.618 34.456 92.618H27.166V103.634ZM55.9537 116.54C54.0217 116.54 52.3717 116.102 51.0037 115.226C49.6357 114.35 48.5857 113.138 47.8537 111.59C47.1217 110.042 46.7557 108.266 46.7557 106.262C46.7557 104.222 47.1277 102.434 47.8717 100.898C48.6157 99.362 49.6717 98.168 51.0397 97.316C52.4197 96.452 54.0577 96.02 55.9537 96.02C57.8977 96.02 59.5537 96.458 60.9217 97.334C62.3017 98.198 63.3517 99.404 64.0717 100.952C64.8037 102.488 65.1697 104.258 65.1697 106.262C65.1697 108.302 64.8037 110.096 64.0717 111.644C63.3397 113.18 62.2837 114.38 60.9037 115.244C59.5237 116.108 57.8737 116.54 55.9537 116.54ZM55.9537 114.002C58.1137 114.002 59.7217 113.288 60.7777 111.86C61.8337 110.42 62.3617 108.554 62.3617 106.262C62.3617 103.91 61.8277 102.038 60.7597 100.646C59.7037 99.254 58.1017 98.558 55.9537 98.558C54.5017 98.558 53.3017 98.888 52.3537 99.548C51.4177 100.196 50.7157 101.102 50.2477 102.266C49.7917 103.418 49.5637 104.75 49.5637 106.262C49.5637 108.602 50.1037 110.48 51.1837 111.896C52.2637 113.3 53.8537 114.002 55.9537 114.002ZM92.9292 116L92.9472 103.238C92.9472 101.738 92.5272 100.562 91.6872 99.71C90.8592 98.846 89.8032 98.414 88.5192 98.414C87.7872 98.414 87.0732 98.582 86.3772 98.918C85.6812 99.254 85.1052 99.794 84.6492 100.538C84.2052 101.282 83.9832 102.254 83.9832 103.454L82.4172 103.004C82.3812 101.612 82.6512 100.394 83.2272 99.35C83.8152 98.306 84.6192 97.496 85.6392 96.92C86.6712 96.332 87.8352 96.038 89.1312 96.038C91.0872 96.038 92.6532 96.644 93.8292 97.856C95.0052 99.056 95.5932 100.682 95.5932 102.734L95.5752 116H92.9292ZM69.7272 116V96.56H72.1032V101.348H72.3912V116H69.7272ZM81.3552 116L81.3732 103.418C81.3732 101.87 80.9592 100.652 80.1312 99.764C79.3152 98.864 78.2352 98.414 76.8912 98.414C75.5472 98.414 74.4612 98.876 73.6332 99.8C72.8052 100.712 72.3912 101.93 72.3912 103.454L70.8072 102.59C70.8072 101.342 71.1012 100.226 71.6892 99.242C72.2772 98.246 73.0812 97.466 74.1012 96.902C75.1212 96.326 76.2792 96.038 77.5752 96.038C78.8112 96.038 79.9092 96.302 80.8692 96.83C81.8412 97.358 82.6032 98.126 83.1552 99.134C83.7072 100.142 83.9832 101.366 83.9832 102.806L83.9652 116H81.3552ZM106.428 116.54C104.964 116.54 103.734 116.276 102.738 115.748C101.754 115.22 101.016 114.518 100.524 113.642C100.032 112.766 99.7856 111.812 99.7856 110.78C99.7856 109.724 99.9956 108.824 100.416 108.08C100.848 107.324 101.43 106.706 102.162 106.226C102.906 105.746 103.764 105.38 104.736 105.128C105.72 104.888 106.806 104.678 107.994 104.498C109.194 104.306 110.364 104.144 111.504 104.012C112.656 103.868 113.664 103.73 114.528 103.598L113.592 104.174C113.628 102.254 113.256 100.832 112.476 99.908C111.696 98.984 110.34 98.522 108.408 98.522C107.076 98.522 105.948 98.822 105.024 99.422C104.112 100.022 103.47 100.97 103.098 102.266L100.524 101.51C100.968 99.77 101.862 98.42 103.206 97.46C104.55 96.5 106.296 96.02 108.444 96.02C110.22 96.02 111.726 96.356 112.962 97.028C114.21 97.688 115.092 98.648 115.608 99.908C115.848 100.472 116.004 101.102 116.076 101.798C116.148 102.494 116.184 103.202 116.184 103.922V116H113.826V111.122L114.51 111.41C113.85 113.078 112.824 114.35 111.432 115.226C110.04 116.102 108.372 116.54 106.428 116.54ZM106.734 114.254C107.97 114.254 109.05 114.032 109.974 113.588C110.898 113.144 111.642 112.538 112.206 111.77C112.77 110.99 113.136 110.114 113.304 109.142C113.448 108.518 113.526 107.834 113.538 107.09C113.55 106.334 113.556 105.77 113.556 105.398L114.564 105.92C113.664 106.04 112.686 106.16 111.63 106.28C110.586 106.4 109.554 106.538 108.534 106.694C107.526 106.85 106.614 107.036 105.798 107.252C105.246 107.408 104.712 107.63 104.196 107.918C103.68 108.194 103.254 108.566 102.918 109.034C102.594 109.502 102.432 110.084 102.432 110.78C102.432 111.344 102.57 111.89 102.846 112.418C103.134 112.946 103.59 113.384 104.214 113.732C104.85 114.08 105.69 114.254 106.734 114.254ZM135.514 116V106.082C135.514 105.002 135.412 104.012 135.208 103.112C135.004 102.2 134.674 101.408 134.218 100.736C133.774 100.052 133.192 99.524 132.472 99.152C131.764 98.78 130.9 98.594 129.88 98.594C128.944 98.594 128.116 98.756 127.396 99.08C126.688 99.404 126.088 99.872 125.596 100.484C125.116 101.084 124.75 101.816 124.498 102.68C124.246 103.544 124.12 104.528 124.12 105.632L122.248 105.218C122.248 103.226 122.596 101.552 123.292 100.196C123.988 98.84 124.948 97.814 126.172 97.118C127.396 96.422 128.8 96.074 130.384 96.074C131.548 96.074 132.562 96.254 133.426 96.614C134.302 96.974 135.04 97.46 135.64 98.072C136.252 98.684 136.744 99.386 137.116 100.178C137.488 100.958 137.758 101.792 137.926 102.68C138.094 103.556 138.178 104.432 138.178 105.308V116H135.514ZM121.456 116V96.56H123.85V101.348H124.12V116H121.456ZM151.266 116V90.08H153.912V102.32L165.738 90.08H169.122L157.044 102.59L170.112 116H166.656L153.912 103.04V116H151.266ZM178.808 116.54C177.344 116.54 176.114 116.276 175.118 115.748C174.134 115.22 173.396 114.518 172.904 113.642C172.412 112.766 172.166 111.812 172.166 110.78C172.166 109.724 172.376 108.824 172.796 108.08C173.228 107.324 173.81 106.706 174.542 106.226C175.286 105.746 176.144 105.38 177.116 105.128C178.1 104.888 179.186 104.678 180.374 104.498C181.574 104.306 182.744 104.144 183.884 104.012C185.036 103.868 186.044 103.73 186.908 103.598L185.972 104.174C186.008 102.254 185.636 100.832 184.856 99.908C184.076 98.984 182.72 98.522 180.788 98.522C179.456 98.522 178.328 98.822 177.404 99.422C176.492 100.022 175.85 100.97 175.478 102.266L172.904 101.51C173.348 99.77 174.242 98.42 175.586 97.46C176.93 96.5 178.676 96.02 180.824 96.02C182.6 96.02 184.106 96.356 185.342 97.028C186.59 97.688 187.472 98.648 187.988 99.908C188.228 100.472 188.384 101.102 188.456 101.798C188.528 102.494 188.564 103.202 188.564 103.922V116H186.206V111.122L186.89 111.41C186.23 113.078 185.204 114.35 183.812 115.226C182.42 116.102 180.752 116.54 178.808 116.54ZM179.114 114.254C180.35 114.254 181.43 114.032 182.354 113.588C183.278 113.144 184.022 112.538 184.586 111.77C185.15 110.99 185.516 110.114 185.684 109.142C185.828 108.518 185.906 107.834 185.918 107.09C185.93 106.334 185.936 105.77 185.936 105.398L186.944 105.92C186.044 106.04 185.066 106.16 184.01 106.28C182.966 106.4 181.934 106.538 180.914 106.694C179.906 106.85 178.994 107.036 178.178 107.252C177.626 107.408 177.092 107.63 176.576 107.918C176.06 108.194 175.634 108.566 175.298 109.034C174.974 109.502 174.812 110.084 174.812 110.78C174.812 111.344 174.95 111.89 175.226 112.418C175.514 112.946 175.97 113.384 176.594 113.732C177.23 114.08 178.07 114.254 179.114 114.254ZM217.038 116L217.056 103.238C217.056 101.738 216.636 100.562 215.796 99.71C214.968 98.846 213.912 98.414 212.628 98.414C211.896 98.414 211.182 98.582 210.486 98.918C209.79 99.254 209.214 99.794 208.758 100.538C208.314 101.282 208.092 102.254 208.092 103.454L206.526 103.004C206.49 101.612 206.76 100.394 207.336 99.35C207.924 98.306 208.728 97.496 209.748 96.92C210.78 96.332 211.944 96.038 213.24 96.038C215.196 96.038 216.762 96.644 217.938 97.856C219.114 99.056 219.702 100.682 219.702 102.734L219.684 116H217.038ZM193.836 116V96.56H196.212V101.348H196.5V116H193.836ZM205.464 116L205.482 103.418C205.482 101.87 205.068 100.652 204.24 99.764C203.424 98.864 202.344 98.414 201 98.414C199.656 98.414 198.57 98.876 197.742 99.8C196.914 100.712 196.5 101.93 196.5 103.454L194.916 102.59C194.916 101.342 195.21 100.226 195.798 99.242C196.386 98.246 197.19 97.466 198.21 96.902C199.23 96.326 200.388 96.038 201.684 96.038C202.92 96.038 204.018 96.302 204.978 96.83C205.95 97.358 206.712 98.126 207.264 99.134C207.816 100.142 208.092 101.366 208.092 102.806L208.074 116H205.464ZM232.409 116.486C231.245 116.486 230.225 116.306 229.349 115.946C228.485 115.586 227.747 115.1 227.135 114.488C226.535 113.876 226.049 113.18 225.677 112.4C225.305 111.608 225.035 110.774 224.867 109.898C224.699 109.01 224.615 108.128 224.615 107.252V96.56H227.279V106.478C227.279 107.546 227.381 108.536 227.585 109.448C227.789 110.36 228.113 111.158 228.557 111.842C229.013 112.514 229.595 113.036 230.303 113.408C231.023 113.78 231.893 113.966 232.913 113.966C233.849 113.966 234.671 113.804 235.379 113.48C236.099 113.156 236.699 112.694 237.179 112.094C237.671 111.482 238.043 110.744 238.295 109.88C238.547 109.004 238.673 108.02 238.673 106.928L240.545 107.342C240.545 109.334 240.197 111.008 239.501 112.364C238.805 113.72 237.845 114.746 236.621 115.442C235.397 116.138 233.993 116.486 232.409 116.486ZM238.943 116V111.212H238.673V96.56H241.319V116H238.943ZM254.209 116.522C251.929 116.522 250.051 116.03 248.575 115.046C247.111 114.062 246.211 112.694 245.875 110.942L248.575 110.492C248.863 111.596 249.517 112.478 250.537 113.138C251.569 113.786 252.841 114.11 254.353 114.11C255.829 114.11 256.993 113.804 257.845 113.192C258.697 112.568 259.123 111.722 259.123 110.654C259.123 110.054 258.985 109.568 258.709 109.196C258.445 108.812 257.899 108.458 257.071 108.134C256.243 107.81 255.007 107.426 253.363 106.982C251.599 106.502 250.219 106.022 249.223 105.542C248.227 105.062 247.519 104.51 247.099 103.886C246.679 103.25 246.469 102.476 246.469 101.564C246.469 100.46 246.781 99.494 247.405 98.666C248.029 97.826 248.893 97.178 249.997 96.722C251.101 96.254 252.385 96.02 253.849 96.02C255.313 96.02 256.621 96.26 257.773 96.74C258.937 97.208 259.873 97.868 260.581 98.72C261.289 99.572 261.709 100.562 261.841 101.69L259.141 102.176C258.961 101.036 258.391 100.136 257.431 99.476C256.483 98.804 255.277 98.456 253.813 98.432C252.433 98.396 251.311 98.66 250.447 99.224C249.583 99.776 249.151 100.514 249.151 101.438C249.151 101.954 249.307 102.398 249.619 102.77C249.931 103.13 250.495 103.472 251.311 103.796C252.139 104.12 253.315 104.474 254.839 104.858C256.627 105.314 258.031 105.794 259.051 106.298C260.071 106.802 260.797 107.396 261.229 108.08C261.661 108.764 261.877 109.61 261.877 110.618C261.877 112.454 261.193 113.9 259.825 114.956C258.469 116 256.597 116.522 254.209 116.522ZM280.514 116V106.082C280.514 105.002 280.412 104.012 280.208 103.112C280.004 102.2 279.674 101.408 279.218 100.736C278.774 100.052 278.192 99.524 277.472 99.152C276.764 98.78 275.9 98.594 274.88 98.594C273.944 98.594 273.116 98.756 272.396 99.08C271.688 99.404 271.088 99.872 270.596 100.484C270.116 101.084 269.75 101.816 269.498 102.68C269.246 103.544 269.12 104.528 269.12 105.632L267.248 105.218C267.248 103.226 267.596 101.552 268.292 100.196C268.988 98.84 269.948 97.814 271.172 97.118C272.396 96.422 273.8 96.074 275.384 96.074C276.548 96.074 277.562 96.254 278.426 96.614C279.302 96.974 280.04 97.46 280.64 98.072C281.252 98.684 281.744 99.386 282.116 100.178C282.488 100.958 282.758 101.792 282.926 102.68C283.094 103.556 283.178 104.432 283.178 105.308V116H280.514ZM266.456 116V90.08H268.85V104.714H269.12V116H266.456Z" fill="black"></path> </g> <rect x="14" y="4" width="142" height="48" rx="8" fill="white"></rect> <path d="M23.96 39V18.84H35.538V20.898H26.018V27.898H33.858V29.942H26.018V39H23.96ZM44.3218 39.378C43.4164 39.378 42.6231 39.238 41.9418 38.958C41.2698 38.678 40.6958 38.3 40.2198 37.824C39.7531 37.348 39.3751 36.8067 39.0858 36.2C38.7964 35.584 38.5864 34.9353 38.4558 34.254C38.3251 33.5633 38.2598 32.8773 38.2598 32.196V23.88H40.3318V31.594C40.3318 32.4247 40.4111 33.1947 40.5698 33.904C40.7284 34.6133 40.9804 35.234 41.3258 35.766C41.6804 36.2887 42.1331 36.6947 42.6838 36.984C43.2438 37.2733 43.9204 37.418 44.7138 37.418C45.4418 37.418 46.0811 37.292 46.6318 37.04C47.1918 36.788 47.6584 36.4287 48.0318 35.962C48.4144 35.486 48.7038 34.912 48.8998 34.24C49.0958 33.5587 49.1938 32.7933 49.1938 31.944L50.6498 32.266C50.6498 33.8153 50.3791 35.1173 49.8378 36.172C49.2964 37.2267 48.5498 38.0247 47.5978 38.566C46.6458 39.1073 45.5538 39.378 44.3218 39.378ZM49.4038 39V35.276H49.1938V23.88H51.2518V39H49.4038ZM55.9152 39V18.42H57.9732V39H55.9152ZM62.9207 39V18.42H64.9787V39H62.9207ZM86.6422 39V31.286C86.6422 30.446 86.5628 29.676 86.4042 28.976C86.2455 28.2667 85.9888 27.6507 85.6342 27.128C85.2888 26.596 84.8362 26.1853 84.2762 25.896C83.7255 25.6067 83.0535 25.462 82.2602 25.462C81.5322 25.462 80.8882 25.588 80.3282 25.84C79.7775 26.092 79.3108 26.456 78.9282 26.932C78.5548 27.3987 78.2702 27.968 78.0742 28.64C77.8782 29.312 77.7802 30.0773 77.7802 30.936L76.3242 30.614C76.3242 29.0647 76.5948 27.7627 77.1362 26.708C77.6775 25.6533 78.4242 24.8553 79.3762 24.314C80.3282 23.7727 81.4202 23.502 82.6522 23.502C83.5575 23.502 84.3462 23.642 85.0182 23.922C85.6995 24.202 86.2735 24.58 86.7402 25.056C87.2162 25.532 87.5988 26.078 87.8882 26.694C88.1775 27.3007 88.3875 27.9493 88.5182 28.64C88.6488 29.3213 88.7142 30.0027 88.7142 30.684V39H86.6422ZM75.7082 39V23.88H77.5702V27.604H77.7802V39H75.7082ZM97.1436 39.42C96.0049 39.42 95.0482 39.2147 94.2736 38.804C93.5082 38.3933 92.9342 37.8473 92.5516 37.166C92.1689 36.4847 91.9776 35.7427 91.9776 34.94C91.9776 34.1187 92.1409 33.4187 92.4676 32.84C92.8036 32.252 93.2562 31.7713 93.8256 31.398C94.4042 31.0247 95.0716 30.74 95.8276 30.544C96.5929 30.3573 97.4376 30.194 98.3616 30.054C99.2949 29.9047 100.205 29.7787 101.092 29.676C101.988 29.564 102.772 29.4567 103.444 29.354L102.716 29.802C102.744 28.3087 102.454 27.2027 101.848 26.484C101.241 25.7653 100.186 25.406 98.6836 25.406C97.6476 25.406 96.7702 25.6393 96.0516 26.106C95.3422 26.5727 94.8429 27.31 94.5536 28.318L92.5516 27.73C92.8969 26.3767 93.5922 25.3267 94.6376 24.58C95.6829 23.8333 97.0409 23.46 98.7116 23.46C100.093 23.46 101.264 23.7213 102.226 24.244C103.196 24.7573 103.882 25.504 104.284 26.484C104.47 26.9227 104.592 27.4127 104.648 27.954C104.704 28.4953 104.732 29.046 104.732 29.606V39H102.898V35.206L103.43 35.43C102.916 36.7273 102.118 37.7167 101.036 38.398C99.9529 39.0793 98.6556 39.42 97.1436 39.42ZM97.3816 37.642C98.3429 37.642 99.1829 37.4693 99.9016 37.124C100.62 36.7787 101.199 36.3073 101.638 35.71C102.076 35.1033 102.361 34.422 102.492 33.666C102.604 33.1807 102.664 32.6487 102.674 32.07C102.683 31.482 102.688 31.0433 102.688 30.754L103.472 31.16C102.772 31.2533 102.011 31.3467 101.19 31.44C100.378 31.5333 99.5749 31.6407 98.7816 31.762C97.9976 31.8833 97.2882 32.028 96.6536 32.196C96.2242 32.3173 95.8089 32.49 95.4076 32.714C95.0062 32.9287 94.6749 33.218 94.4136 33.582C94.1616 33.946 94.0356 34.3987 94.0356 34.94C94.0356 35.3787 94.1429 35.8033 94.3576 36.214C94.5816 36.6247 94.9362 36.9653 95.4216 37.236C95.9162 37.5067 96.5696 37.642 97.3816 37.642ZM126.879 39L126.893 29.074C126.893 27.9073 126.566 26.9927 125.913 26.33C125.269 25.658 124.447 25.322 123.449 25.322C122.879 25.322 122.324 25.4527 121.783 25.714C121.241 25.9753 120.793 26.3953 120.439 26.974C120.093 27.5527 119.921 28.3087 119.921 29.242L118.703 28.892C118.675 27.8093 118.885 26.862 119.333 26.05C119.79 25.238 120.415 24.608 121.209 24.16C122.011 23.7027 122.917 23.474 123.925 23.474C125.446 23.474 126.664 23.9453 127.579 24.888C128.493 25.8213 128.951 27.086 128.951 28.682L128.937 39H126.879ZM108.833 39V23.88H110.681V27.604H110.905V39H108.833ZM117.877 39L117.891 29.214C117.891 28.01 117.569 27.0627 116.925 26.372C116.29 25.672 115.45 25.322 114.405 25.322C113.359 25.322 112.515 25.6813 111.871 26.4C111.227 27.1093 110.905 28.0567 110.905 29.242L109.673 28.57C109.673 27.5993 109.901 26.7313 110.359 25.966C110.816 25.1913 111.441 24.5847 112.235 24.146C113.028 23.698 113.929 23.474 114.937 23.474C115.898 23.474 116.752 23.6793 117.499 24.09C118.255 24.5007 118.847 25.098 119.277 25.882C119.706 26.666 119.921 27.618 119.921 28.738L119.907 39H117.877ZM139.367 39.42C137.893 39.42 136.614 39.0933 135.531 38.44C134.458 37.7867 133.623 36.8673 133.025 35.682C132.428 34.4967 132.129 33.106 132.129 31.51C132.129 29.858 132.423 28.43 133.011 27.226C133.599 26.022 134.425 25.0933 135.489 24.44C136.563 23.7867 137.827 23.46 139.283 23.46C140.777 23.46 142.051 23.8053 143.105 24.496C144.16 25.1773 144.958 26.1573 145.499 27.436C146.041 28.7147 146.288 30.2407 146.241 32.014H144.141V31.286C144.104 29.326 143.679 27.8467 142.867 26.848C142.065 25.8493 140.889 25.35 139.339 25.35C137.715 25.35 136.469 25.8773 135.601 26.932C134.743 27.9867 134.313 29.4893 134.313 31.44C134.313 33.344 134.743 34.8233 135.601 35.878C136.469 36.9233 137.697 37.446 139.283 37.446C140.366 37.446 141.309 37.1987 142.111 36.704C142.923 36.2 143.563 35.4767 144.029 34.534L145.947 35.276C145.35 36.592 144.468 37.614 143.301 38.342C142.144 39.0607 140.833 39.42 139.367 39.42ZM133.585 32.014V30.292H145.135V32.014H133.585Z" fill="#818181"></path> <g filter="url(#filter2_dd_8940_123884)"> <rect x="286" y="74" width="5" height="57" rx="2" fill="#1672EC"></rect> </g> <defs> <filter id="filter0_ii_8940_123884" x="0" y="54" width="464" height="102" filterUnits="userSpaceOnUse" color-interpolation-filters="sRGB"> <feFlood flood-opacity="0" result="BackgroundImageFix"></feFlood> <feBlend mode="normal" in="SourceGraphic" in2="BackgroundImageFix" result="shape"></feBlend> <feColorMatrix in="SourceAlpha" type="matrix" values="0 0 0 0 0 0 0 0 0 0 0 0 0 0 0 0 0 0 127 0" result="hardAlpha"></feColorMatrix> <feOffset dy="6"></feOffset> <feGaussianBlur stdDeviation="6"></feGaussianBlur> <feComposite in2="hardAlpha" operator="arithmetic" k2="-1" k3="1"></feComposite> <feColorMatrix type="matrix" values="0 0 0 0 0 0 0 0 0 0 0 0 0 0 0 0 0 0 0.06 0"></feColorMatrix> <feBlend mode="normal" in2="shape" result="effect1_innerShadow_8940_123884"></feBlend> <feColorMatrix in="SourceAlpha" type="matrix" values="0 0 0 0 0 0 0 0 0 0 0 0 0 0 0 0 0 0 127 0" result="hardAlpha"></feColorMatrix> <feOffset dy="2"></feOffset> <feGaussianBlur stdDeviation="2"></feGaussianBlur> <feComposite in2="hardAlpha" operator="arithmetic" k2="-1" k3="1"></feComposite> <feColorMatrix type="matrix" values="0 0 0 0 0 0 0 0 0 0 0 0 0 0 0 0 0 0 0.12 0"></feColorMatrix> <feBlend mode="normal" in2="effect1_innerShadow_8940_123884" result="effect2_innerShadow_8940_123884"></feBlend> </filter> <filter id="filter1_d_8940_123884" x="22.5195" y="90.08" width="262.658" height="30.46" filterUnits="userSpaceOnUse" color-interpolation-filters="sRGB"> <feFlood flood-opacity="0" result="BackgroundImageFix"></feFlood> <feColorMatrix in="SourceAlpha" type="matrix" values="0 0 0 0 0 0 0 0 0 0 0 0 0 0 0 0 0 0 127 0" result="hardAlpha"></feColorMatrix> <feOffset dy="2"></feOffset> <feGaussianBlur stdDeviation="1"></feGaussianBlur> <feComposite in2="hardAlpha" operator="out"></feComposite> <feColorMatrix type="matrix" values="0 0 0 0 1 0 0 0 0 1 0 0 0 0 1 0 0 0 1 0"></feColorMatrix> <feBlend mode="normal" in2="BackgroundImageFix" result="effect1_dropShadow_8940_123884"></feBlend> <feBlend mode="normal" in="SourceGraphic" in2="effect1_dropShadow_8940_123884" result="shape"></feBlend> </filter> <filter id="filter2_dd_8940_123884" x="270" y="66" width="37" height="89" filterUnits="userSpaceOnUse" color-interpolation-filters="sRGB"> <feFlood flood-opacity="0" result="BackgroundImageFix"></feFlood> <feColorMatrix in="SourceAlpha" type="matrix" values="0 0 0 0 0 0 0 0 0 0 0 0 0 0 0 0 0 0 127 0" result="hardAlpha"></feColorMatrix> <feOffset dy="8"></feOffset> <feGaussianBlur stdDeviation="8"></feGaussianBlur> <feColorMatrix type="matrix" values="0 0 0 0 0.0588235 0 0 0 0 0.337255 0 0 0 0 0.701961 0 0 0 0.14 0"></feColorMatrix> <feBlend mode="multiply" in2="BackgroundImageFix" result="effect1_dropShadow_8940_123884"></feBlend> <feColorMatrix in="SourceAlpha" type="matrix" values="0 0 0 0 0 0 0 0 0 0 0 0 0 0 0 0 0 0 127 0" result="hardAlpha"></feColorMatrix> <feOffset dy="4"></feOffset> <feGaussianBlur stdDeviation="4"></feGaussianBlur> <feColorMatrix type="matrix" values="0 0 0 0 0.0588235 0 0 0 0 0.337255 0 0 0 0 0.701961 0 0 0 0.14 0"></feColorMatrix> <feBlend mode="multiply" in2="effect1_dropShadow_8940_123884" result="effect2_dropShadow_8940_123884"></feBlend> <feBlend mode="normal" in="SourceGraphic" in2="effect2_dropShadow_8940_123884" result="shape"></feBlend> </filter> <linearGradient id="paint0_linear_8940_123884" x1="232" y1="54" x2="232" y2="150" gradientUnits="userSpaceOnUse"> <stop stop-color="#F5F5F5"></stop> <stop offset="1" stop-color="#F5F5F5" stop-opacity="0"></stop> </linearGradient> <linearGradient id="paint1_linear_8940_123884" x1="232" y1="54" x2="232" y2="150" gradientUnits="userSpaceOnUse"> <stop stop-color="#EEEEEE" stop-opacity="0"></stop> <stop offset="1" stop-color="#F1F0F4"></stop> </linearGradient> </defs> </svg> 