<?xml version="1.0" encoding="UTF-8"?> <svg xmlns="http://www.w3.org/2000/svg" width="368" height="132" viewBox="0 0 368 132" fill="none"> <rect x="0.75" y="0.75" width="366.5" height="130.5" rx="19.25" fill="url(#paint0_linear_8968_164881)"></rect> <g filter="url(#filter0_ii_8968_164881)"> <rect x="40" y="43" width="288" height="50" rx="10" fill="url(#paint1_linear_8968_164881)"></rect> </g> <rect x="40.5" y="43.5" width="287" height="49" rx="9.5" stroke="url(#paint2_linear_8968_164881)"></rect> <g style="mix-blend-mode:multiply"> <mask id="path-5-inside-1_8968_164881" fill="white"> <path d="M40 61C40 53.5005 40 49.7508 41.9098 47.1221C42.5266 46.2732 43.2732 45.5266 44.1221 44.9098C46.7508 43 50.5005 43 58 43H150V93H58C50.5005 93 46.7508 93 44.1221 91.0902C43.2732 90.4734 42.5266 89.7268 41.9098 88.8779C40 86.2492 40 82.4995 40 75V61Z"></path> </mask> <g filter="url(#filter1_ii_8968_164881)"> <path d="M40 61C40 53.5005 40 49.7508 41.9098 47.1221C42.5266 46.2732 43.2732 45.5266 44.1221 44.9098C46.7508 43 50.5005 43 58 43H150V93H58C50.5005 93 46.7508 93 44.1221 91.0902C43.2732 90.4734 42.5266 89.7268 41.9098 88.8779C40 86.2492 40 82.4995 40 75V61Z" fill="#E6E6E6" fill-opacity="0.5"></path> </g> <path d="M40 43H150H40ZM150 93H40H150ZM40 93V43V93ZM151 43V93H149V43H151Z" fill="#E0E0E0" mask="url(#path-5-inside-1_8968_164881)"></path> </g> <g clip-path="url(#clip0_8968_164881)"> <g filter="url(#filter2_dd_8968_164881)"> <path d="M129.384 71.2891C129.184 71.5289 128.816 71.5289 128.616 71.2891L123.433 65.0701C123.162 64.7444 123.394 64.25 123.818 64.25L134.182 64.25C134.606 64.25 134.838 64.7444 134.567 65.0701L129.384 71.2891Z" fill="#223189"></path> </g> </g> <g filter="url(#filter3_d_8968_164881)"> <path d="M165.33 74.5L162.36 64.771L163.953 64.78L166.122 71.89L168.309 64.78H169.722L171.9 71.89L174.078 64.78H175.662L172.692 74.5H171.36L169.011 67.111L166.662 74.5H165.33ZM179.66 74.5L176.69 64.771L178.283 64.78L180.452 71.89L182.639 64.78H184.052L186.23 71.89L188.408 64.78H189.992L187.022 74.5H185.69L183.341 67.111L180.992 74.5H179.66ZM193.989 74.5L191.019 64.771L192.612 64.78L194.781 71.89L196.968 64.78H198.381L200.559 71.89L202.737 64.78H204.321L201.351 74.5H200.019L197.67 67.111L195.321 74.5H193.989ZM205.096 74.5V72.736H206.86V74.5H205.096Z" fill="#A1A1A1"></path> <path d="M213.634 74.761C212.476 74.761 211.525 74.509 210.781 74.005C210.043 73.495 209.59 72.784 209.422 71.872L211.06 71.611C211.192 72.139 211.495 72.559 211.969 72.871C212.443 73.177 213.031 73.33 213.733 73.33C214.399 73.33 214.921 73.192 215.299 72.916C215.677 72.64 215.866 72.265 215.866 71.791C215.866 71.515 215.803 71.293 215.677 71.125C215.551 70.951 215.29 70.789 214.894 70.639C214.504 70.489 213.913 70.309 213.121 70.099C212.263 69.871 211.588 69.634 211.096 69.388C210.604 69.142 210.253 68.857 210.043 68.533C209.833 68.209 209.728 67.816 209.728 67.354C209.728 66.784 209.884 66.286 210.196 65.86C210.508 65.428 210.943 65.095 211.501 64.861C212.065 64.627 212.719 64.51 213.463 64.51C214.201 64.51 214.861 64.627 215.443 64.861C216.025 65.095 216.493 65.428 216.847 65.86C217.207 66.286 217.42 66.784 217.486 67.354L215.848 67.651C215.77 67.129 215.518 66.718 215.092 66.418C214.672 66.118 214.129 65.959 213.463 65.941C212.833 65.917 212.32 66.028 211.924 66.274C211.534 66.52 211.339 66.853 211.339 67.273C211.339 67.507 211.411 67.708 211.555 67.876C211.705 68.044 211.978 68.203 212.374 68.353C212.776 68.503 213.358 68.674 214.12 68.866C214.978 69.082 215.653 69.319 216.145 69.577C216.643 69.829 216.997 70.129 217.207 70.477C217.417 70.819 217.522 71.242 217.522 71.746C217.522 72.682 217.177 73.42 216.487 73.96C215.797 74.494 214.846 74.761 213.634 74.761ZM224.021 74.77C223.067 74.77 222.233 74.56 221.519 74.14C220.811 73.714 220.259 73.123 219.863 72.367C219.467 71.605 219.269 70.717 219.269 69.703C219.269 68.641 219.464 67.723 219.854 66.949C220.244 66.169 220.787 65.569 221.483 65.149C222.185 64.723 223.007 64.51 223.949 64.51C224.927 64.51 225.758 64.735 226.442 65.185C227.132 65.635 227.648 66.277 227.99 67.111C228.338 67.945 228.488 68.938 228.44 70.09H226.82V69.514C226.802 68.32 226.559 67.429 226.091 66.841C225.623 66.247 224.927 65.95 224.003 65.95C223.013 65.95 222.26 66.268 221.744 66.904C221.228 67.54 220.97 68.452 220.97 69.64C220.97 70.786 221.228 71.674 221.744 72.304C222.26 72.934 222.995 73.249 223.949 73.249C224.591 73.249 225.149 73.102 225.623 72.808C226.097 72.514 226.469 72.091 226.739 71.539L228.278 72.07C227.9 72.928 227.33 73.594 226.568 74.068C225.812 74.536 224.963 74.77 224.021 74.77ZM220.43 70.09V68.803H227.612V70.09H220.43ZM236.173 74.5C235.597 74.614 235.027 74.659 234.463 74.635C233.905 74.617 233.407 74.506 232.969 74.302C232.531 74.092 232.198 73.768 231.97 73.33C231.778 72.946 231.673 72.559 231.655 72.169C231.643 71.773 231.637 71.326 231.637 70.828V62.08H233.239V70.756C233.239 71.152 233.242 71.491 233.248 71.773C233.26 72.055 233.323 72.298 233.437 72.502C233.653 72.886 233.995 73.111 234.463 73.177C234.937 73.243 235.507 73.225 236.173 73.123V74.5ZM229.666 66.103V64.78H236.173V66.103H229.666ZM242.913 74.77C242.001 74.77 241.233 74.545 240.609 74.095C239.985 73.639 239.511 73.024 239.187 72.25C238.869 71.47 238.71 70.597 238.71 69.631C238.71 68.653 238.869 67.777 239.187 67.003C239.511 66.229 239.985 65.62 240.609 65.176C241.239 64.732 242.01 64.51 242.922 64.51C243.822 64.51 244.596 64.735 245.244 65.185C245.898 65.629 246.399 66.238 246.747 67.012C247.095 67.786 247.269 68.659 247.269 69.631C247.269 70.603 247.095 71.476 246.747 72.25C246.399 73.024 245.898 73.639 245.244 74.095C244.596 74.545 243.819 74.77 242.913 74.77ZM238.44 78.82V64.78H239.871V71.935H240.051V78.82H238.44ZM242.715 73.303C243.357 73.303 243.888 73.141 244.308 72.817C244.728 72.493 245.043 72.055 245.253 71.503C245.463 70.945 245.568 70.321 245.568 69.631C245.568 68.947 245.463 68.329 245.253 67.777C245.049 67.225 244.731 66.787 244.299 66.463C243.873 66.139 243.33 65.977 242.67 65.977C242.04 65.977 241.518 66.133 241.104 66.445C240.69 66.751 240.381 67.18 240.177 67.732C239.973 68.278 239.871 68.911 239.871 69.631C239.871 70.339 239.97 70.972 240.168 71.53C240.372 72.082 240.684 72.517 241.104 72.835C241.524 73.147 242.061 73.303 242.715 73.303ZM249.544 74.5V64.78H250.975V67.129L250.741 66.823C250.855 66.523 251.002 66.247 251.182 65.995C251.368 65.743 251.575 65.536 251.803 65.374C252.055 65.17 252.34 65.014 252.658 64.906C252.976 64.798 253.3 64.735 253.63 64.717C253.96 64.693 254.269 64.714 254.557 64.78V66.283C254.221 66.193 253.852 66.169 253.45 66.211C253.048 66.253 252.676 66.4 252.334 66.652C252.022 66.874 251.779 67.144 251.605 67.462C251.437 67.78 251.32 68.125 251.254 68.497C251.188 68.863 251.155 69.238 251.155 69.622V74.5H249.544ZM260.526 74.77C259.56 74.77 258.726 74.551 258.024 74.113C257.328 73.675 256.791 73.069 256.413 72.295C256.035 71.521 255.846 70.633 255.846 69.631C255.846 68.611 256.038 67.717 256.422 66.949C256.806 66.181 257.349 65.584 258.051 65.158C258.753 64.726 259.578 64.51 260.526 64.51C261.498 64.51 262.335 64.729 263.037 65.167C263.739 65.599 264.276 66.202 264.648 66.976C265.026 67.744 265.215 68.629 265.215 69.631C265.215 70.645 265.026 71.539 264.648 72.313C264.27 73.081 263.73 73.684 263.028 74.122C262.326 74.554 261.492 74.77 260.526 74.77ZM260.526 73.249C261.534 73.249 262.284 72.913 262.776 72.241C263.268 71.569 263.514 70.699 263.514 69.631C263.514 68.533 263.265 67.66 262.767 67.012C262.269 66.358 261.522 66.031 260.526 66.031C259.848 66.031 259.29 66.184 258.852 66.49C258.414 66.796 258.087 67.219 257.871 67.759C257.655 68.299 257.547 68.923 257.547 69.631C257.547 70.723 257.799 71.599 258.303 72.259C258.807 72.919 259.548 73.249 260.526 73.249Z" fill="black"></path> </g> <path d="M62.28 74.5V69.541C62.28 69.001 62.229 68.506 62.127 68.056C62.025 67.6 61.86 67.204 61.632 66.868C61.41 66.526 61.119 66.262 60.759 66.076C60.405 65.89 59.973 65.797 59.463 65.797C58.995 65.797 58.581 65.878 58.221 66.04C57.867 66.202 57.567 66.436 57.321 66.742C57.081 67.042 56.898 67.408 56.772 67.84C56.646 68.272 56.583 68.764 56.583 69.316L55.647 69.109C55.647 68.113 55.821 67.276 56.169 66.598C56.517 65.92 56.997 65.407 57.609 65.059C58.221 64.711 58.923 64.537 59.715 64.537C60.297 64.537 60.804 64.627 61.236 64.807C61.674 64.987 62.043 65.23 62.343 65.536C62.649 65.842 62.895 66.193 63.081 66.589C63.267 66.979 63.402 67.396 63.486 67.84C63.57 68.278 63.612 68.716 63.612 69.154V74.5H62.28ZM55.251 74.5V61.54H56.448V68.857H56.583V74.5H55.251ZM71.5419 74.5C70.9959 74.614 70.4559 74.659 69.9219 74.635C69.3939 74.611 68.9199 74.497 68.4999 74.293C68.0859 74.089 67.7709 73.771 67.5549 73.339C67.3809 72.979 67.2849 72.616 67.2669 72.25C67.2549 71.878 67.2489 71.455 67.2489 70.981V62.08H68.5629V70.927C68.5629 71.335 68.5659 71.677 68.5719 71.953C68.5839 72.223 68.6469 72.463 68.7609 72.673C68.9769 73.075 69.3189 73.315 69.7869 73.393C70.2609 73.471 70.8459 73.453 71.5419 73.339V74.5ZM65.1699 65.914V64.78H71.5419V65.914H65.1699ZM79.0513 74.5C78.5053 74.614 77.9653 74.659 77.4313 74.635C76.9033 74.611 76.4293 74.497 76.0093 74.293C75.5953 74.089 75.2803 73.771 75.0643 73.339C74.8903 72.979 74.7943 72.616 74.7763 72.25C74.7643 71.878 74.7583 71.455 74.7583 70.981V62.08H76.0723V70.927C76.0723 71.335 76.0753 71.677 76.0813 71.953C76.0933 72.223 76.1563 72.463 76.2703 72.673C76.4863 73.075 76.8283 73.315 77.2963 73.393C77.7703 73.471 78.3553 73.453 79.0513 73.339V74.5ZM72.6793 65.914V64.78H79.0513V65.914H72.6793ZM85.6338 74.77C84.7398 74.77 83.9838 74.545 83.3658 74.095C82.7478 73.639 82.2798 73.024 81.9618 72.25C81.6438 71.47 81.4848 70.597 81.4848 69.631C81.4848 68.647 81.6438 67.771 81.9618 67.003C82.2858 66.229 82.7598 65.62 83.3838 65.176C84.0078 64.732 84.7758 64.51 85.6878 64.51C86.5758 64.51 87.3378 64.735 87.9738 65.185C88.6098 65.635 89.0958 66.247 89.4318 67.021C89.7738 67.795 89.9448 68.665 89.9448 69.631C89.9448 70.603 89.7738 71.476 89.4318 72.25C89.0898 73.024 88.5978 73.639 87.9558 74.095C87.3138 74.545 86.5398 74.77 85.6338 74.77ZM81.2598 78.82V64.78H82.4478V72.097H82.5918V78.82H81.2598ZM85.4988 73.537C86.1768 73.537 86.7408 73.366 87.1908 73.024C87.6408 72.682 87.9768 72.217 88.1988 71.629C88.4268 71.035 88.5408 70.369 88.5408 69.631C88.5408 68.899 88.4298 68.239 88.2078 67.651C87.9858 67.063 87.6468 66.598 87.1908 66.256C86.7408 65.914 86.1678 65.743 85.4718 65.743C84.7938 65.743 84.2298 65.908 83.7798 66.238C83.3358 66.568 83.0028 67.027 82.7808 67.615C82.5588 68.197 82.4478 68.869 82.4478 69.631C82.4478 70.381 82.5588 71.053 82.7808 71.647C83.0028 72.235 83.3388 72.697 83.7888 73.033C84.2388 73.369 84.8088 73.537 85.4988 73.537ZM95.7626 74.761C94.6226 74.761 93.6836 74.515 92.9456 74.023C92.2136 73.531 91.7636 72.847 91.5956 71.971L92.9456 71.746C93.0896 72.298 93.4166 72.739 93.9266 73.069C94.4426 73.393 95.0786 73.555 95.8346 73.555C96.5726 73.555 97.1546 73.402 97.5806 73.096C98.0066 72.784 98.2196 72.361 98.2196 71.827C98.2196 71.527 98.1506 71.284 98.0126 71.098C97.8806 70.906 97.6076 70.729 97.1936 70.567C96.7796 70.405 96.1616 70.213 95.3396 69.991C94.4576 69.751 93.7676 69.511 93.2696 69.271C92.7716 69.031 92.4176 68.755 92.2076 68.443C91.9976 68.125 91.8926 67.738 91.8926 67.282C91.8926 66.73 92.0486 66.247 92.3606 65.833C92.6726 65.413 93.1046 65.089 93.6566 64.861C94.2086 64.627 94.8506 64.51 95.5826 64.51C96.3146 64.51 96.9686 64.63 97.5446 64.87C98.1266 65.104 98.5946 65.434 98.9486 65.86C99.3026 66.286 99.5126 66.781 99.5786 67.345L98.2286 67.588C98.1386 67.018 97.8536 66.568 97.3736 66.238C96.8996 65.902 96.2966 65.728 95.5646 65.716C94.8746 65.698 94.3136 65.83 93.8816 66.112C93.4496 66.388 93.2336 66.757 93.2336 67.219C93.2336 67.477 93.3116 67.699 93.4676 67.885C93.6236 68.065 93.9056 68.236 94.3136 68.398C94.7276 68.56 95.3156 68.737 96.0776 68.929C96.9716 69.157 97.6736 69.397 98.1836 69.649C98.6936 69.901 99.0566 70.198 99.2726 70.54C99.4886 70.882 99.5966 71.305 99.5966 71.809C99.5966 72.727 99.2546 73.45 98.5706 73.978C97.8926 74.5 96.9566 74.761 95.7626 74.761ZM102.615 73.06V71.521H104.154V73.06H102.615ZM102.624 67.759V66.22H104.163V67.759H102.624ZM109.411 61.54H110.77L107.314 74.5H105.955L109.411 61.54ZM114.178 61.54H115.537L112.081 74.5H110.722L114.178 61.54Z" fill="#616161"></path> <rect x="37" y="18" width="99" height="24" rx="4" fill="white"></rect> <path d="M41.98 35V24.92H45.039C45.1463 24.92 45.3283 24.9223 45.585 24.927C45.8463 24.9317 46.096 24.9503 46.334 24.983C47.0993 25.0903 47.7387 25.375 48.252 25.837C48.7653 26.299 49.1503 26.887 49.407 27.601C49.6637 28.315 49.792 29.1013 49.792 29.96C49.792 30.8187 49.6637 31.605 49.407 32.319C49.1503 33.033 48.7653 33.621 48.252 34.083C47.7387 34.545 47.0993 34.8297 46.334 34.937C46.1007 34.965 45.851 34.9837 45.585 34.993C45.319 34.9977 45.137 35 45.039 35H41.98ZM43.044 34.013H45.039C45.2303 34.013 45.4357 34.0083 45.655 33.999C45.879 33.985 46.0703 33.9617 46.229 33.929C46.817 33.8263 47.2907 33.5883 47.65 33.215C48.014 32.8417 48.28 32.375 48.448 31.815C48.616 31.2503 48.7 30.632 48.7 29.96C48.7 29.2833 48.616 28.6627 48.448 28.098C48.28 27.5333 48.014 27.0667 47.65 26.698C47.286 26.3293 46.8123 26.0937 46.229 25.991C46.0703 25.9583 45.8767 25.9373 45.648 25.928C45.424 25.914 45.221 25.907 45.039 25.907H43.044V34.013ZM54.7785 35.21C54.0271 35.21 53.3854 35.0397 52.8535 34.699C52.3214 34.3583 51.9131 33.887 51.6284 33.285C51.3438 32.683 51.2014 31.9923 51.2014 31.213C51.2014 30.4197 51.3461 29.7243 51.6354 29.127C51.9248 28.5297 52.3355 28.0653 52.8675 27.734C53.4041 27.398 54.0411 27.23 54.7785 27.23C55.5345 27.23 56.1785 27.4003 56.7105 27.741C57.2471 28.077 57.6555 28.546 57.9355 29.148C58.2201 29.7453 58.3625 30.4337 58.3625 31.213C58.3625 32.0063 58.2201 32.704 57.9355 33.306C57.6508 33.9033 57.2401 34.37 56.7035 34.706C56.1668 35.042 55.5251 35.21 54.7785 35.21ZM54.7785 34.223C55.6185 34.223 56.2438 33.9453 56.6545 33.39C57.0651 32.83 57.2705 32.1043 57.2705 31.213C57.2705 30.2983 57.0628 29.5703 56.6475 29.029C56.2368 28.4877 55.6138 28.217 54.7785 28.217C54.2138 28.217 53.7471 28.3453 53.3785 28.602C53.0145 28.854 52.7415 29.2063 52.5595 29.659C52.3821 30.107 52.2935 30.625 52.2935 31.213C52.2935 32.123 52.5035 32.8533 52.9234 33.404C53.3434 33.95 53.9618 34.223 54.7785 34.223ZM69.1578 35L69.1648 30.037C69.1648 29.4537 69.0015 28.9963 68.6748 28.665C68.3528 28.329 67.9421 28.161 67.4428 28.161C67.1581 28.161 66.8805 28.2263 66.6098 28.357C66.3391 28.4877 66.1151 28.6977 65.9378 28.987C65.7651 29.2763 65.6788 29.6543 65.6788 30.121L65.0698 29.946C65.0558 29.4047 65.1608 28.931 65.3848 28.525C65.6135 28.119 65.9261 27.804 66.3228 27.58C66.7241 27.3513 67.1768 27.237 67.6808 27.237C68.4415 27.237 69.0505 27.4727 69.5078 27.944C69.9651 28.4107 70.1938 29.043 70.1938 29.841L70.1868 35H69.1578ZM60.1348 35V27.44H61.0588V29.302H61.1708V35H60.1348ZM64.6568 35L64.6638 30.107C64.6638 29.505 64.5028 29.0313 64.1808 28.686C63.8635 28.336 63.4435 28.161 62.9208 28.161C62.3981 28.161 61.9758 28.3407 61.6538 28.7C61.3318 29.0547 61.1708 29.5283 61.1708 30.121L60.5548 29.785C60.5548 29.2997 60.6691 28.8657 60.8978 28.483C61.1265 28.0957 61.4391 27.7923 61.8358 27.573C62.2325 27.349 62.6828 27.237 63.1868 27.237C63.6675 27.237 64.0945 27.3397 64.4678 27.545C64.8458 27.7503 65.1421 28.049 65.3568 28.441C65.5715 28.833 65.6788 29.309 65.6788 29.869L65.6718 35H64.6568ZM74.4072 35.21C73.8379 35.21 73.3595 35.1073 72.9722 34.902C72.5895 34.6967 72.3025 34.4237 72.1112 34.083C71.9199 33.7423 71.8242 33.3713 71.8242 32.97C71.8242 32.5593 71.9059 32.2093 72.0692 31.92C72.2372 31.626 72.4635 31.3857 72.7482 31.199C73.0375 31.0123 73.3712 30.87 73.7492 30.772C74.1319 30.6787 74.5542 30.597 75.0162 30.527C75.4829 30.4523 75.9379 30.3893 76.3812 30.338C76.8292 30.282 77.2212 30.2283 77.5572 30.177L77.1932 30.401C77.2072 29.6543 77.0625 29.1013 76.7592 28.742C76.4559 28.3827 75.9285 28.203 75.1772 28.203C74.6592 28.203 74.2205 28.3197 73.8612 28.553C73.5065 28.7863 73.2569 29.155 73.1122 29.659L72.1112 29.365C72.2839 28.6883 72.6315 28.1633 73.1542 27.79C73.6769 27.4167 74.3559 27.23 75.1912 27.23C75.8819 27.23 76.4675 27.3607 76.9482 27.622C77.4335 27.8787 77.7765 28.252 77.9772 28.742C78.0705 28.9613 78.1312 29.2063 78.1592 29.477C78.1872 29.7477 78.2012 30.023 78.2012 30.303V35H77.2842V33.103L77.5502 33.215C77.2935 33.8637 76.8945 34.3583 76.3532 34.699C75.8119 35.0397 75.1632 35.21 74.4072 35.21ZM74.5262 34.321C75.0069 34.321 75.4269 34.2347 75.7862 34.062C76.1455 33.8893 76.4349 33.6537 76.6542 33.355C76.8735 33.0517 77.0159 32.711 77.0812 32.333C77.1372 32.0903 77.1675 31.8243 77.1722 31.535C77.1769 31.241 77.1792 31.0217 77.1792 30.877L77.5712 31.08C77.2212 31.1267 76.8409 31.1733 76.4302 31.22C76.0242 31.2667 75.6229 31.3203 75.2262 31.381C74.8342 31.4417 74.4795 31.514 74.1622 31.598C73.9475 31.6587 73.7399 31.745 73.5392 31.857C73.3385 31.9643 73.1729 32.109 73.0422 32.291C72.9162 32.473 72.8532 32.6993 72.8532 32.97C72.8532 33.1893 72.9069 33.4017 73.0142 33.607C73.1262 33.8123 73.3035 33.9827 73.5462 34.118C73.7935 34.2533 74.1202 34.321 74.5262 34.321ZM80.3987 26.005V24.85H81.4277V26.005H80.3987ZM80.3987 35V27.44H81.4277V35H80.3987ZM89.2215 35V31.143C89.2215 30.723 89.1818 30.338 89.1025 29.988C89.0231 29.6333 88.8948 29.3253 88.7175 29.064C88.5448 28.798 88.3185 28.5927 88.0385 28.448C87.7631 28.3033 87.4271 28.231 87.0305 28.231C86.6665 28.231 86.3445 28.294 86.0645 28.42C85.7891 28.546 85.5558 28.728 85.3645 28.966C85.1778 29.1993 85.0355 29.484 84.9375 29.82C84.8395 30.156 84.7905 30.5387 84.7905 30.968L84.0625 30.807C84.0625 30.0323 84.1978 29.3813 84.4685 28.854C84.7391 28.3267 85.1125 27.9277 85.5885 27.657C86.0645 27.3863 86.6105 27.251 87.2265 27.251C87.6791 27.251 88.0735 27.321 88.4095 27.461C88.7501 27.601 89.0371 27.79 89.2705 28.028C89.5085 28.266 89.6998 28.539 89.8445 28.847C89.9891 29.1503 90.0941 29.4747 90.1595 29.82C90.2248 30.1607 90.2575 30.5013 90.2575 30.842V35H89.2215ZM83.7545 35V27.44H84.6855V29.302H84.7905V35H83.7545ZM100.807 35V31.143C100.807 30.723 100.767 30.338 100.688 29.988C100.609 29.6333 100.48 29.3253 100.303 29.064C100.13 28.798 99.9041 28.5927 99.6241 28.448C99.3488 28.3033 99.0128 28.231 98.6161 28.231C98.2521 28.231 97.9301 28.294 97.6501 28.42C97.3748 28.546 97.1414 28.728 96.9501 28.966C96.7634 29.1993 96.6211 29.484 96.5231 29.82C96.4251 30.156 96.3761 30.5387 96.3761 30.968L95.6481 30.807C95.6481 30.0323 95.7834 29.3813 96.0541 28.854C96.3248 28.3267 96.6981 27.9277 97.1741 27.657C97.6501 27.3863 98.1961 27.251 98.8121 27.251C99.2648 27.251 99.6591 27.321 99.9951 27.461C100.336 27.601 100.623 27.79 100.856 28.028C101.094 28.266 101.285 28.539 101.43 28.847C101.575 29.1503 101.68 29.4747 101.745 29.82C101.81 30.1607 101.843 30.5013 101.843 30.842V35H100.807ZM95.3401 35V27.44H96.2711V29.302H96.3761V35H95.3401ZM106.058 35.21C105.488 35.21 105.01 35.1073 104.623 34.902C104.24 34.6967 103.953 34.4237 103.762 34.083C103.57 33.7423 103.475 33.3713 103.475 32.97C103.475 32.5593 103.556 32.2093 103.72 31.92C103.888 31.626 104.114 31.3857 104.399 31.199C104.688 31.0123 105.022 30.87 105.4 30.772C105.782 30.6787 106.205 30.597 106.667 30.527C107.133 30.4523 107.588 30.3893 108.032 30.338C108.48 30.282 108.872 30.2283 109.208 30.177L108.844 30.401C108.858 29.6543 108.713 29.1013 108.41 28.742C108.106 28.3827 107.579 28.203 106.828 28.203C106.31 28.203 105.871 28.3197 105.512 28.553C105.157 28.7863 104.907 29.155 104.763 29.659L103.762 29.365C103.934 28.6883 104.282 28.1633 104.805 27.79C105.327 27.4167 106.006 27.23 106.842 27.23C107.532 27.23 108.118 27.3607 108.599 27.622C109.084 27.8787 109.427 28.252 109.628 28.742C109.721 28.9613 109.782 29.2063 109.81 29.477C109.838 29.7477 109.852 30.023 109.852 30.303V35H108.935V33.103L109.201 33.215C108.944 33.8637 108.545 34.3583 108.004 34.699C107.462 35.0397 106.814 35.21 106.058 35.21ZM106.177 34.321C106.657 34.321 107.077 34.2347 107.437 34.062C107.796 33.8893 108.085 33.6537 108.305 33.355C108.524 33.0517 108.666 32.711 108.732 32.333C108.788 32.0903 108.818 31.8243 108.823 31.535C108.827 31.241 108.83 31.0217 108.83 30.877L109.222 31.08C108.872 31.1267 108.491 31.1733 108.081 31.22C107.675 31.2667 107.273 31.3203 106.877 31.381C106.485 31.4417 106.13 31.514 105.813 31.598C105.598 31.6587 105.39 31.745 105.19 31.857C104.989 31.9643 104.823 32.109 104.693 32.291C104.567 32.473 104.504 32.6993 104.504 32.97C104.504 33.1893 104.557 33.4017 104.665 33.607C104.777 33.8123 104.954 33.9827 105.197 34.118C105.444 34.2533 105.771 34.321 106.177 34.321ZM120.925 35L120.932 30.037C120.932 29.4537 120.769 28.9963 120.442 28.665C120.12 28.329 119.71 28.161 119.21 28.161C118.926 28.161 118.648 28.2263 118.377 28.357C118.107 28.4877 117.883 28.6977 117.705 28.987C117.533 29.2763 117.446 29.6543 117.446 30.121L116.837 29.946C116.823 29.4047 116.928 28.931 117.152 28.525C117.381 28.119 117.694 27.804 118.09 27.58C118.492 27.3513 118.944 27.237 119.448 27.237C120.209 27.237 120.818 27.4727 121.275 27.944C121.733 28.4107 121.961 29.043 121.961 29.841L121.954 35H120.925ZM111.902 35V27.44H112.826V29.302H112.938V35H111.902ZM116.424 35L116.431 30.107C116.431 29.505 116.27 29.0313 115.948 28.686C115.631 28.336 115.211 28.161 114.688 28.161C114.166 28.161 113.743 28.3407 113.421 28.7C113.099 29.0547 112.938 29.5283 112.938 30.121L112.322 29.785C112.322 29.2997 112.437 28.8657 112.665 28.483C112.894 28.0957 113.207 27.7923 113.603 27.573C114 27.349 114.45 27.237 114.954 27.237C115.435 27.237 115.862 27.3397 116.235 27.545C116.613 27.7503 116.91 28.049 117.124 28.441C117.339 28.833 117.446 29.309 117.446 29.869L117.439 35H116.424ZM127.17 35.21C126.432 35.21 125.793 35.0467 125.252 34.72C124.715 34.3933 124.297 33.9337 123.999 33.341C123.7 32.7483 123.551 32.053 123.551 31.255C123.551 30.429 123.698 29.715 123.992 29.113C124.286 28.511 124.699 28.0467 125.231 27.72C125.767 27.3933 126.4 27.23 127.128 27.23C127.874 27.23 128.511 27.4027 129.039 27.748C129.566 28.0887 129.965 28.5787 130.236 29.218C130.506 29.8573 130.63 30.6203 130.607 31.507H129.557V31.143C129.538 30.163 129.326 29.4233 128.92 28.924C128.518 28.4247 127.93 28.175 127.156 28.175C126.344 28.175 125.721 28.4387 125.287 28.966C124.857 29.4933 124.643 30.2447 124.643 31.22C124.643 32.172 124.857 32.9117 125.287 33.439C125.721 33.9617 126.334 34.223 127.128 34.223C127.669 34.223 128.14 34.0993 128.542 33.852C128.948 33.6 129.267 33.2383 129.501 32.767L130.46 33.138C130.161 33.796 129.72 34.307 129.137 34.671C128.558 35.0303 127.902 35.21 127.17 35.21ZM124.279 31.507V30.646H130.054V31.507H124.279Z" fill="#616161"></path> <g filter="url(#filter4_dd_8968_164881)"> <rect x="267.143" y="54" width="2.85714" height="28" rx="1.12281" fill="#1672EC"></rect> </g> <rect x="0.75" y="0.75" width="366.5" height="130.5" rx="19.25" stroke="#F7F7F7" stroke-width="1.5"></rect> <defs> <filter id="filter0_ii_8968_164881" x="40" y="43" width="288" height="53" filterUnits="userSpaceOnUse" color-interpolation-filters="sRGB"> <feFlood flood-opacity="0" result="BackgroundImageFix"></feFlood> <feBlend mode="normal" in="SourceGraphic" in2="BackgroundImageFix" result="shape"></feBlend> <feColorMatrix in="SourceAlpha" type="matrix" values="0 0 0 0 0 0 0 0 0 0 0 0 0 0 0 0 0 0 127 0" result="hardAlpha"></feColorMatrix> <feOffset dy="3"></feOffset> <feGaussianBlur stdDeviation="3"></feGaussianBlur> <feComposite in2="hardAlpha" operator="arithmetic" k2="-1" k3="1"></feComposite> <feColorMatrix type="matrix" values="0 0 0 0 0 0 0 0 0 0 0 0 0 0 0 0 0 0 0.06 0"></feColorMatrix> <feBlend mode="normal" in2="shape" result="effect1_innerShadow_8968_164881"></feBlend> <feColorMatrix in="SourceAlpha" type="matrix" values="0 0 0 0 0 0 0 0 0 0 0 0 0 0 0 0 0 0 127 0" result="hardAlpha"></feColorMatrix> <feOffset dy="1"></feOffset> <feGaussianBlur stdDeviation="1"></feGaussianBlur> <feComposite in2="hardAlpha" operator="arithmetic" k2="-1" k3="1"></feComposite> <feColorMatrix type="matrix" values="0 0 0 0 0 0 0 0 0 0 0 0 0 0 0 0 0 0 0.12 0"></feColorMatrix> <feBlend mode="normal" in2="effect1_innerShadow_8968_164881" result="effect2_innerShadow_8968_164881"></feBlend> </filter> <filter id="filter1_ii_8968_164881" x="40" y="43" width="110" height="53" filterUnits="userSpaceOnUse" color-interpolation-filters="sRGB"> <feFlood flood-opacity="0" result="BackgroundImageFix"></feFlood> <feBlend mode="normal" in="SourceGraphic" in2="BackgroundImageFix" result="shape"></feBlend> <feColorMatrix in="SourceAlpha" type="matrix" values="0 0 0 0 0 0 0 0 0 0 0 0 0 0 0 0 0 0 127 0" result="hardAlpha"></feColorMatrix> <feOffset dy="3"></feOffset> <feGaussianBlur stdDeviation="3"></feGaussianBlur> <feComposite in2="hardAlpha" operator="arithmetic" k2="-1" k3="1"></feComposite> <feColorMatrix type="matrix" values="0 0 0 0 0 0 0 0 0 0 0 0 0 0 0 0 0 0 0.06 0"></feColorMatrix> <feBlend mode="normal" in2="shape" result="effect1_innerShadow_8968_164881"></feBlend> <feColorMatrix in="SourceAlpha" type="matrix" values="0 0 0 0 0 0 0 0 0 0 0 0 0 0 0 0 0 0 127 0" result="hardAlpha"></feColorMatrix> <feOffset dy="1"></feOffset> <feGaussianBlur stdDeviation="1"></feGaussianBlur> <feComposite in2="hardAlpha" operator="arithmetic" k2="-1" k3="1"></feComposite> <feColorMatrix type="matrix" values="0 0 0 0 0 0 0 0 0 0 0 0 0 0 0 0 0 0 0.12 0"></feColorMatrix> <feBlend mode="normal" in2="effect1_innerShadow_8968_164881" result="effect2_innerShadow_8968_164881"></feBlend> </filter> <filter id="filter2_dd_8968_164881" x="107.316" y="56.25" width="43.3672" height="39.219" filterUnits="userSpaceOnUse" color-interpolation-filters="sRGB"> <feFlood flood-opacity="0" result="BackgroundImageFix"></feFlood> <feColorMatrix in="SourceAlpha" type="matrix" values="0 0 0 0 0 0 0 0 0 0 0 0 0 0 0 0 0 0 127 0" result="hardAlpha"></feColorMatrix> <feOffset dy="8"></feOffset> <feGaussianBlur stdDeviation="8"></feGaussianBlur> <feColorMatrix type="matrix" values="0 0 0 0 0.380392 0 0 0 0 0.380392 0 0 0 0 0.380392 0 0 0 0.14 0"></feColorMatrix> <feBlend mode="multiply" in2="BackgroundImageFix" result="effect1_dropShadow_8968_164881"></feBlend> <feColorMatrix in="SourceAlpha" type="matrix" values="0 0 0 0 0 0 0 0 0 0 0 0 0 0 0 0 0 0 127 0" result="hardAlpha"></feColorMatrix> <feOffset dy="4"></feOffset> <feGaussianBlur stdDeviation="4"></feGaussianBlur> <feColorMatrix type="matrix" values="0 0 0 0 0.380392 0 0 0 0 0.380392 0 0 0 0 0.380392 0 0 0 0.14 0"></feColorMatrix> <feBlend mode="multiply" in2="effect1_dropShadow_8968_164881" result="effect2_dropShadow_8968_164881"></feBlend> <feBlend mode="normal" in="SourceGraphic" in2="effect2_dropShadow_8968_164881" result="shape"></feBlend> </filter> <filter id="filter3_d_8968_164881" x="161.36" y="62.08" width="104.854" height="18.74" filterUnits="userSpaceOnUse" color-interpolation-filters="sRGB"> <feFlood flood-opacity="0" result="BackgroundImageFix"></feFlood> <feColorMatrix in="SourceAlpha" type="matrix" values="0 0 0 0 0 0 0 0 0 0 0 0 0 0 0 0 0 0 127 0" result="hardAlpha"></feColorMatrix> <feOffset dy="1"></feOffset> <feGaussianBlur stdDeviation="0.5"></feGaussianBlur> <feComposite in2="hardAlpha" operator="out"></feComposite> <feColorMatrix type="matrix" values="0 0 0 0 1 0 0 0 0 1 0 0 0 0 1 0 0 0 1 0"></feColorMatrix> <feBlend mode="normal" in2="BackgroundImageFix" result="effect1_dropShadow_8968_164881"></feBlend> <feBlend mode="normal" in="SourceGraphic" in2="effect1_dropShadow_8968_164881" result="shape"></feBlend> </filter> <filter id="filter4_dd_8968_164881" x="258.16" y="49.5088" width="20.8223" height="45.9649" filterUnits="userSpaceOnUse" color-interpolation-filters="sRGB"> <feFlood flood-opacity="0" result="BackgroundImageFix"></feFlood> <feColorMatrix in="SourceAlpha" type="matrix" values="0 0 0 0 0 0 0 0 0 0 0 0 0 0 0 0 0 0 127 0" result="hardAlpha"></feColorMatrix> <feOffset dy="4.49123"></feOffset> <feGaussianBlur stdDeviation="4.49123"></feGaussianBlur> <feColorMatrix type="matrix" values="0 0 0 0 0.0588235 0 0 0 0 0.337255 0 0 0 0 0.701961 0 0 0 0.14 0"></feColorMatrix> <feBlend mode="multiply" in2="BackgroundImageFix" result="effect1_dropShadow_8968_164881"></feBlend> <feColorMatrix in="SourceAlpha" type="matrix" values="0 0 0 0 0 0 0 0 0 0 0 0 0 0 0 0 0 0 127 0" result="hardAlpha"></feColorMatrix> <feOffset dy="2.24561"></feOffset> <feGaussianBlur stdDeviation="2.24561"></feGaussianBlur> <feColorMatrix type="matrix" values="0 0 0 0 0.0588235 0 0 0 0 0.337255 0 0 0 0 0.701961 0 0 0 0.14 0"></feColorMatrix> <feBlend mode="multiply" in2="effect1_dropShadow_8968_164881" result="effect2_dropShadow_8968_164881"></feBlend> <feBlend mode="normal" in="SourceGraphic" in2="effect2_dropShadow_8968_164881" result="shape"></feBlend> </filter> <linearGradient id="paint0_linear_8968_164881" x1="184" y1="0" x2="184" y2="132" gradientUnits="userSpaceOnUse"> <stop stop-color="white"></stop> <stop offset="0.8125" stop-color="#FAF9FA"></stop> </linearGradient> <linearGradient id="paint1_linear_8968_164881" x1="184" y1="43" x2="184" y2="93" gradientUnits="userSpaceOnUse"> <stop stop-color="#F5F5F5"></stop> <stop offset="1" stop-color="white"></stop> </linearGradient> <linearGradient id="paint2_linear_8968_164881" x1="184" y1="43" x2="184" y2="93" gradientUnits="userSpaceOnUse"> <stop stop-color="#EEEEEE" stop-opacity="0"></stop> <stop offset="1" stop-color="#F1F0F4"></stop> </linearGradient> <clipPath id="clip0_8968_164881"> <rect width="30" height="30" fill="white" transform="translate(114 53)"></rect> </clipPath> </defs> </svg> 