<?xml version="1.0" encoding="UTF-8"?> <svg xmlns="http://www.w3.org/2000/svg" width="304" height="136" viewBox="0 0 304 136" fill="none"> <rect x="0.75" y="0.75" width="302.5" height="134.5" rx="19.25" fill="url(#paint0_linear_8966_55306)"></rect> <g filter="url(#filter0_ii_8966_55306)"> <rect x="40" y="40" width="224" height="48" rx="10" fill="url(#paint1_linear_8966_55306)"></rect> </g> <rect x="40.5" y="40.5" width="223" height="47" rx="9.5" stroke="url(#paint2_linear_8966_55306)"></rect> <path fill-rule="evenodd" clip-rule="evenodd" d="M58 62.5C56.3431 62.5 55 63.8431 55 65.5V71.5C55 73.1569 56.3431 74.5 58 74.5H70C71.6569 74.5 73 73.1569 73 71.5V65.5C73 63.8431 71.6569 62.5 70 62.5V59.5C70 56.1863 67.3137 53.5 64 53.5C60.6863 53.5 58 56.1863 58 59.5V62.5ZM64 55.5C61.7909 55.5 60 57.2909 60 59.5V62.5H68V59.5C68 57.2909 66.2091 55.5 64 55.5ZM58 64.5H70C70.5523 64.5 71 64.9477 71 65.5V71.5C71 72.0523 70.5523 72.5 70 72.5H58C57.4477 72.5 57 72.0523 57 71.5V65.5C57 64.9477 57.4477 64.5 58 64.5Z" fill="#616161"></path> <g filter="url(#filter1_d_8966_55306)"> <path d="M91.364 69.408C88.724 69.408 86.612 67.296 86.612 64.656C86.612 62.016 88.724 59.904 91.364 59.904C94.004 59.904 96.116 62.016 96.116 64.656C96.116 67.296 94.004 69.408 91.364 69.408ZM106.889 69.408C104.249 69.408 102.137 67.296 102.137 64.656C102.137 62.016 104.249 59.904 106.889 59.904C109.529 59.904 111.641 62.016 111.641 64.656C111.641 67.296 109.529 69.408 106.889 69.408ZM122.414 69.408C119.774 69.408 117.662 67.296 117.662 64.656C117.662 62.016 119.774 59.904 122.414 59.904C125.054 59.904 127.166 62.016 127.166 64.656C127.166 67.296 125.054 69.408 122.414 69.408ZM137.939 69.408C135.299 69.408 133.187 67.296 133.187 64.656C133.187 62.016 135.299 59.904 137.939 59.904C140.579 59.904 142.691 62.016 142.691 64.656C142.691 67.296 140.579 69.408 137.939 69.408ZM153.464 69.408C150.824 69.408 148.712 67.296 148.712 64.656C148.712 62.016 150.824 59.904 153.464 59.904C156.104 59.904 158.216 62.016 158.216 64.656C158.216 67.296 156.104 69.408 153.464 69.408ZM168.989 69.408C166.349 69.408 164.237 67.296 164.237 64.656C164.237 62.016 166.349 59.904 168.989 59.904C171.629 59.904 173.741 62.016 173.741 64.656C173.741 67.296 171.629 69.408 168.989 69.408Z" fill="#616161"></path> </g> <g filter="url(#filter2_dd_8966_55306)"> <path d="M241.75 64C241.75 66.0711 240.071 67.75 238 67.75C235.929 67.75 234.25 66.0711 234.25 64C234.25 61.9289 235.929 60.25 238 60.25C240.071 60.25 241.75 61.9289 241.75 64Z" fill="#1F8B24"></path> <path fill-rule="evenodd" clip-rule="evenodd" d="M226 64C226 64 230.5 55.75 238 55.75C245.5 55.75 250 64 250 64C250 64 245.5 72.25 238 72.25C230.5 72.25 226 64 226 64ZM238 69.25C240.899 69.25 243.25 66.8995 243.25 64C243.25 61.1005 240.899 58.75 238 58.75C235.101 58.75 232.75 61.1005 232.75 64C232.75 66.8995 235.101 69.25 238 69.25Z" fill="#1F8B24"></path> </g> <rect x="37" y="16" width="72" height="24" rx="4" fill="white"></rect> <path d="M41.98 33V22.92H45.872C45.97 22.92 46.0797 22.9247 46.201 22.934C46.327 22.9387 46.453 22.9527 46.579 22.976C47.1063 23.0553 47.552 23.2397 47.916 23.529C48.2847 23.8137 48.5623 24.173 48.749 24.607C48.9403 25.041 49.036 25.5217 49.036 26.049C49.036 26.5717 48.9403 27.05 48.749 27.484C48.5577 27.918 48.2777 28.2797 47.909 28.569C47.545 28.8537 47.1017 29.0357 46.579 29.115C46.453 29.1337 46.327 29.1477 46.201 29.157C46.0797 29.1663 45.97 29.171 45.872 29.171H43.009V33H41.98ZM43.009 28.191H45.844C45.928 28.191 46.026 28.1863 46.138 28.177C46.25 28.1677 46.3597 28.1513 46.467 28.128C46.8123 28.0533 47.0947 27.911 47.314 27.701C47.538 27.491 47.7037 27.2413 47.811 26.952C47.923 26.6627 47.979 26.3617 47.979 26.049C47.979 25.7363 47.923 25.4353 47.811 25.146C47.7037 24.852 47.538 24.6 47.314 24.39C47.0947 24.18 46.8123 24.0377 46.467 23.963C46.3597 23.9397 46.25 23.9257 46.138 23.921C46.026 23.9117 45.928 23.907 45.844 23.907H43.009V28.191ZM52.4993 33.21C51.93 33.21 51.4516 33.1073 51.0643 32.902C50.6816 32.6967 50.3946 32.4237 50.2033 32.083C50.012 31.7423 49.9163 31.3713 49.9163 30.97C49.9163 30.5593 49.998 30.2093 50.1613 29.92C50.3293 29.626 50.5556 29.3857 50.8403 29.199C51.1296 29.0123 51.4633 28.87 51.8413 28.772C52.224 28.6787 52.6463 28.597 53.1083 28.527C53.575 28.4523 54.03 28.3893 54.4733 28.338C54.9213 28.282 55.3133 28.2283 55.6493 28.177L55.2853 28.401C55.2993 27.6543 55.1546 27.1013 54.8513 26.742C54.548 26.3827 54.0206 26.203 53.2693 26.203C52.7513 26.203 52.3126 26.3197 51.9533 26.553C51.5986 26.7863 51.349 27.155 51.2043 27.659L50.2033 27.365C50.376 26.6883 50.7236 26.1633 51.2463 25.79C51.769 25.4167 52.448 25.23 53.2833 25.23C53.974 25.23 54.5596 25.3607 55.0403 25.622C55.5256 25.8787 55.8686 26.252 56.0693 26.742C56.1626 26.9613 56.2233 27.2063 56.2513 27.477C56.2793 27.7477 56.2933 28.023 56.2933 28.303V33H55.3763V31.103L55.6423 31.215C55.3856 31.8637 54.9866 32.3583 54.4453 32.699C53.904 33.0397 53.2553 33.21 52.4993 33.21ZM52.6183 32.321C53.099 32.321 53.519 32.2347 53.8783 32.062C54.2376 31.8893 54.527 31.6537 54.7463 31.355C54.9656 31.0517 55.108 30.711 55.1733 30.333C55.2293 30.0903 55.2596 29.8243 55.2643 29.535C55.269 29.241 55.2713 29.0217 55.2713 28.877L55.6633 29.08C55.3133 29.1267 54.933 29.1733 54.5223 29.22C54.1163 29.2667 53.715 29.3203 53.3183 29.381C52.9263 29.4417 52.5716 29.514 52.2543 29.598C52.0396 29.6587 51.832 29.745 51.6313 29.857C51.4306 29.9643 51.265 30.109 51.1343 30.291C51.0083 30.473 50.9453 30.6993 50.9453 30.97C50.9453 31.1893 50.999 31.4017 51.1063 31.607C51.2183 31.8123 51.3956 31.9827 51.6383 32.118C51.8856 32.2533 52.2123 32.321 52.6183 32.321ZM61.1718 33.203C60.2851 33.203 59.5548 33.0117 58.9808 32.629C58.4115 32.2463 58.0615 31.7143 57.9308 31.033L58.9808 30.858C59.0928 31.2873 59.3471 31.6303 59.7438 31.887C60.1451 32.139 60.6398 32.265 61.2278 32.265C61.8018 32.265 62.2545 32.146 62.5858 31.908C62.9171 31.6653 63.0828 31.3363 63.0828 30.921C63.0828 30.6877 63.0291 30.4987 62.9218 30.354C62.8191 30.2047 62.6068 30.067 62.2848 29.941C61.9628 29.815 61.4821 29.6657 60.8428 29.493C60.1568 29.3063 59.6201 29.1197 59.2328 28.933C58.8455 28.7463 58.5701 28.5317 58.4068 28.289C58.2435 28.0417 58.1618 27.7407 58.1618 27.386C58.1618 26.9567 58.2831 26.581 58.5258 26.259C58.7685 25.9323 59.1045 25.6803 59.5338 25.503C59.9631 25.321 60.4625 25.23 61.0318 25.23C61.6011 25.23 62.1098 25.3233 62.5578 25.51C63.0105 25.692 63.3745 25.9487 63.6498 26.28C63.9251 26.6113 64.0885 26.9963 64.1398 27.435L63.0898 27.624C63.0198 27.1807 62.7981 26.8307 62.4248 26.574C62.0561 26.3127 61.5871 26.1773 61.0178 26.168C60.4811 26.154 60.0448 26.2567 59.7088 26.476C59.3728 26.6907 59.2048 26.9777 59.2048 27.337C59.2048 27.5377 59.2655 27.7103 59.3868 27.855C59.5081 27.995 59.7275 28.128 60.0448 28.254C60.3668 28.38 60.8241 28.5177 61.4168 28.667C62.1121 28.8443 62.6581 29.031 63.0548 29.227C63.4515 29.423 63.7338 29.654 63.9018 29.92C64.0698 30.186 64.1538 30.515 64.1538 30.907C64.1538 31.621 63.8878 32.1833 63.3558 32.594C62.8285 33 62.1005 33.203 61.1718 33.203ZM68.7625 33.203C67.8758 33.203 67.1455 33.0117 66.5715 32.629C66.0021 32.2463 65.6521 31.7143 65.5215 31.033L66.5715 30.858C66.6835 31.2873 66.9378 31.6303 67.3345 31.887C67.7358 32.139 68.2305 32.265 68.8185 32.265C69.3925 32.265 69.8451 32.146 70.1765 31.908C70.5078 31.6653 70.6735 31.3363 70.6735 30.921C70.6735 30.6877 70.6198 30.4987 70.5125 30.354C70.4098 30.2047 70.1975 30.067 69.8755 29.941C69.5535 29.815 69.0728 29.6657 68.4335 29.493C67.7475 29.3063 67.2108 29.1197 66.8235 28.933C66.4361 28.7463 66.1608 28.5317 65.9975 28.289C65.8341 28.0417 65.7525 27.7407 65.7525 27.386C65.7525 26.9567 65.8738 26.581 66.1165 26.259C66.3591 25.9323 66.6951 25.6803 67.1245 25.503C67.5538 25.321 68.0531 25.23 68.6225 25.23C69.1918 25.23 69.7005 25.3233 70.1485 25.51C70.6011 25.692 70.9651 25.9487 71.2405 26.28C71.5158 26.6113 71.6791 26.9963 71.7305 27.435L70.6805 27.624C70.6105 27.1807 70.3888 26.8307 70.0155 26.574C69.6468 26.3127 69.1778 26.1773 68.6085 26.168C68.0718 26.154 67.6355 26.2567 67.2995 26.476C66.9635 26.6907 66.7955 26.9777 66.7955 27.337C66.7955 27.5377 66.8561 27.7103 66.9775 27.855C67.0988 27.995 67.3181 28.128 67.6355 28.254C67.9575 28.38 68.4148 28.5177 69.0075 28.667C69.7028 28.8443 70.2488 29.031 70.6455 29.227C71.0421 29.423 71.3245 29.654 71.4925 29.92C71.6605 30.186 71.7445 30.515 71.7445 30.907C71.7445 31.621 71.4785 32.1833 70.9465 32.594C70.4191 33 69.6911 33.203 68.7625 33.203ZM74.8687 33L72.5587 25.433L73.5877 25.44L75.3797 31.313L77.1787 25.44H78.1167L79.9157 31.313L81.7217 25.44H82.7437L80.4337 33H79.5377L77.6477 26.98L75.7647 33H74.8687ZM87.1235 33.21C86.3722 33.21 85.7305 33.0397 85.1985 32.699C84.6665 32.3583 84.2582 31.887 83.9735 31.285C83.6889 30.683 83.5465 29.9923 83.5465 29.213C83.5465 28.4197 83.6912 27.7243 83.9805 27.127C84.2699 26.5297 84.6805 26.0653 85.2125 25.734C85.7492 25.398 86.3862 25.23 87.1235 25.23C87.8795 25.23 88.5235 25.4003 89.0555 25.741C89.5922 26.077 90.0005 26.546 90.2805 27.148C90.5652 27.7453 90.7075 28.4337 90.7075 29.213C90.7075 30.0063 90.5652 30.704 90.2805 31.306C89.9959 31.9033 89.5852 32.37 89.0485 32.706C88.5119 33.042 87.8702 33.21 87.1235 33.21ZM87.1235 32.223C87.9635 32.223 88.5889 31.9453 88.9995 31.39C89.4102 30.83 89.6155 30.1043 89.6155 29.213C89.6155 28.2983 89.4079 27.5703 88.9925 27.029C88.5819 26.4877 87.9589 26.217 87.1235 26.217C86.5589 26.217 86.0922 26.3453 85.7235 26.602C85.3595 26.854 85.0865 27.2063 84.9045 27.659C84.7272 28.107 84.6385 28.625 84.6385 29.213C84.6385 30.123 84.8485 30.8533 85.2685 31.404C85.6885 31.95 86.3069 32.223 87.1235 32.223ZM92.4869 33V25.44H93.4109V27.26L93.2289 27.022C93.3129 26.798 93.4226 26.5927 93.5579 26.406C93.6932 26.2147 93.8402 26.0583 93.9989 25.937C94.1949 25.7643 94.4236 25.6337 94.6849 25.545C94.9462 25.4517 95.2099 25.398 95.4759 25.384C95.7419 25.3653 95.9846 25.384 96.2039 25.44V26.406C95.9286 26.336 95.6276 26.3197 95.3009 26.357C94.9742 26.3943 94.6732 26.525 94.3979 26.749C94.1459 26.945 93.9569 27.1807 93.8309 27.456C93.7049 27.7267 93.6209 28.016 93.5789 28.324C93.5369 28.6273 93.5159 28.9283 93.5159 29.227V33H92.4869ZM100.563 33.21C99.8586 33.21 99.2566 33.035 98.7573 32.685C98.258 32.3303 97.8753 31.852 97.6093 31.25C97.3433 30.648 97.2103 29.969 97.2103 29.213C97.2103 28.4617 97.341 27.785 97.6023 27.183C97.8683 26.581 98.2486 26.105 98.7433 25.755C99.238 25.405 99.8306 25.23 100.521 25.23C101.231 25.23 101.828 25.4027 102.313 25.748C102.799 26.0933 103.165 26.567 103.412 27.169C103.664 27.7663 103.79 28.4477 103.79 29.213C103.79 29.9643 103.667 30.6433 103.419 31.25C103.172 31.852 102.808 32.3303 102.327 32.685C101.847 33.035 101.259 33.21 100.563 33.21ZM100.668 32.251C101.205 32.251 101.648 32.1203 101.998 31.859C102.348 31.5977 102.61 31.2383 102.782 30.781C102.955 30.319 103.041 29.7963 103.041 29.213C103.041 28.6203 102.955 28.0977 102.782 27.645C102.61 27.1877 102.348 26.8307 101.998 26.574C101.653 26.3173 101.217 26.189 100.689 26.189C100.148 26.189 99.7 26.322 99.3453 26.588C98.9906 26.854 98.727 27.2157 98.5543 27.673C98.3863 28.1303 98.3023 28.6437 98.3023 29.213C98.3023 29.787 98.3886 30.305 98.5613 30.767C98.7386 31.2243 99.0023 31.586 99.3523 31.852C99.7023 32.118 100.141 32.251 100.668 32.251ZM103.041 33V27.309H102.929V22.92H103.965V33H103.041Z" fill="#616161"></path> <path d="M44.036 115L41.06 106.36H41.978L44.612 113.998L47.264 106.36H48.182L45.206 115H44.036ZM51.4693 115.18C50.8373 115.18 50.2893 115.04 49.8253 114.76C49.3653 114.48 49.0073 114.086 48.7513 113.578C48.4953 113.07 48.3673 112.474 48.3673 111.79C48.3673 111.082 48.4933 110.47 48.7453 109.954C48.9973 109.438 49.3513 109.04 49.8073 108.76C50.2673 108.48 50.8093 108.34 51.4333 108.34C52.0733 108.34 52.6193 108.488 53.0713 108.784C53.5233 109.076 53.8653 109.496 54.0973 110.044C54.3293 110.592 54.4353 111.246 54.4153 112.006H53.5153V111.694C53.4993 110.854 53.3173 110.22 52.9693 109.792C52.6253 109.364 52.1213 109.15 51.4573 109.15C50.7613 109.15 50.2273 109.376 49.8553 109.828C49.4873 110.28 49.3033 110.924 49.3033 111.76C49.3033 112.576 49.4873 113.21 49.8553 113.662C50.2273 114.11 50.7533 114.334 51.4333 114.334C51.8973 114.334 52.3013 114.228 52.6453 114.016C52.9933 113.8 53.2673 113.49 53.4673 113.086L54.2893 113.404C54.0333 113.968 53.6553 114.406 53.1553 114.718C52.6593 115.026 52.0973 115.18 51.4693 115.18ZM48.9913 112.006V111.268H53.9413V112.006H48.9913ZM56.1069 115V108.52H56.8989V110.08L56.7429 109.876C56.8149 109.684 56.9089 109.508 57.0249 109.348C57.1409 109.184 57.2669 109.05 57.4029 108.946C57.5709 108.798 57.7669 108.686 57.9909 108.61C58.2149 108.53 58.4409 108.484 58.6689 108.472C58.8969 108.456 59.1049 108.472 59.2929 108.52V109.348C59.0569 109.288 58.7989 109.274 58.5189 109.306C58.2389 109.338 57.9809 109.45 57.7449 109.642C57.5289 109.81 57.3669 110.012 57.2589 110.248C57.1509 110.48 57.0789 110.728 57.0429 110.992C57.0069 111.252 56.9889 111.51 56.9889 111.766V115H56.1069ZM61.6331 117.88L62.8871 114.478L62.9051 115.486L60.0671 108.52H61.0031L63.3311 114.346H62.9471L65.0951 108.52H65.9951L62.5151 117.88H61.6331ZM71.5395 115L69.5595 108.514L70.4415 108.52L71.9775 113.554L73.5195 108.52H74.3235L75.8655 113.554L77.4135 108.52H78.2895L76.3095 115H75.5415L73.9215 109.84L72.3075 115H71.5395ZM82.2381 115.18C81.6061 115.18 81.0581 115.04 80.5941 114.76C80.1341 114.48 79.7761 114.086 79.5201 113.578C79.2641 113.07 79.1361 112.474 79.1361 111.79C79.1361 111.082 79.2621 110.47 79.5141 109.954C79.7661 109.438 80.1201 109.04 80.5761 108.76C81.0361 108.48 81.5781 108.34 82.2021 108.34C82.8421 108.34 83.3881 108.488 83.8401 108.784C84.2921 109.076 84.6341 109.496 84.8661 110.044C85.0981 110.592 85.2041 111.246 85.1841 112.006H84.2841V111.694C84.2681 110.854 84.0861 110.22 83.7381 109.792C83.3941 109.364 82.8901 109.15 82.2261 109.15C81.5301 109.15 80.9961 109.376 80.6241 109.828C80.2561 110.28 80.0721 110.924 80.0721 111.76C80.0721 112.576 80.2561 113.21 80.6241 113.662C80.9961 114.11 81.5221 114.334 82.2021 114.334C82.6661 114.334 83.0701 114.228 83.4141 114.016C83.7621 113.8 84.0361 113.49 84.2361 113.086L85.0581 113.404C84.8021 113.968 84.4241 114.406 83.9241 114.718C83.4281 115.026 82.8661 115.18 82.2381 115.18ZM79.7601 112.006V111.268H84.7101V112.006H79.7601ZM88.6124 115.18C88.1244 115.18 87.7144 115.092 87.3824 114.916C87.0544 114.74 86.8084 114.506 86.6444 114.214C86.4804 113.922 86.3984 113.604 86.3984 113.26C86.3984 112.908 86.4684 112.608 86.6084 112.36C86.7524 112.108 86.9464 111.902 87.1904 111.742C87.4384 111.582 87.7244 111.46 88.0484 111.376C88.3764 111.296 88.7384 111.226 89.1344 111.166C89.5344 111.102 89.9244 111.048 90.3044 111.004C90.6884 110.956 91.0244 110.91 91.3124 110.866L91.0004 111.058C91.0124 110.418 90.8884 109.944 90.6284 109.636C90.3684 109.328 89.9164 109.174 89.2724 109.174C88.8284 109.174 88.4524 109.274 88.1444 109.474C87.8404 109.674 87.6264 109.99 87.5024 110.422L86.6444 110.17C86.7924 109.59 87.0904 109.14 87.5384 108.82C87.9864 108.5 88.5684 108.34 89.2844 108.34C89.8764 108.34 90.3784 108.452 90.7904 108.676C91.2064 108.896 91.5004 109.216 91.6724 109.636C91.7524 109.824 91.8044 110.034 91.8284 110.266C91.8524 110.498 91.8644 110.734 91.8644 110.974V115H91.0784V113.374L91.3064 113.47C91.0864 114.026 90.7444 114.45 90.2804 114.742C89.8164 115.034 89.2604 115.18 88.6124 115.18ZM88.7144 114.418C89.1264 114.418 89.4864 114.344 89.7944 114.196C90.1024 114.048 90.3504 113.846 90.5384 113.59C90.7264 113.33 90.8484 113.038 90.9044 112.714C90.9524 112.506 90.9784 112.278 90.9824 112.03C90.9864 111.778 90.9884 111.59 90.9884 111.466L91.3244 111.64C91.0244 111.68 90.6984 111.72 90.3464 111.76C89.9984 111.8 89.6544 111.846 89.3144 111.898C88.9784 111.95 88.6744 112.012 88.4024 112.084C88.2184 112.136 88.0404 112.21 87.8684 112.306C87.6964 112.398 87.5544 112.522 87.4424 112.678C87.3344 112.834 87.2804 113.028 87.2804 113.26C87.2804 113.448 87.3264 113.63 87.4184 113.806C87.5144 113.982 87.6664 114.128 87.8744 114.244C88.0864 114.36 88.3664 114.418 88.7144 114.418ZM93.7804 115L93.7864 106.36H94.6744V111.64L97.5664 108.52H98.7424L95.7064 111.76L99.1384 115H97.8544L94.6744 111.88V115H93.7804ZM100.7 115V114.01H101.582V115H100.7ZM100.7 112.84V106.36H101.582V112.84H100.7Z" fill="#818181"></path> <rect x="41" y="94" width="53.5" height="6" rx="2" fill="#A1A1A1"></rect> <rect x="97.5" y="94" width="53.5" height="6" rx="2" fill="#E0E0E0"></rect> <rect x="154" y="94" width="53.5" height="6" rx="2" fill="#E0E0E0"></rect> <rect x="210.5" y="94" width="53.5" height="6" rx="2" fill="#E0E0E0"></rect> <rect x="0.75" y="0.75" width="302.5" height="134.5" rx="19.25" stroke="#F7F7F7" stroke-width="1.5"></rect> <defs> <filter id="filter0_ii_8966_55306" x="40" y="40" width="224" height="51" filterUnits="userSpaceOnUse" color-interpolation-filters="sRGB"> <feFlood flood-opacity="0" result="BackgroundImageFix"></feFlood> <feBlend mode="normal" in="SourceGraphic" in2="BackgroundImageFix" result="shape"></feBlend> <feColorMatrix in="SourceAlpha" type="matrix" values="0 0 0 0 0 0 0 0 0 0 0 0 0 0 0 0 0 0 127 0" result="hardAlpha"></feColorMatrix> <feOffset dy="3"></feOffset> <feGaussianBlur stdDeviation="3"></feGaussianBlur> <feComposite in2="hardAlpha" operator="arithmetic" k2="-1" k3="1"></feComposite> <feColorMatrix type="matrix" values="0 0 0 0 0 0 0 0 0 0 0 0 0 0 0 0 0 0 0.06 0"></feColorMatrix> <feBlend mode="normal" in2="shape" result="effect1_innerShadow_8966_55306"></feBlend> <feColorMatrix in="SourceAlpha" type="matrix" values="0 0 0 0 0 0 0 0 0 0 0 0 0 0 0 0 0 0 127 0" result="hardAlpha"></feColorMatrix> <feOffset dy="1"></feOffset> <feGaussianBlur stdDeviation="1"></feGaussianBlur> <feComposite in2="hardAlpha" operator="arithmetic" k2="-1" k3="1"></feComposite> <feColorMatrix type="matrix" values="0 0 0 0 0 0 0 0 0 0 0 0 0 0 0 0 0 0 0.12 0"></feColorMatrix> <feBlend mode="normal" in2="effect1_innerShadow_8966_55306" result="effect2_innerShadow_8966_55306"></feBlend> </filter> <filter id="filter1_d_8966_55306" x="85.6123" y="59.904" width="89.1289" height="11.504" filterUnits="userSpaceOnUse" color-interpolation-filters="sRGB"> <feFlood flood-opacity="0" result="BackgroundImageFix"></feFlood> <feColorMatrix in="SourceAlpha" type="matrix" values="0 0 0 0 0 0 0 0 0 0 0 0 0 0 0 0 0 0 127 0" result="hardAlpha"></feColorMatrix> <feOffset dy="1"></feOffset> <feGaussianBlur stdDeviation="0.5"></feGaussianBlur> <feComposite in2="hardAlpha" operator="out"></feComposite> <feColorMatrix type="matrix" values="0 0 0 0 1 0 0 0 0 1 0 0 0 0 1 0 0 0 1 0"></feColorMatrix> <feBlend mode="normal" in2="BackgroundImageFix" result="effect1_dropShadow_8966_55306"></feBlend> <feBlend mode="normal" in="SourceGraphic" in2="effect1_dropShadow_8966_55306" result="shape"></feBlend> </filter> <filter id="filter2_dd_8966_55306" x="210" y="47.75" width="56" height="48.5" filterUnits="userSpaceOnUse" color-interpolation-filters="sRGB"> <feFlood flood-opacity="0" result="BackgroundImageFix"></feFlood> <feColorMatrix in="SourceAlpha" type="matrix" values="0 0 0 0 0 0 0 0 0 0 0 0 0 0 0 0 0 0 127 0" result="hardAlpha"></feColorMatrix> <feOffset dy="8"></feOffset> <feGaussianBlur stdDeviation="8"></feGaussianBlur> <feColorMatrix type="matrix" values="0 0 0 0 0.121569 0 0 0 0 0.545098 0 0 0 0 0.141176 0 0 0 0.14 0"></feColorMatrix> <feBlend mode="multiply" in2="BackgroundImageFix" result="effect1_dropShadow_8966_55306"></feBlend> <feColorMatrix in="SourceAlpha" type="matrix" values="0 0 0 0 0 0 0 0 0 0 0 0 0 0 0 0 0 0 127 0" result="hardAlpha"></feColorMatrix> <feOffset dy="4"></feOffset> <feGaussianBlur stdDeviation="4"></feGaussianBlur> <feColorMatrix type="matrix" values="0 0 0 0 0.121569 0 0 0 0 0.545098 0 0 0 0 0.141176 0 0 0 0.14 0"></feColorMatrix> <feBlend mode="multiply" in2="effect1_dropShadow_8966_55306" result="effect2_dropShadow_8966_55306"></feBlend> <feBlend mode="normal" in="SourceGraphic" in2="effect2_dropShadow_8966_55306" result="shape"></feBlend> </filter> <linearGradient id="paint0_linear_8966_55306" x1="152" y1="0" x2="152" y2="136" gradientUnits="userSpaceOnUse"> <stop stop-color="white"></stop> <stop offset="0.8125" stop-color="#FAF9FA"></stop> </linearGradient> <linearGradient id="paint1_linear_8966_55306" x1="152" y1="40" x2="152" y2="88" gradientUnits="userSpaceOnUse"> <stop stop-color="#F5F5F5"></stop> <stop offset="1" stop-color="white"></stop> </linearGradient> <linearGradient id="paint2_linear_8966_55306" x1="152" y1="40" x2="152" y2="88" gradientUnits="userSpaceOnUse"> <stop stop-color="#EEEEEE" stop-opacity="0"></stop> <stop offset="1" stop-color="#F1F0F4"></stop> </linearGradient> </defs> </svg> 