<?xml version="1.0" encoding="UTF-8"?> <svg xmlns="http://www.w3.org/2000/svg" width="320" height="192" viewBox="0 0 320 192" fill="none"> <g clip-path="url(#clip0_8968_56449)"> <rect width="320" height="192" rx="20" fill="url(#paint0_linear_8968_56449)"></rect> <g filter="url(#filter0_ii_8968_56449)"> <rect x="40" y="40" width="240" height="48" rx="10" fill="url(#paint1_linear_8968_56449)"></rect> </g> <rect x="40.5" y="40.5" width="239" height="47" rx="9.5" stroke="url(#paint2_linear_8968_56449)"></rect> <g filter="url(#filter1_d_8968_56449)"> <path d="M58.507 70.77C57.619 70.77 56.809 70.614 56.077 70.302C55.345 69.99 54.715 69.543 54.187 68.961C53.659 68.373 53.251 67.665 52.963 66.837C52.681 66.003 52.54 65.064 52.54 64.02C52.54 62.64 52.786 61.446 53.278 60.438C53.77 59.43 54.463 58.653 55.357 58.107C56.251 57.555 57.301 57.279 58.507 57.279C59.959 57.279 61.129 57.618 62.017 58.296C62.905 58.968 63.517 59.889 63.853 61.059L62.233 61.392C61.963 60.606 61.519 59.979 60.901 59.511C60.283 59.043 59.512 58.809 58.588 58.809C57.622 58.803 56.818 59.019 56.176 59.457C55.54 59.889 55.06 60.498 54.736 61.284C54.412 62.07 54.247 62.982 54.241 64.02C54.235 65.052 54.394 65.958 54.718 66.738C55.042 67.518 55.525 68.13 56.167 68.574C56.815 69.012 57.622 69.234 58.588 69.24C59.422 69.246 60.124 69.087 60.694 68.763C61.264 68.439 61.705 67.971 62.017 67.359C62.329 66.747 62.518 66.012 62.584 65.154H59.83V63.831H64.276C64.294 63.951 64.303 64.095 64.303 64.263C64.309 64.425 64.312 64.536 64.312 64.596C64.312 65.778 64.09 66.837 63.646 67.773C63.208 68.703 62.557 69.435 61.693 69.969C60.835 70.503 59.773 70.77 58.507 70.77ZM66.412 70.5V60.78H67.843V63.129L67.609 62.823C67.723 62.523 67.87 62.247 68.05 61.995C68.236 61.743 68.443 61.536 68.671 61.374C68.923 61.17 69.208 61.014 69.526 60.906C69.844 60.798 70.168 60.735 70.498 60.717C70.828 60.693 71.137 60.714 71.425 60.78V62.283C71.089 62.193 70.72 62.169 70.318 62.211C69.916 62.253 69.544 62.4 69.202 62.652C68.89 62.874 68.647 63.144 68.473 63.462C68.305 63.78 68.188 64.125 68.122 64.497C68.056 64.863 68.023 65.238 68.023 65.622V70.5H66.412ZM75.8758 70.77C75.1498 70.77 74.5408 70.638 74.0488 70.374C73.5628 70.104 73.1938 69.75 72.9418 69.312C72.6958 68.874 72.5728 68.394 72.5728 67.872C72.5728 67.362 72.6688 66.921 72.8608 66.549C73.0588 66.171 73.3348 65.859 73.6888 65.613C74.0428 65.361 74.4658 65.163 74.9578 65.019C75.4198 64.893 75.9358 64.785 76.5058 64.695C77.0818 64.599 77.6638 64.512 78.2518 64.434C78.8398 64.356 79.3888 64.281 79.8988 64.209L79.3228 64.542C79.3408 63.678 79.1668 63.039 78.8008 62.625C78.4408 62.211 77.8168 62.004 76.9288 62.004C76.3408 62.004 75.8248 62.139 75.3808 62.409C74.9428 62.673 74.6338 63.105 74.4538 63.705L72.9328 63.246C73.1668 62.394 73.6198 61.725 74.2918 61.239C74.9638 60.753 75.8488 60.51 76.9468 60.51C77.8288 60.51 78.5848 60.669 79.2148 60.987C79.8508 61.299 80.3068 61.773 80.5828 62.409C80.7208 62.709 80.8078 63.036 80.8438 63.39C80.8798 63.738 80.8978 64.104 80.8978 64.488V70.5H79.4758V68.169L79.8088 68.385C79.4428 69.171 78.9298 69.765 78.2698 70.167C77.6158 70.569 76.8178 70.77 75.8758 70.77ZM76.1188 69.429C76.6948 69.429 77.1928 69.327 77.6128 69.123C78.0388 68.913 78.3808 68.64 78.6388 68.304C78.8968 67.962 79.0648 67.59 79.1428 67.188C79.2328 66.888 79.2808 66.555 79.2868 66.189C79.2988 65.817 79.3048 65.532 79.3048 65.334L79.8628 65.577C79.3408 65.649 78.8278 65.718 78.3238 65.784C77.8198 65.85 77.3428 65.922 76.8928 66C76.4428 66.072 76.0378 66.159 75.6778 66.261C75.4138 66.345 75.1648 66.453 74.9308 66.585C74.7028 66.717 74.5168 66.888 74.3728 67.098C74.2348 67.302 74.1658 67.557 74.1658 67.863C74.1658 68.127 74.2318 68.379 74.3638 68.619C74.5018 68.859 74.7118 69.054 74.9938 69.204C75.2818 69.354 75.6568 69.429 76.1188 69.429ZM88.0042 70.77C87.0922 70.77 86.3242 70.545 85.7002 70.095C85.0762 69.639 84.6022 69.024 84.2782 68.25C83.9602 67.47 83.8012 66.597 83.8012 65.631C83.8012 64.653 83.9602 63.777 84.2782 63.003C84.6022 62.229 85.0762 61.62 85.7002 61.176C86.3302 60.732 87.1012 60.51 88.0132 60.51C88.9132 60.51 89.6872 60.735 90.3352 61.185C90.9892 61.629 91.4902 62.238 91.8382 63.012C92.1862 63.786 92.3602 64.659 92.3602 65.631C92.3602 66.603 92.1862 67.476 91.8382 68.25C91.4902 69.024 90.9892 69.639 90.3352 70.095C89.6872 70.545 88.9102 70.77 88.0042 70.77ZM83.5312 74.82V60.78H84.9622V67.935H85.1422V74.82H83.5312ZM87.8062 69.303C88.4482 69.303 88.9792 69.141 89.3992 68.817C89.8192 68.493 90.1342 68.055 90.3442 67.503C90.5542 66.945 90.6592 66.321 90.6592 65.631C90.6592 64.947 90.5542 64.329 90.3442 63.777C90.1402 63.225 89.8222 62.787 89.3902 62.463C88.9642 62.139 88.4212 61.977 87.7612 61.977C87.1312 61.977 86.6092 62.133 86.1952 62.445C85.7812 62.751 85.4722 63.18 85.2682 63.732C85.0642 64.278 84.9622 64.911 84.9622 65.631C84.9622 66.339 85.0612 66.972 85.2592 67.53C85.4632 68.082 85.7752 68.517 86.1952 68.835C86.6152 69.147 87.1522 69.303 87.8062 69.303ZM101.557 70.5V65.631C101.557 65.169 101.515 64.725 101.431 64.299C101.353 63.873 101.212 63.492 101.008 63.156C100.81 62.814 100.54 62.544 100.198 62.346C99.8616 62.148 99.4356 62.049 98.9196 62.049C98.5176 62.049 98.1516 62.118 97.8216 62.256C97.4976 62.388 97.2186 62.592 96.9846 62.868C96.7506 63.144 96.5676 63.492 96.4356 63.912C96.3096 64.326 96.2466 64.815 96.2466 65.379L95.1936 65.055C95.1936 64.113 95.3616 63.306 95.6976 62.634C96.0396 61.956 96.5166 61.437 97.1286 61.077C97.7466 60.711 98.4726 60.528 99.3066 60.528C99.9366 60.528 100.474 60.627 100.918 60.825C101.362 61.023 101.731 61.287 102.025 61.617C102.319 61.941 102.55 62.307 102.718 62.715C102.886 63.117 103.003 63.528 103.069 63.948C103.141 64.362 103.177 64.755 103.177 65.127V70.5H101.557ZM94.6266 70.5V57.54H96.0666V64.695H96.2466V70.5H94.6266ZM105.999 59.061V57.405H107.601V59.061H105.999ZM105.999 70.5V60.78H107.601V70.5H105.999ZM114.699 70.77C113.715 70.77 112.878 70.551 112.188 70.113C111.504 69.669 110.982 69.06 110.622 68.286C110.262 67.512 110.076 66.63 110.064 65.64C110.076 64.626 110.265 63.735 110.631 62.967C111.003 62.193 111.534 61.59 112.224 61.158C112.914 60.726 113.745 60.51 114.717 60.51C115.743 60.51 116.625 60.762 117.363 61.266C118.107 61.77 118.605 62.46 118.857 63.336L117.273 63.813C117.069 63.249 116.736 62.811 116.274 62.499C115.818 62.187 115.293 62.031 114.699 62.031C114.033 62.031 113.484 62.187 113.052 62.499C112.62 62.805 112.299 63.231 112.089 63.777C111.879 64.317 111.771 64.938 111.765 65.64C111.777 66.72 112.026 67.593 112.512 68.259C113.004 68.919 113.733 69.249 114.699 69.249C115.335 69.249 115.863 69.105 116.283 68.817C116.703 68.523 117.021 68.1 117.237 67.548L118.857 67.971C118.521 68.877 117.996 69.57 117.282 70.05C116.568 70.53 115.707 70.77 114.699 70.77ZM128.718 70.77C127.812 70.77 127.035 70.545 126.387 70.095C125.739 69.639 125.238 69.024 124.884 68.25C124.536 67.476 124.362 66.603 124.362 65.631C124.362 64.659 124.536 63.786 124.884 63.012C125.238 62.238 125.739 61.629 126.387 61.185C127.035 60.735 127.809 60.51 128.709 60.51C129.627 60.51 130.398 60.732 131.022 61.176C131.646 61.62 132.117 62.229 132.435 63.003C132.759 63.777 132.921 64.653 132.921 65.631C132.921 66.597 132.759 67.47 132.435 68.25C132.117 69.024 131.646 69.639 131.022 70.095C130.398 70.545 129.63 70.77 128.718 70.77ZM128.916 69.303C129.57 69.303 130.107 69.147 130.527 68.835C130.947 68.517 131.256 68.082 131.454 67.53C131.658 66.972 131.76 66.339 131.76 65.631C131.76 64.911 131.658 64.278 131.454 63.732C131.256 63.18 130.95 62.751 130.536 62.445C130.122 62.133 129.597 61.977 128.961 61.977C128.301 61.977 127.755 62.139 127.323 62.463C126.897 62.787 126.579 63.225 126.369 63.777C126.165 64.329 126.063 64.947 126.063 65.631C126.063 66.321 126.168 66.945 126.378 67.503C126.588 68.055 126.903 68.493 127.323 68.817C127.749 69.141 128.28 69.303 128.916 69.303ZM131.76 70.5V63.345H131.58V57.54H133.191V70.5H131.76ZM140.227 70.77C139.273 70.77 138.439 70.56 137.725 70.14C137.017 69.714 136.465 69.123 136.069 68.367C135.673 67.605 135.475 66.717 135.475 65.703C135.475 64.641 135.67 63.723 136.06 62.949C136.45 62.169 136.993 61.569 137.689 61.149C138.391 60.723 139.213 60.51 140.155 60.51C141.133 60.51 141.964 60.735 142.648 61.185C143.338 61.635 143.854 62.277 144.196 63.111C144.544 63.945 144.694 64.938 144.646 66.09H143.026V65.514C143.008 64.32 142.765 63.429 142.297 62.841C141.829 62.247 141.133 61.95 140.209 61.95C139.219 61.95 138.466 62.268 137.95 62.904C137.434 63.54 137.176 64.452 137.176 65.64C137.176 66.786 137.434 67.674 137.95 68.304C138.466 68.934 139.201 69.249 140.155 69.249C140.797 69.249 141.355 69.102 141.829 68.808C142.303 68.514 142.675 68.091 142.945 67.539L144.484 68.07C144.106 68.928 143.536 69.594 142.774 70.068C142.018 70.536 141.169 70.77 140.227 70.77ZM136.636 66.09V64.803H143.818V66.09H136.636ZM150.624 70.761C149.466 70.761 148.515 70.509 147.771 70.005C147.033 69.495 146.58 68.784 146.412 67.872L148.05 67.611C148.182 68.139 148.485 68.559 148.959 68.871C149.433 69.177 150.021 69.33 150.723 69.33C151.389 69.33 151.911 69.192 152.289 68.916C152.667 68.64 152.856 68.265 152.856 67.791C152.856 67.515 152.793 67.293 152.667 67.125C152.541 66.951 152.28 66.789 151.884 66.639C151.494 66.489 150.903 66.309 150.111 66.099C149.253 65.871 148.578 65.634 148.086 65.388C147.594 65.142 147.243 64.857 147.033 64.533C146.823 64.209 146.718 63.816 146.718 63.354C146.718 62.784 146.874 62.286 147.186 61.86C147.498 61.428 147.933 61.095 148.491 60.861C149.055 60.627 149.709 60.51 150.453 60.51C151.191 60.51 151.851 60.627 152.433 60.861C153.015 61.095 153.483 61.428 153.837 61.86C154.197 62.286 154.41 62.784 154.476 63.354L152.838 63.651C152.76 63.129 152.508 62.718 152.082 62.418C151.662 62.118 151.119 61.959 150.453 61.941C149.823 61.917 149.31 62.028 148.914 62.274C148.524 62.52 148.329 62.853 148.329 63.273C148.329 63.507 148.401 63.708 148.545 63.876C148.695 64.044 148.968 64.203 149.364 64.353C149.766 64.503 150.348 64.674 151.11 64.866C151.968 65.082 152.643 65.319 153.135 65.577C153.633 65.829 153.987 66.129 154.197 66.477C154.407 66.819 154.512 67.242 154.512 67.746C154.512 68.682 154.167 69.42 153.477 69.96C152.787 70.494 151.836 70.761 150.624 70.761ZM156.979 59.061V57.405H158.581V59.061H156.979ZM156.979 70.5V60.78H158.581V70.5H156.979ZM165.517 75.09C165.007 75.09 164.509 75.012 164.023 74.856C163.537 74.7 163.09 74.463 162.682 74.145C162.28 73.833 161.944 73.437 161.674 72.957L163.141 72.183C163.381 72.657 163.72 73.002 164.158 73.218C164.602 73.434 165.058 73.542 165.526 73.542C166.144 73.542 166.657 73.428 167.065 73.2C167.473 72.978 167.773 72.645 167.965 72.201C168.163 71.757 168.259 71.205 168.253 70.545V67.89H168.442V60.78H169.864V70.563C169.864 70.827 169.855 71.082 169.837 71.328C169.825 71.574 169.795 71.817 169.747 72.057C169.621 72.747 169.372 73.314 169 73.758C168.628 74.208 168.148 74.541 167.56 74.757C166.972 74.979 166.291 75.09 165.517 75.09ZM165.4 70.77C164.494 70.77 163.717 70.545 163.069 70.095C162.421 69.639 161.92 69.024 161.566 68.25C161.218 67.476 161.044 66.603 161.044 65.631C161.044 64.659 161.218 63.786 161.566 63.012C161.92 62.238 162.421 61.629 163.069 61.185C163.717 60.735 164.491 60.51 165.391 60.51C166.309 60.51 167.08 60.732 167.704 61.176C168.328 61.62 168.799 62.229 169.117 63.003C169.441 63.777 169.603 64.653 169.603 65.631C169.603 66.597 169.441 67.47 169.117 68.25C168.799 69.024 168.328 69.639 167.704 70.095C167.08 70.545 166.312 70.77 165.4 70.77ZM165.598 69.303C166.252 69.303 166.789 69.147 167.209 68.835C167.629 68.517 167.938 68.082 168.136 67.53C168.34 66.972 168.442 66.339 168.442 65.631C168.442 64.911 168.34 64.278 168.136 63.732C167.938 63.18 167.632 62.751 167.218 62.445C166.804 62.133 166.279 61.977 165.643 61.977C164.983 61.977 164.437 62.139 164.005 62.463C163.579 62.787 163.261 63.225 163.051 63.777C162.847 64.329 162.745 64.947 162.745 65.631C162.745 66.321 162.85 66.945 163.06 67.503C163.27 68.055 163.585 68.493 164.005 68.817C164.431 69.141 164.962 69.303 165.598 69.303ZM179.6 70.5V65.631C179.6 65.169 179.558 64.725 179.474 64.299C179.396 63.873 179.255 63.492 179.051 63.156C178.853 62.814 178.583 62.544 178.241 62.346C177.905 62.148 177.479 62.049 176.963 62.049C176.561 62.049 176.195 62.118 175.865 62.256C175.541 62.388 175.262 62.592 175.028 62.868C174.794 63.144 174.611 63.492 174.479 63.912C174.353 64.326 174.29 64.815 174.29 65.379L173.237 65.055C173.237 64.113 173.405 63.306 173.741 62.634C174.083 61.956 174.56 61.437 175.172 61.077C175.79 60.711 176.516 60.528 177.35 60.528C177.98 60.528 178.517 60.627 178.961 60.825C179.405 61.023 179.774 61.287 180.068 61.617C180.362 61.941 180.593 62.307 180.761 62.715C180.929 63.117 181.046 63.528 181.112 63.948C181.184 64.362 181.22 64.755 181.22 65.127V70.5H179.6ZM172.67 70.5V60.78H174.11V63.381H174.29V70.5H172.67ZM187.987 70.77C187.033 70.77 186.199 70.56 185.485 70.14C184.777 69.714 184.225 69.123 183.829 68.367C183.433 67.605 183.235 66.717 183.235 65.703C183.235 64.641 183.43 63.723 183.82 62.949C184.21 62.169 184.753 61.569 185.449 61.149C186.151 60.723 186.973 60.51 187.915 60.51C188.893 60.51 189.724 60.735 190.408 61.185C191.098 61.635 191.614 62.277 191.956 63.111C192.304 63.945 192.454 64.938 192.406 66.09H190.786V65.514C190.768 64.32 190.525 63.429 190.057 62.841C189.589 62.247 188.893 61.95 187.969 61.95C186.979 61.95 186.226 62.268 185.71 62.904C185.194 63.54 184.936 64.452 184.936 65.64C184.936 66.786 185.194 67.674 185.71 68.304C186.226 68.934 186.961 69.249 187.915 69.249C188.557 69.249 189.115 69.102 189.589 68.808C190.063 68.514 190.435 68.091 190.705 67.539L192.244 68.07C191.866 68.928 191.296 69.594 190.534 70.068C189.778 70.536 188.929 70.77 187.987 70.77ZM184.396 66.09V64.803H191.578V66.09H184.396ZM194.712 70.5V60.78H196.143V63.129L195.909 62.823C196.023 62.523 196.17 62.247 196.35 61.995C196.536 61.743 196.743 61.536 196.971 61.374C197.223 61.17 197.508 61.014 197.826 60.906C198.144 60.798 198.468 60.735 198.798 60.717C199.128 60.693 199.437 60.714 199.725 60.78V62.283C199.389 62.193 199.02 62.169 198.618 62.211C198.216 62.253 197.844 62.4 197.502 62.652C197.19 62.874 196.947 63.144 196.773 63.462C196.605 63.78 196.488 64.125 196.422 64.497C196.356 64.863 196.323 65.238 196.323 65.622V70.5H194.712Z" fill="black"></path> </g> <g clip-path="url(#clip1_8968_56449)"> <g filter="url(#filter2_dd_8968_56449)"> <path d="M256.616 60.7109C256.816 60.4711 257.184 60.4711 257.384 60.7109L262.567 66.9299C262.838 67.2556 262.606 67.75 262.182 67.75L251.818 67.75C251.394 67.75 251.162 67.2556 251.433 66.9299L256.616 60.7109Z" fill="#223189"></path> </g> </g> <rect x="37" y="16" width="80" height="24" rx="4" fill="white"></rect> <path d="M45.48 33.21C44.7753 33.21 44.1407 33.0933 43.576 32.86C43.016 32.622 42.5517 32.286 42.183 31.852C41.819 31.418 41.581 30.9023 41.469 30.305L42.519 30.13C42.687 30.7833 43.0417 31.2967 43.583 31.67C44.1243 32.0387 44.7707 32.223 45.522 32.223C46.0167 32.223 46.46 32.146 46.852 31.992C47.244 31.8333 47.552 31.6093 47.776 31.32C48 31.0307 48.112 30.6877 48.112 30.291C48.112 30.0297 48.0653 29.808 47.972 29.626C47.8787 29.4393 47.755 29.2853 47.601 29.164C47.447 29.0427 47.279 28.9423 47.097 28.863C46.915 28.779 46.7377 28.7113 46.565 28.66L44.01 27.897C43.702 27.8083 43.4173 27.6963 43.156 27.561C42.8947 27.421 42.666 27.2553 42.47 27.064C42.2787 26.868 42.1293 26.6393 42.022 26.378C41.9147 26.1167 41.861 25.818 41.861 25.482C41.861 24.9127 42.0103 24.4203 42.309 24.005C42.6077 23.5897 43.016 23.27 43.534 23.046C44.052 22.822 44.6423 22.7123 45.305 22.717C45.977 22.717 46.5767 22.836 47.104 23.074C47.636 23.312 48.0747 23.6527 48.42 24.096C48.7653 24.5347 48.994 25.055 49.106 25.657L48.028 25.853C47.958 25.4143 47.797 25.034 47.545 24.712C47.293 24.39 46.971 24.1427 46.579 23.97C46.1917 23.7927 45.7647 23.7017 45.298 23.697C44.8453 23.697 44.4417 23.774 44.087 23.928C43.737 24.0773 43.4593 24.2827 43.254 24.544C43.0487 24.8053 42.946 25.104 42.946 25.44C42.946 25.7807 43.0393 26.0537 43.226 26.259C43.4173 26.4643 43.6507 26.6253 43.926 26.742C44.206 26.8587 44.4767 26.9543 44.738 27.029L46.712 27.61C46.9173 27.666 47.1577 27.7477 47.433 27.855C47.713 27.9577 47.9837 28.107 48.245 28.303C48.511 28.4943 48.7303 28.7463 48.903 29.059C49.0757 29.3717 49.162 29.7683 49.162 30.249C49.162 30.7157 49.0687 31.1333 48.882 31.502C48.7 31.8707 48.441 32.181 48.105 32.433C47.7737 32.685 47.384 32.8763 46.936 33.007C46.4927 33.1423 46.0073 33.21 45.48 33.21ZM54.0412 33.21C53.3038 33.21 52.6645 33.0467 52.1232 32.72C51.5865 32.3933 51.1688 31.9337 50.8702 31.341C50.5715 30.7483 50.4222 30.053 50.4222 29.255C50.4222 28.429 50.5692 27.715 50.8632 27.113C51.1572 26.511 51.5702 26.0467 52.1022 25.72C52.6388 25.3933 53.2712 25.23 53.9992 25.23C54.7458 25.23 55.3828 25.4027 55.9102 25.748C56.4375 26.0887 56.8365 26.5787 57.1072 27.218C57.3778 27.8573 57.5015 28.6203 57.4782 29.507H56.4282V29.143C56.4095 28.163 56.1972 27.4233 55.7912 26.924C55.3898 26.4247 54.8018 26.175 54.0272 26.175C53.2152 26.175 52.5922 26.4387 52.1582 26.966C51.7288 27.4933 51.5142 28.2447 51.5142 29.22C51.5142 30.172 51.7288 30.9117 52.1582 31.439C52.5922 31.9617 53.2058 32.223 53.9992 32.223C54.5405 32.223 55.0118 32.0993 55.4132 31.852C55.8192 31.6 56.1388 31.2383 56.3722 30.767L57.3312 31.138C57.0325 31.796 56.5915 32.307 56.0082 32.671C55.4295 33.0303 54.7738 33.21 54.0412 33.21ZM51.1502 29.507V28.646H56.9252V29.507H51.1502ZM59.4068 33V22.71H60.4358V33H59.4068ZM65.9686 33.21C65.2313 33.21 64.5919 33.0467 64.0506 32.72C63.5139 32.3933 63.0963 31.9337 62.7976 31.341C62.4989 30.7483 62.3496 30.053 62.3496 29.255C62.3496 28.429 62.4966 27.715 62.7906 27.113C63.0846 26.511 63.4976 26.0467 64.0296 25.72C64.5663 25.3933 65.1986 25.23 65.9266 25.23C66.6733 25.23 67.3103 25.4027 67.8376 25.748C68.3649 26.0887 68.7639 26.5787 69.0346 27.218C69.3053 27.8573 69.4289 28.6203 69.4056 29.507H68.3556V29.143C68.3369 28.163 68.1246 27.4233 67.7186 26.924C67.3173 26.4247 66.7293 26.175 65.9546 26.175C65.1426 26.175 64.5196 26.4387 64.0856 26.966C63.6563 27.4933 63.4416 28.2447 63.4416 29.22C63.4416 30.172 63.6563 30.9117 64.0856 31.439C64.5196 31.9617 65.1333 32.223 65.9266 32.223C66.4679 32.223 66.9393 32.0993 67.3406 31.852C67.7466 31.6 68.0663 31.2383 68.2996 30.767L69.2586 31.138C68.9599 31.796 68.5189 32.307 67.9356 32.671C67.3569 33.0303 66.7013 33.21 65.9686 33.21ZM63.0776 29.507V28.646H68.8526V29.507H63.0776ZM74.3302 33.21C73.5696 33.21 72.9256 33.0397 72.3982 32.699C71.8709 32.3583 71.4696 31.8893 71.1942 31.292C70.9236 30.69 70.7836 29.9993 70.7742 29.22C70.7836 28.4267 70.9282 27.7313 71.2082 27.134C71.4882 26.532 71.8919 26.0653 72.4192 25.734C72.9466 25.398 73.5859 25.23 74.3372 25.23C75.1026 25.23 75.7676 25.4167 76.3322 25.79C76.9016 26.1633 77.2912 26.6743 77.5012 27.323L76.4932 27.645C76.3159 27.1923 76.0336 26.8423 75.6462 26.595C75.2636 26.343 74.8249 26.217 74.3302 26.217C73.7749 26.217 73.3152 26.3453 72.9512 26.602C72.5872 26.854 72.3166 27.2063 72.1392 27.659C71.9619 28.1117 71.8709 28.632 71.8662 29.22C71.8756 30.1253 72.0856 30.8533 72.4962 31.404C72.9069 31.95 73.5182 32.223 74.3302 32.223C74.8436 32.223 75.2799 32.1063 75.6392 31.873C76.0032 31.635 76.2786 31.2897 76.4652 30.837L77.5012 31.145C77.2212 31.817 76.8106 32.3303 76.2692 32.685C75.7279 33.035 75.0816 33.21 74.3302 33.21ZM83.2974 33C82.8727 33.0887 82.4527 33.1237 82.0374 33.105C81.6267 33.0863 81.2581 32.9977 80.9314 32.839C80.6094 32.6803 80.3644 32.433 80.1964 32.097C80.0611 31.817 79.9864 31.5347 79.9724 31.25C79.9631 30.9607 79.9584 30.6317 79.9584 30.263V23.34H80.9804V30.221C80.9804 30.5383 80.9827 30.8043 80.9874 31.019C80.9967 31.229 81.0457 31.4157 81.1344 31.579C81.3024 31.8917 81.5684 32.0783 81.9324 32.139C82.3011 32.1997 82.7561 32.1857 83.2974 32.097V33ZM78.3414 26.322V25.44H83.2974V26.322H78.3414ZM88.06 33V25.44H88.984V27.26L88.802 27.022C88.886 26.798 88.9957 26.5927 89.131 26.406C89.2663 26.2147 89.4133 26.0583 89.572 25.937C89.768 25.7643 89.9967 25.6337 90.258 25.545C90.5193 25.4517 90.783 25.398 91.049 25.384C91.315 25.3653 91.5577 25.384 91.777 25.44V26.406C91.5017 26.336 91.2007 26.3197 90.874 26.357C90.5473 26.3943 90.2463 26.525 89.971 26.749C89.719 26.945 89.53 27.1807 89.404 27.456C89.278 27.7267 89.194 28.016 89.152 28.324C89.11 28.6273 89.089 28.9283 89.089 29.227V33H88.06ZM96.3604 33.21C95.6091 33.21 94.9674 33.0397 94.4354 32.699C93.9034 32.3583 93.4951 31.887 93.2104 31.285C92.9257 30.683 92.7834 29.9923 92.7834 29.213C92.7834 28.4197 92.9281 27.7243 93.2174 27.127C93.5067 26.5297 93.9174 26.0653 94.4494 25.734C94.9861 25.398 95.6231 25.23 96.3604 25.23C97.1164 25.23 97.7604 25.4003 98.2924 25.741C98.8291 26.077 99.2374 26.546 99.5174 27.148C99.8021 27.7453 99.9444 28.4337 99.9444 29.213C99.9444 30.0063 99.8021 30.704 99.5174 31.306C99.2327 31.9033 98.8221 32.37 98.2854 32.706C97.7487 33.042 97.1071 33.21 96.3604 33.21ZM96.3604 32.223C97.2004 32.223 97.8257 31.9453 98.2364 31.39C98.6471 30.83 98.8524 30.1043 98.8524 29.213C98.8524 28.2983 98.6447 27.5703 98.2294 27.029C97.8187 26.4877 97.1957 26.217 96.3604 26.217C95.7957 26.217 95.3291 26.3453 94.9604 26.602C94.5964 26.854 94.3234 27.2063 94.1414 27.659C93.9641 28.107 93.8754 28.625 93.8754 29.213C93.8754 30.123 94.0854 30.8533 94.5054 31.404C94.9254 31.95 95.5437 32.223 96.3604 32.223ZM101.864 33V22.71H102.893V33H101.864ZM108.426 33.21C107.688 33.21 107.049 33.0467 106.508 32.72C105.971 32.3933 105.553 31.9337 105.255 31.341C104.956 30.7483 104.807 30.053 104.807 29.255C104.807 28.429 104.954 27.715 105.248 27.113C105.542 26.511 105.955 26.0467 106.487 25.72C107.023 25.3933 107.656 25.23 108.384 25.23C109.13 25.23 109.767 25.4027 110.295 25.748C110.822 26.0887 111.221 26.5787 111.492 27.218C111.762 27.8573 111.886 28.6203 111.863 29.507H110.813V29.143C110.794 28.163 110.582 27.4233 110.176 26.924C109.774 26.4247 109.186 26.175 108.412 26.175C107.6 26.175 106.977 26.4387 106.543 26.966C106.113 27.4933 105.899 28.2447 105.899 29.22C105.899 30.172 106.113 30.9117 106.543 31.439C106.977 31.9617 107.59 32.223 108.384 32.223C108.925 32.223 109.396 32.0993 109.798 31.852C110.204 31.6 110.523 31.2383 110.757 30.767L111.716 31.138C111.417 31.796 110.976 32.307 110.393 32.671C109.814 33.0303 109.158 33.21 108.426 33.21ZM105.535 29.507V28.646H111.31V29.507H105.535Z" fill="#616161"></path> <g filter="url(#filter3_dd_8968_56449)"> <rect x="43" y="88" width="234" height="236" rx="8" fill="white"></rect> </g> <rect x="59" y="108" width="16" height="16" rx="8" fill="#E0E0E0"></rect> <rect x="87" y="108" width="128" height="16" rx="4" fill="#E6E6E6" fill-opacity="0.5"></rect> <rect x="59" y="144" width="16" height="16" rx="8" fill="#E0E0E0"></rect> <rect x="87" y="144" width="96" height="16" rx="4" fill="#E6E6E6" fill-opacity="0.5"></rect> <rect x="59" y="180" width="16" height="16" rx="8" fill="#E0E0E0"></rect> <rect x="87" y="180" width="115" height="16" rx="4" fill="#E6E6E6" fill-opacity="0.5"></rect> </g> <rect x="0.75" y="0.75" width="318.5" height="190.5" rx="19.25" stroke="#F7F7F7" stroke-width="1.5"></rect> <defs> <filter id="filter0_ii_8968_56449" x="40" y="40" width="240" height="51" filterUnits="userSpaceOnUse" color-interpolation-filters="sRGB"> <feFlood flood-opacity="0" result="BackgroundImageFix"></feFlood> <feBlend mode="normal" in="SourceGraphic" in2="BackgroundImageFix" result="shape"></feBlend> <feColorMatrix in="SourceAlpha" type="matrix" values="0 0 0 0 0 0 0 0 0 0 0 0 0 0 0 0 0 0 127 0" result="hardAlpha"></feColorMatrix> <feOffset dy="3"></feOffset> <feGaussianBlur stdDeviation="3"></feGaussianBlur> <feComposite in2="hardAlpha" operator="arithmetic" k2="-1" k3="1"></feComposite> <feColorMatrix type="matrix" values="0 0 0 0 0 0 0 0 0 0 0 0 0 0 0 0 0 0 0.06 0"></feColorMatrix> <feBlend mode="normal" in2="shape" result="effect1_innerShadow_8968_56449"></feBlend> <feColorMatrix in="SourceAlpha" type="matrix" values="0 0 0 0 0 0 0 0 0 0 0 0 0 0 0 0 0 0 127 0" result="hardAlpha"></feColorMatrix> <feOffset dy="1"></feOffset> <feGaussianBlur stdDeviation="1"></feGaussianBlur> <feComposite in2="hardAlpha" operator="arithmetic" k2="-1" k3="1"></feComposite> <feColorMatrix type="matrix" values="0 0 0 0 0 0 0 0 0 0 0 0 0 0 0 0 0 0 0.12 0"></feColorMatrix> <feBlend mode="normal" in2="effect1_innerShadow_8968_56449" result="effect2_innerShadow_8968_56449"></feBlend> </filter> <filter id="filter1_d_8968_56449" x="51.54" y="57.279" width="149.185" height="19.811" filterUnits="userSpaceOnUse" color-interpolation-filters="sRGB"> <feFlood flood-opacity="0" result="BackgroundImageFix"></feFlood> <feColorMatrix in="SourceAlpha" type="matrix" values="0 0 0 0 0 0 0 0 0 0 0 0 0 0 0 0 0 0 127 0" result="hardAlpha"></feColorMatrix> <feOffset dy="1"></feOffset> <feGaussianBlur stdDeviation="0.5"></feGaussianBlur> <feComposite in2="hardAlpha" operator="out"></feComposite> <feColorMatrix type="matrix" values="0 0 0 0 1 0 0 0 0 1 0 0 0 0 1 0 0 0 1 0"></feColorMatrix> <feBlend mode="normal" in2="BackgroundImageFix" result="effect1_dropShadow_8968_56449"></feBlend> <feBlend mode="normal" in="SourceGraphic" in2="effect1_dropShadow_8968_56449" result="shape"></feBlend> </filter> <filter id="filter2_dd_8968_56449" x="235.316" y="52.531" width="43.3672" height="39.219" filterUnits="userSpaceOnUse" color-interpolation-filters="sRGB"> <feFlood flood-opacity="0" result="BackgroundImageFix"></feFlood> <feColorMatrix in="SourceAlpha" type="matrix" values="0 0 0 0 0 0 0 0 0 0 0 0 0 0 0 0 0 0 127 0" result="hardAlpha"></feColorMatrix> <feOffset dy="8"></feOffset> <feGaussianBlur stdDeviation="8"></feGaussianBlur> <feColorMatrix type="matrix" values="0 0 0 0 0.380392 0 0 0 0 0.380392 0 0 0 0 0.380392 0 0 0 0.14 0"></feColorMatrix> <feBlend mode="multiply" in2="BackgroundImageFix" result="effect1_dropShadow_8968_56449"></feBlend> <feColorMatrix in="SourceAlpha" type="matrix" values="0 0 0 0 0 0 0 0 0 0 0 0 0 0 0 0 0 0 127 0" result="hardAlpha"></feColorMatrix> <feOffset dy="4"></feOffset> <feGaussianBlur stdDeviation="4"></feGaussianBlur> <feColorMatrix type="matrix" values="0 0 0 0 0.380392 0 0 0 0 0.380392 0 0 0 0 0.380392 0 0 0 0.14 0"></feColorMatrix> <feBlend mode="multiply" in2="effect1_dropShadow_8968_56449" result="effect2_dropShadow_8968_56449"></feBlend> <feBlend mode="normal" in="SourceGraphic" in2="effect2_dropShadow_8968_56449" result="shape"></feBlend> </filter> <filter id="filter3_dd_8968_56449" x="27" y="80" width="266" height="268" filterUnits="userSpaceOnUse" color-interpolation-filters="sRGB"> <feFlood flood-opacity="0" result="BackgroundImageFix"></feFlood> <feColorMatrix in="SourceAlpha" type="matrix" values="0 0 0 0 0 0 0 0 0 0 0 0 0 0 0 0 0 0 127 0" result="hardAlpha"></feColorMatrix> <feOffset dy="8"></feOffset> <feGaussianBlur stdDeviation="8"></feGaussianBlur> <feColorMatrix type="matrix" values="0 0 0 0 0.380392 0 0 0 0 0.380392 0 0 0 0 0.380392 0 0 0 0.14 0"></feColorMatrix> <feBlend mode="multiply" in2="BackgroundImageFix" result="effect1_dropShadow_8968_56449"></feBlend> <feColorMatrix in="SourceAlpha" type="matrix" values="0 0 0 0 0 0 0 0 0 0 0 0 0 0 0 0 0 0 127 0" result="hardAlpha"></feColorMatrix> <feOffset dy="4"></feOffset> <feGaussianBlur stdDeviation="4"></feGaussianBlur> <feColorMatrix type="matrix" values="0 0 0 0 0.380392 0 0 0 0 0.380392 0 0 0 0 0.380392 0 0 0 0.14 0"></feColorMatrix> <feBlend mode="multiply" in2="effect1_dropShadow_8968_56449" result="effect2_dropShadow_8968_56449"></feBlend> <feBlend mode="normal" in="SourceGraphic" in2="effect2_dropShadow_8968_56449" result="shape"></feBlend> </filter> <linearGradient id="paint0_linear_8968_56449" x1="160" y1="0" x2="160" y2="192" gradientUnits="userSpaceOnUse"> <stop stop-color="white"></stop> <stop offset="0.8125" stop-color="#FAF9FA"></stop> </linearGradient> <linearGradient id="paint1_linear_8968_56449" x1="160" y1="40" x2="160" y2="88" gradientUnits="userSpaceOnUse"> <stop stop-color="#F5F5F5"></stop> <stop offset="1" stop-color="white"></stop> </linearGradient> <linearGradient id="paint2_linear_8968_56449" x1="160" y1="40" x2="160" y2="88" gradientUnits="userSpaceOnUse"> <stop stop-color="#EEEEEE" stop-opacity="0"></stop> <stop offset="1" stop-color="#F1F0F4"></stop> </linearGradient> <clipPath id="clip0_8968_56449"> <rect width="320" height="192" rx="20" fill="white"></rect> </clipPath> <clipPath id="clip1_8968_56449"> <rect width="30" height="30" fill="white" transform="translate(272 79) rotate(180)"></rect> </clipPath> </defs> </svg> 