<?xml version="1.0" encoding="UTF-8"?> <svg xmlns="http://www.w3.org/2000/svg" width="304" height="120" viewBox="0 0 304 120" fill="none"> <rect x="0.75" y="0.75" width="302.5" height="118.5" rx="19.25" fill="url(#paint0_linear_8966_55417)"></rect> <g filter="url(#filter0_ii_8966_55417)"> <rect x="40" y="40" width="224" height="48" rx="10" fill="url(#paint1_linear_8966_55417)"></rect> </g> <rect x="40.5" y="40.5" width="223" height="47" rx="9.5" stroke="url(#paint2_linear_8966_55417)"></rect> <path d="M62 59H64V64H69V66H62V59Z" fill="#616161"></path> <path fill-rule="evenodd" clip-rule="evenodd" d="M74 64C74 69.5228 69.5228 74 64 74C58.4772 74 54 69.5228 54 64C54 58.4772 58.4772 54 64 54C69.5228 54 74 58.4772 74 64ZM72 64C72 68.4183 68.4183 72 64 72C59.5817 72 56 68.4183 56 64C56 59.5817 59.5817 56 64 56C68.4183 56 72 59.5817 72 64Z" fill="#616161"></path> <g filter="url(#filter1_d_8966_55417)"> <path d="M89.193 70.5V59.907L86.763 61.392V58.998L89.193 57.54H91.407V70.5H89.193ZM96.5715 70.482V68.592L102.116 63.651C102.548 63.267 102.848 62.904 103.016 62.562C103.184 62.22 103.268 61.89 103.268 61.572C103.268 61.14 103.175 60.756 102.989 60.42C102.803 60.078 102.545 59.808 102.215 59.61C101.891 59.412 101.516 59.313 101.09 59.313C100.64 59.313 100.241 59.418 99.8925 59.628C99.5505 59.832 99.2835 60.105 99.0915 60.447C98.8995 60.789 98.8095 61.158 98.8215 61.554H96.5895C96.5895 60.69 96.7815 59.937 97.1655 59.295C97.5555 58.653 98.0895 58.155 98.7675 57.801C99.4515 57.447 100.241 57.27 101.135 57.27C101.963 57.27 102.707 57.456 103.367 57.828C104.027 58.194 104.546 58.704 104.924 59.358C105.302 60.006 105.491 60.753 105.491 61.599C105.491 62.217 105.407 62.736 105.239 63.156C105.071 63.576 104.819 63.963 104.483 64.317C104.153 64.671 103.742 65.064 103.25 65.496L99.3165 68.979L99.1185 68.439H105.491V70.482H96.5715ZM108.909 69.33V67.107H111.132V69.33H108.909ZM108.927 64.173V61.95H111.15V64.173H108.927ZM118.72 70.743C118.072 70.743 117.46 70.617 116.884 70.365C116.308 70.113 115.807 69.756 115.381 69.294C114.961 68.832 114.658 68.286 114.472 67.656L116.569 67.089C116.719 67.605 116.992 68.004 117.388 68.286C117.79 68.562 118.231 68.697 118.711 68.691C119.137 68.691 119.518 68.592 119.854 68.394C120.19 68.196 120.454 67.929 120.646 67.593C120.838 67.251 120.934 66.87 120.934 66.45C120.934 65.808 120.727 65.271 120.313 64.839C119.899 64.407 119.365 64.191 118.711 64.191C118.513 64.191 118.318 64.218 118.126 64.272C117.94 64.326 117.76 64.401 117.586 64.497L116.596 62.787L120.952 59.061L121.141 59.583H114.976V57.54H122.923V59.592L119.422 62.958L119.404 62.319C120.19 62.373 120.859 62.592 121.411 62.976C121.969 63.36 122.395 63.855 122.689 64.461C122.989 65.067 123.139 65.73 123.139 66.45C123.139 67.266 122.938 67.998 122.536 68.646C122.14 69.294 121.606 69.807 120.934 70.185C120.268 70.557 119.53 70.743 118.72 70.743ZM130.455 70.77C129.531 70.77 128.718 70.575 128.016 70.185C127.32 69.789 126.774 69.24 126.378 68.538C125.988 67.836 125.793 67.026 125.793 66.108V61.932C125.793 61.014 125.988 60.204 126.378 59.502C126.774 58.8 127.32 58.254 128.016 57.864C128.718 57.468 129.531 57.27 130.455 57.27C131.373 57.27 132.18 57.468 132.876 57.864C133.578 58.254 134.127 58.8 134.523 59.502C134.919 60.204 135.117 61.014 135.117 61.932V66.108C135.117 67.026 134.919 67.836 134.523 68.538C134.127 69.24 133.578 69.789 132.876 70.185C132.18 70.575 131.373 70.77 130.455 70.77ZM130.455 68.709C130.911 68.709 131.322 68.601 131.688 68.385C132.06 68.163 132.354 67.869 132.57 67.503C132.792 67.131 132.903 66.717 132.903 66.261V61.77C132.903 61.308 132.792 60.894 132.57 60.528C132.354 60.156 132.06 59.862 131.688 59.646C131.322 59.424 130.911 59.313 130.455 59.313C129.993 59.313 129.576 59.424 129.204 59.646C128.838 59.862 128.544 60.156 128.322 60.528C128.106 60.894 127.998 61.308 127.998 61.77V66.261C127.998 66.717 128.106 67.131 128.322 67.503C128.544 67.869 128.838 68.163 129.204 68.385C129.576 68.601 129.993 68.709 130.455 68.709Z" fill="black"></path> <path d="M140.596 70.5L144.934 57.54H147.166L151.504 70.5H149.839L145.78 58.476H146.284L142.261 70.5H140.596ZM142.684 67.467V65.964H149.416V67.467H142.684ZM153.418 70.5V57.54H154.876L159.772 67.863L164.641 57.54H166.117V70.491H164.596V61.059L160.195 70.5H159.34L154.939 61.059V70.5H153.418Z" fill="#A1A1A1"></path> </g> <g clip-path="url(#clip0_8966_55417)"> <g filter="url(#filter2_dd_8966_55417)"> <path d="M241.384 67.2891C241.184 67.5289 240.816 67.5289 240.616 67.2891L235.433 61.0701C235.162 60.7444 235.394 60.25 235.818 60.25L246.182 60.25C246.606 60.25 246.838 60.7444 246.567 61.0701L241.384 67.2891Z" fill="#223189"></path> </g> </g> <rect x="37" y="16" width="95" height="24" rx="4" fill="white"></rect> <path d="M41.98 33V22.92H45.039C45.1463 22.92 45.3283 22.9223 45.585 22.927C45.8463 22.9317 46.096 22.9503 46.334 22.983C47.0993 23.0903 47.7387 23.375 48.252 23.837C48.7653 24.299 49.1503 24.887 49.407 25.601C49.6637 26.315 49.792 27.1013 49.792 27.96C49.792 28.8187 49.6637 29.605 49.407 30.319C49.1503 31.033 48.7653 31.621 48.252 32.083C47.7387 32.545 47.0993 32.8297 46.334 32.937C46.1007 32.965 45.851 32.9837 45.585 32.993C45.319 32.9977 45.137 33 45.039 33H41.98ZM43.044 32.013H45.039C45.2303 32.013 45.4357 32.0083 45.655 31.999C45.879 31.985 46.0703 31.9617 46.229 31.929C46.817 31.8263 47.2907 31.5883 47.65 31.215C48.014 30.8417 48.28 30.375 48.448 29.815C48.616 29.2503 48.7 28.632 48.7 27.96C48.7 27.2833 48.616 26.6627 48.448 26.098C48.28 25.5333 48.014 25.0667 47.65 24.698C47.286 24.3293 46.8123 24.0937 46.229 23.991C46.0703 23.9583 45.8767 23.9373 45.648 23.928C45.424 23.914 45.221 23.907 45.039 23.907H43.044V32.013ZM54.8204 33.21C54.0831 33.21 53.4438 33.0467 52.9025 32.72C52.3658 32.3933 51.9481 31.9337 51.6494 31.341C51.3508 30.7483 51.2014 30.053 51.2014 29.255C51.2014 28.429 51.3484 27.715 51.6424 27.113C51.9365 26.511 52.3495 26.0467 52.8815 25.72C53.4181 25.3933 54.0505 25.23 54.7785 25.23C55.5251 25.23 56.1621 25.4027 56.6895 25.748C57.2168 26.0887 57.6158 26.5787 57.8865 27.218C58.1571 27.8573 58.2808 28.6203 58.2575 29.507H57.2075V29.143C57.1888 28.163 56.9765 27.4233 56.5705 26.924C56.1691 26.4247 55.5811 26.175 54.8065 26.175C53.9945 26.175 53.3715 26.4387 52.9374 26.966C52.5081 27.4933 52.2935 28.2447 52.2935 29.22C52.2935 30.172 52.5081 30.9117 52.9374 31.439C53.3715 31.9617 53.9851 32.223 54.7785 32.223C55.3198 32.223 55.7911 32.0993 56.1925 31.852C56.5985 31.6 56.9181 31.2383 57.1515 30.767L58.1105 31.138C57.8118 31.796 57.3708 32.307 56.7875 32.671C56.2088 33.0303 55.5531 33.21 54.8204 33.21ZM51.9295 29.507V28.646H57.7045V29.507H51.9295ZM60.1861 33V22.71H61.2151V33H60.1861ZM63.6889 24.005V22.85H64.7179V24.005H63.6889ZM63.6889 33V25.44H64.7179V33H63.6889ZM69.0957 33L66.3517 25.44H67.3947L69.6277 31.656L71.8467 25.44H72.9037L70.1597 33H69.0957ZM77.3218 33.21C76.5845 33.21 75.9451 33.0467 75.4038 32.72C74.8671 32.3933 74.4495 31.9337 74.1508 31.341C73.8521 30.7483 73.7028 30.053 73.7028 29.255C73.7028 28.429 73.8498 27.715 74.1438 27.113C74.4378 26.511 74.8508 26.0467 75.3828 25.72C75.9195 25.3933 76.5518 25.23 77.2798 25.23C78.0265 25.23 78.6635 25.4027 79.1908 25.748C79.7181 26.0887 80.1171 26.5787 80.3878 27.218C80.6585 27.8573 80.7821 28.6203 80.7588 29.507H79.7088V29.143C79.6901 28.163 79.4778 27.4233 79.0718 26.924C78.6705 26.4247 78.0825 26.175 77.3078 26.175C76.4958 26.175 75.8728 26.4387 75.4388 26.966C75.0095 27.4933 74.7948 28.2447 74.7948 29.22C74.7948 30.172 75.0095 30.9117 75.4388 31.439C75.8728 31.9617 76.4865 32.223 77.2798 32.223C77.8211 32.223 78.2925 32.0993 78.6938 31.852C79.0998 31.6 79.4195 31.2383 79.6528 30.767L80.6118 31.138C80.3131 31.796 79.8721 32.307 79.2888 32.671C78.7101 33.0303 78.0545 33.21 77.3218 33.21ZM74.4308 29.507V28.646H80.2058V29.507H74.4308ZM82.5475 33V25.44H83.4715V27.26L83.2895 27.022C83.3735 26.798 83.4831 26.5927 83.6185 26.406C83.7538 26.2147 83.9008 26.0583 84.0595 25.937C84.2555 25.7643 84.4841 25.6337 84.7455 25.545C85.0068 25.4517 85.2705 25.398 85.5365 25.384C85.8025 25.3653 86.0451 25.384 86.2645 25.44V26.406C85.9891 26.336 85.6881 26.3197 85.3615 26.357C85.0348 26.3943 84.7338 26.525 84.4585 26.749C84.2065 26.945 84.0175 27.1807 83.8915 27.456C83.7655 27.7267 83.6815 28.016 83.6395 28.324C83.5975 28.6273 83.5765 28.9283 83.5765 29.227V33H82.5475ZM88.8099 36.36L90.2729 32.391L90.2939 33.567L86.9829 25.44H88.0749L90.7909 32.237H90.3429L92.8489 25.44H93.8989L89.8389 36.36H88.8099ZM102.504 33C102.079 33.0887 101.659 33.1237 101.244 33.105C100.833 33.0863 100.464 32.9977 100.138 32.839C99.8158 32.6803 99.5708 32.433 99.4028 32.097C99.2675 31.817 99.1928 31.5347 99.1788 31.25C99.1695 30.9607 99.1648 30.6317 99.1648 30.263V23.34H100.187V30.221C100.187 30.5383 100.189 30.8043 100.194 31.019C100.203 31.229 100.252 31.4157 100.341 31.579C100.509 31.8917 100.775 32.0783 101.139 32.139C101.507 32.1997 101.962 32.1857 102.504 32.097V33ZM97.5478 26.322V25.44H102.504V26.322H97.5478ZM104.368 24.005V22.85H105.397V24.005H104.368ZM104.368 33V25.44H105.397V33H104.368ZM116.747 33L116.754 28.037C116.754 27.4537 116.591 26.9963 116.264 26.665C115.942 26.329 115.532 26.161 115.032 26.161C114.748 26.161 114.47 26.2263 114.199 26.357C113.929 26.4877 113.705 26.6977 113.527 26.987C113.355 27.2763 113.268 27.6543 113.268 28.121L112.659 27.946C112.645 27.4047 112.75 26.931 112.974 26.525C113.203 26.119 113.516 25.804 113.912 25.58C114.314 25.3513 114.766 25.237 115.27 25.237C116.031 25.237 116.64 25.4727 117.097 25.944C117.555 26.4107 117.783 27.043 117.783 27.841L117.776 33H116.747ZM107.724 33V25.44H108.648V27.302H108.76V33H107.724ZM112.246 33L112.253 28.107C112.253 27.505 112.092 27.0313 111.77 26.686C111.453 26.336 111.033 26.161 110.51 26.161C109.988 26.161 109.565 26.3407 109.243 26.7C108.921 27.0547 108.76 27.5283 108.76 28.121L108.144 27.785C108.144 27.2997 108.259 26.8657 108.487 26.483C108.716 26.0957 109.029 25.7923 109.425 25.573C109.822 25.349 110.272 25.237 110.776 25.237C111.257 25.237 111.684 25.3397 112.057 25.545C112.435 25.7503 112.732 26.049 112.946 26.441C113.161 26.833 113.268 27.309 113.268 27.869L113.261 33H112.246ZM122.992 33.21C122.254 33.21 121.615 33.0467 121.074 32.72C120.537 32.3933 120.119 31.9337 119.821 31.341C119.522 30.7483 119.373 30.053 119.373 29.255C119.373 28.429 119.52 27.715 119.814 27.113C120.108 26.511 120.521 26.0467 121.053 25.72C121.589 25.3933 122.222 25.23 122.95 25.23C123.696 25.23 124.333 25.4027 124.861 25.748C125.388 26.0887 125.787 26.5787 126.058 27.218C126.328 27.8573 126.452 28.6203 126.429 29.507H125.379V29.143C125.36 28.163 125.148 27.4233 124.742 26.924C124.34 26.4247 123.752 26.175 122.978 26.175C122.166 26.175 121.543 26.4387 121.109 26.966C120.679 27.4933 120.465 28.2447 120.465 29.22C120.465 30.172 120.679 30.9117 121.109 31.439C121.543 31.9617 122.156 32.223 122.95 32.223C123.491 32.223 123.962 32.0993 124.364 31.852C124.77 31.6 125.089 31.2383 125.323 30.767L126.282 31.138C125.983 31.796 125.542 32.307 124.959 32.671C124.38 33.0303 123.724 33.21 122.992 33.21ZM120.101 29.507V28.646H125.876V29.507H120.101Z" fill="#616161"></path> <rect x="0.75" y="0.75" width="302.5" height="118.5" rx="19.25" stroke="#F7F7F7" stroke-width="1.5"></rect> <defs> <filter id="filter0_ii_8966_55417" x="40" y="40" width="224" height="51" filterUnits="userSpaceOnUse" color-interpolation-filters="sRGB"> <feFlood flood-opacity="0" result="BackgroundImageFix"></feFlood> <feBlend mode="normal" in="SourceGraphic" in2="BackgroundImageFix" result="shape"></feBlend> <feColorMatrix in="SourceAlpha" type="matrix" values="0 0 0 0 0 0 0 0 0 0 0 0 0 0 0 0 0 0 127 0" result="hardAlpha"></feColorMatrix> <feOffset dy="3"></feOffset> <feGaussianBlur stdDeviation="3"></feGaussianBlur> <feComposite in2="hardAlpha" operator="arithmetic" k2="-1" k3="1"></feComposite> <feColorMatrix type="matrix" values="0 0 0 0 0 0 0 0 0 0 0 0 0 0 0 0 0 0 0.06 0"></feColorMatrix> <feBlend mode="normal" in2="shape" result="effect1_innerShadow_8966_55417"></feBlend> <feColorMatrix in="SourceAlpha" type="matrix" values="0 0 0 0 0 0 0 0 0 0 0 0 0 0 0 0 0 0 127 0" result="hardAlpha"></feColorMatrix> <feOffset dy="1"></feOffset> <feGaussianBlur stdDeviation="1"></feGaussianBlur> <feComposite in2="hardAlpha" operator="arithmetic" k2="-1" k3="1"></feComposite> <feColorMatrix type="matrix" values="0 0 0 0 0 0 0 0 0 0 0 0 0 0 0 0 0 0 0.12 0"></feColorMatrix> <feBlend mode="normal" in2="effect1_innerShadow_8966_55417" result="effect2_innerShadow_8966_55417"></feBlend> </filter> <filter id="filter1_d_8966_55417" x="85.7627" y="57.27" width="81.3545" height="15.5" filterUnits="userSpaceOnUse" color-interpolation-filters="sRGB"> <feFlood flood-opacity="0" result="BackgroundImageFix"></feFlood> <feColorMatrix in="SourceAlpha" type="matrix" values="0 0 0 0 0 0 0 0 0 0 0 0 0 0 0 0 0 0 127 0" result="hardAlpha"></feColorMatrix> <feOffset dy="1"></feOffset> <feGaussianBlur stdDeviation="0.5"></feGaussianBlur> <feComposite in2="hardAlpha" operator="out"></feComposite> <feColorMatrix type="matrix" values="0 0 0 0 1 0 0 0 0 1 0 0 0 0 1 0 0 0 1 0"></feColorMatrix> <feBlend mode="normal" in2="BackgroundImageFix" result="effect1_dropShadow_8966_55417"></feBlend> <feBlend mode="normal" in="SourceGraphic" in2="effect1_dropShadow_8966_55417" result="shape"></feBlend> </filter> <filter id="filter2_dd_8966_55417" x="219.316" y="52.25" width="43.3672" height="39.219" filterUnits="userSpaceOnUse" color-interpolation-filters="sRGB"> <feFlood flood-opacity="0" result="BackgroundImageFix"></feFlood> <feColorMatrix in="SourceAlpha" type="matrix" values="0 0 0 0 0 0 0 0 0 0 0 0 0 0 0 0 0 0 127 0" result="hardAlpha"></feColorMatrix> <feOffset dy="8"></feOffset> <feGaussianBlur stdDeviation="8"></feGaussianBlur> <feColorMatrix type="matrix" values="0 0 0 0 0.380392 0 0 0 0 0.380392 0 0 0 0 0.380392 0 0 0 0.14 0"></feColorMatrix> <feBlend mode="multiply" in2="BackgroundImageFix" result="effect1_dropShadow_8966_55417"></feBlend> <feColorMatrix in="SourceAlpha" type="matrix" values="0 0 0 0 0 0 0 0 0 0 0 0 0 0 0 0 0 0 127 0" result="hardAlpha"></feColorMatrix> <feOffset dy="4"></feOffset> <feGaussianBlur stdDeviation="4"></feGaussianBlur> <feColorMatrix type="matrix" values="0 0 0 0 0.380392 0 0 0 0 0.380392 0 0 0 0 0.380392 0 0 0 0.14 0"></feColorMatrix> <feBlend mode="multiply" in2="effect1_dropShadow_8966_55417" result="effect2_dropShadow_8966_55417"></feBlend> <feBlend mode="normal" in="SourceGraphic" in2="effect2_dropShadow_8966_55417" result="shape"></feBlend> </filter> <linearGradient id="paint0_linear_8966_55417" x1="152" y1="0" x2="152" y2="120" gradientUnits="userSpaceOnUse"> <stop stop-color="white"></stop> <stop offset="0.8125" stop-color="#FAF9FA"></stop> </linearGradient> <linearGradient id="paint1_linear_8966_55417" x1="152" y1="40" x2="152" y2="88" gradientUnits="userSpaceOnUse"> <stop stop-color="#F5F5F5"></stop> <stop offset="1" stop-color="white"></stop> </linearGradient> <linearGradient id="paint2_linear_8966_55417" x1="152" y1="40" x2="152" y2="88" gradientUnits="userSpaceOnUse"> <stop stop-color="#EEEEEE" stop-opacity="0"></stop> <stop offset="1" stop-color="#F1F0F4"></stop> </linearGradient> <clipPath id="clip0_8966_55417"> <rect width="30" height="30" fill="white" transform="translate(226 49)"></rect> </clipPath> </defs> </svg> 