<?xml version="1.0" encoding="UTF-8"?> <svg xmlns="http://www.w3.org/2000/svg" width="312" height="94" viewBox="0 0 312 94" fill="none"> <rect x="0.75" y="30.75" width="310.5" height="46.5" rx="7.25" fill="url(#paint0_linear_8957_55094)" stroke="#C0C0C0" stroke-width="1.5"></rect> <path d="M16.848 60.24C16.256 60.24 15.704 60.1173 15.192 59.872C14.6853 59.6267 14.2507 59.2907 13.888 58.864C13.5307 58.432 13.2747 57.936 13.12 57.376L14.488 57.008C14.584 57.3867 14.7547 57.7147 15 57.992C15.2453 58.264 15.5307 58.4773 15.856 58.632C16.1867 58.7813 16.5307 58.856 16.888 58.856C17.3573 58.856 17.7787 58.744 18.152 58.52C18.5307 58.2907 18.8293 57.9893 19.048 57.616C19.2667 57.2373 19.376 56.824 19.376 56.376C19.376 55.912 19.2613 55.4933 19.032 55.12C18.808 54.7413 18.5067 54.4427 18.128 54.224C17.7493 54.0053 17.336 53.896 16.888 53.896C16.3813 53.896 15.9467 54.0027 15.584 54.216C15.2267 54.424 14.944 54.68 14.736 54.984L13.472 54.504L13.824 48.48H20.008V49.832H14.512L15.144 49.24L14.848 54.064L14.536 53.656C14.856 53.3147 15.2373 53.0507 15.68 52.864C16.128 52.6773 16.584 52.584 17.048 52.584C17.7627 52.584 18.4027 52.752 18.968 53.088C19.5333 53.4187 19.9813 53.872 20.312 54.448C20.6427 55.0187 20.808 55.6613 20.808 56.376C20.808 57.0853 20.6267 57.7333 20.264 58.32C19.9013 58.9013 19.4187 59.368 18.816 59.72C18.2187 60.0667 17.5627 60.24 16.848 60.24ZM28.5987 60V57.88H23.3027V56.528L27.1027 48.48H28.7187L24.9187 56.528H28.5987V53.288H30.0387V56.528H31.2387V57.88H30.0387V60H28.5987ZM36.9733 60V48.48H41.4613C42.1493 48.48 42.7359 48.6213 43.2213 48.904C43.7119 49.1867 44.0853 49.56 44.3413 50.024C44.6026 50.4827 44.7333 50.9787 44.7333 51.512C44.7333 52.136 44.5733 52.6827 44.2533 53.152C43.9333 53.6213 43.5013 53.944 42.9573 54.12L42.9413 53.728C43.6826 53.9253 44.2586 54.288 44.6693 54.816C45.0799 55.344 45.2853 55.9733 45.2853 56.704C45.2853 57.376 45.1466 57.9573 44.8693 58.448C44.5973 58.9387 44.2026 59.32 43.6853 59.592C43.1733 59.864 42.5653 60 41.8613 60H36.9733ZM38.4133 58.64H41.5893C42.0159 58.64 42.3973 58.5627 42.7333 58.408C43.0693 58.248 43.3333 58.024 43.5253 57.736C43.7226 57.448 43.8213 57.1013 43.8213 56.696C43.8213 56.3067 43.7333 55.9573 43.5573 55.648C43.3866 55.3387 43.1439 55.0933 42.8293 54.912C42.5199 54.7253 42.1599 54.632 41.7493 54.632H38.4133V58.64ZM38.4133 53.288H41.4453C41.7866 53.288 42.0933 53.216 42.3653 53.072C42.6426 52.9227 42.8613 52.7147 43.0213 52.448C43.1866 52.1813 43.2693 51.8693 43.2693 51.512C43.2693 51.016 43.1013 50.6107 42.7653 50.296C42.4293 49.9813 41.9893 49.824 41.4453 49.824H38.4133V53.288ZM50.8283 60.24C49.9697 60.24 49.2283 60.0453 48.6043 59.656C47.9857 59.2667 47.5083 58.728 47.1723 58.04C46.8363 57.352 46.6683 56.5627 46.6683 55.672C46.6683 54.7653 46.839 53.9707 47.1803 53.288C47.5217 52.6053 48.0043 52.0747 48.6283 51.696C49.2523 51.312 49.9857 51.12 50.8283 51.12C51.6923 51.12 52.4363 51.3147 53.0603 51.704C53.6843 52.088 54.1617 52.624 54.4923 53.312C54.8283 53.9947 54.9963 54.7813 54.9963 55.672C54.9963 56.5733 54.8283 57.368 54.4923 58.056C54.1563 58.7387 53.6763 59.2747 53.0523 59.664C52.4283 60.048 51.687 60.24 50.8283 60.24ZM50.8283 58.888C51.7243 58.888 52.391 58.5893 52.8283 57.992C53.2657 57.3947 53.4843 56.6213 53.4843 55.672C53.4843 54.696 53.263 53.92 52.8203 53.344C52.3777 52.7627 51.7137 52.472 50.8283 52.472C50.2257 52.472 49.7297 52.608 49.3403 52.88C48.951 53.152 48.6603 53.528 48.4683 54.008C48.2763 54.488 48.1803 55.0427 48.1803 55.672C48.1803 56.6427 48.4043 57.4213 48.8523 58.008C49.3003 58.5947 49.959 58.888 50.8283 58.888ZM63.1785 60V55.672C63.1785 55.2613 63.1412 54.8667 63.0665 54.488C62.9972 54.1093 62.8718 53.7707 62.6905 53.472C62.5145 53.168 62.2745 52.928 61.9705 52.752C61.6718 52.576 61.2932 52.488 60.8345 52.488C60.4772 52.488 60.1518 52.5493 59.8585 52.672C59.5705 52.7893 59.3225 52.9707 59.1145 53.216C58.9065 53.4613 58.7438 53.7707 58.6265 54.144C58.5145 54.512 58.4585 54.9467 58.4585 55.448L57.5225 55.16C57.5225 54.3227 57.6718 53.6053 57.9705 53.008C58.2745 52.4053 58.6985 51.944 59.2425 51.624C59.7918 51.2987 60.4372 51.136 61.1785 51.136C61.7385 51.136 62.2158 51.224 62.6105 51.4C63.0052 51.576 63.3332 51.8107 63.5945 52.104C63.8558 52.392 64.0612 52.7173 64.2105 53.08C64.3598 53.4373 64.4638 53.8027 64.5225 54.176C64.5865 54.544 64.6185 54.8933 64.6185 55.224V60H63.1785ZM57.0185 60V51.36H58.2985V53.672H58.4585V60H57.0185ZM69.4232 60.24C68.7778 60.24 68.2365 60.1227 67.7992 59.888C67.3672 59.648 67.0392 59.3333 66.8152 58.944C66.5965 58.5547 66.4872 58.128 66.4872 57.664C66.4872 57.2107 66.5725 56.8187 66.7432 56.488C66.9192 56.152 67.1645 55.8747 67.4792 55.656C67.7938 55.432 68.1698 55.256 68.6072 55.128C69.0178 55.016 69.4765 54.92 69.9832 54.84C70.4952 54.7547 71.0125 54.6773 71.5352 54.608C72.0578 54.5387 72.5458 54.472 72.9992 54.408L72.4872 54.704C72.5032 53.936 72.3485 53.368 72.0232 53C71.7032 52.632 71.1485 52.448 70.3592 52.448C69.8365 52.448 69.3778 52.568 68.9832 52.808C68.5938 53.0427 68.3192 53.4267 68.1592 53.96L66.8072 53.552C67.0152 52.7947 67.4178 52.2 68.0152 51.768C68.6125 51.336 69.3992 51.12 70.3752 51.12C71.1592 51.12 71.8312 51.2613 72.3912 51.544C72.9565 51.8213 73.3618 52.2427 73.6072 52.808C73.7298 53.0747 73.8072 53.3653 73.8392 53.68C73.8712 53.9893 73.8872 54.3147 73.8872 54.656V60H72.6232V57.928L72.9192 58.12C72.5938 58.8187 72.1378 59.3467 71.5512 59.704C70.9698 60.0613 70.2605 60.24 69.4232 60.24ZM69.6392 59.048C70.1512 59.048 70.5938 58.9573 70.9672 58.776C71.3458 58.5893 71.6498 58.3467 71.8792 58.048C72.1085 57.744 72.2578 57.4133 72.3272 57.056C72.4072 56.7893 72.4498 56.4933 72.4552 56.168C72.4658 55.8373 72.4712 55.584 72.4712 55.408L72.9672 55.624C72.5032 55.688 72.0472 55.7493 71.5992 55.808C71.1512 55.8667 70.7272 55.9307 70.3272 56C69.9272 56.064 69.5672 56.1413 69.2472 56.232C69.0125 56.3067 68.7912 56.4027 68.5832 56.52C68.3805 56.6373 68.2152 56.7893 68.0872 56.976C67.9645 57.1573 67.9032 57.384 67.9032 57.656C67.9032 57.8907 67.9618 58.1147 68.0792 58.328C68.2018 58.5413 68.3885 58.7147 68.6392 58.848C68.8952 58.9813 69.2285 59.048 69.6392 59.048ZM76.396 49.832V48.36H77.82V49.832H76.396ZM76.396 60V51.36H77.82V60H76.396ZM80.4891 60V51.36H81.7611V53.448L81.5531 53.176C81.6545 52.9093 81.7851 52.664 81.9451 52.44C82.1105 52.216 82.2945 52.032 82.4971 51.888C82.7211 51.7067 82.9745 51.568 83.2571 51.472C83.5398 51.376 83.8278 51.32 84.1211 51.304C84.4145 51.2827 84.6891 51.3013 84.9451 51.36V52.696C84.6465 52.616 84.3185 52.5947 83.9611 52.632C83.6038 52.6693 83.2731 52.8 82.9691 53.024C82.6918 53.2213 82.4758 53.4613 82.3211 53.744C82.1718 54.0267 82.0678 54.3333 82.0091 54.664C81.9505 54.9893 81.9211 55.3227 81.9211 55.664V60H80.4891ZM94.2866 60.24C93.4706 60.24 92.7346 60.1013 92.0786 59.824C91.428 59.5467 90.8893 59.152 90.4626 58.64C90.0413 58.1227 89.7666 57.512 89.6386 56.808L91.1106 56.576C91.2973 57.3013 91.684 57.8693 92.2706 58.28C92.8626 58.6853 93.5586 58.888 94.3586 58.888C94.876 58.888 95.3426 58.808 95.7586 58.648C96.18 58.4827 96.5133 58.248 96.7586 57.944C97.004 57.64 97.1266 57.28 97.1266 56.864C97.1266 56.608 97.0813 56.3893 96.9906 56.208C96.9053 56.0213 96.7853 55.864 96.6306 55.736C96.4813 55.6027 96.3106 55.4907 96.1186 55.4C95.9266 55.3093 95.7266 55.2347 95.5186 55.176L92.5826 54.304C92.2626 54.208 91.9533 54.088 91.6546 53.944C91.356 53.7947 91.0893 53.6107 90.8546 53.392C90.62 53.168 90.4333 52.9013 90.2946 52.592C90.156 52.2773 90.0866 51.9067 90.0866 51.48C90.0866 50.7973 90.2626 50.216 90.6146 49.736C90.972 49.2507 91.4546 48.88 92.0626 48.624C92.6706 48.368 93.356 48.2427 94.1186 48.248C94.892 48.2533 95.5826 48.392 96.1906 48.664C96.804 48.9307 97.3106 49.3147 97.7106 49.816C98.116 50.3173 98.388 50.9173 98.5266 51.616L97.0146 51.88C96.9346 51.4107 96.756 51.008 96.4786 50.672C96.2066 50.3307 95.8653 50.0693 95.4546 49.888C95.044 49.7013 94.5933 49.6053 94.1026 49.6C93.6333 49.5947 93.2093 49.6693 92.8306 49.824C92.452 49.9787 92.1506 50.1947 91.9266 50.472C91.7026 50.744 91.5906 51.0587 91.5906 51.416C91.5906 51.768 91.692 52.0533 91.8946 52.272C92.0973 52.4853 92.3453 52.656 92.6386 52.784C92.9373 52.9067 93.228 53.008 93.5106 53.088L95.7026 53.72C95.9533 53.7893 96.2413 53.8853 96.5666 54.008C96.8973 54.1307 97.2173 54.304 97.5266 54.528C97.836 54.7467 98.092 55.04 98.2946 55.408C98.4973 55.7707 98.5986 56.2293 98.5986 56.784C98.5986 57.3387 98.4866 57.832 98.2626 58.264C98.044 58.696 97.7373 59.0587 97.3426 59.352C96.948 59.64 96.4893 59.8587 95.9666 60.008C95.444 60.1627 94.884 60.24 94.2866 60.24ZM100.706 49.832V48.36H102.13V49.832H100.706ZM100.706 60V51.36H102.13V60H100.706ZM108.191 60.24C107.385 60.24 106.695 60.04 106.119 59.64C105.543 59.2347 105.097 58.688 104.783 58C104.473 57.312 104.319 56.536 104.319 55.672C104.319 54.808 104.473 54.032 104.783 53.344C105.097 52.656 105.543 52.1147 106.119 51.72C106.695 51.32 107.383 51.12 108.183 51.12C108.999 51.12 109.684 51.3173 110.239 51.712C110.793 52.1067 111.212 52.648 111.495 53.336C111.783 54.024 111.927 54.8027 111.927 55.672C111.927 56.5307 111.783 57.3067 111.495 58C111.212 58.688 110.793 59.2347 110.239 59.64C109.684 60.04 109.001 60.24 108.191 60.24ZM108.367 58.936C108.948 58.936 109.425 58.7973 109.799 58.52C110.172 58.2373 110.447 57.8507 110.623 57.36C110.804 56.864 110.895 56.3013 110.895 55.672C110.895 55.032 110.804 54.4693 110.623 53.984C110.447 53.4933 110.175 53.112 109.807 52.84C109.439 52.5627 108.972 52.424 108.407 52.424C107.82 52.424 107.335 52.568 106.951 52.856C106.572 53.144 106.289 53.5333 106.103 54.024C105.921 54.5147 105.831 55.064 105.831 55.672C105.831 56.2853 105.924 56.84 106.111 57.336C106.297 57.8267 106.577 58.216 106.951 58.504C107.329 58.792 107.801 58.936 108.367 58.936ZM110.895 60V53.64H110.735V48.48H112.167V60H110.895ZM114.837 49.832V48.36H116.261V49.832H114.837ZM114.837 60V51.36H116.261V60H114.837ZM125.082 60V55.672C125.082 55.2613 125.045 54.8667 124.97 54.488C124.901 54.1093 124.775 53.7707 124.594 53.472C124.418 53.168 124.178 52.928 123.874 52.752C123.575 52.576 123.197 52.488 122.738 52.488C122.381 52.488 122.055 52.5493 121.762 52.672C121.474 52.7893 121.226 52.9707 121.018 53.216C120.81 53.4613 120.647 53.7707 120.53 54.144C120.418 54.512 120.362 54.9467 120.362 55.448L119.426 55.16C119.426 54.3227 119.575 53.6053 119.874 53.008C120.178 52.4053 120.602 51.944 121.146 51.624C121.695 51.2987 122.341 51.136 123.082 51.136C123.642 51.136 124.119 51.224 124.514 51.4C124.909 51.576 125.237 51.8107 125.498 52.104C125.759 52.392 125.965 52.7173 126.114 53.08C126.263 53.4373 126.367 53.8027 126.426 54.176C126.49 54.544 126.522 54.8933 126.522 55.224V60H125.082ZM118.922 60V51.36H120.202V53.672H120.362V60H118.922ZM132.367 64.08C131.913 64.08 131.471 64.0107 131.039 63.872C130.607 63.7333 130.209 63.5227 129.847 63.24C129.489 62.9627 129.191 62.6107 128.951 62.184L130.255 61.496C130.468 61.9173 130.769 62.224 131.159 62.416C131.553 62.608 131.959 62.704 132.375 62.704C132.924 62.704 133.38 62.6027 133.743 62.4C134.105 62.2027 134.372 61.9067 134.543 61.512C134.719 61.1173 134.804 60.6267 134.799 60.04V57.68H134.967V51.36H136.231V60.056C136.231 60.2907 136.223 60.5173 136.207 60.736C136.196 60.9547 136.169 61.1707 136.127 61.384C136.015 61.9973 135.793 62.5013 135.463 62.896C135.132 63.296 134.705 63.592 134.183 63.784C133.66 63.9813 133.055 64.08 132.367 64.08ZM132.263 60.24C131.457 60.24 130.767 60.04 130.191 59.64C129.615 59.2347 129.169 58.688 128.855 58C128.545 57.312 128.391 56.536 128.391 55.672C128.391 54.808 128.545 54.032 128.855 53.344C129.169 52.656 129.615 52.1147 130.191 51.72C130.767 51.32 131.455 51.12 132.255 51.12C133.071 51.12 133.756 51.3173 134.311 51.712C134.865 52.1067 135.284 52.648 135.567 53.336C135.855 54.024 135.999 54.8027 135.999 55.672C135.999 56.5307 135.855 57.3067 135.567 58C135.284 58.688 134.865 59.2347 134.311 59.64C133.756 60.04 133.073 60.24 132.263 60.24ZM132.439 58.936C133.02 58.936 133.497 58.7973 133.871 58.52C134.244 58.2373 134.519 57.8507 134.695 57.36C134.876 56.864 134.967 56.3013 134.967 55.672C134.967 55.032 134.876 54.4693 134.695 53.984C134.519 53.4933 134.247 53.112 133.879 52.84C133.511 52.5627 133.044 52.424 132.479 52.424C131.892 52.424 131.407 52.568 131.023 52.856C130.644 53.144 130.361 53.5333 130.175 54.024C129.993 54.5147 129.903 55.064 129.903 55.672C129.903 56.2853 129.996 56.84 130.183 57.336C130.369 57.8267 130.649 58.216 131.023 58.504C131.401 58.792 131.873 58.936 132.439 58.936ZM142.205 60V48.48H146.757C146.869 48.48 147.003 48.4853 147.157 48.496C147.312 48.5013 147.461 48.5173 147.605 48.544C148.229 48.64 148.752 48.8533 149.173 49.184C149.6 49.5147 149.92 49.9333 150.133 50.44C150.347 50.9413 150.453 51.4987 150.453 52.112C150.453 53.0027 150.221 53.776 149.757 54.432C149.293 55.0827 148.613 55.4907 147.717 55.656L147.173 55.744H143.629V60H142.205ZM149.061 60L146.789 55.312L148.197 54.88L150.693 60H149.061ZM143.629 54.392H146.709C146.811 54.392 146.925 54.3867 147.053 54.376C147.187 54.3653 147.312 54.3467 147.429 54.32C147.797 54.2347 148.096 54.08 148.325 53.856C148.56 53.6267 148.731 53.36 148.837 53.056C148.944 52.7467 148.997 52.432 148.997 52.112C148.997 51.792 148.944 51.48 148.837 51.176C148.731 50.8667 148.56 50.5973 148.325 50.368C148.096 50.1387 147.797 49.984 147.429 49.904C147.312 49.872 147.187 49.8533 147.053 49.848C146.925 49.8373 146.811 49.832 146.709 49.832H143.629V54.392ZM156.116 60.24C155.311 60.24 154.62 60.04 154.044 59.64C153.468 59.2347 153.023 58.688 152.708 58C152.399 57.312 152.244 56.536 152.244 55.672C152.244 54.808 152.399 54.032 152.708 53.344C153.023 52.656 153.468 52.1147 154.044 51.72C154.62 51.32 155.308 51.12 156.108 51.12C156.924 51.12 157.609 51.3173 158.164 51.712C158.719 52.1067 159.137 52.648 159.42 53.336C159.708 54.024 159.852 54.8027 159.852 55.672C159.852 56.5307 159.708 57.3067 159.42 58C159.137 58.688 158.719 59.2347 158.164 59.64C157.609 60.04 156.927 60.24 156.116 60.24ZM156.292 58.936C156.873 58.936 157.351 58.7973 157.724 58.52C158.097 58.2373 158.372 57.8507 158.548 57.36C158.729 56.864 158.82 56.3013 158.82 55.672C158.82 55.032 158.729 54.4693 158.548 53.984C158.372 53.4933 158.1 53.112 157.732 52.84C157.364 52.5627 156.897 52.424 156.332 52.424C155.745 52.424 155.26 52.568 154.876 52.856C154.497 53.144 154.215 53.5333 154.028 54.024C153.847 54.5147 153.756 55.064 153.756 55.672C153.756 56.2853 153.849 56.84 154.036 57.336C154.223 57.8267 154.503 58.216 154.876 58.504C155.255 58.792 155.727 58.936 156.292 58.936ZM158.82 60V53.64H158.66V48.48H160.092V60H158.82ZM162.442 61.792L162.53 61.128C162.754 61.144 162.922 61.1013 163.034 61C163.146 60.8987 163.218 60.76 163.25 60.584C163.282 60.408 163.288 60.2133 163.266 60H162.442V58.192H164.01V60.24C164.01 60.8 163.872 61.2213 163.594 61.504C163.322 61.7867 162.938 61.8827 162.442 61.792ZM174.884 60.24C174.068 60.24 173.332 60.1013 172.676 59.824C172.025 59.5467 171.487 59.152 171.06 58.64C170.639 58.1227 170.364 57.512 170.236 56.808L171.708 56.576C171.895 57.3013 172.281 57.8693 172.868 58.28C173.46 58.6853 174.156 58.888 174.956 58.888C175.473 58.888 175.94 58.808 176.356 58.648C176.777 58.4827 177.111 58.248 177.356 57.944C177.601 57.64 177.724 57.28 177.724 56.864C177.724 56.608 177.679 56.3893 177.588 56.208C177.503 56.0213 177.383 55.864 177.228 55.736C177.079 55.6027 176.908 55.4907 176.716 55.4C176.524 55.3093 176.324 55.2347 176.116 55.176L173.18 54.304C172.86 54.208 172.551 54.088 172.252 53.944C171.953 53.7947 171.687 53.6107 171.452 53.392C171.217 53.168 171.031 52.9013 170.892 52.592C170.753 52.2773 170.684 51.9067 170.684 51.48C170.684 50.7973 170.86 50.216 171.212 49.736C171.569 49.2507 172.052 48.88 172.66 48.624C173.268 48.368 173.953 48.2427 174.716 48.248C175.489 48.2533 176.18 48.392 176.788 48.664C177.401 48.9307 177.908 49.3147 178.308 49.816C178.713 50.3173 178.985 50.9173 179.124 51.616L177.612 51.88C177.532 51.4107 177.353 51.008 177.076 50.672C176.804 50.3307 176.463 50.0693 176.052 49.888C175.641 49.7013 175.191 49.6053 174.7 49.6C174.231 49.5947 173.807 49.6693 173.428 49.824C173.049 49.9787 172.748 50.1947 172.524 50.472C172.3 50.744 172.188 51.0587 172.188 51.416C172.188 51.768 172.289 52.0533 172.492 52.272C172.695 52.4853 172.943 52.656 173.236 52.784C173.535 52.9067 173.825 53.008 174.108 53.088L176.3 53.72C176.551 53.7893 176.839 53.8853 177.164 54.008C177.495 54.1307 177.815 54.304 178.124 54.528C178.433 54.7467 178.689 55.04 178.892 55.408C179.095 55.7707 179.196 56.2293 179.196 56.784C179.196 57.3387 179.084 57.832 178.86 58.264C178.641 58.696 178.335 59.0587 177.94 59.352C177.545 59.64 177.087 59.8587 176.564 60.008C176.041 60.1627 175.481 60.24 174.884 60.24ZM185.967 60C185.455 60.1013 184.948 60.1413 184.447 60.12C183.951 60.104 183.508 60.0053 183.119 59.824C182.73 59.6373 182.434 59.3493 182.231 58.96C182.06 58.6187 181.967 58.2747 181.951 57.928C181.94 57.576 181.935 57.1787 181.935 56.736V48.96H183.359V56.672C183.359 57.024 183.362 57.3253 183.367 57.576C183.378 57.8267 183.434 58.0427 183.535 58.224C183.727 58.5653 184.031 58.7653 184.447 58.824C184.868 58.8827 185.375 58.8667 185.967 58.776V60ZM180.183 52.536V51.36H185.967V52.536H180.183ZM190.446 60.24C189.801 60.24 189.259 60.1227 188.822 59.888C188.39 59.648 188.062 59.3333 187.838 58.944C187.619 58.5547 187.51 58.128 187.51 57.664C187.51 57.2107 187.595 56.8187 187.766 56.488C187.942 56.152 188.187 55.8747 188.502 55.656C188.817 55.432 189.193 55.256 189.63 55.128C190.041 55.016 190.499 54.92 191.006 54.84C191.518 54.7547 192.035 54.6773 192.558 54.608C193.081 54.5387 193.569 54.472 194.022 54.408L193.51 54.704C193.526 53.936 193.371 53.368 193.046 53C192.726 52.632 192.171 52.448 191.382 52.448C190.859 52.448 190.401 52.568 190.006 52.808C189.617 53.0427 189.342 53.4267 189.182 53.96L187.83 53.552C188.038 52.7947 188.441 52.2 189.038 51.768C189.635 51.336 190.422 51.12 191.398 51.12C192.182 51.12 192.854 51.2613 193.414 51.544C193.979 51.8213 194.385 52.2427 194.63 52.808C194.753 53.0747 194.83 53.3653 194.862 53.68C194.894 53.9893 194.91 54.3147 194.91 54.656V60H193.646V57.928L193.942 58.12C193.617 58.8187 193.161 59.3467 192.574 59.704C191.993 60.0613 191.283 60.24 190.446 60.24ZM190.662 59.048C191.174 59.048 191.617 58.9573 191.99 58.776C192.369 58.5893 192.673 58.3467 192.902 58.048C193.131 57.744 193.281 57.4133 193.35 57.056C193.43 56.7893 193.473 56.4933 193.478 56.168C193.489 55.8373 193.494 55.584 193.494 55.408L193.99 55.624C193.526 55.688 193.07 55.7493 192.622 55.808C192.174 55.8667 191.75 55.9307 191.35 56C190.95 56.064 190.59 56.1413 190.27 56.232C190.035 56.3067 189.814 56.4027 189.606 56.52C189.403 56.6373 189.238 56.7893 189.11 56.976C188.987 57.1573 188.926 57.384 188.926 57.656C188.926 57.8907 188.985 58.1147 189.102 58.328C189.225 58.5413 189.411 58.7147 189.662 58.848C189.918 58.9813 190.251 59.048 190.662 59.048ZM203.411 60V55.672C203.411 55.2613 203.373 54.8667 203.299 54.488C203.229 54.1093 203.104 53.7707 202.923 53.472C202.747 53.168 202.507 52.928 202.203 52.752C201.904 52.576 201.525 52.488 201.067 52.488C200.709 52.488 200.384 52.5493 200.091 52.672C199.803 52.7893 199.555 52.9707 199.347 53.216C199.139 53.4613 198.976 53.7707 198.859 54.144C198.747 54.512 198.691 54.9467 198.691 55.448L197.755 55.16C197.755 54.3227 197.904 53.6053 198.203 53.008C198.507 52.4053 198.931 51.944 199.475 51.624C200.024 51.2987 200.669 51.136 201.411 51.136C201.971 51.136 202.448 51.224 202.843 51.4C203.237 51.576 203.565 51.8107 203.827 52.104C204.088 52.392 204.293 52.7173 204.443 53.08C204.592 53.4373 204.696 53.8027 204.755 54.176C204.819 54.544 204.851 54.8933 204.851 55.224V60H203.411ZM197.251 60V51.36H198.531V53.672H198.691V60H197.251ZM208.023 60V50.888C208.023 50.664 208.034 50.4373 208.055 50.208C208.077 49.9733 208.125 49.7467 208.199 49.528C208.274 49.304 208.397 49.0987 208.567 48.912C208.765 48.6933 208.981 48.5387 209.215 48.448C209.45 48.352 209.687 48.2933 209.927 48.272C210.173 48.2507 210.405 48.24 210.623 48.24H211.719V49.424H210.703C210.282 49.424 209.967 49.528 209.759 49.736C209.551 49.9387 209.447 50.248 209.447 50.664V60H208.023ZM206.559 52.536V51.36H211.719V52.536H206.559ZM216.633 60.24C215.774 60.24 215.033 60.0453 214.409 59.656C213.79 59.2667 213.313 58.728 212.977 58.04C212.641 57.352 212.473 56.5627 212.473 55.672C212.473 54.7653 212.643 53.9707 212.985 53.288C213.326 52.6053 213.809 52.0747 214.433 51.696C215.057 51.312 215.79 51.12 216.633 51.12C217.497 51.12 218.241 51.3147 218.865 51.704C219.489 52.088 219.966 52.624 220.297 53.312C220.633 53.9947 220.801 54.7813 220.801 55.672C220.801 56.5733 220.633 57.368 220.297 58.056C219.961 58.7387 219.481 59.2747 218.857 59.664C218.233 60.048 217.491 60.24 216.633 60.24ZM216.633 58.888C217.529 58.888 218.195 58.5893 218.633 57.992C219.07 57.3947 219.289 56.6213 219.289 55.672C219.289 54.696 219.067 53.92 218.625 53.344C218.182 52.7627 217.518 52.472 216.633 52.472C216.03 52.472 215.534 52.608 215.145 52.88C214.755 53.152 214.465 53.528 214.273 54.008C214.081 54.488 213.985 55.0427 213.985 55.672C213.985 56.6427 214.209 57.4213 214.657 58.008C215.105 58.5947 215.763 58.888 216.633 58.888ZM222.831 60V51.36H224.103V53.448L223.895 53.176C223.996 52.9093 224.127 52.664 224.287 52.44C224.452 52.216 224.636 52.032 224.839 51.888C225.063 51.7067 225.316 51.568 225.599 51.472C225.881 51.376 226.169 51.32 226.463 51.304C226.756 51.2827 227.031 51.3013 227.287 51.36V52.696C226.988 52.616 226.66 52.5947 226.303 52.632C225.945 52.6693 225.615 52.8 225.311 53.024C225.033 53.2213 224.817 53.4613 224.663 53.744C224.513 54.0267 224.409 54.3333 224.351 54.664C224.292 54.9893 224.263 55.3227 224.263 55.664V60H222.831ZM232.304 60.24C231.499 60.24 230.808 60.04 230.232 59.64C229.656 59.2347 229.211 58.688 228.896 58C228.587 57.312 228.432 56.536 228.432 55.672C228.432 54.808 228.587 54.032 228.896 53.344C229.211 52.656 229.656 52.1147 230.232 51.72C230.808 51.32 231.496 51.12 232.296 51.12C233.112 51.12 233.797 51.3173 234.352 51.712C234.907 52.1067 235.325 52.648 235.608 53.336C235.896 54.024 236.04 54.8027 236.04 55.672C236.04 56.5307 235.896 57.3067 235.608 58C235.325 58.688 234.907 59.2347 234.352 59.64C233.797 60.04 233.115 60.24 232.304 60.24ZM232.48 58.936C233.061 58.936 233.539 58.7973 233.912 58.52C234.285 58.2373 234.56 57.8507 234.736 57.36C234.917 56.864 235.008 56.3013 235.008 55.672C235.008 55.032 234.917 54.4693 234.736 53.984C234.56 53.4933 234.288 53.112 233.92 52.84C233.552 52.5627 233.085 52.424 232.52 52.424C231.933 52.424 231.448 52.568 231.064 52.856C230.685 53.144 230.403 53.5333 230.216 54.024C230.035 54.5147 229.944 55.064 229.944 55.672C229.944 56.2853 230.037 56.84 230.224 57.336C230.411 57.8267 230.691 58.216 231.064 58.504C231.443 58.792 231.915 58.936 232.48 58.936ZM235.008 60V53.64H234.848V48.48H236.28V60H235.008Z" fill="black"></path> <g filter="url(#filter0_dd_8957_55094)"> <path d="M286.983 58.1834L282.317 53.5166L280.667 55.1665L286.983 61.4832L299.817 48.6499L298.167 47L286.983 58.1834Z" fill="#1F8B24"></path> </g> <rect x="8" y="6" width="121" height="22" rx="4" fill="white"></rect> <path d="M12.98 22V11.92H16.039C16.1463 11.92 16.3283 11.9223 16.585 11.927C16.8463 11.9317 17.096 11.9503 17.334 11.983C18.0993 12.0903 18.7387 12.375 19.252 12.837C19.7653 13.299 20.1503 13.887 20.407 14.601C20.6637 15.315 20.792 16.1013 20.792 16.96C20.792 17.8187 20.6637 18.605 20.407 19.319C20.1503 20.033 19.7653 20.621 19.252 21.083C18.7387 21.545 18.0993 21.8297 17.334 21.937C17.1007 21.965 16.851 21.9837 16.585 21.993C16.319 21.9977 16.137 22 16.039 22H12.98ZM14.044 21.013H16.039C16.2303 21.013 16.4357 21.0083 16.655 20.999C16.879 20.985 17.0703 20.9617 17.229 20.929C17.817 20.8263 18.2907 20.5883 18.65 20.215C19.014 19.8417 19.28 19.375 19.448 18.815C19.616 18.2503 19.7 17.632 19.7 16.96C19.7 16.2833 19.616 15.6627 19.448 15.098C19.28 14.5333 19.014 14.0667 18.65 13.698C18.286 13.3293 17.8123 13.0937 17.229 12.991C17.0703 12.9583 16.8767 12.9373 16.648 12.928C16.424 12.914 16.221 12.907 16.039 12.907H14.044V21.013ZM26.0053 22.21C25.2679 22.21 24.6286 22.0467 24.0873 21.72C23.5506 21.3933 23.1329 20.9337 22.8343 20.341C22.5356 19.7483 22.3863 19.053 22.3863 18.255C22.3863 17.429 22.5333 16.715 22.8273 16.113C23.1213 15.511 23.5343 15.0467 24.0663 14.72C24.6029 14.3933 25.2353 14.23 25.9633 14.23C26.7099 14.23 27.3469 14.4027 27.8743 14.748C28.4016 15.0887 28.8006 15.5787 29.0713 16.218C29.3419 16.8573 29.4656 17.6203 29.4423 18.507H28.3923V18.143C28.3736 17.163 28.1613 16.4233 27.7553 15.924C27.3539 15.4247 26.7659 15.175 25.9913 15.175C25.1793 15.175 24.5563 15.4387 24.1223 15.966C23.6929 16.4933 23.4783 17.2447 23.4783 18.22C23.4783 19.172 23.6929 19.9117 24.1223 20.439C24.5563 20.9617 25.1699 21.223 25.9633 21.223C26.5046 21.223 26.9759 21.0993 27.3773 20.852C27.7833 20.6 28.1029 20.2383 28.3363 19.767L29.2953 20.138C28.9966 20.796 28.5556 21.307 27.9723 21.671C27.3936 22.0303 26.7379 22.21 26.0053 22.21ZM23.1143 18.507V17.646H28.8893V18.507H23.1143ZM31.5557 22V11.71H32.5847V22H31.5557ZM35.2433 13.005V11.85H36.2723V13.005H35.2433ZM35.2433 22V14.44H36.2723V22H35.2433ZM40.8349 22L38.0909 14.44H39.1339L41.3669 20.656L43.5859 14.44H44.6429L41.8989 22H40.8349ZM49.2458 22.21C48.5085 22.21 47.8691 22.0467 47.3278 21.72C46.7911 21.3933 46.3735 20.9337 46.0748 20.341C45.7761 19.7483 45.6268 19.053 45.6268 18.255C45.6268 17.429 45.7738 16.715 46.0678 16.113C46.3618 15.511 46.7748 15.0467 47.3068 14.72C47.8435 14.3933 48.4758 14.23 49.2038 14.23C49.9505 14.23 50.5875 14.4027 51.1148 14.748C51.6421 15.0887 52.0411 15.5787 52.3118 16.218C52.5825 16.8573 52.7061 17.6203 52.6828 18.507H51.6328V18.143C51.6141 17.163 51.4018 16.4233 50.9958 15.924C50.5945 15.4247 50.0065 15.175 49.2318 15.175C48.4198 15.175 47.7968 15.4387 47.3628 15.966C46.9335 16.4933 46.7188 17.2447 46.7188 18.22C46.7188 19.172 46.9335 19.9117 47.3628 20.439C47.7968 20.9617 48.4105 21.223 49.2038 21.223C49.7451 21.223 50.2165 21.0993 50.6178 20.852C51.0238 20.6 51.3435 20.2383 51.5768 19.767L52.5358 20.138C52.2371 20.796 51.7961 21.307 51.2128 21.671C50.6341 22.0303 49.9785 22.21 49.2458 22.21ZM46.3548 18.507V17.646H52.1298V18.507H46.3548ZM54.6563 22V14.44H55.5803V16.26L55.3983 16.022C55.4823 15.798 55.5919 15.5927 55.7273 15.406C55.8626 15.2147 56.0096 15.0583 56.1683 14.937C56.3643 14.7643 56.5929 14.6337 56.8543 14.545C57.1156 14.4517 57.3793 14.398 57.6453 14.384C57.9113 14.3653 58.1539 14.384 58.3733 14.44V15.406C58.0979 15.336 57.7969 15.3197 57.4703 15.357C57.1436 15.3943 56.8426 15.525 56.5673 15.749C56.3153 15.945 56.1263 16.1807 56.0003 16.456C55.8743 16.7267 55.7903 17.016 55.7483 17.324C55.7063 17.6273 55.6853 17.9283 55.6853 18.227V22H54.6563ZM61.1035 25.36L62.5665 21.391L62.5875 22.567L59.2765 14.44H60.3685L63.0845 21.237H62.6365L65.1425 14.44H66.1925L62.1325 25.36H61.1035ZM73.214 22.21C72.6447 22.21 72.1663 22.1073 71.779 21.902C71.3963 21.6967 71.1093 21.4237 70.918 21.083C70.7267 20.7423 70.631 20.3713 70.631 19.97C70.631 19.5593 70.7127 19.2093 70.876 18.92C71.044 18.626 71.2703 18.3857 71.555 18.199C71.8443 18.0123 72.178 17.87 72.556 17.772C72.9387 17.6787 73.361 17.597 73.823 17.527C74.2897 17.4523 74.7447 17.3893 75.188 17.338C75.636 17.282 76.028 17.2283 76.364 17.177L76 17.401C76.014 16.6543 75.8693 16.1013 75.566 15.742C75.2627 15.3827 74.7353 15.203 73.984 15.203C73.466 15.203 73.0273 15.3197 72.668 15.553C72.3133 15.7863 72.0637 16.155 71.919 16.659L70.918 16.365C71.0907 15.6883 71.4383 15.1633 71.961 14.79C72.4837 14.4167 73.1627 14.23 73.998 14.23C74.6887 14.23 75.2743 14.3607 75.755 14.622C76.2403 14.8787 76.5833 15.252 76.784 15.742C76.8773 15.9613 76.938 16.2063 76.966 16.477C76.994 16.7477 77.008 17.023 77.008 17.303V22H76.091V20.103L76.357 20.215C76.1003 20.8637 75.7013 21.3583 75.16 21.699C74.6187 22.0397 73.97 22.21 73.214 22.21ZM73.333 21.321C73.8137 21.321 74.2337 21.2347 74.593 21.062C74.9523 20.8893 75.2417 20.6537 75.461 20.355C75.6803 20.0517 75.8227 19.711 75.888 19.333C75.944 19.0903 75.9743 18.8243 75.979 18.535C75.9837 18.241 75.986 18.0217 75.986 17.877L76.378 18.08C76.028 18.1267 75.6477 18.1733 75.237 18.22C74.831 18.2667 74.4297 18.3203 74.033 18.381C73.641 18.4417 73.2863 18.514 72.969 18.598C72.7543 18.6587 72.5467 18.745 72.346 18.857C72.1453 18.9643 71.9797 19.109 71.849 19.291C71.723 19.473 71.66 19.6993 71.66 19.97C71.66 20.1893 71.7137 20.4017 71.821 20.607C71.933 20.8123 72.1103 20.9827 72.353 21.118C72.6003 21.2533 72.927 21.321 73.333 21.321ZM82.1833 22.21C81.4786 22.21 80.8766 22.035 80.3773 21.685C79.878 21.3303 79.4953 20.852 79.2293 20.25C78.9633 19.648 78.8303 18.969 78.8303 18.213C78.8303 17.4617 78.961 16.785 79.2223 16.183C79.4883 15.581 79.8686 15.105 80.3633 14.755C80.858 14.405 81.4506 14.23 82.1413 14.23C82.8506 14.23 83.448 14.4027 83.9333 14.748C84.4186 15.0933 84.785 15.567 85.0323 16.169C85.2843 16.7663 85.4103 17.4477 85.4103 18.213C85.4103 18.9643 85.2866 19.6433 85.0393 20.25C84.792 20.852 84.428 21.3303 83.9473 21.685C83.4666 22.035 82.8786 22.21 82.1833 22.21ZM82.2883 21.251C82.825 21.251 83.2683 21.1203 83.6183 20.859C83.9683 20.5977 84.2296 20.2383 84.4023 19.781C84.575 19.319 84.6613 18.7963 84.6613 18.213C84.6613 17.6203 84.575 17.0977 84.4023 16.645C84.2296 16.1877 83.9683 15.8307 83.6183 15.574C83.273 15.3173 82.8366 15.189 82.3093 15.189C81.768 15.189 81.32 15.322 80.9653 15.588C80.6106 15.854 80.347 16.2157 80.1743 16.673C80.0063 17.1303 79.9223 17.6437 79.9223 18.213C79.9223 18.787 80.0086 19.305 80.1813 19.767C80.3586 20.2243 80.6223 20.586 80.9723 20.852C81.3223 21.118 81.761 21.251 82.2883 21.251ZM84.6613 22V16.309H84.5493V11.92H85.5853V22H84.6613ZM90.9021 22.21C90.1975 22.21 89.5955 22.035 89.0961 21.685C88.5968 21.3303 88.2141 20.852 87.9481 20.25C87.6821 19.648 87.5491 18.969 87.5491 18.213C87.5491 17.4617 87.6798 16.785 87.9411 16.183C88.2071 15.581 88.5875 15.105 89.0821 14.755C89.5768 14.405 90.1695 14.23 90.8601 14.23C91.5695 14.23 92.1668 14.4027 92.6521 14.748C93.1375 15.0933 93.5038 15.567 93.7511 16.169C94.0031 16.7663 94.1291 17.4477 94.1291 18.213C94.1291 18.9643 94.0055 19.6433 93.7581 20.25C93.5108 20.852 93.1468 21.3303 92.6661 21.685C92.1855 22.035 91.5975 22.21 90.9021 22.21ZM91.0071 21.251C91.5438 21.251 91.9871 21.1203 92.3371 20.859C92.6871 20.5977 92.9485 20.2383 93.1211 19.781C93.2938 19.319 93.3801 18.7963 93.3801 18.213C93.3801 17.6203 93.2938 17.0977 93.1211 16.645C92.9485 16.1877 92.6871 15.8307 92.3371 15.574C91.9918 15.3173 91.5555 15.189 91.0281 15.189C90.4868 15.189 90.0388 15.322 89.6841 15.588C89.3295 15.854 89.0658 16.2157 88.8931 16.673C88.7251 17.1303 88.6411 17.6437 88.6411 18.213C88.6411 18.787 88.7275 19.305 88.9001 19.767C89.0775 20.2243 89.3411 20.586 89.6911 20.852C90.0411 21.118 90.4798 21.251 91.0071 21.251ZM93.3801 22V16.309H93.2681V11.92H94.3041V22H93.3801ZM96.688 22V14.44H97.612V16.26L97.43 16.022C97.514 15.798 97.6236 15.5927 97.759 15.406C97.8943 15.2147 98.0413 15.0583 98.2 14.937C98.396 14.7643 98.6246 14.6337 98.886 14.545C99.1473 14.4517 99.411 14.398 99.677 14.384C99.943 14.3653 100.186 14.384 100.405 14.44V15.406C100.13 15.336 99.8286 15.3197 99.502 15.357C99.1753 15.3943 98.8743 15.525 98.599 15.749C98.347 15.945 98.158 16.1807 98.032 16.456C97.906 16.7267 97.822 17.016 97.78 17.324C97.738 17.6273 97.717 17.9283 97.717 18.227V22H96.688ZM105.215 22.21C104.478 22.21 103.839 22.0467 103.297 21.72C102.761 21.3933 102.343 20.9337 102.044 20.341C101.746 19.7483 101.596 19.053 101.596 18.255C101.596 17.429 101.743 16.715 102.037 16.113C102.331 15.511 102.744 15.0467 103.276 14.72C103.813 14.3933 104.445 14.23 105.173 14.23C105.92 14.23 106.557 14.4027 107.084 14.748C107.612 15.0887 108.011 15.5787 108.281 16.218C108.552 16.8573 108.676 17.6203 108.652 18.507H107.602V18.143C107.584 17.163 107.371 16.4233 106.965 15.924C106.564 15.4247 105.976 15.175 105.201 15.175C104.389 15.175 103.766 15.4387 103.332 15.966C102.903 16.4933 102.688 17.2447 102.688 18.22C102.688 19.172 102.903 19.9117 103.332 20.439C103.766 20.9617 104.38 21.223 105.173 21.223C105.715 21.223 106.186 21.0993 106.587 20.852C106.993 20.6 107.313 20.2383 107.546 19.767L108.505 20.138C108.207 20.796 107.766 21.307 107.182 21.671C106.604 22.0303 105.948 22.21 105.215 22.21ZM102.324 18.507V17.646H108.099V18.507H102.324ZM113.447 22.203C112.56 22.203 111.83 22.0117 111.256 21.629C110.686 21.2463 110.336 20.7143 110.206 20.033L111.256 19.858C111.368 20.2873 111.622 20.6303 112.019 20.887C112.42 21.139 112.915 21.265 113.503 21.265C114.077 21.265 114.529 21.146 114.861 20.908C115.192 20.6653 115.358 20.3363 115.358 19.921C115.358 19.6877 115.304 19.4987 115.197 19.354C115.094 19.2047 114.882 19.067 114.56 18.941C114.238 18.815 113.757 18.6657 113.118 18.493C112.432 18.3063 111.895 18.1197 111.508 17.933C111.12 17.7463 110.845 17.5317 110.682 17.289C110.518 17.0417 110.437 16.7407 110.437 16.386C110.437 15.9567 110.558 15.581 110.801 15.259C111.043 14.9323 111.379 14.6803 111.809 14.503C112.238 14.321 112.737 14.23 113.307 14.23C113.876 14.23 114.385 14.3233 114.833 14.51C115.285 14.692 115.649 14.9487 115.925 15.28C116.2 15.6113 116.363 15.9963 116.415 16.435L115.365 16.624C115.295 16.1807 115.073 15.8307 114.7 15.574C114.331 15.3127 113.862 15.1773 113.293 15.168C112.756 15.154 112.32 15.2567 111.984 15.476C111.648 15.6907 111.48 15.9777 111.48 16.337C111.48 16.5377 111.54 16.7103 111.662 16.855C111.783 16.995 112.002 17.128 112.32 17.254C112.642 17.38 113.099 17.5177 113.692 17.667C114.387 17.8443 114.933 18.031 115.33 18.227C115.726 18.423 116.009 18.654 116.177 18.92C116.345 19.186 116.429 19.515 116.429 19.907C116.429 20.621 116.163 21.1833 115.631 21.594C115.103 22 114.375 22.203 113.447 22.203ZM121.222 22.203C120.335 22.203 119.605 22.0117 119.031 21.629C118.462 21.2463 118.112 20.7143 117.981 20.033L119.031 19.858C119.143 20.2873 119.397 20.6303 119.794 20.887C120.195 21.139 120.69 21.265 121.278 21.265C121.852 21.265 122.305 21.146 122.636 20.908C122.967 20.6653 123.133 20.3363 123.133 19.921C123.133 19.6877 123.079 19.4987 122.972 19.354C122.869 19.2047 122.657 19.067 122.335 18.941C122.013 18.815 121.532 18.6657 120.893 18.493C120.207 18.3063 119.67 18.1197 119.283 17.933C118.896 17.7463 118.62 17.5317 118.457 17.289C118.294 17.0417 118.212 16.7407 118.212 16.386C118.212 15.9567 118.333 15.581 118.576 15.259C118.819 14.9323 119.155 14.6803 119.584 14.503C120.013 14.321 120.513 14.23 121.082 14.23C121.651 14.23 122.16 14.3233 122.608 14.51C123.061 14.692 123.425 14.9487 123.7 15.28C123.975 15.6113 124.139 15.9963 124.19 16.435L123.14 16.624C123.07 16.1807 122.848 15.8307 122.475 15.574C122.106 15.3127 121.637 15.1773 121.068 15.168C120.531 15.154 120.095 15.2567 119.759 15.476C119.423 15.6907 119.255 15.9777 119.255 16.337C119.255 16.5377 119.316 16.7103 119.437 16.855C119.558 16.995 119.778 17.128 120.095 17.254C120.417 17.38 120.874 17.5177 121.467 17.667C122.162 17.8443 122.708 18.031 123.105 18.227C123.502 18.423 123.784 18.654 123.952 18.92C124.12 19.186 124.204 19.515 124.204 19.907C124.204 20.621 123.938 21.1833 123.406 21.594C122.879 22 122.151 22.203 121.222 22.203Z" fill="#616161"></path> <path d="M257.89 93.162C257.458 93.162 257.05 93.078 256.666 92.91C256.282 92.742 255.948 92.504 255.664 92.196C255.384 91.888 255.182 91.524 255.058 91.104L256.456 90.726C256.556 91.07 256.738 91.336 257.002 91.524C257.27 91.708 257.564 91.798 257.884 91.794C258.168 91.794 258.422 91.728 258.646 91.596C258.87 91.464 259.046 91.286 259.174 91.062C259.302 90.834 259.366 90.58 259.366 90.3C259.366 89.872 259.228 89.514 258.952 89.226C258.676 88.938 258.32 88.794 257.884 88.794C257.752 88.794 257.622 88.812 257.494 88.848C257.37 88.884 257.25 88.934 257.134 88.998L256.474 87.858L259.378 85.374L259.504 85.722H255.394V84.36H260.692V85.728L258.358 87.972L258.346 87.546C258.87 87.582 259.316 87.728 259.684 87.984C260.056 88.24 260.34 88.57 260.536 88.974C260.736 89.378 260.836 89.82 260.836 90.3C260.836 90.844 260.702 91.332 260.434 91.764C260.17 92.196 259.814 92.538 259.366 92.79C258.922 93.038 258.43 93.162 257.89 93.162ZM262.51 92.988V91.728L266.206 88.434C266.494 88.178 266.694 87.936 266.806 87.708C266.918 87.48 266.974 87.26 266.974 87.048C266.974 86.76 266.912 86.504 266.788 86.28C266.664 86.052 266.492 85.872 266.272 85.74C266.056 85.608 265.806 85.542 265.522 85.542C265.222 85.542 264.956 85.612 264.724 85.752C264.496 85.888 264.318 86.07 264.19 86.298C264.062 86.526 264.002 86.772 264.01 87.036H262.522C262.522 86.46 262.65 85.958 262.906 85.53C263.166 85.102 263.522 84.77 263.974 84.534C264.43 84.298 264.956 84.18 265.552 84.18C266.104 84.18 266.6 84.304 267.04 84.552C267.48 84.796 267.826 85.136 268.078 85.572C268.33 86.004 268.456 86.502 268.456 87.066C268.456 87.478 268.4 87.824 268.288 88.104C268.176 88.384 268.008 88.642 267.784 88.878C267.564 89.114 267.29 89.376 266.962 89.664L264.34 91.986L264.208 91.626H268.456V92.988H262.51Z" fill="#1F8B24"></path> <path d="M275.205 84.36H276.111L273.807 93H272.901L275.205 84.36ZM282.302 93V85.344L280.676 86.322V85.332L282.302 84.36H283.196V93H282.302ZM288.652 93.18C288.12 93.18 287.64 93.056 287.212 92.808C286.788 92.56 286.452 92.224 286.204 91.8C285.956 91.372 285.832 90.892 285.832 90.36V87C285.832 86.468 285.956 85.99 286.204 85.566C286.452 85.138 286.788 84.8 287.212 84.552C287.64 84.304 288.12 84.18 288.652 84.18C289.184 84.18 289.662 84.304 290.086 84.552C290.514 84.8 290.852 85.138 291.1 85.566C291.348 85.99 291.472 86.468 291.472 87V90.36C291.472 90.892 291.348 91.372 291.1 91.8C290.852 92.224 290.514 92.56 290.086 92.808C289.662 93.056 289.184 93.18 288.652 93.18ZM288.652 92.328C289.008 92.328 289.332 92.242 289.624 92.07C289.916 91.894 290.148 91.66 290.32 91.368C290.492 91.076 290.578 90.754 290.578 90.402V86.958C290.578 86.602 290.492 86.278 290.32 85.986C290.148 85.694 289.916 85.462 289.624 85.29C289.332 85.114 289.008 85.026 288.652 85.026C288.296 85.026 287.972 85.114 287.68 85.29C287.388 85.462 287.156 85.694 286.984 85.986C286.812 86.278 286.726 86.602 286.726 86.958V90.402C286.726 90.754 286.812 91.076 286.984 91.368C287.156 91.66 287.388 91.894 287.68 92.07C287.972 92.242 288.296 92.328 288.652 92.328ZM296.336 93.18C295.804 93.18 295.324 93.056 294.896 92.808C294.472 92.56 294.136 92.224 293.888 91.8C293.64 91.372 293.516 90.892 293.516 90.36V87C293.516 86.468 293.64 85.99 293.888 85.566C294.136 85.138 294.472 84.8 294.896 84.552C295.324 84.304 295.804 84.18 296.336 84.18C296.868 84.18 297.346 84.304 297.77 84.552C298.198 84.8 298.536 85.138 298.784 85.566C299.032 85.99 299.156 86.468 299.156 87V90.36C299.156 90.892 299.032 91.372 298.784 91.8C298.536 92.224 298.198 92.56 297.77 92.808C297.346 93.056 296.868 93.18 296.336 93.18ZM296.336 92.328C296.692 92.328 297.016 92.242 297.308 92.07C297.6 91.894 297.832 91.66 298.004 91.368C298.176 91.076 298.262 90.754 298.262 90.402V86.958C298.262 86.602 298.176 86.278 298.004 85.986C297.832 85.694 297.6 85.462 297.308 85.29C297.016 85.114 296.692 85.026 296.336 85.026C295.98 85.026 295.656 85.114 295.364 85.29C295.072 85.462 294.84 85.694 294.668 85.986C294.496 86.278 294.41 86.602 294.41 86.958V90.402C294.41 90.754 294.496 91.076 294.668 91.368C294.84 91.66 295.072 91.894 295.364 92.07C295.656 92.242 295.98 92.328 296.336 92.328Z" fill="#818181"></path> <defs> <filter id="filter0_dd_8957_55094" x="272.667" y="43" width="35.1494" height="30.4834" filterUnits="userSpaceOnUse" color-interpolation-filters="sRGB"> <feFlood flood-opacity="0" result="BackgroundImageFix"></feFlood> <feColorMatrix in="SourceAlpha" type="matrix" values="0 0 0 0 0 0 0 0 0 0 0 0 0 0 0 0 0 0 127 0" result="hardAlpha"></feColorMatrix> <feOffset dy="4"></feOffset> <feGaussianBlur stdDeviation="4"></feGaussianBlur> <feColorMatrix type="matrix" values="0 0 0 0 0.121569 0 0 0 0 0.545098 0 0 0 0 0.141176 0 0 0 0.18 0"></feColorMatrix> <feBlend mode="multiply" in2="BackgroundImageFix" result="effect1_dropShadow_8957_55094"></feBlend> <feColorMatrix in="SourceAlpha" type="matrix" values="0 0 0 0 0 0 0 0 0 0 0 0 0 0 0 0 0 0 127 0" result="hardAlpha"></feColorMatrix> <feOffset dy="2"></feOffset> <feGaussianBlur stdDeviation="2"></feGaussianBlur> <feColorMatrix type="matrix" values="0 0 0 0 0.121569 0 0 0 0 0.545098 0 0 0 0 0.141176 0 0 0 0.18 0"></feColorMatrix> <feBlend mode="multiply" in2="effect1_dropShadow_8957_55094" result="effect2_dropShadow_8957_55094"></feBlend> <feBlend mode="normal" in="SourceGraphic" in2="effect2_dropShadow_8957_55094" result="shape"></feBlend> </filter> <linearGradient id="paint0_linear_8957_55094" x1="156" y1="30" x2="156" y2="78" gradientUnits="userSpaceOnUse"> <stop stop-color="white"></stop> <stop offset="1" stop-color="#F2F5F2"></stop> </linearGradient> </defs> </svg> 