<?xml version="1.0" encoding="UTF-8"?> <svg xmlns="http://www.w3.org/2000/svg" width="395" height="228" viewBox="0 0 395 228" fill="none"> <rect x="0.75" y="0.75" width="393.5" height="226.5" rx="19.25" fill="url(#paint0_linear_8972_167932)"></rect> <g filter="url(#filter0_ii_8972_167932)"> <rect x="40" y="43" width="314" height="50" rx="10" fill="url(#paint1_linear_8972_167932)"></rect> </g> <rect x="40.5" y="43.5" width="313" height="49" rx="9.5" stroke="url(#paint2_linear_8972_167932)"></rect> <g style="mix-blend-mode:multiply"> <mask id="path-5-inside-1_8972_167932" fill="white"> <path d="M40 61C40 53.5005 40 49.7508 41.9098 47.1221C42.5266 46.2732 43.2732 45.5266 44.1221 44.9098C46.7508 43 50.5005 43 58 43H162V93H58C50.5005 93 46.7508 93 44.1221 91.0902C43.2732 90.4734 42.5266 89.7268 41.9098 88.8779C40 86.2492 40 82.4995 40 75V61Z"></path> </mask> <g filter="url(#filter1_ii_8972_167932)"> <path d="M40 61C40 53.5005 40 49.7508 41.9098 47.1221C42.5266 46.2732 43.2732 45.5266 44.1221 44.9098C46.7508 43 50.5005 43 58 43H162V93H58C50.5005 93 46.7508 93 44.1221 91.0902C43.2732 90.4734 42.5266 89.7268 41.9098 88.8779C40 86.2492 40 82.4995 40 75V61Z" fill="#E6E6E6" fill-opacity="0.5"></path> </g> <path d="M40 43H162H40ZM162 93H40H162ZM40 93V43V93ZM163 43V93H161V43H163Z" fill="#E0E0E0" mask="url(#path-5-inside-1_8972_167932)"></path> </g> <g clip-path="url(#clip0_8972_167932)"> <g filter="url(#filter2_dd_8972_167932)"> <path d="M141.384 71.2891C141.184 71.5289 140.816 71.5289 140.616 71.2891L135.433 65.0701C135.162 64.7444 135.394 64.25 135.818 64.25L146.182 64.25C146.606 64.25 146.838 64.7444 146.567 65.0701L141.384 71.2891Z" fill="#223189"></path> </g> </g> <path opacity="0.2" d="M67 81C74.1797 81 80 75.1797 80 68C80 60.8203 74.1797 55 67 55C59.8203 55 54 60.8203 54 68C54 75.1797 59.8203 81 67 81Z" fill="#224DDA"></path> <path fill-rule="evenodd" clip-rule="evenodd" d="M67 61L73.0622 64.5V71.5L67 75L60.9378 71.5V64.5L67 61Z" stroke="#224DDA" stroke-width="3"></path> <g filter="url(#filter3_d_8972_167932)"> <path d="M229.721 74.77C229.061 74.77 228.446 74.635 227.876 74.365C227.306 74.089 226.814 73.711 226.4 73.231C225.992 72.751 225.698 72.193 225.518 71.557L227.606 70.999C227.69 71.347 227.843 71.647 228.065 71.899C228.293 72.151 228.557 72.346 228.857 72.484C229.163 72.622 229.478 72.691 229.802 72.691C230.222 72.691 230.606 72.589 230.954 72.385C231.302 72.181 231.578 71.908 231.782 71.566C231.986 71.218 232.088 70.834 232.088 70.414C232.088 69.994 231.983 69.613 231.773 69.271C231.569 68.923 231.293 68.65 230.945 68.452C230.597 68.248 230.216 68.146 229.802 68.146C229.304 68.146 228.89 68.236 228.56 68.416C228.236 68.596 227.987 68.788 227.813 68.992L225.959 68.398L226.355 61.54H233.393V63.574H227.516L228.326 62.809L228.038 67.579L227.642 67.093C227.978 66.787 228.368 66.559 228.812 66.409C229.256 66.259 229.685 66.184 230.099 66.184C230.909 66.184 231.626 66.37 232.25 66.742C232.88 67.108 233.372 67.609 233.726 68.245C234.086 68.881 234.266 69.604 234.266 70.414C234.266 71.224 234.056 71.959 233.636 72.619C233.216 73.273 232.661 73.795 231.971 74.185C231.287 74.575 230.537 74.77 229.721 74.77ZM241.356 74.77C240.432 74.77 239.619 74.575 238.917 74.185C238.221 73.789 237.675 73.24 237.279 72.538C236.889 71.836 236.694 71.026 236.694 70.108V65.932C236.694 65.014 236.889 64.204 237.279 63.502C237.675 62.8 238.221 62.254 238.917 61.864C239.619 61.468 240.432 61.27 241.356 61.27C242.274 61.27 243.081 61.468 243.777 61.864C244.479 62.254 245.028 62.8 245.424 63.502C245.82 64.204 246.018 65.014 246.018 65.932V70.108C246.018 71.026 245.82 71.836 245.424 72.538C245.028 73.24 244.479 73.789 243.777 74.185C243.081 74.575 242.274 74.77 241.356 74.77ZM241.356 72.709C241.812 72.709 242.223 72.601 242.589 72.385C242.961 72.163 243.255 71.869 243.471 71.503C243.693 71.131 243.804 70.717 243.804 70.261V65.77C243.804 65.308 243.693 64.894 243.471 64.528C243.255 64.156 242.961 63.862 242.589 63.646C242.223 63.424 241.812 63.313 241.356 63.313C240.894 63.313 240.477 63.424 240.105 63.646C239.739 63.862 239.445 64.156 239.223 64.528C239.007 64.894 238.899 65.308 238.899 65.77V70.261C238.899 70.717 239.007 71.131 239.223 71.503C239.445 71.869 239.739 72.163 240.105 72.385C240.477 72.601 240.894 72.709 241.356 72.709ZM252.821 74.77C251.897 74.77 251.084 74.575 250.382 74.185C249.686 73.789 249.14 73.24 248.744 72.538C248.354 71.836 248.159 71.026 248.159 70.108V65.932C248.159 65.014 248.354 64.204 248.744 63.502C249.14 62.8 249.686 62.254 250.382 61.864C251.084 61.468 251.897 61.27 252.821 61.27C253.739 61.27 254.546 61.468 255.242 61.864C255.944 62.254 256.493 62.8 256.889 63.502C257.285 64.204 257.483 65.014 257.483 65.932V70.108C257.483 71.026 257.285 71.836 256.889 72.538C256.493 73.24 255.944 73.789 255.242 74.185C254.546 74.575 253.739 74.77 252.821 74.77ZM252.821 72.709C253.277 72.709 253.688 72.601 254.054 72.385C254.426 72.163 254.72 71.869 254.936 71.503C255.158 71.131 255.269 70.717 255.269 70.261V65.77C255.269 65.308 255.158 64.894 254.936 64.528C254.72 64.156 254.426 63.862 254.054 63.646C253.688 63.424 253.277 63.313 252.821 63.313C252.359 63.313 251.942 63.424 251.57 63.646C251.204 63.862 250.91 64.156 250.688 64.528C250.472 64.894 250.364 65.308 250.364 65.77V70.261C250.364 70.717 250.472 71.131 250.688 71.503C250.91 71.869 251.204 72.163 251.57 72.385C251.942 72.601 252.359 72.709 252.821 72.709ZM264.285 74.77C263.361 74.77 262.548 74.575 261.846 74.185C261.15 73.789 260.604 73.24 260.208 72.538C259.818 71.836 259.623 71.026 259.623 70.108V65.932C259.623 65.014 259.818 64.204 260.208 63.502C260.604 62.8 261.15 62.254 261.846 61.864C262.548 61.468 263.361 61.27 264.285 61.27C265.203 61.27 266.01 61.468 266.706 61.864C267.408 62.254 267.957 62.8 268.353 63.502C268.749 64.204 268.947 65.014 268.947 65.932V70.108C268.947 71.026 268.749 71.836 268.353 72.538C267.957 73.24 267.408 73.789 266.706 74.185C266.01 74.575 265.203 74.77 264.285 74.77ZM264.285 72.709C264.741 72.709 265.152 72.601 265.518 72.385C265.89 72.163 266.184 71.869 266.4 71.503C266.622 71.131 266.733 70.717 266.733 70.261V65.77C266.733 65.308 266.622 64.894 266.4 64.528C266.184 64.156 265.89 63.862 265.518 63.646C265.152 63.424 264.741 63.313 264.285 63.313C263.823 63.313 263.406 63.424 263.034 63.646C262.668 63.862 262.374 64.156 262.152 64.528C261.936 64.894 261.828 65.308 261.828 65.77V70.261C261.828 70.717 261.936 71.131 262.152 71.503C262.374 71.869 262.668 72.163 263.034 72.385C263.406 72.601 263.823 72.709 264.285 72.709Z" fill="black"></path> <path d="M278.285 76.9245C277.782 76.3395 277.349 75.6787 276.985 74.942C276.621 74.2097 276.344 73.4405 276.153 72.6345C275.962 71.8242 275.874 71.016 275.887 70.21C275.874 69.404 275.962 68.598 276.153 67.792C276.344 66.9817 276.621 66.2103 276.985 65.478C277.349 64.7413 277.782 64.0805 278.285 63.4955L279.299 64.2495C278.779 64.8648 278.361 65.4975 278.045 66.1475C277.728 66.7932 277.496 67.4562 277.349 68.1365C277.202 68.8125 277.128 69.5037 277.128 70.21C277.128 70.912 277.202 71.6032 277.349 72.2835C277.496 72.9638 277.728 73.629 278.045 74.279C278.365 74.929 278.783 75.5595 279.299 76.1705L278.285 76.9245ZM280.841 70.9445V69.8525H284.741V70.9445H280.841ZM289.106 75.7935V74.2725H290.464V75.7935H289.106ZM289.106 65.374V63.8465H290.464V65.374H289.106ZM289.853 74.695C289.203 74.695 288.623 74.578 288.111 74.344C287.6 74.11 287.18 73.7785 286.85 73.3495C286.525 72.9162 286.313 72.4048 286.213 71.8155L287.559 71.601C287.689 72.1557 287.966 72.5977 288.391 72.927C288.815 73.252 289.325 73.4145 289.918 73.4145C290.508 73.4145 290.986 73.2737 291.355 72.992C291.727 72.7103 291.914 72.3507 291.914 71.913C291.914 71.601 291.818 71.3475 291.628 71.1525C291.441 70.9575 291.136 70.7928 290.711 70.6585L288.514 69.9825C287.214 69.5795 286.564 68.7995 286.564 67.6425C286.564 67.0965 286.694 66.622 286.954 66.219C287.219 65.816 287.589 65.504 288.066 65.283C288.542 65.062 289.099 64.9515 289.736 64.9515C290.347 64.9602 290.889 65.0728 291.361 65.2895C291.838 65.5062 292.232 65.8182 292.544 66.2255C292.861 66.6328 293.079 67.1225 293.201 67.6945L291.816 67.9415C291.756 67.6078 291.628 67.3132 291.433 67.0575C291.242 66.8018 290.999 66.6025 290.705 66.4595C290.414 66.3165 290.087 66.2428 289.723 66.2385C289.381 66.2298 289.073 66.284 288.8 66.401C288.532 66.5137 288.317 66.674 288.157 66.882C288.001 67.0857 287.923 67.3175 287.923 67.5775C287.923 67.8635 288.033 68.1062 288.254 68.3055C288.475 68.5048 288.824 68.676 289.301 68.819L291.023 69.3195C291.812 69.5535 292.382 69.8677 292.733 70.262C293.084 70.6563 293.259 71.1807 293.259 71.835C293.259 72.407 293.116 72.9075 292.83 73.3365C292.549 73.7612 292.152 74.0948 291.641 74.3375C291.129 74.5758 290.534 74.695 289.853 74.695ZM297.641 74.695C297.16 74.695 296.711 74.5975 296.295 74.4025C295.884 74.2032 295.53 73.9302 295.236 73.5835C294.941 73.2325 294.731 72.8295 294.605 72.3745L295.912 72.0235C295.985 72.3008 296.111 72.5413 296.289 72.745C296.471 72.9487 296.683 73.1068 296.926 73.2195C297.168 73.3278 297.42 73.382 297.68 73.382C298.022 73.382 298.332 73.2997 298.609 73.135C298.891 72.9703 299.112 72.7493 299.272 72.472C299.437 72.1947 299.519 71.8892 299.519 71.5555C299.519 71.2132 299.435 70.9033 299.266 70.626C299.101 70.3487 298.878 70.1298 298.596 69.9695C298.319 69.8048 298.013 69.7225 297.68 69.7225C297.298 69.7225 296.976 69.7983 296.711 69.95C296.447 70.1017 296.241 70.2772 296.094 70.4765L294.911 70.0605L295.197 65.14H300.247V66.4205H295.892L296.445 65.907L296.217 69.5925L295.951 69.248C296.198 69.001 296.492 68.8125 296.835 68.6825C297.177 68.5525 297.517 68.4875 297.855 68.4875C298.436 68.4875 298.954 68.6218 299.409 68.8905C299.868 69.1592 300.23 69.5253 300.494 69.989C300.759 70.4483 300.891 70.9705 300.891 71.5555C300.891 72.1362 300.741 72.6648 300.442 73.1415C300.143 73.6138 299.747 73.9908 299.253 74.2725C298.759 74.5542 298.221 74.695 297.641 74.695ZM303.15 74.5L306.439 66.4335H302.273V65.14H307.902V66.4335L304.619 74.5H303.15ZM309.124 76.0535L309.209 75.449C309.395 75.462 309.54 75.4273 309.644 75.345C309.748 75.2627 309.818 75.1478 309.852 75.0005C309.887 74.8532 309.893 74.6863 309.872 74.5H309.124V72.9335H310.561V74.63C310.561 75.1413 310.437 75.527 310.19 75.787C309.948 76.047 309.592 76.1358 309.124 76.0535ZM316.24 74.695C315.629 74.695 315.087 74.5737 314.615 74.331C314.147 74.084 313.778 73.7417 313.51 73.304C313.245 72.8663 313.113 72.3593 313.113 71.783C313.113 71.2457 313.239 70.7538 313.49 70.3075C313.741 69.8612 314.116 69.5102 314.615 69.2545L314.589 69.7225C314.19 69.4755 313.882 69.1678 313.666 68.7995C313.453 68.4268 313.347 68.0108 313.347 67.5515C313.347 67.0185 313.471 66.557 313.718 66.167C313.965 65.777 314.305 65.4758 314.738 65.2635C315.176 65.0512 315.676 64.945 316.24 64.945C316.803 64.945 317.301 65.0512 317.735 65.2635C318.168 65.4758 318.508 65.777 318.755 66.167C319.002 66.557 319.126 67.0185 319.126 67.5515C319.126 68.0108 319.024 68.4247 318.82 68.793C318.616 69.1613 318.304 69.4712 317.884 69.7225L317.865 69.2675C318.359 69.5102 318.733 69.8568 318.989 70.3075C319.245 70.7538 319.373 71.2457 319.373 71.783C319.373 72.3593 319.238 72.8663 318.97 73.304C318.701 73.7417 318.33 74.084 317.858 74.331C317.386 74.5737 316.846 74.695 316.24 74.695ZM316.24 73.4015C316.742 73.4015 317.15 73.265 317.462 72.992C317.774 72.7147 317.93 72.3117 317.93 71.783C317.93 71.2543 317.774 70.8513 317.462 70.574C317.154 70.2923 316.747 70.1515 316.24 70.1515C315.733 70.1515 315.323 70.2923 315.011 70.574C314.703 70.8513 314.55 71.2543 314.55 71.783C314.55 72.3117 314.706 72.7147 315.018 72.992C315.33 73.265 315.737 73.4015 316.24 73.4015ZM316.24 68.8515C316.669 68.8515 317.015 68.7453 317.28 68.533C317.548 68.3163 317.683 67.9892 317.683 67.5515C317.683 67.1138 317.548 66.7867 317.28 66.57C317.015 66.349 316.669 66.2385 316.24 66.2385C315.811 66.2385 315.462 66.349 315.193 66.57C314.924 66.7867 314.79 67.1138 314.79 67.5515C314.79 67.9892 314.924 68.3163 315.193 68.533C315.462 68.7453 315.811 68.8515 316.24 68.8515ZM324.324 64.9515C324.926 64.9515 325.47 65.0967 325.955 65.387C326.441 65.673 326.826 66.0673 327.112 66.57C327.398 67.0727 327.541 67.6468 327.541 68.2925V71.2695C327.541 71.9542 327.398 72.5543 327.112 73.07C326.831 73.5813 326.436 73.98 325.929 74.266C325.427 74.552 324.846 74.695 324.187 74.695C323.693 74.695 323.23 74.6018 322.796 74.4155C322.363 74.2292 321.986 73.9518 321.665 73.5835L322.666 72.654C322.844 72.8837 323.067 73.0678 323.336 73.2065C323.604 73.3452 323.888 73.4145 324.187 73.4145C324.573 73.4145 324.913 73.3213 325.208 73.135C325.507 72.9487 325.739 72.706 325.903 72.407C326.068 72.108 326.15 71.7873 326.15 71.445V69.729L326.423 70.028C326.155 70.379 325.821 70.6563 325.422 70.86C325.024 71.0637 324.597 71.1655 324.142 71.1655C323.557 71.1655 323.037 71.0312 322.582 70.7625C322.127 70.4938 321.767 70.1277 321.503 69.664C321.238 69.2003 321.106 68.676 321.106 68.091C321.106 67.506 321.254 66.9773 321.548 66.505C321.843 66.0327 322.233 65.6557 322.718 65.374C323.204 65.0923 323.739 64.9515 324.324 64.9515ZM324.324 66.2645C323.986 66.2645 323.676 66.3468 323.394 66.5115C323.117 66.6718 322.896 66.8907 322.731 67.168C322.567 67.4453 322.484 67.753 322.484 68.091C322.484 68.429 322.567 68.7388 322.731 69.0205C322.896 69.2978 323.117 69.5188 323.394 69.6835C323.672 69.8482 323.979 69.9305 324.317 69.9305C324.655 69.9305 324.963 69.8482 325.24 69.6835C325.518 69.5188 325.739 69.2978 325.903 69.0205C326.068 68.7388 326.15 68.429 326.15 68.091C326.15 67.7573 326.068 67.4518 325.903 67.1745C325.743 66.8972 325.524 66.6762 325.247 66.5115C324.969 66.3468 324.662 66.2645 324.324 66.2645ZM332.837 74.695C332.2 74.695 331.637 74.5563 331.147 74.279C330.658 73.9973 330.272 73.6117 329.99 73.122C329.713 72.6323 329.574 72.069 329.574 71.432V68.208C329.574 67.571 329.713 67.0077 329.99 66.518C330.272 66.0283 330.658 65.6448 331.147 65.3675C331.637 65.0858 332.2 64.945 332.837 64.945C333.474 64.945 334.038 65.0858 334.527 65.3675C335.017 65.6448 335.401 66.0283 335.678 66.518C335.96 67.0077 336.1 67.571 336.1 68.208V71.432C336.1 72.069 335.96 72.6323 335.678 73.122C335.401 73.6117 335.017 73.9973 334.527 74.279C334.038 74.5563 333.474 74.695 332.837 74.695ZM332.837 73.395C333.184 73.395 333.498 73.3127 333.78 73.148C334.066 72.979 334.293 72.7537 334.462 72.472C334.631 72.186 334.716 71.8675 334.716 71.5165V68.1105C334.716 67.7638 334.631 67.4497 334.462 67.168C334.293 66.882 334.066 66.6567 333.78 66.492C333.498 66.323 333.184 66.2385 332.837 66.2385C332.491 66.2385 332.174 66.323 331.888 66.492C331.607 66.6567 331.381 66.882 331.212 67.168C331.043 67.4497 330.959 67.7638 330.959 68.1105V71.5165C330.959 71.8675 331.043 72.186 331.212 72.472C331.381 72.7537 331.607 72.979 331.888 73.148C332.174 73.3127 332.491 73.395 332.837 73.395ZM338.777 76.5345L337.763 75.7805C338.279 75.1695 338.695 74.539 339.011 73.889C339.332 73.239 339.566 72.5738 339.713 71.8935C339.86 71.2132 339.934 70.522 339.934 69.82C339.934 69.1137 339.86 68.4225 339.713 67.7465C339.566 67.0662 339.334 66.4032 339.018 65.7575C338.701 65.1075 338.283 64.4748 337.763 63.8595L338.777 63.1055C339.28 63.6905 339.713 64.3513 340.077 65.088C340.441 65.8203 340.718 66.5917 340.909 67.402C341.1 68.208 341.189 69.014 341.176 69.82C341.189 70.626 341.1 71.4342 340.909 72.2445C340.718 73.0505 340.441 73.8197 340.077 74.552C339.713 75.2887 339.28 75.9495 338.777 76.5345Z" fill="#A1A1A1"></path> </g> <path d="M89.44 74.5V61.54H90.763V73.231H96.919V74.5H89.44ZM98.9358 74.5V61.54H100.259V74.5H98.9358ZM103.259 74.5V61.54H104.591L111.728 72.16V61.54H113.06V74.5H111.728L104.591 63.871V74.5H103.259ZM115.884 74.5V61.54H117.207V67.66L123.12 61.54H124.812L118.773 67.795L125.307 74.5H123.579L117.207 68.02V74.5H115.884Z" fill="black"></path> <rect x="37" y="18" width="48" height="24" rx="4" fill="white"></rect> <path d="M41.98 35V24.92H47.951V26.383H43.443V29.225H47.111V30.695H43.443V35H41.98ZM49.6324 35V24.92H53.7064C53.8044 24.92 53.9258 24.9247 54.0704 24.934C54.2151 24.9387 54.3528 24.9527 54.4834 24.976C55.0434 25.0647 55.5101 25.256 55.8834 25.55C56.2614 25.844 56.5438 26.215 56.7304 26.663C56.9171 27.111 57.0104 27.6057 57.0104 28.147C57.0104 28.9497 56.8051 29.6427 56.3944 30.226C55.9838 30.8047 55.3678 31.1663 54.5464 31.311L53.9514 31.381H51.0954V35H49.6324ZM55.5264 35L53.5384 30.898L55.0154 30.52L57.1994 35H55.5264ZM51.0954 29.995H53.6504C53.7438 29.995 53.8464 29.9903 53.9584 29.981C54.0751 29.9717 54.1848 29.9553 54.2874 29.932C54.5861 29.862 54.8264 29.7337 55.0084 29.547C55.1904 29.3557 55.3211 29.1363 55.4004 28.889C55.4798 28.6417 55.5194 28.3943 55.5194 28.147C55.5194 27.8997 55.4798 27.6547 55.4004 27.412C55.3211 27.1647 55.1904 26.9477 55.0084 26.761C54.8264 26.5697 54.5861 26.439 54.2874 26.369C54.1848 26.341 54.0751 26.3223 53.9584 26.313C53.8464 26.3037 53.7438 26.299 53.6504 26.299H51.0954V29.995ZM63.3649 35.21C62.3569 35.21 61.4982 34.9907 60.7889 34.552C60.0796 34.1087 59.5359 33.4927 59.1579 32.704C58.7846 31.9153 58.5979 31.0007 58.5979 29.96C58.5979 28.9193 58.7846 28.0047 59.1579 27.216C59.5359 26.4273 60.0796 25.8137 60.7889 25.375C61.4982 24.9317 62.3569 24.71 63.3649 24.71C64.3682 24.71 65.2246 24.9317 65.9339 25.375C66.6479 25.8137 67.1916 26.4273 67.5649 27.216C67.9382 28.0047 68.1249 28.9193 68.1249 29.96C68.1249 31.0007 67.9382 31.9153 67.5649 32.704C67.1916 33.4927 66.6479 34.1087 65.9339 34.552C65.2246 34.9907 64.3682 35.21 63.3649 35.21ZM63.3649 33.817C64.0789 33.8263 64.6716 33.67 65.1429 33.348C65.6189 33.0213 65.9759 32.5687 66.2139 31.99C66.4519 31.4067 66.5709 30.73 66.5709 29.96C66.5709 29.19 66.4519 28.518 66.2139 27.944C65.9759 27.3653 65.6189 26.915 65.1429 26.593C64.6716 26.271 64.0789 26.1077 63.3649 26.103C62.6509 26.0937 62.0559 26.25 61.5799 26.572C61.1086 26.894 60.7539 27.3467 60.5159 27.93C60.2779 28.5133 60.1566 29.19 60.1519 29.96C60.1472 30.73 60.2639 31.4043 60.5019 31.983C60.7399 32.557 61.0969 33.005 61.5729 33.327C62.0536 33.649 62.6509 33.8123 63.3649 33.817ZM69.9412 35V24.92H71.2642L74.9182 32.501L78.5512 24.92H79.8882V34.993H78.5022V28.098L75.2472 35H74.5822L71.3202 28.098V35H69.9412Z" fill="#616161"></path> <g filter="url(#filter4_ii_8972_167932)"> <rect x="40" y="133" width="314" height="50" rx="10" fill="url(#paint3_linear_8972_167932)"></rect> </g> <rect x="40.5" y="133.5" width="313" height="49" rx="9.5" stroke="url(#paint4_linear_8972_167932)"></rect> <g style="mix-blend-mode:multiply"> <mask id="path-19-inside-2_8972_167932" fill="white"> <path d="M40 151C40 143.501 40 139.751 41.9098 137.122C42.5266 136.273 43.2732 135.527 44.1221 134.91C46.7508 133 50.5005 133 58 133H162V183H58C50.5005 183 46.7508 183 44.1221 181.09C43.2732 180.473 42.5266 179.727 41.9098 178.878C40 176.249 40 172.499 40 165V151Z"></path> </mask> <g filter="url(#filter5_ii_8972_167932)"> <path d="M40 151C40 143.501 40 139.751 41.9098 137.122C42.5266 136.273 43.2732 135.527 44.1221 134.91C46.7508 133 50.5005 133 58 133H162V183H58C50.5005 183 46.7508 183 44.1221 181.09C43.2732 180.473 42.5266 179.727 41.9098 178.878C40 176.249 40 172.499 40 165V151Z" fill="#E6E6E6" fill-opacity="0.5"></path> </g> <path d="M40 133H162H40ZM162 183H40H162ZM40 183V133V183ZM163 133V183H161V133H163Z" fill="#E0E0E0" mask="url(#path-19-inside-2_8972_167932)"></path> </g> <g clip-path="url(#clip1_8972_167932)"> <g filter="url(#filter6_dd_8972_167932)"> <path d="M141.384 161.289C141.184 161.529 140.816 161.529 140.616 161.289L135.433 155.07C135.162 154.744 135.394 154.25 135.818 154.25L146.182 154.25C146.606 154.25 146.838 154.744 146.567 155.07L141.384 161.289Z" fill="#223189"></path> </g> </g> <rect opacity="0.7" x="54" y="145" width="26" height="26" rx="13" fill="#343434"></rect> <path d="M66.9989 161.306L61.6787 158.161L66.9988 149.333L72.319 158.161L66.9989 161.306Z" fill="white"></path> <path d="M66.9988 166.667L72.3221 159.17L66.9989 162.313L61.6787 159.17L66.9988 166.667Z" fill="white"></path> <g filter="url(#filter7_d_8972_167932)"> <path d="M201.686 164.5V153.907L199.256 155.392V152.998L201.686 151.54H203.9V164.5H201.686ZM214.825 164.5V162.358H209.083V160.333L213.232 151.54H215.707L211.558 160.333H214.825V156.958H217.021V160.333H218.236V162.358H217.021V164.5H214.825ZM221.042 164.5V162.277H223.265V164.5H221.042ZM230.771 151.27C231.617 151.27 232.379 151.471 233.057 151.873C233.735 152.269 234.269 152.821 234.659 153.529C235.055 154.237 235.253 155.05 235.253 155.968V159.91C235.253 160.894 235.055 161.749 234.659 162.475C234.269 163.201 233.72 163.762 233.012 164.158C232.304 164.554 231.476 164.752 230.528 164.752C229.874 164.752 229.256 164.641 228.674 164.419C228.092 164.197 227.57 163.849 227.108 163.375L228.665 161.854C228.899 162.124 229.178 162.337 229.502 162.493C229.832 162.649 230.174 162.727 230.528 162.727C231.032 162.727 231.473 162.61 231.851 162.376C232.229 162.136 232.523 161.824 232.733 161.44C232.943 161.056 233.048 160.645 233.048 160.207V158.056L233.435 158.488C233.069 158.92 232.625 159.259 232.103 159.505C231.581 159.745 231.032 159.865 230.456 159.865C229.646 159.865 228.926 159.682 228.296 159.316C227.672 158.944 227.18 158.44 226.82 157.804C226.466 157.162 226.289 156.433 226.289 155.617C226.289 154.807 226.493 154.075 226.901 153.421C227.309 152.761 227.852 152.239 228.53 151.855C229.214 151.465 229.961 151.27 230.771 151.27ZM230.771 153.349C230.351 153.349 229.967 153.451 229.619 153.655C229.271 153.853 228.995 154.126 228.791 154.474C228.587 154.816 228.485 155.197 228.485 155.617C228.485 156.037 228.584 156.421 228.782 156.769C228.986 157.117 229.259 157.396 229.601 157.606C229.949 157.81 230.333 157.912 230.753 157.912C231.173 157.912 231.557 157.81 231.905 157.606C232.253 157.396 232.529 157.117 232.733 156.769C232.943 156.421 233.048 156.037 233.048 155.617C233.048 155.209 232.946 154.834 232.742 154.492C232.538 154.144 232.262 153.868 231.914 153.664C231.572 153.454 231.191 153.349 230.771 153.349ZM241.975 164.743C241.327 164.743 240.715 164.617 240.139 164.365C239.563 164.113 239.062 163.756 238.636 163.294C238.216 162.832 237.913 162.286 237.727 161.656L239.824 161.089C239.974 161.605 240.247 162.004 240.643 162.286C241.045 162.562 241.486 162.697 241.966 162.691C242.392 162.691 242.773 162.592 243.109 162.394C243.445 162.196 243.709 161.929 243.901 161.593C244.093 161.251 244.189 160.87 244.189 160.45C244.189 159.808 243.982 159.271 243.568 158.839C243.154 158.407 242.62 158.191 241.966 158.191C241.768 158.191 241.573 158.218 241.381 158.272C241.195 158.326 241.015 158.401 240.841 158.497L239.851 156.787L244.207 153.061L244.396 153.583H238.231V151.54H246.178V153.592L242.677 156.958L242.659 156.319C243.445 156.373 244.114 156.592 244.666 156.976C245.224 157.36 245.65 157.855 245.944 158.461C246.244 159.067 246.394 159.73 246.394 160.45C246.394 161.266 246.193 161.998 245.791 162.646C245.395 163.294 244.861 163.807 244.189 164.185C243.523 164.557 242.785 164.743 241.975 164.743ZM250.937 164.5L255.401 153.592H249.74V151.54H257.723V153.592L253.277 164.5H250.937ZM265.165 164.77C264.319 164.77 263.557 164.572 262.879 164.176C262.207 163.774 261.673 163.219 261.277 162.511C260.881 161.803 260.683 160.99 260.683 160.072V156.13C260.683 155.146 260.878 154.291 261.268 153.565C261.664 152.839 262.216 152.278 262.924 151.882C263.638 151.486 264.466 151.288 265.408 151.288C266.062 151.288 266.683 151.399 267.271 151.621C267.859 151.837 268.381 152.185 268.837 152.665L267.271 154.186C267.043 153.916 266.764 153.703 266.434 153.547C266.11 153.391 265.768 153.313 265.408 153.313C264.904 153.313 264.463 153.433 264.085 153.673C263.707 153.907 263.413 154.216 263.203 154.6C262.999 154.984 262.897 155.395 262.897 155.833V157.984L262.501 157.552C262.873 157.12 263.32 156.784 263.842 156.544C264.364 156.298 264.91 156.175 265.48 156.175C266.296 156.175 267.016 156.361 267.64 156.733C268.264 157.099 268.756 157.603 269.116 158.245C269.476 158.881 269.656 159.607 269.656 160.423C269.656 161.233 269.449 161.968 269.035 162.628C268.627 163.282 268.084 163.804 267.406 164.194C266.728 164.578 265.981 164.77 265.165 164.77ZM265.165 162.691C265.585 162.691 265.969 162.592 266.317 162.394C266.665 162.19 266.941 161.917 267.145 161.575C267.355 161.227 267.46 160.843 267.46 160.423C267.46 160.003 267.358 159.619 267.154 159.271C266.95 158.923 266.674 158.647 266.326 158.443C265.984 158.233 265.603 158.128 265.183 158.128C264.763 158.128 264.379 158.233 264.031 158.443C263.683 158.647 263.407 158.923 263.203 159.271C262.999 159.619 262.897 160.003 262.897 160.423C262.897 160.831 262.996 161.209 263.194 161.557C263.398 161.899 263.671 162.175 264.013 162.385C264.361 162.589 264.745 162.691 265.165 162.691Z" fill="black"></path> <path d="M279.174 166.925C278.671 166.34 278.238 165.679 277.874 164.942C277.51 164.21 277.232 163.44 277.042 162.634C276.851 161.824 276.762 161.016 276.775 160.21C276.762 159.404 276.851 158.598 277.042 157.792C277.232 156.982 277.51 156.21 277.874 155.478C278.238 154.741 278.671 154.08 279.174 153.495L280.188 154.249C279.668 154.865 279.25 155.497 278.933 156.147C278.617 156.793 278.385 157.456 278.238 158.136C278.09 158.812 278.017 159.504 278.017 160.21C278.017 160.912 278.09 161.603 278.238 162.283C278.385 162.964 278.617 163.629 278.933 164.279C279.254 164.929 279.672 165.56 280.188 166.17L279.174 166.925ZM281.73 160.944V159.852H285.63V160.944H281.73ZM289.994 165.794V164.272H291.353V165.794H289.994ZM289.994 155.374V153.846H291.353V155.374H289.994ZM290.742 164.695C290.092 164.695 289.511 164.578 289 164.344C288.489 164.11 288.068 163.778 287.739 163.349C287.414 162.916 287.202 162.405 287.102 161.815L288.447 161.601C288.577 162.156 288.855 162.598 289.279 162.927C289.704 163.252 290.213 163.414 290.807 163.414C291.396 163.414 291.875 163.274 292.243 162.992C292.616 162.71 292.802 162.351 292.802 161.913C292.802 161.601 292.707 161.347 292.516 161.152C292.33 160.957 292.025 160.793 291.6 160.658L289.403 159.982C288.103 159.579 287.453 158.799 287.453 157.642C287.453 157.096 287.583 156.622 287.843 156.219C288.107 155.816 288.478 155.504 288.954 155.283C289.431 155.062 289.988 154.951 290.625 154.951C291.236 154.96 291.778 155.073 292.25 155.289C292.727 155.506 293.121 155.818 293.433 156.225C293.749 156.633 293.968 157.122 294.089 157.694L292.705 157.941C292.644 157.608 292.516 157.313 292.321 157.057C292.131 156.802 291.888 156.602 291.593 156.459C291.303 156.316 290.976 156.243 290.612 156.238C290.27 156.23 289.962 156.284 289.689 156.401C289.42 156.514 289.206 156.674 289.045 156.882C288.889 157.086 288.811 157.317 288.811 157.577C288.811 157.863 288.922 158.106 289.143 158.305C289.364 158.505 289.713 158.676 290.189 158.819L291.912 159.319C292.701 159.553 293.27 159.868 293.621 160.262C293.972 160.656 294.148 161.181 294.148 161.835C294.148 162.407 294.005 162.907 293.719 163.336C293.437 163.761 293.041 164.095 292.529 164.337C292.018 164.576 291.422 164.695 290.742 164.695ZM298.529 164.695C298.048 164.695 297.6 164.598 297.184 164.402C296.772 164.203 296.419 163.93 296.124 163.583C295.83 163.232 295.62 162.829 295.494 162.374L296.8 162.023C296.874 162.301 297 162.541 297.177 162.745C297.359 162.949 297.572 163.107 297.814 163.219C298.057 163.328 298.308 163.382 298.568 163.382C298.911 163.382 299.221 163.3 299.498 163.135C299.78 162.97 300.001 162.749 300.161 162.472C300.326 162.195 300.408 161.889 300.408 161.555C300.408 161.213 300.323 160.903 300.154 160.626C299.99 160.349 299.767 160.13 299.485 159.969C299.208 159.805 298.902 159.722 298.568 159.722C298.187 159.722 297.864 159.798 297.6 159.95C297.336 160.102 297.13 160.277 296.982 160.476L295.799 160.06L296.085 155.14H301.136V156.42H296.781L297.333 155.907L297.106 159.592L296.839 159.248C297.086 159.001 297.381 158.812 297.723 158.682C298.066 158.552 298.406 158.487 298.744 158.487C299.325 158.487 299.842 158.622 300.297 158.89C300.757 159.159 301.119 159.525 301.383 159.989C301.647 160.448 301.779 160.97 301.779 161.555C301.779 162.136 301.63 162.665 301.331 163.141C301.032 163.614 300.635 163.991 300.141 164.272C299.647 164.554 299.11 164.695 298.529 164.695ZM304.039 164.5L307.328 156.433H303.161V155.14H308.79V156.433L305.508 164.5H304.039ZM310.013 166.054L310.097 165.449C310.284 165.462 310.429 165.427 310.533 165.345C310.637 165.263 310.706 165.148 310.741 165.001C310.776 164.853 310.782 164.686 310.76 164.5H310.013V162.933H311.449V164.63C311.449 165.141 311.326 165.527 311.079 165.787C310.836 166.047 310.481 166.136 310.013 166.054ZM318.097 164.5V162.868H313.872V161.581L316.914 155.14H318.467L315.425 161.581H318.097V159.046H319.475V161.581H320.404V162.868H319.475V164.5H318.097ZM325.401 164.695C324.794 164.695 324.248 164.552 323.763 164.266C323.277 163.976 322.892 163.579 322.606 163.076C322.324 162.574 322.183 162.002 322.183 161.36V158.377C322.183 157.697 322.324 157.099 322.606 156.583C322.892 156.067 323.286 155.666 323.789 155.38C324.296 155.094 324.878 154.951 325.537 154.951C326.031 154.951 326.495 155.045 326.928 155.231C327.361 155.417 327.736 155.695 328.053 156.063L327.058 156.992C326.88 156.763 326.657 156.581 326.389 156.446C326.124 156.308 325.84 156.238 325.537 156.238C325.147 156.238 324.805 156.332 324.51 156.518C324.215 156.7 323.984 156.94 323.815 157.239C323.65 157.538 323.568 157.859 323.568 158.201V159.917L323.301 159.618C323.57 159.267 323.903 158.99 324.302 158.786C324.701 158.583 325.128 158.481 325.583 158.481C326.163 158.481 326.681 158.617 327.136 158.89C327.595 159.159 327.955 159.525 328.215 159.989C328.479 160.453 328.612 160.975 328.612 161.555C328.612 162.14 328.464 162.671 328.17 163.148C327.879 163.62 327.489 163.997 327 164.279C326.514 164.556 325.981 164.695 325.401 164.695ZM325.401 163.388C325.739 163.388 326.046 163.306 326.324 163.141C326.601 162.977 326.822 162.756 326.987 162.478C327.151 162.201 327.234 161.893 327.234 161.555C327.234 161.217 327.151 160.91 326.987 160.632C326.826 160.355 326.607 160.134 326.33 159.969C326.053 159.805 325.745 159.722 325.407 159.722C325.069 159.722 324.759 159.805 324.478 159.969C324.2 160.134 323.979 160.355 323.815 160.632C323.65 160.91 323.568 161.217 323.568 161.555C323.568 161.889 323.65 162.195 323.815 162.472C323.979 162.749 324.2 162.972 324.478 163.141C324.755 163.306 325.063 163.388 325.401 163.388ZM333.095 164.676C332.632 164.676 332.196 164.589 331.789 164.415C331.381 164.238 331.028 163.986 330.729 163.661C330.435 163.336 330.22 162.953 330.086 162.511L331.399 162.147C331.524 162.55 331.743 162.86 332.055 163.076C332.367 163.289 332.714 163.393 333.095 163.388C333.438 163.384 333.739 163.304 333.999 163.148C334.259 162.992 334.462 162.782 334.61 162.517C334.757 162.249 334.831 161.941 334.831 161.594C334.831 161.074 334.668 160.645 334.343 160.307C334.023 159.969 333.602 159.8 333.082 159.8C332.935 159.8 332.783 159.822 332.627 159.865C332.476 159.909 332.333 159.965 332.198 160.034L331.561 158.962L334.863 156.043L335.006 156.433H330.456V155.14H336.085V156.433L333.342 159.072L333.329 158.63C333.919 158.63 334.43 158.763 334.863 159.027C335.297 159.287 335.63 159.642 335.864 160.093C336.103 160.539 336.222 161.04 336.222 161.594C336.222 162.192 336.081 162.723 335.799 163.187C335.522 163.651 335.147 164.015 334.675 164.279C334.207 164.543 333.68 164.676 333.095 164.676ZM338.777 166.535L337.763 165.781C338.279 165.17 338.695 164.539 339.011 163.889C339.332 163.239 339.566 162.574 339.713 161.893C339.86 161.213 339.934 160.522 339.934 159.82C339.934 159.114 339.86 158.422 339.713 157.746C339.566 157.066 339.334 156.403 339.018 155.757C338.701 155.107 338.283 154.475 337.763 153.859L338.777 153.105C339.28 153.69 339.713 154.351 340.077 155.088C340.441 155.82 340.718 156.592 340.909 157.402C341.1 158.208 341.189 159.014 341.176 159.82C341.189 160.626 341.1 161.434 340.909 162.244C340.718 163.05 340.441 163.82 340.077 164.552C339.713 165.289 339.28 165.95 338.777 166.535Z" fill="#A1A1A1"></path> </g> <path d="M89.26 164.5V151.54H97.36V152.809H90.583V157.291H96.28V158.56H90.583V163.231H97.36V164.5H89.26ZM103.275 164.5V152.809H98.748V151.54H109.125V152.809H104.598V164.5H103.275ZM110.871 164.5V151.54H112.194V157.381H119.358V151.54H120.672V164.5H119.358V158.65H112.194V164.5H110.871Z" fill="black"></path> <path d="M44.493 125V116.299H41.14V114.92H49.309V116.299H45.956V125H44.493ZM55.0562 125.21C54.0482 125.21 53.1896 124.991 52.4802 124.552C51.7709 124.109 51.2272 123.493 50.8492 122.704C50.4759 121.915 50.2892 121.001 50.2892 119.96C50.2892 118.919 50.4759 118.005 50.8492 117.216C51.2272 116.427 51.7709 115.814 52.4802 115.375C53.1896 114.932 54.0482 114.71 55.0562 114.71C56.0596 114.71 56.9159 114.932 57.6252 115.375C58.3392 115.814 58.8829 116.427 59.2562 117.216C59.6296 118.005 59.8162 118.919 59.8162 119.96C59.8162 121.001 59.6296 121.915 59.2562 122.704C58.8829 123.493 58.3392 124.109 57.6252 124.552C56.9159 124.991 56.0596 125.21 55.0562 125.21ZM55.0562 123.817C55.7702 123.826 56.3629 123.67 56.8342 123.348C57.3102 123.021 57.6672 122.569 57.9052 121.99C58.1432 121.407 58.2622 120.73 58.2622 119.96C58.2622 119.19 58.1432 118.518 57.9052 117.944C57.6672 117.365 57.3102 116.915 56.8342 116.593C56.3629 116.271 55.7702 116.108 55.0562 116.103C54.3422 116.094 53.7472 116.25 53.2712 116.572C52.7999 116.894 52.4452 117.347 52.2072 117.93C51.9692 118.513 51.8479 119.19 51.8432 119.96C51.8386 120.73 51.9552 121.404 52.1932 121.983C52.4312 122.557 52.7882 123.005 53.2642 123.327C53.7449 123.649 54.3422 123.812 55.0562 123.817Z" fill="#616161"></path> <rect x="0.75" y="0.75" width="393.5" height="226.5" rx="19.25" stroke="#F7F7F7" stroke-width="1.5"></rect> <defs> <filter id="filter0_ii_8972_167932" x="40" y="43" width="314" height="53" filterUnits="userSpaceOnUse" color-interpolation-filters="sRGB"> <feFlood flood-opacity="0" result="BackgroundImageFix"></feFlood> <feBlend mode="normal" in="SourceGraphic" in2="BackgroundImageFix" result="shape"></feBlend> <feColorMatrix in="SourceAlpha" type="matrix" values="0 0 0 0 0 0 0 0 0 0 0 0 0 0 0 0 0 0 127 0" result="hardAlpha"></feColorMatrix> <feOffset dy="3"></feOffset> <feGaussianBlur stdDeviation="3"></feGaussianBlur> <feComposite in2="hardAlpha" operator="arithmetic" k2="-1" k3="1"></feComposite> <feColorMatrix type="matrix" values="0 0 0 0 0 0 0 0 0 0 0 0 0 0 0 0 0 0 0.06 0"></feColorMatrix> <feBlend mode="normal" in2="shape" result="effect1_innerShadow_8972_167932"></feBlend> <feColorMatrix in="SourceAlpha" type="matrix" values="0 0 0 0 0 0 0 0 0 0 0 0 0 0 0 0 0 0 127 0" result="hardAlpha"></feColorMatrix> <feOffset dy="1"></feOffset> <feGaussianBlur stdDeviation="1"></feGaussianBlur> <feComposite in2="hardAlpha" operator="arithmetic" k2="-1" k3="1"></feComposite> <feColorMatrix type="matrix" values="0 0 0 0 0 0 0 0 0 0 0 0 0 0 0 0 0 0 0.12 0"></feColorMatrix> <feBlend mode="normal" in2="effect1_innerShadow_8972_167932" result="effect2_innerShadow_8972_167932"></feBlend> </filter> <filter id="filter1_ii_8972_167932" x="40" y="43" width="122" height="53" filterUnits="userSpaceOnUse" color-interpolation-filters="sRGB"> <feFlood flood-opacity="0" result="BackgroundImageFix"></feFlood> <feBlend mode="normal" in="SourceGraphic" in2="BackgroundImageFix" result="shape"></feBlend> <feColorMatrix in="SourceAlpha" type="matrix" values="0 0 0 0 0 0 0 0 0 0 0 0 0 0 0 0 0 0 127 0" result="hardAlpha"></feColorMatrix> <feOffset dy="3"></feOffset> <feGaussianBlur stdDeviation="3"></feGaussianBlur> <feComposite in2="hardAlpha" operator="arithmetic" k2="-1" k3="1"></feComposite> <feColorMatrix type="matrix" values="0 0 0 0 0 0 0 0 0 0 0 0 0 0 0 0 0 0 0.06 0"></feColorMatrix> <feBlend mode="normal" in2="shape" result="effect1_innerShadow_8972_167932"></feBlend> <feColorMatrix in="SourceAlpha" type="matrix" values="0 0 0 0 0 0 0 0 0 0 0 0 0 0 0 0 0 0 127 0" result="hardAlpha"></feColorMatrix> <feOffset dy="1"></feOffset> <feGaussianBlur stdDeviation="1"></feGaussianBlur> <feComposite in2="hardAlpha" operator="arithmetic" k2="-1" k3="1"></feComposite> <feColorMatrix type="matrix" values="0 0 0 0 0 0 0 0 0 0 0 0 0 0 0 0 0 0 0.12 0"></feColorMatrix> <feBlend mode="normal" in2="effect1_innerShadow_8972_167932" result="effect2_innerShadow_8972_167932"></feBlend> </filter> <filter id="filter2_dd_8972_167932" x="119.316" y="56.25" width="43.3672" height="39.219" filterUnits="userSpaceOnUse" color-interpolation-filters="sRGB"> <feFlood flood-opacity="0" result="BackgroundImageFix"></feFlood> <feColorMatrix in="SourceAlpha" type="matrix" values="0 0 0 0 0 0 0 0 0 0 0 0 0 0 0 0 0 0 127 0" result="hardAlpha"></feColorMatrix> <feOffset dy="8"></feOffset> <feGaussianBlur stdDeviation="8"></feGaussianBlur> <feColorMatrix type="matrix" values="0 0 0 0 0.380392 0 0 0 0 0.380392 0 0 0 0 0.380392 0 0 0 0.14 0"></feColorMatrix> <feBlend mode="multiply" in2="BackgroundImageFix" result="effect1_dropShadow_8972_167932"></feBlend> <feColorMatrix in="SourceAlpha" type="matrix" values="0 0 0 0 0 0 0 0 0 0 0 0 0 0 0 0 0 0 127 0" result="hardAlpha"></feColorMatrix> <feOffset dy="4"></feOffset> <feGaussianBlur stdDeviation="4"></feGaussianBlur> <feColorMatrix type="matrix" values="0 0 0 0 0.380392 0 0 0 0 0.380392 0 0 0 0 0.380392 0 0 0 0.14 0"></feColorMatrix> <feBlend mode="multiply" in2="effect1_dropShadow_8972_167932" result="effect2_dropShadow_8972_167932"></feBlend> <feBlend mode="normal" in="SourceGraphic" in2="effect2_dropShadow_8972_167932" result="shape"></feBlend> </filter> <filter id="filter3_d_8972_167932" x="224.518" y="61.27" width="117.678" height="17.6544" filterUnits="userSpaceOnUse" color-interpolation-filters="sRGB"> <feFlood flood-opacity="0" result="BackgroundImageFix"></feFlood> <feColorMatrix in="SourceAlpha" type="matrix" values="0 0 0 0 0 0 0 0 0 0 0 0 0 0 0 0 0 0 127 0" result="hardAlpha"></feColorMatrix> <feOffset dy="1"></feOffset> <feGaussianBlur stdDeviation="0.5"></feGaussianBlur> <feComposite in2="hardAlpha" operator="out"></feComposite> <feColorMatrix type="matrix" values="0 0 0 0 1 0 0 0 0 1 0 0 0 0 1 0 0 0 1 0"></feColorMatrix> <feBlend mode="normal" in2="BackgroundImageFix" result="effect1_dropShadow_8972_167932"></feBlend> <feBlend mode="normal" in="SourceGraphic" in2="effect1_dropShadow_8972_167932" result="shape"></feBlend> </filter> <filter id="filter4_ii_8972_167932" x="40" y="133" width="314" height="53" filterUnits="userSpaceOnUse" color-interpolation-filters="sRGB"> <feFlood flood-opacity="0" result="BackgroundImageFix"></feFlood> <feBlend mode="normal" in="SourceGraphic" in2="BackgroundImageFix" result="shape"></feBlend> <feColorMatrix in="SourceAlpha" type="matrix" values="0 0 0 0 0 0 0 0 0 0 0 0 0 0 0 0 0 0 127 0" result="hardAlpha"></feColorMatrix> <feOffset dy="3"></feOffset> <feGaussianBlur stdDeviation="3"></feGaussianBlur> <feComposite in2="hardAlpha" operator="arithmetic" k2="-1" k3="1"></feComposite> <feColorMatrix type="matrix" values="0 0 0 0 0 0 0 0 0 0 0 0 0 0 0 0 0 0 0.06 0"></feColorMatrix> <feBlend mode="normal" in2="shape" result="effect1_innerShadow_8972_167932"></feBlend> <feColorMatrix in="SourceAlpha" type="matrix" values="0 0 0 0 0 0 0 0 0 0 0 0 0 0 0 0 0 0 127 0" result="hardAlpha"></feColorMatrix> <feOffset dy="1"></feOffset> <feGaussianBlur stdDeviation="1"></feGaussianBlur> <feComposite in2="hardAlpha" operator="arithmetic" k2="-1" k3="1"></feComposite> <feColorMatrix type="matrix" values="0 0 0 0 0 0 0 0 0 0 0 0 0 0 0 0 0 0 0.12 0"></feColorMatrix> <feBlend mode="normal" in2="effect1_innerShadow_8972_167932" result="effect2_innerShadow_8972_167932"></feBlend> </filter> <filter id="filter5_ii_8972_167932" x="40" y="133" width="122" height="53" filterUnits="userSpaceOnUse" color-interpolation-filters="sRGB"> <feFlood flood-opacity="0" result="BackgroundImageFix"></feFlood> <feBlend mode="normal" in="SourceGraphic" in2="BackgroundImageFix" result="shape"></feBlend> <feColorMatrix in="SourceAlpha" type="matrix" values="0 0 0 0 0 0 0 0 0 0 0 0 0 0 0 0 0 0 127 0" result="hardAlpha"></feColorMatrix> <feOffset dy="3"></feOffset> <feGaussianBlur stdDeviation="3"></feGaussianBlur> <feComposite in2="hardAlpha" operator="arithmetic" k2="-1" k3="1"></feComposite> <feColorMatrix type="matrix" values="0 0 0 0 0 0 0 0 0 0 0 0 0 0 0 0 0 0 0.06 0"></feColorMatrix> <feBlend mode="normal" in2="shape" result="effect1_innerShadow_8972_167932"></feBlend> <feColorMatrix in="SourceAlpha" type="matrix" values="0 0 0 0 0 0 0 0 0 0 0 0 0 0 0 0 0 0 127 0" result="hardAlpha"></feColorMatrix> <feOffset dy="1"></feOffset> <feGaussianBlur stdDeviation="1"></feGaussianBlur> <feComposite in2="hardAlpha" operator="arithmetic" k2="-1" k3="1"></feComposite> <feColorMatrix type="matrix" values="0 0 0 0 0 0 0 0 0 0 0 0 0 0 0 0 0 0 0.12 0"></feColorMatrix> <feBlend mode="normal" in2="effect1_innerShadow_8972_167932" result="effect2_innerShadow_8972_167932"></feBlend> </filter> <filter id="filter6_dd_8972_167932" x="119.316" y="146.25" width="43.3672" height="39.219" filterUnits="userSpaceOnUse" color-interpolation-filters="sRGB"> <feFlood flood-opacity="0" result="BackgroundImageFix"></feFlood> <feColorMatrix in="SourceAlpha" type="matrix" values="0 0 0 0 0 0 0 0 0 0 0 0 0 0 0 0 0 0 127 0" result="hardAlpha"></feColorMatrix> <feOffset dy="8"></feOffset> <feGaussianBlur stdDeviation="8"></feGaussianBlur> <feColorMatrix type="matrix" values="0 0 0 0 0.380392 0 0 0 0 0.380392 0 0 0 0 0.380392 0 0 0 0.14 0"></feColorMatrix> <feBlend mode="multiply" in2="BackgroundImageFix" result="effect1_dropShadow_8972_167932"></feBlend> <feColorMatrix in="SourceAlpha" type="matrix" values="0 0 0 0 0 0 0 0 0 0 0 0 0 0 0 0 0 0 127 0" result="hardAlpha"></feColorMatrix> <feOffset dy="4"></feOffset> <feGaussianBlur stdDeviation="4"></feGaussianBlur> <feColorMatrix type="matrix" values="0 0 0 0 0.380392 0 0 0 0 0.380392 0 0 0 0 0.380392 0 0 0 0.14 0"></feColorMatrix> <feBlend mode="multiply" in2="effect1_dropShadow_8972_167932" result="effect2_dropShadow_8972_167932"></feBlend> <feBlend mode="normal" in="SourceGraphic" in2="effect2_dropShadow_8972_167932" result="shape"></feBlend> </filter> <filter id="filter7_d_8972_167932" x="198.256" y="151.27" width="143.939" height="17.6544" filterUnits="userSpaceOnUse" color-interpolation-filters="sRGB"> <feFlood flood-opacity="0" result="BackgroundImageFix"></feFlood> <feColorMatrix in="SourceAlpha" type="matrix" values="0 0 0 0 0 0 0 0 0 0 0 0 0 0 0 0 0 0 127 0" result="hardAlpha"></feColorMatrix> <feOffset dy="1"></feOffset> <feGaussianBlur stdDeviation="0.5"></feGaussianBlur> <feComposite in2="hardAlpha" operator="out"></feComposite> <feColorMatrix type="matrix" values="0 0 0 0 1 0 0 0 0 1 0 0 0 0 1 0 0 0 1 0"></feColorMatrix> <feBlend mode="normal" in2="BackgroundImageFix" result="effect1_dropShadow_8972_167932"></feBlend> <feBlend mode="normal" in="SourceGraphic" in2="effect1_dropShadow_8972_167932" result="shape"></feBlend> </filter> <linearGradient id="paint0_linear_8972_167932" x1="197.5" y1="0" x2="197.5" y2="228" gradientUnits="userSpaceOnUse"> <stop stop-color="white"></stop> <stop offset="0.8125" stop-color="#FAF9FA"></stop> </linearGradient> <linearGradient id="paint1_linear_8972_167932" x1="197" y1="43" x2="197" y2="93" gradientUnits="userSpaceOnUse"> <stop stop-color="#F5F5F5"></stop> <stop offset="1" stop-color="white"></stop> </linearGradient> <linearGradient id="paint2_linear_8972_167932" x1="197" y1="43" x2="197" y2="93" gradientUnits="userSpaceOnUse"> <stop stop-color="#EEEEEE" stop-opacity="0"></stop> <stop offset="1" stop-color="#F1F0F4"></stop> </linearGradient> <linearGradient id="paint3_linear_8972_167932" x1="197" y1="133" x2="197" y2="183" gradientUnits="userSpaceOnUse"> <stop stop-color="#F5F5F5"></stop> <stop offset="1" stop-color="white"></stop> </linearGradient> <linearGradient id="paint4_linear_8972_167932" x1="197" y1="133" x2="197" y2="183" gradientUnits="userSpaceOnUse"> <stop stop-color="#EEEEEE" stop-opacity="0"></stop> <stop offset="1" stop-color="#F1F0F4"></stop> </linearGradient> <clipPath id="clip0_8972_167932"> <rect width="30" height="30" fill="white" transform="translate(126 53)"></rect> </clipPath> <clipPath id="clip1_8972_167932"> <rect width="30" height="30" fill="white" transform="translate(126 143)"></rect> </clipPath> </defs> </svg> 