<svg width="52" height="52" viewBox="0 0 52 52" fill="none" xmlns="http://www.w3.org/2000/svg">
<g filter="url(#filter0_ii_4585_20686)">
<rect width="52" height="52" rx="26" fill="#7C4DFF"/>
<path fill-rule="evenodd" clip-rule="evenodd" d="M30.1667 22.667H19.3334C18.8734 22.667 18.5 22.2945 18.5 21.8337C18.5 21.3728 18.8734 21.0003 19.3334 21.0003H30.235L28.9367 19.992C28.5734 19.7095 28.5075 19.1853 28.79 18.8228C29.0725 18.4587 29.5967 18.3928 29.9592 18.6753L33.1775 21.1753C33.3834 21.3345 33.5017 21.5803 33.5 21.8412C33.4984 22.1003 33.375 22.3445 33.1667 22.5003L29.8334 25.0003C29.6834 25.1128 29.5075 25.167 29.3342 25.167C29.0809 25.167 28.83 25.052 28.6667 24.8337C28.3909 24.4653 28.465 23.9428 28.8334 23.667L30.1667 22.667ZM21.8334 28.5003H32.6667C33.1267 28.5003 33.5 28.8728 33.5 29.3337C33.5 29.7945 33.1267 30.167 32.6667 30.167H21.765L23.0634 31.1753C23.4267 31.4578 23.4925 31.982 23.21 32.3445C23.0459 32.5562 22.8 32.667 22.5517 32.667C22.3725 32.667 22.1925 32.6103 22.0409 32.492L18.8225 29.992C18.6167 29.8328 18.4984 29.587 18.5 29.3262C18.5017 29.067 18.625 28.8228 18.8334 28.667L22.1667 26.167C22.5359 25.8912 23.0575 25.9653 23.3334 26.3337C23.6092 26.702 23.535 27.2245 23.1667 27.5003L21.8334 28.5003Z" fill="white"/>
<mask id="mask0_4585_20686" style="mask-type:luminance" maskUnits="userSpaceOnUse" x="18" y="18" width="16" height="15">
<path fill-rule="evenodd" clip-rule="evenodd" d="M30.1667 22.667H19.3334C18.8734 22.667 18.5 22.2945 18.5 21.8337C18.5 21.3728 18.8734 21.0003 19.3334 21.0003H30.235L28.9367 19.992C28.5734 19.7095 28.5075 19.1853 28.79 18.8228C29.0725 18.4587 29.5967 18.3928 29.9592 18.6753L33.1775 21.1753C33.3834 21.3345 33.5017 21.5803 33.5 21.8412C33.4984 22.1003 33.375 22.3445 33.1667 22.5003L29.8334 25.0003C29.6834 25.1128 29.5075 25.167 29.3342 25.167C29.0809 25.167 28.83 25.052 28.6667 24.8337C28.3909 24.4653 28.465 23.9428 28.8334 23.667L30.1667 22.667ZM21.8334 28.5003H32.6667C33.1267 28.5003 33.5 28.8728 33.5 29.3337C33.5 29.7945 33.1267 30.167 32.6667 30.167H21.765L23.0634 31.1753C23.4267 31.4578 23.4925 31.982 23.21 32.3445C23.0459 32.5562 22.8 32.667 22.5517 32.667C22.3725 32.667 22.1925 32.6103 22.0409 32.492L18.8225 29.992C18.6167 29.8328 18.4984 29.587 18.5 29.3262C18.5017 29.067 18.625 28.8228 18.8334 28.667L22.1667 26.167C22.5359 25.8912 23.0575 25.9653 23.3334 26.3337C23.6092 26.702 23.535 27.2245 23.1667 27.5003L21.8334 28.5003Z" fill="white"/>
</mask>
<g mask="url(#mask0_4585_20686)">
<rect x="16" y="16" width="20" height="20" fill="white"/>
</g>
</g>
<defs>
<filter id="filter0_ii_4585_20686" x="0" y="-1" width="52" height="58" filterUnits="userSpaceOnUse" color-interpolation-filters="sRGB">
<feFlood flood-opacity="0" result="BackgroundImageFix"/>
<feBlend mode="normal" in="SourceGraphic" in2="BackgroundImageFix" result="shape"/>
<feColorMatrix in="SourceAlpha" type="matrix" values="0 0 0 0 0 0 0 0 0 0 0 0 0 0 0 0 0 0 127 0" result="hardAlpha"/>
<feOffset dy="5"/>
<feGaussianBlur stdDeviation="5"/>
<feComposite in2="hardAlpha" operator="arithmetic" k2="-1" k3="1"/>
<feColorMatrix type="matrix" values="0 0 0 0 0.941176 0 0 0 0 0.921569 0 0 0 0 1 0 0 0 0.3 0"/>
<feBlend mode="normal" in2="shape" result="effect1_innerShadow_4585_20686"/>
<feColorMatrix in="SourceAlpha" type="matrix" values="0 0 0 0 0 0 0 0 0 0 0 0 0 0 0 0 0 0 127 0" result="hardAlpha"/>
<feOffset dy="-6"/>
<feGaussianBlur stdDeviation="0.5"/>
<feComposite in2="hardAlpha" operator="arithmetic" k2="-1" k3="1"/>
<feColorMatrix type="matrix" values="0 0 0 0 0.168627 0 0 0 0 0 0 0 0 0 0.639216 0 0 0 0.5 0"/>
<feBlend mode="normal" in2="effect1_innerShadow_4585_20686" result="effect2_innerShadow_4585_20686"/>
</filter>
</defs>
</svg>
