<?xml version="1.0" encoding="UTF-8"?> <svg xmlns="http://www.w3.org/2000/svg" width="260" height="260" viewBox="0 0 260 260" fill="none"> <g clip-path="url(#clip0)"> <rect width="260" height="260" rx="20" fill="#F0F0F1"></rect> <rect x="24.5" y="208.5" width="342" height="27" rx="3.5" stroke="#007AFF"></rect> <path d="M252.439 227V223.033H256.495V222.017H252.439V218.869H256.857V217.84H251.296V227H252.439ZM261.328 227.121C263.277 227.121 264.483 225.775 264.483 223.579C264.483 221.376 263.277 220.037 261.328 220.037C259.379 220.037 258.173 221.376 258.173 223.579C258.173 225.775 259.379 227.121 261.328 227.121ZM261.328 226.137C260.033 226.137 259.303 225.197 259.303 223.579C259.303 221.954 260.033 221.021 261.328 221.021C262.623 221.021 263.353 221.954 263.353 223.579C263.353 225.197 262.623 226.137 261.328 226.137ZM271.652 220.157H270.56V224.207C270.56 225.407 269.9 226.124 268.694 226.124C267.602 226.124 267.145 225.553 267.145 224.321V220.157H266.053V224.588C266.053 226.207 266.853 227.121 268.389 227.121C269.437 227.121 270.167 226.689 270.509 225.927H270.611V227H271.652V220.157ZM273.628 227H274.72V222.76C274.72 221.795 275.476 221.097 276.517 221.097C276.732 221.097 277.126 221.135 277.215 221.16V220.068C277.075 220.049 276.847 220.037 276.669 220.037C275.761 220.037 274.974 220.506 274.771 221.173H274.67V220.157H273.628V227Z" fill="#007AFF"></path> <path d="M182.305 227V218.869H185.257V217.84H178.211V218.869H181.162V227H182.305ZM186.865 227H187.957V222.95C187.957 221.795 188.63 221.021 189.855 221.021C190.89 221.021 191.435 221.624 191.435 222.836V227H192.527V222.569C192.527 220.963 191.613 220.037 190.166 220.037C189.119 220.037 188.401 220.481 188.058 221.236H187.957V217.44H186.865V227ZM194.44 227H195.532V222.76C195.532 221.795 196.288 221.097 197.329 221.097C197.544 221.097 197.938 221.135 198.027 221.16V220.068C197.887 220.049 197.659 220.037 197.481 220.037C196.573 220.037 195.786 220.506 195.583 221.173H195.481V220.157H194.44V227ZM201.851 221.001C202.936 221.001 203.66 221.801 203.685 223.014H199.915C199.997 221.801 200.759 221.001 201.851 221.001ZM203.653 225.229C203.368 225.832 202.771 226.156 201.889 226.156C200.727 226.156 199.972 225.299 199.915 223.947V223.896H204.834V223.477C204.834 221.351 203.71 220.037 201.863 220.037C199.984 220.037 198.778 221.433 198.778 223.585C198.778 225.75 199.965 227.121 201.863 227.121C203.361 227.121 204.428 226.397 204.745 225.229H203.653ZM209.197 221.001C210.283 221.001 211.006 221.801 211.032 223.014H207.261C207.344 221.801 208.106 221.001 209.197 221.001ZM211 225.229C210.714 225.832 210.118 226.156 209.235 226.156C208.074 226.156 207.318 225.299 207.261 223.947V223.896H212.181V223.477C212.181 221.351 211.057 220.037 209.21 220.037C207.331 220.037 206.125 221.433 206.125 223.585C206.125 225.75 207.312 227.121 209.21 227.121C210.708 227.121 211.775 226.397 212.092 225.229H211Z" fill="#007AFF"></path> <path d="M118.956 227V218.869H121.908V217.84H114.862V218.869H117.814V227H118.956ZM131.235 220.157H130.137L128.791 225.629H128.69L127.16 220.157H126.113L124.583 225.629H124.481L123.136 220.157H122.031L123.948 227H125.053L126.576 221.706H126.678L128.207 227H129.318L131.235 220.157ZM135.173 227.121C137.122 227.121 138.328 225.775 138.328 223.579C138.328 221.376 137.122 220.037 135.173 220.037C133.225 220.037 132.019 221.376 132.019 223.579C132.019 225.775 133.225 227.121 135.173 227.121ZM135.173 226.137C133.878 226.137 133.148 225.197 133.148 223.579C133.148 221.954 133.878 221.021 135.173 221.021C136.468 221.021 137.198 221.954 137.198 223.579C137.198 225.197 136.468 226.137 135.173 226.137Z" fill="#007AFF"></path> <path d="M24 212C24 209.791 25.7909 208 28 208H92V236H28C25.7909 236 24 234.209 24 232V212Z" fill="#007AFF"></path> <path d="M50.6107 217.625C48.0209 217.625 46.4086 219.472 46.4086 222.417C46.4086 225.35 47.9828 227.216 50.6107 227.216C53.226 227.216 54.8129 225.343 54.8129 222.417C54.8129 219.478 53.2133 217.625 50.6107 217.625ZM50.6107 218.678C52.4833 218.678 53.6386 220.125 53.6386 222.417C53.6386 224.689 52.4896 226.162 50.6107 226.162C48.7064 226.162 47.5829 224.689 47.5829 222.417C47.5829 220.125 48.7445 218.678 50.6107 218.678ZM56.5737 227H57.6655V222.95C57.6655 221.75 58.3701 221.021 59.4619 221.021C60.5537 221.021 61.0742 221.604 61.0742 222.836V227H62.166V222.569C62.166 220.944 61.309 220.037 59.7729 220.037C58.7255 220.037 58.059 220.481 57.7163 221.236H57.6147V220.157H56.5737V227ZM66.815 221.001C67.9004 221.001 68.6241 221.801 68.6495 223.014H64.8789C64.9615 221.801 65.7232 221.001 66.815 221.001ZM68.6177 225.229C68.3321 225.832 67.7354 226.156 66.8531 226.156C65.6914 226.156 64.9361 225.299 64.8789 223.947V223.896H69.7984V223.477C69.7984 221.351 68.6748 220.037 66.8277 220.037C64.9488 220.037 63.7427 221.433 63.7427 223.585C63.7427 225.75 64.9297 227.121 66.8277 227.121C68.3257 227.121 69.3921 226.397 69.7095 225.229H68.6177Z" fill="white"></path> <rect x="228.806" y="208" width="0.994186" height="28" fill="#007AFF"></rect> <rect x="160.206" y="208" width="0.994202" height="28" fill="#007AFF"></rect> <rect x="91.6055" y="208" width="0.994202" height="28" fill="#007AFF"></rect> <rect x="24.5" y="162.5" width="342" height="27" rx="3.5" stroke="#007AFF"></rect> <path d="M224.608 181V172.869H227.559V171.84H220.513V172.869H223.465V181H224.608ZM229.168 181H230.26V176.95C230.26 175.795 230.933 175.021 232.158 175.021C233.192 175.021 233.738 175.624 233.738 176.836V181H234.83V176.569C234.83 174.963 233.916 174.037 232.469 174.037C231.421 174.037 230.704 174.481 230.361 175.236H230.26V171.44H229.168V181ZM236.743 181H237.835V176.76C237.835 175.795 238.59 175.097 239.631 175.097C239.847 175.097 240.241 175.135 240.33 175.16V174.068C240.19 174.049 239.961 174.037 239.784 174.037C238.876 174.037 238.089 174.506 237.886 175.173H237.784V174.157H236.743V181ZM244.153 175.001C245.239 175.001 245.962 175.801 245.988 177.014H242.217C242.3 175.801 243.062 175.001 244.153 175.001ZM245.956 179.229C245.67 179.832 245.074 180.156 244.191 180.156C243.03 180.156 242.274 179.299 242.217 177.947V177.896H247.137V177.477C247.137 175.351 246.013 174.037 244.166 174.037C242.287 174.037 241.081 175.433 241.081 177.585C241.081 179.75 242.268 181.121 244.166 181.121C245.664 181.121 246.731 180.397 247.048 179.229H245.956ZM251.5 175.001C252.586 175.001 253.309 175.801 253.335 177.014H249.564C249.647 175.801 250.408 175.001 251.5 175.001ZM253.303 179.229C253.017 179.832 252.421 180.156 251.538 180.156C250.377 180.156 249.621 179.299 249.564 177.947V177.896H254.484V177.477C254.484 175.351 253.36 174.037 251.513 174.037C249.634 174.037 248.428 175.433 248.428 177.585C248.428 179.75 249.615 181.121 251.513 181.121C253.011 181.121 254.077 180.397 254.395 179.229H253.303Z" fill="#007AFF"></path> <path d="M144.358 181V172.869H147.309V171.84H140.264V172.869H143.215V181H144.358ZM156.637 174.157H155.539L154.193 179.629H154.091L152.561 174.157H151.514L149.984 179.629H149.883L148.537 174.157H147.433L149.35 181H150.454L151.977 175.706H152.079L153.609 181H154.72L156.637 174.157ZM160.575 181.121C162.523 181.121 163.73 179.775 163.73 177.579C163.73 175.376 162.523 174.037 160.575 174.037C158.626 174.037 157.42 175.376 157.42 177.579C157.42 179.775 158.626 181.121 160.575 181.121ZM160.575 180.137C159.28 180.137 158.55 179.197 158.55 177.579C158.55 175.954 159.28 175.021 160.575 175.021C161.87 175.021 162.6 175.954 162.6 177.579C162.6 179.197 161.87 180.137 160.575 180.137Z" fill="#007AFF"></path> <path d="M24 166C24 163.791 25.7909 162 28 162H109V190H28C25.7909 190 24 188.209 24 186V166Z" fill="#007AFF"></path> <path d="M59.1107 171.625C56.5209 171.625 54.9086 173.472 54.9086 176.417C54.9086 179.35 56.4828 181.216 59.1107 181.216C61.726 181.216 63.3129 179.343 63.3129 176.417C63.3129 173.478 61.7133 171.625 59.1107 171.625ZM59.1107 172.678C60.9833 172.678 62.1386 174.125 62.1386 176.417C62.1386 178.689 60.9896 180.162 59.1107 180.162C57.2064 180.162 56.0829 178.689 56.0829 176.417C56.0829 174.125 57.2445 172.678 59.1107 172.678ZM65.0737 181H66.1655V176.95C66.1655 175.75 66.8701 175.021 67.9619 175.021C69.0537 175.021 69.5742 175.604 69.5742 176.836V181H70.666V176.569C70.666 174.944 69.809 174.037 68.2729 174.037C67.2255 174.037 66.559 174.481 66.2163 175.236H66.1147V174.157H65.0737V181ZM75.315 175.001C76.4004 175.001 77.1241 175.801 77.1495 177.014H73.3789C73.4615 175.801 74.2232 175.001 75.315 175.001ZM77.1177 179.229C76.8321 179.832 76.2354 180.156 75.3531 180.156C74.1914 180.156 73.4361 179.299 73.3789 177.947V177.896H78.2984V177.477C78.2984 175.351 77.1748 174.037 75.3277 174.037C73.4488 174.037 72.2427 175.433 72.2427 177.585C72.2427 179.75 73.4297 181.121 75.3277 181.121C76.8257 181.121 77.8921 180.397 78.2095 179.229H77.1177Z" fill="white"></path> <rect x="194.009" y="162" width="0.994202" height="28" fill="#007AFF"></rect> <rect x="108.507" y="162" width="0.994202" height="28" fill="#007AFF"></rect> <rect x="24" y="114" width="343" height="32" rx="8" fill="#DEDEE6"></rect> <path d="M224.608 135V126.869H227.559V125.84H220.513V126.869H223.465V135H224.608ZM229.168 135H230.26V130.95C230.26 129.795 230.933 129.021 232.158 129.021C233.192 129.021 233.738 129.624 233.738 130.836V135H234.83V130.569C234.83 128.963 233.916 128.037 232.469 128.037C231.421 128.037 230.704 128.481 230.361 129.236H230.26V125.44H229.168V135ZM236.743 135H237.835V130.76C237.835 129.795 238.59 129.097 239.631 129.097C239.847 129.097 240.241 129.135 240.33 129.16V128.068C240.19 128.049 239.961 128.037 239.784 128.037C238.876 128.037 238.089 128.506 237.886 129.173H237.784V128.157H236.743V135ZM244.153 129.001C245.239 129.001 245.962 129.801 245.988 131.014H242.217C242.3 129.801 243.062 129.001 244.153 129.001ZM245.956 133.229C245.67 133.832 245.074 134.156 244.191 134.156C243.03 134.156 242.274 133.299 242.217 131.947V131.896H247.137V131.477C247.137 129.351 246.013 128.037 244.166 128.037C242.287 128.037 241.081 129.433 241.081 131.585C241.081 133.75 242.268 135.121 244.166 135.121C245.664 135.121 246.731 134.397 247.048 133.229H245.956ZM251.5 129.001C252.586 129.001 253.309 129.801 253.335 131.014H249.564C249.647 129.801 250.408 129.001 251.5 129.001ZM253.303 133.229C253.017 133.832 252.421 134.156 251.538 134.156C250.377 134.156 249.621 133.299 249.564 131.947V131.896H254.484V131.477C254.484 129.351 253.36 128.037 251.513 128.037C249.634 128.037 248.428 129.433 248.428 131.585C248.428 133.75 249.615 135.121 251.513 135.121C253.011 135.121 254.077 134.397 254.395 133.229H253.303Z" fill="#232326"></path> <path d="M144.358 135V126.869H147.309V125.84H140.264V126.869H143.215V135H144.358ZM156.637 128.157H155.539L154.193 133.629H154.091L152.561 128.157H151.514L149.984 133.629H149.883L148.537 128.157H147.433L149.35 135H150.454L151.977 129.706H152.079L153.609 135H154.72L156.637 128.157ZM160.575 135.121C162.523 135.121 163.73 133.775 163.73 131.579C163.73 129.376 162.523 128.037 160.575 128.037C158.626 128.037 157.42 129.376 157.42 131.579C157.42 133.775 158.626 135.121 160.575 135.121ZM160.575 134.137C159.28 134.137 158.55 133.197 158.55 131.579C158.55 129.954 159.28 129.021 160.575 129.021C161.87 129.021 162.6 129.954 162.6 131.579C162.6 133.197 161.87 134.137 160.575 134.137Z" fill="#232326"></path> <g filter="url(#filter0_dd)"> <rect x="25.8291" y="116" width="83" height="28" rx="8" fill="white"></rect> </g> <path d="M59.7684 125.618C57.1405 125.618 55.4901 127.459 55.4901 130.417C55.4901 133.369 57.1024 135.222 59.7684 135.222C62.4154 135.222 64.0404 133.362 64.0404 130.417C64.0404 127.465 62.4027 125.618 59.7684 125.618ZM59.7684 126.945C61.5013 126.945 62.5868 128.291 62.5868 130.417C62.5868 132.531 61.5077 133.896 59.7684 133.896C58.0038 133.896 56.9437 132.531 56.9437 130.417C56.9437 128.291 58.0355 126.945 59.7684 126.945ZM65.7314 135H67.0962V130.957C67.0962 129.877 67.7373 129.205 68.7465 129.205C69.7558 129.205 70.2382 129.757 70.2382 130.868V135H71.603V130.525C71.603 128.881 70.7524 127.954 69.2099 127.954C68.1689 127.954 67.4834 128.417 67.1469 129.186H67.0454V128.087H65.7314V135ZM76.2837 129.116C77.293 129.116 77.9532 129.82 77.9849 130.906H74.4937C74.5699 129.827 75.2745 129.116 76.2837 129.116ZM77.9786 133.134C77.7246 133.673 77.1597 133.972 76.3345 133.972C75.2427 133.972 74.5381 133.204 74.4937 131.991V131.915H79.375V131.439C79.375 129.268 78.2134 127.954 76.2901 127.954C74.3413 127.954 73.1036 129.357 73.1036 131.566C73.1036 133.775 74.316 135.133 76.2964 135.133C77.877 135.133 78.9942 134.365 79.2925 133.134H77.9786Z" fill="black"></path> <line x1="194.5" y1="121" x2="194.5" y2="139" stroke="black" stroke-opacity="0.16"></line> <rect x="24" y="68" width="343" height="32" rx="8" fill="#DEDEE6"></rect> <path d="M173.178 86.6069C173.299 88.1875 174.638 89.2158 176.581 89.2158C178.676 89.2158 180.002 88.1431 180.002 86.4609C180.002 85.1152 179.24 84.3789 177.343 83.9028L176.384 83.6489C175.121 83.3252 174.619 82.9126 174.619 82.1953C174.619 81.2686 175.426 80.6592 176.644 80.6592C177.787 80.6592 178.561 81.2178 178.72 82.1572H179.869C179.774 80.6782 178.453 79.6245 176.682 79.6245C174.746 79.6245 173.445 80.6782 173.445 82.2334C173.445 83.5347 174.162 84.2837 175.819 84.7026L176.993 85.0073C178.257 85.3247 178.828 85.8198 178.828 86.6006C178.828 87.5083 177.92 88.1748 176.689 88.1748C175.387 88.1748 174.473 87.5654 174.334 86.6069H173.178ZM184.416 83.0015C185.502 83.0015 186.225 83.8013 186.251 85.0137H182.48C182.563 83.8013 183.325 83.0015 184.416 83.0015ZM186.219 87.229C185.933 87.832 185.337 88.1558 184.454 88.1558C183.293 88.1558 182.537 87.2988 182.48 85.9468V85.896H187.4V85.4771C187.4 83.3506 186.276 82.0366 184.429 82.0366C182.55 82.0366 181.344 83.4331 181.344 85.585C181.344 87.7495 182.531 89.1206 184.429 89.1206C185.927 89.1206 186.993 88.397 187.311 87.229H186.219ZM194.696 84.252C194.505 83.0332 193.49 82.0366 191.827 82.0366C189.91 82.0366 188.691 83.4204 188.691 85.5532C188.691 87.7305 189.916 89.1206 191.833 89.1206C193.477 89.1206 194.499 88.1938 194.696 86.937H193.591C193.388 87.7114 192.747 88.1367 191.827 88.1367C190.608 88.1367 189.821 87.1338 189.821 85.5532C189.821 84.0044 190.595 83.0205 191.827 83.0205C192.81 83.0205 193.413 83.5728 193.591 84.252H194.696ZM199.04 89.1206C200.989 89.1206 202.195 87.7749 202.195 85.5786C202.195 83.376 200.989 82.0366 199.04 82.0366C197.091 82.0366 195.885 83.376 195.885 85.5786C195.885 87.7749 197.091 89.1206 199.04 89.1206ZM199.04 88.1367C197.745 88.1367 197.015 87.1973 197.015 85.5786C197.015 83.9536 197.745 83.0205 199.04 83.0205C200.335 83.0205 201.065 83.9536 201.065 85.5786C201.065 87.1973 200.335 88.1367 199.04 88.1367ZM203.829 89H204.92V84.9502C204.92 83.7505 205.625 83.0205 206.717 83.0205C207.809 83.0205 208.329 83.6045 208.329 84.8359V89H209.421V84.5693C209.421 82.9443 208.564 82.0366 207.028 82.0366C205.981 82.0366 205.314 82.481 204.971 83.2363H204.87V82.1572H203.829V89ZM213.873 89.1206C214.819 89.1206 215.632 88.6699 216.063 87.9082H216.165V89H217.206V79.4404H216.114V83.2363H216.019C215.632 82.4873 214.825 82.0366 213.873 82.0366C212.134 82.0366 210.998 83.4331 210.998 85.5786C210.998 87.7305 212.121 89.1206 213.873 89.1206ZM214.127 83.0205C215.365 83.0205 216.139 84.0107 216.139 85.5786C216.139 87.1592 215.371 88.1367 214.127 88.1367C212.877 88.1367 212.128 87.1782 212.128 85.5786C212.128 83.9854 212.883 83.0205 214.127 83.0205Z" fill="#232326"></path> <g filter="url(#filter1_dd)"> <rect x="25.8291" y="70" width="112" height="28" rx="8" fill="white"></rect> </g> <path d="M50.2661 89V85.2041H54.2017V83.9473H50.2661V81.1353H54.5635V79.8403H48.8443V89H50.2661ZM56.1974 89H57.5558V82.0874H56.1974V89ZM56.8766 80.8877C57.3526 80.8877 57.7398 80.4878 57.7398 79.999C57.7398 79.5039 57.3526 79.104 56.8766 79.104C56.4005 79.104 56.0133 79.5039 56.0133 79.999C56.0133 80.4878 56.4005 80.8877 56.8766 80.8877ZM59.4816 89H60.8464V84.9185C60.8464 83.9473 61.5763 83.2935 62.611 83.2935C62.8522 83.2935 63.2585 83.3379 63.3727 83.376V82.0303C63.2267 81.9922 62.9665 81.9731 62.7634 81.9731C61.862 81.9731 61.0939 82.4683 60.8971 83.1475H60.7956V82.0874H59.4816V89ZM64.3084 84.0425C64.3084 85.0708 64.9177 85.6611 66.2317 85.9722L67.4378 86.2515C68.1296 86.4165 68.4534 86.6831 68.4534 87.0957C68.4534 87.6479 67.8504 88.0288 66.9998 88.0288C66.1746 88.0288 65.6668 87.6987 65.4954 87.1655H64.1306C64.2512 88.3906 65.324 89.1333 66.968 89.1333C68.6184 89.1333 69.8308 88.2637 69.8308 86.9624C69.8308 85.9468 69.2151 85.3818 67.9011 85.0771L66.7522 84.8105C66.0032 84.6392 65.6541 84.3789 65.6541 83.9663C65.6541 83.4268 66.2317 83.0649 66.9934 83.0649C67.7678 83.0649 68.2629 83.3887 68.3899 83.8965H69.6975C69.5642 82.6777 68.5486 81.9541 66.9934 81.9541C65.4319 81.9541 64.3084 82.8174 64.3084 84.0425ZM71.8265 80.3672V82.1191H70.7284V83.2681H71.8265V87.1719C71.8265 88.5049 72.4295 89.0381 73.9466 89.0381C74.2132 89.0381 74.4671 89.0063 74.6893 88.9683V87.832C74.4989 87.8511 74.3783 87.8638 74.1688 87.8638C73.4896 87.8638 73.1912 87.5464 73.1912 86.8228V83.2681H74.6893V82.1191H73.1912V80.3672H71.8265ZM81.9497 87.9653C81.207 87.9653 80.6675 87.6035 80.6675 86.9814C80.6675 86.3721 81.0991 86.0483 82.0513 85.9849L83.7397 85.877V86.4546C83.7397 87.3115 82.978 87.9653 81.9497 87.9653ZM81.6006 89.1143C82.5083 89.1143 83.2637 88.7207 83.6763 88.0288H83.7842V89H85.0981V84.2773C85.0981 82.8174 84.1206 81.9541 82.3877 81.9541C80.8198 81.9541 79.7026 82.7158 79.563 83.9028H80.8833C81.0356 83.4141 81.5625 83.1348 82.3242 83.1348C83.2573 83.1348 83.7397 83.5474 83.7397 84.2773V84.874L81.8672 84.9819C80.2231 85.0835 79.2964 85.8008 79.2964 87.0449C79.2964 88.3081 80.2676 89.1143 81.6006 89.1143ZM92.8131 84.3472C92.6353 82.9634 91.588 81.9541 89.8551 81.9541C87.8428 81.9541 86.6178 83.3062 86.6178 85.5215C86.6178 87.7749 87.8492 89.1333 89.8614 89.1333C91.5689 89.1333 92.6353 88.1685 92.8131 86.7783H91.4864C91.3087 87.521 90.7183 87.9146 89.8551 87.9146C88.7188 87.9146 88.0142 87.0195 88.0142 85.5215C88.0142 84.0488 88.7125 83.1729 89.8551 83.1729C90.7691 83.1729 91.3277 83.6743 91.4864 84.3472H92.8131ZM94.8786 80.3672V82.1191H93.7804V83.2681H94.8786V87.1719C94.8786 88.5049 95.4816 89.0381 96.9987 89.0381C97.2653 89.0381 97.5192 89.0063 97.7414 88.9683V87.832C97.5509 87.8511 97.4303 87.8638 97.2209 87.8638C96.5417 87.8638 96.2433 87.5464 96.2433 86.8228V83.2681H97.7414V82.1191H96.2433V80.3672H94.8786ZM99.2927 89H100.651V82.0874H99.2927V89ZM99.9719 80.8877C100.448 80.8877 100.835 80.4878 100.835 79.999C100.835 79.5039 100.448 79.104 99.9719 79.104C99.4958 79.104 99.1086 79.5039 99.1086 79.999C99.1086 80.4878 99.4958 80.8877 99.9719 80.8877ZM108.43 82.0874H106.982L105.268 87.54H105.16L103.44 82.0874H101.98L104.475 89H105.941L108.43 82.0874ZM112.304 83.1157C113.313 83.1157 113.974 83.8203 114.005 84.9058H110.514C110.59 83.8267 111.295 83.1157 112.304 83.1157ZM113.999 87.1338C113.745 87.6733 113.18 87.9717 112.355 87.9717C111.263 87.9717 110.558 87.2036 110.514 85.9912V85.915H115.395V85.439C115.395 83.2681 114.234 81.9541 112.31 81.9541C110.362 81.9541 109.124 83.3569 109.124 85.5659C109.124 87.7749 110.336 89.1333 112.317 89.1333C113.897 89.1333 115.015 88.3652 115.313 87.1338H113.999Z" fill="black"></path> <line x1="253.5" y1="75" x2="253.5" y2="93" stroke="black" stroke-opacity="0.16"></line> <rect x="24" y="22" width="343" height="32" rx="8" fill="#DEDEE6"></rect> <g filter="url(#filter2_dd)"> <rect x="25.8291" y="24" width="169" height="28" rx="8" fill="white"></rect> </g> <path d="M54.5511 40.5371C54.6527 42.1748 56.0174 43.2222 58.0487 43.2222C60.2196 43.2222 61.578 42.124 61.578 40.3721C61.578 38.9946 60.8036 38.2329 58.9247 37.7949L57.9154 37.5474C56.722 37.2681 56.2396 36.8936 56.2396 36.2397C56.2396 35.4146 56.9886 34.875 58.1122 34.875C59.1786 34.875 59.9149 35.4019 60.0482 36.2461H61.432C61.3495 34.7036 59.9911 33.6182 58.1312 33.6182C56.1317 33.6182 54.7987 34.7036 54.7987 36.335C54.7987 37.6807 55.5541 38.4805 57.2108 38.8677L58.3915 39.1533C59.6039 39.439 60.1371 39.8579 60.1371 40.5562C60.1371 41.3687 59.2992 41.959 58.1566 41.959C56.9315 41.959 56.0809 41.4067 55.9603 40.5371H54.5511ZM66.0493 37.1157C67.0585 37.1157 67.7187 37.8203 67.7504 38.9058H64.2592C64.3354 37.8267 65.04 37.1157 66.0493 37.1157ZM67.7441 41.1338C67.4902 41.6733 66.9252 41.9717 66.1 41.9717C65.0082 41.9717 64.3037 41.2036 64.2592 39.9912V39.915H69.1406V39.439C69.1406 37.2681 67.9789 35.9541 66.0556 35.9541C64.1069 35.9541 62.8691 37.3569 62.8691 39.5659C62.8691 41.7749 64.0815 43.1333 66.062 43.1333C67.6425 43.1333 68.7597 42.3652 69.058 41.1338H67.7441ZM73.5928 41.7178C72.4185 41.7178 71.7583 40.8354 71.7583 39.458C71.7583 38.0806 72.4185 37.1982 73.5928 37.1982C74.7544 37.1982 75.4654 38.0806 75.4654 39.458C75.4654 40.8418 74.7608 41.7178 73.5928 41.7178ZM73.6118 45.6406C75.5669 45.6406 76.8047 44.6377 76.8047 43.0571V36.0874H75.4971V37.1919H75.3892C75.002 36.4429 74.1704 35.9731 73.2183 35.9731C71.4536 35.9731 70.3491 37.3569 70.3491 39.4644C70.3491 41.5337 71.4409 42.8984 73.2056 42.8984C74.1577 42.8984 74.9195 42.4858 75.3384 41.7368H75.44V43.0635C75.44 43.9775 74.7671 44.5171 73.6309 44.5171C72.7105 44.5171 72.1328 44.1934 72.0186 43.6919H70.6221C70.7681 44.8662 71.8853 45.6406 73.6118 45.6406ZM78.7052 43H80.0699V38.7725C80.0699 37.8838 80.6983 37.2046 81.5299 37.2046C82.3424 37.2046 82.8629 37.6807 82.8629 38.4614V43H84.2022V38.6519C84.2022 37.8394 84.7799 37.2046 85.6622 37.2046C86.5572 37.2046 87.0016 37.6616 87.0016 38.5947V43H88.3663V38.2393C88.3663 36.7983 87.5538 35.9541 86.1573 35.9541C85.1988 35.9541 84.4054 36.4429 84.0563 37.1982H83.9483C83.6437 36.4429 82.9898 35.9541 82.044 35.9541C81.1236 35.9541 80.4254 36.4175 80.1207 37.1982H80.0191V36.0874H78.7052V43ZM93.0407 37.1157C94.05 37.1157 94.7101 37.8203 94.7419 38.9058H91.2507C91.3268 37.8267 92.0314 37.1157 93.0407 37.1157ZM94.7355 41.1338C94.4816 41.6733 93.9167 41.9717 93.0915 41.9717C91.9997 41.9717 91.2951 41.2036 91.2507 39.9912V39.915H96.132V39.439C96.132 37.2681 94.9704 35.9541 93.0471 35.9541C91.0983 35.9541 89.8605 37.3569 89.8605 39.5659C89.8605 41.7749 91.0729 43.1333 93.0534 43.1333C94.634 43.1333 95.7512 42.3652 96.0495 41.1338H94.7355ZM97.6897 43H99.0545V38.9565C99.0545 37.8774 99.6956 37.2046 100.705 37.2046C101.714 37.2046 102.197 37.7568 102.197 38.8677V43H103.561V38.5249C103.561 36.8809 102.711 35.9541 101.168 35.9541C100.127 35.9541 99.4417 36.4175 99.1052 37.1855H99.0037V36.0874H97.6897V43ZM105.887 34.3672V36.1191H104.789V37.2681H105.887V41.1719C105.887 42.5049 106.49 43.0381 108.007 43.0381C108.274 43.0381 108.528 43.0063 108.75 42.9683V41.832C108.559 41.8511 108.439 41.8638 108.229 41.8638C107.55 41.8638 107.252 41.5464 107.252 40.8228V37.2681H108.75V36.1191H107.252V34.3672H105.887ZM113.037 37.1157C114.046 37.1157 114.706 37.8203 114.738 38.9058H111.247C111.323 37.8267 112.028 37.1157 113.037 37.1157ZM114.732 41.1338C114.478 41.6733 113.913 41.9717 113.088 41.9717C111.996 41.9717 111.291 41.2036 111.247 39.9912V39.915H116.128V39.439C116.128 37.2681 114.967 35.9541 113.043 35.9541C111.095 35.9541 109.857 37.3569 109.857 39.5659C109.857 41.7749 111.069 43.1333 113.05 43.1333C114.63 43.1333 115.747 42.3652 116.046 41.1338H114.732ZM120.212 43.1143C121.165 43.1143 121.971 42.6636 122.383 41.9082H122.491V43H123.799V33.3896H122.434V37.1855H122.333C121.958 36.4238 121.158 35.9731 120.212 35.9731C118.467 35.9731 117.343 37.3569 117.343 39.5405C117.343 41.7305 118.454 43.1143 120.212 43.1143ZM120.6 37.1982C121.742 37.1982 122.459 38.106 122.459 39.5469C122.459 40.9941 121.749 41.8892 120.6 41.8892C119.444 41.8892 118.752 41.0068 118.752 39.5405C118.752 38.0869 119.451 37.1982 120.6 37.1982ZM135.331 43H136.842L133.535 33.8403H132.005L128.698 43H130.158L131.002 40.5688H134.493L135.331 43ZM132.697 35.5034H132.805L134.132 39.3755H131.364L132.697 35.5034ZM143.675 38.3472C143.497 36.9634 142.449 35.9541 140.717 35.9541C138.704 35.9541 137.479 37.3062 137.479 39.5215C137.479 41.7749 138.711 43.1333 140.723 43.1333C142.43 43.1333 143.497 42.1685 143.675 40.7783H142.348C142.17 41.521 141.58 41.9146 140.717 41.9146C139.58 41.9146 138.876 41.0195 138.876 39.5215C138.876 38.0488 139.574 37.1729 140.717 37.1729C141.631 37.1729 142.189 37.6743 142.348 38.3472H143.675ZM145.74 34.3672V36.1191H144.642V37.2681H145.74V41.1719C145.74 42.5049 146.343 43.0381 147.86 43.0381C148.127 43.0381 148.381 43.0063 148.603 42.9683V41.832C148.412 41.8511 148.292 41.8638 148.082 41.8638C147.403 41.8638 147.105 41.5464 147.105 40.8228V37.2681H148.603V36.1191H147.105V34.3672H145.74ZM150.154 43H151.513V36.0874H150.154V43ZM150.833 34.8877C151.309 34.8877 151.697 34.4878 151.697 33.999C151.697 33.5039 151.309 33.104 150.833 33.104C150.357 33.104 149.97 33.5039 149.97 33.999C149.97 34.4878 150.357 34.8877 150.833 34.8877ZM159.291 36.0874H157.844L156.13 41.54H156.022L154.302 36.0874H152.842L155.336 43H156.803L159.291 36.0874ZM163.166 37.1157C164.175 37.1157 164.835 37.8203 164.867 38.9058H161.376C161.452 37.8267 162.156 37.1157 163.166 37.1157ZM164.86 41.1338C164.607 41.6733 164.042 41.9717 163.216 41.9717C162.125 41.9717 161.42 41.2036 161.376 39.9912V39.915H166.257V39.439C166.257 37.2681 165.095 35.9541 163.172 35.9541C161.223 35.9541 159.985 37.3569 159.985 39.5659C159.985 41.7749 161.198 43.1333 163.178 43.1333C164.759 43.1333 165.876 42.3652 166.174 41.1338H164.86Z" fill="black"></path> <path d="M228.495 43V33.8403H227.352V43H228.495ZM230.611 43H231.703V38.9502C231.703 37.7505 232.408 37.0205 233.499 37.0205C234.591 37.0205 235.112 37.6045 235.112 38.8359V43H236.204V38.5693C236.204 36.9443 235.347 36.0366 233.81 36.0366C232.763 36.0366 232.097 36.481 231.754 37.2363H231.652V36.1572H230.611V43ZM240.23 42.1621C239.437 42.1621 238.847 41.7559 238.847 41.0576C238.847 40.3721 239.304 40.0103 240.345 39.9404L242.186 39.8198V40.4482C242.186 41.4258 241.354 42.1621 240.23 42.1621ZM240.027 43.1206C240.941 43.1206 241.69 42.7207 242.135 41.9907H242.236V43H243.277V38.3154C243.277 36.8936 242.344 36.0366 240.675 36.0366C239.215 36.0366 238.136 36.7603 237.99 37.8584H239.094C239.247 37.3188 239.818 37.0078 240.637 37.0078C241.659 37.0078 242.186 37.4712 242.186 38.3154V38.9375L240.211 39.0581C238.618 39.1533 237.717 39.8579 237.717 41.083C237.717 42.3335 238.701 43.1206 240.027 43.1206ZM250.878 38.252C250.688 37.0332 249.672 36.0366 248.009 36.0366C246.092 36.0366 244.873 37.4204 244.873 39.5532C244.873 41.7305 246.098 43.1206 248.015 43.1206C249.659 43.1206 250.681 42.1938 250.878 40.937H249.773C249.57 41.7114 248.929 42.1367 248.009 42.1367C246.79 42.1367 246.003 41.1338 246.003 39.5532C246.003 38.0044 246.777 37.0205 248.009 37.0205C248.993 37.0205 249.596 37.5728 249.773 38.252H250.878ZM252.994 34.3862V36.1572H251.89V37.0713H252.994V41.2227C252.994 42.5303 253.559 43.0508 254.968 43.0508C255.184 43.0508 255.394 43.0254 255.61 42.9873V42.0669C255.406 42.0859 255.298 42.0923 255.102 42.0923C254.391 42.0923 254.086 41.7495 254.086 40.9434V37.0713H255.61V36.1572H254.086V34.3862H252.994ZM257.205 43H258.297V36.1572H257.205V43ZM257.751 34.8369C258.17 34.8369 258.513 34.4941 258.513 34.0752C258.513 33.6562 258.17 33.3135 257.751 33.3135C257.332 33.3135 256.989 33.6562 256.989 34.0752C256.989 34.4941 257.332 34.8369 257.751 34.8369ZM265.885 36.1572H264.717L262.845 41.7939H262.743L260.87 36.1572H259.702L262.235 43H263.352L265.885 36.1572ZM269.741 37.0015C270.826 37.0015 271.55 37.8013 271.575 39.0137H267.805C267.887 37.8013 268.649 37.0015 269.741 37.0015ZM271.543 41.229C271.258 41.832 270.661 42.1558 269.779 42.1558C268.617 42.1558 267.862 41.2988 267.805 39.9468V39.896H272.724V39.4771C272.724 37.3506 271.6 36.0366 269.753 36.0366C267.874 36.0366 266.668 37.4331 266.668 39.585C266.668 41.7495 267.855 43.1206 269.753 43.1206C271.251 43.1206 272.318 42.397 272.635 41.229H271.543ZM277.788 38.0298C277.788 39.02 278.372 39.5723 279.654 39.8833L280.829 40.1689C281.559 40.3467 281.914 40.6641 281.914 41.1338C281.914 41.7622 281.254 42.2002 280.334 42.2002C279.458 42.2002 278.912 41.832 278.728 41.2544H277.604C277.725 42.3906 278.772 43.1206 280.295 43.1206C281.851 43.1206 283.038 42.2764 283.038 41.0513C283.038 40.0674 282.416 39.5088 281.127 39.1978L280.073 38.9438C279.267 38.7471 278.886 38.4551 278.886 37.9854C278.886 37.376 279.521 36.9634 280.334 36.9634C281.159 36.9634 281.692 37.3252 281.838 37.8711H282.917C282.771 36.7476 281.774 36.0366 280.34 36.0366C278.886 36.0366 277.788 36.8936 277.788 38.0298ZM287.401 37.0015C288.486 37.0015 289.21 37.8013 289.235 39.0137H285.465C285.547 37.8013 286.309 37.0015 287.401 37.0015ZM289.204 41.229C288.918 41.832 288.321 42.1558 287.439 42.1558C286.277 42.1558 285.522 41.2988 285.465 39.9468V39.896H290.384V39.4771C290.384 37.3506 289.261 36.0366 287.414 36.0366C285.535 36.0366 284.329 37.4331 284.329 39.585C284.329 41.7495 285.516 43.1206 287.414 43.1206C288.912 43.1206 289.978 42.397 290.296 41.229H289.204ZM294.786 41.9336C293.516 41.9336 292.805 40.9688 292.805 39.4771C292.805 37.9854 293.516 37.0205 294.786 37.0205C296.049 37.0205 296.817 37.9854 296.817 39.4771C296.817 40.9688 296.055 41.9336 294.786 41.9336ZM294.837 45.6279C296.703 45.6279 297.883 44.6504 297.883 43.1206V36.1572H296.842V37.2427H296.741C296.347 36.5063 295.503 36.0366 294.545 36.0366C292.786 36.0366 291.675 37.4268 291.675 39.4771C291.675 41.5273 292.774 42.8984 294.545 42.8984C295.484 42.8984 296.258 42.4731 296.69 41.7178H296.792V43.0635C296.792 44.0728 296.062 44.6758 294.837 44.6758C293.853 44.6758 293.243 44.314 293.123 43.7554H291.967C292.133 44.8853 293.186 45.6279 294.837 45.6279ZM299.86 43H300.952V38.7598C300.952 37.7949 301.644 37.0205 302.539 37.0205C303.402 37.0205 303.967 37.541 303.967 38.3535V43H305.059V38.6011C305.059 37.7314 305.694 37.0205 306.646 37.0205C307.611 37.0205 308.087 37.5156 308.087 38.5249V43H309.178V38.271C309.178 36.8364 308.398 36.0366 307.001 36.0366C306.055 36.0366 305.275 36.5127 304.907 37.2363H304.805C304.488 36.5254 303.84 36.0366 302.913 36.0366C301.999 36.0366 301.314 36.4746 301.003 37.2363H300.901V36.1572H299.86V43ZM313.821 37.0015C314.907 37.0015 315.63 37.8013 315.656 39.0137H311.885C311.968 37.8013 312.729 37.0015 313.821 37.0015ZM315.624 41.229C315.338 41.832 314.742 42.1558 313.859 42.1558C312.698 42.1558 311.942 41.2988 311.885 39.9468V39.896H316.805V39.4771C316.805 37.3506 315.681 36.0366 313.834 36.0366C311.955 36.0366 310.749 37.4331 310.749 39.585C310.749 41.7495 311.936 43.1206 313.834 43.1206C315.332 43.1206 316.398 42.397 316.716 41.229H315.624ZM318.438 43H319.53V38.9502C319.53 37.7505 320.235 37.0205 321.327 37.0205C322.418 37.0205 322.939 37.6045 322.939 38.8359V43H324.031V38.5693C324.031 36.9443 323.174 36.0366 321.638 36.0366C320.59 36.0366 319.924 36.481 319.581 37.2363H319.479V36.1572H318.438V43ZM326.407 34.3862V36.1572H325.303V37.0713H326.407V41.2227C326.407 42.5303 326.972 43.0508 328.381 43.0508C328.597 43.0508 328.807 43.0254 329.022 42.9873V42.0669C328.819 42.0859 328.711 42.0923 328.515 42.0923C327.804 42.0923 327.499 41.7495 327.499 40.9434V37.0713H329.022V36.1572H327.499V34.3862H326.407ZM333.221 37.0015C334.306 37.0015 335.03 37.8013 335.055 39.0137H331.285C331.367 37.8013 332.129 37.0015 333.221 37.0015ZM335.024 41.229C334.738 41.832 334.141 42.1558 333.259 42.1558C332.097 42.1558 331.342 41.2988 331.285 39.9468V39.896H336.204V39.4771C336.204 37.3506 335.081 36.0366 333.233 36.0366C331.355 36.0366 330.149 37.4331 330.149 39.585C330.149 41.7495 331.336 43.1206 333.233 43.1206C334.732 43.1206 335.798 42.397 336.115 41.229H335.024Z" fill="#232326"></path> </g> <defs> <filter id="filter0_dd" x="21.8291" y="114" width="91" height="36" filterUnits="userSpaceOnUse" color-interpolation-filters="sRGB"> <feFlood flood-opacity="0" result="BackgroundImageFix"></feFlood> <feColorMatrix in="SourceAlpha" type="matrix" values="0 0 0 0 0 0 0 0 0 0 0 0 0 0 0 0 0 0 127 0"></feColorMatrix> <feOffset dy="2"></feOffset> <feGaussianBlur stdDeviation="2"></feGaussianBlur> <feColorMatrix type="matrix" values="0 0 0 0 0.196487 0 0 0 0 0.196487 0 0 0 0 0.279476 0 0 0 0.06 0"></feColorMatrix> <feBlend mode="multiply" in2="BackgroundImageFix" result="effect1_dropShadow"></feBlend> <feColorMatrix in="SourceAlpha" type="matrix" values="0 0 0 0 0 0 0 0 0 0 0 0 0 0 0 0 0 0 127 0"></feColorMatrix> <feOffset dy="2"></feOffset> <feGaussianBlur stdDeviation="1"></feGaussianBlur> <feColorMatrix type="matrix" values="0 0 0 0 0.196487 0 0 0 0 0.196487 0 0 0 0 0.279476 0 0 0 0.06 0"></feColorMatrix> <feBlend mode="multiply" in2="effect1_dropShadow" result="effect2_dropShadow"></feBlend> <feBlend mode="normal" in="SourceGraphic" in2="effect2_dropShadow" result="shape"></feBlend> </filter> <filter id="filter1_dd" x="21.8291" y="68" width="120" height="36" filterUnits="userSpaceOnUse" color-interpolation-filters="sRGB"> <feFlood flood-opacity="0" result="BackgroundImageFix"></feFlood> <feColorMatrix in="SourceAlpha" type="matrix" values="0 0 0 0 0 0 0 0 0 0 0 0 0 0 0 0 0 0 127 0"></feColorMatrix> <feOffset dy="2"></feOffset> <feGaussianBlur stdDeviation="2"></feGaussianBlur> <feColorMatrix type="matrix" values="0 0 0 0 0.196487 0 0 0 0 0.196487 0 0 0 0 0.279476 0 0 0 0.06 0"></feColorMatrix> <feBlend mode="multiply" in2="BackgroundImageFix" result="effect1_dropShadow"></feBlend> <feColorMatrix in="SourceAlpha" type="matrix" values="0 0 0 0 0 0 0 0 0 0 0 0 0 0 0 0 0 0 127 0"></feColorMatrix> <feOffset dy="2"></feOffset> <feGaussianBlur stdDeviation="1"></feGaussianBlur> <feColorMatrix type="matrix" values="0 0 0 0 0.196487 0 0 0 0 0.196487 0 0 0 0 0.279476 0 0 0 0.06 0"></feColorMatrix> <feBlend mode="multiply" in2="effect1_dropShadow" result="effect2_dropShadow"></feBlend> <feBlend mode="normal" in="SourceGraphic" in2="effect2_dropShadow" result="shape"></feBlend> </filter> <filter id="filter2_dd" x="21.8291" y="22" width="177" height="36" filterUnits="userSpaceOnUse" color-interpolation-filters="sRGB"> <feFlood flood-opacity="0" result="BackgroundImageFix"></feFlood> <feColorMatrix in="SourceAlpha" type="matrix" values="0 0 0 0 0 0 0 0 0 0 0 0 0 0 0 0 0 0 127 0"></feColorMatrix> <feOffset dy="2"></feOffset> <feGaussianBlur stdDeviation="2"></feGaussianBlur> <feColorMatrix type="matrix" values="0 0 0 0 0.196487 0 0 0 0 0.196487 0 0 0 0 0.279476 0 0 0 0.06 0"></feColorMatrix> <feBlend mode="multiply" in2="BackgroundImageFix" result="effect1_dropShadow"></feBlend> <feColorMatrix in="SourceAlpha" type="matrix" values="0 0 0 0 0 0 0 0 0 0 0 0 0 0 0 0 0 0 127 0"></feColorMatrix> <feOffset dy="2"></feOffset> <feGaussianBlur stdDeviation="1"></feGaussianBlur> <feColorMatrix type="matrix" values="0 0 0 0 0.196487 0 0 0 0 0.196487 0 0 0 0 0.279476 0 0 0 0.06 0"></feColorMatrix> <feBlend mode="multiply" in2="effect1_dropShadow" result="effect2_dropShadow"></feBlend> <feBlend mode="normal" in="SourceGraphic" in2="effect2_dropShadow" result="shape"></feBlend> </filter> <clipPath id="clip0"> <rect width="260" height="260" fill="white"></rect> </clipPath> </defs> </svg> 