<?xml version="1.0" encoding="UTF-8"?> <svg xmlns="http://www.w3.org/2000/svg" width="260" height="260" viewBox="0 0 260 260" fill="none"> <g clip-path="url(#clip0)"> <rect width="260" height="260" rx="16" fill="#F0F0F0"></rect> <rect width="147" height="305.667" transform="translate(24 52.1666)" fill="white"></rect> <g clip-path="url(#clip1)"> <path d="M48.1516 81V73.9498H50.4565C51.2216 73.9498 51.7962 74.108 52.1803 74.4244C52.5677 74.7407 52.7613 75.2088 52.7613 75.8286C52.7613 76.1578 52.6677 76.45 52.4805 76.705C52.2933 76.9568 52.0383 77.1521 51.7154 77.2909C52.0964 77.3974 52.3966 77.6008 52.6161 77.901C52.8388 78.198 52.9502 78.5531 52.9502 78.9663C52.9502 79.599 52.7452 80.0961 52.3352 80.4577C51.9253 80.8192 51.3458 81 50.5969 81H48.1516ZM49.0813 77.7025V80.2398H50.6163C51.0489 80.2398 51.3894 80.1284 51.638 79.9056C51.8898 79.6797 52.0157 79.3698 52.0157 78.976C52.0157 78.127 51.554 77.7025 50.6308 77.7025H49.0813ZM49.0813 76.9568H50.4856C50.8923 76.9568 51.2167 76.8551 51.4588 76.6517C51.7042 76.4484 51.8268 76.1724 51.8268 75.8237C51.8268 75.4364 51.7138 75.1555 51.4879 74.9812C51.2619 74.8037 50.9181 74.7149 50.4565 74.7149H49.0813V76.9568ZM57.4972 81C57.4456 80.8967 57.4036 80.7127 57.3713 80.448C56.9549 80.8805 56.4578 81.0968 55.88 81.0968C55.3635 81.0968 54.939 80.9515 54.6065 80.661C54.2772 80.3673 54.1126 79.996 54.1126 79.5473C54.1126 79.0018 54.3192 78.5789 54.7324 78.2787C55.1488 77.9753 55.7331 77.8235 56.4852 77.8235H57.3568V77.412C57.3568 77.0988 57.2632 76.8503 57.076 76.6663C56.8887 76.479 56.6127 76.3854 56.248 76.3854C55.9284 76.3854 55.6604 76.4661 55.4442 76.6275C55.2279 76.7889 55.1197 76.9842 55.1197 77.2134H54.2191C54.2191 76.952 54.3111 76.7002 54.4951 76.4581C54.6823 76.2127 54.9341 76.019 55.2505 75.877C55.5701 75.735 55.9203 75.664 56.3012 75.664C56.9049 75.664 57.3778 75.8157 57.72 76.1191C58.0621 76.4193 58.2397 76.8341 58.2526 77.3635V79.7749C58.2526 80.2559 58.3139 80.6384 58.4366 80.9225V81H57.4972ZM56.0107 80.3172C56.2915 80.3172 56.5579 80.2446 56.8096 80.0993C57.0614 79.9541 57.2438 79.7652 57.3568 79.5328V78.4579H56.6547C55.5572 78.4579 55.0084 78.779 55.0084 79.4214C55.0084 79.7023 55.102 79.9218 55.2892 80.08C55.4764 80.2381 55.7169 80.3172 56.0107 80.3172ZM62.7803 79.6103C62.7803 79.3682 62.6883 79.1809 62.5043 79.0486C62.3235 78.913 62.0055 78.7968 61.5504 78.7C61.0984 78.6031 60.7385 78.4869 60.4706 78.3513C60.2059 78.2157 60.009 78.0543 59.8798 77.8671C59.7539 77.6799 59.691 77.4571 59.691 77.1989C59.691 76.7696 59.8718 76.4064 60.2333 76.1094C60.5981 75.8124 61.0629 75.664 61.6278 75.664C62.2218 75.664 62.7028 75.8173 63.0708 76.124C63.442 76.4306 63.6276 76.8228 63.6276 77.3006H62.727C62.727 77.0553 62.6221 76.8438 62.4123 76.6663C62.2057 76.4887 61.9442 76.4 61.6278 76.4C61.3018 76.4 61.0468 76.471 60.8628 76.613C60.6788 76.755 60.5868 76.9407 60.5868 77.1699C60.5868 77.3861 60.6723 77.5492 60.8434 77.6589C61.0145 77.7687 61.3228 77.8736 61.7683 77.9736C62.217 78.0737 62.5801 78.1932 62.8577 78.332C63.1354 78.4708 63.3403 78.6386 63.4727 78.8355C63.6083 79.0292 63.6761 79.2665 63.6761 79.5473C63.6761 80.0154 63.4888 80.3915 63.1144 80.6755C62.7399 80.9564 62.2541 81.0968 61.6569 81.0968C61.2372 81.0968 60.866 81.0226 60.5432 80.8741C60.2204 80.7256 59.967 80.519 59.783 80.2543C59.6022 79.9864 59.5118 79.6974 59.5118 79.3875H60.4076C60.4238 79.6878 60.5432 79.9266 60.7659 80.1042C60.9919 80.2785 61.2889 80.3657 61.6569 80.3657C61.9958 80.3657 62.267 80.2979 62.4704 80.1623C62.677 80.0235 62.7803 79.8395 62.7803 79.6103ZM67.09 81.0968C66.3799 81.0968 65.802 80.8644 65.3566 80.3995C64.9111 79.9315 64.6883 79.3068 64.6883 78.5256V78.361C64.6883 77.8413 64.7868 77.3781 64.9837 76.9713C65.1839 76.5614 65.4615 76.2418 65.8166 76.0126C66.1749 75.7802 66.5623 75.664 66.9787 75.664C67.6598 75.664 68.1892 75.8883 68.5669 76.337C68.9446 76.7857 69.1334 77.4281 69.1334 78.2642V78.637H65.5841C65.5971 79.1535 65.7472 79.5715 66.0345 79.8911C66.325 80.2075 66.693 80.3657 67.1385 80.3657C67.4548 80.3657 67.7227 80.3011 67.9423 80.172C68.1618 80.0428 68.3538 79.8718 68.5185 79.6587L69.0656 80.0848C68.6266 80.7595 67.9681 81.0968 67.09 81.0968ZM66.9787 76.4C66.6171 76.4 66.3137 76.5323 66.0684 76.797C65.823 77.0585 65.6713 77.4265 65.6132 77.901H68.2376V77.8332C68.2118 77.3781 68.0891 77.0262 67.8696 76.7776C67.6501 76.5258 67.3531 76.4 66.9787 76.4ZM73.2207 81V76.4532H72.3927V75.7608H73.2207V75.2233C73.2207 74.6616 73.3708 74.2275 73.6711 73.9208C73.9713 73.6141 74.3958 73.4608 74.9445 73.4608C75.1511 73.4608 75.3561 73.4882 75.5595 73.5431L75.5111 74.2694C75.3593 74.2404 75.1979 74.2258 75.0269 74.2258C74.7363 74.2258 74.512 74.3114 74.3538 74.4825C74.1956 74.6503 74.1165 74.8924 74.1165 75.2088V75.7608H75.2351V76.4532H74.1165V81H73.2207ZM76.0634 78.332C76.0634 77.8187 76.1634 77.3571 76.3636 76.9471C76.5669 76.5371 76.8478 76.2208 77.2061 75.9981C77.5676 75.7753 77.9792 75.664 78.4408 75.664C79.1542 75.664 79.7305 75.9109 80.1695 76.4048C80.6117 76.8987 80.8328 77.5556 80.8328 78.3755V78.4385C80.8328 78.9485 80.7344 79.4069 80.5375 79.8136C80.3438 80.2172 80.0646 80.5319 79.6998 80.7579C79.3382 80.9838 78.9218 81.0968 78.4505 81.0968C77.7403 81.0968 77.1641 80.8499 76.7219 80.356C76.2829 79.8621 76.0634 79.2084 76.0634 78.3949V78.332ZM76.964 78.4385C76.964 79.0195 77.098 79.486 77.3659 79.8379C77.637 80.1897 77.9986 80.3657 78.4505 80.3657C78.9057 80.3657 79.2672 80.1881 79.5352 79.833C79.8031 79.4747 79.937 78.9743 79.937 78.332C79.937 77.7574 79.7999 77.2925 79.5255 76.9374C79.2543 76.5791 78.8928 76.4 78.4408 76.4C77.9986 76.4 77.6419 76.5759 77.3707 76.9277C77.0996 77.2796 76.964 77.7832 76.964 78.4385ZM82.8765 75.7608L82.9056 76.4193C83.3058 75.9157 83.8288 75.664 84.4744 75.664C85.5816 75.664 86.1401 76.2886 86.1498 77.5379V81H85.254V77.533C85.2508 77.1553 85.1636 76.8761 84.9925 76.6953C84.8247 76.5145 84.5616 76.4242 84.2032 76.4242C83.9127 76.4242 83.6577 76.5016 83.4382 76.6566C83.2187 76.8115 83.0476 77.0149 82.9249 77.2667V81H82.0291V75.7608H82.8765ZM88.789 74.4922V75.7608H89.7671V76.4532H88.789V79.7023C88.789 79.9121 88.8326 80.0703 88.9198 80.1768C89.0069 80.2801 89.1554 80.3318 89.3652 80.3318C89.4685 80.3318 89.6106 80.3124 89.7913 80.2737V81C89.5557 81.0645 89.3265 81.0968 89.1038 81.0968C88.7035 81.0968 88.4016 80.9758 88.1983 80.7337C87.9949 80.4915 87.8932 80.1478 87.8932 79.7023V76.4532H86.9393V75.7608H87.8932V74.4922H88.789Z" fill="#263238"></path> </g> <path d="M62.2676 124.833H60.5723V115.29H49.1973V124.833H47.5156V104.927H49.1973V113.868H60.5723V104.927H62.2676V124.833ZM73.875 124.833H72.2344V106.896L66.8203 108.906V107.374L73.6016 104.859H73.875V124.833ZM103.119 124.833H101.424V115.29H90.0488V124.833H88.3672V104.927H90.0488V113.868H101.424V104.927H103.119V124.833ZM113.1 125.107C111.842 125.107 110.702 124.797 109.682 124.177C108.67 123.557 107.882 122.696 107.316 121.593C106.751 120.481 106.469 119.237 106.469 117.861V117.273C106.469 115.851 106.742 114.57 107.289 113.431C107.845 112.292 108.615 111.398 109.6 110.751C110.584 110.095 111.65 109.767 112.799 109.767C114.594 109.767 116.016 110.382 117.064 111.613C118.122 112.834 118.65 114.506 118.65 116.63V117.546H108.096V117.861C108.096 119.538 108.574 120.937 109.531 122.058C110.497 123.17 111.71 123.726 113.168 123.726C114.043 123.726 114.813 123.566 115.479 123.247C116.153 122.928 116.764 122.418 117.311 121.716L118.336 122.495C117.133 124.236 115.387 125.107 113.1 125.107ZM112.799 111.161C111.568 111.161 110.529 111.613 109.682 112.515C108.843 113.417 108.333 114.63 108.15 116.152H117.023V115.974C116.978 114.552 116.572 113.395 115.807 112.501C115.041 111.608 114.038 111.161 112.799 111.161ZM130.736 124.833C130.572 124.368 130.467 123.68 130.422 122.769C129.848 123.516 129.114 124.095 128.221 124.505C127.337 124.906 126.398 125.107 125.404 125.107C123.982 125.107 122.829 124.71 121.945 123.917C121.07 123.124 120.633 122.122 120.633 120.909C120.633 119.469 121.23 118.33 122.424 117.492C123.627 116.653 125.299 116.234 127.441 116.234H130.408V114.552C130.408 113.495 130.08 112.665 129.424 112.064C128.777 111.453 127.829 111.148 126.58 111.148C125.441 111.148 124.497 111.439 123.75 112.023C123.003 112.606 122.629 113.308 122.629 114.128L120.988 114.115C120.988 112.939 121.535 111.923 122.629 111.066C123.723 110.2 125.067 109.767 126.662 109.767C128.312 109.767 129.611 110.182 130.559 111.011C131.516 111.831 132.008 112.98 132.035 114.456V121.456C132.035 122.887 132.186 123.958 132.486 124.669V124.833H130.736ZM125.596 123.658C126.689 123.658 127.665 123.393 128.521 122.865C129.387 122.336 130.016 121.63 130.408 120.745V117.492H127.482C125.851 117.51 124.575 117.811 123.654 118.394C122.734 118.968 122.273 119.761 122.273 120.773C122.273 121.602 122.579 122.29 123.189 122.837C123.809 123.384 124.611 123.658 125.596 123.658ZM135.316 117.3C135.316 115.003 135.827 113.176 136.848 111.818C137.878 110.451 139.272 109.767 141.031 109.767C143.027 109.767 144.549 110.555 145.598 112.132V103.833H147.225V124.833H145.693L145.625 122.865C144.577 124.359 143.036 125.107 141.004 125.107C139.299 125.107 137.923 124.423 136.875 123.056C135.836 121.68 135.316 119.825 135.316 117.492V117.3ZM136.971 117.587C136.971 119.474 137.349 120.964 138.105 122.058C138.862 123.143 139.928 123.685 141.305 123.685C143.319 123.685 144.75 122.796 145.598 121.019V114.074C144.75 112.15 143.328 111.189 141.332 111.189C139.956 111.189 138.885 111.731 138.119 112.816C137.354 113.891 136.971 115.482 136.971 117.587Z" fill="#263238"></path> <path d="M55.7922 157.125H54.7327V151.161H47.6233V157.125H46.5723V144.684H47.6233V150.272H54.7327V144.684H55.7922V157.125ZM66.3538 157.125H58.5608V156.339L62.8247 151.502C63.5311 150.688 64.021 150.016 64.2944 149.486C64.5679 148.956 64.7046 148.44 64.7046 147.939C64.7046 147.153 64.4739 146.532 64.0125 146.076C63.551 145.615 62.9159 145.384 62.1069 145.384C61.2695 145.384 60.5916 145.652 60.0732 146.187C59.5605 146.723 59.3042 147.418 59.3042 148.272H58.2874C58.2874 147.572 58.444 146.934 58.7573 146.358C59.0763 145.783 59.5264 145.333 60.1074 145.008C60.6942 144.678 61.3607 144.513 62.1069 144.513C63.2463 144.513 64.1349 144.812 64.7729 145.41C65.4167 146.008 65.7385 146.823 65.7385 147.854C65.7385 148.435 65.5562 149.07 65.1917 149.759C64.8328 150.449 64.1976 151.309 63.2861 152.34L59.8169 156.262H66.3538V157.125ZM82.1448 157.125H81.0852V151.161H73.9758V157.125H72.9248V144.684H73.9758V150.272H81.0852V144.684H82.1448V157.125ZM88.656 157.296C87.8699 157.296 87.1578 157.102 86.5198 156.715C85.8875 156.327 85.3947 155.789 85.0415 155.1C84.6883 154.405 84.5117 153.627 84.5117 152.767V152.4C84.5117 151.511 84.6826 150.711 85.0244 149.999C85.3719 149.286 85.8533 148.728 86.4685 148.324C87.0837 147.914 87.7502 147.708 88.468 147.708C89.5903 147.708 90.4789 148.093 91.134 148.862C91.7948 149.625 92.1252 150.671 92.1252 151.998V152.571H85.5286V152.767C85.5286 153.815 85.8276 154.69 86.4258 155.39C87.0296 156.085 87.7873 156.433 88.6987 156.433C89.2456 156.433 89.727 156.333 90.1428 156.134C90.5644 155.934 90.946 155.615 91.2878 155.177L91.9287 155.664C91.1768 156.752 90.0859 157.296 88.656 157.296ZM88.468 148.58C87.699 148.58 87.0496 148.862 86.5198 149.426C85.9957 149.99 85.6767 150.748 85.5627 151.699H91.1084V151.588C91.0799 150.699 90.8264 149.976 90.3479 149.417C89.8694 148.859 89.2428 148.58 88.468 148.58ZM99.9524 157.125C99.8499 156.834 99.7843 156.404 99.7559 155.835C99.397 156.302 98.9384 156.664 98.3801 156.92C97.8276 157.171 97.2408 157.296 96.6199 157.296C95.7312 157.296 95.0106 157.048 94.458 156.552C93.9111 156.057 93.6377 155.43 93.6377 154.673C93.6377 153.773 94.0108 153.06 94.7571 152.536C95.509 152.012 96.5544 151.75 97.8931 151.75H99.7473V150.699C99.7473 150.038 99.5422 149.52 99.1321 149.144C98.7276 148.762 98.1352 148.572 97.3547 148.572C96.6427 148.572 96.0531 148.754 95.5859 149.118C95.1188 149.483 94.8853 149.922 94.8853 150.434L93.8599 150.426C93.8599 149.691 94.2017 149.056 94.8853 148.52C95.5688 147.979 96.4091 147.708 97.406 147.708C98.4371 147.708 99.2489 147.968 99.8413 148.486C100.439 148.999 100.747 149.717 100.764 150.639V155.014C100.764 155.909 100.858 156.578 101.046 157.022V157.125H99.9524ZM96.7395 156.39C97.4231 156.39 98.0326 156.225 98.5681 155.895C99.1093 155.564 99.5024 155.123 99.7473 154.57V152.536H97.9187C96.899 152.548 96.1015 152.736 95.5261 153.1C94.9508 153.459 94.6631 153.955 94.6631 154.587C94.6631 155.106 94.8539 155.536 95.2356 155.877C95.623 156.219 96.1243 156.39 96.7395 156.39ZM103.088 152.417C103.088 150.981 103.407 149.839 104.045 148.99C104.689 148.136 105.561 147.708 106.66 147.708C107.908 147.708 108.859 148.201 109.514 149.187V144H110.531V157.125H109.574L109.531 155.895C108.876 156.829 107.913 157.296 106.643 157.296C105.578 157.296 104.718 156.869 104.062 156.014C103.413 155.154 103.088 153.995 103.088 152.536V152.417ZM104.122 152.596C104.122 153.775 104.359 154.707 104.832 155.39C105.304 156.068 105.971 156.407 106.831 156.407C108.09 156.407 108.984 155.852 109.514 154.741V150.4C108.984 149.198 108.096 148.597 106.848 148.597C105.988 148.597 105.319 148.936 104.84 149.614C104.362 150.286 104.122 151.28 104.122 152.596ZM114.368 157.125H113.342V144H114.368V157.125ZM118.298 157.125H117.273V147.879H118.298V157.125ZM117.094 145.205C117.094 145.011 117.156 144.849 117.281 144.718C117.407 144.581 117.578 144.513 117.794 144.513C118.011 144.513 118.182 144.581 118.307 144.718C118.438 144.849 118.503 145.011 118.503 145.205C118.503 145.398 118.438 145.561 118.307 145.692C118.182 145.823 118.011 145.888 117.794 145.888C117.578 145.888 117.407 145.823 117.281 145.692C117.156 145.561 117.094 145.398 117.094 145.205ZM122.058 147.879L122.092 149.46C122.44 148.891 122.873 148.458 123.391 148.161C123.91 147.859 124.482 147.708 125.109 147.708C126.1 147.708 126.838 147.988 127.322 148.546C127.806 149.104 128.051 149.942 128.057 151.058V157.125H127.04V151.05C127.034 150.224 126.858 149.608 126.51 149.204C126.168 148.799 125.618 148.597 124.861 148.597C124.229 148.597 123.667 148.797 123.177 149.195C122.693 149.588 122.334 150.121 122.101 150.793V157.125H121.084V147.879H122.058ZM134.286 157.296C133.5 157.296 132.788 157.102 132.15 156.715C131.517 156.327 131.025 155.789 130.671 155.1C130.318 154.405 130.142 153.627 130.142 152.767V152.4C130.142 151.511 130.312 150.711 130.654 149.999C131.002 149.286 131.483 148.728 132.098 148.324C132.714 147.914 133.38 147.708 134.098 147.708C135.22 147.708 136.109 148.093 136.764 148.862C137.425 149.625 137.755 150.671 137.755 151.998V152.571H131.158V152.767C131.158 153.815 131.458 154.69 132.056 155.39C132.66 156.085 133.417 156.433 134.329 156.433C134.875 156.433 135.357 156.333 135.773 156.134C136.194 155.934 136.576 155.615 136.918 155.177L137.559 155.664C136.807 156.752 135.716 157.296 134.286 157.296ZM134.098 148.58C133.329 148.58 132.679 148.862 132.15 149.426C131.626 149.99 131.307 150.748 131.193 151.699H136.738V151.588C136.71 150.699 136.456 149.976 135.978 149.417C135.499 148.859 134.873 148.58 134.098 148.58Z" fill="#263238"></path> <path d="M53.8047 184.167H52.4854V179.566H47.4678V184.167H46.1553V174.214H47.4678V178.493H52.4854V174.214H53.8047V184.167ZM57.6465 178.575H58.5967C59.1937 178.566 59.6631 178.408 60.0049 178.103C60.3467 177.798 60.5176 177.385 60.5176 176.866C60.5176 175.699 59.9365 175.116 58.7744 175.116C58.2275 175.116 57.79 175.273 57.4619 175.588C57.1383 175.897 56.9766 176.31 56.9766 176.825H55.7119C55.7119 176.036 55.999 175.382 56.5732 174.863C57.152 174.339 57.8857 174.077 58.7744 174.077C59.7132 174.077 60.4492 174.325 60.9824 174.822C61.5156 175.319 61.7822 176.009 61.7822 176.893C61.7822 177.326 61.641 177.745 61.3584 178.151C61.0804 178.557 60.6999 178.86 60.2168 179.06C60.7637 179.233 61.1852 179.52 61.4814 179.922C61.7822 180.323 61.9326 180.812 61.9326 181.391C61.9326 182.284 61.641 182.993 61.0576 183.517C60.4743 184.041 59.7155 184.303 58.7812 184.303C57.847 184.303 57.0859 184.05 56.498 183.545C55.9147 183.039 55.623 182.371 55.623 181.542H56.8945C56.8945 182.066 57.0654 182.485 57.4072 182.799C57.749 183.114 58.207 183.271 58.7812 183.271C59.3919 183.271 59.859 183.112 60.1826 182.793C60.5062 182.474 60.668 182.016 60.668 181.419C60.668 180.84 60.4902 180.395 60.1348 180.086C59.7793 179.776 59.2666 179.616 58.5967 179.607H57.6465V178.575ZM75.1191 184.167H73.7998V179.566H68.7822V184.167H67.4697V174.214H68.7822V178.493H73.7998V174.214H75.1191V184.167ZM80.3213 184.303C79.3187 184.303 78.5029 183.975 77.874 183.319C77.2451 182.658 76.9307 181.776 76.9307 180.673V180.441C76.9307 179.707 77.0697 179.053 77.3477 178.479C77.6302 177.9 78.0221 177.449 78.5234 177.126C79.0293 176.797 79.5762 176.633 80.1641 176.633C81.1257 176.633 81.873 176.95 82.4062 177.584C82.9395 178.217 83.2061 179.124 83.2061 180.304V180.831H78.1953C78.2135 181.56 78.4255 182.15 78.8311 182.601C79.2412 183.048 79.7607 183.271 80.3896 183.271C80.8363 183.271 81.2145 183.18 81.5244 182.998C81.8343 182.815 82.1055 182.574 82.3379 182.273L83.1104 182.875C82.4906 183.827 81.5609 184.303 80.3213 184.303ZM80.1641 177.672C79.6536 177.672 79.2253 177.859 78.8789 178.233C78.5326 178.602 78.3184 179.122 78.2363 179.792H81.9414V179.696C81.9049 179.053 81.7318 178.557 81.4219 178.206C81.112 177.85 80.6927 177.672 80.1641 177.672ZM89.2422 184.167C89.1693 184.021 89.11 183.761 89.0645 183.387C88.4766 183.998 87.7747 184.303 86.959 184.303C86.2298 184.303 85.6305 184.098 85.1611 183.688C84.6963 183.273 84.4639 182.749 84.4639 182.116C84.4639 181.346 84.7555 180.749 85.3389 180.325C85.9268 179.896 86.7516 179.682 87.8135 179.682H89.0439V179.101C89.0439 178.659 88.9118 178.308 88.6475 178.048C88.3831 177.784 87.9935 177.652 87.4785 177.652C87.0273 177.652 86.6491 177.766 86.3438 177.994C86.0384 178.222 85.8857 178.497 85.8857 178.821H84.6143C84.6143 178.452 84.7441 178.096 85.0039 177.755C85.2682 177.408 85.6237 177.135 86.0703 176.934C86.5215 176.734 87.016 176.633 87.5537 176.633C88.4059 176.633 89.0736 176.848 89.5566 177.276C90.0397 177.7 90.2904 178.285 90.3086 179.033V182.437C90.3086 183.116 90.3952 183.656 90.5684 184.057V184.167H89.2422ZM87.1436 183.203C87.54 183.203 87.916 183.1 88.2715 182.895C88.627 182.69 88.8844 182.423 89.0439 182.095V180.578H88.0527C86.5033 180.578 85.7285 181.031 85.7285 181.938C85.7285 182.335 85.8607 182.644 86.125 182.868C86.3893 183.091 86.7288 183.203 87.1436 183.203ZM91.9834 180.407C91.9834 179.272 92.2523 178.361 92.79 177.672C93.3278 176.98 94.0319 176.633 94.9023 176.633C95.7682 176.633 96.4541 176.93 96.96 177.522V173.667H98.2246V184.167H97.0625L97.001 183.374C96.4951 183.993 95.791 184.303 94.8887 184.303C94.0319 184.303 93.3324 183.952 92.79 183.251C92.2523 182.549 91.9834 181.633 91.9834 180.503V180.407ZM93.248 180.55C93.248 181.389 93.4212 182.045 93.7676 182.519C94.1139 182.993 94.5924 183.23 95.2031 183.23C96.0052 183.23 96.5908 182.87 96.96 182.15V178.753C96.5817 178.055 96.0007 177.707 95.2168 177.707C94.597 177.707 94.1139 177.946 93.7676 178.424C93.4212 178.903 93.248 179.612 93.248 180.55ZM101.567 184.167H100.303V173.667H101.567V184.167ZM104.972 184.167H103.707V176.77H104.972V184.167ZM103.604 174.808C103.604 174.603 103.666 174.43 103.789 174.289C103.917 174.147 104.104 174.077 104.35 174.077C104.596 174.077 104.783 174.147 104.91 174.289C105.038 174.43 105.102 174.603 105.102 174.808C105.102 175.013 105.038 175.184 104.91 175.321C104.783 175.458 104.596 175.526 104.35 175.526C104.104 175.526 103.917 175.458 103.789 175.321C103.666 175.184 103.604 175.013 103.604 174.808ZM108.198 176.77L108.239 177.7C108.804 176.989 109.543 176.633 110.454 176.633C112.017 176.633 112.806 177.515 112.819 179.279V184.167H111.555V179.272C111.55 178.739 111.427 178.345 111.186 178.089C110.949 177.834 110.577 177.707 110.071 177.707C109.661 177.707 109.301 177.816 108.991 178.035C108.681 178.254 108.44 178.541 108.267 178.896V184.167H107.002V176.77H108.198ZM117.796 184.303C116.793 184.303 115.978 183.975 115.349 183.319C114.72 182.658 114.405 181.776 114.405 180.673V180.441C114.405 179.707 114.544 179.053 114.822 178.479C115.105 177.9 115.497 177.449 115.998 177.126C116.504 176.797 117.051 176.633 117.639 176.633C118.6 176.633 119.348 176.95 119.881 177.584C120.414 178.217 120.681 179.124 120.681 180.304V180.831H115.67C115.688 181.56 115.9 182.15 116.306 182.601C116.716 183.048 117.235 183.271 117.864 183.271C118.311 183.271 118.689 183.18 118.999 182.998C119.309 182.815 119.58 182.574 119.812 182.273L120.585 182.875C119.965 183.827 119.035 184.303 117.796 184.303ZM117.639 177.672C117.128 177.672 116.7 177.859 116.354 178.233C116.007 178.602 115.793 179.122 115.711 179.792H119.416V179.696C119.38 179.053 119.206 178.557 118.896 178.206C118.587 177.85 118.167 177.672 117.639 177.672Z" fill="#263238"></path> <path d="M51.2367 206.125H50.3021V202.866H46.748V206.125H45.8183V199.075H46.748V202.106H50.3021V199.075H51.2367V206.125ZM56.51 203.757H57.4881V204.488H56.51V206.125H55.6094V204.488H52.399V203.961L55.5561 199.075H56.51V203.757ZM53.4159 203.757H55.6094V200.3L55.5028 200.494L53.4159 203.757ZM66.5531 206.125H65.6186V202.866H62.0645V206.125H61.1348V199.075H62.0645V202.106H65.6186V199.075H66.5531V206.125ZM70.3109 206.222C69.6007 206.222 69.0229 205.989 68.5774 205.525C68.132 205.057 67.9092 204.432 67.9092 203.651V203.486C67.9092 202.966 68.0077 202.503 68.2046 202.096C68.4047 201.686 68.6823 201.367 69.0374 201.138C69.3957 200.905 69.7831 200.789 70.1995 200.789C70.8807 200.789 71.4101 201.013 71.7878 201.462C72.1654 201.911 72.3543 202.553 72.3543 203.389V203.762H68.805C68.8179 204.279 68.968 204.697 69.2553 205.016C69.5459 205.333 69.9139 205.491 70.3593 205.491C70.6757 205.491 70.9436 205.426 71.1631 205.297C71.3826 205.168 71.5747 204.997 71.7393 204.784L72.2865 205.21C71.8475 205.885 71.1889 206.222 70.3109 206.222ZM70.1995 201.525C69.838 201.525 69.5346 201.657 69.2892 201.922C69.0439 202.184 68.8922 202.552 68.8341 203.026H71.4585V202.958C71.4327 202.503 71.31 202.151 71.0905 201.903C70.871 201.651 70.574 201.525 70.1995 201.525ZM76.7028 206.125C76.6511 206.022 76.6092 205.838 76.5769 205.573C76.1605 206.006 75.6634 206.222 75.0855 206.222C74.569 206.222 74.1445 206.077 73.8121 205.786C73.4828 205.492 73.3182 205.121 73.3182 204.672C73.3182 204.127 73.5248 203.704 73.9379 203.404C74.3544 203.1 74.9387 202.949 75.6908 202.949H76.5624V202.537C76.5624 202.224 76.4688 201.975 76.2815 201.791C76.0943 201.604 75.8183 201.51 75.4535 201.51C75.134 201.51 74.866 201.591 74.6497 201.753C74.4335 201.914 74.3253 202.109 74.3253 202.338H73.4247C73.4247 202.077 73.5167 201.825 73.7007 201.583C73.8879 201.338 74.1397 201.144 74.4561 201.002C74.7756 200.86 75.1259 200.789 75.5068 200.789C76.1104 200.789 76.5834 200.941 76.9255 201.244C77.2677 201.544 77.4453 201.959 77.4582 202.489V204.9C77.4582 205.381 77.5195 205.763 77.6422 206.048V206.125H76.7028ZM75.2163 205.442C75.4971 205.442 75.7634 205.37 76.0152 205.224C76.267 205.079 76.4494 204.89 76.5624 204.658V203.583H75.8603C74.7627 203.583 74.2139 203.904 74.2139 204.546C74.2139 204.827 74.3076 205.047 74.4948 205.205C74.682 205.363 74.9225 205.442 75.2163 205.442ZM78.7174 203.462C78.7174 202.658 78.9079 202.012 79.2888 201.525C79.6697 201.034 80.1684 200.789 80.785 200.789C81.3983 200.789 81.8842 200.999 82.2425 201.418V198.688H83.1383V206.125H82.3151L82.2715 205.563C81.9132 206.002 81.4145 206.222 80.7753 206.222C80.1684 206.222 79.6729 205.973 79.2888 205.476C78.9079 204.979 78.7174 204.33 78.7174 203.53V203.462ZM79.6132 203.564C79.6132 204.157 79.7359 204.622 79.9812 204.958C80.2265 205.294 80.5655 205.462 80.998 205.462C81.5662 205.462 81.981 205.207 82.2425 204.697V202.29C81.9745 201.796 81.563 201.549 81.0077 201.549C80.5687 201.549 80.2265 201.719 79.9812 202.058C79.7359 202.397 79.6132 202.899 79.6132 203.564ZM85.579 206.125H84.6832V198.688H85.579V206.125ZM88.0633 206.125H87.1675V200.886H88.0633V206.125ZM87.0948 199.496C87.0948 199.351 87.1384 199.228 87.2256 199.128C87.316 199.028 87.4483 198.978 87.6226 198.978C87.797 198.978 87.9293 199.028 88.0197 199.128C88.1101 199.228 88.1553 199.351 88.1553 199.496C88.1553 199.641 88.1101 199.762 88.0197 199.859C87.9293 199.956 87.797 200.005 87.6226 200.005C87.4483 200.005 87.316 199.956 87.2256 199.859C87.1384 199.762 87.0948 199.641 87.0948 199.496ZM90.4217 200.886L90.4507 201.544C90.851 201.041 91.374 200.789 92.0196 200.789C93.1268 200.789 93.6853 201.414 93.6949 202.663V206.125H92.7992V202.658C92.7959 202.28 92.7088 202.001 92.5377 201.82C92.3698 201.64 92.1067 201.549 91.7484 201.549C91.4579 201.549 91.2029 201.627 90.9834 201.782C90.7638 201.937 90.5928 202.14 90.4701 202.392V206.125H89.5743V200.886H90.4217ZM97.2929 206.222C96.5827 206.222 96.0049 205.989 95.5594 205.525C95.114 205.057 94.8912 204.432 94.8912 203.651V203.486C94.8912 202.966 94.9897 202.503 95.1866 202.096C95.3867 201.686 95.6644 201.367 96.0194 201.138C96.3778 200.905 96.7651 200.789 97.1816 200.789C97.8627 200.789 98.3921 201.013 98.7698 201.462C99.1475 201.911 99.3363 202.553 99.3363 203.389V203.762H95.787C95.7999 204.279 95.95 204.697 96.2373 205.016C96.5279 205.333 96.8959 205.491 97.3413 205.491C97.6577 205.491 97.9256 205.426 98.1451 205.297C98.3646 205.168 98.5567 204.997 98.7214 204.784L99.2685 205.21C98.8295 205.885 98.171 206.222 97.2929 206.222ZM97.1816 201.525C96.82 201.525 96.5166 201.657 96.2712 201.922C96.0259 202.184 95.8742 202.552 95.8161 203.026H98.4405V202.958C98.4147 202.503 98.292 202.151 98.0725 201.903C97.853 201.651 97.556 201.525 97.1816 201.525Z" fill="#263238"></path> <path d="M49.4023 224.125H48.7427V221.825H46.2339V224.125H45.5776V219.148H46.2339V221.288H48.7427V219.148H49.4023V224.125ZM50.6943 221.63L50.9473 219.148H53.4971V219.733H51.4839L51.3335 221.09C51.5773 220.946 51.8542 220.874 52.1641 220.874C52.6175 220.874 52.9775 221.025 53.2441 221.326C53.5107 221.624 53.644 222.029 53.644 222.539C53.644 223.052 53.505 223.456 53.2271 223.752C52.9513 224.046 52.5651 224.193 52.0684 224.193C51.6286 224.193 51.2697 224.071 50.9917 223.828C50.7137 223.584 50.5553 223.247 50.5166 222.816H51.1147C51.1535 223.101 51.2549 223.316 51.4189 223.462C51.583 223.605 51.7995 223.677 52.0684 223.677C52.3623 223.677 52.5924 223.577 52.7588 223.376C52.9274 223.176 53.0117 222.899 53.0117 222.546C53.0117 222.213 52.9206 221.947 52.7383 221.746C52.5583 221.543 52.3179 221.442 52.0171 221.442C51.7414 221.442 51.5249 221.502 51.3677 221.623L51.2002 221.76L50.6943 221.63ZM60.0596 224.125H59.3999V221.825H56.8911V224.125H56.2349V219.148H56.8911V221.288H59.3999V219.148H60.0596V224.125ZM62.6606 224.193C62.1593 224.193 61.7515 224.029 61.437 223.701C61.1226 223.371 60.9653 222.93 60.9653 222.378V222.262C60.9653 221.895 61.0348 221.568 61.1738 221.281C61.3151 220.992 61.5111 220.766 61.7617 220.604C62.0146 220.44 62.2881 220.358 62.582 220.358C63.0628 220.358 63.4365 220.517 63.7031 220.833C63.9697 221.15 64.103 221.604 64.103 222.194V222.457H61.5977C61.6068 222.822 61.7127 223.117 61.9155 223.342C62.1206 223.566 62.3804 223.677 62.6948 223.677C62.9181 223.677 63.1073 223.632 63.2622 223.54C63.4172 223.449 63.5527 223.329 63.6689 223.178L64.0552 223.479C63.7453 223.955 63.2804 224.193 62.6606 224.193ZM62.582 220.878C62.3268 220.878 62.1126 220.971 61.9395 221.158C61.7663 221.343 61.6592 221.603 61.6182 221.937H63.4707V221.89C63.4525 221.568 63.3659 221.32 63.2109 221.145C63.056 220.967 62.8464 220.878 62.582 220.878ZM67.1211 224.125C67.0846 224.052 67.055 223.922 67.0322 223.735C66.7383 224.041 66.3874 224.193 65.9795 224.193C65.6149 224.193 65.3153 224.091 65.0806 223.886C64.8481 223.678 64.7319 223.416 64.7319 223.1C64.7319 222.714 64.8778 222.416 65.1694 222.204C65.4634 221.99 65.8758 221.883 66.4067 221.883H67.022V221.592C67.022 221.371 66.9559 221.196 66.8237 221.066C66.6916 220.934 66.4967 220.868 66.2393 220.868C66.0137 220.868 65.8245 220.925 65.6719 221.039C65.5192 221.152 65.4429 221.29 65.4429 221.452H64.8071C64.8071 221.268 64.8721 221.09 65.002 220.919C65.1341 220.746 65.3118 220.609 65.5352 220.509C65.7607 220.408 66.008 220.358 66.2769 220.358C66.703 220.358 67.0368 220.465 67.2783 220.68C67.5199 220.892 67.6452 221.184 67.6543 221.558V223.26C67.6543 223.6 67.6976 223.87 67.7842 224.07V224.125H67.1211ZM66.0718 223.643C66.27 223.643 66.458 223.592 66.6357 223.489C66.8135 223.387 66.9422 223.253 67.022 223.089V222.331H66.5264C65.7516 222.331 65.3643 222.557 65.3643 223.011C65.3643 223.209 65.4303 223.364 65.5625 223.476C65.6947 223.587 65.8644 223.643 66.0718 223.643ZM68.4917 222.245C68.4917 221.678 68.6261 221.222 68.895 220.878C69.1639 220.532 69.516 220.358 69.9512 220.358C70.3841 220.358 70.7271 220.506 70.98 220.803V218.875H71.6123V224.125H71.0312L71.0005 223.728C70.7476 224.038 70.3955 224.193 69.9443 224.193C69.516 224.193 69.1662 224.018 68.895 223.667C68.6261 223.316 68.4917 222.858 68.4917 222.293V222.245ZM69.124 222.317C69.124 222.736 69.2106 223.064 69.3838 223.301C69.557 223.538 69.7962 223.657 70.1016 223.657C70.5026 223.657 70.7954 223.477 70.98 223.117V221.418C70.7909 221.069 70.5003 220.895 70.1084 220.895C69.7985 220.895 69.557 221.015 69.3838 221.254C69.2106 221.493 69.124 221.847 69.124 222.317ZM73.2837 224.125H72.6514V218.875H73.2837V224.125ZM74.9858 224.125H74.3535V220.427H74.9858V224.125ZM74.3022 219.446C74.3022 219.343 74.333 219.257 74.3945 219.186C74.4583 219.115 74.5518 219.08 74.6748 219.08C74.7979 219.08 74.8913 219.115 74.9551 219.186C75.0189 219.257 75.0508 219.343 75.0508 219.446C75.0508 219.548 75.0189 219.634 74.9551 219.702C74.8913 219.77 74.7979 219.805 74.6748 219.805C74.5518 219.805 74.4583 219.77 74.3945 219.702C74.333 219.634 74.3022 219.548 74.3022 219.446ZM76.5991 220.427L76.6196 220.892C76.9022 220.536 77.2713 220.358 77.7271 220.358C78.5086 220.358 78.9028 220.799 78.9097 221.681V224.125H78.2773V221.678C78.2751 221.411 78.2135 221.214 78.0928 221.086C77.9743 220.959 77.7886 220.895 77.5356 220.895C77.3306 220.895 77.1506 220.95 76.9956 221.059C76.8407 221.168 76.7199 221.312 76.6333 221.49V224.125H76.001V220.427H76.5991ZM81.3979 224.193C80.8966 224.193 80.4888 224.029 80.1743 223.701C79.8599 223.371 79.7026 222.93 79.7026 222.378V222.262C79.7026 221.895 79.7721 221.568 79.9111 221.281C80.0524 220.992 80.2484 220.766 80.499 220.604C80.752 220.44 81.0254 220.358 81.3193 220.358C81.8001 220.358 82.1738 220.517 82.4404 220.833C82.707 221.15 82.8403 221.604 82.8403 222.194V222.457H80.335C80.3441 222.822 80.45 223.117 80.6528 223.342C80.8579 223.566 81.1177 223.677 81.4321 223.677C81.6554 223.677 81.8446 223.632 81.9995 223.54C82.1545 223.449 82.29 223.329 82.4062 223.178L82.7925 223.479C82.4826 223.955 82.0177 224.193 81.3979 224.193ZM81.3193 220.878C81.0641 220.878 80.8499 220.971 80.6768 221.158C80.5036 221.343 80.3965 221.603 80.3555 221.937H82.208V221.89C82.1898 221.568 82.1032 221.32 81.9482 221.145C81.7933 220.967 81.5837 220.878 81.3193 220.878Z" fill="#263238"></path> <path d="M48.7142 241.917H47.9964V240.074H46.1422V241.917H45.4215V237.769H46.1422V239.496H47.9964V237.769H48.7142V241.917ZM51.6547 237.75V238.322H51.5692C51.1819 238.328 50.8723 238.434 50.6407 238.641C50.409 238.848 50.2713 239.141 50.2277 239.521C50.4498 239.288 50.7337 239.171 51.0793 239.171C51.4458 239.171 51.7344 239.3 51.9452 239.558C52.1579 239.816 52.2642 240.15 52.2642 240.558C52.2642 240.98 52.1398 241.321 51.8911 241.583C51.6442 241.844 51.3195 241.974 50.917 241.974C50.503 241.974 50.1669 241.821 49.9087 241.515C49.6523 241.209 49.5241 240.809 49.5241 240.313V240.077C49.5241 239.349 49.7007 238.78 50.0539 238.368C50.409 237.956 50.9189 237.75 51.5835 237.75H51.6547ZM50.9113 239.729C50.7594 239.729 50.6198 239.772 50.4926 239.857C50.3672 239.943 50.2751 240.057 50.2163 240.199V240.41C50.2163 240.717 50.2808 240.962 50.41 241.145C50.5391 241.325 50.7062 241.415 50.9113 241.415C51.1163 241.415 51.2787 241.338 51.3983 241.185C51.518 241.031 51.5778 240.829 51.5778 240.578C51.5778 240.327 51.517 240.123 51.3955 239.966C51.2739 239.808 51.1125 239.729 50.9113 239.729ZM57.7606 241.917H57.0429V240.074H55.1886V241.917H54.468V237.769H55.1886V239.496H57.0429V237.769H57.7606V241.917ZM59.9492 241.974C59.5105 241.974 59.1545 241.836 58.8811 241.561C58.6095 241.283 58.4737 240.915 58.4737 240.455V240.37C58.4737 240.062 58.5326 239.788 58.6503 239.547C58.77 239.304 58.9371 239.115 59.1516 238.98C59.3662 238.845 59.6055 238.778 59.8694 238.778C60.2891 238.778 60.6128 238.912 60.8407 239.179C61.0705 239.447 61.1853 239.826 61.1853 240.316V240.595H59.1716C59.1925 240.849 59.277 241.051 59.4251 241.199C59.5751 241.347 59.7631 241.421 59.989 241.421C60.3062 241.421 60.5644 241.293 60.7638 241.036L61.1369 241.393C61.0135 241.577 60.8483 241.72 60.6413 241.823C60.4362 241.923 60.2055 241.974 59.9492 241.974ZM59.8666 239.333C59.6767 239.333 59.5229 239.4 59.4051 239.533C59.2893 239.666 59.2153 239.851 59.183 240.088H60.5017V240.037C60.4865 239.805 60.4248 239.63 60.3166 239.513C60.2084 239.393 60.0584 239.333 59.8666 239.333ZM63.6103 241.917C63.5799 241.858 63.5533 241.762 63.5305 241.629C63.3102 241.859 63.0406 241.974 62.7216 241.974C62.4121 241.974 62.1595 241.885 61.9639 241.709C61.7684 241.532 61.6706 241.314 61.6706 241.054C61.6706 240.725 61.7921 240.473 62.0352 240.299C62.2801 240.122 62.6295 240.034 63.0833 240.034H63.5077V239.832C63.5077 239.672 63.4631 239.545 63.3739 239.45C63.2846 239.353 63.1488 239.305 62.9666 239.305C62.8089 239.305 62.6798 239.345 62.5792 239.424C62.4785 239.502 62.4282 239.602 62.4282 239.723H61.7361C61.7361 239.554 61.7921 239.397 61.9041 239.251C62.0162 239.102 62.1681 238.987 62.3599 238.903C62.5535 238.82 62.7691 238.778 63.0064 238.778C63.3672 238.778 63.6549 238.869 63.8695 239.051C64.084 239.232 64.1942 239.486 64.1999 239.815V241.205C64.1999 241.482 64.2388 241.703 64.3166 241.868V241.917H63.6103ZM62.8498 241.418C62.9865 241.418 63.1147 241.385 63.2343 241.318C63.3558 241.252 63.447 241.163 63.5077 241.051V240.47H63.1346C62.8783 240.47 62.6855 240.514 62.5564 240.604C62.4273 240.693 62.3627 240.819 62.3627 240.982C62.3627 241.115 62.4064 241.222 62.4937 241.301C62.583 241.379 62.7017 241.418 62.8498 241.418ZM64.8389 240.353C64.8389 239.878 64.9491 239.497 65.1693 239.211C65.3896 238.922 65.6849 238.778 66.0551 238.778C66.3817 238.778 66.6457 238.892 66.847 239.12V237.542H67.5391V241.917H66.9125L66.8783 241.598C66.6713 241.848 66.395 241.974 66.0494 241.974C65.6887 241.974 65.3962 241.828 65.1722 241.538C64.95 241.247 64.8389 240.852 64.8389 240.353ZM65.5311 240.413C65.5311 240.726 65.5909 240.971 65.7105 241.148C65.832 241.322 66.0039 241.41 66.226 241.41C66.509 241.41 66.7159 241.283 66.847 241.031V239.715C66.7197 239.468 66.5147 239.345 66.2317 239.345C66.0077 239.345 65.8349 239.434 65.7133 239.612C65.5918 239.789 65.5311 240.056 65.5311 240.413ZM69.0412 241.917H68.3491V237.542H69.0412V241.917ZM70.5775 241.917H69.8853V238.835H70.5775V241.917ZM69.8426 238.034C69.8426 237.928 69.8758 237.84 69.9423 237.769C70.0106 237.699 70.1075 237.664 70.2328 237.664C70.3581 237.664 70.455 237.699 70.5233 237.769C70.5917 237.84 70.6259 237.928 70.6259 238.034C70.6259 238.139 70.5917 238.226 70.5233 238.296C70.455 238.365 70.3581 238.399 70.2328 238.399C70.1075 238.399 70.0106 238.365 69.9423 238.296C69.8758 238.226 69.8426 238.139 69.8426 238.034ZM72.0197 238.835L72.0397 239.191C72.2675 238.915 72.5666 238.778 72.9369 238.778C73.5787 238.778 73.9053 239.145 73.9167 239.88V241.917H73.2246V239.92C73.2246 239.724 73.1818 239.58 73.0964 239.487C73.0128 239.392 72.8752 239.345 72.6834 239.345C72.4042 239.345 72.1963 239.471 72.0596 239.723V241.917H71.3675V238.835H72.0197ZM76.0255 241.974C75.5868 241.974 75.2308 241.836 74.9574 241.561C74.6858 241.283 74.55 240.915 74.55 240.455V240.37C74.55 240.062 74.6089 239.788 74.7266 239.547C74.8463 239.304 75.0134 239.115 75.2279 238.98C75.4425 238.845 75.6818 238.778 75.9457 238.778C76.3654 238.778 76.6891 238.912 76.917 239.179C77.1468 239.447 77.2616 239.826 77.2616 240.316V240.595H75.2479C75.2688 240.849 75.3533 241.051 75.5014 241.199C75.6514 241.347 75.8394 241.421 76.0653 241.421C76.3825 241.421 76.6407 241.293 76.8401 241.036L77.2132 241.393C77.0898 241.577 76.9246 241.72 76.7176 241.823C76.5125 241.923 76.2818 241.974 76.0255 241.974ZM75.9429 239.333C75.753 239.333 75.5992 239.4 75.4814 239.533C75.3656 239.666 75.2916 239.851 75.2593 240.088H76.578V240.037C76.5629 239.805 76.5011 239.63 76.3929 239.513C76.2847 239.393 76.1347 239.333 75.9429 239.333Z" fill="#263238"></path> <path d="M45.3851 257.25V253.932H46.4697C46.8298 253.932 47.1002 254.007 47.2809 254.156C47.4632 254.304 47.5544 254.525 47.5544 254.816C47.5544 254.971 47.5103 255.109 47.4222 255.229C47.3341 255.347 47.2141 255.439 47.0622 255.505C47.2414 255.555 47.3827 255.65 47.486 255.792C47.5908 255.931 47.6432 256.098 47.6432 256.293C47.6432 256.591 47.5468 256.825 47.3538 256.995C47.1609 257.165 46.8882 257.25 46.5358 257.25H45.3851ZM45.8226 255.698V256.892H46.5449C46.7485 256.892 46.9087 256.84 47.0257 256.735C47.1442 256.629 47.2035 256.483 47.2035 256.297C47.2035 255.898 46.9862 255.698 46.5518 255.698H45.8226ZM45.8226 255.347H46.4834C46.6748 255.347 46.8275 255.299 46.9414 255.204C47.0569 255.108 47.1146 254.978 47.1146 254.814C47.1146 254.632 47.0614 254.5 46.9551 254.418C46.8487 254.334 46.687 254.292 46.4697 254.292H45.8226V255.347ZM48.2432 255.994C48.2432 255.753 48.2903 255.536 48.3845 255.343C48.4802 255.15 48.6124 255.001 48.781 254.896C48.9511 254.791 49.1448 254.739 49.3621 254.739C49.6978 254.739 49.9689 254.855 50.1755 255.088C50.3837 255.32 50.4877 255.629 50.4877 256.015V256.045C50.4877 256.285 50.4414 256.5 50.3487 256.692C50.2576 256.882 50.1262 257.03 49.9545 257.136C49.7844 257.242 49.5884 257.296 49.3666 257.296C49.0324 257.296 48.7613 257.179 48.5531 256.947C48.3465 256.714 48.2432 256.407 48.2432 256.024V255.994ZM48.6671 256.045C48.6671 256.318 48.7301 256.538 48.8562 256.703C48.9838 256.869 49.1539 256.951 49.3666 256.951C49.5808 256.951 49.7509 256.868 49.877 256.701C50.0031 256.532 50.0662 256.297 50.0662 255.994C50.0662 255.724 50.0016 255.505 49.8725 255.338C49.7449 255.17 49.5747 255.085 49.3621 255.085C49.1539 255.085 48.9861 255.168 48.8585 255.334C48.7309 255.499 48.6671 255.736 48.6671 256.045ZM51.0421 255.997C51.0421 255.618 51.1318 255.315 51.311 255.085C51.4903 254.854 51.725 254.739 52.0151 254.739C52.3038 254.739 52.5324 254.838 52.701 255.035V253.75H53.1226V257.25H52.7352L52.7147 256.986C52.5461 257.192 52.3114 257.296 52.0106 257.296C51.725 257.296 51.4918 257.179 51.311 256.945C51.1318 256.711 51.0421 256.405 51.0421 256.029V255.997ZM51.4637 256.045C51.4637 256.324 51.5214 256.543 51.6369 256.701C51.7523 256.859 51.9118 256.938 52.1154 256.938C52.3828 256.938 52.578 256.818 52.701 256.578V255.445C52.5749 255.213 52.3812 255.097 52.1199 255.097C51.9134 255.097 51.7523 255.176 51.6369 255.336C51.5214 255.495 51.4637 255.732 51.4637 256.045ZM54.7138 256.632L55.288 254.784H55.7392L54.748 257.631C54.5945 258.041 54.3507 258.246 54.0165 258.246L53.9368 258.239L53.7795 258.209V257.867L53.8935 257.877C54.0363 257.877 54.1472 257.848 54.2261 257.79C54.3067 257.732 54.3727 257.627 54.4244 257.473L54.5178 257.223L53.6383 254.784H54.0985L54.7138 256.632ZM58.8738 257.25H58.4499V254.44L57.6 254.753V254.37L58.8077 253.916H58.8738V257.25Z" fill="#263238"></path> <g filter="url(#filter0_ddd)"> <rect width="140" height="291.111" transform="translate(96 24.3571)" fill="white"></rect> <g clip-path="url(#clip2)"> <path d="M124.162 52.246H123.272V49.1425H119.887V52.246H119.002V45.5316H119.887V48.4185H123.272V45.5316H124.162V52.246ZM127.741 52.3383C127.064 52.3383 126.514 52.1169 126.09 51.6742C125.666 51.2284 125.453 50.6335 125.453 49.8895V49.7327C125.453 49.2378 125.547 48.7966 125.735 48.4092C125.925 48.0188 126.19 47.7144 126.528 47.4961C126.869 47.2748 127.238 47.1641 127.635 47.1641C128.283 47.1641 128.788 47.3778 129.147 47.8051C129.507 48.2325 129.687 48.8442 129.687 49.6405V49.9956H126.307C126.319 50.4875 126.462 50.8856 126.735 51.19C127.012 51.4913 127.363 51.6419 127.787 51.6419C128.088 51.6419 128.343 51.5804 128.552 51.4575C128.761 51.3345 128.944 51.1715 129.101 50.9686L129.622 51.3745C129.204 52.017 128.577 52.3383 127.741 52.3383ZM127.635 47.8651C127.29 47.8651 127.001 47.9911 126.768 48.2432C126.534 48.4922 126.39 48.8427 126.334 49.2946H128.834V49.2301C128.809 48.7966 128.692 48.4615 128.483 48.2248C128.274 47.985 127.991 47.8651 127.635 47.8651ZM133.828 52.246C133.779 52.1477 133.739 51.9724 133.708 51.7203C133.312 52.1323 132.838 52.3383 132.288 52.3383C131.796 52.3383 131.392 52.1999 131.075 51.9232C130.762 51.6435 130.605 51.2899 130.605 50.8626C130.605 50.343 130.802 49.9403 131.195 49.6543C131.592 49.3654 132.148 49.2209 132.864 49.2209H133.694V48.8289C133.694 48.5307 133.605 48.2939 133.427 48.1187C133.249 47.9404 132.986 47.8512 132.638 47.8512C132.334 47.8512 132.079 47.9281 131.873 48.0818C131.667 48.2355 131.564 48.4215 131.564 48.6398H130.706C130.706 48.3908 130.794 48.151 130.969 47.9204C131.147 47.6868 131.387 47.5023 131.688 47.367C131.993 47.2317 132.326 47.1641 132.689 47.1641C133.264 47.1641 133.714 47.3086 134.04 47.5976C134.366 47.8835 134.535 48.2786 134.548 48.7828V51.0793C134.548 51.5374 134.606 51.9017 134.723 52.1722V52.246H133.828ZM132.412 51.5958C132.68 51.5958 132.934 51.5266 133.173 51.3883C133.413 51.2499 133.587 51.0701 133.694 50.8487V49.825H133.026C131.981 49.825 131.458 50.1309 131.458 50.7427C131.458 51.0101 131.547 51.2192 131.725 51.3698C131.904 51.5205 132.133 51.5958 132.412 51.5958ZM135.747 49.7097C135.747 48.9442 135.928 48.3293 136.291 47.8651C136.654 47.3978 137.129 47.1641 137.716 47.1641C138.3 47.1641 138.763 47.3639 139.104 47.7636V45.1627H139.957V52.246H139.173L139.132 51.7111C138.791 52.1292 138.316 52.3383 137.707 52.3383C137.129 52.3383 136.657 52.1015 136.291 51.6281C135.928 51.1546 135.747 50.5367 135.747 49.7742V49.7097ZM136.6 49.8065C136.6 50.3722 136.717 50.8149 136.951 51.1347C137.184 51.4544 137.507 51.6143 137.919 51.6143C138.46 51.6143 138.855 51.3714 139.104 50.8856V48.5937C138.849 48.1233 138.457 47.8881 137.928 47.8881C137.51 47.8881 137.184 48.0495 136.951 48.3723C136.717 48.6951 136.6 49.1732 136.6 49.8065ZM142.282 52.246H141.429V45.1627H142.282V52.246ZM144.648 52.246H143.795V47.2563H144.648V52.246ZM143.725 45.9328C143.725 45.7945 143.767 45.6777 143.85 45.5823C143.936 45.487 144.062 45.4394 144.228 45.4394C144.394 45.4394 144.52 45.487 144.606 45.5823C144.692 45.6777 144.735 45.7945 144.735 45.9328C144.735 46.0712 144.692 46.1865 144.606 46.2787C144.52 46.3709 144.394 46.417 144.228 46.417C144.062 46.417 143.936 46.3709 143.85 46.2787C143.767 46.1865 143.725 46.0712 143.725 45.9328ZM146.894 47.2563L146.921 47.8835C147.303 47.4039 147.801 47.1641 148.416 47.1641C149.47 47.1641 150.002 47.759 150.011 48.9488V52.246H149.158V48.9442C149.155 48.5845 149.072 48.3185 148.909 48.1464C148.749 47.9742 148.499 47.8881 148.157 47.8881C147.881 47.8881 147.638 47.9619 147.429 48.1095C147.22 48.257 147.057 48.4507 146.94 48.6905V52.246H146.087V47.2563H146.894ZM153.438 52.3383C152.762 52.3383 152.211 52.1169 151.787 51.6742C151.363 51.2284 151.151 50.6335 151.151 49.8895V49.7327C151.151 49.2378 151.244 48.7966 151.432 48.4092C151.622 48.0188 151.887 47.7144 152.225 47.4961C152.566 47.2748 152.935 47.1641 153.332 47.1641C153.981 47.1641 154.485 47.3778 154.844 47.8051C155.204 48.2325 155.384 48.8442 155.384 49.6405V49.9956H152.004C152.016 50.4875 152.159 50.8856 152.433 51.19C152.709 51.4913 153.06 51.6419 153.484 51.6419C153.785 51.6419 154.04 51.5804 154.25 51.4575C154.459 51.3345 154.641 51.1715 154.798 50.9686L155.319 51.3745C154.901 52.017 154.274 52.3383 153.438 52.3383ZM153.332 47.8651C152.987 47.8651 152.698 47.9911 152.465 48.2432C152.231 48.4922 152.087 48.8427 152.031 49.2946H154.531V49.2301C154.506 48.7966 154.389 48.4615 154.18 48.2248C153.971 47.985 153.688 47.8651 153.332 47.8651ZM159.35 50.9225C159.35 50.6919 159.263 50.5136 159.087 50.3876C158.915 50.2585 158.612 50.1478 158.179 50.0555C157.748 49.9633 157.406 49.8526 157.15 49.7235C156.898 49.5944 156.711 49.4407 156.588 49.2624C156.468 49.084 156.408 48.8719 156.408 48.626C156.408 48.2171 156.58 47.8712 156.924 47.5884C157.272 47.3055 157.715 47.1641 158.253 47.1641C158.818 47.1641 159.276 47.3101 159.627 47.6022C159.98 47.8943 160.157 48.2678 160.157 48.7228H159.299C159.299 48.4892 159.2 48.2878 159 48.1187C158.803 47.9496 158.554 47.8651 158.253 47.8651C157.942 47.8651 157.699 47.9327 157.524 48.068C157.349 48.2032 157.261 48.38 157.261 48.5983C157.261 48.8043 157.343 48.9595 157.506 49.0641C157.668 49.1686 157.962 49.2685 158.386 49.3638C158.814 49.4591 159.16 49.5729 159.424 49.7051C159.688 49.8373 159.884 49.9971 160.01 50.1847C160.139 50.3691 160.203 50.5951 160.203 50.8626C160.203 51.3084 160.025 51.6665 159.668 51.9371C159.312 52.2045 158.849 52.3383 158.28 52.3383C157.881 52.3383 157.527 52.2676 157.22 52.1261C156.912 51.9847 156.671 51.788 156.496 51.5359C156.323 51.2807 156.237 51.0055 156.237 50.7104H157.09C157.106 50.9963 157.22 51.2238 157.432 51.3929C157.647 51.5589 157.93 51.6419 158.28 51.6419C158.603 51.6419 158.861 51.5774 159.055 51.4482C159.252 51.316 159.35 51.1408 159.35 50.9225Z" fill="#263238"></path> </g> <path d="M117.893 93.5794V74.9127H120.693V82.9127H130.613V74.9127H133.413V93.5794H130.613V85.4461H120.693V93.5794H117.893ZM141.295 74.9127V93.5794H138.655V77.6594L135.295 79.0727V76.7261L139.615 74.9127H141.295ZM149.091 93.5794V74.9127H151.891V82.9127H161.811V74.9127H164.611V93.5794H161.811V85.4461H151.891V93.5794H149.091ZM179.16 92.0327C178.378 92.6372 177.56 93.0905 176.706 93.3927C175.853 93.6772 174.92 93.8194 173.906 93.8194C172.911 93.8194 171.978 93.6416 171.106 93.2861C170.235 92.9127 169.48 92.415 168.84 91.7927C168.2 91.1705 167.693 90.4327 167.32 89.5794C166.964 88.7083 166.786 87.775 166.786 86.7794C166.786 85.8016 166.964 84.8861 167.32 84.0327C167.675 83.1794 168.155 82.4416 168.76 81.8194C169.364 81.1972 170.084 80.7083 170.92 80.3527C171.755 79.9794 172.644 79.7927 173.586 79.7927C174.511 79.7927 175.373 79.9794 176.173 80.3527C176.991 80.7083 177.684 81.2061 178.253 81.8461C178.84 82.4683 179.302 83.215 179.64 84.0861C179.978 84.9572 180.146 85.8905 180.146 86.8861V87.6594H169.426C169.604 88.7794 170.12 89.7127 170.973 90.4594C171.826 91.1883 172.84 91.5527 174.013 91.5527C174.671 91.5527 175.302 91.4461 175.906 91.2327C176.511 91.0194 177.026 90.7261 177.453 90.3527L179.16 92.0327ZM173.533 82.0327C172.52 82.0327 171.631 82.3705 170.866 83.0461C170.12 83.7216 169.649 84.5927 169.453 85.6594H177.506C177.311 84.6283 176.84 83.7661 176.093 83.0727C175.364 82.3794 174.511 82.0327 173.533 82.0327ZM186.129 93.8194C184.653 93.8194 183.453 93.4372 182.529 92.6727C181.604 91.9083 181.142 90.9127 181.142 89.6861C181.142 88.4061 181.631 87.4016 182.609 86.6727C183.587 85.9261 184.929 85.5527 186.635 85.5527C187.293 85.5527 187.933 85.6239 188.555 85.7661C189.178 85.8905 189.773 86.0683 190.342 86.2994V84.8594C190.342 83.8994 190.058 83.1794 189.489 82.6994C188.92 82.2194 188.102 81.9794 187.035 81.9794C186.413 81.9794 185.764 82.0772 185.089 82.2727C184.413 82.4505 183.658 82.735 182.822 83.1261L181.835 81.1261C182.849 80.6461 183.809 80.2994 184.715 80.0861C185.622 79.855 186.52 79.7394 187.409 79.7394C189.169 79.7394 190.529 80.1661 191.489 81.0194C192.467 81.855 192.955 83.0461 192.955 84.5927V93.5794H190.342V92.4061C189.738 92.8861 189.089 93.2416 188.395 93.4727C187.702 93.7039 186.947 93.8194 186.129 93.8194ZM183.702 89.6327C183.702 90.2905 183.978 90.8239 184.529 91.2327C185.098 91.6416 185.835 91.8461 186.742 91.8461C187.453 91.8461 188.111 91.7394 188.715 91.5261C189.32 91.3127 189.862 90.9927 190.342 90.5661V88.2194C189.827 87.935 189.284 87.7305 188.715 87.6061C188.147 87.4639 187.524 87.3927 186.849 87.3927C185.889 87.3927 185.124 87.5972 184.555 88.0061C183.987 88.415 183.702 88.9572 183.702 89.6327ZM205.734 93.5794V92.2994C205.165 92.7794 204.525 93.1527 203.814 93.4194C203.103 93.6683 202.356 93.7927 201.574 93.7927C200.614 93.7927 199.716 93.615 198.88 93.2594C198.045 92.8861 197.316 92.3883 196.694 91.7661C196.089 91.1439 195.609 90.4061 195.254 89.5527C194.898 88.6816 194.72 87.7572 194.72 86.7794C194.72 85.8016 194.898 84.8861 195.254 84.0327C195.609 83.1794 196.089 82.4416 196.694 81.8194C197.316 81.1972 198.054 80.7083 198.907 80.3527C199.76 79.9794 200.667 79.7927 201.627 79.7927C202.374 79.7927 203.094 79.9083 203.787 80.1394C204.48 80.3705 205.12 80.6994 205.707 81.1261V74.9127L208.374 74.3261V93.5794H205.734ZM197.334 86.7527C197.334 88.0861 197.778 89.2061 198.667 90.1127C199.556 91.0194 200.649 91.4727 201.947 91.4727C202.712 91.4727 203.414 91.3305 204.054 91.0461C204.712 90.7616 205.263 90.3616 205.707 89.8461V83.6861C205.263 83.1883 204.712 82.7972 204.054 82.5127C203.396 82.2283 202.694 82.0861 201.947 82.0861C200.649 82.0861 199.556 82.5305 198.667 83.4194C197.778 84.3083 197.334 85.4194 197.334 86.7527Z" fill="#263238"></path> <path d="M117.183 126.635V114.968H118.933V119.968H125.133V114.968H126.883V126.635H125.133V121.552H118.933V126.635H117.183ZM128.416 126.635V125.435L132.916 121.252C133.582 120.618 134.043 120.09 134.299 119.668C134.566 119.246 134.699 118.802 134.699 118.335C134.699 117.735 134.466 117.24 133.999 116.852C133.543 116.452 132.966 116.252 132.266 116.252C131.699 116.252 131.171 116.363 130.682 116.585C130.193 116.807 129.66 117.174 129.082 117.685L128.132 116.552C128.777 115.974 129.449 115.54 130.149 115.252C130.849 114.963 131.566 114.818 132.299 114.818C132.888 114.818 133.427 114.902 133.916 115.068C134.416 115.235 134.838 115.474 135.182 115.785C135.538 116.085 135.816 116.446 136.016 116.868C136.216 117.279 136.316 117.735 136.316 118.235C136.316 118.902 136.149 119.518 135.816 120.085C135.493 120.652 134.882 121.352 133.982 122.185L130.699 125.218H136.499V126.635H128.416ZM141.155 126.635V114.968H142.905V119.968H149.105V114.968H150.855V126.635H149.105V121.552H142.905V126.635H141.155ZM160.104 125.668C159.615 126.046 159.104 126.329 158.57 126.518C158.037 126.696 157.454 126.785 156.82 126.785C156.198 126.785 155.615 126.674 155.07 126.452C154.526 126.218 154.054 125.907 153.654 125.518C153.254 125.129 152.937 124.668 152.704 124.135C152.482 123.59 152.37 123.007 152.37 122.385C152.37 121.774 152.482 121.202 152.704 120.668C152.926 120.135 153.226 119.674 153.604 119.285C153.982 118.896 154.432 118.59 154.954 118.368C155.476 118.135 156.032 118.018 156.62 118.018C157.198 118.018 157.737 118.135 158.237 118.368C158.748 118.59 159.182 118.902 159.537 119.302C159.904 119.69 160.193 120.157 160.404 120.702C160.615 121.246 160.72 121.829 160.72 122.452V122.935H154.02C154.132 123.635 154.454 124.218 154.987 124.685C155.52 125.14 156.154 125.368 156.887 125.368C157.298 125.368 157.693 125.302 158.07 125.168C158.448 125.035 158.77 124.852 159.037 124.618L160.104 125.668ZM156.587 119.418C155.954 119.418 155.398 119.629 154.92 120.052C154.454 120.474 154.159 121.018 154.037 121.685H159.07C158.948 121.04 158.654 120.502 158.187 120.068C157.732 119.635 157.198 119.418 156.587 119.418ZM164.616 126.785C163.693 126.785 162.943 126.546 162.366 126.068C161.788 125.59 161.499 124.968 161.499 124.202C161.499 123.402 161.805 122.774 162.416 122.318C163.027 121.852 163.866 121.618 164.932 121.618C165.343 121.618 165.743 121.663 166.132 121.752C166.521 121.829 166.893 121.94 167.249 122.085V121.185C167.249 120.585 167.071 120.135 166.716 119.835C166.36 119.535 165.849 119.385 165.182 119.385C164.793 119.385 164.388 119.446 163.966 119.568C163.543 119.679 163.071 119.857 162.549 120.102L161.932 118.852C162.566 118.552 163.166 118.335 163.732 118.202C164.299 118.057 164.86 117.985 165.416 117.985C166.516 117.985 167.366 118.252 167.966 118.785C168.577 119.307 168.882 120.052 168.882 121.018V126.635H167.249V125.902C166.871 126.202 166.466 126.424 166.032 126.568C165.599 126.713 165.127 126.785 164.616 126.785ZM163.099 124.168C163.099 124.579 163.271 124.913 163.616 125.168C163.971 125.424 164.432 125.552 164.999 125.552C165.443 125.552 165.855 125.485 166.232 125.352C166.61 125.218 166.949 125.018 167.249 124.752V123.285C166.927 123.107 166.588 122.979 166.232 122.902C165.877 122.813 165.488 122.768 165.066 122.768C164.466 122.768 163.988 122.896 163.632 123.152C163.277 123.407 163.099 123.746 163.099 124.168ZM177.025 126.635V125.835C176.669 126.135 176.269 126.368 175.825 126.535C175.381 126.69 174.914 126.768 174.425 126.768C173.825 126.768 173.264 126.657 172.742 126.435C172.219 126.202 171.764 125.89 171.375 125.502C170.997 125.113 170.697 124.652 170.475 124.118C170.253 123.574 170.142 122.996 170.142 122.385C170.142 121.774 170.253 121.202 170.475 120.668C170.697 120.135 170.997 119.674 171.375 119.285C171.764 118.896 172.225 118.59 172.758 118.368C173.292 118.135 173.858 118.018 174.458 118.018C174.925 118.018 175.375 118.09 175.808 118.235C176.242 118.379 176.642 118.585 177.008 118.852V114.968L178.675 114.602V126.635H177.025ZM171.775 122.368C171.775 123.202 172.053 123.902 172.608 124.468C173.164 125.035 173.847 125.318 174.658 125.318C175.136 125.318 175.575 125.229 175.975 125.052C176.386 124.874 176.731 124.624 177.008 124.302V120.452C176.731 120.14 176.386 119.896 175.975 119.718C175.564 119.54 175.125 119.452 174.658 119.452C173.847 119.452 173.164 119.729 172.608 120.285C172.053 120.84 171.775 121.535 171.775 122.368ZM182.038 114.602V126.635H180.371V114.968L182.038 114.602ZM184.556 116.785C184.278 116.785 184.039 116.685 183.839 116.485C183.639 116.274 183.539 116.029 183.539 115.752C183.539 115.474 183.639 115.235 183.839 115.035C184.039 114.824 184.278 114.718 184.556 114.718C184.834 114.718 185.073 114.824 185.273 115.035C185.484 115.235 185.589 115.474 185.589 115.752C185.589 116.029 185.484 116.274 185.273 116.485C185.073 116.685 184.834 116.785 184.556 116.785ZM185.389 118.152V126.635H183.723V118.152H185.389ZM187.074 126.635V118.152H188.741V119.002C189.074 118.668 189.452 118.418 189.874 118.252C190.308 118.074 190.78 117.985 191.291 117.985C192.258 117.985 193.052 118.296 193.674 118.918C194.297 119.529 194.608 120.324 194.608 121.302V126.635H192.941V121.585C192.941 120.918 192.747 120.396 192.358 120.018C191.98 119.629 191.474 119.435 190.841 119.435C190.397 119.435 189.991 119.529 189.624 119.718C189.269 119.907 188.974 120.179 188.741 120.535V126.635H187.074ZM203.603 125.668C203.114 126.046 202.603 126.329 202.07 126.518C201.536 126.696 200.953 126.785 200.32 126.785C199.698 126.785 199.114 126.674 198.57 126.452C198.025 126.218 197.553 125.907 197.153 125.518C196.753 125.129 196.436 124.668 196.203 124.135C195.981 123.59 195.87 123.007 195.87 122.385C195.87 121.774 195.981 121.202 196.203 120.668C196.425 120.135 196.725 119.674 197.103 119.285C197.481 118.896 197.931 118.59 198.453 118.368C198.975 118.135 199.531 118.018 200.12 118.018C200.698 118.018 201.236 118.135 201.736 118.368C202.248 118.59 202.681 118.902 203.036 119.302C203.403 119.69 203.692 120.157 203.903 120.702C204.114 121.246 204.22 121.829 204.22 122.452V122.935H197.52C197.631 123.635 197.953 124.218 198.486 124.685C199.02 125.14 199.653 125.368 200.386 125.368C200.798 125.368 201.192 125.302 201.57 125.168C201.948 125.035 202.27 124.852 202.536 124.618L203.603 125.668ZM200.086 119.418C199.453 119.418 198.898 119.629 198.42 120.052C197.953 120.474 197.659 121.018 197.536 121.685H202.57C202.448 121.04 202.153 120.502 201.686 120.068C201.231 119.635 200.698 119.418 200.086 119.418Z" fill="#263238"></path> <path d="M116.947 153.357V144.024H118.347V148.024H123.307V144.024H124.707V153.357H123.307V149.29H118.347V153.357H116.947ZM132.856 150.784C132.856 151.175 132.767 151.539 132.589 151.877C132.411 152.206 132.167 152.49 131.856 152.73C131.545 152.97 131.171 153.157 130.736 153.29C130.3 153.424 129.829 153.49 129.323 153.49C128.629 153.49 127.976 153.375 127.363 153.144C126.758 152.904 126.234 152.562 125.789 152.117L126.683 151.277C127.074 151.659 127.474 151.935 127.883 152.104C128.3 152.264 128.776 152.344 129.309 152.344C129.958 152.344 130.487 152.193 130.896 151.89C131.305 151.588 131.509 151.197 131.509 150.717C131.509 150.282 131.314 149.926 130.923 149.65C130.54 149.375 130.029 149.237 129.389 149.237H128.576V148.157H129.283C129.825 148.157 130.278 148.002 130.643 147.69C131.007 147.379 131.189 146.993 131.189 146.53C131.189 146.104 131.003 145.748 130.629 145.464C130.265 145.179 129.811 145.037 129.269 145.037C128.789 145.037 128.358 145.122 127.976 145.29C127.594 145.459 127.198 145.748 126.789 146.157L125.896 145.304C126.349 144.85 126.869 144.499 127.456 144.25C128.043 144.002 128.656 143.877 129.296 143.877C129.758 143.877 130.185 143.944 130.576 144.077C130.976 144.202 131.318 144.375 131.603 144.597C131.887 144.819 132.109 145.09 132.269 145.41C132.429 145.722 132.509 146.064 132.509 146.437C132.509 146.908 132.371 147.335 132.096 147.717C131.829 148.09 131.46 148.388 130.989 148.61C131.549 148.779 131.998 149.059 132.336 149.45C132.683 149.833 132.856 150.277 132.856 150.784ZM136.921 153.357V144.024H138.321V148.024H143.281V144.024H144.681V153.357H143.281V149.29H138.321V153.357H136.921ZM152.163 152.584C151.772 152.886 151.363 153.113 150.937 153.264C150.51 153.406 150.043 153.477 149.537 153.477C149.039 153.477 148.572 153.388 148.137 153.21C147.701 153.024 147.323 152.775 147.003 152.464C146.683 152.153 146.43 151.784 146.243 151.357C146.065 150.922 145.977 150.455 145.977 149.957C145.977 149.468 146.065 149.01 146.243 148.584C146.421 148.157 146.661 147.788 146.963 147.477C147.265 147.166 147.625 146.922 148.043 146.744C148.461 146.557 148.905 146.464 149.377 146.464C149.839 146.464 150.27 146.557 150.67 146.744C151.079 146.922 151.425 147.17 151.71 147.49C152.003 147.802 152.234 148.175 152.403 148.61C152.572 149.046 152.657 149.513 152.657 150.01V150.397H147.297C147.385 150.957 147.643 151.424 148.07 151.797C148.497 152.162 149.003 152.344 149.59 152.344C149.919 152.344 150.234 152.29 150.537 152.184C150.839 152.077 151.097 151.93 151.31 151.744L152.163 152.584ZM149.35 147.584C148.843 147.584 148.399 147.753 148.017 148.09C147.643 148.428 147.408 148.864 147.31 149.397H151.337C151.239 148.882 151.003 148.45 150.63 148.104C150.265 147.757 149.839 147.584 149.35 147.584ZM155.856 153.477C155.118 153.477 154.518 153.286 154.056 152.904C153.594 152.522 153.363 152.024 153.363 151.41C153.363 150.77 153.607 150.268 154.096 149.904C154.585 149.53 155.256 149.344 156.109 149.344C156.438 149.344 156.758 149.379 157.069 149.45C157.381 149.513 157.678 149.602 157.963 149.717V148.997C157.963 148.517 157.821 148.157 157.536 147.917C157.252 147.677 156.843 147.557 156.309 147.557C155.998 147.557 155.674 147.606 155.336 147.704C154.998 147.793 154.621 147.935 154.203 148.13L153.709 147.13C154.216 146.89 154.696 146.717 155.149 146.61C155.603 146.495 156.052 146.437 156.496 146.437C157.376 146.437 158.056 146.65 158.536 147.077C159.025 147.495 159.269 148.09 159.269 148.864V153.357H157.963V152.77C157.661 153.01 157.336 153.188 156.989 153.304C156.643 153.419 156.265 153.477 155.856 153.477ZM154.643 151.384C154.643 151.713 154.781 151.979 155.056 152.184C155.341 152.388 155.709 152.49 156.163 152.49C156.518 152.49 156.847 152.437 157.149 152.33C157.452 152.224 157.723 152.064 157.963 151.85V150.677C157.705 150.535 157.434 150.433 157.149 150.37C156.865 150.299 156.554 150.264 156.216 150.264C155.736 150.264 155.354 150.366 155.069 150.57C154.785 150.775 154.643 151.046 154.643 151.384ZM165.867 153.357V152.717C165.582 152.957 165.262 153.144 164.907 153.277C164.551 153.402 164.178 153.464 163.787 153.464C163.307 153.464 162.858 153.375 162.44 153.197C162.022 153.01 161.658 152.762 161.347 152.45C161.045 152.139 160.805 151.77 160.627 151.344C160.449 150.908 160.36 150.446 160.36 149.957C160.36 149.468 160.449 149.01 160.627 148.584C160.805 148.157 161.045 147.788 161.347 147.477C161.658 147.166 162.027 146.922 162.454 146.744C162.88 146.557 163.334 146.464 163.814 146.464C164.187 146.464 164.547 146.522 164.894 146.637C165.24 146.753 165.56 146.917 165.854 147.13V144.024L167.187 143.73V153.357H165.867ZM161.667 149.944C161.667 150.61 161.889 151.17 162.334 151.624C162.778 152.077 163.325 152.304 163.974 152.304C164.356 152.304 164.707 152.233 165.027 152.09C165.356 151.948 165.631 151.748 165.854 151.49V148.41C165.631 148.162 165.356 147.966 165.027 147.824C164.698 147.682 164.347 147.61 163.974 147.61C163.325 147.61 162.778 147.833 162.334 148.277C161.889 148.722 161.667 149.277 161.667 149.944ZM169.96 143.73V153.357H168.627V144.024L169.96 143.73ZM172.058 145.477C171.836 145.477 171.645 145.397 171.485 145.237C171.325 145.068 171.245 144.873 171.245 144.65C171.245 144.428 171.325 144.237 171.485 144.077C171.645 143.908 171.836 143.824 172.058 143.824C172.281 143.824 172.472 143.908 172.632 144.077C172.801 144.237 172.885 144.428 172.885 144.65C172.885 144.873 172.801 145.068 172.632 145.237C172.472 145.397 172.281 145.477 172.058 145.477ZM172.725 146.57V153.357H171.392V146.57H172.725ZM174.156 153.357V146.57H175.49V147.25C175.756 146.984 176.059 146.784 176.396 146.65C176.743 146.508 177.121 146.437 177.53 146.437C178.303 146.437 178.939 146.686 179.436 147.184C179.934 147.673 180.183 148.308 180.183 149.09V153.357H178.85V149.317C178.85 148.784 178.694 148.366 178.383 148.064C178.081 147.753 177.676 147.597 177.17 147.597C176.814 147.597 176.49 147.673 176.196 147.824C175.912 147.975 175.676 148.193 175.49 148.477V153.357H174.156ZM187.463 152.584C187.072 152.886 186.663 153.113 186.236 153.264C185.809 153.406 185.343 153.477 184.836 153.477C184.338 153.477 183.872 153.388 183.436 153.21C183 153.024 182.623 152.775 182.303 152.464C181.983 152.153 181.729 151.784 181.543 151.357C181.365 150.922 181.276 150.455 181.276 149.957C181.276 149.468 181.365 149.01 181.543 148.584C181.72 148.157 181.96 147.788 182.263 147.477C182.565 147.166 182.925 146.922 183.343 146.744C183.76 146.557 184.205 146.464 184.676 146.464C185.138 146.464 185.569 146.557 185.969 146.744C186.378 146.922 186.725 147.17 187.009 147.49C187.303 147.802 187.534 148.175 187.703 148.61C187.872 149.046 187.956 149.513 187.956 150.01V150.397H182.596C182.685 150.957 182.943 151.424 183.369 151.797C183.796 152.162 184.303 152.344 184.889 152.344C185.218 152.344 185.534 152.29 185.836 152.184C186.138 152.077 186.396 151.93 186.609 151.744L187.463 152.584ZM184.649 147.584C184.143 147.584 183.698 147.753 183.316 148.09C182.943 148.428 182.707 148.864 182.609 149.397H186.636C186.538 148.882 186.303 148.45 185.929 148.104C185.565 147.757 185.138 147.584 184.649 147.584Z" fill="#263238"></path> <path d="M116.671 173.913V167.302H117.662V170.135H121.176V167.302H122.167V173.913H121.176V171.032H117.662V173.913H116.671ZM127.714 167.302V171.438H128.516V172.241H127.714V173.913H126.779V172.241H123.029V171.485L126.665 167.302H127.714ZM124.144 171.438H126.779V168.407L124.144 171.438ZM131.33 173.913V167.302H132.322V170.135H135.835V167.302H136.827V173.913H135.835V171.032H132.322V173.913H131.33ZM142.156 173.365C141.879 173.579 141.589 173.74 141.287 173.847C140.984 173.947 140.654 173.998 140.295 173.998C139.942 173.998 139.612 173.935 139.303 173.809C138.995 173.677 138.727 173.5 138.501 173.28C138.274 173.06 138.094 172.798 137.962 172.496C137.836 172.187 137.773 171.857 137.773 171.504C137.773 171.158 137.836 170.834 137.962 170.532C138.088 170.229 138.258 169.968 138.472 169.748C138.686 169.527 138.941 169.354 139.237 169.228C139.533 169.096 139.848 169.03 140.182 169.03C140.509 169.03 140.814 169.096 141.098 169.228C141.387 169.354 141.633 169.53 141.834 169.757C142.042 169.977 142.206 170.242 142.326 170.55C142.445 170.859 142.505 171.19 142.505 171.542V171.816H138.708C138.771 172.213 138.954 172.543 139.256 172.808C139.558 173.066 139.917 173.195 140.333 173.195C140.566 173.195 140.789 173.157 141.003 173.082C141.217 173.006 141.4 172.902 141.551 172.77L142.156 173.365ZM140.163 169.823C139.804 169.823 139.489 169.943 139.218 170.182C138.954 170.421 138.787 170.73 138.718 171.108H141.57C141.501 170.742 141.334 170.437 141.069 170.192C140.811 169.946 140.509 169.823 140.163 169.823ZM144.8 173.998C144.278 173.998 143.853 173.862 143.525 173.592C143.198 173.321 143.034 172.968 143.034 172.534C143.034 172.08 143.207 171.725 143.554 171.467C143.9 171.202 144.375 171.07 144.98 171.07C145.213 171.07 145.439 171.095 145.66 171.145C145.88 171.19 146.091 171.252 146.293 171.334V170.824C146.293 170.484 146.192 170.229 145.99 170.059C145.789 169.889 145.499 169.804 145.121 169.804C144.901 169.804 144.671 169.839 144.432 169.908C144.193 169.971 143.925 170.072 143.629 170.21L143.28 169.502C143.639 169.332 143.979 169.209 144.3 169.134C144.621 169.052 144.939 169.011 145.254 169.011C145.877 169.011 146.359 169.162 146.699 169.464C147.045 169.76 147.218 170.182 147.218 170.73V173.913H146.293V173.497C146.078 173.667 145.849 173.793 145.603 173.875C145.358 173.957 145.09 173.998 144.8 173.998ZM143.941 172.515C143.941 172.748 144.038 172.937 144.234 173.082C144.435 173.226 144.696 173.299 145.018 173.299C145.269 173.299 145.502 173.261 145.716 173.185C145.931 173.11 146.123 172.997 146.293 172.845V172.014C146.11 171.914 145.918 171.841 145.716 171.797C145.515 171.747 145.295 171.722 145.055 171.722C144.715 171.722 144.445 171.794 144.243 171.939C144.042 172.084 143.941 172.276 143.941 172.515ZM151.92 173.913V173.459C151.719 173.629 151.492 173.762 151.24 173.856C150.988 173.944 150.724 173.988 150.447 173.988C150.107 173.988 149.789 173.925 149.493 173.799C149.197 173.667 148.939 173.491 148.719 173.27C148.505 173.05 148.335 172.789 148.209 172.487C148.083 172.178 148.02 171.851 148.02 171.504C148.02 171.158 148.083 170.834 148.209 170.532C148.335 170.229 148.505 169.968 148.719 169.748C148.939 169.527 149.2 169.354 149.502 169.228C149.805 169.096 150.126 169.03 150.466 169.03C150.73 169.03 150.985 169.071 151.231 169.153C151.476 169.235 151.703 169.351 151.911 169.502V167.302L152.855 167.094V173.913H151.92ZM148.945 171.495C148.945 171.967 149.103 172.364 149.417 172.685C149.732 173.006 150.12 173.167 150.579 173.167C150.85 173.167 151.099 173.116 151.325 173.015C151.558 172.915 151.753 172.773 151.911 172.59V170.409C151.753 170.232 151.558 170.094 151.325 169.993C151.092 169.892 150.844 169.842 150.579 169.842C150.12 169.842 149.732 170 149.417 170.314C149.103 170.629 148.945 171.023 148.945 171.495ZM154.849 167.094V173.913H153.904V167.302L154.849 167.094ZM156.364 168.331C156.206 168.331 156.071 168.274 155.958 168.161C155.844 168.041 155.788 167.903 155.788 167.745C155.788 167.588 155.844 167.453 155.958 167.339C156.071 167.22 156.206 167.16 156.364 167.16C156.521 167.16 156.657 167.22 156.77 167.339C156.889 167.453 156.949 167.588 156.949 167.745C156.949 167.903 156.889 168.041 156.77 168.161C156.657 168.274 156.521 168.331 156.364 168.331ZM156.836 169.105V173.913H155.892V169.105H156.836ZM157.879 173.913V169.105H158.823V169.587C159.012 169.398 159.226 169.257 159.466 169.162C159.711 169.061 159.979 169.011 160.268 169.011C160.816 169.011 161.266 169.187 161.619 169.54C161.971 169.886 162.148 170.336 162.148 170.89V173.913H161.203V171.051C161.203 170.673 161.093 170.377 160.873 170.163C160.659 169.943 160.372 169.833 160.013 169.833C159.761 169.833 159.532 169.886 159.324 169.993C159.122 170.1 158.956 170.255 158.823 170.456V173.913H157.879ZM167.333 173.365C167.056 173.579 166.766 173.74 166.464 173.847C166.162 173.947 165.831 173.998 165.472 173.998C165.12 173.998 164.789 173.935 164.481 173.809C164.172 173.677 163.905 173.5 163.678 173.28C163.451 173.06 163.272 172.798 163.14 172.496C163.014 172.187 162.951 171.857 162.951 171.504C162.951 171.158 163.014 170.834 163.14 170.532C163.266 170.229 163.436 169.968 163.65 169.748C163.864 169.527 164.119 169.354 164.415 169.228C164.711 169.096 165.025 169.03 165.359 169.03C165.687 169.03 165.992 169.096 166.275 169.228C166.565 169.354 166.81 169.53 167.012 169.757C167.22 169.977 167.383 170.242 167.503 170.55C167.623 170.859 167.682 171.19 167.682 171.542V171.816H163.886C163.949 172.213 164.131 172.543 164.434 172.808C164.736 173.066 165.095 173.195 165.51 173.195C165.743 173.195 165.967 173.157 166.181 173.082C166.395 173.006 166.577 172.902 166.729 172.77L167.333 173.365ZM165.34 169.823C164.981 169.823 164.667 169.943 164.396 170.182C164.131 170.421 163.964 170.73 163.895 171.108H166.747C166.678 170.742 166.511 170.437 166.247 170.192C165.989 169.946 165.687 169.823 165.34 169.823Z" fill="#263238"></path> <path d="M116.473 192.19V187.524H117.173V189.524H119.653V187.524H120.353V192.19H119.653V190.157H117.173V192.19H116.473ZM121.257 189.884L121.371 187.524H124.217V188.09H121.917L121.857 189.437C122.009 189.384 122.16 189.344 122.311 189.317C122.462 189.29 122.62 189.277 122.784 189.277C123.286 189.277 123.693 189.41 124.004 189.677C124.315 189.939 124.471 190.282 124.471 190.704C124.471 191.166 124.306 191.542 123.977 191.83C123.649 192.115 123.22 192.257 122.691 192.257C122.366 192.257 122.06 192.204 121.771 192.097C121.482 191.99 121.224 191.835 120.997 191.63L121.404 191.177C121.613 191.359 121.82 191.493 122.024 191.577C122.229 191.657 122.455 191.697 122.704 191.697C123.029 191.697 123.291 191.608 123.491 191.43C123.695 191.253 123.797 191.022 123.797 190.737C123.797 190.466 123.689 190.246 123.471 190.077C123.257 189.904 122.982 189.817 122.644 189.817C122.48 189.817 122.315 189.835 122.151 189.87C121.991 189.902 121.831 189.95 121.671 190.017L121.257 189.884ZM126.578 192.19V187.524H127.278V189.524H129.758V187.524H130.458V192.19H129.758V190.157H127.278V192.19H126.578ZM134.268 191.804C134.073 191.955 133.868 192.068 133.655 192.144C133.442 192.215 133.208 192.25 132.955 192.25C132.706 192.25 132.473 192.206 132.255 192.117C132.037 192.024 131.848 191.899 131.688 191.744C131.528 191.588 131.402 191.404 131.308 191.19C131.219 190.973 131.175 190.739 131.175 190.49C131.175 190.246 131.219 190.017 131.308 189.804C131.397 189.59 131.517 189.406 131.668 189.25C131.819 189.095 131.999 188.973 132.208 188.884C132.417 188.79 132.639 188.744 132.875 188.744C133.106 188.744 133.322 188.79 133.522 188.884C133.726 188.973 133.899 189.097 134.042 189.257C134.188 189.413 134.304 189.599 134.388 189.817C134.473 190.035 134.515 190.268 134.515 190.517V190.71H131.835C131.879 190.99 132.008 191.224 132.222 191.41C132.435 191.593 132.688 191.684 132.982 191.684C133.146 191.684 133.304 191.657 133.455 191.604C133.606 191.55 133.735 191.477 133.842 191.384L134.268 191.804ZM132.862 189.304C132.608 189.304 132.386 189.388 132.195 189.557C132.008 189.726 131.89 189.944 131.842 190.21H133.855C133.806 189.953 133.688 189.737 133.502 189.564C133.319 189.39 133.106 189.304 132.862 189.304ZM136.184 192.25C135.815 192.25 135.515 192.155 135.284 191.964C135.053 191.773 134.937 191.524 134.937 191.217C134.937 190.897 135.06 190.646 135.304 190.464C135.549 190.277 135.884 190.184 136.311 190.184C136.475 190.184 136.635 190.202 136.791 190.237C136.946 190.268 137.095 190.313 137.237 190.37V190.01C137.237 189.77 137.166 189.59 137.024 189.47C136.882 189.35 136.677 189.29 136.411 189.29C136.255 189.29 136.093 189.315 135.924 189.364C135.755 189.408 135.566 189.479 135.357 189.577L135.111 189.077C135.364 188.957 135.604 188.87 135.831 188.817C136.057 188.759 136.282 188.73 136.504 188.73C136.944 188.73 137.284 188.837 137.524 189.05C137.769 189.259 137.891 189.557 137.891 189.944V192.19H137.237V191.897C137.086 192.017 136.924 192.106 136.751 192.164C136.577 192.222 136.389 192.25 136.184 192.25ZM135.577 191.204C135.577 191.368 135.646 191.502 135.784 191.604C135.926 191.706 136.111 191.757 136.337 191.757C136.515 191.757 136.68 191.73 136.831 191.677C136.982 191.624 137.117 191.544 137.237 191.437V190.85C137.109 190.779 136.973 190.728 136.831 190.697C136.689 190.662 136.533 190.644 136.364 190.644C136.124 190.644 135.933 190.695 135.791 190.797C135.649 190.899 135.577 191.035 135.577 191.204ZM141.259 192.19V191.87C141.117 191.99 140.957 192.084 140.779 192.15C140.601 192.213 140.415 192.244 140.219 192.244C139.979 192.244 139.755 192.199 139.546 192.11C139.337 192.017 139.155 191.893 138.999 191.737C138.848 191.582 138.728 191.397 138.639 191.184C138.55 190.966 138.506 190.735 138.506 190.49C138.506 190.246 138.55 190.017 138.639 189.804C138.728 189.59 138.848 189.406 138.999 189.25C139.155 189.095 139.339 188.973 139.552 188.884C139.766 188.79 139.992 188.744 140.232 188.744C140.419 188.744 140.599 188.773 140.772 188.83C140.946 188.888 141.106 188.97 141.252 189.077V187.524L141.919 187.377V192.19H141.259ZM139.159 190.484C139.159 190.817 139.27 191.097 139.492 191.324C139.715 191.55 139.988 191.664 140.312 191.664C140.503 191.664 140.679 191.628 140.839 191.557C141.003 191.486 141.141 191.386 141.252 191.257V189.717C141.141 189.593 141.003 189.495 140.839 189.424C140.675 189.353 140.499 189.317 140.312 189.317C139.988 189.317 139.715 189.428 139.492 189.65C139.27 189.873 139.159 190.15 139.159 190.484ZM143.375 187.377V192.19H142.708V187.524L143.375 187.377ZM144.494 188.25C144.382 188.25 144.287 188.21 144.207 188.13C144.127 188.046 144.087 187.948 144.087 187.837C144.087 187.726 144.127 187.63 144.207 187.55C144.287 187.466 144.382 187.424 144.494 187.424C144.605 187.424 144.7 187.466 144.78 187.55C144.865 187.63 144.907 187.726 144.907 187.837C144.907 187.948 144.865 188.046 144.78 188.13C144.7 188.21 144.605 188.25 144.494 188.25ZM144.827 188.797V192.19H144.16V188.797H144.827ZM145.612 192.19V188.797H146.279V189.137C146.412 189.004 146.563 188.904 146.732 188.837C146.905 188.766 147.094 188.73 147.299 188.73C147.685 188.73 148.003 188.855 148.252 189.104C148.501 189.348 148.625 189.666 148.625 190.057V192.19H147.959V190.17C147.959 189.904 147.881 189.695 147.725 189.544C147.574 189.388 147.372 189.31 147.119 189.31C146.941 189.31 146.779 189.348 146.632 189.424C146.49 189.499 146.372 189.608 146.279 189.75V192.19H145.612ZM152.335 191.804C152.139 191.955 151.935 192.068 151.721 192.144C151.508 192.215 151.275 192.25 151.021 192.25C150.772 192.25 150.539 192.206 150.321 192.117C150.104 192.024 149.915 191.899 149.755 191.744C149.595 191.588 149.468 191.404 149.375 191.19C149.286 190.973 149.241 190.739 149.241 190.49C149.241 190.246 149.286 190.017 149.375 189.804C149.464 189.59 149.584 189.406 149.735 189.25C149.886 189.095 150.066 188.973 150.275 188.884C150.484 188.79 150.706 188.744 150.941 188.744C151.172 188.744 151.388 188.79 151.588 188.884C151.792 188.973 151.966 189.097 152.108 189.257C152.255 189.413 152.37 189.599 152.455 189.817C152.539 190.035 152.581 190.268 152.581 190.517V190.71H149.901C149.946 190.99 150.075 191.224 150.288 191.41C150.501 191.593 150.755 191.684 151.048 191.684C151.212 191.684 151.37 191.657 151.521 191.604C151.672 191.55 151.801 191.477 151.908 191.384L152.335 191.804ZM150.928 189.304C150.675 189.304 150.452 189.388 150.261 189.557C150.075 189.726 149.957 189.944 149.908 190.21H151.921C151.872 189.953 151.755 189.737 151.568 189.564C151.386 189.39 151.172 189.304 150.928 189.304Z" fill="#263238"></path> <path d="M116.394 207.857V203.968H116.978V205.635H119.044V203.968H119.628V207.857H119.044V206.163H116.978V207.857H116.394ZM121.923 207.913C121.682 207.913 121.46 207.866 121.256 207.774C121.056 207.681 120.884 207.553 120.739 207.39C120.599 207.224 120.488 207.026 120.406 206.796C120.328 206.563 120.289 206.307 120.289 206.029C120.289 205.711 120.334 205.42 120.423 205.157C120.512 204.894 120.636 204.672 120.795 204.49C120.958 204.305 121.152 204.163 121.378 204.063C121.608 203.963 121.862 203.913 122.139 203.913C122.325 203.913 122.508 203.94 122.689 203.996C122.871 204.052 123.028 204.126 123.162 204.218L122.867 204.629C122.752 204.552 122.63 204.494 122.501 204.457C122.375 204.42 122.243 204.402 122.106 204.402C121.725 204.402 121.421 204.537 121.195 204.807C120.973 205.077 120.854 205.455 120.839 205.94C120.977 205.781 121.145 205.657 121.345 205.568C121.545 205.476 121.754 205.429 121.973 205.429C122.169 205.429 122.349 205.461 122.512 205.524C122.678 205.583 122.821 205.666 122.939 205.774C123.062 205.877 123.156 206.003 123.223 206.152C123.289 206.3 123.323 206.461 123.323 206.635C123.323 206.82 123.288 206.99 123.217 207.146C123.147 207.302 123.049 207.437 122.923 207.552C122.801 207.663 122.652 207.752 122.478 207.818C122.308 207.881 122.123 207.913 121.923 207.913ZM121.878 205.874C121.689 205.874 121.506 205.92 121.328 206.013C121.151 206.102 120.997 206.229 120.867 206.396C120.915 206.707 121.034 206.959 121.223 207.152C121.412 207.344 121.639 207.44 121.906 207.44C122.154 207.44 122.36 207.365 122.523 207.213C122.689 207.061 122.773 206.874 122.773 206.652C122.773 206.422 122.689 206.235 122.523 206.09C122.356 205.946 122.141 205.874 121.878 205.874ZM125.162 207.857V203.968H125.745V205.635H127.812V203.968H128.395V207.857H127.812V206.163H125.745V207.857H125.162ZM131.613 207.535C131.45 207.661 131.279 207.755 131.102 207.818C130.924 207.877 130.729 207.907 130.518 207.907C130.311 207.907 130.116 207.87 129.935 207.796C129.753 207.718 129.596 207.615 129.463 207.485C129.329 207.355 129.224 207.202 129.146 207.024C129.072 206.842 129.035 206.648 129.035 206.44C129.035 206.237 129.072 206.046 129.146 205.868C129.22 205.69 129.32 205.537 129.446 205.407C129.572 205.277 129.722 205.176 129.896 205.102C130.07 205.024 130.255 204.985 130.452 204.985C130.644 204.985 130.824 205.024 130.99 205.102C131.161 205.176 131.305 205.279 131.424 205.413C131.546 205.542 131.642 205.698 131.713 205.879C131.783 206.061 131.818 206.255 131.818 206.463V206.624H129.585C129.622 206.857 129.729 207.052 129.907 207.207C130.085 207.359 130.296 207.435 130.54 207.435C130.677 207.435 130.809 207.413 130.935 207.368C131.061 207.324 131.168 207.263 131.257 207.185L131.613 207.535ZM130.44 205.452C130.229 205.452 130.044 205.522 129.885 205.663C129.729 205.803 129.631 205.985 129.59 206.207H131.268C131.227 205.992 131.129 205.813 130.974 205.668C130.822 205.524 130.644 205.452 130.44 205.452ZM133.251 207.907C132.943 207.907 132.693 207.827 132.501 207.668C132.308 207.509 132.212 207.302 132.212 207.046C132.212 206.779 132.314 206.57 132.518 206.418C132.721 206.263 133.001 206.185 133.356 206.185C133.493 206.185 133.627 206.2 133.756 206.229C133.886 206.255 134.01 206.292 134.129 206.34V206.04C134.129 205.84 134.069 205.69 133.951 205.59C133.832 205.49 133.662 205.44 133.44 205.44C133.31 205.44 133.175 205.461 133.034 205.502C132.893 205.539 132.736 205.598 132.562 205.679L132.356 205.263C132.568 205.163 132.768 205.09 132.956 205.046C133.145 204.998 133.332 204.974 133.518 204.974C133.884 204.974 134.168 205.063 134.368 205.24C134.571 205.415 134.673 205.663 134.673 205.985V207.857H134.129V207.613C134.003 207.713 133.868 207.787 133.723 207.835C133.579 207.883 133.421 207.907 133.251 207.907ZM132.745 207.035C132.745 207.172 132.803 207.283 132.918 207.368C133.036 207.453 133.19 207.496 133.379 207.496C133.527 207.496 133.664 207.474 133.79 207.429C133.916 207.385 134.029 207.318 134.129 207.229V206.74C134.021 206.681 133.908 206.639 133.79 206.613C133.671 206.583 133.542 206.568 133.401 206.568C133.201 206.568 133.042 206.611 132.923 206.696C132.805 206.781 132.745 206.894 132.745 207.035ZM137.522 207.857V207.59C137.403 207.69 137.27 207.768 137.122 207.824C136.973 207.876 136.818 207.902 136.655 207.902C136.455 207.902 136.268 207.865 136.094 207.79C135.92 207.713 135.768 207.609 135.638 207.479C135.512 207.35 135.412 207.196 135.338 207.018C135.264 206.837 135.227 206.644 135.227 206.44C135.227 206.237 135.264 206.046 135.338 205.868C135.412 205.69 135.512 205.537 135.638 205.407C135.768 205.277 135.922 205.176 136.099 205.102C136.277 205.024 136.466 204.985 136.666 204.985C136.822 204.985 136.972 205.009 137.116 205.057C137.26 205.105 137.394 205.174 137.516 205.263V203.968L138.072 203.846V207.857H137.522ZM135.772 206.435C135.772 206.713 135.864 206.946 136.049 207.135C136.235 207.324 136.462 207.418 136.733 207.418C136.892 207.418 137.038 207.389 137.172 207.329C137.309 207.27 137.423 207.187 137.516 207.079V205.796C137.423 205.692 137.309 205.611 137.172 205.552C137.035 205.492 136.888 205.463 136.733 205.463C136.462 205.463 136.235 205.555 136.049 205.74C135.864 205.926 135.772 206.157 135.772 206.435ZM139.327 203.846V207.857H138.771V203.968L139.327 203.846ZM140.3 204.574C140.208 204.574 140.128 204.54 140.062 204.474C139.995 204.403 139.962 204.322 139.962 204.229C139.962 204.137 139.995 204.057 140.062 203.99C140.128 203.92 140.208 203.885 140.3 203.885C140.393 203.885 140.473 203.92 140.539 203.99C140.61 204.057 140.645 204.137 140.645 204.229C140.645 204.322 140.61 204.403 140.539 204.474C140.473 204.54 140.393 204.574 140.3 204.574ZM140.578 205.029V207.857H140.023V205.029H140.578ZM141.274 207.857V205.029H141.83V205.313C141.941 205.202 142.067 205.118 142.208 205.063C142.352 205.003 142.509 204.974 142.68 204.974C143.002 204.974 143.267 205.077 143.474 205.285C143.682 205.489 143.785 205.753 143.785 206.079V207.857H143.23V206.174C143.23 205.952 143.165 205.777 143.035 205.652C142.909 205.522 142.741 205.457 142.53 205.457C142.382 205.457 142.246 205.489 142.124 205.552C142.006 205.615 141.908 205.705 141.83 205.824V207.857H141.274ZM146.918 207.535C146.755 207.661 146.585 207.755 146.407 207.818C146.229 207.877 146.035 207.907 145.824 207.907C145.616 207.907 145.422 207.87 145.24 207.796C145.059 207.718 144.901 207.615 144.768 207.485C144.635 207.355 144.529 207.202 144.451 207.024C144.377 206.842 144.34 206.648 144.34 206.44C144.34 206.237 144.377 206.046 144.451 205.868C144.525 205.69 144.625 205.537 144.751 205.407C144.877 205.277 145.027 205.176 145.201 205.102C145.375 205.024 145.561 204.985 145.757 204.985C145.949 204.985 146.129 205.024 146.296 205.102C146.466 205.176 146.611 205.279 146.729 205.413C146.851 205.542 146.948 205.698 147.018 205.879C147.088 206.061 147.124 206.255 147.124 206.463V206.624H144.89C144.927 206.857 145.035 207.052 145.212 207.207C145.39 207.359 145.601 207.435 145.846 207.435C145.983 207.435 146.114 207.413 146.24 207.368C146.366 207.324 146.474 207.263 146.562 207.185L146.918 207.535ZM145.746 205.452C145.535 205.452 145.349 205.522 145.19 205.663C145.035 205.803 144.936 205.985 144.896 206.207H146.574C146.533 205.992 146.435 205.813 146.279 205.668C146.127 205.524 145.949 205.452 145.746 205.452Z" fill="#263238"></path> <path d="M116.373 219.302H117.756C118.049 219.302 118.286 219.377 118.467 219.528C118.647 219.679 118.738 219.876 118.738 220.119C118.738 220.273 118.692 220.411 118.6 220.533C118.511 220.654 118.391 220.746 118.24 220.808C118.424 220.865 118.57 220.958 118.68 221.088C118.79 221.219 118.844 221.371 118.844 221.546C118.844 221.804 118.75 222.013 118.56 222.173C118.37 222.333 118.123 222.413 117.818 222.413H116.373V219.302ZM117.702 219.737H116.907V220.608H117.702C117.853 220.608 117.975 220.57 118.067 220.493C118.159 220.413 118.204 220.306 118.204 220.173C118.204 220.039 118.159 219.934 118.067 219.857C117.975 219.777 117.853 219.737 117.702 219.737ZM117.756 221.977C117.921 221.977 118.055 221.934 118.156 221.848C118.256 221.759 118.307 221.642 118.307 221.497C118.307 221.352 118.256 221.236 118.156 221.15C118.055 221.065 117.921 221.022 117.756 221.022H116.907V221.977H117.756ZM119.248 221.302C119.248 221.139 119.276 220.987 119.332 220.848C119.392 220.706 119.47 220.585 119.568 220.484C119.669 220.38 119.787 220.299 119.924 220.239C120.063 220.18 120.211 220.15 120.368 220.15C120.528 220.15 120.676 220.18 120.812 220.239C120.949 220.299 121.067 220.38 121.168 220.484C121.269 220.585 121.347 220.706 121.404 220.848C121.46 220.987 121.488 221.139 121.488 221.302C121.488 221.465 121.458 221.617 121.399 221.759C121.343 221.902 121.264 222.025 121.164 222.128C121.066 222.229 120.947 222.309 120.808 222.368C120.672 222.427 120.525 222.457 120.368 222.457C120.211 222.457 120.063 222.427 119.924 222.368C119.787 222.309 119.669 222.227 119.568 222.124C119.47 222.02 119.392 221.899 119.332 221.759C119.276 221.617 119.248 221.465 119.248 221.302ZM120.368 222.022C120.549 222.022 120.697 221.953 120.812 221.817C120.931 221.681 120.99 221.51 120.99 221.306C120.99 221.096 120.931 220.922 120.812 220.786C120.694 220.65 120.546 220.582 120.368 220.582C120.187 220.582 120.038 220.65 119.919 220.786C119.804 220.922 119.746 221.096 119.746 221.306C119.746 221.513 119.804 221.685 119.919 221.822C120.038 221.955 120.187 222.022 120.368 222.022ZM123.555 222.413V222.115C123.478 222.216 123.379 222.294 123.257 222.35C123.139 222.407 123.01 222.435 122.871 222.435C122.731 222.435 122.599 222.405 122.475 222.346C122.351 222.287 122.242 222.207 122.151 222.106C122.062 222.002 121.991 221.882 121.937 221.746C121.887 221.607 121.862 221.459 121.862 221.302C121.862 221.145 121.888 220.996 121.942 220.857C121.995 220.718 122.068 220.598 122.159 220.497C122.254 220.396 122.365 220.316 122.493 220.257C122.62 220.198 122.756 220.168 122.902 220.168C123.029 220.168 123.148 220.195 123.257 220.248C123.37 220.299 123.468 220.37 123.551 220.462V219.235L124.053 219.15V222.413H123.555ZM122.359 221.302C122.359 221.503 122.423 221.672 122.551 221.808C122.678 221.945 122.835 222.013 123.022 222.013C123.128 222.013 123.226 221.992 123.315 221.95C123.407 221.909 123.485 221.848 123.551 221.768V220.83C123.485 220.756 123.407 220.699 123.315 220.657C123.223 220.613 123.125 220.59 123.022 220.59C122.832 220.59 122.674 220.659 122.546 220.795C122.422 220.928 122.359 221.097 122.359 221.302ZM125.097 222.662L125.19 222.426L124.35 220.186H124.91L125.474 221.839L126.097 220.186H126.643L125.585 222.777C125.502 222.99 125.4 223.142 125.279 223.23C125.16 223.319 124.999 223.364 124.794 223.364C124.756 223.364 124.714 223.361 124.67 223.355C124.628 223.352 124.585 223.345 124.541 223.333V222.902C124.6 222.907 124.642 222.912 124.665 222.915C124.692 222.918 124.716 222.919 124.737 222.919C124.825 222.919 124.898 222.899 124.954 222.857C125.014 222.816 125.061 222.75 125.097 222.662ZM128.784 219.302V222.413H128.3V219.808L127.749 220.048V219.617L128.478 219.302H128.784Z" fill="#263238"></path> <path d="M116.093 236.457L116.346 236.114C116.52 236.257 116.677 236.359 116.817 236.422C116.957 236.481 117.104 236.511 117.26 236.511C117.439 236.511 117.585 236.471 117.699 236.39C117.814 236.308 117.871 236.204 117.871 236.079C117.871 235.968 117.833 235.884 117.758 235.827C117.683 235.77 117.556 235.724 117.377 235.69L116.875 235.605C116.642 235.563 116.467 235.484 116.35 235.368C116.233 235.251 116.175 235.099 116.175 234.913C116.175 234.669 116.266 234.472 116.447 234.322C116.631 234.171 116.875 234.096 117.178 234.096C117.381 234.096 117.574 234.127 117.758 234.189C117.944 234.249 118.116 234.336 118.271 234.45L118.034 234.8C117.899 234.696 117.758 234.618 117.61 234.567C117.462 234.512 117.313 234.485 117.163 234.485C116.999 234.485 116.869 234.521 116.77 234.594C116.671 234.666 116.622 234.758 116.622 234.87C116.622 234.966 116.655 235.041 116.719 235.095C116.787 235.15 116.894 235.189 117.042 235.212L117.524 235.298C117.797 235.344 117.999 235.43 118.131 235.554C118.263 235.676 118.329 235.84 118.329 236.044C118.329 236.169 118.302 236.284 118.248 236.39C118.196 236.494 118.122 236.584 118.026 236.659C117.93 236.731 117.815 236.79 117.68 236.834C117.545 236.875 117.397 236.896 117.237 236.896C117.024 236.896 116.823 236.86 116.634 236.787C116.445 236.712 116.264 236.602 116.093 236.457ZM119.121 234.909V236.068C119.121 236.208 119.159 236.32 119.237 236.406C119.315 236.492 119.419 236.534 119.548 236.534C119.636 236.534 119.717 236.515 119.789 236.476C119.862 236.435 119.924 236.374 119.976 236.293V234.909H120.416V236.857H119.976V236.534C119.904 236.648 119.814 236.737 119.708 236.799C119.604 236.858 119.486 236.888 119.354 236.888C119.157 236.888 118.995 236.823 118.868 236.694C118.743 236.564 118.681 236.397 118.681 236.192V234.909H119.121ZM122.822 235.885C122.822 236.022 122.798 236.152 122.752 236.274C122.705 236.396 122.64 236.501 122.557 236.589C122.474 236.677 122.377 236.747 122.266 236.799C122.154 236.851 122.035 236.877 121.908 236.877C121.794 236.877 121.686 236.853 121.585 236.807C121.487 236.76 121.402 236.693 121.332 236.604V236.857H120.901V234.077L121.34 234.003V235.169C121.408 235.084 121.493 235.016 121.597 234.967C121.703 234.918 121.817 234.893 121.939 234.893C122.061 234.893 122.176 234.919 122.285 234.971C122.394 235.023 122.487 235.094 122.565 235.185C122.646 235.273 122.708 235.378 122.752 235.5C122.798 235.619 122.822 235.748 122.822 235.885ZM121.807 235.263C121.711 235.263 121.623 235.281 121.542 235.317C121.465 235.353 121.397 235.408 121.34 235.48V236.293C121.397 236.361 121.466 236.414 121.546 236.453C121.627 236.489 121.713 236.507 121.807 236.507C121.973 236.507 122.11 236.449 122.219 236.332C122.331 236.213 122.386 236.064 122.386 235.885C122.386 235.709 122.331 235.561 122.219 235.442C122.108 235.322 121.97 235.263 121.807 235.263ZM123.369 236.344V235.259H122.976V234.909H123.369V234.372L123.808 234.279V234.909H124.353V235.259H123.808V236.247C123.808 236.343 123.829 236.411 123.87 236.453C123.912 236.492 123.982 236.511 124.08 236.511C124.124 236.511 124.165 236.508 124.201 236.503C124.24 236.495 124.288 236.483 124.345 236.464V236.834C124.288 236.852 124.224 236.865 124.154 236.873C124.087 236.883 124.025 236.888 123.968 236.888C123.773 236.888 123.624 236.843 123.52 236.752C123.419 236.659 123.369 236.523 123.369 236.344ZM124.9 234.512C124.825 234.512 124.76 234.486 124.706 234.434C124.654 234.383 124.628 234.319 124.628 234.244C124.628 234.171 124.655 234.108 124.709 234.053C124.764 233.999 124.827 233.972 124.9 233.972C124.975 233.972 125.04 233.999 125.094 234.053C125.149 234.108 125.176 234.171 125.176 234.244C125.176 234.319 125.149 234.383 125.094 234.434C125.043 234.486 124.978 234.512 124.9 234.512ZM125.122 234.909V236.857H124.682V234.909H125.122ZM125.848 236.344V235.259H125.455V234.909H125.848V234.372L126.287 234.279V234.909H126.832V235.259H126.287V236.247C126.287 236.343 126.308 236.411 126.349 236.453C126.391 236.492 126.461 236.511 126.559 236.511C126.603 236.511 126.644 236.508 126.68 236.503C126.719 236.495 126.767 236.483 126.824 236.464V236.834C126.767 236.852 126.703 236.865 126.633 236.873C126.566 236.883 126.504 236.888 126.447 236.888C126.252 236.888 126.103 236.843 125.999 236.752C125.898 236.659 125.848 236.523 125.848 236.344ZM127.601 234.003V236.857H127.161V234.077L127.601 234.003ZM129.762 236.608C129.642 236.707 129.52 236.779 129.396 236.826C129.274 236.873 129.138 236.896 128.988 236.896C128.85 236.896 128.721 236.87 128.599 236.818C128.477 236.766 128.372 236.695 128.284 236.604C128.196 236.514 128.126 236.406 128.074 236.282C128.022 236.157 127.996 236.025 127.996 235.885C127.996 235.742 128.019 235.61 128.066 235.488C128.115 235.364 128.181 235.258 128.264 235.169C128.35 235.079 128.451 235.007 128.568 234.955C128.684 234.904 128.81 234.878 128.945 234.878C129.077 234.878 129.199 234.904 129.31 234.955C129.425 235.005 129.522 235.073 129.602 235.162C129.685 235.25 129.75 235.356 129.797 235.48C129.843 235.602 129.867 235.736 129.867 235.881V235.99H128.428C128.448 236.143 128.513 236.27 128.622 236.371C128.734 236.472 128.863 236.523 129.011 236.523C129.102 236.523 129.187 236.507 129.268 236.476C129.351 236.442 129.419 236.397 129.474 236.34L129.762 236.608ZM128.941 235.235C128.811 235.235 128.701 235.28 128.61 235.368C128.52 235.456 128.461 235.574 128.435 235.722H129.45C129.425 235.579 129.365 235.462 129.272 235.372C129.181 235.281 129.071 235.235 128.941 235.235ZM131.003 236.857V236.55L132.119 235.383C132.215 235.28 132.283 235.19 132.322 235.115C132.363 235.037 132.384 234.955 132.384 234.87C132.384 234.756 132.336 234.661 132.24 234.586C132.147 234.508 132.029 234.469 131.886 234.469C131.762 234.469 131.645 234.495 131.536 234.547C131.43 234.599 131.312 234.685 131.182 234.804L130.941 234.512C131.089 234.375 131.242 234.272 131.4 234.205C131.561 234.135 131.727 234.1 131.898 234.1C132.162 234.1 132.377 234.17 132.543 234.31C132.712 234.447 132.796 234.625 132.796 234.843C132.796 234.972 132.767 235.093 132.71 235.204C132.653 235.316 132.552 235.448 132.407 235.601L131.536 236.499L132.847 236.492V236.857H131.003Z" fill="#263238"></path> <path d="M116.327 247.579H117.536C117.793 247.579 118 247.645 118.158 247.778C118.316 247.91 118.396 248.082 118.396 248.295C118.396 248.43 118.355 248.55 118.275 248.657C118.197 248.763 118.092 248.843 117.96 248.898C118.121 248.947 118.249 249.029 118.345 249.143C118.441 249.257 118.489 249.39 118.489 249.543C118.489 249.769 118.406 249.952 118.24 250.092C118.074 250.232 117.858 250.302 117.591 250.302H116.327V247.579ZM117.489 247.96H116.793V248.723H117.489C117.622 248.723 117.728 248.689 117.808 248.622C117.889 248.552 117.929 248.458 117.929 248.342C117.929 248.225 117.889 248.133 117.808 248.065C117.728 247.995 117.622 247.96 117.489 247.96ZM117.536 249.92C117.681 249.92 117.798 249.883 117.886 249.808C117.974 249.73 118.018 249.628 118.018 249.5C118.018 249.373 117.974 249.272 117.886 249.197C117.798 249.122 117.681 249.084 117.536 249.084H116.793V249.92H117.536ZM121.479 249.135C121.479 249.319 121.452 249.486 121.397 249.637C121.343 249.784 121.266 249.91 121.168 250.014C121.069 250.118 120.949 250.198 120.806 250.255C120.664 250.312 120.505 250.34 120.332 250.34C119.984 250.34 119.707 250.233 119.499 250.018C119.292 249.8 119.188 249.506 119.188 249.135V247.579H119.655V249.135C119.655 249.373 119.717 249.564 119.842 249.707C119.966 249.849 120.131 249.92 120.336 249.92C120.54 249.92 120.704 249.849 120.826 249.707C120.95 249.564 121.012 249.373 121.012 249.135V247.579H121.479V249.135ZM122.055 247.984V247.579H124.341V247.984H123.435V250.302H122.969V247.984H122.055ZM124.785 247.984V247.579H127.071V247.984H126.165V250.302H125.699V247.984H124.785ZM130.183 248.94C130.183 249.135 130.147 249.319 130.074 249.493C130.004 249.664 129.907 249.813 129.783 249.94C129.661 250.064 129.516 250.163 129.347 250.235C129.179 250.308 128.998 250.344 128.807 250.344C128.615 250.344 128.435 250.308 128.266 250.235C128.098 250.163 127.951 250.064 127.827 249.94C127.705 249.813 127.608 249.664 127.535 249.493C127.465 249.319 127.43 249.135 127.43 248.94C127.43 248.746 127.465 248.563 127.535 248.392C127.608 248.218 127.705 248.069 127.827 247.945C127.951 247.818 128.098 247.718 128.266 247.645C128.435 247.573 128.615 247.537 128.807 247.537C128.998 247.537 129.179 247.573 129.347 247.645C129.516 247.718 129.661 247.818 129.783 247.945C129.907 248.069 130.004 248.218 130.074 248.392C130.147 248.563 130.183 248.746 130.183 248.94ZM129.705 248.94C129.705 248.8 129.682 248.671 129.635 248.552C129.591 248.43 129.529 248.325 129.448 248.237C129.368 248.148 129.273 248.08 129.164 248.03C129.056 247.979 128.938 247.953 128.811 247.953C128.683 247.953 128.564 247.979 128.453 248.03C128.344 248.08 128.249 248.148 128.169 248.237C128.088 248.325 128.025 248.43 127.978 248.552C127.932 248.671 127.908 248.8 127.908 248.94C127.908 249.08 127.932 249.211 127.978 249.333C128.025 249.453 128.088 249.556 128.169 249.644C128.249 249.73 128.344 249.799 128.453 249.85C128.564 249.9 128.683 249.924 128.811 249.924C128.938 249.924 129.056 249.9 129.164 249.85C129.273 249.799 129.368 249.73 129.448 249.644C129.529 249.556 129.591 249.453 129.635 249.333C129.682 249.211 129.705 249.08 129.705 248.94ZM130.915 247.579H131.37L132.789 249.555L132.782 247.579H133.221V250.302H132.805L131.347 248.272L131.354 250.302H130.915V247.579Z" fill="#263238"></path> </g> </g> <defs> <filter id="filter0_ddd" x="84.7248" y="14.0215" width="162.55" height="313.661" filterUnits="userSpaceOnUse" color-interpolation-filters="sRGB"> <feFlood flood-opacity="0" result="BackgroundImageFix"></feFlood> <feColorMatrix in="SourceAlpha" type="matrix" values="0 0 0 0 0 0 0 0 0 0 0 0 0 0 0 0 0 0 127 0"></feColorMatrix> <feOffset dy="0.939597"></feOffset> <feGaussianBlur stdDeviation="5.63758"></feGaussianBlur> <feColorMatrix type="matrix" values="0 0 0 0 0 0 0 0 0 0 0 0 0 0 0 0 0 0 0.12 0"></feColorMatrix> <feBlend mode="normal" in2="BackgroundImageFix" result="effect1_dropShadow"></feBlend> <feColorMatrix in="SourceAlpha" type="matrix" values="0 0 0 0 0 0 0 0 0 0 0 0 0 0 0 0 0 0 127 0"></feColorMatrix> <feOffset dy="3.75839"></feOffset> <feGaussianBlur stdDeviation="3.75839"></feGaussianBlur> <feColorMatrix type="matrix" values="0 0 0 0 0 0 0 0 0 0 0 0 0 0 0 0 0 0 0.02 0"></feColorMatrix> <feBlend mode="normal" in2="effect1_dropShadow" result="effect2_dropShadow"></feBlend> <feColorMatrix in="SourceAlpha" type="matrix" values="0 0 0 0 0 0 0 0 0 0 0 0 0 0 0 0 0 0 127 0"></feColorMatrix> <feOffset dy="0.939597"></feOffset> <feGaussianBlur stdDeviation="1.87919"></feGaussianBlur> <feColorMatrix type="matrix" values="0 0 0 0 0 0 0 0 0 0 0 0 0 0 0 0 0 0 0.01 0"></feColorMatrix> <feBlend mode="normal" in2="effect2_dropShadow" result="effect3_dropShadow"></feBlend> <feBlend mode="normal" in="SourceGraphic" in2="effect3_dropShadow" result="shape"></feBlend> </filter> <clipPath id="clip0"> <rect width="260" height="260" fill="white"></rect> </clipPath> <clipPath id="clip1"> <rect width="100.333" height="28" fill="white" transform="translate(47.3333 63.8333)"></rect> </clipPath> <clipPath id="clip2"> <rect width="95.5555" height="26.6667" fill="white" transform="translate(118.222 35.4683)"></rect> </clipPath> </defs> </svg> 