<?xml version="1.0" encoding="UTF-8"?> <svg xmlns="http://www.w3.org/2000/svg" width="1189" height="679" viewBox="0 0 1189 679" fill="none"> <path d="M0 36.25L367 36.25" stroke="#8E8E93" stroke-width="0.5"></path> <path d="M366.75 39L366.75 36" stroke="#8E8E93" stroke-width="0.5"></path> <path d="M0.25 39L0.25 36" stroke="#8E8E93" stroke-width="0.5"></path> <path d="M1.76 22H11.066V20.13H3.718V6.16H1.76V22ZM14.3787 16.61H23.4647C23.6627 12.386 21.5727 9.79 17.9867 9.79C14.5327 9.79 12.2667 12.232 12.2667 16.126C12.2667 19.844 14.5767 22.33 18.0747 22.33C20.3847 22.33 22.3427 21.12 23.2887 19.03L21.3967 18.37C20.7367 19.734 19.5487 20.46 17.9867 20.46C15.8087 20.46 14.5327 19.074 14.3787 16.61ZM18.0527 11.55C20.0767 11.55 21.1987 12.694 21.4627 15.026H14.4227C14.6867 12.782 15.9407 11.55 18.0527 11.55ZM30.7428 7.458H32.1508V5.83H30.6328C29.7308 5.83 28.6308 5.852 27.8168 6.754C27.1128 7.524 27.0688 8.558 27.0688 9.46V10.12H25.0448V11.726H27.0688V22H29.0268V11.726H32.1508V10.12H29.0268V9.152C29.0268 8.03 29.5768 7.458 30.7428 7.458ZM36.975 11.726H40.561V10.12H36.975V6.82H35.017V10.12H32.597V11.726H35.017V17.512C35.017 18.744 34.951 19.646 35.413 20.57C36.249 22.198 38.427 22.44 40.561 22V20.306C38.933 20.57 37.745 20.504 37.217 19.558C36.931 19.052 36.975 18.392 36.975 17.424V11.726ZM47.3877 22H49.3457V16.148H53.6577C53.9437 16.148 54.4057 16.126 54.8237 16.06C57.3757 15.664 58.7397 13.662 58.7397 11.154C58.7397 8.624 57.3757 6.644 54.8237 6.248C54.4057 6.182 53.9657 6.16 53.6577 6.16H47.3877V22ZM49.3457 14.278V8.008H53.5917C53.8557 8.008 54.2517 8.03 54.5817 8.118C56.0997 8.448 56.7377 9.834 56.7377 11.154C56.7377 12.474 56.0997 13.838 54.5817 14.19C54.2517 14.256 53.8557 14.278 53.5917 14.278H49.3457ZM69.6446 12.1C68.9626 10.56 67.3566 9.79 65.2006 9.79C62.5166 9.79 60.8666 11.044 60.2946 13.134L62.1646 13.684C62.5826 12.232 63.7486 11.616 65.1786 11.616C67.2466 11.616 68.0606 12.518 68.1046 14.41C66.3446 14.652 64.2766 14.894 62.7806 15.29C60.9766 15.818 59.8546 16.918 59.8546 18.788C59.8546 20.702 61.2406 22.33 63.9026 22.33C65.8826 22.33 67.3566 21.582 68.3026 20.13V22H70.0406V14.652C70.0406 13.706 69.9746 12.848 69.6446 12.1ZM64.1886 20.68C62.4946 20.68 61.8126 19.756 61.8126 18.766C61.8126 17.666 62.6706 17.116 63.6606 16.808C64.8046 16.478 66.4106 16.302 68.0826 16.06C68.0826 16.61 68.0606 17.38 67.8846 17.952C67.5986 19.426 66.3006 20.68 64.1886 20.68ZM75.6831 10.846C75.2871 11.132 74.9351 11.528 74.6711 11.99V10.12H72.9111V22H74.8911V16.038C74.8911 14.63 75.1771 13.222 76.3211 12.408C77.1571 11.792 78.2131 11.748 79.0491 11.946V10.12C77.9931 9.878 76.5851 10.098 75.6831 10.846ZM84.1976 11.726H87.7836V10.12H84.1976V6.82H82.2396V10.12H79.8196V11.726H82.2396V17.512C82.2396 18.744 82.1736 19.646 82.6356 20.57C83.4716 22.198 85.6496 22.44 87.7836 22V20.306C86.1556 20.57 84.9676 20.504 84.4396 19.558C84.1536 19.052 84.1976 18.392 84.1976 17.424V11.726ZM94.694 22.33C97.664 22.33 99.446 20.922 99.446 18.634C99.446 16.786 98.434 15.906 95.288 15.114C92.494 14.41 91.9 14.036 91.9 13.156C91.9 12.144 92.956 11.484 94.496 11.528C96.102 11.572 97.202 12.364 97.4 13.618L99.402 13.266C99.16 11.176 97.202 9.79 94.496 9.79C91.746 9.79 89.92 11.176 89.92 13.266C89.92 14.96 90.932 15.774 94.078 16.61C96.982 17.402 97.422 17.688 97.422 18.678C97.422 19.844 96.432 20.57 94.826 20.57C93.11 20.57 91.878 19.756 91.548 18.458L89.546 18.788C89.964 21.01 91.856 22.33 94.694 22.33Z" fill="black"></path> <rect y="55" width="367" height="76" rx="10" fill="#F2F2F7"></rect> <path d="M38.7017 103.414C38.9707 103.674 39.2954 103.822 39.6851 103.822C40.4736 103.822 41.0952 103.201 41.0952 102.421C41.0952 102.032 40.9375 101.679 40.6592 101.401L32.2539 93.2925L40.6592 85.1934C40.9375 84.915 41.0952 84.5532 41.0952 84.1729C41.0952 83.3936 40.4736 82.772 39.6851 82.772C39.2954 82.772 38.98 82.9111 38.7017 83.1802L29.4058 92.1699C29.0718 92.4946 28.8955 92.8657 28.8955 93.3018C28.8955 93.7285 29.0625 94.0811 29.4058 94.4243L38.7017 103.414Z" fill="#007AFF"></path> <path d="M70.5825 86.4326C69.7358 85.5859 68.5405 85.4531 67.1211 85.4531H60.854C59.4595 85.4531 58.2642 85.5859 57.4175 86.4326C56.5708 87.2793 56.4463 88.4663 56.4463 89.8525V96.1279C56.4463 97.5474 56.5708 98.7261 57.4175 99.5728C58.2642 100.419 59.4595 100.552 60.8706 100.552H67.1211C68.5405 100.552 69.7358 100.419 70.5825 99.5728C71.4292 98.7261 71.5537 97.5474 71.5537 96.1279V89.8774C71.5537 88.458 71.4292 87.271 70.5825 86.4326Z" fill="#007AFF"></path> <path d="M88.2007 99C90.749 99 92.2598 97.7466 92.2598 95.6382C92.2598 94.0527 91.2222 92.9321 89.5869 92.7246V92.5918C90.7407 92.3843 91.6538 91.2554 91.6538 90.0103C91.6538 88.1758 90.3091 87.022 88.1094 87.022H83.5273V99H88.2007ZM85.0215 88.3418H87.7939C89.2798 88.3418 90.1431 89.0474 90.1431 90.2676C90.1431 91.5376 89.2217 92.1851 87.4121 92.1851H85.0215V88.3418ZM85.0215 97.6802V93.4717H87.8354C89.7446 93.4717 90.7241 94.1772 90.7241 95.5635C90.7241 96.9497 89.7778 97.6802 87.9766 97.6802H85.0215ZM101.348 90.0518H99.9201V95.3477C99.9201 96.9165 99.0568 97.8545 97.4797 97.8545C96.052 97.8545 95.4543 97.1074 95.4543 95.4971V90.0518H94.0266V95.8457C94.0266 97.9624 95.0725 99.1577 97.0813 99.1577C98.4509 99.1577 99.4055 98.5933 99.8537 97.5972H99.9865V99H101.348V90.0518ZM104.227 87.7358V90.0518H102.783V91.2471H104.227V96.6758C104.227 98.3857 104.966 99.0664 106.809 99.0664C107.091 99.0664 107.365 99.0332 107.647 98.9834V97.7798C107.381 97.8047 107.24 97.813 106.983 97.813C106.053 97.813 105.655 97.3647 105.655 96.3105V91.2471H107.647V90.0518H105.655V87.7358H104.227ZM109.995 87.7358V90.0518H108.55V91.2471H109.995V96.6758C109.995 98.3857 110.734 99.0664 112.576 99.0664C112.859 99.0664 113.132 99.0332 113.415 98.9834V97.7798C113.149 97.8047 113.008 97.813 112.751 97.813C111.821 97.813 111.422 97.3647 111.422 96.3105V91.2471H113.415V90.0518H111.422V87.7358H109.995ZM118.709 99.1577C121.258 99.1577 122.835 97.3979 122.835 94.5259C122.835 91.6455 121.258 89.894 118.709 89.894C116.161 89.894 114.584 91.6455 114.584 94.5259C114.584 97.3979 116.161 99.1577 118.709 99.1577ZM118.709 97.8711C117.016 97.8711 116.061 96.6426 116.061 94.5259C116.061 92.4009 117.016 91.1807 118.709 91.1807C120.403 91.1807 121.357 92.4009 121.357 94.5259C121.357 96.6426 120.403 97.8711 118.709 97.8711ZM124.668 99H126.096V93.7041C126.096 92.1353 127.017 91.1807 128.445 91.1807C129.873 91.1807 130.553 91.9443 130.553 93.5547V99H131.981V93.2061C131.981 91.0811 130.86 89.894 128.852 89.894C127.482 89.894 126.61 90.4751 126.162 91.4629H126.029V90.0518H124.668V99Z" fill="#007AFF"></path> <path d="M38.7017 187.414C38.9707 187.674 39.2954 187.822 39.6851 187.822C40.4736 187.822 41.0952 187.201 41.0952 186.421C41.0952 186.032 40.9375 185.679 40.6592 185.401L32.2539 177.292L40.6592 169.193C40.9375 168.915 41.0952 168.553 41.0952 168.173C41.0952 167.394 40.4736 166.772 39.6851 166.772C39.2954 166.772 38.98 166.911 38.7017 167.18L29.4058 176.17C29.0718 176.495 28.8955 176.866 28.8955 177.302C28.8955 177.729 29.0625 178.081 29.4058 178.424L38.7017 187.414Z" fill="#007AFF"></path> <path d="M38.7017 247.414C38.9707 247.674 39.2954 247.822 39.6851 247.822C40.4736 247.822 41.0952 247.201 41.0952 246.421C41.0952 246.032 40.9375 245.679 40.6592 245.401L32.2539 237.292L40.6592 229.193C40.9375 228.915 41.0952 228.553 41.0952 228.173C41.0952 227.394 40.4736 226.772 39.6851 226.772C39.2954 226.772 38.98 226.911 38.7017 227.18L29.4058 236.17C29.0718 236.495 28.8955 236.866 28.8955 237.302C28.8955 237.729 29.0625 238.081 29.4058 238.424L38.7017 247.414Z" fill="#007AFF"></path> <path d="M59.9917 247.823C65.9102 247.823 70.8076 242.934 70.8076 237.015C70.8076 231.097 65.9019 226.208 59.9834 226.208C54.0732 226.208 49.1841 231.097 49.1841 237.015C49.1841 242.934 54.0815 247.823 59.9917 247.823ZM54.3472 241.581C53.9902 241.581 53.7578 241.348 53.7578 240.991C53.7578 240.784 53.8159 240.618 53.9736 240.452L57.0366 236.874C57.6177 236.185 58.1489 235.554 58.1489 234.824C58.1489 233.927 57.5264 233.338 56.5303 233.338C55.6338 233.338 54.9946 233.828 54.7622 234.716C54.6294 235.023 54.48 235.197 54.1812 235.197C53.8408 235.197 53.625 234.957 53.625 234.6C53.625 234.475 53.6499 234.367 53.6748 234.226C53.9404 233.056 55.1357 232.201 56.4888 232.201C58.2236 232.201 59.3525 233.197 59.3525 234.732C59.3525 235.787 58.7798 236.592 57.8999 237.604L55.5425 240.36V240.418H59.0454C59.3691 240.418 59.6016 240.634 59.6016 241C59.6016 241.34 59.3691 241.581 59.0454 241.581H54.3472ZM62.457 241.705C62.0835 241.705 61.8096 241.439 61.8096 241.066C61.8096 240.892 61.8262 240.767 61.9092 240.626L65.5283 233.587V233.504H61.3696C61.0293 233.504 60.7969 233.288 60.7969 232.956C60.7969 232.616 61.0293 232.392 61.3696 232.392H66.0098C66.5493 232.392 66.9062 232.765 66.9062 233.255C66.9062 233.454 66.873 233.637 66.7236 233.952L63.0879 241.232C62.9219 241.564 62.731 241.705 62.457 241.705Z" fill="#007AFF"></path> <path d="M38.7017 307.414C38.9707 307.674 39.2954 307.822 39.6851 307.822C40.4736 307.822 41.0952 307.201 41.0952 306.421C41.0952 306.032 40.9375 305.679 40.6592 305.401L32.2539 297.292L40.6592 289.193C40.9375 288.915 41.0952 288.553 41.0952 288.173C41.0952 287.394 40.4736 286.772 39.6851 286.772C39.2954 286.772 38.98 286.911 38.7017 287.18L29.4058 296.17C29.0718 296.495 28.8955 296.866 28.8955 297.302C28.8955 297.729 29.0625 298.081 29.4058 298.424L38.7017 307.414Z" fill="#007AFF"></path> <path d="M52.2007 303C54.749 303 56.2598 301.747 56.2598 299.638C56.2598 298.053 55.2222 296.932 53.5869 296.725V296.592C54.7407 296.384 55.6538 295.255 55.6538 294.01C55.6538 292.176 54.3091 291.022 52.1094 291.022H47.5273V303H52.2007ZM49.0215 292.342H51.7939C53.2798 292.342 54.1431 293.047 54.1431 294.268C54.1431 295.538 53.2217 296.185 51.4121 296.185H49.0215V292.342ZM49.0215 301.68V297.472H51.8354C53.7446 297.472 54.7241 298.177 54.7241 299.563C54.7241 300.95 53.7778 301.68 51.9766 301.68H49.0215ZM65.3479 294.052H63.9201V299.348C63.9201 300.917 63.0568 301.854 61.4797 301.854C60.052 301.854 59.4543 301.107 59.4543 299.497V294.052H58.0266V299.846C58.0266 301.962 59.0725 303.158 61.0813 303.158C62.4509 303.158 63.4055 302.593 63.8537 301.597H63.9865V303H65.3479V294.052ZM68.227 291.736V294.052H66.7826V295.247H68.227V300.676C68.227 302.386 68.9657 303.066 70.8085 303.066C71.0907 303.066 71.3647 303.033 71.6469 302.983V301.78C71.3813 301.805 71.2402 301.813 70.9828 301.813C70.0531 301.813 69.6547 301.365 69.6547 300.311V295.247H71.6469V294.052H69.6547V291.736H68.227ZM73.9948 291.736V294.052H72.5504V295.247H73.9948V300.676C73.9948 302.386 74.7335 303.066 76.5763 303.066C76.8585 303.066 77.1324 303.033 77.4147 302.983V301.78C77.149 301.805 77.0079 301.813 76.7506 301.813C75.8209 301.813 75.4225 301.365 75.4225 300.311V295.247H77.4147V294.052H75.4225V291.736H73.9948ZM82.7093 303.158C85.2576 303.158 86.8348 301.398 86.8348 298.526C86.8348 295.646 85.2576 293.894 82.7093 293.894C80.161 293.894 78.5838 295.646 78.5838 298.526C78.5838 301.398 80.161 303.158 82.7093 303.158ZM82.7093 301.871C81.0159 301.871 80.0614 300.643 80.0614 298.526C80.0614 296.401 81.0159 295.181 82.7093 295.181C84.4027 295.181 85.3573 296.401 85.3573 298.526C85.3573 300.643 84.4027 301.871 82.7093 301.871ZM88.668 303H90.0957V297.704C90.0957 296.135 91.0171 295.181 92.4449 295.181C93.8726 295.181 94.5533 295.944 94.5533 297.555V303H95.981V297.206C95.981 295.081 94.8604 293.894 92.8516 293.894C91.482 293.894 90.6104 294.475 90.1621 295.463H90.0293V294.052H88.668V303Z" fill="#007AFF"></path> <path d="M45.9917 365.955C46.4399 365.955 46.8052 365.598 46.8052 365.167V357.837H53.9189C54.3589 357.837 54.7324 357.463 54.7324 357.023C54.7324 356.575 54.3589 356.21 53.9189 356.21H46.8052V348.872C46.8052 348.44 46.4399 348.083 45.9917 348.083C45.5518 348.083 45.1865 348.44 45.1865 348.872V356.21H38.0728C37.6328 356.21 37.2593 356.575 37.2593 357.023C37.2593 357.463 37.6328 357.837 38.0728 357.837H45.1865V365.167C45.1865 365.598 45.5518 365.955 45.9917 365.955Z" fill="#007AFF"></path> <path d="M42.2007 423C44.749 423 46.2598 421.747 46.2598 419.638C46.2598 418.053 45.2222 416.932 43.5869 416.725V416.592C44.7407 416.384 45.6538 415.255 45.6538 414.01C45.6538 412.176 44.3091 411.022 42.1094 411.022H37.5273V423H42.2007ZM39.0215 412.342H41.7939C43.2798 412.342 44.1431 413.047 44.1431 414.268C44.1431 415.538 43.2217 416.185 41.4121 416.185H39.0215V412.342ZM39.0215 421.68V417.472H41.8354C43.7446 417.472 44.7241 418.177 44.7241 419.563C44.7241 420.95 43.7778 421.68 41.9766 421.68H39.0215ZM55.3479 414.052H53.9201V419.348C53.9201 420.917 53.0568 421.854 51.4797 421.854C50.052 421.854 49.4543 421.107 49.4543 419.497V414.052H48.0266V419.846C48.0266 421.962 49.0725 423.158 51.0813 423.158C52.4509 423.158 53.4055 422.593 53.8537 421.597H53.9865V423H55.3479V414.052ZM58.227 411.736V414.052H56.7826V415.247H58.227V420.676C58.227 422.386 58.9657 423.066 60.8085 423.066C61.0907 423.066 61.3647 423.033 61.6469 422.983V421.78C61.3813 421.805 61.2402 421.813 60.9828 421.813C60.0531 421.813 59.6547 421.365 59.6547 420.311V415.247H61.6469V414.052H59.6547V411.736H58.227ZM63.9948 411.736V414.052H62.5504V415.247H63.9948V420.676C63.9948 422.386 64.7335 423.066 66.5763 423.066C66.8585 423.066 67.1324 423.033 67.4147 422.983V421.78C67.149 421.805 67.0079 421.813 66.7506 421.813C65.8209 421.813 65.4225 421.365 65.4225 420.311V415.247H67.4147V414.052H65.4225V411.736H63.9948ZM72.7093 423.158C75.2576 423.158 76.8348 421.398 76.8348 418.526C76.8348 415.646 75.2576 413.894 72.7093 413.894C70.161 413.894 68.5838 415.646 68.5838 418.526C68.5838 421.398 70.161 423.158 72.7093 423.158ZM72.7093 421.871C71.0159 421.871 70.0614 420.643 70.0614 418.526C70.0614 416.401 71.0159 415.181 72.7093 415.181C74.4027 415.181 75.3573 416.401 75.3573 418.526C75.3573 420.643 74.4027 421.871 72.7093 421.871ZM78.668 423H80.0957V417.704C80.0957 416.135 81.0171 415.181 82.4449 415.181C83.8726 415.181 84.5533 415.944 84.5533 417.555V423H85.981V417.206C85.981 415.081 84.8604 413.894 82.8516 413.894C81.482 413.894 80.6104 414.475 80.1621 415.463H80.0293V414.052H78.668V423Z" fill="#007AFF"></path> <path d="M36.6982 490.467C36.7681 492.162 38.1836 493.235 40.3672 493.235C42.665 493.235 44.0806 492.105 44.0806 490.277C44.0806 488.861 43.2871 488.068 41.4463 487.674L40.3418 487.439C39.269 487.205 38.8311 486.868 38.8311 486.291C38.8311 485.573 39.4658 485.11 40.4243 485.11C41.3511 485.11 42.0239 485.599 42.1128 486.348H43.9155C43.8584 484.729 42.4302 483.605 40.4116 483.605C38.2979 483.605 36.9077 484.735 36.9077 486.443C36.9077 487.833 37.7266 488.69 39.396 489.045L40.5894 489.306C41.7129 489.553 42.1699 489.902 42.1699 490.505C42.1699 491.216 41.4653 491.718 40.4688 491.718C39.3896 491.718 38.6406 491.229 38.5518 490.467H36.6982ZM47.7566 483.84H45.8396V489.839C45.8396 491.864 47.3377 493.235 49.68 493.235C52.0223 493.235 53.514 491.864 53.514 489.839V483.84H51.597V489.655C51.597 490.829 50.9051 491.591 49.68 491.591C48.4549 491.591 47.7566 490.829 47.7566 489.655V483.84ZM59.7989 493C61.754 493 62.9664 491.991 62.9664 490.378C62.9664 489.198 62.0841 488.29 60.8717 488.195V488.081C61.8111 487.941 62.5284 487.097 62.5284 486.125C62.5284 484.71 61.4684 483.84 59.691 483.84H55.6856V493H59.7989ZM57.6026 485.262H59.2022C60.1163 485.262 60.6432 485.707 60.6432 486.456C60.6432 487.217 60.0782 487.649 59.0436 487.649H57.6026V485.262ZM57.6026 491.572V488.912H59.2657C60.3956 488.912 61.0113 489.369 61.0113 490.226C61.0113 491.102 60.4146 491.572 59.3102 491.572H57.6026ZM68.788 493V485.421H71.5365V483.84H64.1225V485.421H66.871V493H68.788ZM75.0983 493V483.84H73.1813V493H75.0983ZM81.4087 493V485.421H84.1572V483.84H76.7432V485.421H79.4917V493H81.4087ZM91.7942 491.388H87.719V483.84H85.8021V493H91.7942V491.388ZM99.5519 491.419H95.4005V489.103H99.317V487.63H95.4005V485.421H99.5519V483.84H93.4835V493H99.5519V491.419Z" fill="#3C3C43" fill-opacity="0.6"></path> <path d="M407 36.25L781 36.25" stroke="#8E8E93" stroke-width="0.5"></path> <path d="M780.75 39L780.75 36" stroke="#8E8E93" stroke-width="0.5"></path> <path d="M407.25 39L407.25 36" stroke="#8E8E93" stroke-width="0.5"></path> <path d="M561.047 22H562.917V10.45L568.285 22H569.341L574.709 10.45V21.978H576.579V6.16H574.775L568.813 18.766L562.829 6.16H561.047V22ZM579.872 7.898H581.83V5.874H579.872V7.898ZM579.872 22H581.83V10.12H579.872V22ZM593.293 6.16V11.198C592.435 10.296 591.269 9.79 589.795 9.79C586.495 9.79 584.471 12.474 584.471 16.038C584.471 19.602 586.473 22.33 589.795 22.33C591.401 22.33 592.655 21.714 593.513 20.658V22H595.273V6.16H593.293ZM590.037 20.526C587.705 20.526 586.561 18.568 586.561 16.038C586.561 13.53 587.683 11.572 590.103 11.572C592.413 11.572 593.513 13.42 593.513 16.038C593.513 18.656 592.435 20.526 590.037 20.526ZM606.506 6.16V11.198C605.648 10.296 604.482 9.79 603.008 9.79C599.708 9.79 597.684 12.474 597.684 16.038C597.684 19.602 599.686 22.33 603.008 22.33C604.614 22.33 605.868 21.714 606.726 20.658V22H608.486V6.16H606.506ZM603.25 20.526C600.918 20.526 599.774 18.568 599.774 16.038C599.774 13.53 600.896 11.572 603.316 11.572C605.626 11.572 606.726 13.42 606.726 16.038C606.726 18.656 605.648 20.526 603.25 20.526ZM611.777 22H613.735V5.83H611.777V22ZM618.487 16.61H627.573C627.771 12.386 625.681 9.79 622.095 9.79C618.641 9.79 616.375 12.232 616.375 16.126C616.375 19.844 618.685 22.33 622.183 22.33C624.493 22.33 626.451 21.12 627.397 19.03L625.505 18.37C624.845 19.734 623.657 20.46 622.095 20.46C619.917 20.46 618.641 19.074 618.487 16.61ZM622.161 11.55C624.185 11.55 625.307 12.694 625.571 15.026H618.531C618.795 12.782 620.049 11.55 622.161 11.55Z" fill="black"></path> <rect x="407" y="55" width="374" height="76" rx="10" fill="#F2F2F7"></rect> <path d="M486.583 86.4326C485.736 85.5859 484.541 85.4531 483.121 85.4531H476.854C475.459 85.4531 474.264 85.5859 473.417 86.4326C472.571 87.2793 472.446 88.4663 472.446 89.8525V96.1279C472.446 97.5474 472.571 98.7261 473.417 99.5728C474.264 100.419 475.459 100.552 476.871 100.552H483.121C484.541 100.552 485.736 100.419 486.583 99.5728C487.429 98.7261 487.554 97.5474 487.554 96.1279V89.8774C487.554 88.458 487.429 87.271 486.583 86.4326Z" fill="#007AFF"></path> <rect x="506" y="73" width="40" height="40" rx="20" fill="url(#paint0_linear)"></rect> <path d="M539.994 111.498C542.578 111.498 544.729 109.354 544.729 106.77C544.729 104.186 542.572 102.041 539.988 102.041C537.41 102.041 535.266 104.186 535.266 106.77C535.266 109.354 537.416 111.498 539.994 111.498Z" fill="#34C759"></path> <path d="M539.994 112.998C543.404 112.998 546.229 110.184 546.229 106.77H543.229C543.229 108.523 541.752 109.998 539.994 109.998V112.998ZM546.229 106.77C546.229 103.352 543.396 100.541 539.988 100.541V103.541C541.749 103.541 543.229 105.019 543.229 106.77H546.229ZM539.988 100.541C536.581 100.541 533.766 103.358 533.766 106.77H536.766C536.766 105.013 538.24 103.541 539.988 103.541V100.541ZM533.766 106.77C533.766 110.183 536.589 112.998 539.994 112.998V109.998C538.243 109.998 536.766 108.524 536.766 106.77H533.766Z" fill="white"></path> <g clip-path="url(#clip0)"> <path d="M554 85C554 80.5817 557.582 77 562 77H674C678.418 77 682 80.5817 682 85V101C682 105.418 678.418 109 674 109H562C557.582 109 554 105.418 554 101V85Z" fill="#787880" fill-opacity="0.16"></path> <g filter="url(#filter0_dd)"> <path d="M556 86C556 82.134 559.134 79 563 79H608C611.866 79 615 82.134 615 86V100C615 103.866 611.866 107 608 107H563C559.134 107 556 103.866 556 100V86Z" fill="white"></path> <g clip-path="url(#clip1)"> <path d="M567.37 98H569.008V88.8403H567.377L564.984 90.5225V92.0649L567.262 90.4526H567.37V98ZM571.38 93.0425C571.38 94.0835 572.009 94.6929 573.342 94.9976L574.573 95.2832C575.233 95.4355 575.531 95.6895 575.531 96.083C575.531 96.6099 574.979 96.9717 574.186 96.9717C573.399 96.9717 572.91 96.6543 572.758 96.1401H571.202C571.323 97.3906 572.415 98.1396 574.148 98.1396C575.881 98.1396 577.106 97.2573 577.106 95.9307C577.106 94.9087 576.49 94.3438 575.163 94.0391L573.938 93.7661C573.24 93.6011 572.91 93.3535 572.91 92.96C572.91 92.4458 573.449 92.0967 574.167 92.0967C574.903 92.0967 575.366 92.4141 575.481 92.9028H576.96C576.845 91.6523 575.811 90.9287 574.16 90.9287C572.523 90.9287 571.38 91.7983 571.38 93.0425ZM579.072 89.3608V91.1064H577.974V92.3315H579.072V96.1592C579.072 97.4985 579.706 98.0317 581.3 98.0317C581.604 98.0317 581.896 98.0063 582.125 97.9619V96.7559C581.934 96.7749 581.814 96.7876 581.592 96.7876C580.932 96.7876 580.64 96.4766 580.64 95.7847V92.3315H582.125V91.1064H580.64V89.3608H579.072ZM587.51 89.3608V91.1064H586.412V92.3315H587.51V96.1592C587.51 97.4985 588.145 98.0317 589.738 98.0317C590.043 98.0317 590.335 98.0063 590.564 97.9619V96.7559C590.373 96.7749 590.253 96.7876 590.03 96.7876C589.37 96.7876 589.078 96.4766 589.078 95.7847V92.3315H590.564V91.1064H589.078V89.3608H587.51ZM593.97 98.1143C594.878 98.1143 595.64 97.7207 596.027 97.0479H596.135V98H597.652V93.2583C597.652 91.792 596.649 90.9287 594.865 90.9287C593.215 90.9287 592.066 91.7031 591.939 92.9155H593.425C593.571 92.4395 594.066 92.1792 594.789 92.1792C595.64 92.1792 596.097 92.5664 596.097 93.2583V93.855L594.307 93.9629C592.618 94.0581 591.673 94.7881 591.673 96.0322C591.673 97.3018 592.631 98.1143 593.97 98.1143ZM594.434 96.9019C593.736 96.9019 593.234 96.5527 593.234 95.9561C593.234 95.3784 593.647 95.0547 594.529 94.9976L596.097 94.8896V95.4546C596.097 96.2798 595.386 96.9019 594.434 96.9019ZM603.331 98.1143C605.083 98.1143 606.182 96.7368 606.182 94.5342C606.182 92.3188 605.09 90.9478 603.331 90.9478C602.379 90.9478 601.579 91.4111 601.218 92.1665H601.11V88.377H599.536V98H601.053V96.9019H601.161C601.554 97.6636 602.36 98.1143 603.331 98.1143ZM602.836 92.2617C603.909 92.2617 604.563 93.1187 604.563 94.5342C604.563 95.9497 603.915 96.8066 602.836 96.8066C601.757 96.8066 601.084 95.937 601.084 94.5342C601.084 93.1313 601.764 92.2617 602.836 92.2617Z" fill="black"></path> </g> </g> <g clip-path="url(#clip2)"> <path d="M624.203 91.5508H625.739C625.739 90.5859 626.374 89.9258 627.371 89.9258C628.329 89.9258 628.901 90.5669 628.901 91.3984C628.901 92.0967 628.621 92.5347 627.466 93.7026L624.292 96.8955V98H630.652V96.6416H626.514V96.5337L628.482 94.5977C630.056 93.0552 630.519 92.3125 630.519 91.2461C630.519 89.7227 629.281 88.6118 627.46 88.6118C625.549 88.6118 624.203 89.8179 624.203 91.5508ZM632.409 98H633.983V93.9565C633.983 92.9155 634.573 92.2617 635.513 92.2617C636.471 92.2617 636.916 92.8013 636.916 93.8804V98H638.49V93.5122C638.49 91.8618 637.646 90.9287 636.097 90.9287C635.062 90.9287 634.364 91.3984 634.034 92.1729H633.926V91.062H632.409V98ZM642.792 98.1143C643.757 98.1143 644.557 97.6636 644.95 96.9019H645.058V98H646.581V88.377H645.007V92.1665H644.899C644.531 91.4048 643.744 90.9478 642.792 90.9478C641.04 90.9478 639.935 92.3315 639.935 94.5278C639.935 96.7305 641.034 98.1143 642.792 98.1143ZM643.281 92.2617C644.36 92.2617 645.026 93.1313 645.026 94.5342C645.026 95.9434 644.366 96.8066 643.281 96.8066C642.202 96.8066 641.548 95.9561 641.548 94.5342C641.548 93.1187 642.208 92.2617 643.281 92.2617ZM652.38 89.3608V91.1064H651.281V92.3315H652.38V96.1592C652.38 97.4985 653.014 98.0317 654.608 98.0317C654.912 98.0317 655.204 98.0063 655.433 97.9619V96.7559C655.242 96.7749 655.122 96.7876 654.9 96.7876C654.239 96.7876 653.947 96.4766 653.947 95.7847V92.3315H655.433V91.1064H653.947V89.3608H652.38ZM658.84 98.1143C659.747 98.1143 660.509 97.7207 660.896 97.0479H661.004V98H662.521V93.2583C662.521 91.792 661.518 90.9287 659.735 90.9287C658.084 90.9287 656.935 91.7031 656.808 92.9155H658.294C658.44 92.4395 658.935 92.1792 659.658 92.1792C660.509 92.1792 660.966 92.5664 660.966 93.2583V93.855L659.176 93.9629C657.488 94.0581 656.542 94.7881 656.542 96.0322C656.542 97.3018 657.5 98.1143 658.84 98.1143ZM659.303 96.9019C658.605 96.9019 658.103 96.5527 658.103 95.9561C658.103 95.3784 658.516 95.0547 659.398 94.9976L660.966 94.8896V95.4546C660.966 96.2798 660.255 96.9019 659.303 96.9019ZM668.201 98.1143C669.953 98.1143 671.051 96.7368 671.051 94.5342C671.051 92.3188 669.959 90.9478 668.201 90.9478C667.248 90.9478 666.449 91.4111 666.087 92.1665H665.979V88.377H664.405V98H665.922V96.9019H666.03C666.423 97.6636 667.229 98.1143 668.201 98.1143ZM667.705 92.2617C668.778 92.2617 669.432 93.1187 669.432 94.5342C669.432 95.9497 668.785 96.8066 667.705 96.8066C666.626 96.8066 665.953 95.937 665.953 94.5342C665.953 93.1313 666.633 92.2617 667.705 92.2617Z" fill="black"></path> </g> </g> <path d="M714.583 86.4326C713.736 85.5859 712.541 85.4531 711.121 85.4531H704.854C703.459 85.4531 702.264 85.5859 701.417 86.4326C700.571 87.2793 700.446 88.4663 700.446 89.8525V96.1279C700.446 97.5474 700.571 98.7261 701.417 99.5728C702.264 100.419 703.459 100.552 704.871 100.552H711.121C712.541 100.552 713.736 100.419 714.583 99.5728C715.429 98.7261 715.554 97.5474 715.554 96.1279V89.8774C715.554 88.458 715.429 87.271 714.583 86.4326Z" fill="#007AFF"></path> <g clip-path="url(#clip3)"> <rect x="574" y="157" width="40" height="40" rx="20" fill="url(#paint1_linear)"></rect> <path d="M607.994 195.498C610.578 195.498 612.729 193.354 612.729 190.77C612.729 188.186 610.572 186.041 607.988 186.041C605.41 186.041 603.266 188.186 603.266 190.77C603.266 193.354 605.416 195.498 607.994 195.498Z" fill="#34C759"></path> <path d="M607.994 196.998C611.404 196.998 614.229 194.184 614.229 190.77H611.229C611.229 192.523 609.752 193.998 607.994 193.998V196.998ZM614.229 190.77C614.229 187.352 611.396 184.541 607.988 184.541V187.541C609.749 187.541 611.229 189.019 611.229 190.77H614.229ZM607.988 184.541C604.581 184.541 601.766 187.358 601.766 190.77H604.766C604.766 189.013 606.24 187.541 607.988 187.541V184.541ZM601.766 190.77C601.766 194.183 604.589 196.998 607.994 196.998V193.998C606.243 193.998 604.766 192.524 604.766 190.77H601.766Z" fill="white"></path> </g> <g clip-path="url(#clip4)"> <path d="M571.992 247.823C577.91 247.823 582.808 242.934 582.808 237.015C582.808 231.097 577.902 226.208 571.983 226.208C566.073 226.208 561.184 231.097 561.184 237.015C561.184 242.934 566.082 247.823 571.992 247.823ZM571.992 246.279C566.862 246.279 562.736 242.145 562.736 237.015C562.736 231.885 566.854 227.751 571.983 227.751C577.122 227.751 581.247 231.885 581.255 237.015C581.264 242.145 577.13 246.279 571.992 246.279ZM576.98 238.31C576.98 235.828 575.196 234.292 572.73 234.292H569.286L568.049 234.334L568.821 233.72L570.149 232.417C570.282 232.3 570.365 232.134 570.365 231.935C570.365 231.553 570.083 231.263 569.701 231.263C569.51 231.263 569.352 231.329 569.228 231.462L566.38 234.359C566.223 234.517 566.123 234.716 566.123 234.94C566.123 235.164 566.223 235.355 566.38 235.513L569.236 238.426C569.36 238.559 569.518 238.625 569.709 238.625C570.083 238.625 570.365 238.335 570.365 237.953C570.365 237.771 570.298 237.596 570.157 237.463L568.646 235.994L568.049 235.546L569.286 235.587H572.73C574.391 235.587 575.627 236.559 575.627 238.244C575.627 239.962 574.416 241.033 572.722 241.033H571.17C570.78 241.033 570.481 241.273 570.481 241.697C570.481 242.12 570.78 242.353 571.187 242.353H572.722C575.188 242.353 576.98 240.792 576.98 238.31Z" fill="#007AFF"></path> <path d="M615.992 247.823C621.91 247.823 626.808 242.934 626.808 237.015C626.808 231.097 621.902 226.208 615.983 226.208C610.073 226.208 605.184 231.097 605.184 237.015C605.184 242.934 610.082 247.823 615.992 247.823ZM615.992 246.279C610.862 246.279 606.736 242.145 606.736 237.015C606.736 231.885 610.854 227.751 615.983 227.751C621.122 227.751 625.247 231.885 625.255 237.015C625.264 242.145 621.13 246.279 615.992 246.279ZM610.123 238.31C610.123 240.792 611.924 242.353 614.381 242.353H615.917C616.324 242.353 616.631 242.12 616.631 241.697C616.631 241.273 616.324 241.033 615.934 241.033H614.381C612.688 241.033 611.476 239.962 611.476 238.244C611.476 236.559 612.713 235.587 614.373 235.587H617.818L619.063 235.546L618.465 235.994L616.946 237.463C616.813 237.596 616.739 237.771 616.739 237.953C616.739 238.335 617.021 238.625 617.395 238.625C617.594 238.625 617.743 238.559 617.876 238.426L620.723 235.513C620.881 235.355 620.98 235.164 620.98 234.94C620.98 234.716 620.881 234.517 620.723 234.359L617.884 231.462C617.751 231.329 617.602 231.263 617.403 231.263C617.021 231.263 616.739 231.553 616.739 231.935C616.739 232.134 616.83 232.3 616.955 232.417L618.283 233.72L619.063 234.334L617.818 234.292H614.373C611.916 234.292 610.123 235.828 610.123 238.31Z" fill="#007AFF"></path> </g> <g clip-path="url(#clip5)"> <g clip-path="url(#clip6)"> <path d="M530 289C530 284.582 533.582 281 538 281H650C654.418 281 658 284.582 658 289V305C658 309.418 654.418 313 650 313H538C533.582 313 530 309.418 530 305V289Z" fill="#767680" fill-opacity="0.12"></path> <g filter="url(#filter1_dd)"> <path d="M532 290C532 286.134 535.134 283 539 283H584C587.866 283 591 286.134 591 290V304C591 307.866 587.866 311 584 311H539C535.134 311 532 307.866 532 304V290Z" fill="white"></path> <g clip-path="url(#clip7)"> <path d="M543.37 302H545.008V292.84H543.377L540.984 294.522V296.065L543.262 294.453H543.37V302ZM547.38 297.042C547.38 298.083 548.009 298.693 549.342 298.998L550.573 299.283C551.233 299.436 551.531 299.689 551.531 300.083C551.531 300.61 550.979 300.972 550.186 300.972C549.399 300.972 548.91 300.654 548.758 300.14H547.202C547.323 301.391 548.415 302.14 550.148 302.14C551.881 302.14 553.106 301.257 553.106 299.931C553.106 298.909 552.49 298.344 551.163 298.039L549.938 297.766C549.24 297.601 548.91 297.354 548.91 296.96C548.91 296.446 549.449 296.097 550.167 296.097C550.903 296.097 551.366 296.414 551.481 296.903H552.96C552.845 295.652 551.811 294.929 550.16 294.929C548.523 294.929 547.38 295.798 547.38 297.042ZM555.072 293.361V295.106H553.974V296.332H555.072V300.159C555.072 301.499 555.706 302.032 557.3 302.032C557.604 302.032 557.896 302.006 558.125 301.962V300.756C557.934 300.775 557.814 300.788 557.592 300.788C556.932 300.788 556.64 300.477 556.64 299.785V296.332H558.125V295.106H556.64V293.361H555.072ZM563.51 293.361V295.106H562.412V296.332H563.51V300.159C563.51 301.499 564.145 302.032 565.738 302.032C566.043 302.032 566.335 302.006 566.564 301.962V300.756C566.373 300.775 566.253 300.788 566.03 300.788C565.37 300.788 565.078 300.477 565.078 299.785V296.332H566.564V295.106H565.078V293.361H563.51ZM569.97 302.114C570.878 302.114 571.64 301.721 572.027 301.048H572.135V302H573.652V297.258C573.652 295.792 572.649 294.929 570.865 294.929C569.215 294.929 568.066 295.703 567.939 296.916H569.425C569.571 296.439 570.066 296.179 570.789 296.179C571.64 296.179 572.097 296.566 572.097 297.258V297.855L570.307 297.963C568.618 298.058 567.673 298.788 567.673 300.032C567.673 301.302 568.631 302.114 569.97 302.114ZM570.434 300.902C569.736 300.902 569.234 300.553 569.234 299.956C569.234 299.378 569.647 299.055 570.529 298.998L572.097 298.89V299.455C572.097 300.28 571.386 300.902 570.434 300.902ZM579.331 302.114C581.083 302.114 582.182 300.737 582.182 298.534C582.182 296.319 581.09 294.948 579.331 294.948C578.379 294.948 577.579 295.411 577.218 296.167H577.11V292.377H575.536V302H577.053V300.902H577.161C577.554 301.664 578.36 302.114 579.331 302.114ZM578.836 296.262C579.909 296.262 580.563 297.119 580.563 298.534C580.563 299.95 579.915 300.807 578.836 300.807C577.757 300.807 577.084 299.937 577.084 298.534C577.084 297.131 577.764 296.262 578.836 296.262Z" fill="black"></path> </g> </g> <g clip-path="url(#clip8)"> <path d="M600.203 295.551H601.739C601.739 294.586 602.374 293.926 603.371 293.926C604.329 293.926 604.901 294.567 604.901 295.398C604.901 296.097 604.621 296.535 603.466 297.703L600.292 300.896V302H606.652V300.642H602.514V300.534L604.482 298.598C606.056 297.055 606.519 296.312 606.519 295.246C606.519 293.723 605.281 292.612 603.46 292.612C601.549 292.612 600.203 293.818 600.203 295.551ZM608.409 302H609.983V297.957C609.983 296.916 610.573 296.262 611.513 296.262C612.471 296.262 612.916 296.801 612.916 297.88V302H614.49V297.512C614.49 295.862 613.646 294.929 612.097 294.929C611.062 294.929 610.364 295.398 610.034 296.173H609.926V295.062H608.409V302ZM618.792 302.114C619.757 302.114 620.557 301.664 620.95 300.902H621.058V302H622.581V292.377H621.007V296.167H620.899C620.531 295.405 619.744 294.948 618.792 294.948C617.04 294.948 615.935 296.332 615.935 298.528C615.935 300.73 617.034 302.114 618.792 302.114ZM619.281 296.262C620.36 296.262 621.026 297.131 621.026 298.534C621.026 299.943 620.366 300.807 619.281 300.807C618.202 300.807 617.548 299.956 617.548 298.534C617.548 297.119 618.208 296.262 619.281 296.262ZM628.38 293.361V295.106H627.281V296.332H628.38V300.159C628.38 301.499 629.014 302.032 630.608 302.032C630.912 302.032 631.204 302.006 631.433 301.962V300.756C631.242 300.775 631.122 300.788 630.9 300.788C630.239 300.788 629.947 300.477 629.947 299.785V296.332H631.433V295.106H629.947V293.361H628.38ZM634.84 302.114C635.747 302.114 636.509 301.721 636.896 301.048H637.004V302H638.521V297.258C638.521 295.792 637.518 294.929 635.735 294.929C634.084 294.929 632.935 295.703 632.808 296.916H634.294C634.44 296.439 634.935 296.179 635.658 296.179C636.509 296.179 636.966 296.566 636.966 297.258V297.855L635.176 297.963C633.488 298.058 632.542 298.788 632.542 300.032C632.542 301.302 633.5 302.114 634.84 302.114ZM635.303 300.902C634.605 300.902 634.103 300.553 634.103 299.956C634.103 299.378 634.516 299.055 635.398 298.998L636.966 298.89V299.455C636.966 300.28 636.255 300.902 635.303 300.902ZM644.201 302.114C645.953 302.114 647.051 300.737 647.051 298.534C647.051 296.319 645.959 294.948 644.201 294.948C643.248 294.948 642.449 295.411 642.087 296.167H641.979V292.377H640.405V302H641.922V300.902H642.03C642.423 301.664 643.229 302.114 644.201 302.114ZM643.705 296.262C644.778 296.262 645.432 297.119 645.432 298.534C645.432 299.95 644.785 300.807 643.705 300.807C642.626 300.807 641.953 299.937 641.953 298.534C641.953 297.131 642.633 296.262 643.705 296.262Z" fill="black"></path> </g> </g> </g> <g clip-path="url(#clip9)"> <g clip-path="url(#clip10)"> <path d="M530 349C530 344.582 533.582 341 538 341H650C654.418 341 658 344.582 658 349V365C658 369.418 654.418 373 650 373H538C533.582 373 530 369.418 530 365V349Z" fill="#767680" fill-opacity="0.12"></path> <g clip-path="url(#clip11)"> <path d="M543.37 362H545.008V352.84H543.377L540.984 354.522V356.065L543.262 354.453H543.37V362ZM547.38 357.042C547.38 358.083 548.009 358.693 549.342 358.998L550.573 359.283C551.233 359.436 551.531 359.689 551.531 360.083C551.531 360.61 550.979 360.972 550.186 360.972C549.399 360.972 548.91 360.654 548.758 360.14H547.202C547.323 361.391 548.415 362.14 550.148 362.14C551.881 362.14 553.106 361.257 553.106 359.931C553.106 358.909 552.49 358.344 551.163 358.039L549.938 357.766C549.24 357.601 548.91 357.354 548.91 356.96C548.91 356.446 549.449 356.097 550.167 356.097C550.903 356.097 551.366 356.414 551.481 356.903H552.96C552.845 355.652 551.811 354.929 550.16 354.929C548.523 354.929 547.38 355.798 547.38 357.042ZM555.072 353.361V355.106H553.974V356.332H555.072V360.159C555.072 361.499 555.706 362.032 557.3 362.032C557.604 362.032 557.896 362.006 558.125 361.962V360.756C557.934 360.775 557.814 360.788 557.592 360.788C556.932 360.788 556.64 360.477 556.64 359.785V356.332H558.125V355.106H556.64V353.361H555.072ZM563.51 353.361V355.106H562.412V356.332H563.51V360.159C563.51 361.499 564.145 362.032 565.738 362.032C566.043 362.032 566.335 362.006 566.564 361.962V360.756C566.373 360.775 566.253 360.788 566.03 360.788C565.37 360.788 565.078 360.477 565.078 359.785V356.332H566.564V355.106H565.078V353.361H563.51ZM569.97 362.114C570.878 362.114 571.64 361.721 572.027 361.048H572.135V362H573.652V357.258C573.652 355.792 572.649 354.929 570.865 354.929C569.215 354.929 568.066 355.703 567.939 356.916H569.425C569.571 356.439 570.066 356.179 570.789 356.179C571.64 356.179 572.097 356.566 572.097 357.258V357.855L570.307 357.963C568.618 358.058 567.673 358.788 567.673 360.032C567.673 361.302 568.631 362.114 569.97 362.114ZM570.434 360.902C569.736 360.902 569.234 360.553 569.234 359.956C569.234 359.378 569.647 359.055 570.529 358.998L572.097 358.89V359.455C572.097 360.28 571.386 360.902 570.434 360.902ZM579.331 362.114C581.083 362.114 582.182 360.737 582.182 358.534C582.182 356.319 581.09 354.948 579.331 354.948C578.379 354.948 577.579 355.411 577.218 356.167H577.11V352.377H575.536V362H577.053V360.902H577.161C577.554 361.664 578.36 362.114 579.331 362.114ZM578.836 356.262C579.909 356.262 580.563 357.119 580.563 358.534C580.563 359.95 579.915 360.807 578.836 360.807C577.757 360.807 577.084 359.937 577.084 358.534C577.084 357.131 577.764 356.262 578.836 356.262Z" fill="black"></path> </g> <g filter="url(#filter2_dd)"> <path d="M591 350C591 346.134 594.134 343 598 343H649C652.866 343 656 346.134 656 350V364C656 367.866 652.866 371 649 371H598C594.134 371 591 367.866 591 364V350Z" fill="white"></path> <g clip-path="url(#clip12)"> <path d="M600.203 355.551H601.739C601.739 354.586 602.374 353.926 603.371 353.926C604.329 353.926 604.901 354.567 604.901 355.398C604.901 356.097 604.621 356.535 603.466 357.703L600.292 360.896V362H606.652V360.642H602.514V360.534L604.482 358.598C606.056 357.055 606.519 356.312 606.519 355.246C606.519 353.723 605.281 352.612 603.46 352.612C601.549 352.612 600.203 353.818 600.203 355.551ZM608.409 362H609.983V357.957C609.983 356.916 610.573 356.262 611.513 356.262C612.471 356.262 612.916 356.801 612.916 357.88V362H614.49V357.512C614.49 355.862 613.646 354.929 612.097 354.929C611.062 354.929 610.364 355.398 610.034 356.173H609.926V355.062H608.409V362ZM618.792 362.114C619.757 362.114 620.557 361.664 620.95 360.902H621.058V362H622.581V352.377H621.007V356.167H620.899C620.531 355.405 619.744 354.948 618.792 354.948C617.04 354.948 615.935 356.332 615.935 358.528C615.935 360.73 617.034 362.114 618.792 362.114ZM619.281 356.262C620.36 356.262 621.026 357.131 621.026 358.534C621.026 359.943 620.366 360.807 619.281 360.807C618.202 360.807 617.548 359.956 617.548 358.534C617.548 357.119 618.208 356.262 619.281 356.262ZM628.38 353.361V355.106H627.281V356.332H628.38V360.159C628.38 361.499 629.014 362.032 630.608 362.032C630.912 362.032 631.204 362.006 631.433 361.962V360.756C631.242 360.775 631.122 360.788 630.9 360.788C630.239 360.788 629.947 360.477 629.947 359.785V356.332H631.433V355.106H629.947V353.361H628.38ZM634.84 362.114C635.747 362.114 636.509 361.721 636.896 361.048H637.004V362H638.521V357.258C638.521 355.792 637.518 354.929 635.735 354.929C634.084 354.929 632.935 355.703 632.808 356.916H634.294C634.44 356.439 634.935 356.179 635.658 356.179C636.509 356.179 636.966 356.566 636.966 357.258V357.855L635.176 357.963C633.488 358.058 632.542 358.788 632.542 360.032C632.542 361.302 633.5 362.114 634.84 362.114ZM635.303 360.902C634.605 360.902 634.103 360.553 634.103 359.956C634.103 359.378 634.516 359.055 635.398 358.998L636.966 358.89V359.455C636.966 360.28 636.255 360.902 635.303 360.902ZM644.201 362.114C645.953 362.114 647.051 360.737 647.051 358.534C647.051 356.319 645.959 354.948 644.201 354.948C643.248 354.948 642.449 355.411 642.087 356.167H641.979V352.377H640.405V362H641.922V360.902H642.03C642.423 361.664 643.229 362.114 644.201 362.114ZM643.705 356.262C644.778 356.262 645.432 357.119 645.432 358.534C645.432 359.95 644.785 360.807 643.705 360.807C642.626 360.807 641.953 359.937 641.953 358.534C641.953 357.131 642.633 356.262 643.705 356.262Z" fill="black"></path> </g> </g> </g> </g> <path d="M821 36.25L1188 36.25" stroke="#8E8E93" stroke-width="0.5"></path> <path d="M1187.75 39L1187.75 36" stroke="#8E8E93" stroke-width="0.5"></path> <path d="M821.25 39L821.25 36" stroke="#8E8E93" stroke-width="0.5"></path> <path d="M1146.07 22L1143.01 15.708C1144.8 14.982 1145.74 13.244 1145.74 11.154C1145.74 8.624 1144.38 6.644 1141.83 6.248C1141.41 6.182 1140.97 6.16 1140.66 6.16H1134.39V22H1136.35V16.148H1140.99L1143.83 22H1146.07ZM1136.35 14.278V8.008H1140.59C1140.86 8.008 1141.25 8.03 1141.58 8.118C1143.1 8.448 1143.74 9.834 1143.74 11.154C1143.74 12.474 1143.1 13.838 1141.58 14.19C1141.25 14.256 1140.86 14.278 1140.59 14.278H1136.35ZM1148.7 7.898H1150.66V5.874H1148.7V7.898ZM1148.7 22H1150.66V10.12H1148.7V22ZM1162.34 10.12V11.44C1161.49 10.406 1160.23 9.79 1158.63 9.79C1155.33 9.79 1153.3 12.474 1153.3 16.038C1153.3 19.602 1155.3 22.33 1158.63 22.33C1160.1 22.33 1161.27 21.802 1162.12 20.9V22.066C1162.15 24.486 1161.05 25.718 1158.78 25.718C1157.64 25.718 1156.45 25.234 1155.88 24.068L1154.07 25.014C1155.06 26.774 1156.91 27.61 1158.78 27.61C1161.62 27.61 1163.49 26.444 1163.95 23.914C1164.06 23.32 1164.08 22.748 1164.08 22.088V10.12H1162.34ZM1158.87 20.526C1156.54 20.526 1155.39 18.568 1155.39 16.038C1155.39 13.53 1156.51 11.572 1158.93 11.572C1161.24 11.572 1162.34 13.42 1162.34 16.038C1162.34 18.656 1161.27 20.526 1158.87 20.526ZM1172.87 9.812C1171.16 9.812 1169.79 10.472 1168.91 11.638V6.16H1167.15V22H1169.13V15.73C1169.13 12.98 1170.43 11.66 1172.39 11.66C1174.9 11.66 1175.62 13.816 1175.62 16.038V22H1177.6V15.422C1177.6 13.178 1176.7 9.812 1172.87 9.812ZM1183.53 11.726H1187.12V10.12H1183.53V6.82H1181.57V10.12H1179.15V11.726H1181.57V17.512C1181.57 18.744 1181.51 19.646 1181.97 20.57C1182.81 22.198 1184.98 22.44 1187.12 22V20.306C1185.49 20.57 1184.3 20.504 1183.77 19.558C1183.49 19.052 1183.53 18.392 1183.53 17.424V11.726Z" fill="black"></path> <rect x="821" y="55" width="367" height="76" rx="10" fill="#F2F2F7"></rect> <g clip-path="url(#clip13)"> <path d="M865 93C865 85.268 871.268 79 879 79H930C937.732 79 944 85.268 944 93V93C944 100.732 937.732 107 930 107H879C871.268 107 865 100.732 865 93V93Z" fill="#007AFF"></path> <g clip-path="url(#clip14)"> <path d="M889.218 96.3813H884.37V87.4312H882.48V98H889.218V96.3813ZM897.833 98H899.862L896.105 87.4312H893.981L890.231 98H892.142L893.051 95.2681H896.94L897.833 98ZM894.94 89.416H895.065L896.5 93.8105H893.49L894.94 89.416ZM905.958 98C908.213 98 909.59 96.8574 909.59 94.9971C909.59 93.6201 908.609 92.5947 907.188 92.4629V92.3311C908.25 92.1626 909.07 91.1812 909.07 90.0679C909.07 88.4419 907.862 87.4312 905.855 87.4312H901.438V98H905.958ZM903.328 88.9033H905.394C906.536 88.9033 907.203 89.4526 907.203 90.3975C907.203 91.3643 906.492 91.8843 905.152 91.8843H903.328V88.9033ZM903.328 96.5278V93.2246H905.452C906.895 93.2246 907.657 93.7886 907.657 94.8652C907.657 95.9492 906.917 96.5278 905.525 96.5278H903.328ZM918.249 96.4106H913.298V93.3857H917.978V91.8843H913.298V89.0205H918.249V87.4312H911.408V98H918.249V96.4106ZM927.091 96.3813H922.243V87.4312H920.353V98H927.091V96.3813Z" fill="white"></path> </g> </g> <path d="M980.583 86.4326C979.736 85.5859 978.541 85.4531 977.121 85.4531H970.854C969.459 85.4531 968.264 85.5859 967.417 86.4326C966.571 87.2793 966.446 88.4663 966.446 89.8525V96.1279C966.446 97.5474 966.571 98.7261 967.417 99.5728C968.264 100.419 969.459 100.552 970.871 100.552H977.121C978.541 100.552 979.736 100.419 980.583 99.5728C981.429 98.7261 981.554 97.5474 981.554 96.1279V89.8774C981.554 88.458 981.429 87.271 980.583 86.4326Z" fill="#007AFF"></path> <path d="M1022 101.474C1026.63 101.474 1030.47 97.6387 1030.47 93.0068C1030.47 88.3833 1026.62 84.54 1021.99 84.54C1017.37 84.54 1013.53 88.3833 1013.53 93.0068C1013.53 97.6387 1017.38 101.474 1022 101.474Z" fill="#007AFF"></path> <path d="M1063.48 100.569H1076.52C1077.76 100.569 1078.54 99.6724 1078.54 98.5435C1078.54 98.2031 1078.46 97.8628 1078.28 97.5474L1071.74 85.8599C1071.37 85.1875 1070.68 84.8389 1070 84.8389C1069.31 84.8389 1068.62 85.1875 1068.25 85.8599L1061.72 97.5557C1061.54 97.8711 1061.45 98.2031 1061.45 98.5435C1061.45 99.6724 1062.23 100.569 1063.48 100.569Z" fill="#007AFF"></path> <path d="M1106.95 99C1109.5 99 1111.01 97.7466 1111.01 95.6382C1111.01 94.0527 1109.97 92.9321 1108.34 92.7246V92.5918C1109.49 92.3843 1110.4 91.2554 1110.4 90.0103C1110.4 88.1758 1109.06 87.022 1106.86 87.022H1102.28V99H1106.95ZM1103.77 88.3418H1106.54C1108.03 88.3418 1108.89 89.0474 1108.89 90.2676C1108.89 91.5376 1107.97 92.1851 1106.16 92.1851H1103.77V88.3418ZM1103.77 97.6802V93.4717H1106.58C1108.49 93.4717 1109.47 94.1772 1109.47 95.5635C1109.47 96.9497 1108.53 97.6802 1106.73 97.6802H1103.77ZM1120.1 90.0518H1118.67V95.3477C1118.67 96.9165 1117.81 97.8545 1116.23 97.8545C1114.8 97.8545 1114.2 97.1074 1114.2 95.4971V90.0518H1112.78V95.8457C1112.78 97.9624 1113.82 99.1577 1115.83 99.1577C1117.2 99.1577 1118.15 98.5933 1118.6 97.5972H1118.74V99H1120.1V90.0518ZM1122.98 87.7358V90.0518H1121.53V91.2471H1122.98V96.6758C1122.98 98.3857 1123.71 99.0664 1125.56 99.0664C1125.84 99.0664 1126.11 99.0332 1126.4 98.9834V97.7798C1126.13 97.8047 1125.99 97.813 1125.73 97.813C1124.8 97.813 1124.4 97.3647 1124.4 96.3105V91.2471H1126.4V90.0518H1124.4V87.7358H1122.98ZM1128.74 87.7358V90.0518H1127.3V91.2471H1128.74V96.6758C1128.74 98.3857 1129.48 99.0664 1131.33 99.0664C1131.61 99.0664 1131.88 99.0332 1132.16 98.9834V97.7798C1131.9 97.8047 1131.76 97.813 1131.5 97.813C1130.57 97.813 1130.17 97.3647 1130.17 96.3105V91.2471H1132.16V90.0518H1130.17V87.7358H1128.74ZM1137.46 99.1577C1140.01 99.1577 1141.58 97.3979 1141.58 94.5259C1141.58 91.6455 1140.01 89.894 1137.46 89.894C1134.91 89.894 1133.33 91.6455 1133.33 94.5259C1133.33 97.3979 1134.91 99.1577 1137.46 99.1577ZM1137.46 97.8711C1135.76 97.8711 1134.81 96.6426 1134.81 94.5259C1134.81 92.4009 1135.76 91.1807 1137.46 91.1807C1139.15 91.1807 1140.11 92.4009 1140.11 94.5259C1140.11 96.6426 1139.15 97.8711 1137.46 97.8711ZM1143.42 99H1144.84V93.7041C1144.84 92.1353 1145.77 91.1807 1147.19 91.1807C1148.62 91.1807 1149.3 91.9443 1149.3 93.5547V99H1150.73V93.2061C1150.73 91.0811 1149.61 89.894 1147.6 89.894C1146.23 89.894 1145.36 90.4751 1144.91 91.4629H1144.78V90.0518H1143.42V99Z" fill="#007AFF"></path> <g clip-path="url(#clip15)"> <path d="M849 178C849 169.716 855.716 163 864 163H913C921.284 163 928 169.716 928 178V178C928 186.284 921.284 193 913 193H864C855.716 193 849 186.284 849 178V178Z" fill="#007AFF"></path> <g clip-path="url(#clip16)"> <path d="M873.158 181.381H868.31V172.431H866.42V183H873.158V181.381ZM881.803 183H883.832L880.075 172.431H877.951L874.201 183H876.112L877.021 180.268H880.91L881.803 183ZM878.91 174.416H879.035L880.47 178.811H877.46L878.91 174.416ZM889.958 183C892.213 183 893.59 181.857 893.59 179.997C893.59 178.62 892.609 177.595 891.188 177.463V177.331C892.25 177.163 893.07 176.181 893.07 175.068C893.07 173.442 891.862 172.431 889.855 172.431H885.438V183H889.958ZM887.328 173.903H889.394C890.536 173.903 891.203 174.453 891.203 175.397C891.203 176.364 890.492 176.884 889.152 176.884H887.328V173.903ZM887.328 181.528V178.225H889.452C890.895 178.225 891.657 178.789 891.657 179.865C891.657 180.949 890.917 181.528 889.525 181.528H887.328ZM902.279 181.411H897.328V178.386H902.008V176.884H897.328V174.021H902.279V172.431H895.438V183H902.279V181.411ZM911.151 181.381H906.303V172.431H904.413V183H911.151V181.381Z" fill="white"></path> </g> </g> <path d="M849.919 241H851.675L848.984 233.25H847.078L844.387 241H846.014L846.61 239.12H849.333L849.919 241ZM847.932 234.823H848.028L848.99 237.906H846.959L847.932 234.823ZM852.997 233.25V241H856.047C858.368 241 859.684 239.582 859.684 237.074C859.684 234.641 858.352 233.25 856.047 233.25H852.997ZM854.619 234.587H855.79C857.197 234.587 858.029 235.5 858.029 237.101C858.029 238.76 857.224 239.663 855.79 239.663H854.619V234.587ZM861.225 233.25V241H864.276C866.596 241 867.912 239.582 867.912 237.074C867.912 234.641 866.58 233.25 864.276 233.25H861.225ZM862.847 234.587H864.018C865.425 234.587 866.258 235.5 866.258 237.101C866.258 238.76 865.452 239.663 864.018 239.663H862.847V234.587ZM874.588 239.663H871.076V237.702H874.39V236.456H871.076V234.587H874.588V233.25H869.454V241H874.588V239.663ZM876.296 233.25V241H879.347C881.667 241 882.983 239.582 882.983 237.074C882.983 234.641 881.651 233.25 879.347 233.25H876.296ZM877.918 234.587H879.089C880.497 234.587 881.329 235.5 881.329 237.101C881.329 238.76 880.523 239.663 879.089 239.663H877.918V234.587Z" fill="#007AFF"></path> <path d="M847 228.5H881V223.5H847V228.5ZM881 245.5H847V250.5H881V245.5ZM847 245.5C842.306 245.5 838.5 241.694 838.5 237H833.5C833.5 244.456 839.544 250.5 847 250.5V245.5ZM889.5 237C889.5 241.694 885.694 245.5 881 245.5V250.5C888.456 250.5 894.5 244.456 894.5 237H889.5ZM881 228.5C885.694 228.5 889.5 232.306 889.5 237H894.5C894.5 229.544 888.456 223.5 881 223.5V228.5ZM847 223.5C839.544 223.5 833.5 229.544 833.5 237H838.5C838.5 232.306 842.306 228.5 847 228.5V223.5Z" fill="#007AFF"></path> <path d="M922.017 239.729C922.639 239.729 923.137 239.223 923.137 238.634V227.967L923.038 226.398L923.685 227.27L925.096 228.756C925.279 228.963 925.544 229.08 925.827 229.08C926.341 229.08 926.798 228.689 926.798 228.142C926.798 227.859 926.69 227.652 926.491 227.453L922.888 223.983C922.606 223.692 922.315 223.593 922.017 223.593C921.726 223.593 921.436 223.692 921.153 223.983L917.542 227.453C917.352 227.652 917.244 227.859 917.244 228.142C917.244 228.689 917.692 229.08 918.207 229.08C918.489 229.08 918.754 228.963 918.945 228.756L920.348 227.27L921.004 226.398L920.904 227.967V238.634C920.904 239.223 921.402 239.729 922.017 239.729ZM915.799 248.42H928.192C930.566 248.42 931.845 247.142 931.845 244.793V234.367C931.845 232.018 930.566 230.74 928.192 230.74H925.378V233.197H927.952C928.873 233.197 929.388 233.662 929.388 234.649V244.511C929.388 245.49 928.873 245.963 927.952 245.963H916.048C915.11 245.963 914.612 245.49 914.612 244.511V234.649C914.612 233.662 915.11 233.197 916.048 233.197H918.663V230.74H915.799C913.442 230.74 912.155 232.01 912.155 234.367V244.793C912.155 247.15 913.442 248.42 915.799 248.42Z" fill="#007AFF"></path> <path d="M912.628 291.894C913.351 291.894 913.932 291.312 913.932 290.59C913.932 289.868 913.351 289.287 912.628 289.287C911.906 289.287 911.325 289.868 911.325 290.59C911.325 291.312 911.906 291.894 912.628 291.894ZM917.244 291.321H931.936C932.351 291.321 932.675 291.005 932.675 290.59C932.675 290.175 932.351 289.852 931.936 289.852H917.244C916.829 289.852 916.513 290.175 916.513 290.59C916.513 291.005 916.829 291.321 917.244 291.321ZM912.628 298.318C913.351 298.318 913.932 297.737 913.932 297.015C913.932 296.293 913.351 295.712 912.628 295.712C911.906 295.712 911.325 296.293 911.325 297.015C911.325 297.737 911.906 298.318 912.628 298.318ZM917.244 297.754H931.936C932.351 297.754 932.675 297.43 932.675 297.015C932.675 296.6 932.351 296.285 931.936 296.285H917.244C916.829 296.285 916.513 296.6 916.513 297.015C916.513 297.43 916.829 297.754 917.244 297.754ZM912.628 304.751C913.351 304.751 913.932 304.17 913.932 303.448C913.932 302.726 913.351 302.145 912.628 302.145C911.906 302.145 911.325 302.726 911.325 303.448C911.325 304.17 911.906 304.751 912.628 304.751ZM917.244 304.179H931.936C932.351 304.179 932.675 303.863 932.675 303.448C932.675 303.033 932.351 302.709 931.936 302.709H917.244C916.829 302.709 916.513 303.033 916.513 303.448C916.513 303.863 916.829 304.179 917.244 304.179Z" fill="#007AFF"></path> <path d="M900 357C900 347.059 908.059 339 918 339V339C927.941 339 936 347.059 936 357V357C936 366.941 927.941 375 918 375V375C908.059 375 900 366.941 900 357V357Z" fill="#F2F2F7"></path> <path d="M913.518 357.015C913.518 356.094 912.771 355.355 911.833 355.355C910.919 355.355 910.172 356.094 910.172 357.015C910.172 357.937 910.919 358.675 911.833 358.675C912.771 358.675 913.518 357.937 913.518 357.015ZM919.66 357.015C919.66 356.094 918.921 355.355 918 355.355C917.087 355.355 916.348 356.094 916.348 357.015C916.348 357.937 917.087 358.675 918 358.675C918.921 358.675 919.66 357.937 919.66 357.015ZM925.828 357.015C925.828 356.094 925.089 355.355 924.167 355.355C923.229 355.355 922.491 356.094 922.491 357.015C922.491 357.937 923.229 358.675 924.167 358.675C925.089 358.675 925.828 357.937 925.828 357.015Z" fill="#007AFF"></path> <rect x="900" y="399" width="36" height="36" rx="18" fill="url(#paint2_linear)"></rect> <path d="M929.994 433.498C932.578 433.498 934.729 431.354 934.729 428.77C934.729 426.186 932.572 424.041 929.988 424.041C927.41 424.041 925.266 426.186 925.266 428.77C925.266 431.354 927.416 433.498 929.994 433.498Z" fill="#34C759"></path> <path d="M929.994 434.998C933.404 434.998 936.229 432.184 936.229 428.77H933.229C933.229 430.523 931.752 431.998 929.994 431.998V434.998ZM936.229 428.77C936.229 425.352 933.396 422.541 929.988 422.541V425.541C931.749 425.541 933.229 427.019 933.229 428.77H936.229ZM929.988 422.541C926.581 422.541 923.766 425.358 923.766 428.77H926.766C926.766 427.013 928.24 425.541 929.988 425.541V422.541ZM923.766 428.77C923.766 432.183 926.589 434.998 929.994 434.998V431.998C928.243 431.998 926.766 430.524 926.766 428.77H923.766Z" fill="white"></path> <path d="M1088.07 182.983C1089.89 182.983 1091.57 182.386 1092.92 181.381L1098.23 186.702C1098.44 186.91 1098.72 187.018 1099.01 187.018C1099.64 187.018 1100.08 186.528 1100.08 185.93C1100.08 185.64 1099.98 185.374 1099.77 185.167L1094.48 179.871C1095.58 178.476 1096.23 176.725 1096.23 174.832C1096.23 170.341 1092.56 166.681 1088.07 166.681C1083.59 166.681 1079.92 170.341 1079.92 174.832C1079.92 179.323 1083.59 182.983 1088.07 182.983ZM1088.07 181.473C1084.44 181.473 1081.43 178.476 1081.43 174.832C1081.43 171.188 1084.44 168.191 1088.07 168.191C1091.72 168.191 1094.72 171.188 1094.72 174.832C1094.72 178.476 1091.72 181.473 1088.07 181.473Z" fill="#007AFF"></path> <path d="M1137.99 185.955C1138.44 185.955 1138.81 185.598 1138.81 185.167V177.837H1145.92C1146.36 177.837 1146.73 177.463 1146.73 177.023C1146.73 176.575 1146.36 176.21 1145.92 176.21H1138.81V168.872C1138.81 168.44 1138.44 168.083 1137.99 168.083C1137.55 168.083 1137.19 168.44 1137.19 168.872V176.21H1130.07C1129.63 176.21 1129.26 176.575 1129.26 177.023C1129.26 177.463 1129.63 177.837 1130.07 177.837H1137.19V185.167C1137.19 185.598 1137.55 185.955 1137.99 185.955Z" fill="#007AFF"></path> <path d="M1054 237C1054 227.059 1062.06 219 1072 219V219C1081.94 219 1090 227.059 1090 237V237C1090 246.941 1081.94 255 1072 255V255C1062.06 255 1054 246.941 1054 237V237Z" fill="#F2F2F7"></path> <path d="M1067.52 237.015C1067.52 236.094 1066.77 235.355 1065.83 235.355C1064.92 235.355 1064.17 236.094 1064.17 237.015C1064.17 237.937 1064.92 238.675 1065.83 238.675C1066.77 238.675 1067.52 237.937 1067.52 237.015ZM1073.66 237.015C1073.66 236.094 1072.92 235.355 1072 235.355C1071.09 235.355 1070.35 236.094 1070.35 237.015C1070.35 237.937 1071.09 238.675 1072 238.675C1072.92 238.675 1073.66 237.937 1073.66 237.015ZM1079.83 237.015C1079.83 236.094 1079.09 235.355 1078.17 235.355C1077.23 235.355 1076.49 236.094 1076.49 237.015C1076.49 237.937 1077.23 238.675 1078.17 238.675C1079.09 238.675 1079.83 237.937 1079.83 237.015Z" fill="#007AFF"></path> <path d="M1116 237C1116 227.059 1124.06 219 1134 219V219C1143.94 219 1152 227.059 1152 237V237C1152 246.941 1143.94 255 1134 255V255C1124.06 255 1116 246.941 1116 237V237Z" fill="#007AFF"></path> <path d="M1141.4 229.827L1141.99 229.212C1142.28 228.922 1142.28 228.515 1142 228.241L1141.81 228.042C1141.55 227.785 1141.14 227.818 1140.87 228.083L1140.27 228.681L1141.4 229.827ZM1131.84 238.459L1133.46 237.754L1140.78 230.433L1139.64 229.312L1132.33 236.633L1131.58 238.194C1131.52 238.335 1131.68 238.526 1131.84 238.459ZM1128.4 244.635H1138.14C1139.63 244.635 1140.5 243.772 1140.5 242.062V232.823L1139.16 234.16V241.996C1139.16 242.859 1138.69 243.299 1138.12 243.299H1128.41C1127.58 243.299 1127.13 242.859 1127.13 241.996V232.574C1127.13 231.711 1127.58 231.263 1128.41 231.263H1135.59L1136.93 229.926H1128.4C1126.66 229.926 1125.79 230.79 1125.79 232.5V242.062C1125.79 243.78 1126.66 244.635 1128.4 244.635Z" fill="white"></path> <path d="M1034.68 293.039C1035.26 293.039 1035.72 292.574 1035.72 292.001C1035.72 291.42 1035.26 290.956 1034.68 290.956C1034.1 290.956 1033.63 291.42 1033.63 292.001C1033.63 292.574 1034.1 293.039 1034.68 293.039ZM1038.35 292.666H1049.69C1050.06 292.666 1050.36 292.375 1050.36 292.001C1050.36 291.62 1050.06 291.329 1049.69 291.329H1038.35C1037.97 291.329 1037.68 291.62 1037.68 292.001C1037.68 292.375 1037.97 292.666 1038.35 292.666ZM1034.68 298.061C1035.26 298.061 1035.72 297.596 1035.72 297.015C1035.72 296.434 1035.26 295.969 1034.68 295.969C1034.1 295.969 1033.63 296.434 1033.63 297.015C1033.63 297.596 1034.1 298.061 1034.68 298.061ZM1038.35 297.688H1049.69C1050.06 297.688 1050.36 297.389 1050.36 297.015C1050.36 296.642 1050.06 296.351 1049.69 296.351H1038.35C1037.97 296.351 1037.68 296.642 1037.68 297.015C1037.68 297.389 1037.97 297.688 1038.35 297.688ZM1034.68 303.083C1035.26 303.083 1035.72 302.61 1035.72 302.037C1035.72 301.456 1035.26 300.991 1034.68 300.991C1034.1 300.991 1033.63 301.456 1033.63 302.037C1033.63 302.61 1034.1 303.083 1034.68 303.083ZM1038.35 302.701H1049.69C1050.06 302.701 1050.36 302.411 1050.36 302.037C1050.36 301.655 1050.06 301.365 1049.69 301.365H1038.35C1037.97 301.365 1037.68 301.655 1037.68 302.037C1037.68 302.411 1037.97 302.701 1038.35 302.701Z" fill="#007AFF"></path> <path d="M1088.07 302.983C1089.89 302.983 1091.57 302.386 1092.92 301.381L1098.23 306.702C1098.44 306.91 1098.72 307.018 1099.01 307.018C1099.64 307.018 1100.08 306.528 1100.08 305.93C1100.08 305.64 1099.98 305.374 1099.77 305.167L1094.48 299.871C1095.58 298.476 1096.23 296.725 1096.23 294.832C1096.23 290.341 1092.56 286.681 1088.07 286.681C1083.59 286.681 1079.92 290.341 1079.92 294.832C1079.92 299.323 1083.59 302.983 1088.07 302.983ZM1088.07 301.473C1084.44 301.473 1081.43 298.476 1081.43 294.832C1081.43 291.188 1084.44 288.191 1088.07 288.191C1091.72 288.191 1094.72 291.188 1094.72 294.832C1094.72 298.476 1091.72 301.473 1088.07 301.473Z" fill="#007AFF"></path> <path d="M1137.99 305.955C1138.44 305.955 1138.81 305.598 1138.81 305.167V297.837H1145.92C1146.36 297.837 1146.73 297.463 1146.73 297.023C1146.73 296.575 1146.36 296.21 1145.92 296.21H1138.81V288.872C1138.81 288.44 1138.44 288.083 1137.99 288.083C1137.55 288.083 1137.19 288.44 1137.19 288.872V296.21H1130.07C1129.63 296.21 1129.26 296.575 1129.26 297.023C1129.26 297.463 1129.63 297.837 1130.07 297.837H1137.19V305.167C1137.19 305.598 1137.55 305.955 1137.99 305.955Z" fill="#007AFF"></path> <path d="M1024 343C1024 340.791 1025.79 339 1028 339H1056C1058.21 339 1060 340.791 1060 343V371C1060 373.209 1058.21 375 1056 375H1028C1025.79 375 1024 373.209 1024 371V343Z" fill="#007AFF"></path> <path d="M1034.68 353.039C1035.26 353.039 1035.72 352.574 1035.72 352.001C1035.72 351.42 1035.26 350.956 1034.68 350.956C1034.1 350.956 1033.63 351.42 1033.63 352.001C1033.63 352.574 1034.1 353.039 1034.68 353.039ZM1038.35 352.666H1049.69C1050.06 352.666 1050.36 352.375 1050.36 352.001C1050.36 351.62 1050.06 351.329 1049.69 351.329H1038.35C1037.97 351.329 1037.68 351.62 1037.68 352.001C1037.68 352.375 1037.97 352.666 1038.35 352.666ZM1034.68 358.061C1035.26 358.061 1035.72 357.596 1035.72 357.015C1035.72 356.434 1035.26 355.969 1034.68 355.969C1034.1 355.969 1033.63 356.434 1033.63 357.015C1033.63 357.596 1034.1 358.061 1034.68 358.061ZM1038.35 357.688H1049.69C1050.06 357.688 1050.36 357.389 1050.36 357.015C1050.36 356.642 1050.06 356.351 1049.69 356.351H1038.35C1037.97 356.351 1037.68 356.642 1037.68 357.015C1037.68 357.389 1037.97 357.688 1038.35 357.688ZM1034.68 363.083C1035.26 363.083 1035.72 362.61 1035.72 362.037C1035.72 361.456 1035.26 360.991 1034.68 360.991C1034.1 360.991 1033.63 361.456 1033.63 362.037C1033.63 362.61 1034.1 363.083 1034.68 363.083ZM1038.35 362.701H1049.69C1050.06 362.701 1050.36 362.411 1050.36 362.037C1050.36 361.655 1050.06 361.365 1049.69 361.365H1038.35C1037.97 361.365 1037.68 361.655 1037.68 362.037C1037.68 362.411 1037.97 362.701 1038.35 362.701Z" fill="white"></path> <path d="M1088.07 362.983C1089.89 362.983 1091.57 362.386 1092.92 361.381L1098.23 366.702C1098.44 366.91 1098.72 367.018 1099.01 367.018C1099.64 367.018 1100.08 366.528 1100.08 365.93C1100.08 365.64 1099.98 365.374 1099.77 365.167L1094.48 359.871C1095.58 358.476 1096.23 356.725 1096.23 354.832C1096.23 350.341 1092.56 346.681 1088.07 346.681C1083.59 346.681 1079.92 350.341 1079.92 354.832C1079.92 359.323 1083.59 362.983 1088.07 362.983ZM1088.07 361.473C1084.44 361.473 1081.43 358.476 1081.43 354.832C1081.43 351.188 1084.44 348.191 1088.07 348.191C1091.72 348.191 1094.72 351.188 1094.72 354.832C1094.72 358.476 1091.72 361.473 1088.07 361.473Z" fill="#007AFF"></path> <path d="M1137.99 365.955C1138.44 365.955 1138.81 365.598 1138.81 365.167V357.837H1145.92C1146.36 357.837 1146.73 357.463 1146.73 357.023C1146.73 356.575 1146.36 356.21 1145.92 356.21H1138.81V348.872C1138.81 348.44 1138.44 348.083 1137.99 348.083C1137.55 348.083 1137.19 348.44 1137.19 348.872V356.21H1130.07C1129.63 356.21 1129.26 356.575 1129.26 357.023C1129.26 357.463 1129.63 357.837 1130.07 357.837H1137.19V365.167C1137.19 365.598 1137.55 365.955 1137.99 365.955Z" fill="#007AFF"></path> <path d="M1024.57 427.549C1030.33 427.549 1035.09 422.776 1035.09 417.015C1035.09 411.254 1030.33 406.481 1024.56 406.481C1019.18 406.481 1014.67 410.648 1014.11 415.886C1014.34 415.886 1014.56 415.903 1014.79 415.928C1015.08 415.969 1015.37 416.036 1015.64 416.11C1016.08 411.578 1019.9 408.034 1024.56 408.034C1029.54 408.034 1033.54 412.043 1033.55 417.015C1033.55 419.323 1032.69 421.423 1031.27 423.008C1029.74 421.639 1027.29 420.618 1024.56 420.618C1023.25 420.618 1021.85 420.908 1020.59 421.381C1020.66 421.78 1020.71 422.178 1020.71 422.585C1020.71 423.938 1020.28 425.208 1019.58 426.262C1021.07 427.067 1022.77 427.549 1024.57 427.549ZM1024.56 418.783C1026.62 418.783 1028.18 417.007 1028.18 414.757C1028.18 412.641 1026.58 410.823 1024.56 410.823C1022.55 410.823 1020.95 412.641 1020.95 414.757C1020.96 417.007 1022.51 418.783 1024.56 418.783ZM1014 427.956C1016.92 427.956 1019.37 425.523 1019.37 422.585C1019.37 419.646 1016.94 417.214 1014 417.214C1011.06 417.214 1008.64 419.646 1008.64 422.585C1008.64 425.54 1011.06 427.956 1014 427.956ZM1014.01 426.104C1013.66 426.104 1013.37 425.855 1013.37 425.49V423.183H1011.22C1010.89 423.183 1010.62 422.917 1010.62 422.577C1010.62 422.245 1010.89 421.979 1011.22 421.979H1013.37V419.671C1013.37 419.306 1013.66 419.065 1014.01 419.065C1014.35 419.065 1014.65 419.306 1014.65 419.671V421.979H1016.79C1017.12 421.979 1017.39 422.245 1017.39 422.577C1017.39 422.917 1017.12 423.183 1016.79 423.183H1014.65V425.49C1014.65 425.855 1014.35 426.104 1014.01 426.104Z" fill="#007AFF"></path> <path d="M1070.01 419.904C1070.4 419.904 1070.73 419.58 1070.73 419.19V407.859L1070.68 406.282L1071.54 407.187L1073.3 409.013C1073.43 409.163 1073.62 409.237 1073.79 409.237C1074.17 409.237 1074.46 408.963 1074.46 408.59C1074.46 408.399 1074.38 408.25 1074.24 408.108L1070.53 404.498C1070.35 404.315 1070.19 404.257 1070.01 404.257C1069.82 404.257 1069.66 404.315 1069.48 404.498L1065.76 408.108C1065.63 408.25 1065.54 408.399 1065.54 408.59C1065.54 408.963 1065.82 409.237 1066.21 409.237C1066.38 409.237 1066.58 409.163 1066.71 409.013L1068.46 407.187L1069.34 406.282L1069.28 407.859V419.19C1069.28 419.58 1069.61 419.904 1070.01 419.904ZM1063.84 428.205H1076.16C1078.31 428.205 1079.39 427.117 1079.39 425V414.151C1079.39 412.035 1078.31 410.956 1076.16 410.956H1073.13V412.425H1076.13C1077.26 412.425 1077.92 413.039 1077.92 414.226V424.926C1077.92 426.113 1077.26 426.727 1076.13 426.727H1063.87C1062.71 426.727 1062.08 426.113 1062.08 424.926V414.226C1062.08 413.039 1062.71 412.425 1063.87 412.425H1066.88V410.956H1063.84C1061.7 410.956 1060.61 412.026 1060.61 414.151V425C1060.61 427.125 1061.7 428.205 1063.84 428.205Z" fill="#007AFF"></path> <path d="M1106.95 423C1109.5 423 1111.01 421.747 1111.01 419.638C1111.01 418.053 1109.97 416.932 1108.34 416.725V416.592C1109.49 416.384 1110.4 415.255 1110.4 414.01C1110.4 412.176 1109.06 411.022 1106.86 411.022H1102.28V423H1106.95ZM1103.77 412.342H1106.54C1108.03 412.342 1108.89 413.047 1108.89 414.268C1108.89 415.538 1107.97 416.185 1106.16 416.185H1103.77V412.342ZM1103.77 421.68V417.472H1106.58C1108.49 417.472 1109.47 418.177 1109.47 419.563C1109.47 420.95 1108.53 421.68 1106.73 421.68H1103.77ZM1120.1 414.052H1118.67V419.348C1118.67 420.917 1117.81 421.854 1116.23 421.854C1114.8 421.854 1114.2 421.107 1114.2 419.497V414.052H1112.78V419.846C1112.78 421.962 1113.82 423.158 1115.83 423.158C1117.2 423.158 1118.15 422.593 1118.6 421.597H1118.74V423H1120.1V414.052ZM1122.98 411.736V414.052H1121.53V415.247H1122.98V420.676C1122.98 422.386 1123.71 423.066 1125.56 423.066C1125.84 423.066 1126.11 423.033 1126.4 422.983V421.78C1126.13 421.805 1125.99 421.813 1125.73 421.813C1124.8 421.813 1124.4 421.365 1124.4 420.311V415.247H1126.4V414.052H1124.4V411.736H1122.98ZM1128.74 411.736V414.052H1127.3V415.247H1128.74V420.676C1128.74 422.386 1129.48 423.066 1131.33 423.066C1131.61 423.066 1131.88 423.033 1132.16 422.983V421.78C1131.9 421.805 1131.76 421.813 1131.5 421.813C1130.57 421.813 1130.17 421.365 1130.17 420.311V415.247H1132.16V414.052H1130.17V411.736H1128.74ZM1137.46 423.158C1140.01 423.158 1141.58 421.398 1141.58 418.526C1141.58 415.646 1140.01 413.894 1137.46 413.894C1134.91 413.894 1133.33 415.646 1133.33 418.526C1133.33 421.398 1134.91 423.158 1137.46 423.158ZM1137.46 421.871C1135.76 421.871 1134.81 420.643 1134.81 418.526C1134.81 416.401 1135.76 415.181 1137.46 415.181C1139.15 415.181 1140.11 416.401 1140.11 418.526C1140.11 420.643 1139.15 421.871 1137.46 421.871ZM1143.42 423H1144.84V417.704C1144.84 416.135 1145.77 415.181 1147.19 415.181C1148.62 415.181 1149.3 415.944 1149.3 417.555V423H1150.73V417.206C1150.73 415.081 1149.61 413.894 1147.6 413.894C1146.23 413.894 1145.36 414.475 1144.91 415.463H1144.78V414.052H1143.42V423Z" fill="#007AFF"></path> <path d="M1106.95 483C1109.5 483 1111.01 481.747 1111.01 479.638C1111.01 478.053 1109.97 476.932 1108.34 476.725V476.592C1109.49 476.384 1110.4 475.255 1110.4 474.01C1110.4 472.176 1109.06 471.022 1106.86 471.022H1102.28V483H1106.95ZM1103.77 472.342H1106.54C1108.03 472.342 1108.89 473.047 1108.89 474.268C1108.89 475.538 1107.97 476.185 1106.16 476.185H1103.77V472.342ZM1103.77 481.68V477.472H1106.58C1108.49 477.472 1109.47 478.177 1109.47 479.563C1109.47 480.95 1108.53 481.68 1106.73 481.68H1103.77ZM1120.1 474.052H1118.67V479.348C1118.67 480.917 1117.81 481.854 1116.23 481.854C1114.8 481.854 1114.2 481.107 1114.2 479.497V474.052H1112.78V479.846C1112.78 481.962 1113.82 483.158 1115.83 483.158C1117.2 483.158 1118.15 482.593 1118.6 481.597H1118.74V483H1120.1V474.052ZM1122.98 471.736V474.052H1121.53V475.247H1122.98V480.676C1122.98 482.386 1123.71 483.066 1125.56 483.066C1125.84 483.066 1126.11 483.033 1126.4 482.983V481.78C1126.13 481.805 1125.99 481.813 1125.73 481.813C1124.8 481.813 1124.4 481.365 1124.4 480.311V475.247H1126.4V474.052H1124.4V471.736H1122.98ZM1128.74 471.736V474.052H1127.3V475.247H1128.74V480.676C1128.74 482.386 1129.48 483.066 1131.33 483.066C1131.61 483.066 1131.88 483.033 1132.16 482.983V481.78C1131.9 481.805 1131.76 481.813 1131.5 481.813C1130.57 481.813 1130.17 481.365 1130.17 480.311V475.247H1132.16V474.052H1130.17V471.736H1128.74ZM1137.46 483.158C1140.01 483.158 1141.58 481.398 1141.58 478.526C1141.58 475.646 1140.01 473.894 1137.46 473.894C1134.91 473.894 1133.33 475.646 1133.33 478.526C1133.33 481.398 1134.91 483.158 1137.46 483.158ZM1137.46 481.871C1135.76 481.871 1134.81 480.643 1134.81 478.526C1134.81 476.401 1135.76 475.181 1137.46 475.181C1139.15 475.181 1140.11 476.401 1140.11 478.526C1140.11 480.643 1139.15 481.871 1137.46 481.871ZM1143.42 483H1144.84V477.704C1144.84 476.135 1145.77 475.181 1147.19 475.181C1148.62 475.181 1149.3 475.944 1149.3 477.555V483H1150.73V477.206C1150.73 475.081 1149.61 473.894 1147.6 473.894C1146.23 473.894 1145.36 474.475 1144.91 475.463H1144.78V474.052H1143.42V483Z" fill="#007AFF"></path> <path d="M0 518.25L367 518.25" stroke="#8E8E93" stroke-width="0.5"></path> <path d="M366.75 518L366.75 515" stroke="#8E8E93" stroke-width="0.5"></path> <path d="M0.25 518L0.25 515" stroke="#8E8E93" stroke-width="0.5"></path> <path d="M183 519L183 561.439L460 561.439L460 599" stroke="#8E8E93" stroke-width="0.5"></path> <path d="M459.5 603L463 596H456L459.5 603Z" fill="#8E8E93"></path> <path d="M1188.5 526.25L821.5 526.25" stroke="#8E8E93" stroke-width="0.5"></path> <path d="M821.75 526L821.75 523" stroke="#8E8E93" stroke-width="0.5"></path> <path d="M1188.25 526L1188.25 523" stroke="#8E8E93" stroke-width="0.5"></path> <path d="M1003.5 526L1003.5 563.665L771.5 563.665L771.5 597" stroke="#8E8E93" stroke-width="0.5"></path> <path d="M771.5 603L768 596H775L771.5 603Z" fill="#8E8E93"></path> <path d="M409 412.25L781 412.25" stroke="#8E8E93" stroke-width="0.5"></path> <path d="M780.75 412L780.75 409" stroke="#8E8E93" stroke-width="0.5"></path> <path d="M409.25 412L409.25 409" stroke="#8E8E93" stroke-width="0.5"></path> <path d="M595.5 598L595.5 412.5" stroke="#8E8E93" stroke-width="0.5"></path> <path d="M595.5 603L599 596H592L595.5 603Z" fill="#8E8E93"></path> <rect x="389" y="603" width="446" height="76" rx="10" fill="#F2F2F7"></rect> <g filter="url(#filter3_dd)"> <path d="M405 623C405 620.791 406.791 619 409 619H815C817.209 619 819 620.791 819 623V659C819 661.209 817.209 663 815 663H409C406.791 663 405 661.209 405 659V623Z" fill="white"></path> <path d="M542.918 647.001H545.217L540.959 635.023H538.552L534.302 647.001H536.468L537.497 643.905H541.905L542.918 647.001ZM539.639 637.272H539.78L541.407 642.253H537.996L539.639 637.272ZM551.599 637.779C550.354 637.779 549.3 638.401 548.777 639.431H548.636V637.928H546.652V650.014H548.711V645.623H548.852C549.317 646.586 550.321 647.15 551.624 647.15C553.915 647.15 555.343 645.349 555.343 642.469C555.343 639.563 553.899 637.779 551.599 637.779ZM550.952 645.44C549.549 645.44 548.677 644.303 548.669 642.469C548.677 640.634 549.557 639.497 550.96 639.497C552.371 639.497 553.226 640.609 553.226 642.469C553.226 644.328 552.38 645.44 550.952 645.44ZM561.949 637.779C560.704 637.779 559.65 638.401 559.127 639.431H558.986V637.928H557.002V650.014H559.06V645.623H559.202C559.666 646.586 560.671 647.15 561.974 647.15C564.265 647.15 565.693 645.349 565.693 642.469C565.693 639.563 564.248 637.779 561.949 637.779ZM561.302 645.44C559.899 645.44 559.027 644.303 559.019 642.469C559.027 640.634 559.907 639.497 561.31 639.497C562.721 639.497 563.576 640.609 563.576 642.469C563.576 644.328 562.729 645.44 561.302 645.44ZM572.398 647.15C574.69 647.15 576.126 645.349 576.126 642.469C576.126 639.572 574.698 637.779 572.398 637.779C571.153 637.779 570.107 638.385 569.634 639.373H569.493V634.417H567.435V647.001H569.419V645.565H569.56C570.074 646.561 571.128 647.15 572.398 647.15ZM571.751 639.497C573.154 639.497 574.009 640.618 574.009 642.469C574.009 644.32 573.162 645.44 571.751 645.44C570.34 645.44 569.46 644.303 569.46 642.469C569.46 640.634 570.348 639.497 571.751 639.497ZM580.283 647.15C581.47 647.15 582.466 646.636 582.972 645.756H583.114V647.001H585.097V640.8C585.097 638.883 583.786 637.754 581.453 637.754C579.295 637.754 577.793 638.767 577.627 640.352H579.569C579.76 639.729 580.407 639.389 581.354 639.389C582.466 639.389 583.064 639.896 583.064 640.8V641.581L580.723 641.722C578.515 641.846 577.278 642.801 577.278 644.428C577.278 646.088 578.532 647.15 580.283 647.15ZM580.889 645.565C579.976 645.565 579.32 645.108 579.32 644.328C579.32 643.573 579.86 643.149 581.013 643.075L583.064 642.934V643.672C583.064 644.751 582.134 645.565 580.889 645.565ZM587.171 647.001H589.23V641.73C589.23 640.452 590.16 639.622 591.496 639.622C591.845 639.622 592.393 639.68 592.55 639.738V637.862C592.359 637.812 591.994 637.779 591.695 637.779C590.525 637.779 589.545 638.443 589.296 639.339H589.155V637.928H587.171V647.001ZM603.173 647.3C605.937 647.3 607.962 645.665 608.245 643.241H606.136C605.846 644.585 604.692 645.44 603.173 645.44C601.131 645.44 599.861 643.739 599.861 641.008C599.861 638.285 601.131 636.583 603.164 636.583C604.675 636.583 605.829 637.521 606.128 638.966H608.236C607.987 636.484 605.887 634.724 603.164 634.724C599.769 634.724 597.669 637.123 597.669 641.016C597.669 644.893 599.778 647.3 603.173 647.3ZM613.921 647.184C616.635 647.184 618.287 645.407 618.287 642.46C618.287 639.53 616.627 637.754 613.921 637.754C611.223 637.754 609.555 639.539 609.555 642.46C609.555 645.407 611.198 647.184 613.921 647.184ZM613.921 645.499C612.485 645.499 611.663 644.386 611.663 642.469C611.663 640.551 612.485 639.439 613.921 639.439C615.349 639.439 616.171 640.551 616.171 642.469C616.171 644.386 615.357 645.499 613.921 645.499ZM619.954 647.001H622.013V641.481C622.013 640.352 622.768 639.497 623.789 639.497C624.802 639.497 625.433 640.111 625.433 641.116V647.001H627.433V641.332C627.433 640.294 628.139 639.497 629.21 639.497C630.314 639.497 630.87 640.086 630.87 641.265V647.001H632.92V640.759C632.92 638.875 631.825 637.754 630.007 637.754C628.745 637.754 627.699 638.401 627.251 639.389H627.11C626.728 638.385 625.856 637.754 624.603 637.754C623.399 637.754 622.47 638.368 622.079 639.389H621.938V637.928H619.954V647.001ZM639.9 637.779C638.655 637.779 637.601 638.401 637.078 639.431H636.937V637.928H634.953V650.014H637.011V645.623H637.152C637.617 646.586 638.622 647.15 639.925 647.15C642.216 647.15 643.644 645.349 643.644 642.469C643.644 639.563 642.199 637.779 639.9 637.779ZM639.252 645.44C637.85 645.44 636.978 644.303 636.97 642.469C636.978 640.634 637.858 639.497 639.261 639.497C640.672 639.497 641.527 640.609 641.527 642.469C641.527 644.328 640.68 645.44 639.252 645.44ZM649.22 647.184C651.935 647.184 653.587 645.407 653.587 642.46C653.587 639.53 651.926 637.754 649.22 637.754C646.523 637.754 644.854 639.539 644.854 642.46C644.854 645.407 646.498 647.184 649.22 647.184ZM649.22 645.499C647.784 645.499 646.963 644.386 646.963 642.469C646.963 640.551 647.784 639.439 649.22 639.439C650.648 639.439 651.47 640.551 651.47 642.469C651.47 644.386 650.656 645.499 649.22 645.499ZM655.254 647.001H657.312V641.713C657.312 640.352 658.084 639.497 659.313 639.497C660.566 639.497 661.147 640.203 661.147 641.614V647.001H663.206V641.132C663.206 638.974 662.102 637.754 660.077 637.754C658.724 637.754 657.81 638.368 657.379 639.381H657.238V637.928H655.254V647.001ZM671.157 644.519C670.858 645.2 670.152 645.582 669.131 645.582C667.778 645.582 666.907 644.619 666.857 643.083V642.975H673.199V642.319C673.199 639.472 671.647 637.754 669.057 637.754C666.425 637.754 664.79 639.588 664.79 642.502C664.79 645.407 666.401 647.184 669.073 647.184C671.215 647.184 672.734 646.154 673.108 644.519H671.157ZM669.048 639.356C670.285 639.356 671.099 640.228 671.14 641.605H666.865C666.957 640.244 667.82 639.356 669.048 639.356ZM674.858 647.001H676.916V641.713C676.916 640.352 677.688 639.497 678.917 639.497C680.17 639.497 680.751 640.203 680.751 641.614V647.001H682.81V641.132C682.81 638.974 681.706 637.754 679.681 637.754C678.327 637.754 677.414 638.368 676.983 639.381H676.842V637.928H674.858V647.001ZM685.498 635.704V637.986H684.062V639.588H685.498V644.594C685.498 646.345 686.328 647.042 688.412 647.042C688.81 647.042 689.192 647.009 689.491 646.951V645.374C689.242 645.399 689.084 645.416 688.794 645.416C687.93 645.416 687.548 645.009 687.548 644.104V639.588H689.491V637.986H687.548V635.704H685.498Z" fill="black"></path> <path d="M427.702 651.414C427.971 651.674 428.295 651.822 428.685 651.822C429.474 651.822 430.095 651.201 430.095 650.421C430.095 650.032 429.938 649.679 429.659 649.401L421.254 641.292L429.659 633.193C429.938 632.915 430.095 632.553 430.095 632.173C430.095 631.394 429.474 630.772 428.685 630.772C428.295 630.772 427.98 630.911 427.702 631.18L418.406 640.17C418.072 640.495 417.896 640.866 417.896 641.302C417.896 641.729 418.062 642.081 418.406 642.424L427.702 651.414Z" fill="#007AFF"></path> <path d="M441.201 647C443.749 647 445.26 645.747 445.26 643.638C445.26 642.053 444.222 640.932 442.587 640.725V640.592C443.741 640.384 444.654 639.255 444.654 638.01C444.654 636.176 443.309 635.022 441.109 635.022H436.527V647H441.201ZM438.021 636.342H440.794C442.28 636.342 443.143 637.047 443.143 638.268C443.143 639.538 442.222 640.185 440.412 640.185H438.021V636.342ZM438.021 645.68V641.472H440.835C442.745 641.472 443.724 642.177 443.724 643.563C443.724 644.95 442.778 645.68 440.977 645.68H438.021ZM454.348 638.052H452.92V643.348C452.92 644.917 452.057 645.854 450.48 645.854C449.052 645.854 448.454 645.107 448.454 643.497V638.052H447.027V643.846C447.027 645.962 448.072 647.158 450.081 647.158C451.451 647.158 452.405 646.593 452.854 645.597H452.987V647H454.348V638.052ZM457.227 635.736V638.052H455.783V639.247H457.227V644.676C457.227 646.386 457.966 647.066 459.809 647.066C460.091 647.066 460.365 647.033 460.647 646.983V645.78C460.381 645.805 460.24 645.813 459.983 645.813C459.053 645.813 458.655 645.365 458.655 644.311V639.247H460.647V638.052H458.655V635.736H457.227ZM462.995 635.736V638.052H461.55V639.247H462.995V644.676C462.995 646.386 463.734 647.066 465.576 647.066C465.859 647.066 466.132 647.033 466.415 646.983V645.78C466.149 645.805 466.008 645.813 465.751 645.813C464.821 645.813 464.422 645.365 464.422 644.311V639.247H466.415V638.052H464.422V635.736H462.995ZM471.709 647.158C474.258 647.158 475.835 645.398 475.835 642.526C475.835 639.646 474.258 637.894 471.709 637.894C469.161 637.894 467.584 639.646 467.584 642.526C467.584 645.398 469.161 647.158 471.709 647.158ZM471.709 645.871C470.016 645.871 469.061 644.643 469.061 642.526C469.061 640.401 470.016 639.181 471.709 639.181C473.403 639.181 474.357 640.401 474.357 642.526C474.357 644.643 473.403 645.871 471.709 645.871ZM477.668 647H479.096V641.704C479.096 640.135 480.017 639.181 481.445 639.181C482.873 639.181 483.553 639.944 483.553 641.555V647H484.981V641.206C484.981 639.081 483.86 637.894 481.852 637.894C480.482 637.894 479.61 638.475 479.162 639.463H479.029V638.052H477.668V647Z" fill="#007AFF"></path> <path d="M753.95 647C756.498 647 758.009 645.747 758.009 643.638C758.009 642.053 756.971 640.932 755.336 640.725V640.592C756.49 640.384 757.403 639.255 757.403 638.01C757.403 636.176 756.058 635.022 753.858 635.022H749.276V647H753.95ZM750.77 636.342H753.543C755.029 636.342 755.892 637.047 755.892 638.268C755.892 639.538 754.971 640.185 753.161 640.185H750.77V636.342ZM750.77 645.68V641.472H753.584C755.494 641.472 756.473 642.177 756.473 643.563C756.473 644.95 755.527 645.68 753.726 645.68H750.77ZM767.097 638.052H765.669V643.348C765.669 644.917 764.806 645.854 763.229 645.854C761.801 645.854 761.203 645.107 761.203 643.497V638.052H759.776V643.846C759.776 645.962 760.821 647.158 762.83 647.158C764.2 647.158 765.154 646.593 765.603 645.597H765.736V647H767.097V638.052ZM769.976 635.736V638.052H768.532V639.247H769.976V644.676C769.976 646.386 770.715 647.066 772.557 647.066C772.84 647.066 773.114 647.033 773.396 646.983V645.78C773.13 645.805 772.989 645.813 772.732 645.813C771.802 645.813 771.404 645.365 771.404 644.311V639.247H773.396V638.052H771.404V635.736H769.976ZM775.744 635.736V638.052H774.299V639.247H775.744V644.676C775.744 646.386 776.483 647.066 778.325 647.066C778.608 647.066 778.881 647.033 779.164 646.983V645.78C778.898 645.805 778.757 645.813 778.5 645.813C777.57 645.813 777.171 645.365 777.171 644.311V639.247H779.164V638.052H777.171V635.736H775.744ZM784.458 647.158C787.007 647.158 788.584 645.398 788.584 642.526C788.584 639.646 787.007 637.894 784.458 637.894C781.91 637.894 780.333 639.646 780.333 642.526C780.333 645.398 781.91 647.158 784.458 647.158ZM784.458 645.871C782.765 645.871 781.81 644.643 781.81 642.526C781.81 640.401 782.765 639.181 784.458 639.181C786.152 639.181 787.106 640.401 787.106 642.526C787.106 644.643 786.152 645.871 784.458 645.871ZM790.417 647H791.845V641.704C791.845 640.135 792.766 639.181 794.194 639.181C795.622 639.181 796.302 639.944 796.302 641.555V647H797.73V641.206C797.73 639.081 796.609 637.894 794.601 637.894C793.231 637.894 792.359 638.475 791.911 639.463H791.778V638.052H790.417V647Z" fill="#007AFF"></path> </g> <defs> <filter id="filter0_dd" x="548" y="74" width="75" height="44" filterUnits="userSpaceOnUse" color-interpolation-filters="sRGB"> <feFlood flood-opacity="0" result="BackgroundImageFix"></feFlood> <feColorMatrix in="SourceAlpha" type="matrix" values="0 0 0 0 0 0 0 0 0 0 0 0 0 0 0 0 0 0 127 0"></feColorMatrix> <feOffset dy="3"></feOffset> <feGaussianBlur stdDeviation="4"></feGaussianBlur> <feColorMatrix type="matrix" values="0 0 0 0 0 0 0 0 0 0 0 0 0 0 0 0 0 0 0.15 0"></feColorMatrix> <feBlend mode="normal" in2="BackgroundImageFix" result="effect1_dropShadow"></feBlend> <feColorMatrix in="SourceAlpha" type="matrix" values="0 0 0 0 0 0 0 0 0 0 0 0 0 0 0 0 0 0 127 0"></feColorMatrix> <feOffset dy="1"></feOffset> <feGaussianBlur stdDeviation="0.5"></feGaussianBlur> <feColorMatrix type="matrix" values="0 0 0 0 0 0 0 0 0 0 0 0 0 0 0 0 0 0 0.06 0"></feColorMatrix> <feBlend mode="normal" in2="effect1_dropShadow" result="effect2_dropShadow"></feBlend> <feBlend mode="normal" in="SourceGraphic" in2="effect2_dropShadow" result="shape"></feBlend> </filter> <filter id="filter1_dd" x="524" y="278" width="75" height="44" filterUnits="userSpaceOnUse" color-interpolation-filters="sRGB"> <feFlood flood-opacity="0" result="BackgroundImageFix"></feFlood> <feColorMatrix in="SourceAlpha" type="matrix" values="0 0 0 0 0 0 0 0 0 0 0 0 0 0 0 0 0 0 127 0"></feColorMatrix> <feOffset dy="3"></feOffset> <feGaussianBlur stdDeviation="4"></feGaussianBlur> <feColorMatrix type="matrix" values="0 0 0 0 0 0 0 0 0 0 0 0 0 0 0 0 0 0 0.15 0"></feColorMatrix> <feBlend mode="normal" in2="BackgroundImageFix" result="effect1_dropShadow"></feBlend> <feColorMatrix in="SourceAlpha" type="matrix" values="0 0 0 0 0 0 0 0 0 0 0 0 0 0 0 0 0 0 127 0"></feColorMatrix> <feOffset dy="1"></feOffset> <feGaussianBlur stdDeviation="0.5"></feGaussianBlur> <feColorMatrix type="matrix" values="0 0 0 0 0 0 0 0 0 0 0 0 0 0 0 0 0 0 0.06 0"></feColorMatrix> <feBlend mode="normal" in2="effect1_dropShadow" result="effect2_dropShadow"></feBlend> <feBlend mode="normal" in="SourceGraphic" in2="effect2_dropShadow" result="shape"></feBlend> </filter> <filter id="filter2_dd" x="583" y="338" width="81" height="44" filterUnits="userSpaceOnUse" color-interpolation-filters="sRGB"> <feFlood flood-opacity="0" result="BackgroundImageFix"></feFlood> <feColorMatrix in="SourceAlpha" type="matrix" values="0 0 0 0 0 0 0 0 0 0 0 0 0 0 0 0 0 0 127 0"></feColorMatrix> <feOffset dy="3"></feOffset> <feGaussianBlur stdDeviation="4"></feGaussianBlur> <feColorMatrix type="matrix" values="0 0 0 0 0 0 0 0 0 0 0 0 0 0 0 0 0 0 0.15 0"></feColorMatrix> <feBlend mode="normal" in2="BackgroundImageFix" result="effect1_dropShadow"></feBlend> <feColorMatrix in="SourceAlpha" type="matrix" values="0 0 0 0 0 0 0 0 0 0 0 0 0 0 0 0 0 0 127 0"></feColorMatrix> <feOffset dy="1"></feOffset> <feGaussianBlur stdDeviation="0.5"></feGaussianBlur> <feColorMatrix type="matrix" values="0 0 0 0 0 0 0 0 0 0 0 0 0 0 0 0 0 0 0.06 0"></feColorMatrix> <feBlend mode="normal" in2="effect1_dropShadow" result="effect2_dropShadow"></feBlend> <feBlend mode="normal" in="SourceGraphic" in2="effect2_dropShadow" result="shape"></feBlend> </filter> <filter id="filter3_dd" x="397" y="614" width="430" height="60" filterUnits="userSpaceOnUse" color-interpolation-filters="sRGB"> <feFlood flood-opacity="0" result="BackgroundImageFix"></feFlood> <feColorMatrix in="SourceAlpha" type="matrix" values="0 0 0 0 0 0 0 0 0 0 0 0 0 0 0 0 0 0 127 0"></feColorMatrix> <feOffset dy="3"></feOffset> <feGaussianBlur stdDeviation="4"></feGaussianBlur> <feColorMatrix type="matrix" values="0 0 0 0 0 0 0 0 0 0 0 0 0 0 0 0 0 0 0.15 0"></feColorMatrix> <feBlend mode="normal" in2="BackgroundImageFix" result="effect1_dropShadow"></feBlend> <feColorMatrix in="SourceAlpha" type="matrix" values="0 0 0 0 0 0 0 0 0 0 0 0 0 0 0 0 0 0 127 0"></feColorMatrix> <feOffset dy="1"></feOffset> <feGaussianBlur stdDeviation="0.5"></feGaussianBlur> <feColorMatrix type="matrix" values="0 0 0 0 0 0 0 0 0 0 0 0 0 0 0 0 0 0 0.06 0"></feColorMatrix> <feBlend mode="normal" in2="effect1_dropShadow" result="effect2_dropShadow"></feBlend> <feBlend mode="normal" in="SourceGraphic" in2="effect2_dropShadow" result="shape"></feBlend> </filter> <linearGradient id="paint0_linear" x1="526" y1="113" x2="526" y2="73" gradientUnits="userSpaceOnUse"> <stop stop-color="#898C90"></stop> <stop offset="1" stop-color="#DBDDDE"></stop> </linearGradient> <linearGradient id="paint1_linear" x1="594" y1="197" x2="594" y2="157" gradientUnits="userSpaceOnUse"> <stop stop-color="#898C90"></stop> <stop offset="1" stop-color="#DBDDDE"></stop> </linearGradient> <linearGradient id="paint2_linear" x1="918" y1="435" x2="918" y2="399" gradientUnits="userSpaceOnUse"> <stop stop-color="#898C90"></stop> <stop offset="1" stop-color="#DBDDDE"></stop> </linearGradient> <clipPath id="clip0"> <path d="M554 85C554 80.5817 557.582 77 562 77H674C678.418 77 682 80.5817 682 85V101C682 105.418 678.418 109 674 109H562C557.582 109 554 105.418 554 101V85Z" fill="white"></path> </clipPath> <clipPath id="clip1"> <rect x="556" y="79" width="59" height="28" fill="white"></rect> </clipPath> <clipPath id="clip2"> <rect x="615" y="79" width="65" height="28" fill="white"></rect> </clipPath> <clipPath id="clip3"> <path d="M574 155H614V199H574V155Z" fill="white"></path> </clipPath> <clipPath id="clip4"> <path d="M554 215H634V259H554V215Z" fill="white"></path> </clipPath> <clipPath id="clip5"> <path d="M530 275H658V319H530V275Z" fill="white"></path> </clipPath> <clipPath id="clip6"> <path d="M530 289C530 284.582 533.582 281 538 281H650C654.418 281 658 284.582 658 289V305C658 309.418 654.418 313 650 313H538C533.582 313 530 309.418 530 305V289Z" fill="white"></path> </clipPath> <clipPath id="clip7"> <rect x="532" y="283" width="59" height="28" fill="white"></rect> </clipPath> <clipPath id="clip8"> <rect x="591" y="283" width="65" height="28" fill="white"></rect> </clipPath> <clipPath id="clip9"> <path d="M530 335H658V379H530V335Z" fill="white"></path> </clipPath> <clipPath id="clip10"> <path d="M530 349C530 344.582 533.582 341 538 341H650C654.418 341 658 344.582 658 349V365C658 369.418 654.418 373 650 373H538C533.582 373 530 369.418 530 365V349Z" fill="white"></path> </clipPath> <clipPath id="clip11"> <rect x="532" y="343" width="59" height="28" fill="white"></rect> </clipPath> <clipPath id="clip12"> <rect x="591" y="343" width="65" height="28" fill="white"></rect> </clipPath> <clipPath id="clip13"> <path d="M865 93C865 85.268 871.268 79 879 79H930C937.732 79 944 85.268 944 93V93C944 100.732 937.732 107 930 107H879C871.268 107 865 100.732 865 93V93Z" fill="white"></path> </clipPath> <clipPath id="clip14"> <rect x="881" y="83" width="47" height="20" fill="white"></rect> </clipPath> <clipPath id="clip15"> <path d="M849 178C849 169.716 855.716 163 864 163H913C921.284 163 928 169.716 928 178V178C928 186.284 921.284 193 913 193H864C855.716 193 849 186.284 849 178V178Z" fill="white"></path> </clipPath> <clipPath id="clip16"> <rect x="865" y="167" width="47" height="22" fill="white"></rect> </clipPath> </defs> </svg> 