<?xml version="1.0" encoding="UTF-8"?> <svg xmlns="http://www.w3.org/2000/svg" width="752" height="568" viewBox="0 0 752 568" fill="none"> <g clip-path="url(#clip0_11_203606)"> <rect width="752" height="568" rx="20" fill="url(#paint0_linear_11_203606)"></rect> <g filter="url(#filter0_dd_11_203606)"> <path d="M56 48C56 39.1634 63.1634 32 72 32H680C688.837 32 696 39.1634 696 48V560H56V48Z" fill="white"></path> <g filter="url(#filter1_dd_11_203606)"> <path d="M57 49C57 40.1634 64.1634 33 73 33H679C687.837 33 695 40.1634 695 49V154H57V49Z" fill="white"></path> </g> <g opacity="0.5" filter="url(#filter2_ii_11_203606)"> <rect x="272" y="49" width="208" height="40" rx="8" fill="#E0E0E0"></rect> </g> <path fill-rule="evenodd" clip-rule="evenodd" d="M300.869 72.4575C303.313 69.319 303.092 64.7783 300.207 61.8931C297.082 58.769 292.017 58.769 288.893 61.8931C285.769 65.0173 285.769 70.0827 288.893 73.2069C291.778 76.092 296.319 76.3128 299.457 73.869C299.471 73.8843 299.485 73.8993 299.5 73.914L303.742 78.1566C304.133 78.5471 304.766 78.5471 305.156 78.1566C305.547 77.7661 305.547 77.1329 305.156 76.7424L300.914 72.4998C300.899 72.4851 300.884 72.471 300.869 72.4575ZM298.792 63.3074C301.136 65.6505 301.136 69.4495 298.792 71.7926C296.449 74.1358 292.65 74.1358 290.307 71.7926C287.964 69.4495 287.964 65.6505 290.307 63.3074C292.65 60.9642 296.449 60.9642 298.792 63.3074Z" fill="#818181"></path> <path d="M325.12 75.24C324.315 75.24 323.589 75.1067 322.944 74.84C322.304 74.568 321.773 74.184 321.352 73.688C320.936 73.192 320.664 72.6027 320.536 71.92L321.736 71.72C321.928 72.4667 322.333 73.0533 322.952 73.48C323.571 73.9013 324.309 74.112 325.168 74.112C325.733 74.112 326.24 74.024 326.688 73.848C327.136 73.6667 327.488 73.4107 327.744 73.08C328 72.7493 328.128 72.3573 328.128 71.904C328.128 71.6053 328.075 71.352 327.968 71.144C327.861 70.9307 327.72 70.7547 327.544 70.616C327.368 70.4773 327.176 70.3627 326.968 70.272C326.76 70.176 326.557 70.0987 326.36 70.04L323.44 69.168C323.088 69.0667 322.763 68.9387 322.464 68.784C322.165 68.624 321.904 68.4347 321.68 68.216C321.461 67.992 321.291 67.7307 321.168 67.432C321.045 67.1333 320.984 66.792 320.984 66.408C320.984 65.7573 321.155 65.1947 321.496 64.72C321.837 64.2453 322.304 63.88 322.896 63.624C323.488 63.368 324.163 63.2427 324.92 63.248C325.688 63.248 326.373 63.384 326.976 63.656C327.584 63.928 328.085 64.3173 328.48 64.824C328.875 65.3253 329.136 65.92 329.264 66.608L328.032 66.832C327.952 66.3307 327.768 65.896 327.48 65.528C327.192 65.16 326.824 64.8773 326.376 64.68C325.933 64.4773 325.445 64.3733 324.912 64.368C324.395 64.368 323.933 64.456 323.528 64.632C323.128 64.8027 322.811 65.0373 322.576 65.336C322.341 65.6347 322.224 65.976 322.224 66.36C322.224 66.7493 322.331 67.0613 322.544 67.296C322.763 67.5307 323.029 67.7147 323.344 67.848C323.664 67.9813 323.973 68.0907 324.272 68.176L326.528 68.84C326.763 68.904 327.037 68.9973 327.352 69.12C327.672 69.2373 327.981 69.408 328.28 69.632C328.584 69.8507 328.835 70.1387 329.032 70.496C329.229 70.8533 329.328 71.3067 329.328 71.856C329.328 72.3893 329.221 72.8667 329.008 73.288C328.8 73.7093 328.504 74.064 328.12 74.352C327.741 74.64 327.296 74.8587 326.784 75.008C326.277 75.1627 325.723 75.24 325.12 75.24ZM334.904 75.24C334.062 75.24 333.331 75.0533 332.712 74.68C332.099 74.3067 331.622 73.7813 331.28 73.104C330.939 72.4267 330.768 71.632 330.768 70.72C330.768 69.776 330.936 68.96 331.272 68.272C331.608 67.584 332.08 67.0533 332.688 66.68C333.302 66.3067 334.024 66.12 334.856 66.12C335.71 66.12 336.438 66.3173 337.04 66.712C337.643 67.1013 338.099 67.6613 338.408 68.392C338.718 69.1227 338.859 69.9947 338.832 71.008H337.632V70.592C337.611 69.472 337.368 68.6267 336.904 68.056C336.446 67.4853 335.774 67.2 334.888 67.2C333.96 67.2 333.248 67.5013 332.752 68.104C332.262 68.7067 332.016 69.5653 332.016 70.68C332.016 71.768 332.262 72.6133 332.752 73.216C333.248 73.8133 333.95 74.112 334.856 74.112C335.475 74.112 336.014 73.9707 336.472 73.688C336.936 73.4 337.302 72.9867 337.568 72.448L338.664 72.872C338.323 73.624 337.819 74.208 337.152 74.624C336.491 75.0347 335.742 75.24 334.904 75.24ZM331.6 71.008V70.024H338.2V71.008H331.6ZM343.192 75.24C342.541 75.24 341.995 75.1227 341.552 74.888C341.115 74.6533 340.787 74.3413 340.568 73.952C340.349 73.5627 340.24 73.1387 340.24 72.68C340.24 72.2107 340.333 71.8107 340.52 71.48C340.712 71.144 340.971 70.8693 341.296 70.656C341.627 70.4427 342.008 70.28 342.44 70.168C342.877 70.0613 343.36 69.968 343.888 69.888C344.421 69.8027 344.941 69.7307 345.448 69.672C345.96 69.608 346.408 69.5467 346.792 69.488L346.376 69.744C346.392 68.8907 346.227 68.2587 345.88 67.848C345.533 67.4373 344.931 67.232 344.072 67.232C343.48 67.232 342.979 67.3653 342.568 67.632C342.163 67.8987 341.877 68.32 341.712 68.896L340.568 68.56C340.765 67.7867 341.163 67.1867 341.76 66.76C342.357 66.3333 343.133 66.12 344.088 66.12C344.877 66.12 345.547 66.2693 346.096 66.568C346.651 66.8613 347.043 67.288 347.272 67.848C347.379 68.0987 347.448 68.3787 347.48 68.688C347.512 68.9973 347.528 69.312 347.528 69.632V75H346.48V72.832L346.784 72.96C346.491 73.7013 346.035 74.2667 345.416 74.656C344.797 75.0453 344.056 75.24 343.192 75.24ZM343.328 74.224C343.877 74.224 344.357 74.1253 344.768 73.928C345.179 73.7307 345.509 73.4613 345.76 73.12C346.011 72.7733 346.173 72.384 346.248 71.952C346.312 71.6747 346.347 71.3707 346.352 71.04C346.357 70.704 346.36 70.4533 346.36 70.288L346.808 70.52C346.408 70.5733 345.973 70.6267 345.504 70.68C345.04 70.7333 344.581 70.7947 344.128 70.864C343.68 70.9333 343.275 71.016 342.912 71.112C342.667 71.1813 342.429 71.28 342.2 71.408C341.971 71.5307 341.781 71.696 341.632 71.904C341.488 72.112 341.416 72.3707 341.416 72.68C341.416 72.9307 341.477 73.1733 341.6 73.408C341.728 73.6427 341.931 73.8373 342.208 73.992C342.491 74.1467 342.864 74.224 343.328 74.224ZM349.88 75V66.36H350.936V68.44L350.728 68.168C350.824 67.912 350.949 67.6773 351.104 67.464C351.258 67.2453 351.426 67.0667 351.608 66.928C351.832 66.7307 352.093 66.5813 352.392 66.48C352.69 66.3733 352.992 66.312 353.296 66.296C353.6 66.2747 353.877 66.296 354.128 66.36V67.464C353.813 67.384 353.469 67.3653 353.096 67.408C352.722 67.4507 352.378 67.6 352.064 67.856C351.776 68.08 351.56 68.3493 351.416 68.664C351.272 68.9733 351.176 69.304 351.128 69.656C351.08 70.0027 351.056 70.3467 351.056 70.688V75H349.88ZM359.342 75.24C358.472 75.24 357.736 75.0453 357.134 74.656C356.531 74.2667 356.072 73.7307 355.758 73.048C355.448 72.36 355.288 71.5707 355.278 70.68C355.288 69.7733 355.454 68.9787 355.774 68.296C356.094 67.608 356.555 67.0747 357.158 66.696C357.76 66.312 358.491 66.12 359.35 66.12C360.224 66.12 360.984 66.3333 361.63 66.76C362.28 67.1867 362.726 67.7707 362.966 68.512L361.814 68.88C361.611 68.3627 361.288 67.9627 360.846 67.68C360.408 67.392 359.907 67.248 359.342 67.248C358.707 67.248 358.182 67.3947 357.766 67.688C357.35 67.976 357.04 68.3787 356.838 68.896C356.635 69.4133 356.531 70.008 356.526 70.68C356.536 71.7147 356.776 72.5467 357.246 73.176C357.715 73.8 358.414 74.112 359.342 74.112C359.928 74.112 360.427 73.9787 360.838 73.712C361.254 73.44 361.568 73.0453 361.782 72.528L362.966 72.88C362.646 73.648 362.176 74.2347 361.558 74.64C360.939 75.04 360.2 75.24 359.342 75.24ZM371.126 75V70.592C371.126 70.112 371.081 69.672 370.99 69.272C370.899 68.8667 370.753 68.5147 370.55 68.216C370.353 67.912 370.094 67.6773 369.774 67.512C369.459 67.3467 369.075 67.264 368.622 67.264C368.206 67.264 367.838 67.336 367.518 67.48C367.203 67.624 366.937 67.832 366.718 68.104C366.505 68.3707 366.342 68.696 366.23 69.08C366.118 69.464 366.062 69.9013 366.062 70.392L365.23 70.208C365.23 69.3227 365.385 68.5787 365.694 67.976C366.003 67.3733 366.43 66.9173 366.974 66.608C367.518 66.2987 368.142 66.144 368.846 66.144C369.363 66.144 369.814 66.224 370.198 66.384C370.587 66.544 370.915 66.76 371.182 67.032C371.454 67.304 371.673 67.616 371.838 67.968C372.003 68.3147 372.123 68.6853 372.198 69.08C372.273 69.4693 372.31 69.8587 372.31 70.248V75H371.126ZM364.878 75V63.48H365.942V69.984H366.062V75H364.878Z" fill="#818181"></path> <rect x="72" y="49" width="40" height="40" rx="10" fill="#C5F2C7" fill-opacity="0.7"></rect> <path d="M83.473 78V60.72H85.741L92.005 73.716L98.233 60.72H100.525V77.988H98.149V66.168L92.569 78H91.429L85.837 66.168V78H83.473Z" fill="#00776A"></path> <path d="M123.68 78V60.72H125.948L132.212 73.716L138.44 60.72H140.732V77.988H138.356V66.168L132.776 78H131.636L126.044 66.168V78H123.68ZM145.846 83.76L148.354 76.932L148.39 78.948L142.738 65.04H145.354L149.578 75.78H148.81L152.842 65.04H155.386L148.234 83.76H145.846ZM155.597 78L161.213 60.72H164.825L170.441 78H167.837L162.665 62.232H163.313L158.201 78H155.597ZM158.513 74.1V71.748H167.537V74.1H158.513ZM178.678 78.36C177.438 78.36 176.398 78.06 175.558 77.46C174.718 76.852 174.082 76.032 173.65 75C173.218 73.968 173.002 72.804 173.002 71.508C173.002 70.212 173.214 69.048 173.638 68.016C174.07 66.984 174.702 66.172 175.534 65.58C176.374 64.98 177.406 64.68 178.63 64.68C179.846 64.68 180.894 64.98 181.774 65.58C182.662 66.172 183.346 66.984 183.826 68.016C184.306 69.04 184.546 70.204 184.546 71.508C184.546 72.804 184.306 73.972 183.826 75.012C183.354 76.044 182.678 76.86 181.798 77.46C180.926 78.06 179.886 78.36 178.678 78.36ZM172.582 83.76V65.04H174.814V74.364H175.102V83.76H172.582ZM178.33 76.092C179.13 76.092 179.79 75.888 180.31 75.48C180.838 75.072 181.23 74.524 181.486 73.836C181.75 73.14 181.882 72.364 181.882 71.508C181.882 70.66 181.75 69.892 181.486 69.204C181.23 68.516 180.834 67.968 180.298 67.56C179.762 67.152 179.078 66.948 178.246 66.948C177.462 66.948 176.814 67.14 176.302 67.524C175.798 67.908 175.422 68.444 175.174 69.132C174.934 69.82 174.814 70.612 174.814 71.508C174.814 72.404 174.934 73.196 175.174 73.884C175.414 74.572 175.794 75.112 176.314 75.504C176.834 75.896 177.506 76.092 178.33 76.092ZM193.28 78.36C192.04 78.36 191 78.06 190.16 77.46C189.32 76.852 188.684 76.032 188.252 75C187.82 73.968 187.604 72.804 187.604 71.508C187.604 70.212 187.816 69.048 188.24 68.016C188.672 66.984 189.304 66.172 190.136 65.58C190.976 64.98 192.008 64.68 193.232 64.68C194.448 64.68 195.496 64.98 196.376 65.58C197.264 66.172 197.948 66.984 198.428 68.016C198.908 69.04 199.148 70.204 199.148 71.508C199.148 72.804 198.908 73.972 198.428 75.012C197.956 76.044 197.28 76.86 196.4 77.46C195.528 78.06 194.488 78.36 193.28 78.36ZM187.184 83.76V65.04H189.416V74.364H189.704V83.76H187.184ZM192.932 76.092C193.732 76.092 194.392 75.888 194.912 75.48C195.44 75.072 195.832 74.524 196.088 73.836C196.352 73.14 196.484 72.364 196.484 71.508C196.484 70.66 196.352 69.892 196.088 69.204C195.832 68.516 195.436 67.968 194.9 67.56C194.364 67.152 193.68 66.948 192.848 66.948C192.064 66.948 191.416 67.14 190.904 67.524C190.4 67.908 190.024 68.444 189.776 69.132C189.536 69.82 189.416 70.612 189.416 71.508C189.416 72.404 189.536 73.196 189.776 73.884C190.016 74.572 190.396 75.112 190.916 75.504C191.436 75.896 192.108 76.092 192.932 76.092Z" fill="black"></path> <rect width="40" height="40" rx="18" transform="matrix(-1 0 0 1 584 49)" fill="white"></rect> <g clip-path="url(#clip1_11_203606)"> <path d="M566.456 61.3675L567.405 61.0513L567.405 61.0513L566.456 61.3675ZM566.871 62.6141L566.461 63.5259L566.061 63.346L565.923 62.9304L566.871 62.6141ZM568.093 63.3207L568.293 64.3004L567.864 64.3884L567.508 64.1315L568.093 63.3207ZM569.382 63.0569L569.582 64.0366L569.582 64.0366L569.382 63.0569ZM571.515 64.0163L570.649 64.5163L570.649 64.5163L571.515 64.0163ZM572.073 64.9837L571.207 65.4837L572.073 64.9837ZM571.838 67.3106L571.09 66.6471L571.09 66.6471L571.838 67.3106ZM570.965 68.295L569.97 68.3945L569.926 67.959L570.217 67.6315L570.965 68.295ZM570.965 69.705L570.217 70.3685L569.926 70.041L569.97 69.6055L570.965 69.705ZM571.838 70.6894L572.586 70.0259L572.586 70.0259L571.838 70.6894ZM572.073 73.0163L571.207 72.5163L572.073 73.0163ZM571.515 73.9837L570.649 73.4837L570.649 73.4837L571.515 73.9837ZM569.382 74.9431L569.582 73.9634L569.582 73.9634L569.382 74.9431ZM568.093 74.6793L567.508 73.8685L567.864 73.6116L568.293 73.6996L568.093 74.6793ZM566.871 75.3859L565.923 75.0696L566.061 74.654L566.461 74.4741L566.871 75.3859ZM566.456 76.6325L567.405 76.9487L567.405 76.9487L566.456 76.6325ZM561.544 76.6325L562.493 76.3162L562.493 76.3162L561.544 76.6325ZM561.129 75.3859L561.539 74.4741L561.939 74.654L562.077 75.0696L561.129 75.3859ZM559.907 74.6793L559.706 73.6996L560.136 73.6116L560.492 73.8685L559.907 74.6793ZM558.618 74.9431L558.818 75.9228L558.818 75.9228L558.618 74.9431ZM556.485 73.9837L557.351 73.4837L557.351 73.4837L556.485 73.9837ZM555.927 73.0163L555.06 73.5163L555.06 73.5163L555.927 73.0163ZM556.162 70.6894L556.91 71.3529L556.91 71.3529L556.162 70.6894ZM557.035 69.705L558.03 69.6055L558.074 70.041L557.783 70.3685L557.035 69.705ZM557.035 68.295L557.783 67.6315L558.074 67.959L558.03 68.3945L557.035 68.295ZM556.162 67.3106L555.414 67.9741L555.414 67.9741L556.162 67.3106ZM555.927 64.9837L556.793 65.4837L556.793 65.4837L555.927 64.9837ZM556.485 64.0163L555.619 63.5163L555.619 63.5163L556.485 64.0163ZM558.618 63.0569L558.818 62.0772L558.818 62.0772L558.618 63.0569ZM559.907 63.3207L560.492 64.1315L560.136 64.3884L559.706 64.3004L559.907 63.3207ZM561.129 62.6141L562.077 62.9304L561.939 63.346L561.539 63.5259L561.129 62.6141ZM561.544 61.3675L562.493 61.6838L562.493 61.6838L561.544 61.3675ZM565.507 61.6838C565.371 61.2754 564.989 61 564.558 61V59C565.85 59 566.996 59.8263 567.405 61.0513L565.507 61.6838ZM565.923 62.9304L565.507 61.6838L567.405 61.0513L567.82 62.2979L565.923 62.9304ZM567.508 64.1315C567.181 63.896 566.831 63.6927 566.461 63.5259L567.282 61.7023C567.776 61.925 568.244 62.1963 568.678 62.5099L567.508 64.1315ZM569.582 64.0366L568.293 64.3004L567.893 62.341L569.181 62.0772L569.582 64.0366ZM570.649 64.5163C570.434 64.1436 570.004 63.9504 569.582 64.0366L569.181 62.0772C570.447 61.8184 571.735 62.398 572.381 63.5163L570.649 64.5163ZM571.207 65.4837L570.649 64.5163L572.381 63.5163L572.939 64.4837L571.207 65.4837ZM571.09 66.6471C571.375 66.3251 571.423 65.8564 571.207 65.4837L572.939 64.4837C573.585 65.602 573.443 67.0079 572.586 67.9741L571.09 66.6471ZM570.217 67.6315L571.09 66.6471L572.586 67.9741L571.713 68.9584L570.217 67.6315ZM570 69C570 68.7953 569.99 68.5933 569.97 68.3945L571.96 68.1954C571.986 68.4603 572 68.7287 572 69H570ZM569.97 69.6055C569.99 69.4067 570 69.2047 570 69H572C572 69.2713 571.986 69.5397 571.96 69.8046L569.97 69.6055ZM571.09 71.3529L570.217 70.3685L571.713 69.0416L572.586 70.0259L571.09 71.3529ZM571.207 72.5163C571.423 72.1436 571.375 71.6749 571.09 71.3529L572.586 70.0259C573.443 70.9921 573.585 72.398 572.939 73.5163L571.207 72.5163ZM570.649 73.4837L571.207 72.5163L572.939 73.5163L572.381 74.4837L570.649 73.4837ZM569.582 73.9634C570.004 74.0496 570.434 73.8564 570.649 73.4837L572.381 74.4837C571.735 75.6019 570.447 76.1816 569.181 75.9228L569.582 73.9634ZM568.293 73.6996L569.582 73.9634L569.181 75.9228L567.893 75.659L568.293 73.6996ZM566.461 74.4741C566.831 74.3073 567.181 74.104 567.508 73.8685L568.678 75.4901C568.244 75.8037 567.776 76.075 567.282 76.2977L566.461 74.4741ZM565.507 76.3162L565.923 75.0696L567.82 75.7021L567.405 76.9487L565.507 76.3162ZM564.558 77C564.989 77 565.371 76.7246 565.507 76.3162L567.405 76.9487C566.996 78.1737 565.85 79 564.558 79V77ZM563.442 77H564.558V79H563.442V77ZM562.493 76.3162C562.629 76.7246 563.011 77 563.442 77V79C562.15 79 561.004 78.1737 560.595 76.9487L562.493 76.3162ZM562.077 75.0696L562.493 76.3162L560.595 76.9487L560.18 75.7021L562.077 75.0696ZM560.492 73.8685C560.818 74.104 561.169 74.3073 561.539 74.4741L560.718 76.2977C560.224 76.075 559.756 75.8037 559.322 75.4901L560.492 73.8685ZM558.418 73.9634L559.706 73.6996L560.107 75.659L558.818 75.9228L558.418 73.9634ZM557.351 73.4837C557.566 73.8564 557.996 74.0497 558.418 73.9634L558.818 75.9228C557.553 76.1816 556.265 75.602 555.619 74.4837L557.351 73.4837ZM556.793 72.5163L557.351 73.4837L555.619 74.4837L555.06 73.5163L556.793 72.5163ZM556.91 71.3529C556.625 71.6749 556.577 72.1436 556.793 72.5163L555.06 73.5163C554.415 72.3981 554.557 70.9921 555.414 70.0259L556.91 71.3529ZM557.783 70.3685L556.91 71.3529L555.414 70.0259L556.287 69.0416L557.783 70.3685ZM558 69C558 69.2047 558.01 69.4067 558.03 69.6055L556.04 69.8046C556.014 69.5397 556 69.2713 556 69H558ZM558.03 68.3945C558.01 68.5933 558 68.7953 558 69H556C556 68.7287 556.014 68.4603 556.04 68.1954L558.03 68.3945ZM556.91 66.6471L557.783 67.6315L556.287 68.9584L555.414 67.9741L556.91 66.6471ZM556.793 65.4837C556.577 65.8564 556.625 66.3251 556.91 66.6471L555.414 67.9741C554.557 67.0079 554.415 65.602 555.06 64.4837L556.793 65.4837ZM557.351 64.5163L556.793 65.4837L555.06 64.4837L555.619 63.5163L557.351 64.5163ZM558.418 64.0366C557.996 63.9504 557.566 64.1436 557.351 64.5163L555.619 63.5163C556.265 62.398 557.553 61.8184 558.818 62.0772L558.418 64.0366ZM559.706 64.3004L558.418 64.0366L558.818 62.0772L560.107 62.341L559.706 64.3004ZM561.539 63.5259C561.169 63.6927 560.818 63.896 560.492 64.1315L559.322 62.5099C559.756 62.1963 560.224 61.925 560.718 61.7023L561.539 63.5259ZM562.493 61.6838L562.077 62.9304L560.18 62.2979L560.595 61.0513L562.493 61.6838ZM563.442 61C563.011 61 562.629 61.2754 562.493 61.6838L560.595 61.0513C561.004 59.8263 562.15 59 563.442 59V61ZM564.558 61H563.442V59H564.558V61Z" fill="#818181"></path> <path d="M564 71C562.895 71 562 70.1046 562 69C562 67.8954 562.895 67 564 67C565.105 67 566 67.8954 566 69C566 70.1046 565.105 71 564 71Z" stroke="#818181" stroke-width="2"></path> </g> <rect x="592" y="49" width="40" height="40" rx="18" fill="white"></rect> <g clip-path="url(#clip2_11_203606)"> <path fill-rule="evenodd" clip-rule="evenodd" d="M603.01 62.8379C603.01 62.2856 603.457 61.8379 604.01 61.8379H620C620.552 61.8379 621 62.2856 621 62.8379V74.1621C621 75.2667 620.105 76.1621 619 76.1621H605C603.895 76.1621 603 75.2667 603 74.1621V63.1621C603 63.1145 603.003 63.0676 603.01 63.0218V62.8379ZM605 65.0616V74.1621H619V65.062L614.121 69.9405C612.95 71.1121 611.05 71.1121 609.879 69.9405L605 65.0616ZM606.572 63.8055H617.428L612.707 68.5263C612.317 68.9168 611.684 68.9168 611.293 68.5263L606.572 63.8055Z" fill="#818181"></path> </g> <g filter="url(#filter3_dd_11_203606)"> <rect x="640" y="49" width="40" height="40" rx="18" fill="white"></rect> <g clip-path="url(#clip3_11_203606)"> <path d="M660 61C659.448 61 659 61.4477 659 62V68H653C652.448 68 652 68.4477 652 69C652 69.5523 652.448 70 653 70H659V76C659 76.5523 659.448 77 660 77C660.552 77 661 76.5523 661 76V70H667C667.552 70 668 69.5523 668 69C668 68.4477 667.552 68 667 68H661V62C661 61.4477 660.552 61 660 61Z" fill="#0A3977"></path> </g> </g> <g clip-path="url(#clip4_11_203606)"> <path d="M102.872 133.24C102.125 133.24 101.424 133.109 100.768 132.848C100.117 132.581 99.544 132.192 99.048 131.68C98.5573 131.168 98.1733 130.541 97.896 129.8C97.6187 129.053 97.48 128.2 97.48 127.24C97.48 125.981 97.7147 124.907 98.184 124.016C98.6533 123.12 99.296 122.435 100.112 121.96C100.928 121.48 101.848 121.24 102.872 121.24C104.291 121.24 105.413 121.571 106.24 122.232C107.072 122.888 107.635 123.811 107.928 125L105.96 125.312C105.741 124.629 105.384 124.085 104.888 123.68C104.392 123.269 103.76 123.064 102.992 123.064C102.219 123.053 101.576 123.221 101.064 123.568C100.552 123.915 100.165 124.403 99.904 125.032C99.648 125.661 99.52 126.397 99.52 127.24C99.52 128.083 99.648 128.816 99.904 129.44C100.16 130.059 100.544 130.541 101.056 130.888C101.573 131.235 102.219 131.413 102.992 131.424C103.573 131.429 104.083 131.325 104.52 131.112C104.957 130.893 105.315 130.565 105.592 130.128C105.869 129.685 106.056 129.133 106.152 128.472H104.12V126.96H108.2C108.211 127.045 108.219 127.171 108.224 127.336C108.229 127.501 108.232 127.6 108.232 127.632C108.232 128.72 108.016 129.688 107.584 130.536C107.157 131.379 106.544 132.04 105.744 132.52C104.944 133 103.987 133.24 102.872 133.24ZM113.847 133.24C112.972 133.24 112.204 133.051 111.543 132.672C110.881 132.293 110.364 131.768 109.991 131.096C109.623 130.424 109.439 129.651 109.439 128.776C109.439 127.832 109.62 127.013 109.983 126.32C110.345 125.621 110.849 125.08 111.495 124.696C112.14 124.312 112.887 124.12 113.735 124.12C114.631 124.12 115.391 124.331 116.015 124.752C116.644 125.168 117.111 125.757 117.415 126.52C117.719 127.283 117.833 128.181 117.759 129.216H115.847V128.512C115.841 127.573 115.676 126.888 115.351 126.456C115.025 126.024 114.513 125.808 113.815 125.808C113.025 125.808 112.439 126.053 112.055 126.544C111.671 127.029 111.479 127.741 111.479 128.68C111.479 129.555 111.671 130.232 112.055 130.712C112.439 131.192 112.999 131.432 113.735 131.432C114.209 131.432 114.617 131.328 114.959 131.12C115.305 130.907 115.572 130.6 115.759 130.2L117.663 130.776C117.332 131.555 116.82 132.16 116.127 132.592C115.439 133.024 114.679 133.24 113.847 133.24ZM110.871 129.216V127.76H116.815V129.216H110.871ZM125.365 133V128.84C125.365 128.568 125.347 128.267 125.309 127.936C125.272 127.605 125.184 127.288 125.045 126.984C124.912 126.675 124.709 126.421 124.437 126.224C124.171 126.027 123.808 125.928 123.349 125.928C123.104 125.928 122.861 125.968 122.621 126.048C122.381 126.128 122.163 126.267 121.965 126.464C121.773 126.656 121.619 126.923 121.501 127.264C121.384 127.6 121.325 128.032 121.325 128.56L120.181 128.072C120.181 127.336 120.323 126.669 120.605 126.072C120.893 125.475 121.315 125 121.869 124.648C122.424 124.291 123.107 124.112 123.917 124.112C124.557 124.112 125.085 124.219 125.501 124.432C125.917 124.645 126.248 124.917 126.493 125.248C126.739 125.579 126.92 125.931 127.037 126.304C127.155 126.677 127.229 127.032 127.261 127.368C127.299 127.699 127.317 127.968 127.317 128.176V133H125.365ZM119.373 133V124.36H121.093V127.04H121.325V133H119.373ZM133.272 133.24C132.398 133.24 131.63 133.051 130.968 132.672C130.307 132.293 129.79 131.768 129.416 131.096C129.048 130.424 128.864 129.651 128.864 128.776C128.864 127.832 129.046 127.013 129.408 126.32C129.771 125.621 130.275 125.08 130.92 124.696C131.566 124.312 132.312 124.12 133.16 124.12C134.056 124.12 134.816 124.331 135.44 124.752C136.07 125.168 136.536 125.757 136.84 126.52C137.144 127.283 137.259 128.181 137.184 129.216H135.272V128.512C135.267 127.573 135.102 126.888 134.776 126.456C134.451 126.024 133.939 125.808 133.24 125.808C132.451 125.808 131.864 126.053 131.48 126.544C131.096 127.029 130.904 127.741 130.904 128.68C130.904 129.555 131.096 130.232 131.48 130.712C131.864 131.192 132.424 131.432 133.16 131.432C133.635 131.432 134.043 131.328 134.384 131.12C134.731 130.907 134.998 130.6 135.184 130.2L137.088 130.776C136.758 131.555 136.246 132.16 135.552 132.592C134.864 133.024 134.104 133.24 133.272 133.24ZM130.296 129.216V127.76H136.24V129.216H130.296ZM139.049 133V124.36H140.753V126.464L140.545 126.192C140.652 125.904 140.793 125.643 140.969 125.408C141.151 125.168 141.367 124.971 141.617 124.816C141.831 124.672 142.065 124.56 142.321 124.48C142.583 124.395 142.849 124.344 143.121 124.328C143.393 124.307 143.657 124.317 143.913 124.36V126.16C143.657 126.085 143.361 126.061 143.025 126.088C142.695 126.115 142.396 126.208 142.129 126.368C141.863 126.512 141.644 126.696 141.473 126.92C141.308 127.144 141.185 127.4 141.105 127.688C141.025 127.971 140.985 128.277 140.985 128.608V133H139.049ZM147.733 133.24C147.109 133.24 146.581 133.123 146.149 132.888C145.717 132.648 145.389 132.331 145.165 131.936C144.946 131.541 144.837 131.107 144.837 130.632C144.837 130.216 144.906 129.843 145.045 129.512C145.184 129.176 145.397 128.888 145.685 128.648C145.973 128.403 146.346 128.203 146.805 128.048C147.152 127.936 147.557 127.835 148.021 127.744C148.49 127.653 148.997 127.571 149.541 127.496C150.09 127.416 150.664 127.331 151.261 127.24L150.573 127.632C150.578 127.035 150.445 126.595 150.173 126.312C149.901 126.029 149.442 125.888 148.797 125.888C148.408 125.888 148.032 125.979 147.669 126.16C147.306 126.341 147.053 126.653 146.909 127.096L145.149 126.544C145.362 125.813 145.768 125.227 146.365 124.784C146.968 124.341 147.778 124.12 148.797 124.12C149.565 124.12 150.24 124.245 150.821 124.496C151.408 124.747 151.842 125.157 152.125 125.728C152.28 126.032 152.373 126.344 152.405 126.664C152.437 126.979 152.453 127.323 152.453 127.696V133H150.765V131.128L151.045 131.432C150.656 132.056 150.2 132.515 149.677 132.808C149.16 133.096 148.512 133.24 147.733 133.24ZM148.117 131.704C148.554 131.704 148.928 131.627 149.237 131.472C149.546 131.317 149.792 131.128 149.973 130.904C150.16 130.68 150.285 130.469 150.349 130.272C150.45 130.027 150.506 129.747 150.517 129.432C150.533 129.112 150.541 128.853 150.541 128.656L151.133 128.832C150.552 128.923 150.053 129.003 149.637 129.072C149.221 129.141 148.864 129.208 148.565 129.272C148.266 129.331 148.002 129.397 147.773 129.472C147.549 129.552 147.36 129.645 147.205 129.752C147.05 129.859 146.93 129.981 146.845 130.12C146.765 130.259 146.725 130.421 146.725 130.608C146.725 130.821 146.778 131.011 146.885 131.176C146.992 131.336 147.146 131.464 147.349 131.56C147.557 131.656 147.813 131.704 148.117 131.704ZM154.776 133V121.24H156.704V133H154.776Z" fill="#1672EC"></path> <path d="M97 153C97 150.791 98.7909 149 101 149H154C156.209 149 158 150.791 158 153V153H97V153Z" fill="#5096F1"></path> <path d="M197.12 133V121.48H198.304L204.648 130.92V121.48H205.832V133H204.648L198.304 123.552V133H197.12ZM211.95 133.24C211.091 133.24 210.358 133.045 209.75 132.656C209.142 132.267 208.675 131.728 208.35 131.04C208.025 130.352 207.862 129.563 207.862 128.672C207.862 127.765 208.027 126.971 208.358 126.288C208.689 125.605 209.158 125.075 209.766 124.696C210.379 124.312 211.107 124.12 211.95 124.12C212.814 124.12 213.55 124.315 214.158 124.704C214.771 125.088 215.238 125.624 215.558 126.312C215.883 126.995 216.046 127.781 216.046 128.672C216.046 129.579 215.883 130.376 215.558 131.064C215.233 131.747 214.763 132.28 214.15 132.664C213.537 133.048 212.803 133.24 211.95 133.24ZM211.95 132.112C212.91 132.112 213.625 131.795 214.094 131.16C214.563 130.52 214.798 129.691 214.798 128.672C214.798 127.627 214.561 126.795 214.086 126.176C213.617 125.557 212.905 125.248 211.95 125.248C211.305 125.248 210.771 125.395 210.35 125.688C209.934 125.976 209.622 126.379 209.414 126.896C209.211 127.408 209.11 128 209.11 128.672C209.11 129.712 209.35 130.547 209.83 131.176C210.31 131.8 211.017 132.112 211.95 132.112ZM222.783 133C222.298 133.101 221.818 133.141 221.343 133.12C220.874 133.099 220.453 132.997 220.079 132.816C219.711 132.635 219.431 132.352 219.239 131.968C219.085 131.648 218.999 131.325 218.983 131C218.973 130.669 218.967 130.293 218.967 129.872V121.96H220.135V129.824C220.135 130.187 220.138 130.491 220.143 130.736C220.154 130.976 220.21 131.189 220.311 131.376C220.503 131.733 220.807 131.947 221.223 132.016C221.645 132.085 222.165 132.069 222.783 131.968V133ZM217.119 125.368V124.36H222.783V125.368H217.119ZM224.915 122.72V121.4H226.091V122.72H224.915ZM224.915 133V124.36H226.091V133H224.915ZM229.614 133V123.72C229.614 123.496 229.624 123.275 229.646 123.056C229.672 122.837 229.723 122.629 229.798 122.432C229.872 122.229 229.99 122.043 230.15 121.872C230.326 121.68 230.518 121.541 230.726 121.456C230.934 121.365 231.15 121.307 231.374 121.28C231.603 121.253 231.827 121.24 232.046 121.24H233.15V122.232H232.126C231.678 122.232 231.342 122.341 231.118 122.56C230.899 122.779 230.79 123.123 230.79 123.592V133H229.614ZM228.118 125.368V124.36H233.15V125.368H228.118ZM235.093 122.72V121.4H236.269V122.72H235.093ZM235.093 133V124.36H236.269V133H235.093ZM242.52 133.24C241.651 133.24 240.915 133.045 240.312 132.656C239.709 132.267 239.251 131.731 238.936 131.048C238.627 130.36 238.467 129.571 238.456 128.68C238.467 127.773 238.632 126.979 238.952 126.296C239.272 125.608 239.733 125.075 240.336 124.696C240.939 124.312 241.669 124.12 242.528 124.12C243.403 124.12 244.163 124.333 244.808 124.76C245.459 125.187 245.904 125.771 246.144 126.512L244.992 126.88C244.789 126.363 244.467 125.963 244.024 125.68C243.587 125.392 243.085 125.248 242.52 125.248C241.885 125.248 241.36 125.395 240.944 125.688C240.528 125.976 240.219 126.379 240.016 126.896C239.813 127.413 239.709 128.008 239.704 128.68C239.715 129.715 239.955 130.547 240.424 131.176C240.893 131.8 241.592 132.112 242.52 132.112C243.107 132.112 243.605 131.979 244.016 131.712C244.432 131.44 244.747 131.045 244.96 130.528L246.144 130.88C245.824 131.648 245.355 132.235 244.736 132.64C244.117 133.04 243.379 133.24 242.52 133.24ZM250.489 133.24C249.839 133.24 249.292 133.123 248.849 132.888C248.412 132.653 248.084 132.341 247.865 131.952C247.647 131.563 247.537 131.139 247.537 130.68C247.537 130.211 247.631 129.811 247.817 129.48C248.009 129.144 248.268 128.869 248.593 128.656C248.924 128.443 249.305 128.28 249.737 128.168C250.175 128.061 250.657 127.968 251.185 127.888C251.719 127.803 252.239 127.731 252.745 127.672C253.257 127.608 253.705 127.547 254.089 127.488L253.673 127.744C253.689 126.891 253.524 126.259 253.177 125.848C252.831 125.437 252.228 125.232 251.369 125.232C250.777 125.232 250.276 125.365 249.865 125.632C249.46 125.899 249.175 126.32 249.009 126.896L247.865 126.56C248.063 125.787 248.46 125.187 249.057 124.76C249.655 124.333 250.431 124.12 251.385 124.12C252.175 124.12 252.844 124.269 253.393 124.568C253.948 124.861 254.34 125.288 254.569 125.848C254.676 126.099 254.745 126.379 254.777 126.688C254.809 126.997 254.825 127.312 254.825 127.632V133H253.777V130.832L254.081 130.96C253.788 131.701 253.332 132.267 252.713 132.656C252.095 133.045 251.353 133.24 250.489 133.24ZM250.625 132.224C251.175 132.224 251.655 132.125 252.065 131.928C252.476 131.731 252.807 131.461 253.057 131.12C253.308 130.773 253.471 130.384 253.545 129.952C253.609 129.675 253.644 129.371 253.649 129.04C253.655 128.704 253.657 128.453 253.657 128.288L254.105 128.52C253.705 128.573 253.271 128.627 252.801 128.68C252.337 128.733 251.879 128.795 251.425 128.864C250.977 128.933 250.572 129.016 250.209 129.112C249.964 129.181 249.727 129.28 249.497 129.408C249.268 129.531 249.079 129.696 248.929 129.904C248.785 130.112 248.713 130.371 248.713 130.68C248.713 130.931 248.775 131.173 248.897 131.408C249.025 131.643 249.228 131.837 249.505 131.992C249.788 132.147 250.161 132.224 250.625 132.224ZM261.881 133C261.395 133.101 260.915 133.141 260.441 133.12C259.971 133.099 259.55 132.997 259.177 132.816C258.809 132.635 258.529 132.352 258.337 131.968C258.182 131.648 258.097 131.325 258.081 131C258.07 130.669 258.065 130.293 258.065 129.872V121.96H259.233V129.824C259.233 130.187 259.235 130.491 259.241 130.736C259.251 130.976 259.307 131.189 259.409 131.376C259.601 131.733 259.905 131.947 260.321 132.016C260.742 132.085 261.262 132.069 261.881 131.968V133ZM256.217 125.368V124.36H261.881V125.368H256.217ZM264.012 122.72V121.4H265.188V122.72H264.012ZM264.012 133V124.36H265.188V133H264.012ZM271.463 133.24C270.604 133.24 269.871 133.045 269.263 132.656C268.655 132.267 268.188 131.728 267.863 131.04C267.538 130.352 267.375 129.563 267.375 128.672C267.375 127.765 267.54 126.971 267.871 126.288C268.202 125.605 268.671 125.075 269.279 124.696C269.892 124.312 270.62 124.12 271.463 124.12C272.327 124.12 273.063 124.315 273.671 124.704C274.284 125.088 274.751 125.624 275.071 126.312C275.396 126.995 275.559 127.781 275.559 128.672C275.559 129.579 275.396 130.376 275.071 131.064C274.746 131.747 274.276 132.28 273.663 132.664C273.05 133.048 272.316 133.24 271.463 133.24ZM271.463 132.112C272.423 132.112 273.138 131.795 273.607 131.16C274.076 130.52 274.311 129.691 274.311 128.672C274.311 127.627 274.074 126.795 273.599 126.176C273.13 125.557 272.418 125.248 271.463 125.248C270.818 125.248 270.284 125.395 269.863 125.688C269.447 125.976 269.135 126.379 268.927 126.896C268.724 127.408 268.623 128 268.623 128.672C268.623 129.712 268.863 130.547 269.343 131.176C269.823 131.8 270.53 132.112 271.463 132.112ZM283.832 133V128.592C283.832 128.112 283.787 127.672 283.696 127.272C283.606 126.867 283.459 126.515 283.256 126.216C283.059 125.912 282.8 125.677 282.48 125.512C282.166 125.347 281.782 125.264 281.328 125.264C280.912 125.264 280.544 125.336 280.224 125.48C279.91 125.624 279.643 125.832 279.424 126.104C279.211 126.371 279.048 126.696 278.936 127.08C278.824 127.464 278.768 127.901 278.768 128.392L277.936 128.208C277.936 127.323 278.091 126.579 278.4 125.976C278.71 125.373 279.136 124.917 279.68 124.608C280.224 124.299 280.848 124.144 281.552 124.144C282.07 124.144 282.52 124.224 282.904 124.384C283.294 124.544 283.622 124.76 283.888 125.032C284.16 125.304 284.379 125.616 284.544 125.968C284.71 126.315 284.83 126.685 284.904 127.08C284.979 127.469 285.016 127.859 285.016 128.248V133H283.832ZM277.584 133V124.36H278.648V126.488H278.768V133H277.584ZM290.585 133.232C289.572 133.232 288.737 133.013 288.081 132.576C287.431 132.139 287.031 131.531 286.881 130.752L288.081 130.552C288.209 131.043 288.5 131.435 288.953 131.728C289.412 132.016 289.977 132.16 290.649 132.16C291.305 132.16 291.823 132.024 292.201 131.752C292.58 131.475 292.769 131.099 292.769 130.624C292.769 130.357 292.708 130.141 292.585 129.976C292.468 129.805 292.225 129.648 291.857 129.504C291.489 129.36 290.94 129.189 290.209 128.992C289.425 128.779 288.812 128.565 288.369 128.352C287.927 128.139 287.612 127.893 287.425 127.616C287.239 127.333 287.145 126.989 287.145 126.584C287.145 126.093 287.284 125.664 287.561 125.296C287.839 124.923 288.223 124.635 288.713 124.432C289.204 124.224 289.775 124.12 290.425 124.12C291.076 124.12 291.657 124.227 292.169 124.44C292.687 124.648 293.103 124.941 293.417 125.32C293.732 125.699 293.919 126.139 293.977 126.64L292.777 126.856C292.697 126.349 292.444 125.949 292.017 125.656C291.596 125.357 291.06 125.203 290.409 125.192C289.796 125.176 289.297 125.293 288.913 125.544C288.529 125.789 288.337 126.117 288.337 126.528C288.337 126.757 288.407 126.955 288.545 127.12C288.684 127.28 288.935 127.432 289.297 127.576C289.665 127.72 290.188 127.877 290.865 128.048C291.66 128.251 292.284 128.464 292.737 128.688C293.191 128.912 293.513 129.176 293.705 129.48C293.897 129.784 293.993 130.16 293.993 130.608C293.993 131.424 293.689 132.067 293.081 132.536C292.479 133 291.647 133.232 290.585 133.232Z" fill="#414141"></path> <path d="M307.296 132.189C306.792 132.189 306.316 132.091 305.868 131.895C305.42 131.699 305.031 131.421 304.699 131.062C304.373 130.703 304.137 130.278 303.992 129.788L305.623 129.347C305.74 129.748 305.952 130.059 306.26 130.278C306.573 130.493 306.916 130.598 307.289 130.593C307.621 130.593 307.917 130.516 308.178 130.362C308.44 130.208 308.645 130 308.794 129.739C308.944 129.473 309.018 129.177 309.018 128.85C309.018 128.351 308.857 127.933 308.535 127.597C308.213 127.261 307.798 127.093 307.289 127.093C307.135 127.093 306.984 127.114 306.834 127.156C306.69 127.198 306.55 127.256 306.414 127.331L305.644 126.001L309.032 123.103L309.179 123.509H304.384V121.92H310.565V123.516L307.842 126.134L307.828 125.637C308.44 125.679 308.96 125.849 309.389 126.148C309.823 126.447 310.155 126.832 310.383 127.303C310.617 127.774 310.733 128.29 310.733 128.85C310.733 129.485 310.577 130.054 310.264 130.558C309.956 131.062 309.541 131.461 309.018 131.755C308.5 132.044 307.926 132.189 307.296 132.189Z" fill="#1672EC"></path> <path d="M357.12 133.24C356.315 133.24 355.589 133.107 354.944 132.84C354.304 132.568 353.773 132.184 353.352 131.688C352.936 131.192 352.664 130.603 352.536 129.92L353.736 129.72C353.928 130.467 354.333 131.053 354.952 131.48C355.571 131.901 356.309 132.112 357.168 132.112C357.733 132.112 358.24 132.024 358.688 131.848C359.136 131.667 359.488 131.411 359.744 131.08C360 130.749 360.128 130.357 360.128 129.904C360.128 129.605 360.075 129.352 359.968 129.144C359.861 128.931 359.72 128.755 359.544 128.616C359.368 128.477 359.176 128.363 358.968 128.272C358.76 128.176 358.557 128.099 358.36 128.04L355.44 127.168C355.088 127.067 354.763 126.939 354.464 126.784C354.165 126.624 353.904 126.435 353.68 126.216C353.461 125.992 353.291 125.731 353.168 125.432C353.045 125.133 352.984 124.792 352.984 124.408C352.984 123.757 353.155 123.195 353.496 122.72C353.837 122.245 354.304 121.88 354.896 121.624C355.488 121.368 356.163 121.243 356.92 121.248C357.688 121.248 358.373 121.384 358.976 121.656C359.584 121.928 360.085 122.317 360.48 122.824C360.875 123.325 361.136 123.92 361.264 124.608L360.032 124.832C359.952 124.331 359.768 123.896 359.48 123.528C359.192 123.16 358.824 122.877 358.376 122.68C357.933 122.477 357.445 122.373 356.912 122.368C356.395 122.368 355.933 122.456 355.528 122.632C355.128 122.803 354.811 123.037 354.576 123.336C354.341 123.635 354.224 123.976 354.224 124.36C354.224 124.749 354.331 125.061 354.544 125.296C354.763 125.531 355.029 125.715 355.344 125.848C355.664 125.981 355.973 126.091 356.272 126.176L358.528 126.84C358.763 126.904 359.037 126.997 359.352 127.12C359.672 127.237 359.981 127.408 360.28 127.632C360.584 127.851 360.835 128.139 361.032 128.496C361.229 128.853 361.328 129.307 361.328 129.856C361.328 130.389 361.221 130.867 361.008 131.288C360.8 131.709 360.504 132.064 360.12 132.352C359.741 132.64 359.296 132.859 358.784 133.008C358.277 133.163 357.723 133.24 357.12 133.24ZM366.904 133.24C366.062 133.24 365.331 133.053 364.712 132.68C364.099 132.307 363.622 131.781 363.28 131.104C362.939 130.427 362.768 129.632 362.768 128.72C362.768 127.776 362.936 126.96 363.272 126.272C363.608 125.584 364.08 125.053 364.688 124.68C365.302 124.307 366.024 124.12 366.856 124.12C367.71 124.12 368.438 124.317 369.04 124.712C369.643 125.101 370.099 125.661 370.408 126.392C370.718 127.123 370.859 127.995 370.832 129.008H369.632V128.592C369.611 127.472 369.368 126.627 368.904 126.056C368.446 125.485 367.774 125.2 366.888 125.2C365.96 125.2 365.248 125.501 364.752 126.104C364.262 126.707 364.016 127.565 364.016 128.68C364.016 129.768 364.262 130.613 364.752 131.216C365.248 131.813 365.95 132.112 366.856 132.112C367.475 132.112 368.014 131.971 368.472 131.688C368.936 131.4 369.302 130.987 369.568 130.448L370.664 130.872C370.323 131.624 369.819 132.208 369.152 132.624C368.491 133.035 367.742 133.24 366.904 133.24ZM363.6 129.008V128.024H370.2V129.008H363.6ZM376.46 133.24C375.591 133.24 374.855 133.045 374.252 132.656C373.65 132.267 373.191 131.731 372.876 131.048C372.567 130.36 372.407 129.571 372.396 128.68C372.407 127.773 372.572 126.979 372.892 126.296C373.212 125.608 373.674 125.075 374.276 124.696C374.879 124.312 375.61 124.12 376.468 124.12C377.343 124.12 378.103 124.333 378.748 124.76C379.399 125.187 379.844 125.771 380.084 126.512L378.932 126.88C378.73 126.363 378.407 125.963 377.964 125.68C377.527 125.392 377.026 125.248 376.46 125.248C375.826 125.248 375.3 125.395 374.884 125.688C374.468 125.976 374.159 126.379 373.956 126.896C373.754 127.413 373.65 128.008 373.644 128.68C373.655 129.715 373.895 130.547 374.364 131.176C374.834 131.8 375.532 132.112 376.46 132.112C377.047 132.112 377.546 131.979 377.956 131.712C378.372 131.44 378.687 131.045 378.9 130.528L380.084 130.88C379.764 131.648 379.295 132.235 378.676 132.64C378.058 133.04 377.319 133.24 376.46 133.24ZM385.309 133.216C384.791 133.216 384.338 133.136 383.949 132.976C383.565 132.816 383.237 132.6 382.965 132.328C382.698 132.056 382.482 131.747 382.317 131.4C382.151 131.048 382.031 130.677 381.957 130.288C381.882 129.893 381.845 129.501 381.845 129.112V124.36H383.029V128.768C383.029 129.243 383.074 129.683 383.165 130.088C383.255 130.493 383.399 130.848 383.597 131.152C383.799 131.451 384.058 131.683 384.373 131.848C384.693 132.013 385.079 132.096 385.533 132.096C385.949 132.096 386.314 132.024 386.629 131.88C386.949 131.736 387.215 131.531 387.429 131.264C387.647 130.992 387.813 130.664 387.925 130.28C388.037 129.891 388.093 129.453 388.093 128.968L388.925 129.152C388.925 130.037 388.77 130.781 388.461 131.384C388.151 131.987 387.725 132.443 387.181 132.752C386.637 133.061 386.013 133.216 385.309 133.216ZM388.213 133V130.872H388.093V124.36H389.269V133H388.213ZM391.773 133V124.36H392.829V126.44L392.621 126.168C392.717 125.912 392.843 125.677 392.997 125.464C393.152 125.245 393.32 125.067 393.501 124.928C393.725 124.731 393.987 124.581 394.285 124.48C394.584 124.373 394.885 124.312 395.189 124.296C395.493 124.275 395.771 124.296 396.021 124.36V125.464C395.707 125.384 395.363 125.365 394.989 125.408C394.616 125.451 394.272 125.6 393.957 125.856C393.669 126.08 393.453 126.349 393.309 126.664C393.165 126.973 393.069 127.304 393.021 127.656C392.973 128.003 392.949 128.347 392.949 128.688V133H391.773ZM397.968 122.72V121.4H399.144V122.72H397.968ZM397.968 133V124.36H399.144V133H397.968ZM406.515 133C406.03 133.101 405.55 133.141 405.075 133.12C404.606 133.099 404.184 132.997 403.811 132.816C403.443 132.635 403.163 132.352 402.971 131.968C402.816 131.648 402.731 131.325 402.715 131C402.704 130.669 402.699 130.293 402.699 129.872V121.96H403.867V129.824C403.867 130.187 403.87 130.491 403.875 130.736C403.886 130.976 403.942 131.189 404.043 131.376C404.235 131.733 404.539 131.947 404.955 132.016C405.376 132.085 405.896 132.069 406.515 131.968V133ZM400.851 125.368V124.36H406.515V125.368H400.851ZM409.484 136.84L411.156 132.304L411.18 133.648L407.396 124.36H408.644L411.748 132.128H411.236L414.1 124.36H415.3L410.66 136.84H409.484Z" fill="#414141"></path> <path d="M459.784 133.24C458.637 133.24 457.669 132.987 456.88 132.48C456.091 131.968 455.493 131.261 455.088 130.36C454.683 129.459 454.48 128.419 454.48 127.24C454.48 126.061 454.683 125.021 455.088 124.12C455.493 123.219 456.091 122.515 456.88 122.008C457.669 121.496 458.637 121.24 459.784 121.24C461.123 121.24 462.216 121.584 463.064 122.272C463.912 122.955 464.493 123.872 464.808 125.024L463.608 125.336C463.363 124.424 462.923 123.701 462.288 123.168C461.653 122.635 460.819 122.368 459.784 122.368C458.883 122.368 458.133 122.573 457.536 122.984C456.939 123.395 456.488 123.968 456.184 124.704C455.885 125.435 455.731 126.28 455.72 127.24C455.715 128.2 455.861 129.045 456.16 129.776C456.464 130.507 456.917 131.08 457.52 131.496C458.128 131.907 458.883 132.112 459.784 132.112C460.819 132.112 461.653 131.845 462.288 131.312C462.923 130.773 463.363 130.051 463.608 129.144L464.808 129.456C464.493 130.608 463.912 131.528 463.064 132.216C462.216 132.899 461.123 133.24 459.784 133.24ZM470.146 133.216C469.629 133.216 469.175 133.136 468.786 132.976C468.402 132.816 468.074 132.6 467.802 132.328C467.535 132.056 467.319 131.747 467.154 131.4C466.989 131.048 466.869 130.677 466.794 130.288C466.719 129.893 466.682 129.501 466.682 129.112V124.36H467.866V128.768C467.866 129.243 467.911 129.683 468.002 130.088C468.093 130.493 468.237 130.848 468.434 131.152C468.637 131.451 468.895 131.683 469.21 131.848C469.53 132.013 469.917 132.096 470.37 132.096C470.786 132.096 471.151 132.024 471.466 131.88C471.786 131.736 472.053 131.531 472.266 131.264C472.485 130.992 472.65 130.664 472.762 130.28C472.874 129.891 472.93 129.453 472.93 128.968L473.762 129.152C473.762 130.037 473.607 130.781 473.298 131.384C472.989 131.987 472.562 132.443 472.018 132.752C471.474 133.061 470.85 133.216 470.146 133.216ZM473.05 133V130.872H472.93V124.36H474.106V133H473.05ZM479.835 133.232C478.821 133.232 477.987 133.013 477.331 132.576C476.68 132.139 476.28 131.531 476.131 130.752L477.331 130.552C477.459 131.043 477.749 131.435 478.203 131.728C478.661 132.016 479.227 132.16 479.899 132.16C480.555 132.16 481.072 132.024 481.451 131.752C481.829 131.475 482.019 131.099 482.019 130.624C482.019 130.357 481.957 130.141 481.835 129.976C481.717 129.805 481.475 129.648 481.107 129.504C480.739 129.36 480.189 129.189 479.459 128.992C478.675 128.779 478.061 128.565 477.619 128.352C477.176 128.139 476.861 127.893 476.675 127.616C476.488 127.333 476.395 126.989 476.395 126.584C476.395 126.093 476.533 125.664 476.811 125.296C477.088 124.923 477.472 124.635 477.963 124.432C478.453 124.224 479.024 124.12 479.675 124.12C480.325 124.12 480.907 124.227 481.419 124.44C481.936 124.648 482.352 124.941 482.667 125.32C482.981 125.699 483.168 126.139 483.227 126.64L482.027 126.856C481.947 126.349 481.693 125.949 481.267 125.656C480.845 125.357 480.309 125.203 479.659 125.192C479.045 125.176 478.547 125.293 478.163 125.544C477.779 125.789 477.587 126.117 477.587 126.528C477.587 126.757 477.656 126.955 477.795 127.12C477.933 127.28 478.184 127.432 478.547 127.576C478.915 127.72 479.437 127.877 480.115 128.048C480.909 128.251 481.533 128.464 481.987 128.688C482.44 128.912 482.763 129.176 482.955 129.48C483.147 129.784 483.243 130.16 483.243 130.608C483.243 131.424 482.939 132.067 482.331 132.536C481.728 133 480.896 133.232 479.835 133.232ZM489.99 133C489.504 133.101 489.024 133.141 488.55 133.12C488.08 133.099 487.659 132.997 487.286 132.816C486.918 132.635 486.638 132.352 486.446 131.968C486.291 131.648 486.206 131.325 486.19 131C486.179 130.669 486.174 130.293 486.174 129.872V121.96H487.342V129.824C487.342 130.187 487.344 130.491 487.35 130.736C487.36 130.976 487.416 131.189 487.518 131.376C487.71 131.733 488.014 131.947 488.43 132.016C488.851 132.085 489.371 132.069 489.99 131.968V133ZM484.326 125.368V124.36H489.99V125.368H484.326ZM495.256 133.24C494.398 133.24 493.664 133.045 493.056 132.656C492.448 132.267 491.982 131.728 491.656 131.04C491.331 130.352 491.168 129.563 491.168 128.672C491.168 127.765 491.334 126.971 491.664 126.288C491.995 125.605 492.464 125.075 493.072 124.696C493.686 124.312 494.414 124.12 495.256 124.12C496.12 124.12 496.856 124.315 497.464 124.704C498.078 125.088 498.544 125.624 498.864 126.312C499.19 126.995 499.352 127.781 499.352 128.672C499.352 129.579 499.19 130.376 498.864 131.064C498.539 131.747 498.07 132.28 497.456 132.664C496.843 133.048 496.11 133.24 495.256 133.24ZM495.256 132.112C496.216 132.112 496.931 131.795 497.4 131.16C497.87 130.52 498.104 129.691 498.104 128.672C498.104 127.627 497.867 126.795 497.392 126.176C496.923 125.557 496.211 125.248 495.256 125.248C494.611 125.248 494.078 125.395 493.656 125.688C493.24 125.976 492.928 126.379 492.72 126.896C492.518 127.408 492.416 128 492.416 128.672C492.416 129.712 492.656 130.547 493.136 131.176C493.616 131.8 494.323 132.112 495.256 132.112ZM511.69 133L511.698 127.328C511.698 126.661 511.511 126.139 511.138 125.76C510.77 125.376 510.301 125.184 509.73 125.184C509.405 125.184 509.087 125.259 508.778 125.408C508.469 125.557 508.213 125.797 508.01 126.128C507.813 126.459 507.714 126.891 507.714 127.424L507.018 127.224C507.002 126.605 507.122 126.064 507.378 125.6C507.639 125.136 507.997 124.776 508.45 124.52C508.909 124.259 509.426 124.128 510.002 124.128C510.871 124.128 511.567 124.397 512.09 124.936C512.613 125.469 512.874 126.192 512.874 127.104L512.866 133H511.69ZM501.378 133V124.36H502.434V126.488H502.562V133H501.378ZM506.546 133L506.554 127.408C506.554 126.72 506.37 126.179 506.002 125.784C505.639 125.384 505.159 125.184 504.562 125.184C503.965 125.184 503.482 125.389 503.114 125.8C502.746 126.205 502.562 126.747 502.562 127.424L501.858 127.04C501.858 126.485 501.989 125.989 502.25 125.552C502.511 125.109 502.869 124.763 503.322 124.512C503.775 124.256 504.29 124.128 504.866 124.128C505.415 124.128 505.903 124.245 506.33 124.48C506.762 124.715 507.101 125.056 507.346 125.504C507.591 125.952 507.714 126.496 507.714 127.136L507.706 133H506.546ZM515.377 122.72V121.4H516.553V122.72H515.377ZM515.377 133V124.36H516.553V133H515.377ZM518.42 133V132.752L523.996 125.456H518.836V124.36H525.932V124.632L520.364 131.904H525.628V133H518.42ZM529.946 133.24C529.295 133.24 528.748 133.123 528.306 132.888C527.868 132.653 527.54 132.341 527.322 131.952C527.103 131.563 526.994 131.139 526.994 130.68C526.994 130.211 527.087 129.811 527.274 129.48C527.466 129.144 527.724 128.869 528.05 128.656C528.38 128.443 528.762 128.28 529.194 128.168C529.631 128.061 530.114 127.968 530.642 127.888C531.175 127.803 531.695 127.731 532.202 127.672C532.714 127.608 533.162 127.547 533.546 127.488L533.13 127.744C533.146 126.891 532.98 126.259 532.634 125.848C532.287 125.437 531.684 125.232 530.826 125.232C530.234 125.232 529.732 125.365 529.322 125.632C528.916 125.899 528.631 126.32 528.466 126.896L527.322 126.56C527.519 125.787 527.916 125.187 528.514 124.76C529.111 124.333 529.887 124.12 530.842 124.12C531.631 124.12 532.3 124.269 532.85 124.568C533.404 124.861 533.796 125.288 534.026 125.848C534.132 126.099 534.202 126.379 534.234 126.688C534.266 126.997 534.282 127.312 534.282 127.632V133H533.234V130.832L533.538 130.96C533.244 131.701 532.788 132.267 532.17 132.656C531.551 133.045 530.81 133.24 529.946 133.24ZM530.082 132.224C530.631 132.224 531.111 132.125 531.522 131.928C531.932 131.731 532.263 131.461 532.514 131.12C532.764 130.773 532.927 130.384 533.002 129.952C533.066 129.675 533.1 129.371 533.106 129.04C533.111 128.704 533.114 128.453 533.114 128.288L533.562 128.52C533.162 128.573 532.727 128.627 532.258 128.68C531.794 128.733 531.335 128.795 530.882 128.864C530.434 128.933 530.028 129.016 529.666 129.112C529.42 129.181 529.183 129.28 528.954 129.408C528.724 129.531 528.535 129.696 528.386 129.904C528.242 130.112 528.17 130.371 528.17 130.68C528.17 130.931 528.231 131.173 528.354 131.408C528.482 131.643 528.684 131.837 528.962 131.992C529.244 132.147 529.618 132.224 530.082 132.224ZM541.337 133C540.852 133.101 540.372 133.141 539.897 133.12C539.428 133.099 539.006 132.997 538.633 132.816C538.265 132.635 537.985 132.352 537.793 131.968C537.638 131.648 537.553 131.325 537.537 131C537.526 130.669 537.521 130.293 537.521 129.872V121.96H538.689V129.824C538.689 130.187 538.692 130.491 538.697 130.736C538.708 130.976 538.764 131.189 538.865 131.376C539.057 131.733 539.361 131.947 539.777 132.016C540.198 132.085 540.718 132.069 541.337 131.968V133ZM535.673 125.368V124.36H541.337V125.368H535.673ZM543.468 122.72V121.4H544.644V122.72H543.468ZM543.468 133V124.36H544.644V133H543.468ZM550.919 133.24C550.061 133.24 549.327 133.045 548.719 132.656C548.111 132.267 547.645 131.728 547.319 131.04C546.994 130.352 546.831 129.563 546.831 128.672C546.831 127.765 546.997 126.971 547.327 126.288C547.658 125.605 548.127 125.075 548.735 124.696C549.349 124.312 550.077 124.12 550.919 124.12C551.783 124.12 552.519 124.315 553.127 124.704C553.741 125.088 554.207 125.624 554.527 126.312C554.853 126.995 555.015 127.781 555.015 128.672C555.015 129.579 554.853 130.376 554.527 131.064C554.202 131.747 553.733 132.28 553.119 132.664C552.506 133.048 551.773 133.24 550.919 133.24ZM550.919 132.112C551.879 132.112 552.594 131.795 553.063 131.16C553.533 130.52 553.767 129.691 553.767 128.672C553.767 127.627 553.53 126.795 553.055 126.176C552.586 125.557 551.874 125.248 550.919 125.248C550.274 125.248 549.741 125.395 549.319 125.688C548.903 125.976 548.591 126.379 548.383 126.896C548.181 127.408 548.079 128 548.079 128.672C548.079 129.712 548.319 130.547 548.799 131.176C549.279 131.8 549.986 132.112 550.919 132.112ZM563.289 133V128.592C563.289 128.112 563.243 127.672 563.153 127.272C563.062 126.867 562.915 126.515 562.713 126.216C562.515 125.912 562.257 125.677 561.937 125.512C561.622 125.347 561.238 125.264 560.785 125.264C560.369 125.264 560.001 125.336 559.681 125.48C559.366 125.624 559.099 125.832 558.881 126.104C558.667 126.371 558.505 126.696 558.393 127.08C558.281 127.464 558.225 127.901 558.225 128.392L557.393 128.208C557.393 127.323 557.547 126.579 557.857 125.976C558.166 125.373 558.593 124.917 559.137 124.608C559.681 124.299 560.305 124.144 561.009 124.144C561.526 124.144 561.977 124.224 562.361 124.384C562.75 124.544 563.078 124.76 563.345 125.032C563.617 125.304 563.835 125.616 564.001 125.968C564.166 126.315 564.286 126.685 564.361 127.08C564.435 127.469 564.473 127.859 564.473 128.248V133H563.289ZM557.041 133V124.36H558.105V126.488H558.225V133H557.041Z" fill="#414141"></path> <path d="M608.184 133V122.608H604.16V121.48H613.384V122.608H609.36V133H608.184ZM617.31 133.24C616.468 133.24 615.737 133.053 615.118 132.68C614.505 132.307 614.028 131.781 613.686 131.104C613.345 130.427 613.174 129.632 613.174 128.72C613.174 127.776 613.342 126.96 613.678 126.272C614.014 125.584 614.486 125.053 615.094 124.68C615.708 124.307 616.43 124.12 617.262 124.12C618.116 124.12 618.844 124.317 619.446 124.712C620.049 125.101 620.505 125.661 620.814 126.392C621.124 127.123 621.265 127.995 621.238 129.008H620.038V128.592C620.017 127.472 619.774 126.627 619.31 126.056C618.852 125.485 618.18 125.2 617.294 125.2C616.366 125.2 615.654 125.501 615.158 126.104C614.668 126.707 614.422 127.565 614.422 128.68C614.422 129.768 614.668 130.613 615.158 131.216C615.654 131.813 616.356 132.112 617.262 132.112C617.881 132.112 618.42 131.971 618.878 131.688C619.342 131.4 619.708 130.987 619.974 130.448L621.07 130.872C620.729 131.624 620.225 132.208 619.558 132.624C618.897 133.035 618.148 133.24 617.31 133.24ZM614.006 129.008V128.024H620.606V129.008H614.006ZM625.598 133.24C624.948 133.24 624.401 133.123 623.958 132.888C623.521 132.653 623.193 132.341 622.974 131.952C622.756 131.563 622.646 131.139 622.646 130.68C622.646 130.211 622.74 129.811 622.926 129.48C623.118 129.144 623.377 128.869 623.702 128.656C624.033 128.443 624.414 128.28 624.846 128.168C625.284 128.061 625.766 127.968 626.294 127.888C626.828 127.803 627.348 127.731 627.854 127.672C628.366 127.608 628.814 127.547 629.198 127.488L628.782 127.744C628.798 126.891 628.633 126.259 628.286 125.848C627.94 125.437 627.337 125.232 626.478 125.232C625.886 125.232 625.385 125.365 624.974 125.632C624.569 125.899 624.284 126.32 624.118 126.896L622.974 126.56C623.172 125.787 623.569 125.187 624.166 124.76C624.764 124.333 625.54 124.12 626.494 124.12C627.284 124.12 627.953 124.269 628.502 124.568C629.057 124.861 629.449 125.288 629.678 125.848C629.785 126.099 629.854 126.379 629.886 126.688C629.918 126.997 629.934 127.312 629.934 127.632V133H628.886V130.832L629.19 130.96C628.897 131.701 628.441 132.267 627.822 132.656C627.204 133.045 626.462 133.24 625.598 133.24ZM625.734 132.224C626.284 132.224 626.764 132.125 627.174 131.928C627.585 131.731 627.916 131.461 628.166 131.12C628.417 130.773 628.58 130.384 628.654 129.952C628.718 129.675 628.753 129.371 628.758 129.04C628.764 128.704 628.766 128.453 628.766 128.288L629.214 128.52C628.814 128.573 628.38 128.627 627.91 128.68C627.446 128.733 626.988 128.795 626.534 128.864C626.086 128.933 625.681 129.016 625.318 129.112C625.073 129.181 624.836 129.28 624.606 129.408C624.377 129.531 624.188 129.696 624.038 129.904C623.894 130.112 623.822 130.371 623.822 130.68C623.822 130.931 623.884 131.173 624.006 131.408C624.134 131.643 624.337 131.837 624.614 131.992C624.897 132.147 625.27 132.224 625.734 132.224ZM642.59 133L642.598 127.328C642.598 126.661 642.411 126.139 642.038 125.76C641.67 125.376 641.2 125.184 640.63 125.184C640.304 125.184 639.987 125.259 639.678 125.408C639.368 125.557 639.112 125.797 638.91 126.128C638.712 126.459 638.614 126.891 638.614 127.424L637.918 127.224C637.902 126.605 638.022 126.064 638.278 125.6C638.539 125.136 638.896 124.776 639.35 124.52C639.808 124.259 640.326 124.128 640.902 124.128C641.771 124.128 642.467 124.397 642.99 124.936C643.512 125.469 643.774 126.192 643.774 127.104L643.766 133H642.59ZM632.278 133V124.36H633.334V126.488H633.462V133H632.278ZM637.446 133L637.454 127.408C637.454 126.72 637.27 126.179 636.902 125.784C636.539 125.384 636.059 125.184 635.462 125.184C634.864 125.184 634.382 125.389 634.014 125.8C633.646 126.205 633.462 126.747 633.462 127.424L632.758 127.04C632.758 126.485 632.888 125.989 633.15 125.552C633.411 125.109 633.768 124.763 634.222 124.512C634.675 124.256 635.19 124.128 635.766 124.128C636.315 124.128 636.803 124.245 637.23 124.48C637.662 124.715 638 125.056 638.246 125.504C638.491 125.952 638.614 126.496 638.614 127.136L638.606 133H637.446ZM649.341 133.232C648.328 133.232 647.493 133.013 646.837 132.576C646.186 132.139 645.786 131.531 645.637 130.752L646.837 130.552C646.965 131.043 647.256 131.435 647.709 131.728C648.168 132.016 648.733 132.16 649.405 132.16C650.061 132.16 650.578 132.024 650.957 131.752C651.336 131.475 651.525 131.099 651.525 130.624C651.525 130.357 651.464 130.141 651.341 129.976C651.224 129.805 650.981 129.648 650.613 129.504C650.245 129.36 649.696 129.189 648.965 128.992C648.181 128.779 647.568 128.565 647.125 128.352C646.682 128.139 646.368 127.893 646.181 127.616C645.994 127.333 645.901 126.989 645.901 126.584C645.901 126.093 646.04 125.664 646.317 125.296C646.594 124.923 646.978 124.635 647.469 124.432C647.96 124.224 648.53 124.12 649.181 124.12C649.832 124.12 650.413 124.227 650.925 124.44C651.442 124.648 651.858 124.941 652.173 125.32C652.488 125.699 652.674 126.139 652.733 126.64L651.533 126.856C651.453 126.349 651.2 125.949 650.773 125.656C650.352 125.357 649.816 125.203 649.165 125.192C648.552 125.176 648.053 125.293 647.669 125.544C647.285 125.789 647.093 126.117 647.093 126.528C647.093 126.757 647.162 126.955 647.301 127.12C647.44 127.28 647.69 127.432 648.053 127.576C648.421 127.72 648.944 127.877 649.621 128.048C650.416 128.251 651.04 128.464 651.493 128.688C651.946 128.912 652.269 129.176 652.461 129.48C652.653 129.784 652.749 130.16 652.749 130.608C652.749 131.424 652.445 132.067 651.837 132.536C651.234 133 650.402 133.232 649.341 133.232Z" fill="#414141"></path> <g clip-path="url(#clip5_11_203606)"> <line x1="56" y1="153.5" x2="695" y2="153.5" stroke="#E0E0E0"></line> </g> </g> <g opacity="0.5"> <g clip-path="url(#clip6_11_203606)"> <g clip-path="url(#clip7_11_203606)"> <rect x="375.086" y="331.982" width="134" height="191" rx="11.8193" fill="#E0E0E0"></rect> </g> </g> <g clip-path="url(#clip8_11_203606)"> <g clip-path="url(#clip9_11_203606)"> <rect x="520.857" y="356.205" width="134" height="127" rx="11.8193" fill="#E0E0E0"></rect> </g> </g> <g clip-path="url(#clip10_11_203606)"> <g clip-path="url(#clip11_11_203606)"> <rect x="375.086" y="196" width="134" height="124" rx="11.8193" fill="#E0E0E0"></rect> <g filter="url(#filter4_b_11_203606)"> <rect x="382.966" y="203.88" width="63.8193" height="23.9398" rx="5.90964" fill="white"></rect> <g filter="url(#filter5_b_11_203606)"> <g clip-path="url(#clip12_11_203606)"> <rect x="388.875" y="203.88" width="52" height="23.9398" rx="5.90964" fill="white"></rect> <path d="M393.182 221.056C392.497 221.056 391.9 220.884 391.389 220.539C390.879 220.194 390.484 219.726 390.204 219.133C389.923 218.54 389.783 217.871 389.783 217.126C389.783 216.373 389.923 215.701 390.204 215.113C390.489 214.52 390.891 214.054 391.41 213.714C391.93 213.369 392.541 213.196 393.244 213.196C393.952 213.196 394.545 213.369 395.023 213.714C395.505 214.054 395.871 214.52 396.119 215.113C396.367 215.706 396.491 216.377 396.491 217.126C396.491 217.866 396.367 218.535 396.119 219.133C395.871 219.726 395.501 220.194 395.009 220.539C394.517 220.884 393.908 221.056 393.182 221.056ZM393.437 219.567C393.883 219.567 394.241 219.466 394.513 219.264C394.788 219.057 394.988 218.77 395.113 218.402C395.241 218.034 395.306 217.609 395.306 217.126C395.306 216.639 395.241 216.214 395.113 215.851C394.988 215.483 394.793 215.198 394.526 214.996C394.26 214.789 393.915 214.686 393.492 214.686C393.046 214.686 392.679 214.796 392.389 215.017C392.1 215.233 391.886 215.527 391.748 215.899C391.61 216.267 391.541 216.676 391.541 217.126C391.541 217.581 391.608 217.995 391.741 218.367C391.879 218.735 392.088 219.027 392.368 219.243C392.649 219.459 393.005 219.567 393.437 219.567ZM395.306 220.849V215.623H395.099V210.921H396.774V220.849H395.306ZM401.651 221.056C400.732 221.056 399.985 220.849 399.41 220.436C398.836 220.022 398.487 219.441 398.362 218.691L400.058 218.429C400.146 218.797 400.339 219.087 400.638 219.298C400.936 219.51 401.313 219.615 401.768 219.615C402.168 219.615 402.476 219.537 402.692 219.381C402.913 219.22 403.023 219.002 403.023 218.726C403.023 218.556 402.982 218.42 402.899 218.319C402.821 218.213 402.646 218.112 402.375 218.016C402.104 217.919 401.688 217.797 401.127 217.65C400.502 217.485 400.006 217.308 399.638 217.119C399.27 216.926 399.006 216.699 398.845 216.437C398.684 216.175 398.604 215.858 398.604 215.485C398.604 215.021 398.726 214.617 398.969 214.272C399.213 213.927 399.553 213.663 399.99 213.479C400.426 213.291 400.941 213.196 401.534 213.196C402.113 213.196 402.626 213.286 403.071 213.465C403.522 213.645 403.885 213.9 404.161 214.231C404.437 214.562 404.607 214.95 404.671 215.396L402.975 215.699C402.934 215.382 402.789 215.131 402.541 214.948C402.297 214.764 401.971 214.66 401.562 214.637C401.171 214.614 400.856 214.674 400.617 214.817C400.378 214.955 400.258 215.15 400.258 215.403C400.258 215.545 400.307 215.667 400.403 215.768C400.5 215.869 400.693 215.97 400.982 216.071C401.277 216.173 401.713 216.297 402.292 216.444C402.885 216.595 403.359 216.77 403.713 216.968C404.071 217.161 404.329 217.393 404.485 217.664C404.646 217.935 404.726 218.264 404.726 218.65C404.726 219.399 404.453 219.988 403.906 220.415C403.363 220.843 402.612 221.056 401.651 221.056ZM409.291 221.056C408.606 221.056 408.008 220.884 407.498 220.539C406.988 220.194 406.592 219.726 406.312 219.133C406.032 218.54 405.892 217.871 405.892 217.126C405.892 216.373 406.032 215.701 406.312 215.113C406.597 214.52 406.999 214.054 407.519 213.714C408.038 213.369 408.649 213.196 409.353 213.196C410.06 213.196 410.653 213.369 411.131 213.714C411.614 214.054 411.979 214.52 412.228 215.113C412.476 215.706 412.6 216.377 412.6 217.126C412.6 217.866 412.476 218.535 412.228 219.133C411.979 219.726 411.609 220.194 411.118 220.539C410.626 220.884 410.017 221.056 409.291 221.056ZM409.546 219.567C409.992 219.567 410.35 219.466 410.621 219.264C410.897 219.057 411.097 218.77 411.221 218.402C411.35 218.034 411.414 217.609 411.414 217.126C411.414 216.639 411.35 216.214 411.221 215.851C411.097 215.483 410.902 215.198 410.635 214.996C410.368 214.789 410.024 214.686 409.601 214.686C409.155 214.686 408.787 214.796 408.498 215.017C408.208 215.233 407.994 215.527 407.856 215.899C407.719 216.267 407.65 216.676 407.65 217.126C407.65 217.581 407.716 217.995 407.85 218.367C407.987 218.735 408.197 219.027 408.477 219.243C408.757 219.459 409.114 219.567 409.546 219.567ZM411.414 220.849V215.623H411.207V210.921H412.883V220.849H411.414ZM417.76 221.056C416.84 221.056 416.093 220.849 415.519 220.436C414.944 220.022 414.595 219.441 414.471 218.691L416.167 218.429C416.254 218.797 416.447 219.087 416.746 219.298C417.045 219.51 417.422 219.615 417.877 219.615C418.277 219.615 418.585 219.537 418.801 219.381C419.021 219.22 419.132 219.002 419.132 218.726C419.132 218.556 419.09 218.42 419.008 218.319C418.929 218.213 418.755 218.112 418.484 218.016C418.212 217.919 417.796 217.797 417.236 217.65C416.611 217.485 416.114 217.308 415.746 217.119C415.379 216.926 415.114 216.699 414.954 216.437C414.793 216.175 414.712 215.858 414.712 215.485C414.712 215.021 414.834 214.617 415.078 214.272C415.321 213.927 415.661 213.663 416.098 213.479C416.535 213.291 417.05 213.196 417.642 213.196C418.222 213.196 418.734 213.286 419.18 213.465C419.63 213.645 419.994 213.9 420.269 214.231C420.545 214.562 420.715 214.95 420.78 215.396L419.083 215.699C419.042 215.382 418.897 215.131 418.649 214.948C418.405 214.764 418.079 214.66 417.67 214.637C417.279 214.614 416.965 214.674 416.725 214.817C416.486 214.955 416.367 215.15 416.367 215.403C416.367 215.545 416.415 215.667 416.512 215.768C416.608 215.869 416.801 215.97 417.091 216.071C417.385 216.173 417.822 216.297 418.401 216.444C418.994 216.595 419.467 216.77 419.821 216.968C420.18 217.161 420.437 217.393 420.593 217.664C420.754 217.935 420.835 218.264 420.835 218.65C420.835 219.399 420.561 219.988 420.014 220.415C419.472 220.843 418.72 221.056 417.76 221.056ZM425.399 221.056C424.714 221.056 424.117 220.884 423.607 220.539C423.096 220.194 422.701 219.726 422.421 219.133C422.14 218.54 422 217.871 422 217.126C422 216.373 422.14 215.701 422.421 215.113C422.706 214.52 423.108 214.054 423.627 213.714C424.147 213.369 424.758 213.196 425.461 213.196C426.169 213.196 426.762 213.369 427.24 213.714C427.723 214.054 428.088 214.52 428.336 215.113C428.584 215.706 428.708 216.377 428.708 217.126C428.708 217.866 428.584 218.535 428.336 219.133C428.088 219.726 427.718 220.194 427.226 220.539C426.734 220.884 426.125 221.056 425.399 221.056ZM425.654 219.567C426.1 219.567 426.459 219.466 426.73 219.264C427.006 219.057 427.205 218.77 427.33 218.402C427.458 218.034 427.523 217.609 427.523 217.126C427.523 216.639 427.458 216.214 427.33 215.851C427.205 215.483 427.01 215.198 426.744 214.996C426.477 214.789 426.132 214.686 425.709 214.686C425.264 214.686 424.896 214.796 424.606 215.017C424.317 215.233 424.103 215.527 423.965 215.899C423.827 216.267 423.758 216.676 423.758 217.126C423.758 217.581 423.825 217.995 423.958 218.367C424.096 218.735 424.305 219.027 424.586 219.243C424.866 219.459 425.222 219.567 425.654 219.567ZM427.523 220.849V215.623H427.316V210.921H428.991V220.849H427.523ZM431.641 220.849V213.286C431.641 213.098 431.648 212.891 431.662 212.666C431.676 212.436 431.715 212.208 431.779 211.983C431.844 211.758 431.961 211.553 432.131 211.369C432.342 211.135 432.57 210.974 432.813 210.887C433.062 210.795 433.305 210.744 433.544 210.735C433.783 210.721 433.992 210.714 434.172 210.714H435.102V212.066H434.241C433.923 212.066 433.687 212.146 433.53 212.307C433.379 212.463 433.303 212.67 433.303 212.928V220.849H431.641ZM430.442 214.706V213.403H435.102V214.706H430.442ZM436.922 220.849V213.286C436.922 213.098 436.928 212.891 436.942 212.666C436.956 212.436 436.995 212.208 437.059 211.983C437.124 211.758 437.241 211.553 437.411 211.369C437.623 211.135 437.85 210.974 438.094 210.887C438.342 210.795 438.585 210.744 438.824 210.735C439.063 210.721 439.273 210.714 439.452 210.714H440.383V212.066H439.521C439.204 212.066 438.967 212.146 438.811 212.307C438.659 212.463 438.583 212.67 438.583 212.928V220.849H436.922ZM435.722 214.706V213.403H440.383V214.706H435.722Z" fill="white"></path> </g> </g> </g> </g> </g> <g clip-path="url(#clip13_11_203606)"> <g clip-path="url(#clip14_11_203606)"> <rect x="522.357" y="197.5" width="131" height="145" rx="10.3193" fill="#C2D8F8" stroke="#1672EC" stroke-width="3"></rect> <rect x="528.737" y="203.88" width="44.3223" height="23.6386" rx="5.90964" fill="#2563EB"></rect> <rect x="534.647" y="203.88" width="32.503" height="23.6386" rx="5.90964" fill="#2563EB"></rect> </g> </g> <g clip-path="url(#clip15_11_203606)"> <g clip-path="url(#clip16_11_203606)"> <rect x="229.315" y="196" width="134" height="158" rx="11.8193" fill="#E0E0E0"></rect> <rect x="237.195" y="203.88" width="44.3223" height="23.6386" rx="5.90964" fill="white"></rect> <rect x="243.104" y="203.88" width="32.503" height="23.6386" rx="5.90964" fill="white"></rect> </g> </g> <g clip-path="url(#clip17_11_203606)"> <g clip-path="url(#clip18_11_203606)"> <rect opacity="0.6" x="229.315" y="365.41" width="134" height="158" rx="11.8193" fill="#E0E0E0"></rect> </g> </g> </g> <g opacity="0.5"> <rect x="99" y="196" width="99.4789" height="15.759" rx="3.93976" fill="#FCD0CF"></rect> <rect opacity="0.64" x="99" y="223.578" width="58.1114" height="15.759" rx="3.93976" fill="#E0E0E0"></rect> <rect opacity="0.48" x="99" y="251.157" width="86.6747" height="15.759" rx="3.93976" fill="#E0E0E0"></rect> <rect x="99" y="298.434" width="73.8705" height="15.759" rx="3.93976" fill="#C5F2C7"></rect> <rect opacity="0.64" x="99" y="326.012" width="89.6295" height="15.759" rx="3.93976" fill="#E0E0E0"></rect> <rect opacity="0.48" x="99" y="353.59" width="89.6295" height="15.759" rx="3.93976" fill="#E0E0E0"></rect> <rect x="99" y="400.867" width="89.6295" height="15.759" rx="3.93976" fill="#FBE5C9"></rect> <rect opacity="0.64" x="99" y="428.446" width="78.7952" height="15.759" rx="3.93976" fill="#E0E0E0"></rect> <rect opacity="0.48" x="99" y="456.024" width="96.5241" height="15.759" rx="3.93976" fill="#E0E0E0"></rect> <rect opacity="0.48" x="99" y="483.602" width="57.1265" height="15.759" rx="3.93976" fill="#E0E0E0"></rect> </g> <path d="M72 32.5H680C688.56 32.5 695.5 39.4396 695.5 48V559.5H56.5V48C56.5 39.4396 63.4396 32.5 72 32.5Z" stroke="#C0C0C0"></path> </g> <rect y="401" width="752" height="168" fill="url(#paint1_linear_11_203606)"></rect> </g> <defs> <filter id="filter0_dd_11_203606" x="22" y="14" width="708" height="596" filterUnits="userSpaceOnUse" color-interpolation-filters="sRGB"> <feFlood flood-opacity="0" result="BackgroundImageFix"></feFlood> <feColorMatrix in="SourceAlpha" type="matrix" values="0 0 0 0 0 0 0 0 0 0 0 0 0 0 0 0 0 0 127 0" result="hardAlpha"></feColorMatrix> <feMorphology radius="2" operator="dilate" in="SourceAlpha" result="effect1_dropShadow_11_203606"></feMorphology> <feOffset dy="16"></feOffset> <feGaussianBlur stdDeviation="16"></feGaussianBlur> <feColorMatrix type="matrix" values="0 0 0 0 0.380392 0 0 0 0 0.380392 0 0 0 0 0.380392 0 0 0 0.1 0"></feColorMatrix> <feBlend mode="multiply" in2="BackgroundImageFix" result="effect1_dropShadow_11_203606"></feBlend> <feColorMatrix in="SourceAlpha" type="matrix" values="0 0 0 0 0 0 0 0 0 0 0 0 0 0 0 0 0 0 127 0" result="hardAlpha"></feColorMatrix> <feMorphology radius="2" operator="dilate" in="SourceAlpha" result="effect2_dropShadow_11_203606"></feMorphology> <feOffset dy="8"></feOffset> <feGaussianBlur stdDeviation="8"></feGaussianBlur> <feColorMatrix type="matrix" values="0 0 0 0 0.380392 0 0 0 0 0.380392 0 0 0 0 0.380392 0 0 0 0.1 0"></feColorMatrix> <feBlend mode="multiply" in2="effect1_dropShadow_11_203606" result="effect2_dropShadow_11_203606"></feBlend> <feBlend mode="normal" in="SourceGraphic" in2="effect2_dropShadow_11_203606" result="shape"></feBlend> </filter> <filter id="filter1_dd_11_203606" x="43" y="23" width="666" height="149" filterUnits="userSpaceOnUse" color-interpolation-filters="sRGB"> <feFlood flood-opacity="0" result="BackgroundImageFix"></feFlood> <feColorMatrix in="SourceAlpha" type="matrix" values="0 0 0 0 0 0 0 0 0 0 0 0 0 0 0 0 0 0 127 0" result="hardAlpha"></feColorMatrix> <feOffset dy="4"></feOffset> <feGaussianBlur stdDeviation="7"></feGaussianBlur> <feColorMatrix type="matrix" values="0 0 0 0 0.380392 0 0 0 0 0.380392 0 0 0 0 0.380392 0 0 0 0.06 0"></feColorMatrix> <feBlend mode="multiply" in2="BackgroundImageFix" result="effect1_dropShadow_11_203606"></feBlend> <feColorMatrix in="SourceAlpha" type="matrix" values="0 0 0 0 0 0 0 0 0 0 0 0 0 0 0 0 0 0 127 0" result="hardAlpha"></feColorMatrix> <feOffset dy="2"></feOffset> <feGaussianBlur stdDeviation="3"></feGaussianBlur> <feColorMatrix type="matrix" values="0 0 0 0 0.380392 0 0 0 0 0.380392 0 0 0 0 0.380392 0 0 0 0.08 0"></feColorMatrix> <feBlend mode="multiply" in2="effect1_dropShadow_11_203606" result="effect2_dropShadow_11_203606"></feBlend> <feBlend mode="normal" in="SourceGraphic" in2="effect2_dropShadow_11_203606" result="shape"></feBlend> </filter> <filter id="filter2_ii_11_203606" x="272" y="49" width="208" height="42" filterUnits="userSpaceOnUse" color-interpolation-filters="sRGB"> <feFlood flood-opacity="0" result="BackgroundImageFix"></feFlood> <feBlend mode="normal" in="SourceGraphic" in2="BackgroundImageFix" result="shape"></feBlend> <feColorMatrix in="SourceAlpha" type="matrix" values="0 0 0 0 0 0 0 0 0 0 0 0 0 0 0 0 0 0 127 0" result="hardAlpha"></feColorMatrix> <feOffset dy="2"></feOffset> <feGaussianBlur stdDeviation="2"></feGaussianBlur> <feComposite in2="hardAlpha" operator="arithmetic" k2="-1" k3="1"></feComposite> <feColorMatrix type="matrix" values="0 0 0 0 0.380392 0 0 0 0 0.380392 0 0 0 0 0.380392 0 0 0 0.2 0"></feColorMatrix> <feBlend mode="multiply" in2="shape" result="effect1_innerShadow_11_203606"></feBlend> <feColorMatrix in="SourceAlpha" type="matrix" values="0 0 0 0 0 0 0 0 0 0 0 0 0 0 0 0 0 0 127 0" result="hardAlpha"></feColorMatrix> <feOffset dy="1"></feOffset> <feGaussianBlur stdDeviation="1"></feGaussianBlur> <feComposite in2="hardAlpha" operator="arithmetic" k2="-1" k3="1"></feComposite> <feColorMatrix type="matrix" values="0 0 0 0 0.380392 0 0 0 0 0.380392 0 0 0 0 0.380392 0 0 0 0.2 0"></feColorMatrix> <feBlend mode="multiply" in2="effect1_innerShadow_11_203606" result="effect2_innerShadow_11_203606"></feBlend> </filter> <filter id="filter3_dd_11_203606" x="632" y="45" width="56" height="56" filterUnits="userSpaceOnUse" color-interpolation-filters="sRGB"> <feFlood flood-opacity="0" result="BackgroundImageFix"></feFlood> <feColorMatrix in="SourceAlpha" type="matrix" values="0 0 0 0 0 0 0 0 0 0 0 0 0 0 0 0 0 0 127 0" result="hardAlpha"></feColorMatrix> <feOffset dy="4"></feOffset> <feGaussianBlur stdDeviation="4"></feGaussianBlur> <feColorMatrix type="matrix" values="0 0 0 0 0.0588235 0 0 0 0 0.337255 0 0 0 0 0.701961 0 0 0 0.18 0"></feColorMatrix> <feBlend mode="multiply" in2="BackgroundImageFix" result="effect1_dropShadow_11_203606"></feBlend> <feColorMatrix in="SourceAlpha" type="matrix" values="0 0 0 0 0 0 0 0 0 0 0 0 0 0 0 0 0 0 127 0" result="hardAlpha"></feColorMatrix> <feOffset dy="2"></feOffset> <feGaussianBlur stdDeviation="2"></feGaussianBlur> <feColorMatrix type="matrix" values="0 0 0 0 0.0588235 0 0 0 0 0.337255 0 0 0 0 0.701961 0 0 0 0.18 0"></feColorMatrix> <feBlend mode="multiply" in2="effect1_dropShadow_11_203606" result="effect2_dropShadow_11_203606"></feBlend> <feBlend mode="normal" in="SourceGraphic" in2="effect2_dropShadow_11_203606" result="shape"></feBlend> </filter> <filter id="filter4_b_11_203606" x="343.568" y="164.482" width="142.615" height="102.735" filterUnits="userSpaceOnUse" color-interpolation-filters="sRGB"> <feFlood flood-opacity="0" result="BackgroundImageFix"></feFlood> <feGaussianBlur in="BackgroundImageFix" stdDeviation="19.6988"></feGaussianBlur> <feComposite in2="SourceAlpha" operator="in" result="effect1_backgroundBlur_11_203606"></feComposite> <feBlend mode="normal" in="SourceGraphic" in2="effect1_backgroundBlur_11_203606" result="shape"></feBlend> </filter> <filter id="filter5_b_11_203606" x="349.478" y="164.482" width="130.795" height="102.735" filterUnits="userSpaceOnUse" color-interpolation-filters="sRGB"> <feFlood flood-opacity="0" result="BackgroundImageFix"></feFlood> <feGaussianBlur in="BackgroundImageFix" stdDeviation="19.6988"></feGaussianBlur> <feComposite in2="SourceAlpha" operator="in" result="effect1_backgroundBlur_11_203606"></feComposite> <feBlend mode="normal" in="SourceGraphic" in2="effect1_backgroundBlur_11_203606" result="shape"></feBlend> </filter> <linearGradient id="paint0_linear_11_203606" x1="376" y1="0" x2="376" y2="568" gradientUnits="userSpaceOnUse"> <stop stop-color="#FAFAFA"></stop> <stop offset="0.703125" stop-color="white"></stop> </linearGradient> <linearGradient id="paint1_linear_11_203606" x1="376" y1="401" x2="376" y2="569" gradientUnits="userSpaceOnUse"> <stop stop-color="white" stop-opacity="0"></stop> <stop offset="0.921875" stop-color="white"></stop> </linearGradient> <clipPath id="clip0_11_203606"> <rect width="752" height="568" rx="20" fill="white"></rect> </clipPath> <clipPath id="clip1_11_203606"> <rect width="24" height="24" fill="white" transform="matrix(-1 0 0 1 576 57)"></rect> </clipPath> <clipPath id="clip2_11_203606"> <rect width="24" height="24" fill="white" transform="translate(600 57)"></rect> </clipPath> <clipPath id="clip3_11_203606"> <rect width="24" height="24" fill="white" transform="translate(648 57)"></rect> </clipPath> <clipPath id="clip4_11_203606"> <rect width="639" height="48" fill="white" transform="translate(56 106)"></rect> </clipPath> <clipPath id="clip5_11_203606"> <rect width="639" height="1" fill="white" transform="translate(56 153)"></rect> </clipPath> <clipPath id="clip6_11_203606"> <rect width="133.952" height="191.199" fill="white" transform="translate(375.086 331.982)"></rect> </clipPath> <clipPath id="clip7_11_203606"> <rect width="134" height="191" fill="white" transform="translate(375.086 331.982)"></rect> </clipPath> <clipPath id="clip8_11_203606"> <rect width="133.952" height="126.795" fill="white" transform="translate(520.857 356.205)"></rect> </clipPath> <clipPath id="clip9_11_203606"> <rect width="134" height="127" fill="white" transform="translate(520.857 356.205)"></rect> </clipPath> <clipPath id="clip10_11_203606"> <rect width="133.952" height="123.982" fill="white" transform="translate(375.086 196)"></rect> </clipPath> <clipPath id="clip11_11_203606"> <rect width="134" height="124" fill="white" transform="translate(375.086 196)"></rect> </clipPath> <clipPath id="clip12_11_203606"> <rect x="388.875" y="203.88" width="52" height="23.9398" rx="5.90964" fill="white"></rect> </clipPath> <clipPath id="clip13_11_203606"> <rect width="133.952" height="148.386" fill="white" transform="translate(520.857 196)"></rect> </clipPath> <clipPath id="clip14_11_203606"> <rect width="134" height="148" fill="white" transform="translate(520.857 196)"></rect> </clipPath> <clipPath id="clip15_11_203606"> <rect width="133.952" height="157.59" fill="white" transform="translate(229.315 196)"></rect> </clipPath> <clipPath id="clip16_11_203606"> <rect width="134" height="158" fill="white" transform="translate(229.315 196)"></rect> </clipPath> <clipPath id="clip17_11_203606"> <rect width="133.952" height="157.59" fill="white" transform="translate(229.315 365.41)"></rect> </clipPath> <clipPath id="clip18_11_203606"> <rect width="134" height="158" fill="white" transform="translate(229.315 365.41)"></rect> </clipPath> </defs> </svg> 