<?xml version="1.0" encoding="UTF-8"?> <svg xmlns="http://www.w3.org/2000/svg" width="673" height="470" viewBox="0 0 673 470" fill="none"> <rect width="673" height="470" fill="white"></rect> <g opacity="0.5"> <g clip-path="url(#clip0_32_226520)"> <g clip-path="url(#clip1_32_226520)"> <rect opacity="0.5" x="326.168" y="72" width="156" height="214" rx="13.8072" fill="#E0E0E0"></rect> </g> </g> <g clip-path="url(#clip2_32_226520)"> <g clip-path="url(#clip3_32_226520)"> <rect opacity="0.5" x="496.457" y="337.952" width="156" height="116" rx="13.8072" fill="#E0E0E0"></rect> </g> </g> <g clip-path="url(#clip4_32_226520)"> <g clip-path="url(#clip5_32_226520)"> <rect opacity="0.5" x="326.168" y="259.819" width="156" height="194" rx="13.8072" fill="#E0E0E0"></rect> <g filter="url(#filter0_b_32_226520)"> <rect x="335.373" y="269.024" width="73.8072" height="27.6024" rx="6.90361" fill="white"></rect> <g filter="url(#filter1_b_32_226520)"> <g clip-path="url(#clip6_32_226520)"> <rect x="342.276" y="269.024" width="60" height="27.6024" rx="6.90361" fill="white"></rect> <path d="M346.934 289.567C346.134 289.567 345.436 289.366 344.84 288.963C344.244 288.56 343.782 288.013 343.455 287.32C343.127 286.627 342.963 285.846 342.963 284.976C342.963 284.096 343.127 283.312 343.455 282.624C343.788 281.932 344.257 281.387 344.864 280.989C345.471 280.587 346.185 280.385 347.007 280.385C347.834 280.385 348.526 280.587 349.085 280.989C349.648 281.387 350.075 281.932 350.365 282.624C350.655 283.317 350.8 284.101 350.8 284.976C350.8 285.841 350.655 286.622 350.365 287.32C350.075 288.013 349.643 288.56 349.069 288.963C348.494 289.366 347.783 289.567 346.934 289.567ZM347.232 287.827C347.753 287.827 348.172 287.709 348.489 287.473C348.811 287.231 349.044 286.896 349.189 286.466C349.34 286.037 349.415 285.54 349.415 284.976C349.415 284.407 349.34 283.91 349.189 283.486C349.044 283.057 348.816 282.724 348.505 282.487C348.193 282.246 347.791 282.125 347.297 282.125C346.776 282.125 346.346 282.254 346.008 282.512C345.67 282.764 345.42 283.108 345.259 283.543C345.098 283.972 345.017 284.45 345.017 284.976C345.017 285.508 345.095 285.991 345.251 286.426C345.412 286.855 345.656 287.196 345.984 287.449C346.311 287.701 346.727 287.827 347.232 287.827ZM349.415 289.325V283.22H349.173V277.727H351.13V289.325H349.415ZM356.828 289.567C355.754 289.567 354.881 289.325 354.21 288.842C353.539 288.359 353.131 287.68 352.986 286.804L354.967 286.498C355.069 286.928 355.295 287.266 355.644 287.513C355.993 287.76 356.433 287.884 356.965 287.884C357.432 287.884 357.792 287.792 358.044 287.61C358.302 287.422 358.431 287.167 358.431 286.845C358.431 286.646 358.382 286.488 358.286 286.37C358.194 286.246 357.99 286.128 357.673 286.015C357.357 285.902 356.871 285.76 356.216 285.588C355.485 285.395 354.905 285.188 354.476 284.968C354.046 284.743 353.738 284.477 353.55 284.171C353.362 283.865 353.268 283.494 353.268 283.059C353.268 282.517 353.41 282.044 353.695 281.642C353.979 281.239 354.377 280.93 354.887 280.715C355.397 280.495 355.998 280.385 356.691 280.385C357.367 280.385 357.966 280.49 358.487 280.699C359.013 280.909 359.437 281.207 359.759 281.593C360.082 281.98 360.28 282.434 360.355 282.955L358.374 283.309C358.326 282.938 358.157 282.646 357.867 282.431C357.582 282.216 357.201 282.095 356.723 282.069C356.267 282.042 355.899 282.112 355.62 282.278C355.34 282.439 355.201 282.667 355.201 282.963C355.201 283.129 355.257 283.271 355.37 283.389C355.483 283.508 355.708 283.626 356.046 283.744C356.39 283.862 356.9 284.007 357.577 284.179C358.269 284.356 358.823 284.56 359.236 284.791C359.655 285.016 359.955 285.288 360.138 285.604C360.326 285.921 360.42 286.305 360.42 286.756C360.42 287.631 360.1 288.319 359.461 288.818C358.828 289.317 357.95 289.567 356.828 289.567ZM365.752 289.567C364.952 289.567 364.254 289.366 363.658 288.963C363.062 288.56 362.6 288.013 362.273 287.32C361.945 286.627 361.781 285.846 361.781 284.976C361.781 284.096 361.945 283.312 362.273 282.624C362.606 281.932 363.075 281.387 363.682 280.989C364.289 280.587 365.003 280.385 365.825 280.385C366.651 280.385 367.344 280.587 367.903 280.989C368.466 281.387 368.893 281.932 369.183 282.624C369.473 283.317 369.618 284.101 369.618 284.976C369.618 285.841 369.473 286.622 369.183 287.32C368.893 288.013 368.461 288.56 367.886 288.963C367.312 289.366 366.6 289.567 365.752 289.567ZM366.05 287.827C366.571 287.827 366.99 287.709 367.307 287.473C367.629 287.231 367.862 286.896 368.007 286.466C368.158 286.037 368.233 285.54 368.233 284.976C368.233 284.407 368.158 283.91 368.007 283.486C367.862 283.057 367.634 282.724 367.323 282.487C367.011 282.246 366.609 282.125 366.115 282.125C365.594 282.125 365.164 282.254 364.826 282.512C364.488 282.764 364.238 283.108 364.077 283.543C363.916 283.972 363.835 284.45 363.835 284.976C363.835 285.508 363.913 285.991 364.069 286.426C364.23 286.855 364.474 287.196 364.802 287.449C365.129 287.701 365.545 287.827 366.05 287.827ZM368.233 289.325V283.22H367.991V277.727H369.948V289.325H368.233ZM375.646 289.567C374.572 289.567 373.699 289.325 373.028 288.842C372.357 288.359 371.949 287.68 371.804 286.804L373.785 286.498C373.887 286.928 374.113 287.266 374.462 287.513C374.811 287.76 375.251 287.884 375.783 287.884C376.25 287.884 376.609 287.792 376.862 287.61C377.12 287.422 377.248 287.167 377.248 286.845C377.248 286.646 377.2 286.488 377.103 286.37C377.012 286.246 376.808 286.128 376.491 286.015C376.175 285.902 375.689 285.76 375.034 285.588C374.303 285.395 373.723 285.188 373.294 284.968C372.864 284.743 372.556 284.477 372.368 284.171C372.18 283.865 372.086 283.494 372.086 283.059C372.086 282.517 372.228 282.044 372.513 281.642C372.797 281.239 373.195 280.93 373.705 280.715C374.215 280.495 374.816 280.385 375.509 280.385C376.185 280.385 376.784 280.49 377.305 280.699C377.831 280.909 378.255 281.207 378.577 281.593C378.9 281.98 379.098 282.434 379.173 282.955L377.192 283.309C377.144 282.938 376.975 282.646 376.685 282.431C376.4 282.216 376.019 282.095 375.541 282.069C375.085 282.042 374.717 282.112 374.438 282.278C374.158 282.439 374.019 282.667 374.019 282.963C374.019 283.129 374.075 283.271 374.188 283.389C374.301 283.508 374.526 283.626 374.864 283.744C375.208 283.862 375.718 284.007 376.395 284.179C377.087 284.356 377.64 284.56 378.054 284.791C378.473 285.016 378.773 285.288 378.956 285.604C379.144 285.921 379.238 286.305 379.238 286.756C379.238 287.631 378.918 288.319 378.279 288.818C377.646 289.317 376.768 289.567 375.646 289.567ZM384.57 289.567C383.77 289.567 383.072 289.366 382.476 288.963C381.88 288.56 381.418 288.013 381.091 287.32C380.763 286.627 380.599 285.846 380.599 284.976C380.599 284.096 380.763 283.312 381.091 282.624C381.423 281.932 381.893 281.387 382.5 280.989C383.107 280.587 383.821 280.385 384.642 280.385C385.469 280.385 386.162 280.587 386.72 280.989C387.284 281.387 387.711 281.932 388.001 282.624C388.291 283.317 388.436 284.101 388.436 284.976C388.436 285.841 388.291 286.622 388.001 287.32C387.711 288.013 387.279 288.56 386.704 288.963C386.13 289.366 385.418 289.567 384.57 289.567ZM384.868 287.827C385.389 287.827 385.808 287.709 386.124 287.473C386.447 287.231 386.68 286.896 386.825 286.466C386.976 286.037 387.051 285.54 387.051 284.976C387.051 284.407 386.976 283.91 386.825 283.486C386.68 283.057 386.452 282.724 386.141 282.487C385.829 282.246 385.426 282.125 384.932 282.125C384.412 282.125 383.982 282.254 383.644 282.512C383.305 282.764 383.056 283.108 382.895 283.543C382.734 283.972 382.653 284.45 382.653 284.976C382.653 285.508 382.731 285.991 382.887 286.426C383.048 286.855 383.292 287.196 383.62 287.449C383.947 287.701 384.363 287.827 384.868 287.827ZM387.051 289.325V283.22H386.809V277.727H388.766V289.325H387.051ZM391.862 289.325V280.49C391.862 280.27 391.87 280.028 391.886 279.765C391.902 279.497 391.948 279.231 392.023 278.968C392.098 278.705 392.235 278.466 392.434 278.251C392.681 277.977 392.947 277.789 393.231 277.687C393.521 277.58 393.806 277.521 394.085 277.51C394.364 277.494 394.609 277.486 394.818 277.486H395.905V279.064H394.899C394.528 279.064 394.252 279.158 394.069 279.346C393.892 279.529 393.803 279.77 393.803 280.071V289.325H391.862ZM390.461 282.149V280.627H395.905V282.149H390.461ZM398.03 289.325V280.49C398.03 280.27 398.039 280.028 398.055 279.765C398.071 279.497 398.116 279.231 398.192 278.968C398.267 278.705 398.404 278.466 398.602 278.251C398.849 277.977 399.115 277.789 399.4 277.687C399.69 277.58 399.974 277.521 400.253 277.51C400.533 277.494 400.777 277.486 400.986 277.486H402.074V279.064H401.067C400.696 279.064 400.42 279.158 400.237 279.346C400.06 279.529 399.972 279.77 399.972 280.071V289.325H398.03ZM396.629 282.149V280.627H402.074V282.149H396.629Z" fill="white"></path> </g> </g> </g> </g> </g> <g clip-path="url(#clip7_32_226520)"> <g clip-path="url(#clip8_32_226520)"> <rect opacity="0.5" x="496.457" y="48" width="156" height="276" rx="13.8072" fill="#E0E0E0"></rect> <rect x="505.662" y="57.2048" width="51.7771" height="27.6145" rx="6.90361" fill="white"></rect> <rect x="512.566" y="57.2048" width="37.9699" height="27.6145" rx="6.90361" fill="white"></rect> </g> </g> <g clip-path="url(#clip9_32_226520)"> <g clip-path="url(#clip10_32_226520)"> <rect opacity="0.5" x="155.879" y="72" width="156" height="184" rx="13.8072" fill="#E0E0E0"></rect> <rect x="165.084" y="81.2048" width="51.7771" height="27.6145" rx="6.90361" fill="white"></rect> <rect x="171.987" y="81.2048" width="37.9699" height="27.6145" rx="6.90361" fill="white"></rect> </g> </g> <g clip-path="url(#clip11_32_226520)"> <g clip-path="url(#clip12_32_226520)"> <rect opacity="0.5" x="155.879" y="269.904" width="156" height="184" rx="13.8072" fill="#E0E0E0"></rect> </g> </g> </g> <g opacity="0.5"> <rect x="20" y="72" width="116.211" height="18.4096" rx="4.60241" fill="#FCD0CF"></rect> <rect opacity="0.64" x="20" y="104.217" width="67.8855" height="18.4096" rx="4.60241" fill="#E0E0E0"></rect> <rect opacity="0.48" x="20" y="136.434" width="101.253" height="18.4096" rx="4.60241" fill="#E0E0E0"></rect> <rect x="20" y="191.663" width="86.2952" height="18.4096" rx="4.60241" fill="#C5F2C7"></rect> <rect opacity="0.64" x="20" y="223.879" width="104.705" height="18.4096" rx="4.60241" fill="#E0E0E0"></rect> <rect opacity="0.48" x="20" y="256.096" width="104.705" height="18.4096" rx="4.60241" fill="#E0E0E0"></rect> <rect x="20" y="311.325" width="104.705" height="18.4096" rx="4.60241" fill="#FBE5C9"></rect> <rect opacity="0.64" x="20" y="343.542" width="92.0482" height="18.4096" rx="4.60241" fill="#E0E0E0"></rect> <rect opacity="0.48" x="20" y="375.759" width="112.759" height="18.4096" rx="4.60241" fill="#E0E0E0"></rect> <rect opacity="0.48" x="20" y="407.976" width="66.7349" height="18.4096" rx="4.60241" fill="#E0E0E0"></rect> </g> <g opacity="0.8"> <path d="M20 20H24V24H20V20Z" fill="#A1A1A1"></path> <path d="M20 26H24V30H20V26Z" fill="#A1A1A1"></path> <path d="M24 32H20V36H24V32Z" fill="#A1A1A1"></path> <path d="M26 20H30V24H26V20Z" fill="#A1A1A1"></path> <path d="M30 26H26V30H30V26Z" fill="#A1A1A1"></path> <path d="M26 32H30V36H26V32Z" fill="#A1A1A1"></path> <path d="M36 20H32V24H36V20Z" fill="#A1A1A1"></path> <path d="M32 26H36V30H32V26Z" fill="#A1A1A1"></path> <path d="M36 32H32V36H36V32Z" fill="#A1A1A1"></path> <path d="M49.4 36V21.6H53.91C54.0433 21.6 54.29 21.6033 54.65 21.61C55.0167 21.6167 55.3667 21.6433 55.7 21.69C56.8267 21.83 57.7733 22.2333 58.54 22.9C59.3133 23.5667 59.8967 24.4133 60.29 25.44C60.6833 26.46 60.88 27.58 60.88 28.8C60.88 30.0267 60.6833 31.1533 60.29 32.18C59.8967 33.2 59.3133 34.0433 58.54 34.71C57.7733 35.37 56.8267 35.77 55.7 35.91C55.3667 35.9567 55.0167 35.9833 54.65 35.99C54.29 35.9967 54.0433 36 53.91 36H49.4ZM51.54 34.01H53.91C54.1367 34.01 54.4067 34.0033 54.72 33.99C55.0333 33.9767 55.31 33.95 55.55 33.91C56.2833 33.77 56.8767 33.4533 57.33 32.96C57.79 32.46 58.1267 31.8467 58.34 31.12C58.5533 30.3933 58.66 29.62 58.66 28.8C58.66 27.9533 58.55 27.17 58.33 26.45C58.11 25.7233 57.77 25.1167 57.31 24.63C56.8567 24.1367 56.27 23.8233 55.55 23.69C55.31 23.6433 55.03 23.6167 54.71 23.61C54.3967 23.5967 54.13 23.59 53.91 23.59H51.54V34.01ZM66.4086 36.3C65.6086 36.3 64.9386 36.1533 64.3986 35.86C63.8586 35.56 63.4486 35.1667 63.1686 34.68C62.8953 34.1867 62.7586 33.6467 62.7586 33.06C62.7586 32.5133 62.8553 32.0333 63.0486 31.62C63.2419 31.2067 63.5286 30.8567 63.9086 30.57C64.2886 30.2767 64.7553 30.04 65.3086 29.86C65.7886 29.72 66.3319 29.5967 66.9386 29.49C67.5453 29.3833 68.1819 29.2833 68.8486 29.19C69.5219 29.0967 70.1886 29.0033 70.8486 28.91L70.0886 29.33C70.1019 28.4833 69.9219 27.8567 69.5486 27.45C69.1819 27.0367 68.5486 26.83 67.6486 26.83C67.0819 26.83 66.5619 26.9633 66.0886 27.23C65.6153 27.49 65.2853 27.9233 65.0986 28.53L63.1486 27.93C63.4153 27.0033 63.9219 26.2667 64.6686 25.72C65.4219 25.1733 66.4219 24.9 67.6686 24.9C68.6353 24.9 69.4753 25.0667 70.1886 25.4C70.9086 25.7267 71.4353 26.2467 71.7686 26.96C71.9419 27.3133 72.0486 27.6867 72.0886 28.08C72.1286 28.4733 72.1486 28.8967 72.1486 29.35V36H70.2986V33.53L70.6586 33.85C70.2119 34.6767 69.6419 35.2933 68.9486 35.7C68.2619 36.1 67.4153 36.3 66.4086 36.3ZM66.7786 34.59C67.3719 34.59 67.8819 34.4867 68.3086 34.28C68.7353 34.0667 69.0786 33.7967 69.3386 33.47C69.5986 33.1433 69.7686 32.8033 69.8486 32.45C69.9619 32.13 70.0253 31.77 70.0386 31.37C70.0586 30.97 70.0686 30.65 70.0686 30.41L70.7486 30.66C70.0886 30.76 69.4886 30.85 68.9486 30.93C68.4086 31.01 67.9186 31.09 67.4786 31.17C67.0453 31.2433 66.6586 31.3333 66.3186 31.44C66.0319 31.54 65.7753 31.66 65.5486 31.8C65.3286 31.94 65.1519 32.11 65.0186 32.31C64.8919 32.51 64.8286 32.7533 64.8286 33.04C64.8286 33.32 64.8986 33.58 65.0386 33.82C65.1786 34.0533 65.3919 34.24 65.6786 34.38C65.9653 34.52 66.3319 34.59 66.7786 34.59ZM79.0253 36.29C77.712 36.29 76.642 36 75.8153 35.42C74.9886 34.84 74.482 34.0233 74.2953 32.97L76.4353 32.64C76.5686 33.2 76.8753 33.6433 77.3553 33.97C77.842 34.29 78.4453 34.45 79.1653 34.45C79.8186 34.45 80.3286 34.3167 80.6953 34.05C81.0686 33.7833 81.2553 33.4167 81.2553 32.95C81.2553 32.6767 81.1886 32.4567 81.0553 32.29C80.9286 32.1167 80.6586 31.9533 80.2453 31.8C79.832 31.6467 79.202 31.4567 78.3553 31.23C77.4286 30.99 76.692 30.7333 76.1453 30.46C75.6053 30.18 75.2186 29.8567 74.9853 29.49C74.7586 29.1167 74.6453 28.6667 74.6453 28.14C74.6453 27.4867 74.8186 26.9167 75.1653 26.43C75.512 25.9433 75.9986 25.5667 76.6253 25.3C77.2586 25.0333 77.9986 24.9 78.8453 24.9C79.672 24.9 80.4086 25.03 81.0553 25.29C81.702 25.55 82.2253 25.92 82.6253 26.4C83.0253 26.8733 83.2653 27.43 83.3453 28.07L81.2053 28.46C81.132 27.94 80.8886 27.53 80.4753 27.23C80.062 26.93 79.5253 26.7667 78.8653 26.74C78.232 26.7133 77.7186 26.82 77.3253 27.06C76.932 27.2933 76.7353 27.6167 76.7353 28.03C76.7353 28.27 76.8086 28.4733 76.9553 28.64C77.1086 28.8067 77.402 28.9667 77.8353 29.12C78.2686 29.2733 78.9086 29.4567 79.7553 29.67C80.662 29.9033 81.382 30.1633 81.9153 30.45C82.4486 30.73 82.8286 31.0667 83.0553 31.46C83.2886 31.8467 83.4053 32.3167 83.4053 32.87C83.4053 33.9367 83.0153 34.7733 82.2353 35.38C81.462 35.9867 80.392 36.29 79.0253 36.29ZM93.348 36V30.69C93.348 30.27 93.3113 29.84 93.238 29.4C93.1713 28.9533 93.038 28.54 92.838 28.16C92.6446 27.78 92.368 27.4733 92.008 27.24C91.6546 27.0067 91.1913 26.89 90.618 26.89C90.2446 26.89 89.8913 26.9533 89.558 27.08C89.2246 27.2 88.9313 27.3967 88.678 27.67C88.4313 27.9433 88.2346 28.3033 88.088 28.75C87.948 29.1967 87.878 29.74 87.878 30.38L86.578 29.89C86.578 28.91 86.7613 28.0467 87.128 27.3C87.4946 26.5467 88.0213 25.96 88.708 25.54C89.3946 25.12 90.2246 24.91 91.198 24.91C91.9446 24.91 92.5713 25.03 93.078 25.27C93.5846 25.51 93.9946 25.8267 94.308 26.22C94.628 26.6067 94.8713 27.03 95.038 27.49C95.2046 27.95 95.318 28.4 95.378 28.84C95.438 29.28 95.468 29.6667 95.468 30V36H93.348ZM85.758 36V21.6H87.628V29.37H87.878V36H85.758ZM103.293 36.3C102.259 36.3 101.393 36.05 100.693 35.55C99.9927 35.0433 99.4627 34.36 99.1027 33.5C98.7427 32.64 98.5627 31.67 98.5627 30.59C98.5627 29.51 98.7393 28.54 99.0927 27.68C99.4527 26.82 99.9793 26.1433 100.673 25.65C101.373 25.15 102.233 24.9 103.253 24.9C104.266 24.9 105.139 25.15 105.873 25.65C106.613 26.1433 107.183 26.82 107.583 27.68C107.983 28.5333 108.183 29.5033 108.183 30.59C108.183 31.67 107.983 32.6433 107.583 33.51C107.189 34.37 106.626 35.05 105.893 35.55C105.166 36.05 104.299 36.3 103.293 36.3ZM98.2127 36V21.6H100.313V28.23H100.073V36H98.2127ZM103.003 34.41C103.669 34.41 104.219 34.24 104.653 33.9C105.093 33.56 105.419 33.1033 105.633 32.53C105.853 31.95 105.963 31.3033 105.963 30.59C105.963 29.8833 105.853 29.2433 105.633 28.67C105.419 28.0967 105.089 27.64 104.643 27.3C104.196 26.96 103.626 26.79 102.933 26.79C102.279 26.79 101.739 26.95 101.313 27.27C100.893 27.59 100.579 28.0367 100.373 28.61C100.173 29.1833 100.073 29.8433 100.073 30.59C100.073 31.3367 100.173 31.9967 100.373 32.57C100.573 33.1433 100.889 33.5933 101.323 33.92C101.756 34.2467 102.316 34.41 103.003 34.41ZM115.231 36.3C114.151 36.3 113.214 36.0567 112.421 35.57C111.627 35.0833 111.014 34.4133 110.581 33.56C110.154 32.7 109.941 31.71 109.941 30.59C109.941 29.4633 110.161 28.4733 110.601 27.62C111.041 26.76 111.657 26.0933 112.451 25.62C113.244 25.14 114.171 24.9 115.231 24.9C116.311 24.9 117.247 25.1433 118.041 25.63C118.834 26.1167 119.447 26.7867 119.881 27.64C120.314 28.4933 120.531 29.4767 120.531 30.59C120.531 31.7167 120.311 32.71 119.871 33.57C119.437 34.4233 118.824 35.0933 118.031 35.58C117.237 36.06 116.304 36.3 115.231 36.3ZM115.231 34.33C116.264 34.33 117.034 33.9833 117.541 33.29C118.054 32.59 118.311 31.69 118.311 30.59C118.311 29.4633 118.051 28.5633 117.531 27.89C117.017 27.21 116.251 26.87 115.231 26.87C114.531 26.87 113.954 27.03 113.501 27.35C113.047 27.6633 112.711 28.1 112.491 28.66C112.271 29.2133 112.161 29.8567 112.161 30.59C112.161 31.7233 112.421 32.63 112.941 33.31C113.461 33.99 114.224 34.33 115.231 34.33ZM125.928 36.3C125.128 36.3 124.458 36.1533 123.918 35.86C123.378 35.56 122.968 35.1667 122.688 34.68C122.415 34.1867 122.278 33.6467 122.278 33.06C122.278 32.5133 122.375 32.0333 122.568 31.62C122.761 31.2067 123.048 30.8567 123.428 30.57C123.808 30.2767 124.275 30.04 124.828 29.86C125.308 29.72 125.851 29.5967 126.458 29.49C127.065 29.3833 127.701 29.2833 128.368 29.19C129.041 29.0967 129.708 29.0033 130.368 28.91L129.608 29.33C129.621 28.4833 129.441 27.8567 129.068 27.45C128.701 27.0367 128.068 26.83 127.168 26.83C126.601 26.83 126.081 26.9633 125.608 27.23C125.135 27.49 124.805 27.9233 124.618 28.53L122.668 27.93C122.935 27.0033 123.441 26.2667 124.188 25.72C124.941 25.1733 125.941 24.9 127.188 24.9C128.155 24.9 128.995 25.0667 129.708 25.4C130.428 25.7267 130.955 26.2467 131.288 26.96C131.461 27.3133 131.568 27.6867 131.608 28.08C131.648 28.4733 131.668 28.8967 131.668 29.35V36H129.818V33.53L130.178 33.85C129.731 34.6767 129.161 35.2933 128.468 35.7C127.781 36.1 126.935 36.3 125.928 36.3ZM126.298 34.59C126.891 34.59 127.401 34.4867 127.828 34.28C128.255 34.0667 128.598 33.7967 128.858 33.47C129.118 33.1433 129.288 32.8033 129.368 32.45C129.481 32.13 129.545 31.77 129.558 31.37C129.578 30.97 129.588 30.65 129.588 30.41L130.268 30.66C129.608 30.76 129.008 30.85 128.468 30.93C127.928 31.01 127.438 31.09 126.998 31.17C126.565 31.2433 126.178 31.3333 125.838 31.44C125.551 31.54 125.295 31.66 125.068 31.8C124.848 31.94 124.671 32.11 124.538 32.31C124.411 32.51 124.348 32.7533 124.348 33.04C124.348 33.32 124.418 33.58 124.558 33.82C124.698 34.0533 124.911 34.24 125.198 34.38C125.485 34.52 125.851 34.59 126.298 34.59ZM134.415 36V25.2H136.275V27.82L136.015 27.48C136.148 27.1333 136.322 26.8167 136.535 26.53C136.748 26.2367 136.995 25.9967 137.275 25.81C137.548 25.61 137.852 25.4567 138.185 25.35C138.525 25.2367 138.872 25.17 139.225 25.15C139.578 25.1233 139.918 25.14 140.245 25.2V27.16C139.892 27.0667 139.498 27.04 139.065 27.08C138.638 27.12 138.245 27.2567 137.885 27.49C137.545 27.71 137.275 27.9767 137.075 28.29C136.882 28.6033 136.742 28.9533 136.655 29.34C136.568 29.72 136.525 30.1233 136.525 30.55V36H134.415ZM146.394 36.3C145.387 36.3 144.517 36.05 143.784 35.55C143.057 35.05 142.494 34.37 142.094 33.51C141.701 32.6433 141.504 31.67 141.504 30.59C141.504 29.5033 141.704 28.5333 142.104 27.68C142.504 26.82 143.071 26.1433 143.804 25.65C144.544 25.15 145.421 24.9 146.434 24.9C147.454 24.9 148.311 25.15 149.004 25.65C149.704 26.1433 150.231 26.82 150.584 27.68C150.944 28.54 151.124 29.51 151.124 30.59C151.124 31.67 150.944 32.64 150.584 33.5C150.224 34.36 149.694 35.0433 148.994 35.55C148.294 36.05 147.427 36.3 146.394 36.3ZM146.684 34.41C147.371 34.41 147.931 34.2467 148.364 33.92C148.797 33.5933 149.114 33.1433 149.314 32.57C149.514 31.9967 149.614 31.3367 149.614 30.59C149.614 29.8433 149.511 29.1833 149.304 28.61C149.104 28.0367 148.791 27.59 148.364 27.27C147.944 26.95 147.407 26.79 146.754 26.79C146.061 26.79 145.491 26.96 145.044 27.3C144.597 27.64 144.264 28.0967 144.044 28.67C143.831 29.2433 143.724 29.8833 143.724 30.59C143.724 31.3033 143.831 31.95 144.044 32.53C144.264 33.1033 144.591 33.56 145.024 33.9C145.464 34.24 146.017 34.41 146.684 34.41ZM149.614 36V28.23H149.374V21.6H151.474V36H149.614Z" fill="#818181"></path> <path d="M169 22.3432L170.414 20.929L177.485 28L170.414 35.0711L169 33.6569L174.657 28L169 22.3432Z" fill="#A1A1A1"></path> </g> <g opacity="0.8"> <path d="M199.62 36.3C198.587 36.3 197.653 36.1233 196.82 35.77C195.993 35.41 195.31 34.9 194.77 34.24C194.237 33.5733 193.89 32.7833 193.73 31.87L195.91 31.54C196.13 32.42 196.59 33.1067 197.29 33.6C197.99 34.0867 198.807 34.33 199.74 34.33C200.32 34.33 200.853 34.24 201.34 34.06C201.827 33.8733 202.217 33.61 202.51 33.27C202.81 32.9233 202.96 32.51 202.96 32.03C202.96 31.77 202.913 31.54 202.82 31.34C202.733 31.14 202.61 30.9667 202.45 30.82C202.297 30.6667 202.107 30.5367 201.88 30.43C201.66 30.3167 201.417 30.22 201.15 30.14L197.46 29.05C197.1 28.9433 196.733 28.8067 196.36 28.64C195.987 28.4667 195.643 28.2433 195.33 27.97C195.023 27.69 194.773 27.3467 194.58 26.94C194.387 26.5267 194.29 26.0267 194.29 25.44C194.29 24.5533 194.517 23.8033 194.97 23.19C195.43 22.57 196.05 22.1033 196.83 21.79C197.61 21.47 198.483 21.31 199.45 21.31C200.423 21.3233 201.293 21.4967 202.06 21.83C202.833 22.1633 203.473 22.6433 203.98 23.27C204.493 23.89 204.847 24.6433 205.04 25.53L202.8 25.91C202.7 25.37 202.487 24.9067 202.16 24.52C201.833 24.1267 201.433 23.8267 200.96 23.62C200.487 23.4067 199.973 23.2967 199.42 23.29C198.887 23.2767 198.397 23.3567 197.95 23.53C197.51 23.7033 197.157 23.9467 196.89 24.26C196.63 24.5733 196.5 24.9333 196.5 25.34C196.5 25.74 196.617 26.0633 196.85 26.31C197.083 26.5567 197.37 26.7533 197.71 26.9C198.057 27.04 198.4 27.1567 198.74 27.25L201.4 28C201.733 28.0933 202.11 28.22 202.53 28.38C202.957 28.5333 203.367 28.75 203.76 29.03C204.16 29.31 204.49 29.6833 204.75 30.15C205.01 30.61 205.14 31.19 205.14 31.89C205.14 32.6167 204.993 33.2567 204.7 33.81C204.407 34.3567 204.003 34.8167 203.49 35.19C202.983 35.5567 202.397 35.8333 201.73 36.02C201.063 36.2067 200.36 36.3 199.62 36.3ZM212.211 36.3C211.138 36.3 210.194 36.0667 209.381 35.6C208.574 35.1267 207.944 34.47 207.491 33.63C207.044 32.7833 206.821 31.8033 206.821 30.69C206.821 29.51 207.041 28.4867 207.481 27.62C207.928 26.7533 208.548 26.0833 209.341 25.61C210.134 25.1367 211.058 24.9 212.111 24.9C213.211 24.9 214.148 25.1567 214.921 25.67C215.694 26.1767 216.271 26.9 216.651 27.84C217.038 28.78 217.191 29.8967 217.111 31.19H215.021V30.43C215.008 29.1767 214.768 28.25 214.301 27.65C213.841 27.05 213.138 26.75 212.191 26.75C211.144 26.75 210.358 27.08 209.831 27.74C209.304 28.4 209.041 29.3533 209.041 30.6C209.041 31.7867 209.304 32.7067 209.831 33.36C210.358 34.0067 211.118 34.33 212.111 34.33C212.764 34.33 213.328 34.1833 213.801 33.89C214.281 33.59 214.654 33.1633 214.921 32.61L216.971 33.26C216.551 34.2267 215.914 34.9767 215.061 35.51C214.208 36.0367 213.258 36.3 212.211 36.3ZM208.361 31.19V29.56H216.071V31.19H208.361ZM225.685 36C225.005 36.1333 224.338 36.19 223.685 36.17C223.031 36.15 222.448 36.0233 221.935 35.79C221.421 35.5567 221.035 35.19 220.775 34.69C220.541 34.2433 220.415 33.79 220.395 33.33C220.381 32.8633 220.375 32.3367 220.375 31.75V22.2H222.475V31.65C222.475 32.0833 222.478 32.46 222.485 32.78C222.498 33.1 222.568 33.37 222.695 33.59C222.935 34.0033 223.315 34.24 223.835 34.3C224.361 34.3533 224.978 34.33 225.685 34.23V36ZM218.305 26.88V25.2H225.685V26.88H218.305ZM234.292 36C233.612 36.1333 232.945 36.19 232.292 36.17C231.638 36.15 231.055 36.0233 230.542 35.79C230.028 35.5567 229.642 35.19 229.382 34.69C229.148 34.2433 229.022 33.79 229.002 33.33C228.988 32.8633 228.982 32.3367 228.982 31.75V22.2H231.082V31.65C231.082 32.0833 231.085 32.46 231.092 32.78C231.105 33.1 231.175 33.37 231.302 33.59C231.542 34.0033 231.922 34.24 232.442 34.3C232.968 34.3533 233.585 34.33 234.292 34.23V36ZM226.912 26.88V25.2H234.292V26.88H226.912ZM236.919 23.43V21.4H239.009V23.43H236.919ZM236.919 36V25.2H239.009V36H236.919ZM249.742 36V30.69C249.742 30.27 249.705 29.84 249.632 29.4C249.565 28.9533 249.432 28.54 249.232 28.16C249.038 27.78 248.762 27.4733 248.402 27.24C248.048 27.0067 247.585 26.89 247.012 26.89C246.638 26.89 246.285 26.9533 245.952 27.08C245.618 27.2 245.325 27.3967 245.072 27.67C244.825 27.9433 244.628 28.3033 244.482 28.75C244.342 29.1967 244.272 29.74 244.272 30.38L242.972 29.89C242.972 28.91 243.155 28.0467 243.522 27.3C243.888 26.5467 244.415 25.96 245.102 25.54C245.788 25.12 246.618 24.91 247.592 24.91C248.338 24.91 248.965 25.03 249.472 25.27C249.978 25.51 250.388 25.8267 250.702 26.22C251.022 26.6067 251.265 27.03 251.432 27.49C251.598 27.95 251.712 28.4 251.772 28.84C251.832 29.28 251.862 29.6667 251.862 30V36H249.742ZM242.152 36V25.2H244.022V28.32H244.272V36H242.152ZM259.066 41.1C258.486 41.1 257.923 41.01 257.376 40.83C256.836 40.65 256.343 40.3833 255.896 40.03C255.45 39.6833 255.08 39.2533 254.786 38.74L256.716 37.76C256.95 38.22 257.283 38.5567 257.716 38.77C258.15 38.9833 258.606 39.09 259.086 39.09C259.68 39.09 260.186 38.9833 260.606 38.77C261.026 38.5633 261.343 38.25 261.556 37.83C261.776 37.41 261.883 36.89 261.876 36.27V33.25H262.126V25.2H263.976V36.29C263.976 36.5767 263.966 36.85 263.946 37.11C263.926 37.37 263.89 37.63 263.836 37.89C263.683 38.6167 263.39 39.2167 262.956 39.69C262.53 40.1633 261.983 40.5167 261.316 40.75C260.656 40.9833 259.906 41.1 259.066 41.1ZM258.906 36.3C257.9 36.3 257.03 36.05 256.296 35.55C255.57 35.05 255.006 34.37 254.606 33.51C254.213 32.6433 254.016 31.67 254.016 30.59C254.016 29.5033 254.216 28.5333 254.616 27.68C255.016 26.82 255.583 26.1433 256.316 25.65C257.056 25.15 257.933 24.9 258.946 24.9C259.966 24.9 260.823 25.15 261.516 25.65C262.216 26.1433 262.743 26.82 263.096 27.68C263.456 28.54 263.636 29.51 263.636 30.59C263.636 31.67 263.456 32.64 263.096 33.5C262.736 34.36 262.206 35.0433 261.506 35.55C260.806 36.05 259.94 36.3 258.906 36.3ZM259.196 34.41C259.883 34.41 260.443 34.2467 260.876 33.92C261.31 33.5933 261.626 33.1433 261.826 32.57C262.026 31.9967 262.126 31.3367 262.126 30.59C262.126 29.8433 262.023 29.1833 261.816 28.61C261.616 28.0367 261.303 27.59 260.876 27.27C260.456 26.95 259.92 26.79 259.266 26.79C258.573 26.79 258.003 26.96 257.556 27.3C257.11 27.64 256.776 28.0967 256.556 28.67C256.343 29.2433 256.236 29.8833 256.236 30.59C256.236 31.3033 256.343 31.95 256.556 32.53C256.776 33.1033 257.103 33.56 257.536 33.9C257.976 34.24 258.53 34.41 259.196 34.41ZM271.064 36.29C269.751 36.29 268.681 36 267.854 35.42C267.028 34.84 266.521 34.0233 266.334 32.97L268.474 32.64C268.608 33.2 268.914 33.6433 269.394 33.97C269.881 34.29 270.484 34.45 271.204 34.45C271.858 34.45 272.368 34.3167 272.734 34.05C273.108 33.7833 273.294 33.4167 273.294 32.95C273.294 32.6767 273.228 32.4567 273.094 32.29C272.968 32.1167 272.698 31.9533 272.284 31.8C271.871 31.6467 271.241 31.4567 270.394 31.23C269.468 30.99 268.731 30.7333 268.184 30.46C267.644 30.18 267.258 29.8567 267.024 29.49C266.798 29.1167 266.684 28.6667 266.684 28.14C266.684 27.4867 266.858 26.9167 267.204 26.43C267.551 25.9433 268.038 25.5667 268.664 25.3C269.298 25.0333 270.038 24.9 270.884 24.9C271.711 24.9 272.448 25.03 273.094 25.29C273.741 25.55 274.264 25.92 274.664 26.4C275.064 26.8733 275.304 27.43 275.384 28.07L273.244 28.46C273.171 27.94 272.928 27.53 272.514 27.23C272.101 26.93 271.564 26.7667 270.904 26.74C270.271 26.7133 269.758 26.82 269.364 27.06C268.971 27.2933 268.774 27.6167 268.774 28.03C268.774 28.27 268.848 28.4733 268.994 28.64C269.148 28.8067 269.441 28.9667 269.874 29.12C270.308 29.2733 270.948 29.4567 271.794 29.67C272.701 29.9033 273.421 30.1633 273.954 30.45C274.488 30.73 274.868 31.0667 275.094 31.46C275.328 31.8467 275.444 32.3167 275.444 32.87C275.444 33.9367 275.054 34.7733 274.274 35.38C273.501 35.9867 272.431 36.29 271.064 36.29Z" fill="#818181"></path> <path d="M293 22.3432L294.414 20.929L301.485 28L294.414 35.0711L293 33.6569L298.657 28L293 22.3432Z" fill="#A1A1A1"></path> </g> <g opacity="0.8"> <path d="M324.14 36.3C323.013 36.3 322.017 36.07 321.15 35.61C320.29 35.1433 319.617 34.4933 319.13 33.66C318.643 32.82 318.4 31.8333 318.4 30.7V21.61L320.52 21.6V30.59C320.52 31.2033 320.623 31.7433 320.83 32.21C321.037 32.6767 321.313 33.0667 321.66 33.38C322.007 33.6933 322.393 33.93 322.82 34.09C323.253 34.25 323.693 34.33 324.14 34.33C324.593 34.33 325.033 34.25 325.46 34.09C325.893 33.9233 326.283 33.6833 326.63 33.37C326.977 33.0567 327.25 32.6667 327.45 32.2C327.657 31.7333 327.76 31.1967 327.76 30.59V21.6H329.88V30.7C329.88 31.8267 329.637 32.81 329.15 33.65C328.663 34.49 327.987 35.1433 327.12 35.61C326.26 36.07 325.267 36.3 324.14 36.3ZM336.957 36.29C335.644 36.29 334.574 36 333.747 35.42C332.921 34.84 332.414 34.0233 332.227 32.97L334.367 32.64C334.501 33.2 334.807 33.6433 335.287 33.97C335.774 34.29 336.377 34.45 337.097 34.45C337.751 34.45 338.261 34.3167 338.627 34.05C339.001 33.7833 339.187 33.4167 339.187 32.95C339.187 32.6767 339.121 32.4567 338.987 32.29C338.861 32.1167 338.591 31.9533 338.177 31.8C337.764 31.6467 337.134 31.4567 336.287 31.23C335.361 30.99 334.624 30.7333 334.077 30.46C333.537 30.18 333.151 29.8567 332.917 29.49C332.691 29.1167 332.577 28.6667 332.577 28.14C332.577 27.4867 332.751 26.9167 333.097 26.43C333.444 25.9433 333.931 25.5667 334.557 25.3C335.191 25.0333 335.931 24.9 336.777 24.9C337.604 24.9 338.341 25.03 338.987 25.29C339.634 25.55 340.157 25.92 340.557 26.4C340.957 26.8733 341.197 27.43 341.277 28.07L339.137 28.46C339.064 27.94 338.821 27.53 338.407 27.23C337.994 26.93 337.457 26.7667 336.797 26.74C336.164 26.7133 335.651 26.82 335.257 27.06C334.864 27.2933 334.667 27.6167 334.667 28.03C334.667 28.27 334.741 28.4733 334.887 28.64C335.041 28.8067 335.334 28.9667 335.767 29.12C336.201 29.2733 336.841 29.4567 337.687 29.67C338.594 29.9033 339.314 30.1633 339.847 30.45C340.381 30.73 340.761 31.0667 340.987 31.46C341.221 31.8467 341.337 32.3167 341.337 32.87C341.337 33.9367 340.947 34.7733 340.167 35.38C339.394 35.9867 338.324 36.29 336.957 36.29ZM348.49 36.3C347.417 36.3 346.473 36.0667 345.66 35.6C344.853 35.1267 344.223 34.47 343.77 33.63C343.323 32.7833 343.1 31.8033 343.1 30.69C343.1 29.51 343.32 28.4867 343.76 27.62C344.207 26.7533 344.827 26.0833 345.62 25.61C346.413 25.1367 347.337 24.9 348.39 24.9C349.49 24.9 350.427 25.1567 351.2 25.67C351.973 26.1767 352.55 26.9 352.93 27.84C353.317 28.78 353.47 29.8967 353.39 31.19H351.3V30.43C351.287 29.1767 351.047 28.25 350.58 27.65C350.12 27.05 349.417 26.75 348.47 26.75C347.423 26.75 346.637 27.08 346.11 27.74C345.583 28.4 345.32 29.3533 345.32 30.6C345.32 31.7867 345.583 32.7067 346.11 33.36C346.637 34.0067 347.397 34.33 348.39 34.33C349.043 34.33 349.607 34.1833 350.08 33.89C350.56 33.59 350.933 33.1633 351.2 32.61L353.25 33.26C352.83 34.2267 352.193 34.9767 351.34 35.51C350.487 36.0367 349.537 36.3 348.49 36.3ZM344.64 31.19V29.56H352.35V31.19H344.64ZM355.784 36V25.2H357.644V27.82L357.384 27.48C357.517 27.1333 357.69 26.8167 357.904 26.53C358.117 26.2367 358.364 25.9967 358.644 25.81C358.917 25.61 359.22 25.4567 359.554 25.35C359.894 25.2367 360.24 25.17 360.594 25.15C360.947 25.1233 361.287 25.14 361.614 25.2V27.16C361.26 27.0667 360.867 27.04 360.434 27.08C360.007 27.12 359.614 27.2567 359.254 27.49C358.914 27.71 358.644 27.9767 358.444 28.29C358.25 28.6033 358.11 28.9533 358.024 29.34C357.937 29.72 357.894 30.1233 357.894 30.55V36H355.784ZM367.407 36.29C366.094 36.29 365.024 36 364.197 35.42C363.371 34.84 362.864 34.0233 362.677 32.97L364.817 32.64C364.951 33.2 365.257 33.6433 365.737 33.97C366.224 34.29 366.827 34.45 367.547 34.45C368.201 34.45 368.711 34.3167 369.077 34.05C369.451 33.7833 369.637 33.4167 369.637 32.95C369.637 32.6767 369.571 32.4567 369.437 32.29C369.311 32.1167 369.041 31.9533 368.627 31.8C368.214 31.6467 367.584 31.4567 366.737 31.23C365.811 30.99 365.074 30.7333 364.527 30.46C363.987 30.18 363.601 29.8567 363.367 29.49C363.141 29.1167 363.027 28.6667 363.027 28.14C363.027 27.4867 363.201 26.9167 363.547 26.43C363.894 25.9433 364.381 25.5667 365.007 25.3C365.641 25.0333 366.381 24.9 367.227 24.9C368.054 24.9 368.791 25.03 369.437 25.29C370.084 25.55 370.607 25.92 371.007 26.4C371.407 26.8733 371.647 27.43 371.727 28.07L369.587 28.46C369.514 27.94 369.271 27.53 368.857 27.23C368.444 26.93 367.907 26.7667 367.247 26.74C366.614 26.7133 366.101 26.82 365.707 27.06C365.314 27.2933 365.117 27.6167 365.117 28.03C365.117 28.27 365.191 28.4733 365.337 28.64C365.491 28.8067 365.784 28.9667 366.217 29.12C366.651 29.2733 367.291 29.4567 368.137 29.67C369.044 29.9033 369.764 30.1633 370.297 30.45C370.831 30.73 371.211 31.0667 371.437 31.46C371.671 31.8467 371.787 32.3167 371.787 32.87C371.787 33.9367 371.397 34.7733 370.617 35.38C369.844 35.9867 368.774 36.29 367.407 36.29Z" fill="#2E41B6"></path> <path d="M386.046 31.3992L381.249 25.9178C380.684 25.2712 381.143 24.2593 382.002 24.2593H391.594C392.454 24.2593 392.913 25.2712 392.347 25.9178L387.551 31.3992C387.152 31.8545 386.444 31.8545 386.046 31.3992Z" fill="#2E41B6"></path> </g> <g opacity="0.8"> <path d="M410.596 22.3432L412.011 20.929L419.082 28L412.011 35.0711L410.596 33.6569L416.253 28L410.596 22.3432Z" fill="#A1A1A1"></path> <path d="M436.736 36.29C435.683 36.29 434.796 36.01 434.076 35.45C433.363 34.89 432.87 34.1367 432.596 33.19L434.666 32.7C434.76 33.1467 434.996 33.53 435.376 33.85C435.763 34.1633 436.193 34.32 436.666 34.32C436.98 34.32 437.306 34.24 437.646 34.08C437.986 33.92 438.24 33.66 438.406 33.3C438.52 33.06 438.586 32.7867 438.606 32.48C438.626 32.1667 438.636 31.8033 438.636 31.39V21.6H440.756V31.39C440.756 31.8167 440.753 32.1967 440.746 32.53C440.746 32.8633 440.713 33.1767 440.646 33.47C440.586 33.7633 440.466 34.0667 440.286 34.38C439.906 35.04 439.406 35.5233 438.786 35.83C438.166 36.1367 437.483 36.29 436.736 36.29ZM448.602 36.3C447.522 36.3 446.585 36.0567 445.792 35.57C444.999 35.0833 444.385 34.4133 443.952 33.56C443.525 32.7 443.312 31.71 443.312 30.59C443.312 29.4633 443.532 28.4733 443.972 27.62C444.412 26.76 445.029 26.0933 445.822 25.62C446.615 25.14 447.542 24.9 448.602 24.9C449.682 24.9 450.619 25.1433 451.412 25.63C452.205 26.1167 452.819 26.7867 453.252 27.64C453.685 28.4933 453.902 29.4767 453.902 30.59C453.902 31.7167 453.682 32.71 453.242 33.57C452.809 34.4233 452.195 35.0933 451.402 35.58C450.609 36.06 449.675 36.3 448.602 36.3ZM448.602 34.33C449.635 34.33 450.405 33.9833 450.912 33.29C451.425 32.59 451.682 31.69 451.682 30.59C451.682 29.4633 451.422 28.5633 450.902 27.89C450.389 27.21 449.622 26.87 448.602 26.87C447.902 26.87 447.325 27.03 446.872 27.35C446.419 27.6633 446.082 28.1 445.862 28.66C445.642 29.2133 445.532 29.8567 445.532 30.59C445.532 31.7233 445.792 32.63 446.312 33.31C446.832 33.99 447.595 34.33 448.602 34.33ZM463.83 36V30.69C463.83 30.27 463.793 29.84 463.72 29.4C463.653 28.9533 463.52 28.54 463.32 28.16C463.126 27.78 462.85 27.4733 462.49 27.24C462.136 27.0067 461.673 26.89 461.1 26.89C460.726 26.89 460.373 26.9533 460.04 27.08C459.706 27.2 459.413 27.3967 459.16 27.67C458.913 27.9433 458.716 28.3033 458.57 28.75C458.43 29.1967 458.36 29.74 458.36 30.38L457.06 29.89C457.06 28.91 457.243 28.0467 457.61 27.3C457.976 26.5467 458.503 25.96 459.19 25.54C459.876 25.12 460.706 24.91 461.68 24.91C462.426 24.91 463.053 25.03 463.56 25.27C464.066 25.51 464.476 25.8267 464.79 26.22C465.11 26.6067 465.353 27.03 465.52 27.49C465.686 27.95 465.8 28.4 465.86 28.84C465.92 29.28 465.95 29.6667 465.95 30V36H463.83ZM456.24 36V21.6H458.11V29.37H458.36V36H456.24ZM476.284 36V30.69C476.284 30.27 476.248 29.84 476.174 29.4C476.108 28.9533 475.974 28.54 475.774 28.16C475.581 27.78 475.304 27.4733 474.944 27.24C474.591 27.0067 474.128 26.89 473.554 26.89C473.181 26.89 472.828 26.9533 472.494 27.08C472.161 27.2 471.868 27.3967 471.614 27.67C471.368 27.9433 471.171 28.3033 471.024 28.75C470.884 29.1967 470.814 29.74 470.814 30.38L469.514 29.89C469.514 28.91 469.698 28.0467 470.064 27.3C470.431 26.5467 470.958 25.96 471.644 25.54C472.331 25.12 473.161 24.91 474.134 24.91C474.881 24.91 475.508 25.03 476.014 25.27C476.521 25.51 476.931 25.8267 477.244 26.22C477.564 26.6067 477.808 27.03 477.974 27.49C478.141 27.95 478.254 28.4 478.314 28.84C478.374 29.28 478.404 29.6667 478.404 30V36H476.284ZM468.694 36V25.2H470.564V28.32H470.814V36H468.694ZM485.313 36V21.6H490.973C491.886 21.6 492.653 21.7867 493.273 22.16C493.893 22.5333 494.36 23.0167 494.673 23.61C494.986 24.1967 495.143 24.8167 495.143 25.47C495.143 26.2633 494.946 26.9433 494.553 27.51C494.166 28.0767 493.643 28.4633 492.983 28.67L492.963 28.18C493.883 28.4067 494.59 28.85 495.083 29.51C495.576 30.1633 495.823 30.9267 495.823 31.8C495.823 32.6467 495.653 33.3833 495.313 34.01C494.98 34.6367 494.49 35.1267 493.843 35.48C493.203 35.8267 492.426 36 491.513 36H485.313ZM487.433 34.01H491.193C491.666 34.01 492.09 33.92 492.463 33.74C492.843 33.56 493.14 33.3033 493.353 32.97C493.573 32.63 493.683 32.2267 493.683 31.76C493.683 31.3267 493.586 30.9367 493.393 30.59C493.206 30.2367 492.933 29.96 492.573 29.76C492.22 29.5533 491.803 29.45 491.323 29.45H487.433V34.01ZM487.433 27.48H490.943C491.33 27.48 491.676 27.4033 491.983 27.25C492.296 27.09 492.543 26.8633 492.723 26.57C492.91 26.27 493.003 25.91 493.003 25.49C493.003 24.93 492.816 24.47 492.443 24.11C492.07 23.75 491.57 23.57 490.943 23.57H487.433V27.48ZM497.963 36V25.2H499.823V27.82L499.563 27.48C499.696 27.1333 499.87 26.8167 500.083 26.53C500.296 26.2367 500.543 25.9967 500.823 25.81C501.096 25.61 501.4 25.4567 501.733 25.35C502.073 25.2367 502.42 25.17 502.773 25.15C503.126 25.1233 503.466 25.14 503.793 25.2V27.16C503.44 27.0667 503.046 27.04 502.613 27.08C502.186 27.12 501.793 27.2567 501.433 27.49C501.093 27.71 500.823 27.9767 500.623 28.29C500.43 28.6033 500.29 28.9533 500.203 29.34C500.116 29.72 500.073 30.1233 500.073 30.55V36H497.963ZM510.442 36.3C509.369 36.3 508.425 36.0667 507.612 35.6C506.805 35.1267 506.175 34.47 505.722 33.63C505.275 32.7833 505.052 31.8033 505.052 30.69C505.052 29.51 505.272 28.4867 505.712 27.62C506.159 26.7533 506.779 26.0833 507.572 25.61C508.365 25.1367 509.289 24.9 510.342 24.9C511.442 24.9 512.379 25.1567 513.152 25.67C513.925 26.1767 514.502 26.9 514.882 27.84C515.269 28.78 515.422 29.8967 515.342 31.19H513.252V30.43C513.239 29.1767 512.999 28.25 512.532 27.65C512.072 27.05 511.369 26.75 510.422 26.75C509.375 26.75 508.589 27.08 508.062 27.74C507.535 28.4 507.272 29.3533 507.272 30.6C507.272 31.7867 507.535 32.7067 508.062 33.36C508.589 34.0067 509.349 34.33 510.342 34.33C510.995 34.33 511.559 34.1833 512.032 33.89C512.512 33.59 512.885 33.1633 513.152 32.61L515.202 33.26C514.782 34.2267 514.145 34.9767 513.292 35.51C512.439 36.0367 511.489 36.3 510.442 36.3ZM506.592 31.19V29.56H514.302V31.19H506.592ZM520.59 36.3C519.79 36.3 519.12 36.1533 518.58 35.86C518.04 35.56 517.63 35.1667 517.35 34.68C517.077 34.1867 516.94 33.6467 516.94 33.06C516.94 32.5133 517.037 32.0333 517.23 31.62C517.424 31.2067 517.71 30.8567 518.09 30.57C518.47 30.2767 518.937 30.04 519.49 29.86C519.97 29.72 520.514 29.5967 521.12 29.49C521.727 29.3833 522.364 29.2833 523.03 29.19C523.704 29.0967 524.37 29.0033 525.03 28.91L524.27 29.33C524.284 28.4833 524.104 27.8567 523.73 27.45C523.364 27.0367 522.73 26.83 521.83 26.83C521.264 26.83 520.744 26.9633 520.27 27.23C519.797 27.49 519.467 27.9233 519.28 28.53L517.33 27.93C517.597 27.0033 518.104 26.2667 518.85 25.72C519.604 25.1733 520.604 24.9 521.85 24.9C522.817 24.9 523.657 25.0667 524.37 25.4C525.09 25.7267 525.617 26.2467 525.95 26.96C526.124 27.3133 526.23 27.6867 526.27 28.08C526.31 28.4733 526.33 28.8967 526.33 29.35V36H524.48V33.53L524.84 33.85C524.394 34.6767 523.824 35.2933 523.13 35.7C522.444 36.1 521.597 36.3 520.59 36.3ZM520.96 34.59C521.554 34.59 522.064 34.4867 522.49 34.28C522.917 34.0667 523.26 33.7967 523.52 33.47C523.78 33.1433 523.95 32.8033 524.03 32.45C524.144 32.13 524.207 31.77 524.22 31.37C524.24 30.97 524.25 30.65 524.25 30.41L524.93 30.66C524.27 30.76 523.67 30.85 523.13 30.93C522.59 31.01 522.1 31.09 521.66 31.17C521.227 31.2433 520.84 31.3333 520.5 31.44C520.214 31.54 519.957 31.66 519.73 31.8C519.51 31.94 519.334 32.11 519.2 32.31C519.074 32.51 519.01 32.7533 519.01 33.04C519.01 33.32 519.08 33.58 519.22 33.82C519.36 34.0533 519.574 34.24 519.86 34.38C520.147 34.52 520.514 34.59 520.96 34.59ZM533.367 36.3C532.36 36.3 531.49 36.05 530.757 35.55C530.03 35.05 529.467 34.37 529.067 33.51C528.674 32.6433 528.477 31.67 528.477 30.59C528.477 29.5033 528.677 28.5333 529.077 27.68C529.477 26.82 530.044 26.1433 530.777 25.65C531.517 25.15 532.394 24.9 533.407 24.9C534.427 24.9 535.284 25.15 535.977 25.65C536.677 26.1433 537.204 26.82 537.557 27.68C537.917 28.54 538.097 29.51 538.097 30.59C538.097 31.67 537.917 32.64 537.557 33.5C537.197 34.36 536.667 35.0433 535.967 35.55C535.267 36.05 534.4 36.3 533.367 36.3ZM533.657 34.41C534.344 34.41 534.904 34.2467 535.337 33.92C535.77 33.5933 536.087 33.1433 536.287 32.57C536.487 31.9967 536.587 31.3367 536.587 30.59C536.587 29.8433 536.484 29.1833 536.277 28.61C536.077 28.0367 535.764 27.59 535.337 27.27C534.917 26.95 534.38 26.79 533.727 26.79C533.034 26.79 532.464 26.96 532.017 27.3C531.57 27.64 531.237 28.0967 531.017 28.67C530.804 29.2433 530.697 29.8833 530.697 30.59C530.697 31.3033 530.804 31.95 531.017 32.53C531.237 33.1033 531.564 33.56 531.997 33.9C532.437 34.24 532.99 34.41 533.657 34.41ZM536.587 36V28.23H536.347V21.6H538.447V36H536.587Z" fill="black"></path> <path d="M553.642 31.3992L548.846 25.9178C548.28 25.2712 548.739 24.2593 549.598 24.2593H559.191C560.05 24.2593 560.509 25.2712 559.943 25.9178L555.147 31.3992C554.749 31.8545 554.04 31.8545 553.642 31.3992Z" fill="#414141"></path> </g> <g filter="url(#filter2_dd_32_226520)"> <rect x="264" y="56" width="217" height="216" rx="12" fill="white"></rect> <g clip-path="url(#clip13_32_226520)"> <rect opacity="0.5" x="266" y="62" width="213" height="48" rx="8" fill="white"></rect> <path fill-rule="evenodd" clip-rule="evenodd" d="M286 75.5C284.895 75.5 284 76.3954 284 77.5V78.5C284 78.5567 284.002 78.6128 284.007 78.6682C282.838 79.0781 282 80.1912 282 81.5V93.5C282 95.1569 283.343 96.5 285 96.5H303C304.657 96.5 306 95.1569 306 93.5V81.5C306 79.8431 304.657 78.5 303 78.5H293.874C293.43 76.7748 291.864 75.5 290 75.5H286ZM291.732 78.5C291.387 77.9022 290.74 77.5 290 77.5H286V78.5H291.732ZM285 80.5C284.448 80.5 284 80.9477 284 81.5V93.5C284 94.0523 284.448 94.5 285 94.5H303C303.552 94.5 304 94.0523 304 93.5V81.5C304 80.9477 303.552 80.5 303 80.5H285Z" fill="#A1A1A1"></path> <path d="M319.4 94V79.6H323.77C323.923 79.6 324.183 79.6033 324.55 79.61C324.923 79.6167 325.28 79.6433 325.62 79.69C326.713 79.8433 327.627 80.25 328.36 80.91C329.093 81.57 329.643 82.41 330.01 83.43C330.377 84.45 330.56 85.5733 330.56 86.8C330.56 88.0267 330.377 89.15 330.01 90.17C329.643 91.19 329.093 92.03 328.36 92.69C327.627 93.35 326.713 93.7567 325.62 93.91C325.287 93.95 324.93 93.9767 324.55 93.99C324.17 93.9967 323.91 94 323.77 94H319.4ZM320.92 92.59H323.77C324.043 92.59 324.337 92.5833 324.65 92.57C324.97 92.55 325.243 92.5167 325.47 92.47C326.31 92.3233 326.987 91.9833 327.5 91.45C328.02 90.9167 328.4 90.25 328.64 89.45C328.88 88.6433 329 87.76 329 86.8C329 85.8333 328.88 84.9467 328.64 84.14C328.4 83.3333 328.02 82.6667 327.5 82.14C326.98 81.6133 326.303 81.2767 325.47 81.13C325.243 81.0833 324.967 81.0533 324.64 81.04C324.32 81.02 324.03 81.01 323.77 81.01H320.92V92.59ZM337.497 94.3C336.424 94.3 335.507 94.0567 334.747 93.57C333.987 93.0833 333.404 92.41 332.997 91.55C332.591 90.69 332.387 89.7033 332.387 88.59C332.387 87.4567 332.594 86.4633 333.007 85.61C333.421 84.7567 334.007 84.0933 334.767 83.62C335.534 83.14 336.444 82.9 337.497 82.9C338.577 82.9 339.497 83.1433 340.258 83.63C341.024 84.11 341.608 84.78 342.008 85.64C342.414 86.4933 342.618 87.4767 342.618 88.59C342.618 89.7233 342.414 90.72 342.008 91.58C341.601 92.4333 341.014 93.1 340.248 93.58C339.481 94.06 338.564 94.3 337.497 94.3ZM337.497 92.89C338.697 92.89 339.591 92.4933 340.177 91.7C340.764 90.9 341.057 89.8633 341.057 88.59C341.057 87.2833 340.761 86.2433 340.168 85.47C339.581 84.6967 338.691 84.31 337.497 84.31C336.691 84.31 336.024 84.4933 335.497 84.86C334.977 85.22 334.587 85.7233 334.327 86.37C334.074 87.01 333.947 87.75 333.947 88.59C333.947 89.89 334.247 90.9333 334.847 91.72C335.447 92.5 336.331 92.89 337.497 92.89ZM349.453 94.3C348.367 94.3 347.447 94.0567 346.693 93.57C345.94 93.0833 345.367 92.4133 344.973 91.56C344.587 90.7 344.387 89.7133 344.373 88.6C344.387 87.4667 344.593 86.4733 344.993 85.62C345.393 84.76 345.97 84.0933 346.723 83.62C347.477 83.14 348.39 82.9 349.463 82.9C350.557 82.9 351.507 83.1667 352.313 83.7C353.127 84.2333 353.683 84.9633 353.983 85.89L352.543 86.35C352.29 85.7033 351.887 85.2033 351.333 84.85C350.787 84.49 350.16 84.31 349.453 84.31C348.66 84.31 348.003 84.4933 347.483 84.86C346.963 85.22 346.577 85.7233 346.323 86.37C346.07 87.0167 345.94 87.76 345.933 88.6C345.947 89.8933 346.247 90.9333 346.833 91.72C347.42 92.5 348.293 92.89 349.453 92.89C350.187 92.89 350.81 92.7233 351.323 92.39C351.843 92.05 352.237 91.5567 352.503 90.91L353.983 91.35C353.583 92.31 352.997 93.0433 352.223 93.55C351.45 94.05 350.527 94.3 349.453 94.3ZM360.328 94.27C359.681 94.27 359.114 94.17 358.628 93.97C358.148 93.77 357.738 93.5 357.398 93.16C357.064 92.82 356.794 92.4333 356.588 92C356.381 91.56 356.231 91.0967 356.138 90.61C356.044 90.1167 355.998 89.6267 355.998 89.14V83.2H357.478V88.71C357.478 89.3033 357.534 89.8533 357.648 90.36C357.761 90.8667 357.941 91.31 358.188 91.69C358.441 92.0633 358.764 92.3533 359.158 92.56C359.558 92.7667 360.041 92.87 360.608 92.87C361.128 92.87 361.584 92.78 361.978 92.6C362.378 92.42 362.711 92.1633 362.978 91.83C363.251 91.49 363.458 91.08 363.598 90.6C363.738 90.1133 363.808 89.5667 363.808 88.96L364.848 89.19C364.848 90.2967 364.654 91.2267 364.268 91.98C363.881 92.7333 363.348 93.3033 362.668 93.69C361.988 94.0767 361.208 94.27 360.328 94.27ZM363.958 94V91.34H363.808V83.2H365.278V94H363.958ZM381.103 94L381.113 86.91C381.113 86.0767 380.879 85.4233 380.413 84.95C379.953 84.47 379.366 84.23 378.653 84.23C378.246 84.23 377.849 84.3233 377.463 84.51C377.076 84.6967 376.756 84.9967 376.503 85.41C376.256 85.8233 376.133 86.3633 376.133 87.03L375.263 86.78C375.243 86.0067 375.393 85.33 375.713 84.75C376.039 84.17 376.486 83.72 377.053 83.4C377.626 83.0733 378.273 82.91 378.993 82.91C380.079 82.91 380.949 83.2467 381.603 83.92C382.256 84.5867 382.583 85.49 382.583 86.63L382.573 94H381.103ZM368.213 94V83.2H369.533V85.86H369.693V94H368.213ZM374.673 94L374.683 87.01C374.683 86.15 374.453 85.4733 373.993 84.98C373.539 84.48 372.939 84.23 372.193 84.23C371.446 84.23 370.843 84.4867 370.383 85C369.923 85.5067 369.693 86.1833 369.693 87.03L368.813 86.55C368.813 85.8567 368.976 85.2367 369.303 84.69C369.629 84.1367 370.076 83.7033 370.643 83.39C371.209 83.07 371.853 82.91 372.573 82.91C373.259 82.91 373.869 83.0567 374.403 83.35C374.943 83.6433 375.366 84.07 375.673 84.63C375.979 85.19 376.133 85.87 376.133 86.67L376.123 94H374.673ZM389.837 94.3C388.784 94.3 387.871 94.0667 387.097 93.6C386.331 93.1333 385.734 92.4767 385.307 91.63C384.881 90.7833 384.667 89.79 384.667 88.65C384.667 87.47 384.877 86.45 385.297 85.59C385.717 84.73 386.307 84.0667 387.067 83.6C387.834 83.1333 388.737 82.9 389.777 82.9C390.844 82.9 391.754 83.1467 392.507 83.64C393.261 84.1267 393.831 84.8267 394.217 85.74C394.604 86.6533 394.781 87.7433 394.747 89.01H393.247V88.49C393.221 87.09 392.917 86.0333 392.337 85.32C391.764 84.6067 390.924 84.25 389.817 84.25C388.657 84.25 387.767 84.6267 387.147 85.38C386.534 86.1333 386.227 87.2067 386.227 88.6C386.227 89.96 386.534 91.0167 387.147 91.77C387.767 92.5167 388.644 92.89 389.777 92.89C390.551 92.89 391.224 92.7133 391.797 92.36C392.377 92 392.834 91.4833 393.167 90.81L394.537 91.34C394.111 92.28 393.481 93.01 392.647 93.53C391.821 94.0433 390.884 94.3 389.837 94.3ZM385.707 89.01V87.78H393.957V89.01H385.707ZM404.623 94V88.49C404.623 87.89 404.567 87.34 404.453 86.84C404.34 86.3333 404.157 85.8933 403.903 85.52C403.657 85.14 403.333 84.8467 402.933 84.64C402.54 84.4333 402.06 84.33 401.493 84.33C400.973 84.33 400.513 84.42 400.113 84.6C399.72 84.78 399.387 85.04 399.113 85.38C398.847 85.7133 398.643 86.12 398.503 86.6C398.363 87.08 398.293 87.6267 398.293 88.24L397.253 88.01C397.253 86.9033 397.447 85.9733 397.833 85.22C398.22 84.4667 398.753 83.8967 399.433 83.51C400.113 83.1233 400.893 82.93 401.773 82.93C402.42 82.93 402.983 83.03 403.463 83.23C403.95 83.43 404.36 83.7 404.693 84.04C405.033 84.38 405.307 84.77 405.513 85.21C405.72 85.6433 405.87 86.1067 405.963 86.6C406.057 87.0867 406.103 87.5733 406.103 88.06V94H404.623ZM396.813 94V83.2H398.143V85.86H398.293V94H396.813ZM414.728 94C414.122 94.1267 413.522 94.1767 412.928 94.15C412.342 94.1233 411.815 93.9967 411.348 93.77C410.888 93.5433 410.538 93.19 410.298 92.71C410.105 92.31 409.998 91.9067 409.978 91.5C409.965 91.0867 409.958 90.6167 409.958 90.09V80.2H411.418V90.03C411.418 90.4833 411.422 90.8633 411.428 91.17C411.442 91.47 411.512 91.7367 411.638 91.97C411.878 92.4167 412.258 92.6833 412.778 92.77C413.305 92.8567 413.955 92.8367 414.728 92.71V94ZM407.648 84.46V83.2H414.728V84.46H407.648ZM421.036 94.29C419.77 94.29 418.726 94.0167 417.906 93.47C417.093 92.9233 416.593 92.1633 416.406 91.19L417.906 90.94C418.066 91.5533 418.43 92.0433 418.996 92.41C419.57 92.77 420.276 92.95 421.116 92.95C421.936 92.95 422.583 92.78 423.056 92.44C423.53 92.0933 423.766 91.6233 423.766 91.03C423.766 90.6967 423.69 90.4267 423.536 90.22C423.39 90.0067 423.086 89.81 422.626 89.63C422.166 89.45 421.48 89.2367 420.566 88.99C419.586 88.7233 418.82 88.4567 418.266 88.19C417.713 87.9233 417.32 87.6167 417.086 87.27C416.853 86.9167 416.736 86.4867 416.736 85.98C416.736 85.3667 416.91 84.83 417.256 84.37C417.603 83.9033 418.083 83.5433 418.696 83.29C419.31 83.03 420.023 82.9 420.836 82.9C421.65 82.9 422.376 83.0333 423.016 83.3C423.663 83.56 424.183 83.9267 424.576 84.4C424.97 84.8733 425.203 85.4233 425.276 86.05L423.776 86.32C423.676 85.6867 423.36 85.1867 422.826 84.82C422.3 84.4467 421.63 84.2533 420.816 84.24C420.05 84.22 419.426 84.3667 418.946 84.68C418.466 84.9867 418.226 85.3967 418.226 85.91C418.226 86.1967 418.313 86.4433 418.486 86.65C418.66 86.85 418.973 87.04 419.426 87.22C419.886 87.4 420.54 87.5967 421.386 87.81C422.38 88.0633 423.16 88.33 423.726 88.61C424.293 88.89 424.696 89.22 424.936 89.6C425.176 89.98 425.296 90.45 425.296 91.01C425.296 92.03 424.916 92.8333 424.156 93.42C423.403 94 422.363 94.29 421.036 94.29Z" fill="black"></path> </g> <g clip-path="url(#clip14_32_226520)"> <rect opacity="0.5" x="266" y="114" width="213" height="48" rx="8" fill="white"></rect> <path fill-rule="evenodd" clip-rule="evenodd" d="M290 135C290 137.209 291.791 139 294 139C296.209 139 298 137.209 298 135C298 132.791 296.209 131 294 131C291.791 131 290 132.791 290 135ZM292 135C292 136.105 292.895 137 294 137C295.105 137 296 136.105 296 135C296 133.895 295.105 133 294 133C292.895 133 292 133.895 292 135Z" fill="#A1A1A1"></path> <path fill-rule="evenodd" clip-rule="evenodd" d="M294 127C300.075 127 305 131.925 305 138C305 144.075 300.075 149 294 149C287.925 149 283 144.075 283 138C283 131.925 287.925 127 294 127ZM303 138C303 140.09 302.287 142.014 301.092 143.542C299.448 141.389 296.854 140 293.936 140C291.055 140 288.491 141.353 286.844 143.458C285.687 141.944 285 140.052 285 138C285 133.029 289.029 129 294 129C298.971 129 303 133.029 303 138ZM294 147C296.15 147 298.124 146.246 299.672 144.988C298.406 143.181 296.309 142 293.936 142C291.592 142 289.517 143.152 288.246 144.921C289.806 146.219 291.812 147 294 147Z" fill="#A1A1A1"></path> <path d="M319.4 146V131.6H324.96C325.1 131.6 325.257 131.607 325.43 131.62C325.61 131.627 325.79 131.647 325.97 131.68C326.723 131.793 327.36 132.057 327.88 132.47C328.407 132.877 328.803 133.39 329.07 134.01C329.343 134.63 329.48 135.317 329.48 136.07C329.48 136.817 329.343 137.5 329.07 138.12C328.797 138.74 328.397 139.257 327.87 139.67C327.35 140.077 326.717 140.337 325.97 140.45C325.79 140.477 325.61 140.497 325.43 140.51C325.257 140.523 325.1 140.53 324.96 140.53H320.87V146H319.4ZM320.87 139.13H324.92C325.04 139.13 325.18 139.123 325.34 139.11C325.5 139.097 325.657 139.073 325.81 139.04C326.303 138.933 326.707 138.73 327.02 138.43C327.34 138.13 327.577 137.773 327.73 137.36C327.89 136.947 327.97 136.517 327.97 136.07C327.97 135.623 327.89 135.193 327.73 134.78C327.577 134.36 327.34 134 327.02 133.7C326.707 133.4 326.303 133.197 325.81 133.09C325.657 133.057 325.5 133.037 325.34 133.03C325.18 133.017 325.04 133.01 324.92 133.01H320.87V139.13ZM331.62 146V135.2H332.94V137.8L332.68 137.46C332.8 137.14 332.957 136.847 333.15 136.58C333.344 136.307 333.554 136.083 333.78 135.91C334.06 135.663 334.387 135.477 334.76 135.35C335.134 135.217 335.51 135.14 335.89 135.12C336.27 135.093 336.617 135.12 336.93 135.2V136.58C336.537 136.48 336.107 136.457 335.64 136.51C335.174 136.563 334.744 136.75 334.35 137.07C333.99 137.35 333.72 137.687 333.54 138.08C333.36 138.467 333.24 138.88 333.18 139.32C333.12 139.753 333.09 140.183 333.09 140.61V146H331.62ZM343.292 146.3C342.219 146.3 341.302 146.057 340.542 145.57C339.782 145.083 339.199 144.41 338.792 143.55C338.385 142.69 338.182 141.703 338.182 140.59C338.182 139.457 338.389 138.463 338.802 137.61C339.215 136.757 339.802 136.093 340.562 135.62C341.329 135.14 342.239 134.9 343.292 134.9C344.372 134.9 345.292 135.143 346.052 135.63C346.819 136.11 347.402 136.78 347.802 137.64C348.209 138.493 348.412 139.477 348.412 140.59C348.412 141.723 348.209 142.72 347.802 143.58C347.395 144.433 346.809 145.1 346.042 145.58C345.275 146.06 344.359 146.3 343.292 146.3ZM343.292 144.89C344.492 144.89 345.385 144.493 345.972 143.7C346.559 142.9 346.852 141.863 346.852 140.59C346.852 139.283 346.555 138.243 345.962 137.47C345.375 136.697 344.485 136.31 343.292 136.31C342.485 136.31 341.819 136.493 341.292 136.86C340.772 137.22 340.382 137.723 340.122 138.37C339.869 139.01 339.742 139.75 339.742 140.59C339.742 141.89 340.042 142.933 340.642 143.72C341.242 144.5 342.125 144.89 343.292 144.89ZM351.838 146V134.4C351.838 134.12 351.851 133.843 351.878 133.57C351.911 133.297 351.975 133.037 352.068 132.79C352.161 132.537 352.308 132.303 352.508 132.09C352.728 131.85 352.968 131.677 353.228 131.57C353.488 131.457 353.758 131.383 354.038 131.35C354.325 131.317 354.605 131.3 354.878 131.3H356.258V132.54H354.978C354.418 132.54 353.998 132.677 353.718 132.95C353.445 133.223 353.308 133.653 353.308 134.24V146H351.838ZM349.968 136.46V135.2H356.258V136.46H349.968ZM358.501 133.15V131.5H359.971V133.15H358.501ZM358.501 146V135.2H359.971V146H358.501ZM363.319 146V131.3H364.789V146H363.319ZM372.507 146.3C371.453 146.3 370.54 146.067 369.767 145.6C369 145.133 368.403 144.477 367.977 143.63C367.55 142.783 367.337 141.79 367.337 140.65C367.337 139.47 367.547 138.45 367.967 137.59C368.387 136.73 368.977 136.067 369.737 135.6C370.503 135.133 371.407 134.9 372.447 134.9C373.513 134.9 374.423 135.147 375.177 135.64C375.93 136.127 376.5 136.827 376.887 137.74C377.273 138.653 377.45 139.743 377.417 141.01H375.917V140.49C375.89 139.09 375.587 138.033 375.007 137.32C374.433 136.607 373.593 136.25 372.487 136.25C371.327 136.25 370.437 136.627 369.817 137.38C369.203 138.133 368.897 139.207 368.897 140.6C368.897 141.96 369.203 143.017 369.817 143.77C370.437 144.517 371.313 144.89 372.447 144.89C373.22 144.89 373.893 144.713 374.467 144.36C375.047 144 375.503 143.483 375.837 142.81L377.207 143.34C376.78 144.28 376.15 145.01 375.317 145.53C374.49 146.043 373.553 146.3 372.507 146.3ZM368.377 141.01V139.78H376.627V141.01H368.377Z" fill="black"></path> </g> <g clip-path="url(#clip15_32_226520)"> <rect opacity="0.5" x="266" y="166" width="213" height="48" rx="8" fill="white"></rect> <path fill-rule="evenodd" clip-rule="evenodd" d="M289 181C290.864 181 292.43 182.275 292.874 184H301V186H292.874C292.43 187.725 290.864 189 289 189C286.791 189 285 187.209 285 185C285 182.791 286.791 181 289 181ZM289 187C290.105 187 291 186.105 291 185C291 183.895 290.105 183 289 183C287.895 183 287 183.895 287 185C287 186.105 287.895 187 289 187Z" fill="#A1A1A1"></path> <path fill-rule="evenodd" clip-rule="evenodd" d="M299 198C297.136 198 295.57 196.725 295.126 195H287V193H295.126C295.57 191.275 297.136 190 299 190C301.209 190 303 191.791 303 194C303 196.209 301.209 198 299 198ZM299 196C300.105 196 301 195.105 301 194C301 192.895 300.105 192 299 192C297.895 192 297 192.895 297 194C297 195.105 297.895 196 299 196Z" fill="#A1A1A1"></path> <path d="M325.23 198.3C323.797 198.3 322.587 197.983 321.6 197.35C320.613 196.71 319.867 195.827 319.36 194.7C318.853 193.573 318.6 192.273 318.6 190.8C318.6 189.327 318.853 188.027 319.36 186.9C319.867 185.773 320.613 184.893 321.6 184.26C322.587 183.62 323.797 183.3 325.23 183.3C326.903 183.3 328.27 183.73 329.33 184.59C330.39 185.443 331.117 186.59 331.51 188.03L330.01 188.42C329.703 187.28 329.153 186.377 328.36 185.71C327.567 185.043 326.523 184.71 325.23 184.71C324.103 184.71 323.167 184.967 322.42 185.48C321.673 185.993 321.11 186.71 320.73 187.63C320.357 188.543 320.163 189.6 320.15 190.8C320.143 192 320.327 193.057 320.7 193.97C321.08 194.883 321.647 195.6 322.4 196.12C323.16 196.633 324.103 196.89 325.23 196.89C326.523 196.89 327.567 196.557 328.36 195.89C329.153 195.217 329.703 194.313 330.01 193.18L331.51 193.57C331.117 195.01 330.39 196.16 329.33 197.02C328.27 197.873 326.903 198.3 325.23 198.3ZM337.996 198.27C337.35 198.27 336.783 198.17 336.296 197.97C335.816 197.77 335.406 197.5 335.066 197.16C334.733 196.82 334.463 196.433 334.256 196C334.05 195.56 333.9 195.097 333.806 194.61C333.713 194.117 333.666 193.627 333.666 193.14V187.2H335.146V192.71C335.146 193.303 335.203 193.853 335.316 194.36C335.43 194.867 335.61 195.31 335.856 195.69C336.11 196.063 336.433 196.353 336.826 196.56C337.226 196.767 337.71 196.87 338.276 196.87C338.796 196.87 339.253 196.78 339.646 196.6C340.046 196.42 340.38 196.163 340.646 195.83C340.92 195.49 341.126 195.08 341.266 194.6C341.406 194.113 341.476 193.567 341.476 192.96L342.516 193.19C342.516 194.297 342.323 195.227 341.936 195.98C341.55 196.733 341.016 197.303 340.336 197.69C339.656 198.077 338.876 198.27 337.996 198.27ZM341.626 198V195.34H341.476V187.2H342.946V198H341.626ZM349.921 198.29C348.655 198.29 347.611 198.017 346.791 197.47C345.978 196.923 345.478 196.163 345.291 195.19L346.791 194.94C346.951 195.553 347.315 196.043 347.881 196.41C348.455 196.77 349.161 196.95 350.001 196.95C350.821 196.95 351.468 196.78 351.941 196.44C352.415 196.093 352.651 195.623 352.651 195.03C352.651 194.697 352.575 194.427 352.421 194.22C352.275 194.007 351.971 193.81 351.511 193.63C351.051 193.45 350.365 193.237 349.451 192.99C348.471 192.723 347.705 192.457 347.151 192.19C346.598 191.923 346.205 191.617 345.971 191.27C345.738 190.917 345.621 190.487 345.621 189.98C345.621 189.367 345.795 188.83 346.141 188.37C346.488 187.903 346.968 187.543 347.581 187.29C348.195 187.03 348.908 186.9 349.721 186.9C350.535 186.9 351.261 187.033 351.901 187.3C352.548 187.56 353.068 187.927 353.461 188.4C353.855 188.873 354.088 189.423 354.161 190.05L352.661 190.32C352.561 189.687 352.245 189.187 351.711 188.82C351.185 188.447 350.515 188.253 349.701 188.24C348.935 188.22 348.311 188.367 347.831 188.68C347.351 188.987 347.111 189.397 347.111 189.91C347.111 190.197 347.198 190.443 347.371 190.65C347.545 190.85 347.858 191.04 348.311 191.22C348.771 191.4 349.425 191.597 350.271 191.81C351.265 192.063 352.045 192.33 352.611 192.61C353.178 192.89 353.581 193.22 353.821 193.6C354.061 193.98 354.181 194.45 354.181 195.01C354.181 196.03 353.801 196.833 353.041 197.42C352.288 198 351.248 198.29 349.921 198.29ZM362.429 198C361.823 198.127 361.223 198.177 360.629 198.15C360.043 198.123 359.516 197.997 359.049 197.77C358.589 197.543 358.239 197.19 357.999 196.71C357.806 196.31 357.699 195.907 357.679 195.5C357.666 195.087 357.659 194.617 357.659 194.09V184.2H359.119V194.03C359.119 194.483 359.123 194.863 359.129 195.17C359.143 195.47 359.213 195.737 359.339 195.97C359.579 196.417 359.959 196.683 360.479 196.77C361.006 196.857 361.656 196.837 362.429 196.71V198ZM355.349 188.46V187.2H362.429V188.46H355.349ZM368.826 198.3C367.753 198.3 366.836 198.057 366.076 197.57C365.316 197.083 364.733 196.41 364.326 195.55C363.92 194.69 363.716 193.703 363.716 192.59C363.716 191.457 363.923 190.463 364.336 189.61C364.75 188.757 365.336 188.093 366.096 187.62C366.863 187.14 367.773 186.9 368.826 186.9C369.906 186.9 370.826 187.143 371.586 187.63C372.353 188.11 372.936 188.78 373.336 189.64C373.743 190.493 373.946 191.477 373.946 192.59C373.946 193.723 373.743 194.72 373.336 195.58C372.93 196.433 372.343 197.1 371.576 197.58C370.81 198.06 369.893 198.3 368.826 198.3ZM368.826 196.89C370.026 196.89 370.92 196.493 371.506 195.7C372.093 194.9 372.386 193.863 372.386 192.59C372.386 191.283 372.09 190.243 371.496 189.47C370.91 188.697 370.02 188.31 368.826 188.31C368.02 188.31 367.353 188.493 366.826 188.86C366.306 189.22 365.916 189.723 365.656 190.37C365.403 191.01 365.276 191.75 365.276 192.59C365.276 193.89 365.576 194.933 366.176 195.72C366.776 196.5 367.66 196.89 368.826 196.89ZM389.182 198L389.192 190.91C389.192 190.077 388.959 189.423 388.492 188.95C388.032 188.47 387.446 188.23 386.732 188.23C386.326 188.23 385.929 188.323 385.542 188.51C385.156 188.697 384.836 188.997 384.582 189.41C384.336 189.823 384.212 190.363 384.212 191.03L383.342 190.78C383.322 190.007 383.472 189.33 383.792 188.75C384.119 188.17 384.566 187.72 385.132 187.4C385.706 187.073 386.352 186.91 387.072 186.91C388.159 186.91 389.029 187.247 389.682 187.92C390.336 188.587 390.662 189.49 390.662 190.63L390.652 198H389.182ZM376.292 198V187.2H377.612V189.86H377.772V198H376.292ZM382.752 198L382.762 191.01C382.762 190.15 382.532 189.473 382.072 188.98C381.619 188.48 381.019 188.23 380.272 188.23C379.526 188.23 378.922 188.487 378.462 189C378.002 189.507 377.772 190.183 377.772 191.03L376.892 190.55C376.892 189.857 377.056 189.237 377.382 188.69C377.709 188.137 378.156 187.703 378.722 187.39C379.289 187.07 379.932 186.91 380.652 186.91C381.339 186.91 381.949 187.057 382.482 187.35C383.022 187.643 383.446 188.07 383.752 188.63C384.059 189.19 384.212 189.87 384.212 190.67L384.202 198H382.752ZM393.605 185.15V183.5H395.075V185.15H393.605ZM393.605 198V187.2H395.075V198H393.605ZM397.223 198V197.69L404.193 188.57H397.743V187.2H406.613V187.54L399.653 196.63H406.233V198H397.223ZM411.444 198.3C410.631 198.3 409.947 198.153 409.394 197.86C408.847 197.567 408.437 197.177 408.164 196.69C407.891 196.203 407.754 195.673 407.754 195.1C407.754 194.513 407.871 194.013 408.104 193.6C408.344 193.18 408.667 192.837 409.074 192.57C409.487 192.303 409.964 192.1 410.504 191.96C411.051 191.827 411.654 191.71 412.314 191.61C412.981 191.503 413.631 191.413 414.264 191.34C414.904 191.26 415.464 191.183 415.944 191.11L415.424 191.43C415.444 190.363 415.237 189.573 414.804 189.06C414.371 188.547 413.617 188.29 412.544 188.29C411.804 188.29 411.177 188.457 410.664 188.79C410.157 189.123 409.801 189.65 409.594 190.37L408.164 189.95C408.411 188.983 408.907 188.233 409.654 187.7C410.401 187.167 411.371 186.9 412.564 186.9C413.551 186.9 414.387 187.087 415.074 187.46C415.767 187.827 416.257 188.36 416.544 189.06C416.677 189.373 416.764 189.723 416.804 190.11C416.844 190.497 416.864 190.89 416.864 191.29V198H415.554V195.29L415.934 195.45C415.567 196.377 414.997 197.083 414.224 197.57C413.451 198.057 412.524 198.3 411.444 198.3ZM411.614 197.03C412.301 197.03 412.901 196.907 413.414 196.66C413.927 196.413 414.341 196.077 414.654 195.65C414.967 195.217 415.171 194.73 415.264 194.19C415.344 193.843 415.387 193.463 415.394 193.05C415.401 192.63 415.404 192.317 415.404 192.11L415.964 192.4C415.464 192.467 414.921 192.533 414.334 192.6C413.754 192.667 413.181 192.743 412.614 192.83C412.054 192.917 411.547 193.02 411.094 193.14C410.787 193.227 410.491 193.35 410.204 193.51C409.917 193.663 409.681 193.87 409.494 194.13C409.314 194.39 409.224 194.713 409.224 195.1C409.224 195.413 409.301 195.717 409.454 196.01C409.614 196.303 409.867 196.547 410.214 196.74C410.567 196.933 411.034 197.03 411.614 197.03ZM425.497 198C424.891 198.127 424.291 198.177 423.697 198.15C423.111 198.123 422.584 197.997 422.117 197.77C421.657 197.543 421.307 197.19 421.067 196.71C420.874 196.31 420.767 195.907 420.747 195.5C420.734 195.087 420.727 194.617 420.727 194.09V184.2H422.187V194.03C422.187 194.483 422.191 194.863 422.197 195.17C422.211 195.47 422.281 195.737 422.407 195.97C422.647 196.417 423.027 196.683 423.547 196.77C424.074 196.857 424.724 196.837 425.497 196.71V198ZM418.417 188.46V187.2H425.497V188.46H418.417ZM427.975 185.15V183.5H429.445V185.15H427.975ZM427.975 198V187.2H429.445V198H427.975ZM437.103 198.3C436.03 198.3 435.113 198.057 434.353 197.57C433.593 197.083 433.01 196.41 432.603 195.55C432.196 194.69 431.993 193.703 431.993 192.59C431.993 191.457 432.2 190.463 432.613 189.61C433.026 188.757 433.613 188.093 434.373 187.62C435.14 187.14 436.05 186.9 437.103 186.9C438.183 186.9 439.103 187.143 439.863 187.63C440.63 188.11 441.213 188.78 441.613 189.64C442.02 190.493 442.223 191.477 442.223 192.59C442.223 193.723 442.02 194.72 441.613 195.58C441.206 196.433 440.62 197.1 439.853 197.58C439.086 198.06 438.17 198.3 437.103 198.3ZM437.103 196.89C438.303 196.89 439.196 196.493 439.783 195.7C440.37 194.9 440.663 193.863 440.663 192.59C440.663 191.283 440.366 190.243 439.773 189.47C439.186 188.697 438.296 188.31 437.103 188.31C436.296 188.31 435.63 188.493 435.103 188.86C434.583 189.22 434.193 189.723 433.933 190.37C433.68 191.01 433.553 191.75 433.553 192.59C433.553 193.89 433.853 194.933 434.453 195.72C435.053 196.5 435.936 196.89 437.103 196.89ZM452.379 198V192.49C452.379 191.89 452.322 191.34 452.209 190.84C452.096 190.333 451.912 189.893 451.659 189.52C451.412 189.14 451.089 188.847 450.689 188.64C450.296 188.433 449.816 188.33 449.249 188.33C448.729 188.33 448.269 188.42 447.869 188.6C447.476 188.78 447.142 189.04 446.869 189.38C446.602 189.713 446.399 190.12 446.259 190.6C446.119 191.08 446.049 191.627 446.049 192.24L445.009 192.01C445.009 190.903 445.202 189.973 445.589 189.22C445.976 188.467 446.509 187.897 447.189 187.51C447.869 187.123 448.649 186.93 449.529 186.93C450.176 186.93 450.739 187.03 451.219 187.23C451.706 187.43 452.116 187.7 452.449 188.04C452.789 188.38 453.062 188.77 453.269 189.21C453.476 189.643 453.626 190.107 453.719 190.6C453.812 191.087 453.859 191.573 453.859 192.06V198H452.379ZM444.569 198V187.2H445.899V189.86H446.049V198H444.569Z" fill="black"></path> </g> <g clip-path="url(#clip16_32_226520)"> <rect opacity="0.5" x="266" y="218" width="213" height="48" rx="8" fill="white"></rect> <path fill-rule="evenodd" clip-rule="evenodd" d="M296.738 249.996C296.819 249.999 296.9 250 296.981 250C301.399 250 304.981 246.418 304.981 242C304.981 237.582 301.399 234 296.981 234C294.454 234 292.201 235.171 290.735 237H289.52C285.93 237 283.02 239.91 283.02 243.5C283.02 247.09 285.93 250 289.52 250H296.52C296.593 250 296.666 249.999 296.738 249.996ZM298.691 247.721C301.042 246.952 302.981 244.682 302.981 242C302.981 238.686 300.294 236 296.981 236C293.667 236 290.981 238.686 290.981 242H288.981C288.981 240.939 289.187 239.926 289.562 239H289.52C287.034 239 285.02 241.015 285.02 243.5C285.02 245.985 287.034 248 289.52 248H296.52C297.069 248 297.904 247.901 298.691 247.721Z" fill="#A1A1A1"></path> <path d="M324.4 250.3C323.393 250.3 322.487 250.133 321.68 249.8C320.88 249.46 320.217 248.98 319.69 248.36C319.17 247.74 318.83 247.003 318.67 246.15L320.17 245.9C320.41 246.833 320.917 247.567 321.69 248.1C322.463 248.627 323.387 248.89 324.46 248.89C325.167 248.89 325.8 248.78 326.36 248.56C326.92 248.333 327.36 248.013 327.68 247.6C328 247.187 328.16 246.697 328.16 246.13C328.16 245.757 328.093 245.44 327.96 245.18C327.827 244.913 327.65 244.693 327.43 244.52C327.21 244.347 326.97 244.203 326.71 244.09C326.45 243.97 326.197 243.873 325.95 243.8L322.3 242.71C321.86 242.583 321.453 242.423 321.08 242.23C320.707 242.03 320.38 241.793 320.1 241.52C319.827 241.24 319.613 240.913 319.46 240.54C319.307 240.167 319.23 239.74 319.23 239.26C319.23 238.447 319.443 237.743 319.87 237.15C320.297 236.557 320.88 236.1 321.62 235.78C322.36 235.46 323.203 235.303 324.15 235.31C325.11 235.31 325.967 235.48 326.72 235.82C327.48 236.16 328.107 236.647 328.6 237.28C329.093 237.907 329.42 238.65 329.58 239.51L328.04 239.79C327.94 239.163 327.71 238.62 327.35 238.16C326.99 237.7 326.53 237.347 325.97 237.1C325.417 236.847 324.807 236.717 324.14 236.71C323.493 236.71 322.917 236.82 322.41 237.04C321.91 237.253 321.513 237.547 321.22 237.92C320.927 238.293 320.78 238.72 320.78 239.2C320.78 239.687 320.913 240.077 321.18 240.37C321.453 240.663 321.787 240.893 322.18 241.06C322.58 241.227 322.967 241.363 323.34 241.47L326.16 242.3C326.453 242.38 326.797 242.497 327.19 242.65C327.59 242.797 327.977 243.01 328.35 243.29C328.73 243.563 329.043 243.923 329.29 244.37C329.537 244.817 329.66 245.383 329.66 246.07C329.66 246.737 329.527 247.333 329.26 247.86C329 248.387 328.63 248.83 328.15 249.19C327.677 249.55 327.12 249.823 326.48 250.01C325.847 250.203 325.153 250.3 324.4 250.3ZM337.754 250C337.148 250.127 336.548 250.177 335.954 250.15C335.368 250.123 334.841 249.997 334.374 249.77C333.914 249.543 333.564 249.19 333.324 248.71C333.131 248.31 333.024 247.907 333.004 247.5C332.991 247.087 332.984 246.617 332.984 246.09V236.2H334.444V246.03C334.444 246.483 334.448 246.863 334.454 247.17C334.468 247.47 334.538 247.737 334.664 247.97C334.904 248.417 335.284 248.683 335.804 248.77C336.331 248.857 336.981 248.837 337.754 248.71V250ZM330.674 240.46V239.2H337.754V240.46H330.674ZM344.151 250.3C343.078 250.3 342.161 250.057 341.401 249.57C340.641 249.083 340.058 248.41 339.651 247.55C339.245 246.69 339.041 245.703 339.041 244.59C339.041 243.457 339.248 242.463 339.661 241.61C340.075 240.757 340.661 240.093 341.421 239.62C342.188 239.14 343.098 238.9 344.151 238.9C345.231 238.9 346.151 239.143 346.911 239.63C347.678 240.11 348.261 240.78 348.661 241.64C349.068 242.493 349.271 243.477 349.271 244.59C349.271 245.723 349.068 246.72 348.661 247.58C348.255 248.433 347.668 249.1 346.901 249.58C346.135 250.06 345.218 250.3 344.151 250.3ZM344.151 248.89C345.351 248.89 346.245 248.493 346.831 247.7C347.418 246.9 347.711 245.863 347.711 244.59C347.711 243.283 347.415 242.243 346.821 241.47C346.235 240.697 345.345 240.31 344.151 240.31C343.345 240.31 342.678 240.493 342.151 240.86C341.631 241.22 341.241 241.723 340.981 242.37C340.728 243.01 340.601 243.75 340.601 244.59C340.601 245.89 340.901 246.933 341.501 247.72C342.101 248.5 342.985 248.89 344.151 248.89ZM351.627 250V239.2H352.947V241.8L352.687 241.46C352.807 241.14 352.964 240.847 353.157 240.58C353.351 240.307 353.561 240.083 353.787 239.91C354.067 239.663 354.394 239.477 354.767 239.35C355.141 239.217 355.517 239.14 355.897 239.12C356.277 239.093 356.624 239.12 356.937 239.2V240.58C356.544 240.48 356.114 240.457 355.647 240.51C355.181 240.563 354.751 240.75 354.357 241.07C353.997 241.35 353.727 241.687 353.547 242.08C353.367 242.467 353.247 242.88 353.187 243.32C353.127 243.753 353.097 244.183 353.097 244.61V250H351.627ZM361.664 250.3C360.851 250.3 360.168 250.153 359.614 249.86C359.068 249.567 358.658 249.177 358.384 248.69C358.111 248.203 357.974 247.673 357.974 247.1C357.974 246.513 358.091 246.013 358.324 245.6C358.564 245.18 358.888 244.837 359.294 244.57C359.708 244.303 360.184 244.1 360.724 243.96C361.271 243.827 361.874 243.71 362.534 243.61C363.201 243.503 363.851 243.413 364.484 243.34C365.124 243.26 365.684 243.183 366.164 243.11L365.644 243.43C365.664 242.363 365.458 241.573 365.024 241.06C364.591 240.547 363.838 240.29 362.764 240.29C362.024 240.29 361.398 240.457 360.884 240.79C360.378 241.123 360.021 241.65 359.814 242.37L358.384 241.95C358.631 240.983 359.128 240.233 359.874 239.7C360.621 239.167 361.591 238.9 362.784 238.9C363.771 238.9 364.608 239.087 365.294 239.46C365.988 239.827 366.478 240.36 366.764 241.06C366.898 241.373 366.984 241.723 367.024 242.11C367.064 242.497 367.084 242.89 367.084 243.29V250H365.774V247.29L366.154 247.45C365.788 248.377 365.218 249.083 364.444 249.57C363.671 250.057 362.744 250.3 361.664 250.3ZM361.834 249.03C362.521 249.03 363.121 248.907 363.634 248.66C364.148 248.413 364.561 248.077 364.874 247.65C365.188 247.217 365.391 246.73 365.484 246.19C365.564 245.843 365.608 245.463 365.614 245.05C365.621 244.63 365.624 244.317 365.624 244.11L366.184 244.4C365.684 244.467 365.141 244.533 364.554 244.6C363.974 244.667 363.401 244.743 362.834 244.83C362.274 244.917 361.768 245.02 361.314 245.14C361.008 245.227 360.711 245.35 360.424 245.51C360.138 245.663 359.901 245.87 359.714 246.13C359.534 246.39 359.444 246.713 359.444 247.1C359.444 247.413 359.521 247.717 359.674 248.01C359.834 248.303 360.088 248.547 360.434 248.74C360.788 248.933 361.254 249.03 361.834 249.03ZM374.128 255.1C373.574 255.1 373.028 255.017 372.488 254.85C371.954 254.69 371.461 254.433 371.007 254.08C370.554 253.733 370.174 253.28 369.868 252.72L371.198 251.98C371.498 252.58 371.918 253.01 372.458 253.27C373.004 253.537 373.561 253.67 374.128 253.67C374.908 253.67 375.538 253.523 376.018 253.23C376.504 252.943 376.858 252.517 377.078 251.95C377.298 251.383 377.404 250.677 377.398 249.83V246.95H377.568V239.2H378.878V249.85C378.878 250.157 378.868 250.45 378.848 250.73C378.834 251.017 378.804 251.297 378.758 251.57C378.631 252.377 378.368 253.04 377.968 253.56C377.574 254.08 377.054 254.467 376.408 254.72C375.768 254.973 375.008 255.1 374.128 255.1ZM374.028 250.3C373.021 250.3 372.161 250.05 371.448 249.55C370.734 249.043 370.188 248.36 369.808 247.5C369.428 246.64 369.238 245.67 369.238 244.59C369.238 243.517 369.424 242.55 369.798 241.69C370.178 240.83 370.721 240.15 371.428 239.65C372.134 239.15 372.981 238.9 373.968 238.9C374.981 238.9 375.834 239.147 376.528 239.64C377.221 240.133 377.744 240.81 378.098 241.67C378.458 242.523 378.638 243.497 378.638 244.59C378.638 245.663 378.461 246.633 378.108 247.5C377.754 248.36 377.234 249.043 376.548 249.55C375.861 250.05 375.021 250.3 374.028 250.3ZM374.178 248.93C374.944 248.93 375.578 248.743 376.078 248.37C376.578 247.997 376.951 247.483 377.198 246.83C377.444 246.17 377.568 245.423 377.568 244.59C377.568 243.743 377.444 242.997 377.198 242.35C376.951 241.697 376.578 241.187 376.078 240.82C375.584 240.453 374.961 240.27 374.208 240.27C373.434 240.27 372.794 240.46 372.288 240.84C371.781 241.22 371.404 241.737 371.158 242.39C370.918 243.043 370.798 243.777 370.798 244.59C370.798 245.41 370.921 246.15 371.168 246.81C371.421 247.463 371.798 247.98 372.298 248.36C372.798 248.74 373.424 248.93 374.178 248.93ZM386.393 250.3C385.34 250.3 384.427 250.067 383.653 249.6C382.887 249.133 382.29 248.477 381.863 247.63C381.437 246.783 381.223 245.79 381.223 244.65C381.223 243.47 381.433 242.45 381.853 241.59C382.273 240.73 382.863 240.067 383.623 239.6C384.39 239.133 385.293 238.9 386.333 238.9C387.4 238.9 388.31 239.147 389.063 239.64C389.817 240.127 390.387 240.827 390.773 241.74C391.16 242.653 391.337 243.743 391.303 245.01H389.803V244.49C389.777 243.09 389.473 242.033 388.893 241.32C388.32 240.607 387.48 240.25 386.373 240.25C385.213 240.25 384.323 240.627 383.703 241.38C383.09 242.133 382.783 243.207 382.783 244.6C382.783 245.96 383.09 247.017 383.703 247.77C384.323 248.517 385.2 248.89 386.333 248.89C387.107 248.89 387.78 248.713 388.353 248.36C388.933 248 389.39 247.483 389.723 246.81L391.093 247.34C390.667 248.28 390.037 249.01 389.203 249.53C388.377 250.043 387.44 250.3 386.393 250.3ZM382.263 245.01V243.78H390.513V245.01H382.263Z" fill="black"></path> </g> </g> <line x1="317" y1="40.25" x2="373" y2="40.25" stroke="#5668D5" stroke-width="1.5"></line> <g filter="url(#filter3_d_32_226520)"> <path d="M353.718 58.3265C353.263 57.7415 352.695 56.5552 351.703 55.0765C351.135 54.264 349.737 52.7202 349.315 51.924C349.01 51.4401 348.922 50.8509 349.071 50.299C349.326 49.2496 350.321 48.5534 351.395 48.674C352.225 48.8407 352.988 49.2475 353.588 49.844C354.008 50.2391 354.394 50.6685 354.742 51.1277C355.002 51.4527 355.067 51.5827 355.36 51.9565C355.652 52.3302 355.847 52.704 355.701 52.1515C355.587 51.339 355.392 49.974 355.116 48.7552C354.905 47.829 354.856 47.6827 354.661 46.984C354.466 46.2852 354.352 45.7002 354.141 44.904C353.948 44.1216 353.796 43.3297 353.686 42.5315C353.481 41.5105 353.63 40.4502 354.108 39.5252C354.676 38.9912 355.509 38.8502 356.221 39.1677C356.937 39.6964 357.471 40.4346 357.748 41.2802C358.174 42.3208 358.459 43.4139 358.593 44.5302C358.853 46.1552 359.357 48.5277 359.373 49.0152C359.373 48.414 359.26 47.1465 359.373 46.5777C359.486 45.9848 359.898 45.4927 360.462 45.2777C360.946 45.1292 361.458 45.0958 361.957 45.1802C362.461 45.2855 362.907 45.5753 363.208 45.9927C363.585 46.9407 363.794 47.9469 363.826 48.9665C363.869 48.0737 364.022 47.1896 364.281 46.334C364.552 45.9514 364.949 45.6755 365.402 45.554C365.939 45.4557 366.49 45.4557 367.027 45.554C367.468 45.7012 367.853 45.9789 368.132 46.3502C368.476 47.212 368.685 48.122 368.75 49.0477C368.75 49.2752 368.863 48.414 369.221 47.8452C369.407 47.2937 369.873 46.8832 370.443 46.7683C371.014 46.6534 371.602 46.8516 371.987 47.2883C372.372 47.7249 372.494 48.3337 372.308 48.8852C372.308 49.9415 372.308 49.8927 372.308 50.6077C372.308 51.3227 372.308 51.9565 372.308 52.5577C372.249 53.5086 372.119 54.4538 371.918 55.3852C371.636 56.2093 371.242 56.991 370.748 57.709C369.959 58.5864 369.307 59.578 368.815 60.6502C368.692 61.1829 368.638 61.7289 368.652 62.2752C368.651 62.78 368.716 63.2827 368.847 63.7702C368.183 63.8405 367.513 63.8405 366.848 63.7702C366.215 63.6727 365.435 62.4052 365.223 62.0152C365.119 61.8058 364.905 61.6735 364.671 61.6735C364.437 61.6735 364.223 61.8058 364.118 62.0152C363.761 62.6327 362.965 63.754 362.412 63.819C361.323 63.949 359.081 63.819 357.31 63.819C357.31 63.819 357.602 62.194 356.936 61.609C356.27 61.024 355.587 60.3415 355.083 59.8865L353.718 58.3265Z" fill="white"></path> <path fill-rule="evenodd" clip-rule="evenodd" d="M353.718 58.3265C353.263 57.7415 352.695 56.5552 351.703 55.0765C351.135 54.264 349.737 52.7202 349.315 51.924C349.01 51.4401 348.922 50.8509 349.071 50.299C349.326 49.2496 350.321 48.5534 351.395 48.674C352.225 48.8407 352.988 49.2475 353.588 49.844C354.008 50.2391 354.394 50.6685 354.742 51.1277C355.002 51.4527 355.067 51.5827 355.36 51.9565C355.652 52.3302 355.847 52.704 355.701 52.1515C355.587 51.339 355.392 49.974 355.116 48.7552C354.905 47.829 354.856 47.6827 354.661 46.984C354.466 46.2852 354.352 45.7002 354.141 44.904C353.948 44.1216 353.796 43.3297 353.686 42.5315C353.481 41.5105 353.63 40.4502 354.108 39.5252C354.676 38.9912 355.509 38.8502 356.221 39.1677C356.937 39.6964 357.471 40.4346 357.748 41.2802C358.174 42.3208 358.459 43.4139 358.593 44.5302C358.853 46.1552 359.357 48.5277 359.373 49.0152C359.373 48.414 359.26 47.1465 359.373 46.5777C359.486 45.9848 359.898 45.4927 360.462 45.2777C360.946 45.1292 361.458 45.0958 361.957 45.1802C362.461 45.2855 362.907 45.5753 363.208 45.9927C363.585 46.9407 363.794 47.9469 363.826 48.9665C363.869 48.0737 364.022 47.1896 364.281 46.334C364.552 45.9514 364.949 45.6755 365.402 45.554C365.939 45.4557 366.49 45.4557 367.027 45.554C367.468 45.7012 367.853 45.9789 368.132 46.3502C368.476 47.212 368.685 48.122 368.75 49.0477C368.75 49.2752 368.863 48.414 369.221 47.8452C369.407 47.2937 369.873 46.8832 370.443 46.7683C371.014 46.6534 371.602 46.8516 371.987 47.2883C372.372 47.7249 372.494 48.3337 372.308 48.8852C372.308 49.9415 372.308 49.8927 372.308 50.6077C372.308 51.3227 372.308 51.9565 372.308 52.5577C372.249 53.5086 372.119 54.4538 371.918 55.3852C371.636 56.2093 371.242 56.991 370.748 57.709C369.959 58.5864 369.307 59.578 368.815 60.6502C368.692 61.1829 368.638 61.7289 368.652 62.2752C368.651 62.78 368.716 63.2827 368.847 63.7702C368.183 63.8405 367.513 63.8405 366.848 63.7702C366.215 63.6727 365.435 62.4052 365.223 62.0152C365.119 61.8058 364.905 61.6735 364.671 61.6735C364.437 61.6735 364.223 61.8058 364.118 62.0152C363.761 62.6327 362.965 63.754 362.412 63.819C361.323 63.949 359.081 63.819 357.31 63.819C357.31 63.819 357.602 62.194 356.936 61.609C356.27 61.024 355.587 60.3415 355.083 59.8865L353.718 58.3265Z" stroke="#202125" stroke-width="1.21875" stroke-linecap="round" stroke-linejoin="round"></path> <path d="M367.499 59.2137V53.6045C367.499 53.2688 367.226 52.9966 366.889 52.9966C366.553 52.9966 366.28 53.2688 366.28 53.6045V59.2137C366.28 59.5494 366.553 59.8216 366.889 59.8216C367.226 59.8216 367.499 59.5494 367.499 59.2137Z" fill="#202125"></path> <path d="M364.281 59.2116L364.249 53.5996C364.247 53.2646 363.972 52.9947 363.636 52.9966C363.299 52.9985 363.028 53.2716 363.03 53.6066L363.062 59.2186C363.064 59.5535 363.339 59.8235 363.675 59.8216C364.012 59.8196 364.283 59.5465 364.281 59.2116Z" fill="#202125"></path> <path d="M359.78 53.6124L359.812 59.2129C359.814 59.551 360.089 59.8235 360.425 59.8216C360.762 59.8196 361.033 59.5439 361.031 59.2057L360.999 53.6053C360.997 53.2671 360.722 52.9946 360.386 52.9966C360.049 52.9986 359.778 53.2743 359.78 53.6124Z" fill="#202125"></path> </g> <defs> <filter id="filter0_b_32_226520" x="289.349" y="223" width="165.855" height="119.65" filterUnits="userSpaceOnUse" color-interpolation-filters="sRGB"> <feFlood flood-opacity="0" result="BackgroundImageFix"></feFlood> <feGaussianBlur in="BackgroundImageFix" stdDeviation="23.012"></feGaussianBlur> <feComposite in2="SourceAlpha" operator="in" result="effect1_backgroundBlur_32_226520"></feComposite> <feBlend mode="normal" in="SourceGraphic" in2="effect1_backgroundBlur_32_226520" result="shape"></feBlend> </filter> <filter id="filter1_b_32_226520" x="296.252" y="223" width="152.048" height="119.65" filterUnits="userSpaceOnUse" color-interpolation-filters="sRGB"> <feFlood flood-opacity="0" result="BackgroundImageFix"></feFlood> <feGaussianBlur in="BackgroundImageFix" stdDeviation="23.012"></feGaussianBlur> <feComposite in2="SourceAlpha" operator="in" result="effect1_backgroundBlur_32_226520"></feComposite> <feBlend mode="normal" in="SourceGraphic" in2="effect1_backgroundBlur_32_226520" result="shape"></feBlend> </filter> <filter id="filter2_dd_32_226520" x="256" y="52" width="233" height="232" filterUnits="userSpaceOnUse" color-interpolation-filters="sRGB"> <feFlood flood-opacity="0" result="BackgroundImageFix"></feFlood> <feColorMatrix in="SourceAlpha" type="matrix" values="0 0 0 0 0 0 0 0 0 0 0 0 0 0 0 0 0 0 127 0" result="hardAlpha"></feColorMatrix> <feOffset dy="4"></feOffset> <feGaussianBlur stdDeviation="4"></feGaussianBlur> <feColorMatrix type="matrix" values="0 0 0 0 0.380392 0 0 0 0 0.380392 0 0 0 0 0.380392 0 0 0 0.18 0"></feColorMatrix> <feBlend mode="multiply" in2="BackgroundImageFix" result="effect1_dropShadow_32_226520"></feBlend> <feColorMatrix in="SourceAlpha" type="matrix" values="0 0 0 0 0 0 0 0 0 0 0 0 0 0 0 0 0 0 127 0" result="hardAlpha"></feColorMatrix> <feOffset dy="2"></feOffset> <feGaussianBlur stdDeviation="2"></feGaussianBlur> <feColorMatrix type="matrix" values="0 0 0 0 0.380392 0 0 0 0 0.380392 0 0 0 0 0.380392 0 0 0 0.18 0"></feColorMatrix> <feBlend mode="multiply" in2="effect1_dropShadow_32_226520" result="effect2_dropShadow_32_226520"></feBlend> <feBlend mode="normal" in="SourceGraphic" in2="effect2_dropShadow_32_226520" result="shape"></feBlend> </filter> <filter id="filter3_d_32_226520" x="344.391" y="38.0206" width="32.6125" height="34.0955" filterUnits="userSpaceOnUse" color-interpolation-filters="sRGB"> <feFlood flood-opacity="0" result="BackgroundImageFix"></feFlood> <feColorMatrix in="SourceAlpha" type="matrix" values="0 0 0 0 0 0 0 0 0 0 0 0 0 0 0 0 0 0 127 0" result="hardAlpha"></feColorMatrix> <feOffset dy="3.63"></feOffset> <feGaussianBlur stdDeviation="2"></feGaussianBlur> <feColorMatrix type="matrix" values="0 0 0 0 0 0 0 0 0 0 0 0 0 0 0 0 0 0 0.24 0"></feColorMatrix> <feBlend mode="normal" in2="BackgroundImageFix" result="effect1_dropShadow_32_226520"></feBlend> <feBlend mode="normal" in="SourceGraphic" in2="effect1_dropShadow_32_226520" result="shape"></feBlend> </filter> <clipPath id="clip0_32_226520"> <rect width="156.482" height="214.012" fill="white" transform="translate(326.168 72)"></rect> </clipPath> <clipPath id="clip1_32_226520"> <rect width="156" height="214" fill="white" transform="translate(326.168 72)"></rect> </clipPath> <clipPath id="clip2_32_226520"> <rect width="156.482" height="116.048" fill="white" transform="translate(496.457 337.952)"></rect> </clipPath> <clipPath id="clip3_32_226520"> <rect width="156" height="116" fill="white" transform="translate(496.457 337.952)"></rect> </clipPath> <clipPath id="clip4_32_226520"> <rect width="156.482" height="194.181" fill="white" transform="translate(326.168 259.819)"></rect> </clipPath> <clipPath id="clip5_32_226520"> <rect width="156" height="194" fill="white" transform="translate(326.168 259.819)"></rect> </clipPath> <clipPath id="clip6_32_226520"> <rect x="342.276" y="269.024" width="60" height="27.6024" rx="6.90361" fill="white"></rect> </clipPath> <clipPath id="clip7_32_226520"> <rect width="156.482" height="276.145" fill="white" transform="translate(496.457 48)"></rect> </clipPath> <clipPath id="clip8_32_226520"> <rect width="156" height="276" fill="white" transform="translate(496.457 48)"></rect> </clipPath> <clipPath id="clip9_32_226520"> <rect width="156.482" height="184.096" fill="white" transform="translate(155.879 72)"></rect> </clipPath> <clipPath id="clip10_32_226520"> <rect width="156" height="184" fill="white" transform="translate(155.879 72)"></rect> </clipPath> <clipPath id="clip11_32_226520"> <rect width="156.482" height="184.096" fill="white" transform="translate(155.879 269.904)"></rect> </clipPath> <clipPath id="clip12_32_226520"> <rect width="156" height="184" fill="white" transform="translate(155.879 269.904)"></rect> </clipPath> <clipPath id="clip13_32_226520"> <rect x="266" y="62" width="213" height="48" rx="8" fill="white"></rect> </clipPath> <clipPath id="clip14_32_226520"> <rect x="266" y="114" width="213" height="48" rx="8" fill="white"></rect> </clipPath> <clipPath id="clip15_32_226520"> <rect x="266" y="166" width="213" height="48" rx="8" fill="white"></rect> </clipPath> <clipPath id="clip16_32_226520"> <rect x="266" y="218" width="213" height="48" rx="8" fill="white"></rect> </clipPath> </defs> </svg> 