<?xml version="1.0" encoding="UTF-8"?> <svg xmlns="http://www.w3.org/2000/svg" width="576" height="384" viewBox="0 0 576 384" fill="none"> <g filter="url(#filter0_dd_8805_112600)"> <rect x="12" y="6" width="264" height="72" rx="30" fill="white"></rect> </g> <g filter="url(#filter1_dd_8805_112600)"> <rect x="12" y="294" width="240" height="72" rx="30" fill="white"></rect> </g> <g filter="url(#filter2_dd_8805_112600)"> <rect x="276" y="294" width="240" height="72" rx="30" fill="white"></rect> </g> <g filter="url(#filter3_dd_8805_112600)"> <rect x="12" y="198" width="312" height="72" rx="30" fill="white"></rect> </g> <g filter="url(#filter4_dd_8805_112600)"> <rect x="228" y="102" width="336" height="72" rx="30" fill="white"></rect> </g> <g filter="url(#filter5_dd_8805_112600)"> <rect x="12" y="102" width="192" height="72" rx="30" fill="white"></rect> </g> <g filter="url(#filter6_dd_8805_112600)"> <rect x="348" y="198" width="192" height="72" rx="30" fill="white"></rect> </g> <g filter="url(#filter7_dd_8805_112600)"> <rect x="300" y="6" width="192" height="72" rx="30" fill="white"></rect> </g> <rect x="78" y="30" width="168" height="24" rx="9" fill="url(#paint0_linear_8805_112600)"></rect> <rect x="366" y="30" width="96" height="24" rx="9" fill="url(#paint1_linear_8805_112600)"></rect> <rect x="78" y="126" width="96" height="24" rx="9" fill="url(#paint2_linear_8805_112600)"></rect> <rect x="294" y="126" width="156" height="24" rx="9" fill="url(#paint3_linear_8805_112600)"></rect> <rect x="462" y="126" width="72" height="24" rx="9" fill="url(#paint4_linear_8805_112600)"></rect> <rect x="78" y="222" width="48" height="24" rx="9" fill="url(#paint5_linear_8805_112600)"></rect> <rect x="138" y="222" width="156" height="24" rx="9" fill="url(#paint6_linear_8805_112600)"></rect> <rect x="414" y="222" width="96" height="24" rx="9" fill="url(#paint7_linear_8805_112600)"></rect> <rect x="342" y="318" width="24" height="24" rx="9" fill="url(#paint8_linear_8805_112600)"></rect> <rect x="378" y="318" width="108" height="24" rx="9" fill="url(#paint9_linear_8805_112600)"></rect> <rect x="78" y="318" width="144" height="24" rx="9" fill="url(#paint10_linear_8805_112600)"></rect> <path d="M42.7702 55.9551C42.0456 56.3275 41.2252 55.6767 41.3711 54.8452L42.9268 45.9774L36.3224 39.6837C35.7052 39.0955 36.0247 38.0201 36.8516 37.9026L46.0362 36.5978L50.1314 28.4856C50.5003 27.7548 51.4997 27.7548 51.8686 28.4856L55.9638 36.5978L65.1484 37.9026C65.9753 38.0201 66.2948 39.0955 65.6776 39.6837L59.0732 45.9774L60.6289 54.8452C60.7748 55.6767 59.9544 56.3275 59.2298 55.9551L51 51.7252L42.7702 55.9551Z" fill="#616161"></path> <path d="M42.7702 55.9551C42.0456 56.3275 41.2252 55.6767 41.3711 54.8452L42.9268 45.9774L36.3224 39.6837C35.7052 39.0955 36.0247 38.0201 36.8516 37.9026L46.0362 36.5978L50.1314 28.4856C50.5003 27.7548 51.4997 27.7548 51.8686 28.4856L55.9638 36.5978L65.1484 37.9026C65.9753 38.0201 66.2948 39.0955 65.6776 39.6837L59.0732 45.9774L60.6289 54.8452C60.7748 55.6767 59.9544 56.3275 59.2298 55.9551L51 51.7252L42.7702 55.9551Z" fill="url(#paint11_linear_8805_112600)"></path> <path d="M42.7702 151.955C42.0456 152.328 41.2252 151.677 41.3711 150.845L42.9268 141.977L36.3224 135.684C35.7052 135.095 36.0247 134.02 36.8516 133.903L46.0362 132.598L50.1314 124.486C50.5003 123.755 51.4997 123.755 51.8686 124.486L55.9638 132.598L65.1484 133.903C65.9753 134.02 66.2948 135.095 65.6776 135.684L59.0732 141.977L60.6289 150.845C60.7748 151.677 59.9544 152.328 59.2298 151.955L51 147.725L42.7702 151.955Z" fill="#616161"></path> <path d="M42.7702 151.955C42.0456 152.328 41.2252 151.677 41.3711 150.845L42.9268 141.977L36.3224 135.684C35.7052 135.095 36.0247 134.02 36.8516 133.903L46.0362 132.598L50.1314 124.486C50.5003 123.755 51.4997 123.755 51.8686 124.486L55.9638 132.598L65.1484 133.903C65.9753 134.02 66.2948 135.095 65.6776 135.684L59.0732 141.977L60.6289 150.845C60.7748 151.677 59.9544 152.328 59.2298 151.955L51 147.725L42.7702 151.955Z" fill="url(#paint12_linear_8805_112600)"></path> <path d="M42.7702 247.955C42.0456 248.328 41.2252 247.677 41.3711 246.845L42.9268 237.977L36.3224 231.684C35.7052 231.095 36.0247 230.02 36.8516 229.903L46.0362 228.598L50.1314 220.486C50.5003 219.755 51.4997 219.755 51.8686 220.486L55.9638 228.598L65.1484 229.903C65.9753 230.02 66.2948 231.095 65.6776 231.684L59.0732 237.977L60.6289 246.845C60.7748 247.677 59.9544 248.328 59.2298 247.955L51 243.725L42.7702 247.955Z" fill="#616161"></path> <path d="M42.7702 247.955C42.0456 248.328 41.2252 247.677 41.3711 246.845L42.9268 237.977L36.3224 231.684C35.7052 231.095 36.0247 230.02 36.8516 229.903L46.0362 228.598L50.1314 220.486C50.5003 219.755 51.4997 219.755 51.8686 220.486L55.9638 228.598L65.1484 229.903C65.9753 230.02 66.2948 231.095 65.6776 231.684L59.0732 237.977L60.6289 246.845C60.7748 247.677 59.9544 248.328 59.2298 247.955L51 243.725L42.7702 247.955Z" fill="url(#paint13_linear_8805_112600)"></path> <path d="M42.7702 343.955C42.0456 344.328 41.2252 343.677 41.3711 342.845L42.9268 333.977L36.3224 327.684C35.7052 327.095 36.0247 326.02 36.8516 325.903L46.0362 324.598L50.1314 316.486C50.5003 315.755 51.4997 315.755 51.8686 316.486L55.9638 324.598L65.1484 325.903C65.9753 326.02 66.2948 327.095 65.6776 327.684L59.0732 333.977L60.6289 342.845C60.7748 343.677 59.9544 344.328 59.2298 343.955L51 339.725L42.7702 343.955Z" fill="#616161"></path> <path d="M42.7702 343.955C42.0456 344.328 41.2252 343.677 41.3711 342.845L42.9268 333.977L36.3224 327.684C35.7052 327.095 36.0247 326.02 36.8516 325.903L46.0362 324.598L50.1314 316.486C50.5003 315.755 51.4997 315.755 51.8686 316.486L55.9638 324.598L65.1484 325.903C65.9753 326.02 66.2948 327.095 65.6776 327.684L59.0732 333.977L60.6289 342.845C60.7748 343.677 59.9544 344.328 59.2298 343.955L51 339.725L42.7702 343.955Z" fill="url(#paint14_linear_8805_112600)"></path> <path d="M306.77 343.955C306.046 344.328 305.225 343.677 305.371 342.845L306.927 333.977L300.322 327.684C299.705 327.095 300.025 326.02 300.852 325.903L310.036 324.598L314.131 316.486C314.5 315.755 315.5 315.755 315.869 316.486L319.964 324.598L329.148 325.903C329.975 326.02 330.295 327.095 329.678 327.684L323.073 333.977L324.629 342.845C324.775 343.677 323.954 344.328 323.23 343.955L315 339.725L306.77 343.955Z" fill="#616161"></path> <path d="M306.77 343.955C306.046 344.328 305.225 343.677 305.371 342.845L306.927 333.977L300.322 327.684C299.705 327.095 300.025 326.02 300.852 325.903L310.036 324.598L314.131 316.486C314.5 315.755 315.5 315.755 315.869 316.486L319.964 324.598L329.148 325.903C329.975 326.02 330.295 327.095 329.678 327.684L323.073 333.977L324.629 342.845C324.775 343.677 323.954 344.328 323.23 343.955L315 339.725L306.77 343.955Z" fill="url(#paint15_linear_8805_112600)"></path> <path d="M378.77 247.955C378.046 248.328 377.225 247.677 377.371 246.845L378.927 237.977L372.322 231.684C371.705 231.095 372.025 230.02 372.852 229.903L382.036 228.598L386.131 220.486C386.5 219.755 387.5 219.755 387.869 220.486L391.964 228.598L401.148 229.903C401.975 230.02 402.295 231.095 401.678 231.684L395.073 237.977L396.629 246.845C396.775 247.677 395.954 248.328 395.23 247.955L387 243.725L378.77 247.955Z" fill="#616161"></path> <path d="M378.77 247.955C378.046 248.328 377.225 247.677 377.371 246.845L378.927 237.977L372.322 231.684C371.705 231.095 372.025 230.02 372.852 229.903L382.036 228.598L386.131 220.486C386.5 219.755 387.5 219.755 387.869 220.486L391.964 228.598L401.148 229.903C401.975 230.02 402.295 231.095 401.678 231.684L395.073 237.977L396.629 246.845C396.775 247.677 395.954 248.328 395.23 247.955L387 243.725L378.77 247.955Z" fill="url(#paint16_linear_8805_112600)"></path> <path d="M258.77 151.955C258.046 152.328 257.225 151.677 257.371 150.845L258.927 141.977L252.322 135.684C251.705 135.095 252.025 134.02 252.852 133.903L262.036 132.598L266.131 124.486C266.5 123.755 267.5 123.755 267.869 124.486L271.964 132.598L281.148 133.903C281.975 134.02 282.295 135.095 281.678 135.684L275.073 141.977L276.629 150.845C276.775 151.677 275.954 152.328 275.23 151.955L267 147.725L258.77 151.955Z" fill="#616161"></path> <path d="M258.77 151.955C258.046 152.328 257.225 151.677 257.371 150.845L258.927 141.977L252.322 135.684C251.705 135.095 252.025 134.02 252.852 133.903L262.036 132.598L266.131 124.486C266.5 123.755 267.5 123.755 267.869 124.486L271.964 132.598L281.148 133.903C281.975 134.02 282.295 135.095 281.678 135.684L275.073 141.977L276.629 150.845C276.775 151.677 275.954 152.328 275.23 151.955L267 147.725L258.77 151.955Z" fill="url(#paint17_linear_8805_112600)"></path> <path d="M330.77 55.9551C330.046 56.3275 329.225 55.6767 329.371 54.8452L330.927 45.9774L324.322 39.6837C323.705 39.0955 324.025 38.0201 324.852 37.9026L334.036 36.5978L338.131 28.4856C338.5 27.7548 339.5 27.7548 339.869 28.4856L343.964 36.5978L353.148 37.9026C353.975 38.0201 354.295 39.0955 353.678 39.6837L347.073 45.9774L348.629 54.8452C348.775 55.6767 347.954 56.3275 347.23 55.9551L339 51.7252L330.77 55.9551Z" fill="#616161"></path> <path d="M330.77 55.9551C330.046 56.3275 329.225 55.6767 329.371 54.8452L330.927 45.9774L324.322 39.6837C323.705 39.0955 324.025 38.0201 324.852 37.9026L334.036 36.5978L338.131 28.4856C338.5 27.7548 339.5 27.7548 339.869 28.4856L343.964 36.5978L353.148 37.9026C353.975 38.0201 354.295 39.0955 353.678 39.6837L347.073 45.9774L348.629 54.8452C348.775 55.6767 347.954 56.3275 347.23 55.9551L339 51.7252L330.77 55.9551Z" fill="url(#paint18_linear_8805_112600)"></path> <defs> <filter id="filter0_dd_8805_112600" x="0" y="0" width="288" height="96" filterUnits="userSpaceOnUse" color-interpolation-filters="sRGB"> <feFlood flood-opacity="0" result="BackgroundImageFix"></feFlood> <feColorMatrix in="SourceAlpha" type="matrix" values="0 0 0 0 0 0 0 0 0 0 0 0 0 0 0 0 0 0 127 0" result="hardAlpha"></feColorMatrix> <feOffset dy="6"></feOffset> <feGaussianBlur stdDeviation="6"></feGaussianBlur> <feColorMatrix type="matrix" values="0 0 0 0 0.380392 0 0 0 0 0.380392 0 0 0 0 0.380392 0 0 0 0.2 0"></feColorMatrix> <feBlend mode="multiply" in2="BackgroundImageFix" result="effect1_dropShadow_8805_112600"></feBlend> <feColorMatrix in="SourceAlpha" type="matrix" values="0 0 0 0 0 0 0 0 0 0 0 0 0 0 0 0 0 0 127 0" result="hardAlpha"></feColorMatrix> <feOffset dy="3"></feOffset> <feGaussianBlur stdDeviation="3"></feGaussianBlur> <feColorMatrix type="matrix" values="0 0 0 0 0.380392 0 0 0 0 0.380392 0 0 0 0 0.380392 0 0 0 0.2 0"></feColorMatrix> <feBlend mode="multiply" in2="effect1_dropShadow_8805_112600" result="effect2_dropShadow_8805_112600"></feBlend> <feBlend mode="normal" in="SourceGraphic" in2="effect2_dropShadow_8805_112600" result="shape"></feBlend> </filter> <filter id="filter1_dd_8805_112600" x="0" y="288" width="264" height="96" filterUnits="userSpaceOnUse" color-interpolation-filters="sRGB"> <feFlood flood-opacity="0" result="BackgroundImageFix"></feFlood> <feColorMatrix in="SourceAlpha" type="matrix" values="0 0 0 0 0 0 0 0 0 0 0 0 0 0 0 0 0 0 127 0" result="hardAlpha"></feColorMatrix> <feOffset dy="6"></feOffset> <feGaussianBlur stdDeviation="6"></feGaussianBlur> <feColorMatrix type="matrix" values="0 0 0 0 0.380392 0 0 0 0 0.380392 0 0 0 0 0.380392 0 0 0 0.2 0"></feColorMatrix> <feBlend mode="multiply" in2="BackgroundImageFix" result="effect1_dropShadow_8805_112600"></feBlend> <feColorMatrix in="SourceAlpha" type="matrix" values="0 0 0 0 0 0 0 0 0 0 0 0 0 0 0 0 0 0 127 0" result="hardAlpha"></feColorMatrix> <feOffset dy="3"></feOffset> <feGaussianBlur stdDeviation="3"></feGaussianBlur> <feColorMatrix type="matrix" values="0 0 0 0 0.380392 0 0 0 0 0.380392 0 0 0 0 0.380392 0 0 0 0.2 0"></feColorMatrix> <feBlend mode="multiply" in2="effect1_dropShadow_8805_112600" result="effect2_dropShadow_8805_112600"></feBlend> <feBlend mode="normal" in="SourceGraphic" in2="effect2_dropShadow_8805_112600" result="shape"></feBlend> </filter> <filter id="filter2_dd_8805_112600" x="264" y="288" width="264" height="96" filterUnits="userSpaceOnUse" color-interpolation-filters="sRGB"> <feFlood flood-opacity="0" result="BackgroundImageFix"></feFlood> <feColorMatrix in="SourceAlpha" type="matrix" values="0 0 0 0 0 0 0 0 0 0 0 0 0 0 0 0 0 0 127 0" result="hardAlpha"></feColorMatrix> <feOffset dy="6"></feOffset> <feGaussianBlur stdDeviation="6"></feGaussianBlur> <feColorMatrix type="matrix" values="0 0 0 0 0.380392 0 0 0 0 0.380392 0 0 0 0 0.380392 0 0 0 0.2 0"></feColorMatrix> <feBlend mode="multiply" in2="BackgroundImageFix" result="effect1_dropShadow_8805_112600"></feBlend> <feColorMatrix in="SourceAlpha" type="matrix" values="0 0 0 0 0 0 0 0 0 0 0 0 0 0 0 0 0 0 127 0" result="hardAlpha"></feColorMatrix> <feOffset dy="3"></feOffset> <feGaussianBlur stdDeviation="3"></feGaussianBlur> <feColorMatrix type="matrix" values="0 0 0 0 0.380392 0 0 0 0 0.380392 0 0 0 0 0.380392 0 0 0 0.2 0"></feColorMatrix> <feBlend mode="multiply" in2="effect1_dropShadow_8805_112600" result="effect2_dropShadow_8805_112600"></feBlend> <feBlend mode="normal" in="SourceGraphic" in2="effect2_dropShadow_8805_112600" result="shape"></feBlend> </filter> <filter id="filter3_dd_8805_112600" x="0" y="192" width="336" height="96" filterUnits="userSpaceOnUse" color-interpolation-filters="sRGB"> <feFlood flood-opacity="0" result="BackgroundImageFix"></feFlood> <feColorMatrix in="SourceAlpha" type="matrix" values="0 0 0 0 0 0 0 0 0 0 0 0 0 0 0 0 0 0 127 0" result="hardAlpha"></feColorMatrix> <feOffset dy="6"></feOffset> <feGaussianBlur stdDeviation="6"></feGaussianBlur> <feColorMatrix type="matrix" values="0 0 0 0 0.380392 0 0 0 0 0.380392 0 0 0 0 0.380392 0 0 0 0.2 0"></feColorMatrix> <feBlend mode="multiply" in2="BackgroundImageFix" result="effect1_dropShadow_8805_112600"></feBlend> <feColorMatrix in="SourceAlpha" type="matrix" values="0 0 0 0 0 0 0 0 0 0 0 0 0 0 0 0 0 0 127 0" result="hardAlpha"></feColorMatrix> <feOffset dy="3"></feOffset> <feGaussianBlur stdDeviation="3"></feGaussianBlur> <feColorMatrix type="matrix" values="0 0 0 0 0.380392 0 0 0 0 0.380392 0 0 0 0 0.380392 0 0 0 0.2 0"></feColorMatrix> <feBlend mode="multiply" in2="effect1_dropShadow_8805_112600" result="effect2_dropShadow_8805_112600"></feBlend> <feBlend mode="normal" in="SourceGraphic" in2="effect2_dropShadow_8805_112600" result="shape"></feBlend> </filter> <filter id="filter4_dd_8805_112600" x="216" y="96" width="360" height="96" filterUnits="userSpaceOnUse" color-interpolation-filters="sRGB"> <feFlood flood-opacity="0" result="BackgroundImageFix"></feFlood> <feColorMatrix in="SourceAlpha" type="matrix" values="0 0 0 0 0 0 0 0 0 0 0 0 0 0 0 0 0 0 127 0" result="hardAlpha"></feColorMatrix> <feOffset dy="6"></feOffset> <feGaussianBlur stdDeviation="6"></feGaussianBlur> <feColorMatrix type="matrix" values="0 0 0 0 0.380392 0 0 0 0 0.380392 0 0 0 0 0.380392 0 0 0 0.2 0"></feColorMatrix> <feBlend mode="multiply" in2="BackgroundImageFix" result="effect1_dropShadow_8805_112600"></feBlend> <feColorMatrix in="SourceAlpha" type="matrix" values="0 0 0 0 0 0 0 0 0 0 0 0 0 0 0 0 0 0 127 0" result="hardAlpha"></feColorMatrix> <feOffset dy="3"></feOffset> <feGaussianBlur stdDeviation="3"></feGaussianBlur> <feColorMatrix type="matrix" values="0 0 0 0 0.380392 0 0 0 0 0.380392 0 0 0 0 0.380392 0 0 0 0.2 0"></feColorMatrix> <feBlend mode="multiply" in2="effect1_dropShadow_8805_112600" result="effect2_dropShadow_8805_112600"></feBlend> <feBlend mode="normal" in="SourceGraphic" in2="effect2_dropShadow_8805_112600" result="shape"></feBlend> </filter> <filter id="filter5_dd_8805_112600" x="0" y="96" width="216" height="96" filterUnits="userSpaceOnUse" color-interpolation-filters="sRGB"> <feFlood flood-opacity="0" result="BackgroundImageFix"></feFlood> <feColorMatrix in="SourceAlpha" type="matrix" values="0 0 0 0 0 0 0 0 0 0 0 0 0 0 0 0 0 0 127 0" result="hardAlpha"></feColorMatrix> <feOffset dy="6"></feOffset> <feGaussianBlur stdDeviation="6"></feGaussianBlur> <feColorMatrix type="matrix" values="0 0 0 0 0.380392 0 0 0 0 0.380392 0 0 0 0 0.380392 0 0 0 0.2 0"></feColorMatrix> <feBlend mode="multiply" in2="BackgroundImageFix" result="effect1_dropShadow_8805_112600"></feBlend> <feColorMatrix in="SourceAlpha" type="matrix" values="0 0 0 0 0 0 0 0 0 0 0 0 0 0 0 0 0 0 127 0" result="hardAlpha"></feColorMatrix> <feOffset dy="3"></feOffset> <feGaussianBlur stdDeviation="3"></feGaussianBlur> <feColorMatrix type="matrix" values="0 0 0 0 0.380392 0 0 0 0 0.380392 0 0 0 0 0.380392 0 0 0 0.2 0"></feColorMatrix> <feBlend mode="multiply" in2="effect1_dropShadow_8805_112600" result="effect2_dropShadow_8805_112600"></feBlend> <feBlend mode="normal" in="SourceGraphic" in2="effect2_dropShadow_8805_112600" result="shape"></feBlend> </filter> <filter id="filter6_dd_8805_112600" x="336" y="192" width="216" height="96" filterUnits="userSpaceOnUse" color-interpolation-filters="sRGB"> <feFlood flood-opacity="0" result="BackgroundImageFix"></feFlood> <feColorMatrix in="SourceAlpha" type="matrix" values="0 0 0 0 0 0 0 0 0 0 0 0 0 0 0 0 0 0 127 0" result="hardAlpha"></feColorMatrix> <feOffset dy="6"></feOffset> <feGaussianBlur stdDeviation="6"></feGaussianBlur> <feColorMatrix type="matrix" values="0 0 0 0 0.380392 0 0 0 0 0.380392 0 0 0 0 0.380392 0 0 0 0.2 0"></feColorMatrix> <feBlend mode="multiply" in2="BackgroundImageFix" result="effect1_dropShadow_8805_112600"></feBlend> <feColorMatrix in="SourceAlpha" type="matrix" values="0 0 0 0 0 0 0 0 0 0 0 0 0 0 0 0 0 0 127 0" result="hardAlpha"></feColorMatrix> <feOffset dy="3"></feOffset> <feGaussianBlur stdDeviation="3"></feGaussianBlur> <feColorMatrix type="matrix" values="0 0 0 0 0.380392 0 0 0 0 0.380392 0 0 0 0 0.380392 0 0 0 0.2 0"></feColorMatrix> <feBlend mode="multiply" in2="effect1_dropShadow_8805_112600" result="effect2_dropShadow_8805_112600"></feBlend> <feBlend mode="normal" in="SourceGraphic" in2="effect2_dropShadow_8805_112600" result="shape"></feBlend> </filter> <filter id="filter7_dd_8805_112600" x="288" y="0" width="216" height="96" filterUnits="userSpaceOnUse" color-interpolation-filters="sRGB"> <feFlood flood-opacity="0" result="BackgroundImageFix"></feFlood> <feColorMatrix in="SourceAlpha" type="matrix" values="0 0 0 0 0 0 0 0 0 0 0 0 0 0 0 0 0 0 127 0" result="hardAlpha"></feColorMatrix> <feOffset dy="6"></feOffset> <feGaussianBlur stdDeviation="6"></feGaussianBlur> <feColorMatrix type="matrix" values="0 0 0 0 0.380392 0 0 0 0 0.380392 0 0 0 0 0.380392 0 0 0 0.2 0"></feColorMatrix> <feBlend mode="multiply" in2="BackgroundImageFix" result="effect1_dropShadow_8805_112600"></feBlend> <feColorMatrix in="SourceAlpha" type="matrix" values="0 0 0 0 0 0 0 0 0 0 0 0 0 0 0 0 0 0 127 0" result="hardAlpha"></feColorMatrix> <feOffset dy="3"></feOffset> <feGaussianBlur stdDeviation="3"></feGaussianBlur> <feColorMatrix type="matrix" values="0 0 0 0 0.380392 0 0 0 0 0.380392 0 0 0 0 0.380392 0 0 0 0.2 0"></feColorMatrix> <feBlend mode="multiply" in2="effect1_dropShadow_8805_112600" result="effect2_dropShadow_8805_112600"></feBlend> <feBlend mode="normal" in="SourceGraphic" in2="effect2_dropShadow_8805_112600" result="shape"></feBlend> </filter> <linearGradient id="paint0_linear_8805_112600" x1="162" y1="30" x2="162" y2="54" gradientUnits="userSpaceOnUse"> <stop stop-color="#CDC6CD"></stop> <stop offset="1" stop-color="#E8EEF1" stop-opacity="0.72"></stop> </linearGradient> <linearGradient id="paint1_linear_8805_112600" x1="414" y1="30" x2="414" y2="54" gradientUnits="userSpaceOnUse"> <stop stop-color="#CDC6CD"></stop> <stop offset="1" stop-color="#E8EEF1" stop-opacity="0.72"></stop> </linearGradient> <linearGradient id="paint2_linear_8805_112600" x1="126" y1="126" x2="126" y2="150" gradientUnits="userSpaceOnUse"> <stop stop-color="#CDC6CD"></stop> <stop offset="1" stop-color="#E8EEF1" stop-opacity="0.72"></stop> </linearGradient> <linearGradient id="paint3_linear_8805_112600" x1="372" y1="126" x2="372" y2="150" gradientUnits="userSpaceOnUse"> <stop stop-color="#CDC6CD"></stop> <stop offset="1" stop-color="#E8EEF1" stop-opacity="0.72"></stop> </linearGradient> <linearGradient id="paint4_linear_8805_112600" x1="498" y1="126" x2="498" y2="150" gradientUnits="userSpaceOnUse"> <stop stop-color="#CDC6CD"></stop> <stop offset="1" stop-color="#E8EEF1" stop-opacity="0.72"></stop> </linearGradient> <linearGradient id="paint5_linear_8805_112600" x1="102" y1="222" x2="102" y2="246" gradientUnits="userSpaceOnUse"> <stop stop-color="#CDC6CD"></stop> <stop offset="1" stop-color="#E8EEF1" stop-opacity="0.72"></stop> </linearGradient> <linearGradient id="paint6_linear_8805_112600" x1="216" y1="222" x2="216" y2="246" gradientUnits="userSpaceOnUse"> <stop stop-color="#CDC6CD"></stop> <stop offset="1" stop-color="#E8EEF1" stop-opacity="0.72"></stop> </linearGradient> <linearGradient id="paint7_linear_8805_112600" x1="462" y1="222" x2="462" y2="246" gradientUnits="userSpaceOnUse"> <stop stop-color="#CDC6CD"></stop> <stop offset="1" stop-color="#E8EEF1" stop-opacity="0.72"></stop> </linearGradient> <linearGradient id="paint8_linear_8805_112600" x1="354" y1="318" x2="354" y2="342" gradientUnits="userSpaceOnUse"> <stop stop-color="#CDC6CD"></stop> <stop offset="1" stop-color="#E8EEF1" stop-opacity="0.72"></stop> </linearGradient> <linearGradient id="paint9_linear_8805_112600" x1="432" y1="318" x2="432" y2="342" gradientUnits="userSpaceOnUse"> <stop stop-color="#CDC6CD"></stop> <stop offset="1" stop-color="#E8EEF1" stop-opacity="0.72"></stop> </linearGradient> <linearGradient id="paint10_linear_8805_112600" x1="150" y1="318" x2="150" y2="342" gradientUnits="userSpaceOnUse"> <stop stop-color="#CDC6CD"></stop> <stop offset="1" stop-color="#E8EEF1" stop-opacity="0.72"></stop> </linearGradient> <linearGradient id="paint11_linear_8805_112600" x1="51" y1="27.9375" x2="51" y2="56.0625" gradientUnits="userSpaceOnUse"> <stop offset="0.458333" stop-color="#5171E0"></stop> <stop offset="1" stop-color="#32ADB5"></stop> </linearGradient> <linearGradient id="paint12_linear_8805_112600" x1="51" y1="123.938" x2="51" y2="152.062" gradientUnits="userSpaceOnUse"> <stop offset="0.458333" stop-color="#5171E0"></stop> <stop offset="1" stop-color="#32ADB5"></stop> </linearGradient> <linearGradient id="paint13_linear_8805_112600" x1="51" y1="219.938" x2="51" y2="248.062" gradientUnits="userSpaceOnUse"> <stop offset="0.458333" stop-color="#5171E0"></stop> <stop offset="1" stop-color="#32ADB5"></stop> </linearGradient> <linearGradient id="paint14_linear_8805_112600" x1="51" y1="315.938" x2="51" y2="344.062" gradientUnits="userSpaceOnUse"> <stop offset="0.458333" stop-color="#5171E0"></stop> <stop offset="1" stop-color="#32ADB5"></stop> </linearGradient> <linearGradient id="paint15_linear_8805_112600" x1="315" y1="315.938" x2="315" y2="344.062" gradientUnits="userSpaceOnUse"> <stop offset="0.458333" stop-color="#5171E0"></stop> <stop offset="1" stop-color="#32ADB5"></stop> </linearGradient> <linearGradient id="paint16_linear_8805_112600" x1="387" y1="219.938" x2="387" y2="248.062" gradientUnits="userSpaceOnUse"> <stop offset="0.458333" stop-color="#5171E0"></stop> <stop offset="1" stop-color="#32ADB5"></stop> </linearGradient> <linearGradient id="paint17_linear_8805_112600" x1="267" y1="123.938" x2="267" y2="152.062" gradientUnits="userSpaceOnUse"> <stop offset="0.458333" stop-color="#5171E0"></stop> <stop offset="1" stop-color="#32ADB5"></stop> </linearGradient> <linearGradient id="paint18_linear_8805_112600" x1="339" y1="27.9375" x2="339" y2="56.0625" gradientUnits="userSpaceOnUse"> <stop offset="0.458333" stop-color="#5171E0"></stop> <stop offset="1" stop-color="#32ADB5"></stop> </linearGradient> </defs> </svg> 