<?xml version="1.0" encoding="UTF-8"?> <svg xmlns="http://www.w3.org/2000/svg" width="866" height="325" viewBox="0 0 866 325" fill="none"> <g filter="url(#filter0_dd_8843_47994)"> <g filter="url(#filter1_i_8843_47994)"> <g clip-path="url(#clip0_8843_47994)"> <rect x="16" y="32" width="351" height="160" rx="80" fill="white"></rect> <g filter="url(#filter2_d_8843_47994)"> <path d="M84.48 137V90.92H98.688C99.1573 90.92 99.9787 90.9307 101.152 90.952C102.325 90.9733 103.445 91.0587 104.512 91.208C108.075 91.6773 111.051 92.9787 113.44 95.112C115.851 97.224 117.664 99.912 118.88 103.176C120.096 106.44 120.704 110.035 120.704 113.96C120.704 117.885 120.096 121.48 118.88 124.744C117.664 128.008 115.851 130.707 113.44 132.84C111.051 134.952 108.075 136.243 104.512 136.712C103.445 136.84 102.315 136.925 101.12 136.968C99.9467 136.989 99.136 137 98.688 137H84.48ZM90.336 131.56H98.688C99.4987 131.56 100.405 131.539 101.408 131.496C102.411 131.432 103.285 131.336 104.032 131.208C106.549 130.739 108.587 129.683 110.144 128.04C111.701 126.397 112.843 124.349 113.568 121.896C114.293 119.443 114.656 116.797 114.656 113.96C114.656 111.059 114.283 108.381 113.536 105.928C112.811 103.475 111.669 101.437 110.112 99.816C108.555 98.1947 106.528 97.16 104.032 96.712C103.285 96.5627 102.4 96.4667 101.376 96.424C100.352 96.3813 99.456 96.36 98.688 96.36H90.336V131.56ZM143.339 137.96C139.947 137.96 136.981 137.213 134.443 135.72C131.925 134.205 129.963 132.104 128.555 129.416C127.146 126.707 126.442 123.549 126.442 119.944C126.442 116.168 127.136 112.904 128.523 110.152C129.909 107.379 131.84 105.245 134.314 103.752C136.811 102.237 139.733 101.48 143.083 101.48C146.56 101.48 149.515 102.28 151.947 103.88C154.4 105.48 156.235 107.763 157.451 110.728C158.688 113.693 159.221 117.224 159.051 121.32H153.291V119.272C153.227 115.027 152.363 111.859 150.699 109.768C149.035 107.656 146.56 106.6 143.274 106.6C139.755 106.6 137.077 107.731 135.243 109.992C133.408 112.253 132.491 115.496 132.491 119.72C132.491 123.795 133.408 126.952 135.243 129.192C137.077 131.432 139.691 132.552 143.083 132.552C145.365 132.552 147.349 132.029 149.035 130.984C150.72 129.939 152.043 128.435 153.003 126.472L158.475 128.36C157.131 131.411 155.104 133.779 152.395 135.464C149.707 137.128 146.688 137.96 143.339 137.96ZM130.57 121.32V116.744H156.107V121.32H130.57ZM169.791 137V100.552C169.791 99.656 169.834 98.7493 169.919 97.832C170.004 96.8933 170.196 95.9867 170.495 95.112C170.794 94.216 171.284 93.3947 171.967 92.648C172.756 91.7733 173.62 91.1547 174.559 90.792C175.498 90.408 176.447 90.1733 177.407 90.088C178.388 90.0027 179.316 89.96 180.191 89.96H184.575V94.696H180.511C178.826 94.696 177.567 95.112 176.735 95.944C175.903 96.7547 175.487 97.992 175.487 99.656V137H169.791ZM163.935 107.144V102.44H184.575V107.144H163.935ZM198.889 137.96C196.308 137.96 194.142 137.491 192.393 136.552C190.665 135.592 189.353 134.333 188.457 132.776C187.582 131.219 187.145 129.512 187.145 127.656C187.145 125.843 187.486 124.275 188.169 122.952C188.873 121.608 189.854 120.499 191.113 119.624C192.372 118.728 193.876 118.024 195.625 117.512C197.268 117.064 199.102 116.68 201.129 116.36C203.177 116.019 205.246 115.709 207.337 115.432C209.428 115.155 211.38 114.888 213.193 114.632L211.145 115.816C211.209 112.744 210.59 110.472 209.289 109C208.009 107.528 205.79 106.792 202.633 106.792C200.542 106.792 198.708 107.272 197.129 108.232C195.572 109.171 194.473 110.707 193.833 112.84L188.425 111.208C189.257 108.179 190.868 105.8 193.257 104.072C195.646 102.344 198.793 101.48 202.697 101.48C205.833 101.48 208.521 102.045 210.761 103.176C213.022 104.285 214.644 105.971 215.625 108.232C216.116 109.299 216.425 110.461 216.553 111.72C216.681 112.957 216.745 114.259 216.745 115.624V137H211.689V128.712L212.873 129.48C211.572 132.275 209.748 134.387 207.401 135.816C205.076 137.245 202.238 137.96 198.889 137.96ZM199.753 133.192C201.801 133.192 203.572 132.829 205.065 132.104C206.58 131.357 207.796 130.387 208.713 129.192C209.63 127.976 210.228 126.653 210.505 125.224C210.825 124.157 210.996 122.973 211.017 121.672C211.06 120.349 211.081 119.336 211.081 118.632L213.065 119.496C211.209 119.752 209.385 119.997 207.593 120.232C205.801 120.467 204.105 120.723 202.505 121C200.905 121.256 199.465 121.565 198.185 121.928C197.246 122.227 196.361 122.611 195.529 123.08C194.718 123.549 194.057 124.157 193.545 124.904C193.054 125.629 192.809 126.536 192.809 127.624C192.809 128.563 193.044 129.459 193.513 130.312C194.004 131.165 194.75 131.859 195.753 132.392C196.777 132.925 198.11 133.192 199.753 133.192ZM238.505 137.896C236.286 137.896 234.377 137.544 232.777 136.84C231.198 136.136 229.886 135.197 228.841 134.024C227.796 132.851 226.974 131.549 226.377 130.12C225.78 128.691 225.353 127.229 225.097 125.736C224.862 124.243 224.745 122.845 224.745 121.544V102.44H230.505V119.752C230.505 121.373 230.654 122.941 230.953 124.456C231.252 125.971 231.753 127.336 232.457 128.552C233.182 129.768 234.142 130.728 235.337 131.432C236.553 132.136 238.068 132.488 239.881 132.488C241.31 132.488 242.612 132.243 243.785 131.752C244.958 131.261 245.961 130.536 246.793 129.576C247.625 128.595 248.265 127.357 248.713 125.864C249.161 124.371 249.385 122.632 249.385 120.648L253.129 121.8C253.129 125.128 252.521 127.997 251.305 130.408C250.11 132.819 248.414 134.675 246.217 135.976C244.041 137.256 241.47 137.896 238.505 137.896ZM250.025 137V127.752H249.385V102.44H255.113V137H250.025ZM265.033 137V89.96H270.729V137H265.033ZM299.946 137C297.898 137.405 295.871 137.565 293.866 137.48C291.882 137.416 290.111 137.021 288.554 136.296C286.997 135.549 285.813 134.397 285.002 132.84C284.319 131.475 283.946 130.099 283.882 128.712C283.839 127.304 283.818 125.715 283.818 123.944V92.84H289.514V123.688C289.514 125.096 289.525 126.301 289.546 127.304C289.589 128.307 289.813 129.171 290.218 129.896C290.986 131.261 292.202 132.061 293.866 132.296C295.551 132.531 297.578 132.467 299.946 132.104V137ZM276.81 107.144V102.44H299.946V107.144H276.81Z" fill="#616161"></path> </g> </g> </g> </g> <g filter="url(#filter3_dd_8843_47994)"> <g filter="url(#filter4_i_8843_47994)"> <g clip-path="url(#clip1_8843_47994)"> <rect x="416" y="32" width="386" height="160" rx="80" fill="white"></rect> <g filter="url(#filter5_d_8843_47994)"> <path d="M484.48 137V90.92H491.168V110.792H514.208V90.92H520.928V137H514.208V117.096H491.168V137H484.48ZM545.246 137.96C541.79 137.96 538.792 137.181 536.253 135.624C533.715 134.067 531.752 131.923 530.365 129.192C529 126.44 528.317 123.272 528.317 119.688C528.317 116.083 529.021 112.915 530.43 110.184C531.838 107.432 533.811 105.299 536.35 103.784C538.888 102.248 541.854 101.48 545.246 101.48C548.702 101.48 551.699 102.259 554.238 103.816C556.776 105.373 558.739 107.517 560.125 110.248C561.512 112.979 562.206 116.125 562.206 119.688C562.206 123.293 561.502 126.472 560.094 129.224C558.707 131.955 556.744 134.099 554.206 135.656C551.667 137.192 548.68 137.96 545.246 137.96ZM545.246 131.656C548.552 131.656 551.016 130.547 552.638 128.328C554.28 126.088 555.102 123.208 555.102 119.688C555.102 116.083 554.27 113.203 552.606 111.048C550.963 108.872 548.51 107.784 545.246 107.784C543.006 107.784 541.16 108.296 539.71 109.32C538.259 110.323 537.182 111.72 536.477 113.512C535.774 115.283 535.422 117.341 535.422 119.688C535.422 123.315 536.254 126.216 537.918 128.392C539.582 130.568 542.024 131.656 545.246 131.656ZM577.651 137L565.107 102.44H571.859L581.044 128.616L590.228 102.44H596.979L584.436 137H577.651ZM617.143 137.96C613.708 137.96 610.69 137.213 608.087 135.72C605.506 134.205 603.49 132.104 602.039 129.416C600.61 126.707 599.895 123.571 599.895 120.008C599.895 116.232 600.599 112.957 602.007 110.184C603.436 107.411 605.42 105.267 607.959 103.752C610.498 102.237 613.452 101.48 616.823 101.48C620.343 101.48 623.34 102.301 625.815 103.944C628.29 105.565 630.135 107.88 631.351 110.888C632.588 113.896 633.079 117.469 632.823 121.608H626.135V119.176C626.092 115.165 625.324 112.2 623.831 110.28C622.359 108.36 620.108 107.4 617.079 107.4C613.73 107.4 611.212 108.456 609.527 110.568C607.842 112.68 606.999 115.731 606.999 119.72C606.999 123.517 607.842 126.461 609.527 128.552C611.212 130.621 613.644 131.656 616.823 131.656C618.914 131.656 620.716 131.187 622.231 130.248C623.767 129.288 624.962 127.923 625.815 126.152L632.375 128.232C631.031 131.325 628.994 133.725 626.263 135.432C623.532 137.117 620.492 137.96 617.143 137.96ZM604.823 121.608V116.392H629.495V121.608H604.823ZM640.322 137V102.44H646.274V110.824L645.442 109.736C645.869 108.627 646.424 107.613 647.106 106.696C647.789 105.757 648.578 104.989 649.474 104.392C650.349 103.752 651.32 103.261 652.386 102.92C653.474 102.557 654.584 102.344 655.715 102.28C656.845 102.195 657.933 102.248 658.979 102.44V108.712C657.848 108.413 656.589 108.328 655.202 108.456C653.837 108.584 652.578 109.021 651.426 109.768C650.338 110.472 649.474 111.325 648.834 112.328C648.216 113.331 647.768 114.451 647.49 115.688C647.213 116.904 647.074 118.195 647.074 119.56V137H640.322ZM680.096 137.96C676.661 137.96 673.642 137.213 671.04 135.72C668.458 134.205 666.442 132.104 664.992 129.416C663.562 126.707 662.848 123.571 662.848 120.008C662.848 116.232 663.552 112.957 664.96 110.184C666.389 107.411 668.373 105.267 670.912 103.752C673.45 102.237 676.405 101.48 679.776 101.48C683.296 101.48 686.293 102.301 688.768 103.944C691.242 105.565 693.088 107.88 694.304 110.888C695.541 113.896 696.032 117.469 695.776 121.608H689.088V119.176C689.045 115.165 688.277 112.2 686.784 110.28C685.312 108.36 683.061 107.4 680.032 107.4C676.682 107.4 674.165 108.456 672.48 110.568C670.794 112.68 669.952 115.731 669.952 119.72C669.952 123.517 670.794 126.461 672.48 128.552C674.165 130.621 676.597 131.656 679.776 131.656C681.866 131.656 683.669 131.187 685.184 130.248C686.72 129.288 687.914 127.923 688.768 126.152L695.328 128.232C693.984 131.325 691.946 133.725 689.216 135.432C686.485 137.117 683.445 137.96 680.096 137.96ZM667.776 121.608V116.392H692.448V121.608H667.776ZM717.003 137.96C713.782 137.96 710.998 137.16 708.651 135.56C706.326 133.96 704.523 131.784 703.243 129.032C701.984 126.259 701.355 123.144 701.355 119.688C701.355 116.211 701.995 113.107 703.275 110.376C704.555 107.624 706.368 105.459 708.715 103.88C711.083 102.28 713.888 101.48 717.131 101.48C720.395 101.48 723.136 102.28 725.355 103.88C727.595 105.459 729.28 107.624 730.411 110.376C731.563 113.128 732.139 116.232 732.139 119.688C732.139 123.144 731.563 126.248 730.411 129C729.259 131.752 727.563 133.939 725.323 135.56C723.083 137.16 720.31 137.96 717.003 137.96ZM717.931 131.912C720.128 131.912 721.92 131.389 723.307 130.344C724.694 129.299 725.707 127.859 726.347 126.024C726.987 124.189 727.307 122.077 727.307 119.688C727.307 117.299 726.976 115.187 726.315 113.352C725.675 111.517 724.672 110.088 723.307 109.064C721.963 108.04 720.246 107.528 718.155 107.528C715.936 107.528 714.112 108.072 712.683 109.16C711.254 110.248 710.187 111.709 709.483 113.544C708.8 115.379 708.459 117.427 708.459 119.688C708.459 121.971 708.8 124.04 709.483 125.896C710.187 127.731 711.232 129.192 712.619 130.28C714.027 131.368 715.798 131.912 717.931 131.912ZM727.307 137V112.136H726.539V90.92H733.259V137H727.307Z" fill="black"></path> </g> </g> </g> </g> <g filter="url(#filter6_dd_8843_47994)"> <path d="M607.004 175.966L536.199 158.73L554.521 227.051L569.272 214.474L593.65 232.485L611.196 214.474L591.477 191.493L607.004 175.966Z" fill="black" stroke="black" stroke-width="2.89091"></path> <path d="M615.017 211.668L596.757 193.409L609.933 180.234C611.074 179.092 611.544 177.441 611.172 175.87C610.801 174.298 609.644 173.031 608.112 172.521L536.071 153.181C534.397 152.623 532.552 153.059 531.304 154.306C530.056 155.554 529.621 157.399 530.179 159.073L549.518 231.115C550.029 232.646 551.296 233.804 552.867 234.175C554.438 234.547 556.09 234.077 557.231 232.935L570.407 219.76L588.666 238.019C589.576 238.929 590.768 239.384 591.96 239.384C593.152 239.384 594.345 238.929 595.254 238.019L615.017 218.256C616.836 216.437 616.836 213.488 615.017 211.668ZM591.96 228.138L573.7 209.878C571.881 208.059 568.932 208.059 567.113 209.878L555.973 221.018L541.963 164.966L598.015 178.976L586.876 190.115C585.058 191.933 585.057 194.884 586.876 196.703L605.135 214.962L591.96 228.138Z" fill="white"></path> </g> <defs> <filter id="filter0_dd_8843_47994" x="0" y="24" width="383" height="192" filterUnits="userSpaceOnUse" color-interpolation-filters="sRGB"> <feFlood flood-opacity="0" result="BackgroundImageFix"></feFlood> <feColorMatrix in="SourceAlpha" type="matrix" values="0 0 0 0 0 0 0 0 0 0 0 0 0 0 0 0 0 0 127 0" result="hardAlpha"></feColorMatrix> <feOffset dy="8"></feOffset> <feGaussianBlur stdDeviation="8"></feGaussianBlur> <feColorMatrix type="matrix" values="0 0 0 0 0.380392 0 0 0 0 0.380392 0 0 0 0 0.380392 0 0 0 0.2 0"></feColorMatrix> <feBlend mode="multiply" in2="BackgroundImageFix" result="effect1_dropShadow_8843_47994"></feBlend> <feColorMatrix in="SourceAlpha" type="matrix" values="0 0 0 0 0 0 0 0 0 0 0 0 0 0 0 0 0 0 127 0" result="hardAlpha"></feColorMatrix> <feOffset dy="4"></feOffset> <feGaussianBlur stdDeviation="4"></feGaussianBlur> <feColorMatrix type="matrix" values="0 0 0 0 0.380392 0 0 0 0 0.380392 0 0 0 0 0.380392 0 0 0 0.2 0"></feColorMatrix> <feBlend mode="multiply" in2="effect1_dropShadow_8843_47994" result="effect2_dropShadow_8843_47994"></feBlend> <feBlend mode="normal" in="SourceGraphic" in2="effect2_dropShadow_8843_47994" result="shape"></feBlend> </filter> <filter id="filter1_i_8843_47994" x="16" y="8" width="351" height="184" filterUnits="userSpaceOnUse" color-interpolation-filters="sRGB"> <feFlood flood-opacity="0" result="BackgroundImageFix"></feFlood> <feBlend mode="normal" in="SourceGraphic" in2="BackgroundImageFix" result="shape"></feBlend> <feColorMatrix in="SourceAlpha" type="matrix" values="0 0 0 0 0 0 0 0 0 0 0 0 0 0 0 0 0 0 127 0" result="hardAlpha"></feColorMatrix> <feOffset dy="-24"></feOffset> <feGaussianBlur stdDeviation="24"></feGaussianBlur> <feComposite in2="hardAlpha" operator="arithmetic" k2="-1" k3="1"></feComposite> <feColorMatrix type="matrix" values="0 0 0 0 0 0 0 0 0 0 0 0 0 0 0 0 0 0 0.05 0"></feColorMatrix> <feBlend mode="normal" in2="shape" result="effect1_innerShadow_8843_47994"></feBlend> </filter> <filter id="filter2_d_8843_47994" x="84.4805" y="89.96" width="215.465" height="52" filterUnits="userSpaceOnUse" color-interpolation-filters="sRGB"> <feFlood flood-opacity="0" result="BackgroundImageFix"></feFlood> <feColorMatrix in="SourceAlpha" type="matrix" values="0 0 0 0 0 0 0 0 0 0 0 0 0 0 0 0 0 0 127 0" result="hardAlpha"></feColorMatrix> <feOffset dy="4"></feOffset> <feComposite in2="hardAlpha" operator="out"></feComposite> <feColorMatrix type="matrix" values="0 0 0 0 1 0 0 0 0 1 0 0 0 0 1 0 0 0 1 0"></feColorMatrix> <feBlend mode="normal" in2="BackgroundImageFix" result="effect1_dropShadow_8843_47994"></feBlend> <feBlend mode="normal" in="SourceGraphic" in2="effect1_dropShadow_8843_47994" result="shape"></feBlend> </filter> <filter id="filter3_dd_8843_47994" x="352" y="0" width="514" height="288" filterUnits="userSpaceOnUse" color-interpolation-filters="sRGB"> <feFlood flood-opacity="0" result="BackgroundImageFix"></feFlood> <feColorMatrix in="SourceAlpha" type="matrix" values="0 0 0 0 0 0 0 0 0 0 0 0 0 0 0 0 0 0 127 0" result="hardAlpha"></feColorMatrix> <feOffset dy="32"></feOffset> <feGaussianBlur stdDeviation="32"></feGaussianBlur> <feColorMatrix type="matrix" values="0 0 0 0 0.380392 0 0 0 0 0.380392 0 0 0 0 0.380392 0 0 0 0.14 0"></feColorMatrix> <feBlend mode="multiply" in2="BackgroundImageFix" result="effect1_dropShadow_8843_47994"></feBlend> <feColorMatrix in="SourceAlpha" type="matrix" values="0 0 0 0 0 0 0 0 0 0 0 0 0 0 0 0 0 0 127 0" result="hardAlpha"></feColorMatrix> <feOffset dy="16"></feOffset> <feGaussianBlur stdDeviation="16"></feGaussianBlur> <feColorMatrix type="matrix" values="0 0 0 0 0.380392 0 0 0 0 0.380392 0 0 0 0 0.380392 0 0 0 0.14 0"></feColorMatrix> <feBlend mode="multiply" in2="effect1_dropShadow_8843_47994" result="effect2_dropShadow_8843_47994"></feBlend> <feBlend mode="normal" in="SourceGraphic" in2="effect2_dropShadow_8843_47994" result="shape"></feBlend> </filter> <filter id="filter4_i_8843_47994" x="416" y="8" width="386" height="184" filterUnits="userSpaceOnUse" color-interpolation-filters="sRGB"> <feFlood flood-opacity="0" result="BackgroundImageFix"></feFlood> <feBlend mode="normal" in="SourceGraphic" in2="BackgroundImageFix" result="shape"></feBlend> <feColorMatrix in="SourceAlpha" type="matrix" values="0 0 0 0 0 0 0 0 0 0 0 0 0 0 0 0 0 0 127 0" result="hardAlpha"></feColorMatrix> <feOffset dy="-24"></feOffset> <feGaussianBlur stdDeviation="24"></feGaussianBlur> <feComposite in2="hardAlpha" operator="arithmetic" k2="-1" k3="1"></feComposite> <feColorMatrix type="matrix" values="0 0 0 0 0 0 0 0 0 0 0 0 0 0 0 0 0 0 0.05 0"></feColorMatrix> <feBlend mode="normal" in2="shape" result="effect1_innerShadow_8843_47994"></feBlend> </filter> <filter id="filter5_d_8843_47994" x="484.48" y="90.92" width="248.779" height="51.04" filterUnits="userSpaceOnUse" color-interpolation-filters="sRGB"> <feFlood flood-opacity="0" result="BackgroundImageFix"></feFlood> <feColorMatrix in="SourceAlpha" type="matrix" values="0 0 0 0 0 0 0 0 0 0 0 0 0 0 0 0 0 0 127 0" result="hardAlpha"></feColorMatrix> <feOffset dy="4"></feOffset> <feComposite in2="hardAlpha" operator="out"></feComposite> <feColorMatrix type="matrix" values="0 0 0 0 1 0 0 0 0 1 0 0 0 0 1 0 0 0 1 0"></feColorMatrix> <feBlend mode="normal" in2="BackgroundImageFix" result="effect1_dropShadow_8843_47994"></feBlend> <feBlend mode="normal" in="SourceGraphic" in2="effect1_dropShadow_8843_47994" result="shape"></feBlend> </filter> <filter id="filter6_dd_8843_47994" x="416.467" y="67.7333" width="272.067" height="272.067" filterUnits="userSpaceOnUse" color-interpolation-filters="sRGB"> <feFlood flood-opacity="0" result="BackgroundImageFix"></feFlood> <feColorMatrix in="SourceAlpha" type="matrix" values="0 0 0 0 0 0 0 0 0 0 0 0 0 0 0 0 0 0 127 0" result="hardAlpha"></feColorMatrix> <feOffset dy="28.2667"></feOffset> <feGaussianBlur stdDeviation="28.2667"></feGaussianBlur> <feColorMatrix type="matrix" values="0 0 0 0 0.380392 0 0 0 0 0.380392 0 0 0 0 0.380392 0 0 0 0.14 0"></feColorMatrix> <feBlend mode="multiply" in2="BackgroundImageFix" result="effect1_dropShadow_8843_47994"></feBlend> <feColorMatrix in="SourceAlpha" type="matrix" values="0 0 0 0 0 0 0 0 0 0 0 0 0 0 0 0 0 0 127 0" result="hardAlpha"></feColorMatrix> <feOffset dy="14.1333"></feOffset> <feGaussianBlur stdDeviation="14.1333"></feGaussianBlur> <feColorMatrix type="matrix" values="0 0 0 0 0.380392 0 0 0 0 0.380392 0 0 0 0 0.380392 0 0 0 0.14 0"></feColorMatrix> <feBlend mode="multiply" in2="effect1_dropShadow_8843_47994" result="effect2_dropShadow_8843_47994"></feBlend> <feBlend mode="normal" in="SourceGraphic" in2="effect2_dropShadow_8843_47994" result="shape"></feBlend> </filter> <clipPath id="clip0_8843_47994"> <rect x="16" y="32" width="351" height="160" rx="80" fill="white"></rect> </clipPath> <clipPath id="clip1_8843_47994"> <rect x="416" y="32" width="386" height="160" rx="80" fill="white"></rect> </clipPath> </defs> </svg> 