<?xml version="1.0" encoding="UTF-8"?> <svg xmlns="http://www.w3.org/2000/svg" width="593" height="264" viewBox="0 0 593 264" fill="none"> <g clip-path="url(#clip0_8816_339848)"> <g filter="url(#filter0_i_8816_339848)"> <g clip-path="url(#clip1_8816_339848)"> <rect width="377" height="120" rx="48" fill="#E6E6E6" fill-opacity="0.5"></rect> <path d="M63.624 78.72C61.176 78.72 58.968 78.304 57 77.472C55.048 76.64 53.432 75.456 52.152 73.92C50.888 72.368 50.064 70.536 49.68 68.424L54.096 67.728C54.656 69.904 55.816 71.608 57.576 72.84C59.352 74.056 61.44 74.664 63.84 74.664C65.392 74.664 66.792 74.424 68.04 73.944C69.304 73.448 70.304 72.744 71.04 71.832C71.776 70.92 72.144 69.84 72.144 68.592C72.144 67.824 72.008 67.168 71.736 66.624C71.48 66.064 71.12 65.592 70.656 65.208C70.208 64.808 69.696 64.472 69.12 64.2C68.544 63.928 67.944 63.704 67.32 63.528L58.512 60.912C57.552 60.624 56.624 60.264 55.728 59.832C54.832 59.384 54.032 58.832 53.328 58.176C52.624 57.504 52.064 56.704 51.648 55.776C51.232 54.832 51.024 53.72 51.024 52.44C51.024 50.392 51.552 48.648 52.608 47.208C53.68 45.752 55.128 44.64 56.952 43.872C58.776 43.104 60.832 42.728 63.12 42.744C65.44 42.76 67.512 43.176 69.336 43.992C71.176 44.792 72.696 45.944 73.896 47.448C75.112 48.952 75.928 50.752 76.344 52.848L71.808 53.64C71.568 52.232 71.032 51.024 70.2 50.016C69.384 48.992 68.36 48.208 67.128 47.664C65.896 47.104 64.544 46.816 63.072 46.8C61.664 46.784 60.392 47.008 59.256 47.472C58.12 47.936 57.216 48.584 56.544 49.416C55.872 50.232 55.536 51.176 55.536 52.248C55.536 53.304 55.84 54.16 56.448 54.816C57.056 55.456 57.8 55.968 58.68 56.352C59.576 56.72 60.448 57.024 61.296 57.264L67.872 59.16C68.624 59.368 69.488 59.656 70.464 60.024C71.456 60.392 72.416 60.912 73.344 61.584C74.272 62.24 75.04 63.12 75.648 64.224C76.256 65.312 76.56 66.688 76.56 68.352C76.56 70.016 76.224 71.496 75.552 72.792C74.896 74.088 73.976 75.176 72.792 76.056C71.608 76.92 70.232 77.576 68.664 78.024C67.096 78.488 65.416 78.72 63.624 78.72ZM100.29 78V65.016C100.29 63.784 100.178 62.6 99.9544 61.464C99.7464 60.328 99.3704 59.312 98.8264 58.416C98.2984 57.504 97.5784 56.784 96.6664 56.256C95.7704 55.728 94.6344 55.464 93.2584 55.464C92.1864 55.464 91.2104 55.648 90.3304 56.016C89.4664 56.368 88.7224 56.912 88.0984 57.648C87.4744 58.384 86.9864 59.312 86.6344 60.432C86.2984 61.536 86.1304 62.84 86.1304 64.344L83.3224 63.48C83.3224 60.968 83.7704 58.816 84.6664 57.024C85.5784 55.216 86.8504 53.832 88.4824 52.872C90.1304 51.896 92.0664 51.408 94.2904 51.408C95.9704 51.408 97.4024 51.672 98.5864 52.2C99.7704 52.728 100.754 53.432 101.538 54.312C102.322 55.176 102.938 56.152 103.386 57.24C103.834 58.312 104.146 59.408 104.322 60.528C104.514 61.632 104.61 62.68 104.61 63.672V78H100.29ZM81.8104 78V43.44H85.6504V62.52H86.1304V78H81.8104ZM118.458 78.72C116.522 78.72 114.898 78.368 113.586 77.664C112.29 76.944 111.306 76 110.634 74.832C109.978 73.664 109.65 72.384 109.65 70.992C109.65 69.632 109.906 68.456 110.418 67.464C110.946 66.456 111.682 65.624 112.626 64.968C113.57 64.296 114.698 63.768 116.01 63.384C117.242 63.048 118.618 62.76 120.138 62.52C121.674 62.264 123.226 62.032 124.794 61.824C126.362 61.616 127.826 61.416 129.186 61.224L127.65 62.112C127.698 59.808 127.234 58.104 126.258 57C125.298 55.896 123.634 55.344 121.266 55.344C119.698 55.344 118.322 55.704 117.138 56.424C115.97 57.128 115.146 58.28 114.666 59.88L110.61 58.656C111.234 56.384 112.442 54.6 114.234 53.304C116.026 52.008 118.386 51.36 121.314 51.36C123.666 51.36 125.682 51.784 127.362 52.632C129.058 53.464 130.274 54.728 131.01 56.424C131.378 57.224 131.61 58.096 131.706 59.04C131.802 59.968 131.85 60.944 131.85 61.968V78H128.058V71.784L128.946 72.36C127.97 74.456 126.602 76.04 124.842 77.112C123.098 78.184 120.97 78.72 118.458 78.72ZM119.106 75.144C120.642 75.144 121.97 74.872 123.09 74.328C124.226 73.768 125.138 73.04 125.826 72.144C126.514 71.232 126.962 70.24 127.17 69.168C127.41 68.368 127.538 67.48 127.554 66.504C127.586 65.512 127.602 64.752 127.602 64.224L129.09 64.872C127.698 65.064 126.33 65.248 124.986 65.424C123.642 65.6 122.37 65.792 121.17 66C119.97 66.192 118.89 66.424 117.93 66.696C117.226 66.92 116.562 67.208 115.938 67.56C115.33 67.912 114.834 68.368 114.45 68.928C114.082 69.472 113.898 70.152 113.898 70.968C113.898 71.672 114.074 72.344 114.426 72.984C114.794 73.624 115.354 74.144 116.106 74.544C116.874 74.944 117.874 75.144 119.106 75.144ZM148.506 78.72C146.09 78.72 144.018 78.12 142.29 76.92C140.562 75.704 139.226 74.064 138.282 72C137.354 69.936 136.89 67.608 136.89 65.016C136.89 62.424 137.354 60.096 138.282 58.032C139.226 55.968 140.562 54.344 142.29 53.16C144.018 51.96 146.082 51.36 148.482 51.36C150.93 51.36 152.986 51.952 154.65 53.136C156.314 54.32 157.57 55.944 158.418 58.008C159.282 60.072 159.714 62.408 159.714 65.016C159.714 67.592 159.282 69.92 158.418 72C157.57 74.064 156.314 75.704 154.65 76.92C152.986 78.12 150.938 78.72 148.506 78.72ZM149.034 74.808C150.778 74.808 152.21 74.392 153.33 73.56C154.45 72.712 155.274 71.552 155.802 70.08C156.346 68.592 156.618 66.904 156.618 65.016C156.618 63.096 156.346 61.408 155.802 59.952C155.274 58.48 154.458 57.336 153.354 56.52C152.25 55.688 150.85 55.272 149.154 55.272C147.394 55.272 145.938 55.704 144.786 56.568C143.65 57.432 142.802 58.6 142.242 60.072C141.698 61.544 141.426 63.192 141.426 65.016C141.426 66.856 141.706 68.52 142.266 70.008C142.826 71.48 143.666 72.648 144.786 73.512C145.922 74.376 147.338 74.808 149.034 74.808ZM156.618 78V58.92H156.138V43.44H160.434V78H156.618ZM178.63 78.72C176.086 78.72 173.862 78.16 171.958 77.04C170.07 75.904 168.598 74.328 167.542 72.312C166.486 70.28 165.958 67.912 165.958 65.208C165.958 62.376 166.478 59.928 167.518 57.864C168.558 55.784 170.006 54.184 171.862 53.064C173.734 51.928 175.926 51.36 178.438 51.36C181.046 51.36 183.262 51.96 185.086 53.16C186.926 54.36 188.302 56.072 189.214 58.296C190.142 60.52 190.542 63.168 190.414 66.24H186.094V64.704C186.046 61.52 185.398 59.144 184.15 57.576C182.902 55.992 181.046 55.2 178.582 55.2C175.942 55.2 173.934 56.048 172.558 57.744C171.182 59.44 170.494 61.872 170.494 65.04C170.494 68.096 171.182 70.464 172.558 72.144C173.934 73.824 175.894 74.664 178.438 74.664C180.15 74.664 181.638 74.272 182.902 73.488C184.166 72.704 185.158 71.576 185.878 70.104L189.982 71.52C188.974 73.808 187.454 75.584 185.422 76.848C183.406 78.096 181.142 78.72 178.63 78.72ZM169.054 66.24V62.808H188.206V66.24H169.054ZM206.173 78.72C203.757 78.72 201.685 78.12 199.957 76.92C198.229 75.704 196.893 74.064 195.949 72C195.021 69.936 194.557 67.608 194.557 65.016C194.557 62.424 195.021 60.096 195.949 58.032C196.893 55.968 198.229 54.344 199.957 53.16C201.685 51.96 203.749 51.36 206.149 51.36C208.597 51.36 210.653 51.952 212.317 53.136C213.981 54.32 215.237 55.944 216.085 58.008C216.949 60.072 217.381 62.408 217.381 65.016C217.381 67.592 216.949 69.92 216.085 72C215.237 74.064 213.981 75.704 212.317 76.92C210.653 78.12 208.605 78.72 206.173 78.72ZM206.701 74.808C208.445 74.808 209.877 74.392 210.997 73.56C212.117 72.712 212.941 71.552 213.469 70.08C214.013 68.592 214.285 66.904 214.285 65.016C214.285 63.096 214.013 61.408 213.469 59.952C212.941 58.48 212.125 57.336 211.021 56.52C209.917 55.688 208.517 55.272 206.821 55.272C205.061 55.272 203.605 55.704 202.453 56.568C201.317 57.432 200.469 58.6 199.909 60.072C199.365 61.544 199.093 63.192 199.093 65.016C199.093 66.856 199.373 68.52 199.933 70.008C200.493 71.48 201.333 72.648 202.453 73.512C203.589 74.376 205.005 74.808 206.701 74.808ZM214.285 78V58.92H213.805V43.44H218.101V78H214.285ZM245.835 78.72C243.211 78.72 240.979 78.136 239.139 76.968C237.315 75.784 235.923 74.16 234.963 72.096C234.003 70.032 233.507 67.68 233.475 65.04C233.507 62.336 234.011 59.96 234.987 57.912C235.979 55.848 237.395 54.24 239.235 53.088C241.075 51.936 243.291 51.36 245.883 51.36C248.619 51.36 250.971 52.032 252.939 53.376C254.923 54.72 256.251 56.56 256.923 58.896L252.699 60.168C252.155 58.664 251.267 57.496 250.035 56.664C248.819 55.832 247.419 55.416 245.835 55.416C244.059 55.416 242.595 55.832 241.443 56.664C240.291 57.48 239.435 58.616 238.875 60.072C238.315 61.512 238.027 63.168 238.011 65.04C238.043 67.92 238.707 70.248 240.003 72.024C241.315 73.784 243.259 74.664 245.835 74.664C247.531 74.664 248.939 74.28 250.059 73.512C251.179 72.728 252.027 71.6 252.603 70.128L256.923 71.256C256.027 73.672 254.627 75.52 252.723 76.8C250.819 78.08 248.523 78.72 245.835 78.72ZM280.517 78V65.016C280.517 63.784 280.405 62.6 280.181 61.464C279.973 60.328 279.597 59.312 279.053 58.416C278.525 57.504 277.805 56.784 276.893 56.256C275.997 55.728 274.861 55.464 273.485 55.464C272.413 55.464 271.437 55.648 270.557 56.016C269.693 56.368 268.949 56.912 268.325 57.648C267.701 58.384 267.213 59.312 266.861 60.432C266.525 61.536 266.357 62.84 266.357 64.344L263.549 63.48C263.549 60.968 263.997 58.816 264.893 57.024C265.805 55.216 267.077 53.832 268.709 52.872C270.357 51.896 272.293 51.408 274.517 51.408C276.197 51.408 277.629 51.672 278.813 52.2C279.997 52.728 280.981 53.432 281.765 54.312C282.549 55.176 283.165 56.152 283.613 57.24C284.061 58.312 284.373 59.408 284.549 60.528C284.741 61.632 284.837 62.68 284.837 63.672V78H280.517ZM262.037 78V43.44H265.877V62.52H266.357V78H262.037ZM291.797 47.496V43.08H296.069V47.496H291.797ZM291.797 78V52.08H296.069V78H291.797ZM315.414 78.72C312.982 78.72 310.934 78.12 309.27 76.92C307.606 75.704 306.342 74.064 305.478 72C304.63 69.92 304.206 67.592 304.206 65.016C304.206 62.408 304.63 60.072 305.478 58.008C306.342 55.944 307.606 54.32 309.27 53.136C310.95 51.952 313.006 51.36 315.438 51.36C317.838 51.36 319.902 51.96 321.63 53.16C323.374 54.344 324.71 55.968 325.638 58.032C326.566 60.096 327.03 62.424 327.03 65.016C327.03 67.608 326.566 69.936 325.638 72C324.71 74.064 323.374 75.704 321.63 76.92C319.902 78.12 317.83 78.72 315.414 78.72ZM303.486 89.52V52.08H307.302V71.16H307.782V89.52H303.486ZM314.886 74.808C316.598 74.808 318.014 74.376 319.134 73.512C320.254 72.648 321.094 71.48 321.654 70.008C322.214 68.52 322.494 66.856 322.494 65.016C322.494 63.192 322.214 61.544 321.654 60.072C321.11 58.6 320.262 57.432 319.11 56.568C317.974 55.704 316.526 55.272 314.766 55.272C313.086 55.272 311.694 55.688 310.59 56.52C309.486 57.336 308.662 58.48 308.118 59.952C307.574 61.408 307.302 63.096 307.302 65.016C307.302 66.904 307.566 68.592 308.094 70.08C308.638 71.552 309.47 72.712 310.59 73.56C311.71 74.392 313.142 74.808 314.886 74.808Z" fill="black"></path> </g> </g> <g filter="url(#filter1_i_8816_339848)"> <g clip-path="url(#clip2_8816_339848)"> <rect y="144" width="277" height="120" rx="48" fill="#8E9AE3"></rect> <g filter="url(#filter2_dd_8816_339848)"> <path d="M65.568 222.72C62.128 222.72 59.208 221.96 56.808 220.44C54.408 218.92 52.576 216.808 51.312 214.104C50.064 211.4 49.44 208.272 49.44 204.72C49.44 201.168 50.064 198.04 51.312 195.336C52.576 192.632 54.408 190.52 56.808 189C59.208 187.48 62.128 186.72 65.568 186.72C69.568 186.72 72.856 187.736 75.432 189.768C78.024 191.8 79.808 194.536 80.784 197.976L76.44 199.128C75.736 196.552 74.48 194.52 72.672 193.032C70.864 191.544 68.496 190.8 65.568 190.8C62.992 190.8 60.848 191.384 59.136 192.552C57.424 193.72 56.136 195.352 55.272 197.448C54.408 199.528 53.968 201.952 53.952 204.72C53.936 207.472 54.36 209.896 55.224 211.992C56.088 214.072 57.384 215.704 59.112 216.888C60.84 218.056 62.992 218.64 65.568 218.64C68.496 218.64 70.864 217.896 72.672 216.408C74.48 214.904 75.736 212.872 76.44 210.312L80.784 211.464C79.808 214.888 78.024 217.624 75.432 219.672C72.856 221.704 69.568 222.72 65.568 222.72ZM97.3275 222.72C94.7515 222.72 92.5275 222.136 90.6555 220.968C88.7995 219.8 87.3675 218.184 86.3595 216.12C85.3515 214.056 84.8475 211.688 84.8475 209.016C84.8475 206.296 85.3595 203.912 86.3835 201.864C87.4075 199.816 88.8555 198.224 90.7275 197.088C92.5995 195.936 94.7995 195.36 97.3275 195.36C99.9195 195.36 102.152 195.944 104.024 197.112C105.896 198.264 107.328 199.872 108.32 201.936C109.328 203.984 109.832 206.344 109.832 209.016C109.832 211.72 109.328 214.104 108.32 216.168C107.312 218.216 105.872 219.824 104 220.992C102.128 222.144 99.9035 222.72 97.3275 222.72ZM97.3275 218.664C100.016 218.664 102.016 217.768 103.328 215.976C104.64 214.184 105.296 211.864 105.296 209.016C105.296 206.088 104.632 203.76 103.304 202.032C101.976 200.288 99.9835 199.416 97.3275 199.416C95.5195 199.416 94.0315 199.824 92.8635 200.64C91.6955 201.456 90.8235 202.584 90.2475 204.024C89.6715 205.464 89.3835 207.128 89.3835 209.016C89.3835 211.928 90.0555 214.264 91.3995 216.024C92.7435 217.784 94.7195 218.664 97.3275 218.664ZM115.836 222V186.72H120.108V222H115.836ZM138.589 222.72C136.013 222.72 133.789 222.136 131.917 220.968C130.061 219.8 128.629 218.184 127.621 216.12C126.613 214.056 126.109 211.688 126.109 209.016C126.109 206.296 126.621 203.912 127.645 201.864C128.669 199.816 130.117 198.224 131.989 197.088C133.861 195.936 136.061 195.36 138.589 195.36C141.181 195.36 143.413 195.944 145.285 197.112C147.157 198.264 148.589 199.872 149.581 201.936C150.589 203.984 151.093 206.344 151.093 209.016C151.093 211.72 150.589 214.104 149.581 216.168C148.573 218.216 147.133 219.824 145.261 220.992C143.389 222.144 141.165 222.72 138.589 222.72ZM138.589 218.664C141.277 218.664 143.277 217.768 144.589 215.976C145.901 214.184 146.557 211.864 146.557 209.016C146.557 206.088 145.893 203.76 144.565 202.032C143.237 200.288 141.245 199.416 138.589 199.416C136.781 199.416 135.293 199.824 134.125 200.64C132.957 201.456 132.085 202.584 131.509 204.024C130.933 205.464 130.645 207.128 130.645 209.016C130.645 211.928 131.317 214.264 132.661 216.024C134.005 217.784 135.981 218.664 138.589 218.664ZM156.617 222V196.08H160.433V202.344L159.809 201.528C160.113 200.728 160.505 199.992 160.985 199.32C161.481 198.648 162.033 198.096 162.641 197.664C163.313 197.12 164.073 196.704 164.921 196.416C165.769 196.128 166.633 195.96 167.513 195.912C168.393 195.848 169.217 195.904 169.985 196.08V200.088C169.089 199.848 168.105 199.784 167.033 199.896C165.961 200.008 164.969 200.4 164.057 201.072C163.225 201.664 162.577 202.384 162.113 203.232C161.665 204.08 161.353 205 161.177 205.992C161.001 206.968 160.913 207.968 160.913 208.992V222H156.617ZM185.526 222.72C182.982 222.72 180.758 222.16 178.854 221.04C176.966 219.904 175.494 218.328 174.438 216.312C173.382 214.28 172.854 211.912 172.854 209.208C172.854 206.376 173.374 203.928 174.414 201.864C175.454 199.784 176.902 198.184 178.758 197.064C180.63 195.928 182.822 195.36 185.334 195.36C187.942 195.36 190.158 195.96 191.982 197.16C193.822 198.36 195.198 200.072 196.11 202.296C197.038 204.52 197.438 207.168 197.31 210.24H192.99V208.704C192.942 205.52 192.294 203.144 191.046 201.576C189.798 199.992 187.942 199.2 185.478 199.2C182.838 199.2 180.83 200.048 179.454 201.744C178.078 203.44 177.39 205.872 177.39 209.04C177.39 212.096 178.078 214.464 179.454 216.144C180.83 217.824 182.79 218.664 185.334 218.664C187.046 218.664 188.534 218.272 189.798 217.488C191.062 216.704 192.054 215.576 192.774 214.104L196.878 215.52C195.87 217.808 194.35 219.584 192.318 220.848C190.302 222.096 188.038 222.72 185.526 222.72ZM175.95 210.24V206.808H195.102V210.24H175.95ZM213.07 222.72C210.654 222.72 208.582 222.12 206.854 220.92C205.126 219.704 203.79 218.064 202.846 216C201.918 213.936 201.454 211.608 201.454 209.016C201.454 206.424 201.918 204.096 202.846 202.032C203.79 199.968 205.126 198.344 206.854 197.16C208.582 195.96 210.646 195.36 213.046 195.36C215.494 195.36 217.55 195.952 219.214 197.136C220.878 198.32 222.134 199.944 222.982 202.008C223.846 204.072 224.278 206.408 224.278 209.016C224.278 211.592 223.846 213.92 222.982 216C222.134 218.064 220.878 219.704 219.214 220.92C217.55 222.12 215.502 222.72 213.07 222.72ZM213.598 218.808C215.342 218.808 216.774 218.392 217.894 217.56C219.014 216.712 219.838 215.552 220.366 214.08C220.91 212.592 221.182 210.904 221.182 209.016C221.182 207.096 220.91 205.408 220.366 203.952C219.838 202.48 219.022 201.336 217.918 200.52C216.814 199.688 215.414 199.272 213.718 199.272C211.958 199.272 210.502 199.704 209.35 200.568C208.214 201.432 207.366 202.6 206.806 204.072C206.262 205.544 205.99 207.192 205.99 209.016C205.99 210.856 206.27 212.52 206.83 214.008C207.39 215.48 208.23 216.648 209.35 217.512C210.486 218.376 211.902 218.808 213.598 218.808ZM221.182 222V202.92H220.702V187.44H224.998V222H221.182Z" fill="white"></path> </g> </g> </g> <g filter="url(#filter3_i_8816_339848)"> <g clip-path="url(#clip3_8816_339848)"> <rect x="301" y="144" width="199" height="120" rx="48" fill="#616161"></rect> <g filter="url(#filter4_dd_8816_339848)"> <path d="M352.36 222V187.44H363.016C363.368 187.44 363.984 187.448 364.864 187.464C365.744 187.48 366.584 187.544 367.384 187.656C370.056 188.008 372.288 188.984 374.08 190.584C375.888 192.168 377.248 194.184 378.16 196.632C379.072 199.08 379.528 201.776 379.528 204.72C379.528 207.664 379.072 210.36 378.16 212.808C377.248 215.256 375.888 217.28 374.08 218.88C372.288 220.464 370.056 221.432 367.384 221.784C366.584 221.88 365.736 221.944 364.84 221.976C363.96 221.992 363.352 222 363.016 222H352.36ZM356.752 217.92H363.016C363.624 217.92 364.304 217.904 365.056 217.872C365.808 217.824 366.464 217.752 367.024 217.656C368.912 217.304 370.44 216.512 371.608 215.28C372.776 214.048 373.632 212.512 374.176 210.672C374.72 208.832 374.992 206.848 374.992 204.72C374.992 202.544 374.712 200.536 374.152 198.696C373.608 196.856 372.752 195.328 371.584 194.112C370.416 192.896 368.896 192.12 367.024 191.784C366.464 191.672 365.8 191.6 365.032 191.568C364.264 191.536 363.592 191.52 363.016 191.52H356.752V217.92ZM392.64 222.72C390.704 222.72 389.08 222.368 387.768 221.664C386.472 220.944 385.488 220 384.816 218.832C384.16 217.664 383.832 216.384 383.832 214.992C383.832 213.632 384.088 212.456 384.6 211.464C385.128 210.456 385.864 209.624 386.808 208.968C387.752 208.296 388.88 207.768 390.192 207.384C391.424 207.048 392.8 206.76 394.32 206.52C395.856 206.264 397.408 206.032 398.976 205.824C400.544 205.616 402.008 205.416 403.368 205.224L401.832 206.112C401.88 203.808 401.416 202.104 400.44 201C399.48 199.896 397.816 199.344 395.448 199.344C393.88 199.344 392.504 199.704 391.32 200.424C390.152 201.128 389.328 202.28 388.848 203.88L384.792 202.656C385.416 200.384 386.624 198.6 388.416 197.304C390.208 196.008 392.568 195.36 395.496 195.36C397.848 195.36 399.864 195.784 401.544 196.632C403.24 197.464 404.456 198.728 405.192 200.424C405.56 201.224 405.792 202.096 405.888 203.04C405.984 203.968 406.032 204.944 406.032 205.968V222H402.24V215.784L403.128 216.36C402.152 218.456 400.784 220.04 399.024 221.112C397.28 222.184 395.152 222.72 392.64 222.72ZM393.288 219.144C394.824 219.144 396.152 218.872 397.272 218.328C398.408 217.768 399.32 217.04 400.008 216.144C400.696 215.232 401.144 214.24 401.352 213.168C401.592 212.368 401.72 211.48 401.736 210.504C401.768 209.512 401.784 208.752 401.784 208.224L403.272 208.872C401.88 209.064 400.512 209.248 399.168 209.424C397.824 209.6 396.552 209.792 395.352 210C394.152 210.192 393.072 210.424 392.112 210.696C391.408 210.92 390.744 211.208 390.12 211.56C389.512 211.912 389.016 212.368 388.632 212.928C388.264 213.472 388.08 214.152 388.08 214.968C388.08 215.672 388.256 216.344 388.608 216.984C388.976 217.624 389.536 218.144 390.288 218.544C391.056 218.944 392.056 219.144 393.288 219.144ZM412.512 222V196.08H416.328V202.344L415.704 201.528C416.008 200.728 416.4 199.992 416.88 199.32C417.376 198.648 417.928 198.096 418.536 197.664C419.208 197.12 419.968 196.704 420.816 196.416C421.664 196.128 422.528 195.96 423.408 195.912C424.288 195.848 425.112 195.904 425.88 196.08V200.088C424.984 199.848 424 199.784 422.928 199.896C421.856 200.008 420.864 200.4 419.952 201.072C419.12 201.664 418.472 202.384 418.008 203.232C417.56 204.08 417.248 205 417.072 205.992C416.896 206.968 416.808 207.968 416.808 208.992V222H412.512ZM430.634 222L430.658 187.44H434.978V208.56L445.85 196.08H451.394L439.946 209.04L452.738 222H446.762L434.978 209.52V222H430.634Z" fill="white"></path> </g> </g> </g> <g filter="url(#filter5_i_8816_339848)"> <g clip-path="url(#clip4_8816_339848)"> <rect x="401" width="192" height="120" rx="48" fill="#ECB9F9" fill-opacity="0.5"></rect> <path d="M452.36 78V43.44H466.016C466.352 43.44 466.752 43.456 467.216 43.488C467.68 43.504 468.128 43.552 468.56 43.632C470.432 43.92 472 44.56 473.264 45.552C474.544 46.544 475.504 47.8 476.144 49.32C476.784 50.824 477.104 52.496 477.104 54.336C477.104 56.16 476.776 57.832 476.12 59.352C475.48 60.856 474.52 62.112 473.24 63.12C471.976 64.112 470.416 64.752 468.56 65.04C468.128 65.104 467.68 65.152 467.216 65.184C466.752 65.216 466.352 65.232 466.016 65.232H456.632V78H452.36ZM456.632 61.176H465.872C466.176 61.176 466.52 61.16 466.904 61.128C467.304 61.096 467.68 61.04 468.032 60.96C469.136 60.704 470.032 60.24 470.72 59.568C471.424 58.88 471.936 58.08 472.256 57.168C472.576 56.24 472.736 55.296 472.736 54.336C472.736 53.376 472.576 52.44 472.256 51.528C471.936 50.6 471.424 49.792 470.72 49.104C470.032 48.416 469.136 47.952 468.032 47.712C467.68 47.616 467.304 47.56 466.904 47.544C466.52 47.512 466.176 47.496 465.872 47.496H456.632V61.176ZM482.611 47.496V43.08H486.883V47.496H482.611ZM482.611 78V52.08H486.883V78H482.611ZM512.78 78V65.016C512.78 63.784 512.668 62.6 512.444 61.464C512.236 60.328 511.86 59.312 511.316 58.416C510.788 57.504 510.068 56.784 509.156 56.256C508.26 55.728 507.124 55.464 505.748 55.464C504.676 55.464 503.7 55.648 502.82 56.016C501.956 56.368 501.212 56.912 500.588 57.648C499.964 58.384 499.476 59.312 499.124 60.432C498.788 61.536 498.62 62.84 498.62 64.344L495.812 63.48C495.812 60.968 496.26 58.816 497.156 57.024C498.068 55.216 499.34 53.832 500.972 52.872C502.62 51.896 504.556 51.408 506.78 51.408C508.46 51.408 509.892 51.672 511.076 52.2C512.26 52.728 513.244 53.432 514.028 54.312C514.812 55.176 515.428 56.152 515.876 57.24C516.324 58.312 516.636 59.408 516.812 60.528C517.004 61.632 517.1 62.68 517.1 63.672V78H512.78ZM494.3 78V52.08H498.14V59.016H498.62V78H494.3ZM523.556 78L523.58 43.44H527.9V64.56L538.772 52.08H544.316L532.868 65.04L545.66 78H539.684L527.9 65.52V78H523.556Z" fill="black"></path> </g> </g> </g> <defs> <filter id="filter0_i_8816_339848" x="0" y="-18" width="377" height="138" filterUnits="userSpaceOnUse" color-interpolation-filters="sRGB"> <feFlood flood-opacity="0" result="BackgroundImageFix"></feFlood> <feBlend mode="normal" in="SourceGraphic" in2="BackgroundImageFix" result="shape"></feBlend> <feColorMatrix in="SourceAlpha" type="matrix" values="0 0 0 0 0 0 0 0 0 0 0 0 0 0 0 0 0 0 127 0" result="hardAlpha"></feColorMatrix> <feOffset dy="-18"></feOffset> <feGaussianBlur stdDeviation="18"></feGaussianBlur> <feComposite in2="hardAlpha" operator="arithmetic" k2="-1" k3="1"></feComposite> <feColorMatrix type="matrix" values="0 0 0 0 0 0 0 0 0 0 0 0 0 0 0 0 0 0 0.08 0"></feColorMatrix> <feBlend mode="normal" in2="shape" result="effect1_innerShadow_8816_339848"></feBlend> </filter> <filter id="filter1_i_8816_339848" x="0" y="126" width="277" height="138" filterUnits="userSpaceOnUse" color-interpolation-filters="sRGB"> <feFlood flood-opacity="0" result="BackgroundImageFix"></feFlood> <feBlend mode="normal" in="SourceGraphic" in2="BackgroundImageFix" result="shape"></feBlend> <feColorMatrix in="SourceAlpha" type="matrix" values="0 0 0 0 0 0 0 0 0 0 0 0 0 0 0 0 0 0 127 0" result="hardAlpha"></feColorMatrix> <feOffset dy="-18"></feOffset> <feGaussianBlur stdDeviation="18"></feGaussianBlur> <feComposite in2="hardAlpha" operator="arithmetic" k2="-1" k3="1"></feComposite> <feColorMatrix type="matrix" values="0 0 0 0 0 0 0 0 0 0 0 0 0 0 0 0 0 0 0.12 0"></feColorMatrix> <feBlend mode="normal" in2="shape" result="effect1_innerShadow_8816_339848"></feBlend> </filter> <filter id="filter2_dd_8816_339848" x="37.4395" y="180.72" width="199.559" height="60" filterUnits="userSpaceOnUse" color-interpolation-filters="sRGB"> <feFlood flood-opacity="0" result="BackgroundImageFix"></feFlood> <feColorMatrix in="SourceAlpha" type="matrix" values="0 0 0 0 0 0 0 0 0 0 0 0 0 0 0 0 0 0 127 0" result="hardAlpha"></feColorMatrix> <feOffset dy="6"></feOffset> <feGaussianBlur stdDeviation="6"></feGaussianBlur> <feColorMatrix type="matrix" values="0 0 0 0 0.380392 0 0 0 0 0.380392 0 0 0 0 0.380392 0 0 0 0.2 0"></feColorMatrix> <feBlend mode="multiply" in2="BackgroundImageFix" result="effect1_dropShadow_8816_339848"></feBlend> <feColorMatrix in="SourceAlpha" type="matrix" values="0 0 0 0 0 0 0 0 0 0 0 0 0 0 0 0 0 0 127 0" result="hardAlpha"></feColorMatrix> <feOffset dy="3"></feOffset> <feGaussianBlur stdDeviation="3"></feGaussianBlur> <feColorMatrix type="matrix" values="0 0 0 0 0.380392 0 0 0 0 0.380392 0 0 0 0 0.380392 0 0 0 0.2 0"></feColorMatrix> <feBlend mode="multiply" in2="effect1_dropShadow_8816_339848" result="effect2_dropShadow_8816_339848"></feBlend> <feBlend mode="normal" in="SourceGraphic" in2="effect2_dropShadow_8816_339848" result="shape"></feBlend> </filter> <filter id="filter3_i_8816_339848" x="301" y="126" width="199" height="138" filterUnits="userSpaceOnUse" color-interpolation-filters="sRGB"> <feFlood flood-opacity="0" result="BackgroundImageFix"></feFlood> <feBlend mode="normal" in="SourceGraphic" in2="BackgroundImageFix" result="shape"></feBlend> <feColorMatrix in="SourceAlpha" type="matrix" values="0 0 0 0 0 0 0 0 0 0 0 0 0 0 0 0 0 0 127 0" result="hardAlpha"></feColorMatrix> <feOffset dy="-18"></feOffset> <feGaussianBlur stdDeviation="18"></feGaussianBlur> <feComposite in2="hardAlpha" operator="arithmetic" k2="-1" k3="1"></feComposite> <feColorMatrix type="matrix" values="0 0 0 0 0 0 0 0 0 0 0 0 0 0 0 0 0 0 0.12 0"></feColorMatrix> <feBlend mode="normal" in2="shape" result="effect1_innerShadow_8816_339848"></feBlend> </filter> <filter id="filter4_dd_8816_339848" x="340.359" y="181.44" width="124.379" height="59.28" filterUnits="userSpaceOnUse" color-interpolation-filters="sRGB"> <feFlood flood-opacity="0" result="BackgroundImageFix"></feFlood> <feColorMatrix in="SourceAlpha" type="matrix" values="0 0 0 0 0 0 0 0 0 0 0 0 0 0 0 0 0 0 127 0" result="hardAlpha"></feColorMatrix> <feOffset dy="6"></feOffset> <feGaussianBlur stdDeviation="6"></feGaussianBlur> <feColorMatrix type="matrix" values="0 0 0 0 0.380392 0 0 0 0 0.380392 0 0 0 0 0.380392 0 0 0 0.2 0"></feColorMatrix> <feBlend mode="multiply" in2="BackgroundImageFix" result="effect1_dropShadow_8816_339848"></feBlend> <feColorMatrix in="SourceAlpha" type="matrix" values="0 0 0 0 0 0 0 0 0 0 0 0 0 0 0 0 0 0 127 0" result="hardAlpha"></feColorMatrix> <feOffset dy="3"></feOffset> <feGaussianBlur stdDeviation="3"></feGaussianBlur> <feColorMatrix type="matrix" values="0 0 0 0 0.380392 0 0 0 0 0.380392 0 0 0 0 0.380392 0 0 0 0.2 0"></feColorMatrix> <feBlend mode="multiply" in2="effect1_dropShadow_8816_339848" result="effect2_dropShadow_8816_339848"></feBlend> <feBlend mode="normal" in="SourceGraphic" in2="effect2_dropShadow_8816_339848" result="shape"></feBlend> </filter> <filter id="filter5_i_8816_339848" x="401" y="-18" width="192" height="138" filterUnits="userSpaceOnUse" color-interpolation-filters="sRGB"> <feFlood flood-opacity="0" result="BackgroundImageFix"></feFlood> <feBlend mode="normal" in="SourceGraphic" in2="BackgroundImageFix" result="shape"></feBlend> <feColorMatrix in="SourceAlpha" type="matrix" values="0 0 0 0 0 0 0 0 0 0 0 0 0 0 0 0 0 0 127 0" result="hardAlpha"></feColorMatrix> <feOffset dy="-18"></feOffset> <feGaussianBlur stdDeviation="18"></feGaussianBlur> <feComposite in2="hardAlpha" operator="arithmetic" k2="-1" k3="1"></feComposite> <feColorMatrix type="matrix" values="0 0 0 0 0 0 0 0 0 0 0 0 0 0 0 0 0 0 0.08 0"></feColorMatrix> <feBlend mode="normal" in2="shape" result="effect1_innerShadow_8816_339848"></feBlend> </filter> <clipPath id="clip0_8816_339848"> <rect width="593" height="264" fill="white"></rect> </clipPath> <clipPath id="clip1_8816_339848"> <rect width="377" height="120" rx="48" fill="white"></rect> </clipPath> <clipPath id="clip2_8816_339848"> <rect y="144" width="277" height="120" rx="48" fill="white"></rect> </clipPath> <clipPath id="clip3_8816_339848"> <rect x="301" y="144" width="199" height="120" rx="48" fill="white"></rect> </clipPath> <clipPath id="clip4_8816_339848"> <rect x="401" width="192" height="120" rx="48" fill="white"></rect> </clipPath> </defs> </svg> 