<?xml version="1.0" encoding="UTF-8"?> <svg xmlns="http://www.w3.org/2000/svg" width="994" height="326" viewBox="0 0 994 326" fill="none"> <g filter="url(#filter0_i_8844_48049)"> <g clip-path="url(#clip0_8844_48049)"> <rect width="351" height="160" rx="80" fill="white"></rect> <path d="M68.48 105V58.92H82.688C83.1573 58.92 83.9787 58.9307 85.152 58.952C86.3253 58.9733 87.4453 59.0587 88.512 59.208C92.0747 59.6773 95.0507 60.9787 97.44 63.112C99.8507 65.224 101.664 67.912 102.88 71.176C104.096 74.44 104.704 78.0347 104.704 81.96C104.704 85.8853 104.096 89.48 102.88 92.744C101.664 96.008 99.8507 98.7067 97.44 100.84C95.0507 102.952 92.0747 104.243 88.512 104.712C87.4453 104.84 86.3147 104.925 85.12 104.968C83.9467 104.989 83.136 105 82.688 105H68.48ZM74.336 99.56H82.688C83.4987 99.56 84.4053 99.5387 85.408 99.496C86.4107 99.432 87.2853 99.336 88.032 99.208C90.5493 98.7387 92.5867 97.6827 94.144 96.04C95.7013 94.3973 96.8427 92.3493 97.568 89.896C98.2933 87.4427 98.656 84.7973 98.656 81.96C98.656 79.0587 98.2827 76.3813 97.536 73.928C96.8107 71.4747 95.6693 69.4373 94.112 67.816C92.5547 66.1947 90.528 65.16 88.032 64.712C87.2853 64.5627 86.4 64.4667 85.376 64.424C84.352 64.3813 83.456 64.36 82.688 64.36H74.336V99.56ZM127.339 105.96C123.947 105.96 120.981 105.213 118.443 103.72C115.925 102.205 113.963 100.104 112.555 97.416C111.146 94.7067 110.442 91.5493 110.442 87.944C110.442 84.168 111.136 80.904 112.523 78.152C113.909 75.3787 115.84 73.2453 118.314 71.752C120.811 70.2373 123.733 69.48 127.083 69.48C130.56 69.48 133.515 70.28 135.947 71.88C138.4 73.48 140.235 75.7627 141.451 78.728C142.688 81.6933 143.221 85.224 143.051 89.32H137.291V87.272C137.227 83.0267 136.363 79.8587 134.699 77.768C133.035 75.656 130.56 74.6 127.274 74.6C123.755 74.6 121.077 75.7307 119.243 77.992C117.408 80.2533 116.491 83.496 116.491 87.72C116.491 91.7947 117.408 94.952 119.243 97.192C121.077 99.432 123.691 100.552 127.083 100.552C129.365 100.552 131.349 100.029 133.035 98.984C134.72 97.9387 136.043 96.4347 137.003 94.472L142.475 96.36C141.131 99.4107 139.104 101.779 136.395 103.464C133.707 105.128 130.688 105.96 127.339 105.96ZM114.57 89.32V84.744H140.107V89.32H114.57ZM153.791 105V68.552C153.791 67.656 153.834 66.7493 153.919 65.832C154.004 64.8933 154.196 63.9867 154.495 63.112C154.794 62.216 155.284 61.3947 155.967 60.648C156.756 59.7733 157.62 59.1547 158.559 58.792C159.498 58.408 160.447 58.1733 161.407 58.088C162.388 58.0027 163.316 57.96 164.191 57.96H168.575V62.696H164.511C162.826 62.696 161.567 63.112 160.735 63.944C159.903 64.7547 159.487 65.992 159.487 67.656V105H153.791ZM147.935 75.144V70.44H168.575V75.144H147.935ZM182.889 105.96C180.308 105.96 178.142 105.491 176.393 104.552C174.665 103.592 173.353 102.333 172.457 100.776C171.582 99.2187 171.145 97.512 171.145 95.656C171.145 93.8427 171.486 92.2747 172.169 90.952C172.873 89.608 173.854 88.4987 175.113 87.624C176.372 86.728 177.876 86.024 179.625 85.512C181.268 85.064 183.102 84.68 185.129 84.36C187.177 84.0187 189.246 83.7093 191.337 83.432C193.428 83.1547 195.38 82.888 197.193 82.632L195.145 83.816C195.209 80.744 194.59 78.472 193.289 77C192.009 75.528 189.79 74.792 186.633 74.792C184.542 74.792 182.708 75.272 181.129 76.232C179.572 77.1707 178.473 78.7067 177.833 80.84L172.425 79.208C173.257 76.1787 174.868 73.8 177.257 72.072C179.646 70.344 182.793 69.48 186.697 69.48C189.833 69.48 192.521 70.0453 194.761 71.176C197.022 72.2853 198.644 73.9707 199.625 76.232C200.116 77.2987 200.425 78.4613 200.553 79.72C200.681 80.9573 200.745 82.2587 200.745 83.624V105H195.689V96.712L196.873 97.48C195.572 100.275 193.748 102.387 191.401 103.816C189.076 105.245 186.238 105.96 182.889 105.96ZM183.753 101.192C185.801 101.192 187.572 100.829 189.065 100.104C190.58 99.3573 191.796 98.3867 192.713 97.192C193.63 95.976 194.228 94.6533 194.505 93.224C194.825 92.1573 194.996 90.9733 195.017 89.672C195.06 88.3493 195.081 87.336 195.081 86.632L197.065 87.496C195.209 87.752 193.385 87.9973 191.593 88.232C189.801 88.4667 188.105 88.7227 186.505 89C184.905 89.256 183.465 89.5653 182.185 89.928C181.246 90.2267 180.361 90.6107 179.529 91.08C178.718 91.5493 178.057 92.1573 177.545 92.904C177.054 93.6293 176.809 94.536 176.809 95.624C176.809 96.5627 177.044 97.4587 177.513 98.312C178.004 99.1653 178.75 99.8587 179.753 100.392C180.777 100.925 182.11 101.192 183.753 101.192ZM222.505 105.896C220.286 105.896 218.377 105.544 216.777 104.84C215.198 104.136 213.886 103.197 212.841 102.024C211.796 100.851 210.974 99.5493 210.377 98.12C209.78 96.6907 209.353 95.2293 209.097 93.736C208.862 92.2427 208.745 90.8453 208.745 89.544V70.44H214.505V87.752C214.505 89.3733 214.654 90.9413 214.953 92.456C215.252 93.9707 215.753 95.336 216.457 96.552C217.182 97.768 218.142 98.728 219.337 99.432C220.553 100.136 222.068 100.488 223.881 100.488C225.31 100.488 226.612 100.243 227.785 99.752C228.958 99.2613 229.961 98.536 230.793 97.576C231.625 96.5947 232.265 95.3573 232.713 93.864C233.161 92.3707 233.385 90.632 233.385 88.648L237.129 89.8C237.129 93.128 236.521 95.9973 235.305 98.408C234.11 100.819 232.414 102.675 230.217 103.976C228.041 105.256 225.47 105.896 222.505 105.896ZM234.025 105V95.752H233.385V70.44H239.113V105H234.025ZM249.033 105V57.96H254.729V105H249.033ZM283.946 105C281.898 105.405 279.871 105.565 277.866 105.48C275.882 105.416 274.111 105.021 272.554 104.296C270.997 103.549 269.813 102.397 269.002 100.84C268.319 99.4747 267.946 98.0987 267.882 96.712C267.839 95.304 267.818 93.7147 267.818 91.944V60.84H273.514V91.688C273.514 93.096 273.525 94.3013 273.546 95.304C273.589 96.3067 273.813 97.1707 274.218 97.896C274.986 99.2613 276.202 100.061 277.866 100.296C279.551 100.531 281.578 100.467 283.946 100.104V105ZM260.81 75.144V70.44H283.946V75.144H260.81Z" fill="black"></path> </g> <rect x="3" y="3" width="345" height="154" rx="77" stroke="url(#paint0_linear_8844_48049)" stroke-opacity="0.3" stroke-width="6"></rect> </g> <g filter="url(#filter1_i_8844_48049)"> <g clip-path="url(#clip1_8844_48049)"> <rect x="384" width="516" height="160" rx="80" fill="white"></rect> <g clip-path="url(#clip2_8844_48049)"> <g filter="url(#filter2_dd_8844_48049)"> <path d="M471.172 93.543C469.599 95.1706 466.991 95.1705 465.418 93.543L453.223 80.9197C451.65 79.2921 449.042 79.2921 447.469 80.9196L446.685 81.7311C445.188 83.2813 445.188 85.7396 446.685 87.2898L465.419 106.679C466.991 108.307 469.599 108.307 471.172 106.679L514.971 61.3477C516.469 59.7974 516.469 57.3391 514.971 55.7889L514.187 54.9774C512.614 53.3499 510.006 53.3499 508.433 54.9774L471.172 93.543Z" fill="#1F8B24"></path> </g> </g> <path d="M581.184 105.96C577.877 105.96 574.891 105.395 572.224 104.264C569.579 103.112 567.392 101.48 565.664 99.368C563.957 97.2347 562.848 94.7067 562.336 91.784L569.312 90.728C570.016 93.544 571.488 95.7413 573.728 97.32C575.968 98.8773 578.581 99.656 581.568 99.656C583.424 99.656 585.131 99.368 586.688 98.792C588.245 98.1947 589.493 97.352 590.432 96.264C591.392 95.1547 591.872 93.832 591.872 92.296C591.872 91.464 591.723 90.728 591.424 90.088C591.147 89.448 590.752 88.8933 590.24 88.424C589.749 87.9333 589.141 87.5173 588.416 87.176C587.712 86.8133 586.933 86.504 586.08 86.248L574.272 82.76C573.12 82.4187 571.947 81.9813 570.752 81.448C569.557 80.8933 568.459 80.1787 567.456 79.304C566.475 78.408 565.675 77.3093 565.056 76.008C564.437 74.6853 564.128 73.0853 564.128 71.208C564.128 68.3707 564.853 65.9707 566.304 64.008C567.776 62.024 569.76 60.5307 572.256 59.528C574.752 58.504 577.547 57.992 580.64 57.992C583.755 58.0347 586.539 58.5893 588.992 59.656C591.467 60.7227 593.515 62.2587 595.136 64.264C596.779 66.248 597.909 68.6587 598.528 71.496L591.36 72.712C591.04 70.984 590.357 69.5013 589.312 68.264C588.267 67.0053 586.987 66.0453 585.472 65.384C583.957 64.7013 582.315 64.3493 580.544 64.328C578.837 64.2853 577.269 64.5413 575.84 65.096C574.432 65.6507 573.301 66.4293 572.448 67.432C571.616 68.4347 571.2 69.5867 571.2 70.888C571.2 72.168 571.573 73.2027 572.32 73.992C573.067 74.7813 573.984 75.4107 575.072 75.88C576.181 76.328 577.28 76.7013 578.368 77L586.88 79.4C587.947 79.6987 589.152 80.104 590.496 80.616C591.861 81.1067 593.173 81.8 594.432 82.696C595.712 83.592 596.768 84.7867 597.6 86.28C598.432 87.752 598.848 89.608 598.848 91.848C598.848 94.1733 598.379 96.2213 597.44 97.992C596.501 99.7413 595.211 101.213 593.568 102.408C591.947 103.581 590.069 104.467 587.936 105.064C585.803 105.661 583.552 105.96 581.184 105.96ZM621.316 105.96C617.881 105.96 614.862 105.213 612.26 103.72C609.678 102.205 607.662 100.104 606.211 97.416C604.782 94.7067 604.067 91.5707 604.067 88.008C604.067 84.232 604.771 80.9573 606.18 78.184C607.609 75.4107 609.593 73.2667 612.132 71.752C614.67 70.2373 617.625 69.48 620.996 69.48C624.516 69.48 627.513 70.3013 629.988 71.944C632.462 73.5653 634.308 75.88 635.524 78.888C636.761 81.896 637.252 85.4693 636.996 89.608H630.308V87.176C630.265 83.1653 629.497 80.2 628.004 78.28C626.532 76.36 624.281 75.4 621.252 75.4C617.902 75.4 615.385 76.456 613.7 78.568C612.014 80.68 611.172 83.7307 611.172 87.72C611.172 91.5173 612.014 94.4613 613.7 96.552C615.385 98.6213 617.817 99.656 620.996 99.656C623.086 99.656 624.889 99.1867 626.404 98.248C627.94 97.288 629.134 95.9227 629.988 94.152L636.548 96.232C635.204 99.3253 633.166 101.725 630.436 103.432C627.705 105.117 624.665 105.96 621.316 105.96ZM608.996 89.608V84.392H633.667V89.608H608.996ZM645.135 105V57.96H651.823V105H645.135ZM677.08 105.96C673.646 105.96 670.627 105.213 668.024 103.72C665.443 102.205 663.427 100.104 661.976 97.416C660.547 94.7067 659.832 91.5707 659.832 88.008C659.832 84.232 660.536 80.9573 661.944 78.184C663.374 75.4107 665.358 73.2667 667.896 71.752C670.435 70.2373 673.39 69.48 676.76 69.48C680.281 69.48 683.278 70.3013 685.753 71.944C688.227 73.5653 690.073 75.88 691.289 78.888C692.526 81.896 693.017 85.4693 692.761 89.608H686.073V87.176C686.03 83.1653 685.262 80.2 683.769 78.28C682.297 76.36 680.046 75.4 677.017 75.4C673.667 75.4 671.15 76.456 669.464 78.568C667.779 80.68 666.936 83.7307 666.936 87.72C666.936 91.5173 667.779 94.4613 669.464 96.552C671.15 98.6213 673.582 99.656 676.76 99.656C678.851 99.656 680.654 99.1867 682.169 98.248C683.705 97.288 684.899 95.9227 685.753 94.152L692.312 96.232C690.969 99.3253 688.931 101.725 686.201 103.432C683.47 105.117 680.43 105.96 677.08 105.96ZM664.76 89.608V84.392H689.432V89.608H664.76ZM715.044 105.96C711.503 105.96 708.495 105.171 706.02 103.592C703.545 102.013 701.647 99.848 700.324 97.096C699.023 94.344 698.361 91.2187 698.34 87.72C698.361 84.1573 699.044 81.0107 700.388 78.28C701.732 75.528 703.652 73.3733 706.148 71.816C708.644 70.2587 711.641 69.48 715.14 69.48C718.916 69.48 722.137 70.4187 724.804 72.296C727.492 74.1733 729.263 76.744 730.116 80.008L723.46 81.928C722.799 79.9867 721.711 78.4827 720.196 77.416C718.703 76.328 716.985 75.784 715.044 75.784C712.847 75.784 711.044 76.3067 709.636 77.352C708.228 78.376 707.183 79.784 706.5 81.576C705.817 83.368 705.465 85.416 705.444 87.72C705.465 91.2827 706.276 94.1627 707.876 96.36C709.497 98.5573 711.887 99.656 715.044 99.656C717.199 99.656 718.937 99.1653 720.26 98.184C721.604 97.1813 722.628 95.752 723.332 93.896L730.116 95.496C728.985 98.8667 727.119 101.459 724.516 103.272C721.913 105.064 718.756 105.96 715.044 105.96ZM756.731 105C754.555 105.427 752.422 105.608 750.331 105.544C748.24 105.48 746.374 105.075 744.731 104.328C743.088 103.581 741.851 102.408 741.019 100.808C740.272 99.3787 739.867 97.928 739.803 96.456C739.76 94.9627 739.739 93.2773 739.739 91.4V60.84H746.459V91.08C746.459 92.4667 746.47 93.672 746.491 94.696C746.534 95.72 746.758 96.584 747.163 97.288C747.931 98.6107 749.147 99.368 750.811 99.56C752.496 99.7307 754.47 99.656 756.731 99.336V105ZM733.115 75.816V70.44H756.731V75.816H733.115ZM778.103 105.96C774.668 105.96 771.65 105.213 769.047 103.72C766.466 102.205 764.45 100.104 762.999 97.416C761.57 94.7067 760.855 91.5707 760.855 88.008C760.855 84.232 761.559 80.9573 762.967 78.184C764.396 75.4107 766.38 73.2667 768.919 71.752C771.458 70.2373 774.412 69.48 777.783 69.48C781.303 69.48 784.3 70.3013 786.775 71.944C789.25 73.5653 791.095 75.88 792.311 78.888C793.548 81.896 794.039 85.4693 793.783 89.608H787.095V87.176C787.052 83.1653 786.284 80.2 784.791 78.28C783.319 76.36 781.068 75.4 778.039 75.4C774.69 75.4 772.172 76.456 770.487 78.568C768.802 80.68 767.959 83.7307 767.959 87.72C767.959 91.5173 768.802 94.4613 770.487 96.552C772.172 98.6213 774.604 99.656 777.783 99.656C779.874 99.656 781.676 99.1867 783.191 98.248C784.727 97.288 785.922 95.9227 786.775 94.152L793.335 96.232C791.991 99.3253 789.954 101.725 787.223 103.432C784.492 105.117 781.452 105.96 778.103 105.96ZM765.783 89.608V84.392H790.455V89.608H765.783ZM815.011 105.96C811.789 105.96 809.005 105.16 806.659 103.56C804.333 101.96 802.531 99.784 801.251 97.032C799.992 94.2587 799.363 91.144 799.363 87.688C799.363 84.2107 800.003 81.1067 801.283 78.376C802.563 75.624 804.376 73.4587 806.723 71.88C809.091 70.28 811.896 69.48 815.139 69.48C818.403 69.48 821.144 70.28 823.363 71.88C825.603 73.4587 827.288 75.624 828.419 78.376C829.571 81.128 830.147 84.232 830.147 87.688C830.147 91.144 829.571 94.248 828.419 97C827.267 99.752 825.571 101.939 823.331 103.56C821.091 105.16 818.317 105.96 815.011 105.96ZM815.939 99.912C818.136 99.912 819.928 99.3893 821.315 98.344C822.701 97.2987 823.715 95.8587 824.355 94.024C824.995 92.1893 825.315 90.0773 825.315 87.688C825.315 85.2987 824.984 83.1867 824.323 81.352C823.683 79.5173 822.68 78.088 821.315 77.064C819.971 76.04 818.253 75.528 816.163 75.528C813.944 75.528 812.12 76.072 810.691 77.16C809.261 78.248 808.195 79.7093 807.491 81.544C806.808 83.3787 806.467 85.4267 806.467 87.688C806.467 89.9707 806.808 92.04 807.491 93.896C808.195 95.7307 809.24 97.192 810.627 98.28C812.035 99.368 813.805 99.912 815.939 99.912ZM825.315 105V80.136H824.547V58.92H831.267V105H825.315Z" fill="black"></path> </g> <rect x="389" y="5" width="506" height="150" rx="75" stroke="url(#paint1_linear_8844_48049)" stroke-width="10"></rect> </g> <g filter="url(#filter3_f_8844_48049)"> <ellipse cx="832.5" cy="124" rx="78.5" ry="76" fill="white" fill-opacity="0.99"></ellipse> </g> <g filter="url(#filter4_dd_8844_48049)"> <path d="M911.062 152.691L839.812 135.347L858.25 204.097L873.094 191.441L897.625 209.566L915.281 191.441L895.438 168.316L911.062 152.691Z" fill="black"></path> <path d="M911.062 152.691L839.812 135.347L858.25 204.097L873.094 191.441L897.625 209.566L915.281 191.441L895.438 168.316L911.062 152.691Z" stroke="black" stroke-width="3.49091"></path> </g> <g filter="url(#filter5_dd_8844_48049)"> <path d="M919.126 188.618L900.752 170.244L914.01 156.986C915.159 155.837 915.631 154.175 915.258 152.594C914.884 151.013 913.719 149.738 912.178 149.224L839.684 129.763C838 129.201 836.142 129.64 834.887 130.895C833.631 132.151 833.193 134.008 833.754 135.692L853.216 208.187C853.73 209.728 855.005 210.893 856.586 211.266C858.167 211.64 859.828 211.168 860.977 210.019L874.236 196.761L892.61 215.135C893.525 216.05 894.725 216.508 895.924 216.508C897.124 216.508 898.324 216.05 899.239 215.135L919.126 195.247C920.957 193.417 920.957 190.449 919.126 188.618ZM895.924 205.191L877.55 186.817C875.719 184.986 872.751 184.986 870.921 186.817L859.711 198.027L845.613 141.622L902.018 155.72L890.808 166.93C888.979 168.758 888.978 171.728 890.808 173.559L909.183 191.933L895.924 205.191Z" fill="white"></path> </g> <path d="M837.146 105.816C839.735 105.816 841.834 103.717 841.834 101.129V76.9099C841.834 74.3211 839.735 72.2224 837.146 72.2224C834.558 72.2224 832.459 74.3211 832.459 76.9099V101.129C832.459 103.717 834.558 105.816 837.146 105.816Z" fill="#1F8B24"></path> <path d="M800.688 90.0701C798.857 88.2395 795.889 88.2395 794.059 90.0701C792.228 91.9007 792.228 94.8685 794.059 96.6992L810.831 113.472C812.662 115.303 815.63 115.303 817.46 113.472C819.291 111.641 819.291 108.674 817.46 106.843L800.688 90.0701Z" fill="#1F8B24"></path> <path d="M810.363 153.316L794.059 169.62C792.228 171.451 792.228 174.419 794.059 176.249C795.889 178.08 798.857 178.08 800.688 176.249L816.992 159.945C818.822 158.114 818.822 155.147 816.992 153.316C815.161 151.485 812.193 151.485 810.363 153.316Z" fill="#1F8B24"></path> <path d="M864.399 112.534L880.234 96.6992C882.064 94.8685 882.064 91.9007 880.234 90.0701C878.404 88.2395 875.435 88.2395 873.605 90.0701L857.769 105.905C855.939 107.736 855.939 110.704 857.769 112.534C859.6 114.365 862.568 114.365 864.399 112.534Z" fill="#1F8B24"></path> <path d="M809.334 133.16C809.334 130.571 807.235 128.472 804.646 128.472H780.896C778.308 128.472 776.209 130.571 776.209 133.16C776.209 135.749 778.308 137.847 780.896 137.847H804.646C807.235 137.847 809.334 135.749 809.334 133.16Z" fill="#1F8B24"></path> <defs> <filter id="filter0_i_8844_48049" x="0" y="-16" width="351" height="176" filterUnits="userSpaceOnUse" color-interpolation-filters="sRGB"> <feFlood flood-opacity="0" result="BackgroundImageFix"></feFlood> <feBlend mode="normal" in="SourceGraphic" in2="BackgroundImageFix" result="shape"></feBlend> <feColorMatrix in="SourceAlpha" type="matrix" values="0 0 0 0 0 0 0 0 0 0 0 0 0 0 0 0 0 0 127 0" result="hardAlpha"></feColorMatrix> <feOffset dy="-16"></feOffset> <feGaussianBlur stdDeviation="16"></feGaussianBlur> <feComposite in2="hardAlpha" operator="arithmetic" k2="-1" k3="1"></feComposite> <feColorMatrix type="matrix" values="0 0 0 0 0 0 0 0 0 0 0 0 0 0 0 0 0 0 0.08 0"></feColorMatrix> <feBlend mode="normal" in2="shape" result="effect1_innerShadow_8844_48049"></feBlend> </filter> <filter id="filter1_i_8844_48049" x="384" y="-16" width="516" height="176" filterUnits="userSpaceOnUse" color-interpolation-filters="sRGB"> <feFlood flood-opacity="0" result="BackgroundImageFix"></feFlood> <feBlend mode="normal" in="SourceGraphic" in2="BackgroundImageFix" result="shape"></feBlend> <feColorMatrix in="SourceAlpha" type="matrix" values="0 0 0 0 0 0 0 0 0 0 0 0 0 0 0 0 0 0 127 0" result="hardAlpha"></feColorMatrix> <feOffset dy="-16"></feOffset> <feGaussianBlur stdDeviation="16"></feGaussianBlur> <feComposite in2="hardAlpha" operator="arithmetic" k2="-1" k3="1"></feComposite> <feColorMatrix type="matrix" values="0 0 0 0 0 0 0 0 0 0 0 0 0 0 0 0 0 0 0.16 0"></feColorMatrix> <feBlend mode="normal" in2="shape" result="effect1_innerShadow_8844_48049"></feBlend> </filter> <filter id="filter2_dd_8844_48049" x="413.562" y="37.7568" width="134.531" height="118.143" filterUnits="userSpaceOnUse" color-interpolation-filters="sRGB"> <feFlood flood-opacity="0" result="BackgroundImageFix"></feFlood> <feColorMatrix in="SourceAlpha" type="matrix" values="0 0 0 0 0 0 0 0 0 0 0 0 0 0 0 0 0 0 127 0" result="hardAlpha"></feColorMatrix> <feOffset dy="16"></feOffset> <feGaussianBlur stdDeviation="16"></feGaussianBlur> <feColorMatrix type="matrix" values="0 0 0 0 0.121569 0 0 0 0 0.545098 0 0 0 0 0.141176 0 0 0 0.18 0"></feColorMatrix> <feBlend mode="multiply" in2="BackgroundImageFix" result="effect1_dropShadow_8844_48049"></feBlend> <feColorMatrix in="SourceAlpha" type="matrix" values="0 0 0 0 0 0 0 0 0 0 0 0 0 0 0 0 0 0 127 0" result="hardAlpha"></feColorMatrix> <feOffset dy="8"></feOffset> <feGaussianBlur stdDeviation="8"></feGaussianBlur> <feColorMatrix type="matrix" values="0 0 0 0 0.121569 0 0 0 0 0.545098 0 0 0 0 0.141176 0 0 0 0.18 0"></feColorMatrix> <feBlend mode="multiply" in2="effect1_dropShadow_8844_48049" result="effect2_dropShadow_8844_48049"></feBlend> <feBlend mode="normal" in="SourceGraphic" in2="effect2_dropShadow_8844_48049" result="shape"></feBlend> </filter> <filter id="filter3_f_8844_48049" x="722" y="16" width="221" height="216" filterUnits="userSpaceOnUse" color-interpolation-filters="sRGB"> <feFlood flood-opacity="0" result="BackgroundImageFix"></feFlood> <feBlend mode="normal" in="SourceGraphic" in2="BackgroundImageFix" result="shape"></feBlend> <feGaussianBlur stdDeviation="16" result="effect1_foregroundBlur_8844_48049"></feGaussianBlur> </filter> <filter id="filter4_dd_8844_48049" x="764.414" y="96.4799" width="226.18" height="224.819" filterUnits="userSpaceOnUse" color-interpolation-filters="sRGB"> <feFlood flood-opacity="0" result="BackgroundImageFix"></feFlood> <feColorMatrix in="SourceAlpha" type="matrix" values="0 0 0 0 0 0 0 0 0 0 0 0 0 0 0 0 0 0 127 0" result="hardAlpha"></feColorMatrix> <feOffset dy="36.4747"></feOffset> <feGaussianBlur stdDeviation="36.4747"></feGaussianBlur> <feColorMatrix type="matrix" values="0 0 0 0 0.380392 0 0 0 0 0.380392 0 0 0 0 0.380392 0 0 0 0.14 0"></feColorMatrix> <feBlend mode="multiply" in2="BackgroundImageFix" result="effect1_dropShadow_8844_48049"></feBlend> <feColorMatrix in="SourceAlpha" type="matrix" values="0 0 0 0 0 0 0 0 0 0 0 0 0 0 0 0 0 0 127 0" result="hardAlpha"></feColorMatrix> <feOffset dy="18.2374"></feOffset> <feGaussianBlur stdDeviation="18.2374"></feGaussianBlur> <feColorMatrix type="matrix" values="0 0 0 0 0.380392 0 0 0 0 0.380392 0 0 0 0 0.380392 0 0 0 0.14 0"></feColorMatrix> <feBlend mode="multiply" in2="effect1_dropShadow_8844_48049" result="effect2_dropShadow_8844_48049"></feBlend> <feBlend mode="normal" in="SourceGraphic" in2="effect2_dropShadow_8844_48049" result="shape"></feBlend> </filter> <filter id="filter5_dd_8844_48049" x="760.564" y="93.0475" width="232.885" height="232.885" filterUnits="userSpaceOnUse" color-interpolation-filters="sRGB"> <feFlood flood-opacity="0" result="BackgroundImageFix"></feFlood> <feColorMatrix in="SourceAlpha" type="matrix" values="0 0 0 0 0 0 0 0 0 0 0 0 0 0 0 0 0 0 127 0" result="hardAlpha"></feColorMatrix> <feOffset dy="36.4747"></feOffset> <feGaussianBlur stdDeviation="36.4747"></feGaussianBlur> <feColorMatrix type="matrix" values="0 0 0 0 0.380392 0 0 0 0 0.380392 0 0 0 0 0.380392 0 0 0 0.14 0"></feColorMatrix> <feBlend mode="multiply" in2="BackgroundImageFix" result="effect1_dropShadow_8844_48049"></feBlend> <feColorMatrix in="SourceAlpha" type="matrix" values="0 0 0 0 0 0 0 0 0 0 0 0 0 0 0 0 0 0 127 0" result="hardAlpha"></feColorMatrix> <feOffset dy="18.2374"></feOffset> <feGaussianBlur stdDeviation="18.2374"></feGaussianBlur> <feColorMatrix type="matrix" values="0 0 0 0 0.380392 0 0 0 0 0.380392 0 0 0 0 0.380392 0 0 0 0.14 0"></feColorMatrix> <feBlend mode="multiply" in2="effect1_dropShadow_8844_48049" result="effect2_dropShadow_8844_48049"></feBlend> <feBlend mode="normal" in="SourceGraphic" in2="effect2_dropShadow_8844_48049" result="shape"></feBlend> </filter> <linearGradient id="paint0_linear_8844_48049" x1="175.5" y1="0" x2="175.5" y2="160" gradientUnits="userSpaceOnUse"> <stop stop-color="#878787"></stop> <stop offset="1" stop-color="#1B1A51"></stop> </linearGradient> <linearGradient id="paint1_linear_8844_48049" x1="642" y1="0" x2="642" y2="160" gradientUnits="userSpaceOnUse"> <stop stop-color="#7678A9"></stop> <stop offset="1" stop-color="#15174B"></stop> </linearGradient> <clipPath id="clip0_8844_48049"> <rect width="351" height="160" rx="80" fill="white"></rect> </clipPath> <clipPath id="clip1_8844_48049"> <rect x="384" width="516" height="160" rx="80" fill="white"></rect> </clipPath> <clipPath id="clip2_8844_48049"> <rect width="96" height="96" fill="white" transform="translate(432 32)"></rect> </clipPath> </defs> </svg> 