<?xml version="1.0" encoding="UTF-8"?> <svg xmlns="http://www.w3.org/2000/svg" width="624" height="360" viewBox="0 0 624 360" fill="none"> <g clip-path="url(#clip0_8805_112548)"> <g filter="url(#filter0_i_8805_112548)"> <rect y="192" width="312" height="72" rx="30" fill="#F7E7A1"></rect> </g> <g filter="url(#filter1_i_8805_112548)"> <rect x="216" y="96" width="240" height="72" rx="30" fill="#C5F2C7"></rect> </g> <g filter="url(#filter2_i_8805_112548)"> <rect y="96" width="192" height="72" rx="30" fill="#E0E0E0"></rect> </g> <g filter="url(#filter3_i_8805_112548)"> <rect x="336" y="192" width="192" height="72" rx="30" fill="#FAC1D6"></rect> </g> <g filter="url(#filter4_i_8805_112548)"> <rect x="480" y="96" width="144" height="72" rx="30" fill="#C7CDF1"></rect> </g> <g filter="url(#filter5_dd_8805_112548)"> <path d="M142.887 118.889L143.417 119.419L142.887 118.889C141.91 119.865 141.91 121.448 142.887 122.425L143.417 121.894L142.887 122.425L152.462 132L142.887 141.575C141.91 142.552 141.91 144.135 142.887 145.111C143.863 146.087 145.446 146.087 146.422 145.111L155.998 135.536L165.573 145.111C166.549 146.087 168.132 146.087 169.108 145.111C170.085 144.135 170.085 142.552 169.108 141.575L159.533 132L169.109 122.425C170.085 121.448 170.085 119.865 169.109 118.889C168.132 117.913 166.549 117.913 165.573 118.889L155.998 128.465L146.422 118.889C145.446 117.913 143.863 117.913 142.887 118.889Z" fill="white" stroke="white" stroke-width="1.5"></path> </g> <g filter="url(#filter6_dd_8805_112548)"> <path d="M262.887 214.889L263.417 215.419L262.887 214.889C261.91 215.865 261.91 217.448 262.887 218.425L263.417 217.894L262.887 218.425L272.462 228L262.887 237.575C261.91 238.552 261.91 240.135 262.887 241.111C263.863 242.087 265.446 242.087 266.422 241.111L275.998 231.536L285.573 241.111C286.549 242.087 288.132 242.087 289.108 241.111C290.085 240.135 290.085 238.552 289.108 237.575L279.533 228L289.109 218.425C290.085 217.448 290.085 215.865 289.109 214.889C288.132 213.913 286.549 213.913 285.573 214.889L275.998 224.465L266.422 214.889C265.446 213.913 263.863 213.913 262.887 214.889Z" fill="white" stroke="white" stroke-width="1.5"></path> </g> <g filter="url(#filter7_i_8805_112548)"> <rect width="240" height="72" rx="30" fill="#B4EDE3"></rect> </g> <g filter="url(#filter8_i_8805_112548)"> <rect x="264" width="240" height="72" rx="30" fill="#FBE5C9"></rect> </g> <g filter="url(#filter9_dd_8805_112548)"> <path d="M190.887 22.8891L191.417 23.4194L190.887 22.8891C189.91 23.8654 189.91 25.4483 190.887 26.4246L191.417 25.8943L190.887 26.4246L200.462 36.0001L190.887 45.5754C189.91 46.5517 189.91 48.1347 190.887 49.111C191.863 50.0873 193.446 50.0873 194.422 49.111L203.998 39.5356L213.573 49.111C214.549 50.0873 216.132 50.0873 217.108 49.111C218.085 48.1347 218.085 46.5517 217.108 45.5754L207.533 36.0001L217.109 26.4246C218.085 25.4483 218.085 23.8654 217.109 22.8891C216.132 21.9128 214.549 21.9128 213.573 22.8891L203.998 32.4646L194.422 22.8891C193.446 21.9128 191.863 21.9128 190.887 22.8891Z" fill="white" stroke="white" stroke-width="1.5"></path> </g> <g filter="url(#filter10_dd_8805_112548)"> <path d="M454.887 22.8891L455.417 23.4194L454.887 22.8891C453.91 23.8654 453.91 25.4483 454.887 26.4246L455.417 25.8943L454.887 26.4246L464.462 36.0001L454.887 45.5754C453.91 46.5517 453.91 48.1347 454.887 49.111C455.863 50.0873 457.446 50.0873 458.422 49.111L467.998 39.5356L477.573 49.111C478.549 50.0873 480.132 50.0873 481.108 49.111C482.085 48.1347 482.085 46.5517 481.108 45.5754L471.533 36.0001L481.109 26.4246C482.085 25.4483 482.085 23.8654 481.109 22.8891C480.132 21.9128 478.549 21.9128 477.573 22.8891L467.998 32.4646L458.422 22.8891C457.446 21.9128 455.863 21.9128 454.887 22.8891Z" fill="white" stroke="white" stroke-width="1.5"></path> </g> <g filter="url(#filter11_dd_8805_112548)"> <path d="M478.887 214.889L479.417 215.419L478.887 214.889C477.91 215.865 477.91 217.448 478.887 218.425L479.417 217.894L478.887 218.425L488.462 228L478.887 237.575C477.91 238.552 477.91 240.135 478.887 241.111C479.863 242.087 481.446 242.087 482.422 241.111L491.998 231.536L501.573 241.111C502.549 242.087 504.132 242.087 505.108 241.111C506.085 240.135 506.085 238.552 505.108 237.575L495.533 228L505.109 218.425C506.085 217.448 506.085 215.865 505.109 214.889C504.132 213.913 502.549 213.913 501.573 214.889L491.998 224.465L482.422 214.889C481.446 213.913 479.863 213.913 478.887 214.889Z" fill="white" stroke="white" stroke-width="1.5"></path> </g> <g filter="url(#filter12_dd_8805_112548)"> <path d="M574.887 118.889L575.417 119.419L574.887 118.889C573.91 119.865 573.91 121.448 574.887 122.425L575.417 121.894L574.887 122.425L584.462 132L574.887 141.575C573.91 142.552 573.91 144.135 574.887 145.111C575.863 146.087 577.446 146.087 578.422 145.111L587.998 135.536L597.573 145.111C598.549 146.087 600.132 146.087 601.108 145.111C602.085 144.135 602.085 142.552 601.108 141.575L591.533 132L601.109 122.425C602.085 121.448 602.085 119.865 601.109 118.889C600.132 117.913 598.549 117.913 597.573 118.889L587.998 128.465L578.422 118.889C577.446 117.913 575.863 117.913 574.887 118.889Z" fill="white" stroke="white" stroke-width="1.5"></path> </g> <g filter="url(#filter13_i_8805_112548)"> <rect y="288" width="264" height="72" rx="30" fill="#C5DCFA"></rect> </g> <g filter="url(#filter14_i_8805_112548)"> <rect x="288" y="288" width="192" height="72" rx="30" fill="#ECB9F9"></rect> </g> <g filter="url(#filter15_dd_8805_112548)"> <path d="M214.887 310.889L215.417 311.419L214.887 310.889C213.91 311.865 213.91 313.448 214.887 314.425L215.417 313.894L214.887 314.425L224.462 324L214.887 333.575C213.91 334.552 213.91 336.135 214.887 337.111C215.863 338.087 217.446 338.087 218.422 337.111L227.998 327.536L237.573 337.111C238.549 338.087 240.132 338.087 241.108 337.111C242.085 336.135 242.085 334.552 241.108 333.575L231.533 324L241.109 314.425C242.085 313.448 242.085 311.865 241.109 310.889C240.132 309.913 238.549 309.913 237.573 310.889L227.998 320.465L218.422 310.889C217.446 309.913 215.863 309.913 214.887 310.889Z" fill="white" stroke="white" stroke-width="1.5"></path> </g> <g filter="url(#filter16_dd_8805_112548)"> <path d="M430.887 310.889L431.417 311.419L430.887 310.889C429.91 311.865 429.91 313.448 430.887 314.425L431.417 313.894L430.887 314.425L440.462 324L430.887 333.575C429.91 334.552 429.91 336.135 430.887 337.111C431.863 338.087 433.446 338.087 434.422 337.111L443.998 327.536L453.573 337.111C454.549 338.087 456.132 338.087 457.108 337.111C458.085 336.135 458.085 334.552 457.108 333.575L447.533 324L457.109 314.425C458.085 313.448 458.085 311.865 457.109 310.889C456.132 309.913 454.549 309.913 453.573 310.889L443.998 320.465L434.422 310.889C433.446 309.913 431.863 309.913 430.887 310.889Z" fill="white" stroke="white" stroke-width="1.5"></path> </g> <g opacity="0.7" filter="url(#filter17_dd_8805_112548)"> <path d="M406.887 118.889L407.417 119.419L406.887 118.889C405.91 119.865 405.91 121.448 406.887 122.425L407.417 121.894L406.887 122.425L416.462 132L406.887 141.575C405.91 142.552 405.91 144.135 406.887 145.111C407.863 146.087 409.446 146.087 410.422 145.111L419.998 135.536L429.573 145.111C430.549 146.087 432.132 146.087 433.108 145.111C434.085 144.135 434.085 142.552 433.108 141.575L423.533 132L433.109 122.425C434.085 121.448 434.085 119.865 433.109 118.889C432.132 117.913 430.549 117.913 429.573 118.889L419.998 128.465L410.422 118.889C409.446 117.913 407.863 117.913 406.887 118.889Z" fill="white" stroke="white" stroke-width="1.5"></path> </g> <g filter="url(#filter18_dd_8805_112548)"> <path d="M478.473 150.537L422.215 136.842L436.773 191.126L448.493 181.133L467.863 195.444L481.804 181.133L466.136 162.874L478.473 150.537Z" fill="black"></path> <path d="M478.473 150.537L422.215 136.842L436.773 191.126L448.493 181.133L467.863 195.444L481.804 181.133L466.136 162.874L478.473 150.537Z" stroke="black" stroke-width="2.29698"></path> </g> <g filter="url(#filter19_dd_8805_112548)"> <path d="M484.844 178.905L470.336 164.396L480.805 153.928C481.712 153.021 482.085 151.709 481.79 150.461C481.495 149.212 480.575 148.205 479.358 147.8L422.118 132.433C420.788 131.99 419.322 132.336 418.33 133.327C417.339 134.319 416.993 135.785 417.436 137.115L432.803 194.356C433.208 195.573 434.215 196.493 435.463 196.787C436.712 197.083 438.024 196.71 438.931 195.802L449.4 185.334L463.908 199.842C464.631 200.565 465.578 200.926 466.525 200.926C467.472 200.926 468.419 200.565 469.142 199.842L484.845 184.139C486.29 182.693 486.29 180.35 484.844 178.905ZM466.525 191.99L452.016 177.482C450.571 176.037 448.227 176.037 446.782 177.482L437.931 186.333L426.799 141.797L471.336 152.928L462.485 161.779C461.041 163.223 461.04 165.569 462.485 167.014L476.993 181.522L466.525 191.99Z" fill="white"></path> <path d="M420.115 113.525C422.159 113.525 423.816 111.868 423.816 109.824V90.7011C423.816 88.657 422.159 86.9999 420.115 86.9999C418.071 86.9999 416.414 88.657 416.414 90.7011V109.824C416.414 111.868 418.071 113.525 420.115 113.525Z" fill="#1F8B24"></path> <path d="M391.326 101.092C389.881 99.6468 387.537 99.6468 386.092 101.092C384.646 102.538 384.646 104.881 386.092 106.326L399.336 119.57C400.781 121.016 403.125 121.016 404.57 119.57C406.015 118.125 406.015 115.781 404.57 114.336L391.326 101.092Z" fill="#1F8B24"></path> <path d="M398.965 151.03L386.092 163.904C384.646 165.349 384.646 167.693 386.092 169.138C387.537 170.584 389.881 170.584 391.326 169.138L404.2 156.265C405.645 154.819 405.645 152.476 404.2 151.03C402.754 149.585 400.411 149.585 398.965 151.03Z" fill="#1F8B24"></path> <path d="M441.635 118.83L454.138 106.327C455.584 104.881 455.584 102.538 454.138 101.093C452.693 99.6472 450.349 99.6472 448.904 101.093L436.4 113.596C434.955 115.041 434.955 117.385 436.4 118.83C437.846 120.276 440.19 120.276 441.635 118.83Z" fill="#1F8B24"></path> <path d="M398.155 135.115C398.155 133.071 396.498 131.414 394.454 131.414H375.701C373.657 131.414 372 133.071 372 135.115C372 137.159 373.657 138.817 375.701 138.817H394.454C396.498 138.817 398.155 137.159 398.155 135.115Z" fill="#1F8B24"></path> </g> </g> <defs> <filter id="filter0_i_8805_112548" x="0" y="186" width="312" height="78" filterUnits="userSpaceOnUse" color-interpolation-filters="sRGB"> <feFlood flood-opacity="0" result="BackgroundImageFix"></feFlood> <feBlend mode="normal" in="SourceGraphic" in2="BackgroundImageFix" result="shape"></feBlend> <feColorMatrix in="SourceAlpha" type="matrix" values="0 0 0 0 0 0 0 0 0 0 0 0 0 0 0 0 0 0 127 0" result="hardAlpha"></feColorMatrix> <feOffset dy="-6"></feOffset> <feGaussianBlur stdDeviation="3"></feGaussianBlur> <feComposite in2="hardAlpha" operator="arithmetic" k2="-1" k3="1"></feComposite> <feColorMatrix type="matrix" values="0 0 0 0 0 0 0 0 0 0 0 0 0 0 0 0 0 0 0.12 0"></feColorMatrix> <feBlend mode="normal" in2="shape" result="effect1_innerShadow_8805_112548"></feBlend> </filter> <filter id="filter1_i_8805_112548" x="216" y="90" width="240" height="78" filterUnits="userSpaceOnUse" color-interpolation-filters="sRGB"> <feFlood flood-opacity="0" result="BackgroundImageFix"></feFlood> <feBlend mode="normal" in="SourceGraphic" in2="BackgroundImageFix" result="shape"></feBlend> <feColorMatrix in="SourceAlpha" type="matrix" values="0 0 0 0 0 0 0 0 0 0 0 0 0 0 0 0 0 0 127 0" result="hardAlpha"></feColorMatrix> <feOffset dy="-6"></feOffset> <feGaussianBlur stdDeviation="3"></feGaussianBlur> <feComposite in2="hardAlpha" operator="arithmetic" k2="-1" k3="1"></feComposite> <feColorMatrix type="matrix" values="0 0 0 0 0 0 0 0 0 0 0 0 0 0 0 0 0 0 0.12 0"></feColorMatrix> <feBlend mode="normal" in2="shape" result="effect1_innerShadow_8805_112548"></feBlend> </filter> <filter id="filter2_i_8805_112548" x="0" y="90" width="192" height="78" filterUnits="userSpaceOnUse" color-interpolation-filters="sRGB"> <feFlood flood-opacity="0" result="BackgroundImageFix"></feFlood> <feBlend mode="normal" in="SourceGraphic" in2="BackgroundImageFix" result="shape"></feBlend> <feColorMatrix in="SourceAlpha" type="matrix" values="0 0 0 0 0 0 0 0 0 0 0 0 0 0 0 0 0 0 127 0" result="hardAlpha"></feColorMatrix> <feOffset dy="-6"></feOffset> <feGaussianBlur stdDeviation="3"></feGaussianBlur> <feComposite in2="hardAlpha" operator="arithmetic" k2="-1" k3="1"></feComposite> <feColorMatrix type="matrix" values="0 0 0 0 0 0 0 0 0 0 0 0 0 0 0 0 0 0 0.12 0"></feColorMatrix> <feBlend mode="normal" in2="shape" result="effect1_innerShadow_8805_112548"></feBlend> </filter> <filter id="filter3_i_8805_112548" x="336" y="186" width="192" height="78" filterUnits="userSpaceOnUse" color-interpolation-filters="sRGB"> <feFlood flood-opacity="0" result="BackgroundImageFix"></feFlood> <feBlend mode="normal" in="SourceGraphic" in2="BackgroundImageFix" result="shape"></feBlend> <feColorMatrix in="SourceAlpha" type="matrix" values="0 0 0 0 0 0 0 0 0 0 0 0 0 0 0 0 0 0 127 0" result="hardAlpha"></feColorMatrix> <feOffset dy="-6"></feOffset> <feGaussianBlur stdDeviation="3"></feGaussianBlur> <feComposite in2="hardAlpha" operator="arithmetic" k2="-1" k3="1"></feComposite> <feColorMatrix type="matrix" values="0 0 0 0 0 0 0 0 0 0 0 0 0 0 0 0 0 0 0.12 0"></feColorMatrix> <feBlend mode="normal" in2="shape" result="effect1_innerShadow_8805_112548"></feBlend> </filter> <filter id="filter4_i_8805_112548" x="480" y="90" width="144" height="78" filterUnits="userSpaceOnUse" color-interpolation-filters="sRGB"> <feFlood flood-opacity="0" result="BackgroundImageFix"></feFlood> <feBlend mode="normal" in="SourceGraphic" in2="BackgroundImageFix" result="shape"></feBlend> <feColorMatrix in="SourceAlpha" type="matrix" values="0 0 0 0 0 0 0 0 0 0 0 0 0 0 0 0 0 0 127 0" result="hardAlpha"></feColorMatrix> <feOffset dy="-6"></feOffset> <feGaussianBlur stdDeviation="3"></feGaussianBlur> <feComposite in2="hardAlpha" operator="arithmetic" k2="-1" k3="1"></feComposite> <feColorMatrix type="matrix" values="0 0 0 0 0 0 0 0 0 0 0 0 0 0 0 0 0 0 0.12 0"></feColorMatrix> <feBlend mode="normal" in2="shape" result="effect1_innerShadow_8805_112548"></feBlend> </filter> <filter id="filter5_dd_8805_112548" x="131" y="109" width="50" height="50" filterUnits="userSpaceOnUse" color-interpolation-filters="sRGB"> <feFlood flood-opacity="0" result="BackgroundImageFix"></feFlood> <feColorMatrix in="SourceAlpha" type="matrix" values="0 0 0 0 0 0 0 0 0 0 0 0 0 0 0 0 0 0 127 0" result="hardAlpha"></feColorMatrix> <feOffset dy="2"></feOffset> <feGaussianBlur stdDeviation="2"></feGaussianBlur> <feColorMatrix type="matrix" values="0 0 0 0 0.380392 0 0 0 0 0.380392 0 0 0 0 0.380392 0 0 0 0.2 0"></feColorMatrix> <feBlend mode="multiply" in2="BackgroundImageFix" result="effect1_dropShadow_8805_112548"></feBlend> <feColorMatrix in="SourceAlpha" type="matrix" values="0 0 0 0 0 0 0 0 0 0 0 0 0 0 0 0 0 0 127 0" result="hardAlpha"></feColorMatrix> <feOffset dy="1"></feOffset> <feGaussianBlur stdDeviation="1"></feGaussianBlur> <feColorMatrix type="matrix" values="0 0 0 0 0.380392 0 0 0 0 0.380392 0 0 0 0 0.380392 0 0 0 0.2 0"></feColorMatrix> <feBlend mode="multiply" in2="effect1_dropShadow_8805_112548" result="effect2_dropShadow_8805_112548"></feBlend> <feBlend mode="normal" in="SourceGraphic" in2="effect2_dropShadow_8805_112548" result="shape"></feBlend> </filter> <filter id="filter6_dd_8805_112548" x="251" y="205" width="50" height="50" filterUnits="userSpaceOnUse" color-interpolation-filters="sRGB"> <feFlood flood-opacity="0" result="BackgroundImageFix"></feFlood> <feColorMatrix in="SourceAlpha" type="matrix" values="0 0 0 0 0 0 0 0 0 0 0 0 0 0 0 0 0 0 127 0" result="hardAlpha"></feColorMatrix> <feOffset dy="2"></feOffset> <feGaussianBlur stdDeviation="2"></feGaussianBlur> <feColorMatrix type="matrix" values="0 0 0 0 0.380392 0 0 0 0 0.380392 0 0 0 0 0.380392 0 0 0 0.2 0"></feColorMatrix> <feBlend mode="multiply" in2="BackgroundImageFix" result="effect1_dropShadow_8805_112548"></feBlend> <feColorMatrix in="SourceAlpha" type="matrix" values="0 0 0 0 0 0 0 0 0 0 0 0 0 0 0 0 0 0 127 0" result="hardAlpha"></feColorMatrix> <feOffset dy="1"></feOffset> <feGaussianBlur stdDeviation="1"></feGaussianBlur> <feColorMatrix type="matrix" values="0 0 0 0 0.380392 0 0 0 0 0.380392 0 0 0 0 0.380392 0 0 0 0.2 0"></feColorMatrix> <feBlend mode="multiply" in2="effect1_dropShadow_8805_112548" result="effect2_dropShadow_8805_112548"></feBlend> <feBlend mode="normal" in="SourceGraphic" in2="effect2_dropShadow_8805_112548" result="shape"></feBlend> </filter> <filter id="filter7_i_8805_112548" x="0" y="-6" width="240" height="78" filterUnits="userSpaceOnUse" color-interpolation-filters="sRGB"> <feFlood flood-opacity="0" result="BackgroundImageFix"></feFlood> <feBlend mode="normal" in="SourceGraphic" in2="BackgroundImageFix" result="shape"></feBlend> <feColorMatrix in="SourceAlpha" type="matrix" values="0 0 0 0 0 0 0 0 0 0 0 0 0 0 0 0 0 0 127 0" result="hardAlpha"></feColorMatrix> <feOffset dy="-6"></feOffset> <feGaussianBlur stdDeviation="3"></feGaussianBlur> <feComposite in2="hardAlpha" operator="arithmetic" k2="-1" k3="1"></feComposite> <feColorMatrix type="matrix" values="0 0 0 0 0 0 0 0 0 0 0 0 0 0 0 0 0 0 0.12 0"></feColorMatrix> <feBlend mode="normal" in2="shape" result="effect1_innerShadow_8805_112548"></feBlend> </filter> <filter id="filter8_i_8805_112548" x="264" y="-6" width="240" height="78" filterUnits="userSpaceOnUse" color-interpolation-filters="sRGB"> <feFlood flood-opacity="0" result="BackgroundImageFix"></feFlood> <feBlend mode="normal" in="SourceGraphic" in2="BackgroundImageFix" result="shape"></feBlend> <feColorMatrix in="SourceAlpha" type="matrix" values="0 0 0 0 0 0 0 0 0 0 0 0 0 0 0 0 0 0 127 0" result="hardAlpha"></feColorMatrix> <feOffset dy="-6"></feOffset> <feGaussianBlur stdDeviation="3"></feGaussianBlur> <feComposite in2="hardAlpha" operator="arithmetic" k2="-1" k3="1"></feComposite> <feColorMatrix type="matrix" values="0 0 0 0 0 0 0 0 0 0 0 0 0 0 0 0 0 0 0.12 0"></feColorMatrix> <feBlend mode="normal" in2="shape" result="effect1_innerShadow_8805_112548"></feBlend> </filter> <filter id="filter9_dd_8805_112548" x="179" y="13" width="50" height="50" filterUnits="userSpaceOnUse" color-interpolation-filters="sRGB"> <feFlood flood-opacity="0" result="BackgroundImageFix"></feFlood> <feColorMatrix in="SourceAlpha" type="matrix" values="0 0 0 0 0 0 0 0 0 0 0 0 0 0 0 0 0 0 127 0" result="hardAlpha"></feColorMatrix> <feOffset dy="2"></feOffset> <feGaussianBlur stdDeviation="2"></feGaussianBlur> <feColorMatrix type="matrix" values="0 0 0 0 0.380392 0 0 0 0 0.380392 0 0 0 0 0.380392 0 0 0 0.2 0"></feColorMatrix> <feBlend mode="multiply" in2="BackgroundImageFix" result="effect1_dropShadow_8805_112548"></feBlend> <feColorMatrix in="SourceAlpha" type="matrix" values="0 0 0 0 0 0 0 0 0 0 0 0 0 0 0 0 0 0 127 0" result="hardAlpha"></feColorMatrix> <feOffset dy="1"></feOffset> <feGaussianBlur stdDeviation="1"></feGaussianBlur> <feColorMatrix type="matrix" values="0 0 0 0 0.380392 0 0 0 0 0.380392 0 0 0 0 0.380392 0 0 0 0.2 0"></feColorMatrix> <feBlend mode="multiply" in2="effect1_dropShadow_8805_112548" result="effect2_dropShadow_8805_112548"></feBlend> <feBlend mode="normal" in="SourceGraphic" in2="effect2_dropShadow_8805_112548" result="shape"></feBlend> </filter> <filter id="filter10_dd_8805_112548" x="443" y="13" width="50" height="50" filterUnits="userSpaceOnUse" color-interpolation-filters="sRGB"> <feFlood flood-opacity="0" result="BackgroundImageFix"></feFlood> <feColorMatrix in="SourceAlpha" type="matrix" values="0 0 0 0 0 0 0 0 0 0 0 0 0 0 0 0 0 0 127 0" result="hardAlpha"></feColorMatrix> <feOffset dy="2"></feOffset> <feGaussianBlur stdDeviation="2"></feGaussianBlur> <feColorMatrix type="matrix" values="0 0 0 0 0.380392 0 0 0 0 0.380392 0 0 0 0 0.380392 0 0 0 0.2 0"></feColorMatrix> <feBlend mode="multiply" in2="BackgroundImageFix" result="effect1_dropShadow_8805_112548"></feBlend> <feColorMatrix in="SourceAlpha" type="matrix" values="0 0 0 0 0 0 0 0 0 0 0 0 0 0 0 0 0 0 127 0" result="hardAlpha"></feColorMatrix> <feOffset dy="1"></feOffset> <feGaussianBlur stdDeviation="1"></feGaussianBlur> <feColorMatrix type="matrix" values="0 0 0 0 0.380392 0 0 0 0 0.380392 0 0 0 0 0.380392 0 0 0 0.2 0"></feColorMatrix> <feBlend mode="multiply" in2="effect1_dropShadow_8805_112548" result="effect2_dropShadow_8805_112548"></feBlend> <feBlend mode="normal" in="SourceGraphic" in2="effect2_dropShadow_8805_112548" result="shape"></feBlend> </filter> <filter id="filter11_dd_8805_112548" x="467" y="205" width="50" height="50" filterUnits="userSpaceOnUse" color-interpolation-filters="sRGB"> <feFlood flood-opacity="0" result="BackgroundImageFix"></feFlood> <feColorMatrix in="SourceAlpha" type="matrix" values="0 0 0 0 0 0 0 0 0 0 0 0 0 0 0 0 0 0 127 0" result="hardAlpha"></feColorMatrix> <feOffset dy="2"></feOffset> <feGaussianBlur stdDeviation="2"></feGaussianBlur> <feColorMatrix type="matrix" values="0 0 0 0 0.380392 0 0 0 0 0.380392 0 0 0 0 0.380392 0 0 0 0.2 0"></feColorMatrix> <feBlend mode="multiply" in2="BackgroundImageFix" result="effect1_dropShadow_8805_112548"></feBlend> <feColorMatrix in="SourceAlpha" type="matrix" values="0 0 0 0 0 0 0 0 0 0 0 0 0 0 0 0 0 0 127 0" result="hardAlpha"></feColorMatrix> <feOffset dy="1"></feOffset> <feGaussianBlur stdDeviation="1"></feGaussianBlur> <feColorMatrix type="matrix" values="0 0 0 0 0.380392 0 0 0 0 0.380392 0 0 0 0 0.380392 0 0 0 0.2 0"></feColorMatrix> <feBlend mode="multiply" in2="effect1_dropShadow_8805_112548" result="effect2_dropShadow_8805_112548"></feBlend> <feBlend mode="normal" in="SourceGraphic" in2="effect2_dropShadow_8805_112548" result="shape"></feBlend> </filter> <filter id="filter12_dd_8805_112548" x="563" y="109" width="50" height="50" filterUnits="userSpaceOnUse" color-interpolation-filters="sRGB"> <feFlood flood-opacity="0" result="BackgroundImageFix"></feFlood> <feColorMatrix in="SourceAlpha" type="matrix" values="0 0 0 0 0 0 0 0 0 0 0 0 0 0 0 0 0 0 127 0" result="hardAlpha"></feColorMatrix> <feOffset dy="2"></feOffset> <feGaussianBlur stdDeviation="2"></feGaussianBlur> <feColorMatrix type="matrix" values="0 0 0 0 0.380392 0 0 0 0 0.380392 0 0 0 0 0.380392 0 0 0 0.2 0"></feColorMatrix> <feBlend mode="multiply" in2="BackgroundImageFix" result="effect1_dropShadow_8805_112548"></feBlend> <feColorMatrix in="SourceAlpha" type="matrix" values="0 0 0 0 0 0 0 0 0 0 0 0 0 0 0 0 0 0 127 0" result="hardAlpha"></feColorMatrix> <feOffset dy="1"></feOffset> <feGaussianBlur stdDeviation="1"></feGaussianBlur> <feColorMatrix type="matrix" values="0 0 0 0 0.380392 0 0 0 0 0.380392 0 0 0 0 0.380392 0 0 0 0.2 0"></feColorMatrix> <feBlend mode="multiply" in2="effect1_dropShadow_8805_112548" result="effect2_dropShadow_8805_112548"></feBlend> <feBlend mode="normal" in="SourceGraphic" in2="effect2_dropShadow_8805_112548" result="shape"></feBlend> </filter> <filter id="filter13_i_8805_112548" x="0" y="282" width="264" height="78" filterUnits="userSpaceOnUse" color-interpolation-filters="sRGB"> <feFlood flood-opacity="0" result="BackgroundImageFix"></feFlood> <feBlend mode="normal" in="SourceGraphic" in2="BackgroundImageFix" result="shape"></feBlend> <feColorMatrix in="SourceAlpha" type="matrix" values="0 0 0 0 0 0 0 0 0 0 0 0 0 0 0 0 0 0 127 0" result="hardAlpha"></feColorMatrix> <feOffset dy="-6"></feOffset> <feGaussianBlur stdDeviation="3"></feGaussianBlur> <feComposite in2="hardAlpha" operator="arithmetic" k2="-1" k3="1"></feComposite> <feColorMatrix type="matrix" values="0 0 0 0 0 0 0 0 0 0 0 0 0 0 0 0 0 0 0.12 0"></feColorMatrix> <feBlend mode="normal" in2="shape" result="effect1_innerShadow_8805_112548"></feBlend> </filter> <filter id="filter14_i_8805_112548" x="288" y="282" width="192" height="78" filterUnits="userSpaceOnUse" color-interpolation-filters="sRGB"> <feFlood flood-opacity="0" result="BackgroundImageFix"></feFlood> <feBlend mode="normal" in="SourceGraphic" in2="BackgroundImageFix" result="shape"></feBlend> <feColorMatrix in="SourceAlpha" type="matrix" values="0 0 0 0 0 0 0 0 0 0 0 0 0 0 0 0 0 0 127 0" result="hardAlpha"></feColorMatrix> <feOffset dy="-6"></feOffset> <feGaussianBlur stdDeviation="3"></feGaussianBlur> <feComposite in2="hardAlpha" operator="arithmetic" k2="-1" k3="1"></feComposite> <feColorMatrix type="matrix" values="0 0 0 0 0 0 0 0 0 0 0 0 0 0 0 0 0 0 0.12 0"></feColorMatrix> <feBlend mode="normal" in2="shape" result="effect1_innerShadow_8805_112548"></feBlend> </filter> <filter id="filter15_dd_8805_112548" x="203" y="301" width="50" height="50" filterUnits="userSpaceOnUse" color-interpolation-filters="sRGB"> <feFlood flood-opacity="0" result="BackgroundImageFix"></feFlood> <feColorMatrix in="SourceAlpha" type="matrix" values="0 0 0 0 0 0 0 0 0 0 0 0 0 0 0 0 0 0 127 0" result="hardAlpha"></feColorMatrix> <feOffset dy="2"></feOffset> <feGaussianBlur stdDeviation="2"></feGaussianBlur> <feColorMatrix type="matrix" values="0 0 0 0 0.380392 0 0 0 0 0.380392 0 0 0 0 0.380392 0 0 0 0.2 0"></feColorMatrix> <feBlend mode="multiply" in2="BackgroundImageFix" result="effect1_dropShadow_8805_112548"></feBlend> <feColorMatrix in="SourceAlpha" type="matrix" values="0 0 0 0 0 0 0 0 0 0 0 0 0 0 0 0 0 0 127 0" result="hardAlpha"></feColorMatrix> <feOffset dy="1"></feOffset> <feGaussianBlur stdDeviation="1"></feGaussianBlur> <feColorMatrix type="matrix" values="0 0 0 0 0.380392 0 0 0 0 0.380392 0 0 0 0 0.380392 0 0 0 0.2 0"></feColorMatrix> <feBlend mode="multiply" in2="effect1_dropShadow_8805_112548" result="effect2_dropShadow_8805_112548"></feBlend> <feBlend mode="normal" in="SourceGraphic" in2="effect2_dropShadow_8805_112548" result="shape"></feBlend> </filter> <filter id="filter16_dd_8805_112548" x="419" y="301" width="50" height="50" filterUnits="userSpaceOnUse" color-interpolation-filters="sRGB"> <feFlood flood-opacity="0" result="BackgroundImageFix"></feFlood> <feColorMatrix in="SourceAlpha" type="matrix" values="0 0 0 0 0 0 0 0 0 0 0 0 0 0 0 0 0 0 127 0" result="hardAlpha"></feColorMatrix> <feOffset dy="2"></feOffset> <feGaussianBlur stdDeviation="2"></feGaussianBlur> <feColorMatrix type="matrix" values="0 0 0 0 0.380392 0 0 0 0 0.380392 0 0 0 0 0.380392 0 0 0 0.2 0"></feColorMatrix> <feBlend mode="multiply" in2="BackgroundImageFix" result="effect1_dropShadow_8805_112548"></feBlend> <feColorMatrix in="SourceAlpha" type="matrix" values="0 0 0 0 0 0 0 0 0 0 0 0 0 0 0 0 0 0 127 0" result="hardAlpha"></feColorMatrix> <feOffset dy="1"></feOffset> <feGaussianBlur stdDeviation="1"></feGaussianBlur> <feColorMatrix type="matrix" values="0 0 0 0 0.380392 0 0 0 0 0.380392 0 0 0 0 0.380392 0 0 0 0.2 0"></feColorMatrix> <feBlend mode="multiply" in2="effect1_dropShadow_8805_112548" result="effect2_dropShadow_8805_112548"></feBlend> <feBlend mode="normal" in="SourceGraphic" in2="effect2_dropShadow_8805_112548" result="shape"></feBlend> </filter> <filter id="filter17_dd_8805_112548" x="395" y="109" width="50" height="50" filterUnits="userSpaceOnUse" color-interpolation-filters="sRGB"> <feFlood flood-opacity="0" result="BackgroundImageFix"></feFlood> <feColorMatrix in="SourceAlpha" type="matrix" values="0 0 0 0 0 0 0 0 0 0 0 0 0 0 0 0 0 0 127 0" result="hardAlpha"></feColorMatrix> <feOffset dy="2"></feOffset> <feGaussianBlur stdDeviation="2"></feGaussianBlur> <feColorMatrix type="matrix" values="0 0 0 0 0.380392 0 0 0 0 0.380392 0 0 0 0 0.380392 0 0 0 0.2 0"></feColorMatrix> <feBlend mode="multiply" in2="BackgroundImageFix" result="effect1_dropShadow_8805_112548"></feBlend> <feColorMatrix in="SourceAlpha" type="matrix" values="0 0 0 0 0 0 0 0 0 0 0 0 0 0 0 0 0 0 127 0" result="hardAlpha"></feColorMatrix> <feOffset dy="1"></feOffset> <feGaussianBlur stdDeviation="1"></feGaussianBlur> <feColorMatrix type="matrix" values="0 0 0 0 0.380392 0 0 0 0 0.380392 0 0 0 0 0.380392 0 0 0 0.2 0"></feColorMatrix> <feBlend mode="multiply" in2="effect1_dropShadow_8805_112548" result="effect2_dropShadow_8805_112548"></feBlend> <feBlend mode="normal" in="SourceGraphic" in2="effect2_dropShadow_8805_112548" result="shape"></feBlend> </filter> <filter id="filter18_dd_8805_112548" x="396.604" y="123.268" width="110.756" height="109.696" filterUnits="userSpaceOnUse" color-interpolation-filters="sRGB"> <feFlood flood-opacity="0" result="BackgroundImageFix"></feFlood> <feColorMatrix in="SourceAlpha" type="matrix" values="0 0 0 0 0 0 0 0 0 0 0 0 0 0 0 0 0 0 127 0" result="hardAlpha"></feColorMatrix> <feOffset dy="12"></feOffset> <feGaussianBlur stdDeviation="12"></feGaussianBlur> <feColorMatrix type="matrix" values="0 0 0 0 0.380392 0 0 0 0 0.380392 0 0 0 0 0.380392 0 0 0 0.18 0"></feColorMatrix> <feBlend mode="multiply" in2="BackgroundImageFix" result="effect1_dropShadow_8805_112548"></feBlend> <feColorMatrix in="SourceAlpha" type="matrix" values="0 0 0 0 0 0 0 0 0 0 0 0 0 0 0 0 0 0 127 0" result="hardAlpha"></feColorMatrix> <feOffset dy="6"></feOffset> <feGaussianBlur stdDeviation="6"></feGaussianBlur> <feColorMatrix type="matrix" values="0 0 0 0 0.380392 0 0 0 0 0.380392 0 0 0 0 0.380392 0 0 0 0.18 0"></feColorMatrix> <feBlend mode="multiply" in2="effect1_dropShadow_8805_112548" result="effect2_dropShadow_8805_112548"></feBlend> <feBlend mode="normal" in="SourceGraphic" in2="effect2_dropShadow_8805_112548" result="shape"></feBlend> </filter> <filter id="filter19_dd_8805_112548" x="348" y="74.9999" width="161.93" height="161.926" filterUnits="userSpaceOnUse" color-interpolation-filters="sRGB"> <feFlood flood-opacity="0" result="BackgroundImageFix"></feFlood> <feColorMatrix in="SourceAlpha" type="matrix" values="0 0 0 0 0 0 0 0 0 0 0 0 0 0 0 0 0 0 127 0" result="hardAlpha"></feColorMatrix> <feOffset dy="12"></feOffset> <feGaussianBlur stdDeviation="12"></feGaussianBlur> <feColorMatrix type="matrix" values="0 0 0 0 0.380392 0 0 0 0 0.380392 0 0 0 0 0.380392 0 0 0 0.18 0"></feColorMatrix> <feBlend mode="multiply" in2="BackgroundImageFix" result="effect1_dropShadow_8805_112548"></feBlend> <feColorMatrix in="SourceAlpha" type="matrix" values="0 0 0 0 0 0 0 0 0 0 0 0 0 0 0 0 0 0 127 0" result="hardAlpha"></feColorMatrix> <feOffset dy="6"></feOffset> <feGaussianBlur stdDeviation="6"></feGaussianBlur> <feColorMatrix type="matrix" values="0 0 0 0 0.380392 0 0 0 0 0.380392 0 0 0 0 0.380392 0 0 0 0.18 0"></feColorMatrix> <feBlend mode="multiply" in2="effect1_dropShadow_8805_112548" result="effect2_dropShadow_8805_112548"></feBlend> <feBlend mode="normal" in="SourceGraphic" in2="effect2_dropShadow_8805_112548" result="shape"></feBlend> </filter> <clipPath id="clip0_8805_112548"> <rect width="624" height="360" fill="white"></rect> </clipPath> </defs> </svg> 