<?xml version="1.0" encoding="UTF-8"?> <svg xmlns="http://www.w3.org/2000/svg" width="260" height="260" viewBox="0 0 260 260" fill="none"> <g clip-path="url(#clip0)"> <rect width="260" height="260" rx="16" fill="#F0F0F0"></rect> <g filter="url(#filter0_ddd)"> <path fill-rule="evenodd" clip-rule="evenodd" d="M86.4933 114.847H0V176.542H260V114.847H173.507C171.381 114.853 169.476 116.577 169.476 118.703C167.537 138.798 150.603 154.508 130 154.508C109.397 154.508 92.4628 138.798 90.524 118.703C90.524 116.577 88.6188 114.853 86.4933 114.847Z" fill="white"></path> </g> <path d="M20.9322 139.085H40.7627V141.288H20.9322V139.085ZM20.9322 144.593H40.7627V146.797H20.9322V144.593ZM20.9322 150.102H40.7627V152.305H20.9322V150.102Z" fill="#979797"></path> <path d="M226.398 135.78C228.298 135.78 230.119 136.534 231.462 137.877C232.805 139.22 233.559 141.041 233.559 142.941C233.559 144.714 232.909 146.345 231.841 147.601L232.138 147.898H233.008L238.517 153.407L236.864 155.059L231.356 149.551V148.681L231.058 148.383C229.803 149.452 228.172 150.102 226.398 150.102C224.499 150.102 222.678 149.347 221.335 148.004C219.992 146.661 219.237 144.84 219.237 142.941C219.237 141.041 219.992 139.22 221.335 137.877C222.678 136.534 224.499 135.78 226.398 135.78V135.78ZM226.398 137.983C223.644 137.983 221.441 140.186 221.441 142.941C221.441 145.695 223.644 147.898 226.398 147.898C229.153 147.898 231.356 145.695 231.356 142.941C231.356 140.186 229.153 137.983 226.398 137.983Z" fill="#979797"></path> <g filter="url(#filter1_ddd)"> <rect x="99.1525" y="84" width="61.6949" height="61.6949" rx="30.8475" fill="#4C8BF5"></rect> </g> <g clip-path="url(#clip1)"> <path d="M137.712 115.949H131.102V122.559H128.898V115.949H122.288V113.746H128.898V107.136H131.102V113.746H137.712V115.949Z" fill="white"></path> </g> </g> <defs> <filter id="filter0_ddd" x="-13.2203" y="102.729" width="286.441" height="88.1356" filterUnits="userSpaceOnUse" color-interpolation-filters="sRGB"> <feFlood flood-opacity="0" result="BackgroundImageFix"></feFlood> <feColorMatrix in="SourceAlpha" type="matrix" values="0 0 0 0 0 0 0 0 0 0 0 0 0 0 0 0 0 0 127 0"></feColorMatrix> <feOffset dy="1.10169"></feOffset> <feGaussianBlur stdDeviation="6.61017"></feGaussianBlur> <feColorMatrix type="matrix" values="0 0 0 0 0 0 0 0 0 0 0 0 0 0 0 0 0 0 0.12 0"></feColorMatrix> <feBlend mode="normal" in2="BackgroundImageFix" result="effect1_dropShadow"></feBlend> <feColorMatrix in="SourceAlpha" type="matrix" values="0 0 0 0 0 0 0 0 0 0 0 0 0 0 0 0 0 0 127 0"></feColorMatrix> <feOffset dy="4.40678"></feOffset> <feGaussianBlur stdDeviation="4.40678"></feGaussianBlur> <feColorMatrix type="matrix" values="0 0 0 0 0 0 0 0 0 0 0 0 0 0 0 0 0 0 0.02 0"></feColorMatrix> <feBlend mode="normal" in2="effect1_dropShadow" result="effect2_dropShadow"></feBlend> <feColorMatrix in="SourceAlpha" type="matrix" values="0 0 0 0 0 0 0 0 0 0 0 0 0 0 0 0 0 0 127 0"></feColorMatrix> <feOffset dy="1.10169"></feOffset> <feGaussianBlur stdDeviation="2.20339"></feGaussianBlur> <feColorMatrix type="matrix" values="0 0 0 0 0 0 0 0 0 0 0 0 0 0 0 0 0 0 0.01 0"></feColorMatrix> <feBlend mode="normal" in2="effect2_dropShadow" result="effect3_dropShadow"></feBlend> <feBlend mode="normal" in="SourceGraphic" in2="effect3_dropShadow" result="shape"></feBlend> </filter> <filter id="filter1_ddd" x="85.9322" y="71.8814" width="88.1356" height="88.1356" filterUnits="userSpaceOnUse" color-interpolation-filters="sRGB"> <feFlood flood-opacity="0" result="BackgroundImageFix"></feFlood> <feColorMatrix in="SourceAlpha" type="matrix" values="0 0 0 0 0 0 0 0 0 0 0 0 0 0 0 0 0 0 127 0"></feColorMatrix> <feOffset dy="1.10169"></feOffset> <feGaussianBlur stdDeviation="6.61017"></feGaussianBlur> <feColorMatrix type="matrix" values="0 0 0 0 0 0 0 0 0 0 0 0 0 0 0 0 0 0 0.04 0"></feColorMatrix> <feBlend mode="normal" in2="BackgroundImageFix" result="effect1_dropShadow"></feBlend> <feColorMatrix in="SourceAlpha" type="matrix" values="0 0 0 0 0 0 0 0 0 0 0 0 0 0 0 0 0 0 127 0"></feColorMatrix> <feOffset dy="4.40678"></feOffset> <feGaussianBlur stdDeviation="4.40678"></feGaussianBlur> <feColorMatrix type="matrix" values="0 0 0 0 0 0 0 0 0 0 0 0 0 0 0 0 0 0 0.08 0"></feColorMatrix> <feBlend mode="normal" in2="effect1_dropShadow" result="effect2_dropShadow"></feBlend> <feColorMatrix in="SourceAlpha" type="matrix" values="0 0 0 0 0 0 0 0 0 0 0 0 0 0 0 0 0 0 127 0"></feColorMatrix> <feOffset dy="3.30508"></feOffset> <feGaussianBlur stdDeviation="3.30508"></feGaussianBlur> <feColorMatrix type="matrix" values="0 0 0 0 0 0 0 0 0 0 0 0 0 0 0 0 0 0 0.1 0"></feColorMatrix> <feBlend mode="normal" in2="effect2_dropShadow" result="effect3_dropShadow"></feBlend> <feBlend mode="normal" in="SourceGraphic" in2="effect3_dropShadow" result="shape"></feBlend> </filter> <clipPath id="clip0"> <rect width="260" height="260" fill="white"></rect> </clipPath> <clipPath id="clip1"> <rect width="44.0678" height="44.0678" fill="white" transform="translate(107.966 92.8136)"></rect> </clipPath> </defs> </svg> 