<?xml version="1.0" encoding="UTF-8"?> <svg xmlns="http://www.w3.org/2000/svg" width="302" height="324" viewBox="0 0 302 324" fill="none"> <rect width="302" height="324" fill="white"></rect> <rect x="7.75" y="8.33887" width="286.5" height="54.5" rx="7.25" fill="white"></rect> <g clip-path="url(#clip0_52_203056)"> <path d="M24.372 40.5889V30.7889H25.884V40.5889H24.372ZM25.044 36.4169V34.9609H30.098V36.4169H25.044ZM25.044 32.2449V30.7889H30.728V32.2449H25.044ZM32.9179 40.5889V33.2389H34.3599V40.5889H32.9179ZM33.6179 31.6149C33.3099 31.6149 33.0719 31.5355 32.9039 31.3769C32.7359 31.2182 32.6519 30.9942 32.6519 30.7049C32.6519 30.4342 32.7359 30.2149 32.9039 30.0469C33.0812 29.8789 33.3192 29.7949 33.6179 29.7949C33.9259 29.7949 34.1639 29.8742 34.3319 30.0329C34.4999 30.1915 34.5839 30.4155 34.5839 30.7049C34.5839 30.9755 34.4952 31.1949 34.3179 31.3629C34.1499 31.5309 33.9165 31.6149 33.6179 31.6149ZM36.8544 40.5889V30.2289H38.2964V40.5889H36.8544ZM41.459 40.5889V31.3629H42.901V40.5889H41.459ZM39.933 34.6389V33.2389H44.609V34.6389H39.933ZM49.5337 40.7289C48.7777 40.7289 48.1057 40.5702 47.5177 40.2529C46.939 39.9262 46.4817 39.4829 46.1457 38.9229C45.819 38.3629 45.6557 37.7189 45.6557 36.9909C45.6557 36.4122 45.749 35.8849 45.9357 35.4089C46.1224 34.9329 46.379 34.5222 46.7057 34.1769C47.0417 33.8222 47.4384 33.5515 47.8957 33.3649C48.3624 33.1689 48.8664 33.0709 49.4077 33.0709C49.8837 33.0709 50.327 33.1642 50.7377 33.3509C51.1484 33.5282 51.503 33.7755 51.8017 34.0929C52.1097 34.4102 52.343 34.7882 52.5017 35.2269C52.6697 35.6562 52.749 36.1275 52.7397 36.6409L52.7257 37.2569H46.7197L46.3977 36.1089H51.4797L51.2697 36.3469V36.0109C51.2417 35.7029 51.139 35.4275 50.9617 35.1849C50.7844 34.9422 50.5604 34.7509 50.2897 34.6109C50.019 34.4709 49.725 34.4009 49.4077 34.4009C48.9037 34.4009 48.479 34.4989 48.1337 34.6949C47.7884 34.8815 47.527 35.1615 47.3497 35.5349C47.1724 35.8989 47.0837 36.3515 47.0837 36.8929C47.0837 37.4062 47.191 37.8542 47.4057 38.2369C47.6204 38.6102 47.9237 38.8995 48.3157 39.1049C48.7077 39.3102 49.1604 39.4129 49.6737 39.4129C50.0377 39.4129 50.3737 39.3522 50.6817 39.2309C50.999 39.1095 51.3397 38.8902 51.7037 38.5729L52.4317 39.5949C52.2077 39.8189 51.9324 40.0149 51.6057 40.1829C51.2884 40.3509 50.9477 40.4862 50.5837 40.5889C50.229 40.6822 49.879 40.7289 49.5337 40.7289ZM54.5568 40.5889V33.2389H56.0128V35.5489L55.8728 34.9889C55.9755 34.6342 56.1482 34.3122 56.3908 34.0229C56.6428 33.7335 56.9275 33.5049 57.2448 33.3369C57.5715 33.1689 57.9075 33.0849 58.2528 33.0849C58.4115 33.0849 58.5608 33.0989 58.7008 33.1269C58.8502 33.1549 58.9668 33.1875 59.0508 33.2249L58.6728 34.7929C58.5608 34.7462 58.4348 34.7089 58.2948 34.6809C58.1642 34.6435 58.0335 34.6249 57.9028 34.6249C57.6508 34.6249 57.4082 34.6762 57.1748 34.7789C56.9508 34.8722 56.7502 35.0075 56.5728 35.1849C56.4048 35.3529 56.2695 35.5535 56.1668 35.7869C56.0642 36.0109 56.0128 36.2582 56.0128 36.5289V40.5889H54.5568ZM62.9033 40.7289C62.2873 40.7289 61.732 40.6215 61.2373 40.4069C60.7426 40.1922 60.332 39.8749 60.0053 39.4549L60.9853 38.6149C61.2653 38.9415 61.5686 39.1795 61.8953 39.3289C62.2313 39.4689 62.6093 39.5389 63.0293 39.5389C63.1973 39.5389 63.3513 39.5202 63.4913 39.4829C63.6406 39.4362 63.7666 39.3709 63.8693 39.2869C63.9813 39.2029 64.0653 39.1049 64.1213 38.9929C64.1773 38.8715 64.2053 38.7409 64.2053 38.6009C64.2053 38.3582 64.1166 38.1622 63.9393 38.0129C63.846 37.9475 63.6966 37.8775 63.4913 37.8029C63.2953 37.7189 63.0386 37.6349 62.7213 37.5509C62.18 37.4109 61.7366 37.2522 61.3913 37.0749C61.046 36.8975 60.78 36.6969 60.5933 36.4729C60.4533 36.2955 60.3506 36.1042 60.2853 35.8989C60.22 35.6842 60.1873 35.4509 60.1873 35.1989C60.1873 34.7882 60.304 34.4242 60.5373 34.1069C60.7706 33.7895 61.0833 33.5422 61.4753 33.3649C61.8766 33.1782 62.3246 33.0849 62.8193 33.0849C63.1646 33.0849 63.5053 33.1315 63.8413 33.2249C64.1866 33.3182 64.504 33.4535 64.7933 33.6309C65.0826 33.8082 65.3253 34.0182 65.5213 34.2609L64.6953 35.1709C64.518 34.9935 64.322 34.8395 64.1073 34.7089C63.902 34.5689 63.692 34.4615 63.4773 34.3869C63.2626 34.3122 63.0666 34.2749 62.8893 34.2749C62.6933 34.2749 62.516 34.2935 62.3573 34.3309C62.1986 34.3682 62.0633 34.4242 61.9513 34.4989C61.8486 34.5735 61.7693 34.6669 61.7133 34.7789C61.6573 34.8909 61.6293 35.0169 61.6293 35.1569C61.6386 35.2782 61.6666 35.3949 61.7133 35.5069C61.7693 35.6095 61.844 35.6982 61.9373 35.7729C62.04 35.8475 62.194 35.9269 62.3993 36.0109C62.6046 36.0949 62.866 36.1742 63.1833 36.2489C63.65 36.3702 64.0326 36.5055 64.3313 36.6549C64.6393 36.7949 64.882 36.9582 65.0593 37.1449C65.246 37.3222 65.3766 37.5275 65.4513 37.7609C65.526 37.9942 65.5633 38.2555 65.5633 38.5449C65.5633 38.9649 65.442 39.3429 65.1993 39.6789C64.966 40.0055 64.6486 40.2622 64.2473 40.4489C63.846 40.6355 63.398 40.7289 62.9033 40.7289ZM71.9404 40.5889V30.7889H75.7764C76.4764 30.7889 77.1064 30.9055 77.6664 31.1389C78.2357 31.3722 78.721 31.7082 79.1224 32.1469C79.5237 32.5855 79.8317 33.1035 80.0464 33.7009C80.261 34.2982 80.3684 34.9609 80.3684 35.6889C80.3684 36.4169 80.261 37.0842 80.0464 37.6909C79.8317 38.2882 79.5237 38.8062 79.1224 39.2449C78.7304 39.6742 78.2497 40.0055 77.6804 40.2389C77.111 40.4722 76.4764 40.5889 75.7764 40.5889H71.9404ZM73.4524 39.2869L73.4104 39.1329H75.7064C76.201 39.1329 76.6397 39.0535 77.0224 38.8949C77.4144 38.7362 77.741 38.5122 78.0024 38.2229C78.273 37.9242 78.4784 37.5602 78.6184 37.1309C78.7584 36.7015 78.8284 36.2209 78.8284 35.6889C78.8284 35.1569 78.7584 34.6809 78.6184 34.2609C78.4784 33.8315 78.273 33.4675 78.0024 33.1689C77.7317 32.8702 77.405 32.6415 77.0224 32.4829C76.6397 32.3242 76.201 32.2449 75.7064 32.2449H73.3684L73.4524 32.1189V39.2869ZM82.299 40.5889V33.2389H83.755V35.5489L83.615 34.9889C83.7177 34.6342 83.8903 34.3122 84.133 34.0229C84.385 33.7335 84.6697 33.5049 84.987 33.3369C85.3137 33.1689 85.6497 33.0849 85.995 33.0849C86.1537 33.0849 86.303 33.0989 86.443 33.1269C86.5923 33.1549 86.709 33.1875 86.793 33.2249L86.415 34.7929C86.303 34.7462 86.177 34.7089 86.037 34.6809C85.9063 34.6435 85.7757 34.6249 85.645 34.6249C85.393 34.6249 85.1503 34.6762 84.917 34.7789C84.693 34.8722 84.4923 35.0075 84.315 35.1849C84.147 35.3529 84.0117 35.5535 83.909 35.7869C83.8063 36.0109 83.755 36.2582 83.755 36.5289V40.5889H82.299ZM91.185 40.7289C90.4664 40.7289 89.8224 40.5655 89.253 40.2389C88.693 39.9029 88.2497 39.4502 87.923 38.8809C87.5964 38.3022 87.433 37.6442 87.433 36.9069C87.433 36.1695 87.5964 35.5162 87.923 34.9469C88.2497 34.3682 88.693 33.9155 89.253 33.5889C89.8224 33.2529 90.4664 33.0849 91.185 33.0849C91.8944 33.0849 92.529 33.2529 93.089 33.5889C93.6584 33.9155 94.1064 34.3682 94.433 34.9469C94.7597 35.5162 94.923 36.1695 94.923 36.9069C94.923 37.6442 94.7597 38.3022 94.433 38.8809C94.1064 39.4502 93.6584 39.9029 93.089 40.2389C92.529 40.5655 91.8944 40.7289 91.185 40.7289ZM91.185 39.4129C91.6237 39.4129 92.0157 39.3055 92.361 39.0909C92.7064 38.8669 92.977 38.5682 93.173 38.1949C93.369 37.8122 93.4624 37.3829 93.453 36.9069C93.4624 36.4215 93.369 35.9922 93.173 35.6189C92.977 35.2362 92.7064 34.9375 92.361 34.7229C92.0157 34.5082 91.6237 34.4009 91.185 34.4009C90.7464 34.4009 90.3497 34.5129 89.995 34.7369C89.6497 34.9515 89.379 35.2502 89.183 35.6329C88.987 36.0062 88.8937 36.4309 88.903 36.9069C88.8937 37.3829 88.987 37.8122 89.183 38.1949C89.379 38.5682 89.6497 38.8669 89.995 39.0909C90.3497 39.3055 90.7464 39.4129 91.185 39.4129ZM96.7443 43.6689V33.2389H98.2003V34.9189L97.9763 34.7929C98.0323 34.5129 98.191 34.2469 98.4523 33.9949C98.7137 33.7335 99.031 33.5235 99.4043 33.3649C99.787 33.1969 100.179 33.1129 100.58 33.1129C101.243 33.1129 101.831 33.2762 102.344 33.6029C102.858 33.9295 103.264 34.3775 103.562 34.9469C103.861 35.5162 104.01 36.1695 104.01 36.9069C104.01 37.6349 103.861 38.2882 103.562 38.8669C103.273 39.4362 102.872 39.8889 102.358 40.2249C101.845 40.5515 101.266 40.7149 100.622 40.7149C100.193 40.7149 99.7777 40.6309 99.3763 40.4629C98.975 40.2855 98.6343 40.0615 98.3543 39.7909C98.0743 39.5202 97.9017 39.2402 97.8363 38.9509L98.2003 38.7549V43.6689H96.7443ZM100.384 39.3849C100.814 39.3849 101.196 39.2775 101.532 39.0629C101.868 38.8482 102.134 38.5542 102.33 38.1809C102.526 37.8075 102.624 37.3829 102.624 36.9069C102.624 36.4309 102.526 36.0109 102.33 35.6469C102.144 35.2735 101.882 34.9795 101.546 34.7649C101.21 34.5502 100.823 34.4429 100.384 34.4429C99.9457 34.4429 99.5583 34.5502 99.2223 34.7649C98.8863 34.9702 98.6203 35.2595 98.4243 35.6329C98.2283 36.0062 98.1303 36.4309 98.1303 36.9069C98.1303 37.3829 98.2283 37.8075 98.4243 38.1809C98.6203 38.5542 98.8863 38.8482 99.2223 39.0629C99.5583 39.2775 99.9457 39.3849 100.384 39.3849ZM108.892 40.7289C108.22 40.7289 107.618 40.5655 107.086 40.2389C106.564 39.9029 106.148 39.4502 105.84 38.8809C105.532 38.3022 105.378 37.6442 105.378 36.9069C105.378 36.1695 105.528 35.5162 105.826 34.9469C106.134 34.3682 106.55 33.9155 107.072 33.5889C107.595 33.2529 108.188 33.0849 108.85 33.0849C109.214 33.0849 109.564 33.1455 109.9 33.2669C110.246 33.3789 110.554 33.5375 110.824 33.7429C111.095 33.9389 111.305 34.1582 111.454 34.4009C111.613 34.6342 111.692 34.8722 111.692 35.1149L111.272 35.1429V30.2289H112.714V40.5889H111.272V38.8389H111.552C111.552 39.0629 111.478 39.2869 111.328 39.5109C111.179 39.7255 110.978 39.9262 110.726 40.1129C110.484 40.2995 110.199 40.4489 109.872 40.5609C109.555 40.6729 109.228 40.7289 108.892 40.7289ZM109.088 39.4829C109.527 39.4829 109.914 39.3709 110.25 39.1469C110.586 38.9229 110.848 38.6195 111.034 38.2369C111.23 37.8449 111.328 37.4015 111.328 36.9069C111.328 36.4122 111.23 35.9735 111.034 35.5909C110.848 35.1989 110.586 34.8909 110.25 34.6669C109.914 34.4429 109.527 34.3309 109.088 34.3309C108.65 34.3309 108.262 34.4429 107.926 34.6669C107.59 34.8909 107.324 35.1989 107.128 35.5909C106.942 35.9735 106.848 36.4122 106.848 36.9069C106.848 37.4015 106.942 37.8449 107.128 38.2369C107.324 38.6195 107.59 38.9229 107.926 39.1469C108.262 39.3709 108.65 39.4829 109.088 39.4829ZM118.253 40.7289C117.535 40.7289 116.891 40.5655 116.321 40.2389C115.761 39.9029 115.318 39.4502 114.991 38.8809C114.665 38.3022 114.501 37.6442 114.501 36.9069C114.501 36.1695 114.665 35.5162 114.991 34.9469C115.318 34.3682 115.761 33.9155 116.321 33.5889C116.891 33.2529 117.535 33.0849 118.253 33.0849C118.963 33.0849 119.597 33.2529 120.157 33.5889C120.727 33.9155 121.175 34.3682 121.501 34.9469C121.828 35.5162 121.991 36.1695 121.991 36.9069C121.991 37.6442 121.828 38.3022 121.501 38.8809C121.175 39.4502 120.727 39.9029 120.157 40.2389C119.597 40.5655 118.963 40.7289 118.253 40.7289ZM118.253 39.4129C118.692 39.4129 119.084 39.3055 119.429 39.0909C119.775 38.8669 120.045 38.5682 120.241 38.1949C120.437 37.8122 120.531 37.3829 120.521 36.9069C120.531 36.4215 120.437 35.9922 120.241 35.6189C120.045 35.2362 119.775 34.9375 119.429 34.7229C119.084 34.5082 118.692 34.4009 118.253 34.4009C117.815 34.4009 117.418 34.5129 117.063 34.7369C116.718 34.9515 116.447 35.2502 116.251 35.6329C116.055 36.0062 115.962 36.4309 115.971 36.9069C115.962 37.3829 116.055 37.8122 116.251 38.1949C116.447 38.5682 116.718 38.8669 117.063 39.0909C117.418 39.3055 117.815 39.4129 118.253 39.4129ZM125.345 40.5889L122.839 33.2389L124.295 33.2249L126.087 38.7269L125.765 38.6989L127.711 34.4009H128.579L130.539 38.7129L130.161 38.7409L131.967 33.2389H133.423L130.945 40.5889H129.951L127.907 35.9129L128.229 35.9549L126.325 40.5889H125.345ZM134.987 40.5889V33.2389H136.429V34.7509L136.177 34.9189C136.27 34.5922 136.452 34.2935 136.723 34.0229C136.993 33.7429 137.315 33.5189 137.689 33.3509C138.062 33.1735 138.445 33.0849 138.837 33.0849C139.397 33.0849 139.863 33.1969 140.237 33.4209C140.61 33.6355 140.89 33.9669 141.077 34.4149C141.263 34.8629 141.357 35.4275 141.357 36.1089V40.5889H139.915V36.2069C139.915 35.7869 139.859 35.4415 139.747 35.1709C139.635 34.8909 139.462 34.6902 139.229 34.5689C138.995 34.4382 138.706 34.3822 138.361 34.4009C138.081 34.4009 137.824 34.4475 137.591 34.5409C137.357 34.6249 137.152 34.7462 136.975 34.9049C136.807 35.0635 136.671 35.2502 136.569 35.4649C136.475 35.6702 136.429 35.8942 136.429 36.1369V40.5889H135.715C135.593 40.5889 135.472 40.5889 135.351 40.5889C135.229 40.5889 135.108 40.5889 134.987 40.5889Z" fill="#475569"></path> <g clip-path="url(#clip1_52_203056)"> <path d="M255.71 35.8791L258.3 33.2891C258.69 32.8991 259.32 32.8991 259.71 33.2891L262.3 35.8791C262.93 36.5091 262.48 37.5891 261.59 37.5891H256.41C255.52 37.5891 255.08 36.5091 255.71 35.8791Z" fill="#2563EB"></path> </g> </g> <rect x="7.00025" y="7.58814" width="288" height="0.0005" rx="0.00025" fill="white"></rect> <rect x="7.00025" y="7.58814" width="288" height="0.0005" rx="0.00025" stroke="#2563EB" stroke-width="0.0005"></rect> <rect x="7.75" y="8.33887" width="286.5" height="54.5" rx="7.25" stroke="#2563EB" stroke-width="1.5"></rect> <g filter="url(#filter0_dd_52_203056)"> <rect x="7" y="63.5889" width="288" height="254" rx="4" fill="#F8FAFC"></rect> <g clip-path="url(#clip2_52_203056)"> <g clip-path="url(#clip3_52_203056)"> <path d="M20.316 99.5889V89.7889H22.122V99.5889H20.316ZM21.142 95.5569V93.9189H26.21V95.5569H21.142ZM21.142 91.4689V89.7889H26.812V91.4689H21.142ZM28.4889 99.5889V92.2109H30.1689L30.1969 94.5629L29.9729 94.0309C30.0755 93.6575 30.2529 93.3215 30.5049 93.0229C30.7569 92.7242 31.0462 92.4909 31.3729 92.3229C31.7089 92.1455 32.0542 92.0569 32.4089 92.0569C32.5675 92.0569 32.7169 92.0709 32.8569 92.0989C33.0062 92.1269 33.1275 92.1595 33.2209 92.1969L32.7729 94.0729C32.6609 94.0169 32.5302 93.9749 32.3809 93.9469C32.2409 93.9095 32.0962 93.8909 31.9469 93.8909C31.7042 93.8909 31.4755 93.9375 31.2609 94.0309C31.0555 94.1149 30.8735 94.2362 30.7149 94.3949C30.5655 94.5535 30.4442 94.7402 30.3509 94.9549C30.2575 95.1602 30.2109 95.3889 30.2109 95.6409V99.5889H28.4889ZM37.625 99.7289C36.8503 99.7289 36.1643 99.5702 35.567 99.2529C34.979 98.9262 34.517 98.4829 34.181 97.9229C33.8543 97.3535 33.691 96.7002 33.691 95.9629C33.691 95.3842 33.7843 94.8569 33.971 94.3809C34.1577 93.9049 34.419 93.4942 34.755 93.1489C35.091 92.7942 35.4877 92.5235 35.945 92.3369C36.4117 92.1409 36.9157 92.0429 37.457 92.0429C37.9517 92.0429 38.4043 92.1362 38.815 92.3229C39.235 92.5095 39.599 92.7662 39.907 93.0929C40.215 93.4102 40.4483 93.7929 40.607 94.2409C40.775 94.6795 40.8543 95.1602 40.845 95.6829L40.831 96.2989H34.867L34.531 95.1089H39.389L39.179 95.3469V95.0249C39.151 94.7449 39.0577 94.4975 38.899 94.2829C38.7403 94.0589 38.535 93.8862 38.283 93.7649C38.0403 93.6342 37.7697 93.5689 37.471 93.5689C37.0137 93.5689 36.6263 93.6575 36.309 93.8349C35.9917 94.0029 35.749 94.2549 35.581 94.5909C35.4223 94.9269 35.343 95.3422 35.343 95.8369C35.343 96.3129 35.441 96.7282 35.637 97.0829C35.8423 97.4375 36.1317 97.7129 36.505 97.9089C36.8783 98.1049 37.3123 98.2029 37.807 98.2029C38.1523 98.2029 38.4697 98.1469 38.759 98.0349C39.0577 97.9229 39.375 97.7222 39.711 97.4329L40.551 98.6089C40.299 98.8422 40.0097 99.0429 39.683 99.2109C39.3657 99.3695 39.0297 99.4955 38.675 99.5889C38.3203 99.6822 37.9703 99.7289 37.625 99.7289ZM45.9281 99.7289C45.1534 99.7289 44.4674 99.5702 43.8701 99.2529C43.2821 98.9262 42.8201 98.4829 42.4841 97.9229C42.1574 97.3535 41.9941 96.7002 41.9941 95.9629C41.9941 95.3842 42.0874 94.8569 42.2741 94.3809C42.4608 93.9049 42.7221 93.4942 43.0581 93.1489C43.3941 92.7942 43.7908 92.5235 44.2481 92.3369C44.7148 92.1409 45.2188 92.0429 45.7601 92.0429C46.2548 92.0429 46.7074 92.1362 47.1181 92.3229C47.5381 92.5095 47.9021 92.7662 48.2101 93.0929C48.5181 93.4102 48.7514 93.7929 48.9101 94.2409C49.0781 94.6795 49.1574 95.1602 49.1481 95.6829L49.1341 96.2989H43.1701L42.8341 95.1089H47.6921L47.4821 95.3469V95.0249C47.4541 94.7449 47.3608 94.4975 47.2021 94.2829C47.0434 94.0589 46.8381 93.8862 46.5861 93.7649C46.3434 93.6342 46.0728 93.5689 45.7741 93.5689C45.3168 93.5689 44.9294 93.6575 44.6121 93.8349C44.2948 94.0029 44.0521 94.2549 43.8841 94.5909C43.7254 94.9269 43.6461 95.3422 43.6461 95.8369C43.6461 96.3129 43.7441 96.7282 43.9401 97.0829C44.1454 97.4375 44.4348 97.7129 44.8081 97.9089C45.1814 98.1049 45.6154 98.2029 46.1101 98.2029C46.4554 98.2029 46.7728 98.1469 47.0621 98.0349C47.3608 97.9229 47.6781 97.7222 48.0141 97.4329L48.8541 98.6089C48.6021 98.8422 48.3128 99.0429 47.9861 99.2109C47.6688 99.3695 47.3328 99.4955 46.9781 99.5889C46.6234 99.6822 46.2734 99.7289 45.9281 99.7289ZM59.1888 99.5889V94.8709C59.1888 94.4695 59.0535 94.1569 58.7828 93.9329C58.5215 93.6995 58.1808 93.5829 57.7608 93.5829C57.3688 93.5829 57.0141 93.6622 56.6968 93.8209C56.3795 93.9702 56.0855 94.2129 55.8148 94.5489L54.7508 93.4849C55.1895 93.0182 55.6748 92.6635 56.2068 92.4209C56.7388 92.1782 57.3128 92.0569 57.9288 92.0569C58.5168 92.0569 59.0208 92.1502 59.4408 92.3369C59.8701 92.5235 60.2015 92.8035 60.4348 93.1769C60.6681 93.5409 60.7848 93.9889 60.7848 94.5209V99.5889H59.1888ZM57.0888 99.7289C56.6128 99.7289 56.1881 99.6355 55.8148 99.4489C55.4415 99.2622 55.1428 99.0055 54.9188 98.6789C54.7041 98.3429 54.5968 97.9509 54.5968 97.5029C54.5968 97.1109 54.6668 96.7702 54.8068 96.4809C54.9468 96.1822 55.1521 95.9349 55.4228 95.7389C55.7028 95.5429 56.0481 95.3982 56.4588 95.3049C56.8788 95.2022 57.3595 95.1509 57.9008 95.1509H60.0148L59.8888 96.3829H57.8028C57.5508 96.3829 57.3268 96.4062 57.1308 96.4529C56.9348 96.4995 56.7668 96.5695 56.6268 96.6629C56.4868 96.7562 56.3841 96.8682 56.3188 96.9989C56.2535 97.1202 56.2208 97.2695 56.2208 97.4469C56.2208 97.6335 56.2675 97.7969 56.3608 97.9369C56.4541 98.0675 56.5801 98.1702 56.7388 98.2449C56.8975 98.3195 57.0841 98.3569 57.2988 98.3569C57.6068 98.3569 57.8961 98.3055 58.1668 98.2029C58.4468 98.1002 58.6941 97.9555 58.9088 97.7689C59.1235 97.5822 59.2915 97.3722 59.4128 97.1389L59.7628 98.0909C59.5668 98.4175 59.3241 98.7022 59.0348 98.9449C58.7548 99.1875 58.4468 99.3789 58.1108 99.5189C57.7841 99.6589 57.4435 99.7289 57.0888 99.7289ZM62.8997 99.5889V92.2109H64.6077V99.5889H62.8997ZM63.7397 90.6429C63.3944 90.6429 63.1237 90.5589 62.9277 90.3909C62.741 90.2135 62.6477 89.9662 62.6477 89.6489C62.6477 89.3502 62.7457 89.1122 62.9417 88.9349C63.1377 88.7482 63.4037 88.6549 63.7397 88.6549C64.085 88.6549 64.351 88.7435 64.5377 88.9209C64.7337 89.0889 64.8317 89.3315 64.8317 89.6489C64.8317 89.9382 64.7337 90.1762 64.5377 90.3629C64.3417 90.5495 64.0757 90.6429 63.7397 90.6429ZM66.8916 99.5889V92.2109H68.5716L68.5996 94.5629L68.3756 94.0309C68.4783 93.6575 68.6556 93.3215 68.9076 93.0229C69.1596 92.7242 69.4489 92.4909 69.7756 92.3229C70.1116 92.1455 70.4569 92.0569 70.8116 92.0569C70.9703 92.0569 71.1196 92.0709 71.2596 92.0989C71.4089 92.1269 71.5303 92.1595 71.6236 92.1969L71.1756 94.0729C71.0636 94.0169 70.9329 93.9749 70.7836 93.9469C70.6436 93.9095 70.4989 93.8909 70.3496 93.8909C70.1069 93.8909 69.8783 93.9375 69.6636 94.0309C69.4583 94.1149 69.2763 94.2362 69.1176 94.3949C68.9683 94.5535 68.8469 94.7402 68.7536 94.9549C68.6603 95.1602 68.6136 95.3889 68.6136 95.6409V99.5889H66.8916ZM72.8842 102.669V92.2109H74.5642L74.5922 93.8769L74.2982 93.7509C74.3542 93.4615 74.5128 93.1909 74.7742 92.9389C75.0355 92.6869 75.3528 92.4815 75.7262 92.3229C76.1088 92.1642 76.5055 92.0849 76.9162 92.0849C77.5695 92.0849 78.1482 92.2482 78.6522 92.5749C79.1655 92.9015 79.5668 93.3542 79.8562 93.9329C80.1548 94.5022 80.3042 95.1555 80.3042 95.8929C80.3042 96.6302 80.1595 97.2882 79.8702 97.8669C79.5808 98.4362 79.1795 98.8889 78.6662 99.2249C78.1622 99.5515 77.5882 99.7149 76.9442 99.7149C76.5148 99.7149 76.0995 99.6309 75.6982 99.4629C75.3062 99.2949 74.9748 99.0755 74.7042 98.8049C74.4335 98.5342 74.2608 98.2542 74.1862 97.9649L74.6062 97.7549V102.669H72.8842ZM76.6082 98.1889C77.0002 98.1889 77.3502 98.0909 77.6582 97.8949C77.9662 97.6989 78.2088 97.4282 78.3862 97.0829C78.5635 96.7375 78.6522 96.3409 78.6522 95.8929C78.6522 95.4449 78.5635 95.0529 78.3862 94.7169C78.2182 94.3715 77.9802 94.1009 77.6722 93.9049C77.3642 93.6995 77.0095 93.5969 76.6082 93.5969C76.1975 93.5969 75.8382 93.6949 75.5302 93.8909C75.2222 94.0869 74.9795 94.3575 74.8022 94.7029C74.6248 95.0482 74.5362 95.4449 74.5362 95.8929C74.5362 96.3409 74.6248 96.7375 74.8022 97.0829C74.9795 97.4282 75.2222 97.6989 75.5302 97.8949C75.8382 98.0909 76.1975 98.1889 76.6082 98.1889ZM85.2993 99.7289C84.5619 99.7289 83.9039 99.5655 83.3253 99.2389C82.7466 98.9029 82.2893 98.4455 81.9533 97.8669C81.6266 97.2882 81.4633 96.6302 81.4633 95.8929C81.4633 95.1555 81.6266 94.4975 81.9533 93.9189C82.2893 93.3402 82.7466 92.8875 83.3253 92.5609C83.9039 92.2249 84.5619 92.0569 85.2993 92.0569C86.0273 92.0569 86.6806 92.2249 87.2593 92.5609C87.8379 92.8875 88.2906 93.3402 88.6173 93.9189C88.9533 94.4975 89.1213 95.1555 89.1213 95.8929C89.1213 96.6302 88.9533 97.2882 88.6173 97.8669C88.2906 98.4455 87.8379 98.9029 87.2593 99.2389C86.6806 99.5655 86.0273 99.7289 85.2993 99.7289ZM85.2993 98.2029C85.7006 98.2029 86.0599 98.1049 86.3773 97.9089C86.6946 97.7035 86.9419 97.4282 87.1193 97.0829C87.3059 96.7282 87.3946 96.3315 87.3853 95.8929C87.3946 95.4449 87.3059 95.0482 87.1193 94.7029C86.9419 94.3482 86.6946 94.0729 86.3773 93.8769C86.0599 93.6809 85.7006 93.5829 85.2993 93.5829C84.8979 93.5829 84.5339 93.6855 84.2073 93.8909C83.8899 94.0869 83.6426 94.3622 83.4653 94.7169C83.2879 95.0622 83.1993 95.4542 83.1993 95.8929C83.1993 96.3315 83.2879 96.7282 83.4653 97.0829C83.6426 97.4282 83.8899 97.7035 84.2073 97.9089C84.5339 98.1049 84.8979 98.2029 85.2993 98.2029ZM90.7619 99.5889V92.2109H92.4419L92.4699 94.5629L92.2459 94.0309C92.3486 93.6575 92.5259 93.3215 92.7779 93.0229C93.0299 92.7242 93.3192 92.4909 93.6459 92.3229C93.9819 92.1455 94.3272 92.0569 94.6819 92.0569C94.8406 92.0569 94.9899 92.0709 95.1299 92.0989C95.2792 92.1269 95.4006 92.1595 95.4939 92.1969L95.0459 94.0729C94.9339 94.0169 94.8032 93.9749 94.6539 93.9469C94.5139 93.9095 94.3692 93.8909 94.2199 93.8909C93.9772 93.8909 93.7486 93.9375 93.5339 94.0309C93.3286 94.1149 93.1466 94.2362 92.9879 94.3949C92.8386 94.5535 92.7172 94.7402 92.6239 94.9549C92.5306 95.1602 92.4839 95.3889 92.4839 95.6409V99.5889H90.7619ZM97.8399 99.5889V90.3349H99.5479V99.5889H97.8399ZM96.3839 93.8069V92.2109H101.158V93.8069H96.3839ZM109.235 99.7289C108.591 99.7289 108.008 99.6215 107.485 99.4069C106.972 99.1829 106.552 98.8655 106.225 98.4549L107.331 97.5029C107.611 97.8109 107.924 98.0395 108.269 98.1889C108.614 98.3289 108.978 98.3989 109.361 98.3989C109.52 98.3989 109.66 98.3802 109.781 98.3429C109.912 98.3055 110.024 98.2495 110.117 98.1749C110.21 98.1002 110.28 98.0115 110.327 97.9089C110.383 97.8062 110.411 97.6942 110.411 97.5729C110.411 97.3489 110.327 97.1715 110.159 97.0409C110.066 96.9849 109.921 96.9195 109.725 96.8449C109.529 96.7609 109.272 96.6815 108.955 96.6069C108.451 96.4762 108.026 96.3269 107.681 96.1589C107.345 95.9815 107.084 95.7855 106.897 95.5709C106.738 95.3842 106.622 95.1835 106.547 94.9689C106.472 94.7449 106.435 94.4975 106.435 94.2269C106.435 93.8069 106.556 93.4335 106.799 93.1069C107.051 92.7802 107.382 92.5235 107.793 92.3369C108.204 92.1502 108.661 92.0569 109.165 92.0569C109.538 92.0569 109.898 92.1035 110.243 92.1969C110.598 92.2902 110.924 92.4255 111.223 92.6029C111.522 92.7709 111.778 92.9762 111.993 93.2189L111.041 94.2689C110.873 94.1009 110.682 93.9515 110.467 93.8209C110.262 93.6809 110.052 93.5735 109.837 93.4989C109.622 93.4242 109.422 93.3869 109.235 93.3869C109.058 93.3869 108.899 93.4055 108.759 93.4429C108.619 93.4709 108.502 93.5175 108.409 93.5829C108.316 93.6482 108.241 93.7322 108.185 93.8349C108.138 93.9282 108.115 94.0355 108.115 94.1569C108.124 94.2782 108.152 94.3902 108.199 94.4929C108.255 94.5862 108.33 94.6655 108.423 94.7309C108.516 94.7962 108.666 94.8709 108.871 94.9549C109.076 95.0389 109.342 95.1182 109.669 95.1929C110.126 95.3142 110.509 95.4495 110.817 95.5989C111.125 95.7482 111.368 95.9209 111.545 96.1169C111.722 96.2849 111.848 96.4809 111.923 96.7049C111.998 96.9289 112.035 97.1809 112.035 97.4609C112.035 97.8995 111.909 98.2915 111.657 98.6369C111.414 98.9729 111.083 99.2389 110.663 99.4349C110.243 99.6309 109.767 99.7289 109.235 99.7289ZM113.652 99.5889V89.2289H115.346V93.7229L115.024 93.8909C115.127 93.5642 115.309 93.2655 115.57 92.9949C115.841 92.7149 116.163 92.4909 116.536 92.3229C116.909 92.1455 117.297 92.0569 117.698 92.0569C118.258 92.0569 118.725 92.1689 119.098 92.3929C119.481 92.6169 119.765 92.9529 119.952 93.4009C120.139 93.8489 120.232 94.4089 120.232 95.0809V99.5889H118.524V95.2069C118.524 94.8242 118.473 94.5115 118.37 94.2689C118.267 94.0169 118.109 93.8349 117.894 93.7229C117.679 93.6015 117.418 93.5502 117.11 93.5689C116.858 93.5689 116.625 93.6109 116.41 93.6949C116.195 93.7695 116.009 93.8815 115.85 94.0309C115.701 94.1709 115.579 94.3389 115.486 94.5349C115.402 94.7215 115.36 94.9269 115.36 95.1509V99.5889H114.506C114.347 99.5889 114.193 99.5889 114.044 99.5889C113.904 99.5889 113.773 99.5889 113.652 99.5889ZM124.845 99.7289C124.313 99.7289 123.851 99.6075 123.459 99.3649C123.077 99.1222 122.778 98.7815 122.563 98.3429C122.358 97.9042 122.255 97.3769 122.255 96.7609V92.2109H123.963V96.3969C123.963 96.9755 124.099 97.4329 124.369 97.7689C124.649 98.1049 125.037 98.2729 125.531 98.2729C125.774 98.2729 125.993 98.2355 126.189 98.1609C126.395 98.0769 126.572 97.9649 126.721 97.8249C126.871 97.6755 126.987 97.4982 127.071 97.2929C127.155 97.0875 127.197 96.8682 127.197 96.6349V92.2109H128.905V99.5889H127.239L127.211 98.0489L127.519 97.8809C127.407 98.2262 127.216 98.5389 126.945 98.8189C126.684 99.0989 126.371 99.3229 126.007 99.4909C125.643 99.6495 125.256 99.7289 124.845 99.7289ZM131.85 99.5889V90.3349H133.558V99.5889H131.85ZM130.394 93.8069V92.2109H135.168V93.8069H130.394ZM137.391 99.5889V90.3349H139.099V99.5889H137.391ZM135.935 93.8069V92.2109H140.709V93.8069H135.935ZM142.135 99.5889V89.2289H143.843V99.5889H142.135ZM149.302 99.7289C148.527 99.7289 147.841 99.5702 147.244 99.2529C146.656 98.9262 146.194 98.4829 145.858 97.9229C145.531 97.3535 145.368 96.7002 145.368 95.9629C145.368 95.3842 145.461 94.8569 145.648 94.3809C145.834 93.9049 146.096 93.4942 146.432 93.1489C146.768 92.7942 147.164 92.5235 147.622 92.3369C148.088 92.1409 148.592 92.0429 149.134 92.0429C149.628 92.0429 150.081 92.1362 150.492 92.3229C150.912 92.5095 151.276 92.7662 151.584 93.0929C151.892 93.4102 152.125 93.7929 152.284 94.2409C152.452 94.6795 152.531 95.1602 152.522 95.6829L152.508 96.2989H146.544L146.208 95.1089H151.066L150.856 95.3469V95.0249C150.828 94.7449 150.734 94.4975 150.576 94.2829C150.417 94.0589 150.212 93.8862 149.96 93.7649C149.717 93.6342 149.446 93.5689 149.148 93.5689C148.69 93.5689 148.303 93.6575 147.986 93.8349C147.668 94.0029 147.426 94.2549 147.258 94.5909C147.099 94.9269 147.02 95.3422 147.02 95.8369C147.02 96.3129 147.118 96.7282 147.314 97.0829C147.519 97.4375 147.808 97.7129 148.182 97.9089C148.555 98.1049 148.989 98.2029 149.484 98.2029C149.829 98.2029 150.146 98.1469 150.436 98.0349C150.734 97.9229 151.052 97.7222 151.388 97.4329L152.228 98.6089C151.976 98.8422 151.686 99.0429 151.36 99.2109C151.042 99.3695 150.706 99.4955 150.352 99.5889C149.997 99.6822 149.647 99.7289 149.302 99.7289Z" fill="#334155"></path> </g> <g clip-path="url(#clip4_52_203056)"> <rect width="288" height="48" transform="translate(7 118.589)" fill="#DBEAFE"></rect> <g clip-path="url(#clip5_52_203056)"> <path d="M20.316 147.589V137.789H22.122V147.589H20.316ZM21.142 143.557V141.919H26.21V143.557H21.142ZM21.142 139.469V137.789H26.812V139.469H21.142ZM28.4889 147.589V140.211H30.1689L30.1969 142.563L29.9729 142.031C30.0755 141.658 30.2529 141.322 30.5049 141.023C30.7569 140.724 31.0462 140.491 31.3729 140.323C31.7089 140.146 32.0542 140.057 32.4089 140.057C32.5675 140.057 32.7169 140.071 32.8569 140.099C33.0062 140.127 33.1275 140.16 33.2209 140.197L32.7729 142.073C32.6609 142.017 32.5302 141.975 32.3809 141.947C32.2409 141.91 32.0962 141.891 31.9469 141.891C31.7042 141.891 31.4755 141.938 31.2609 142.031C31.0555 142.115 30.8735 142.236 30.7149 142.395C30.5655 142.554 30.4442 142.74 30.3509 142.955C30.2575 143.16 30.2109 143.389 30.2109 143.641V147.589H28.4889ZM37.625 147.729C36.8503 147.729 36.1643 147.57 35.567 147.253C34.979 146.926 34.517 146.483 34.181 145.923C33.8543 145.354 33.691 144.7 33.691 143.963C33.691 143.384 33.7843 142.857 33.971 142.381C34.1577 141.905 34.419 141.494 34.755 141.149C35.091 140.794 35.4877 140.524 35.945 140.337C36.4117 140.141 36.9157 140.043 37.457 140.043C37.9517 140.043 38.4043 140.136 38.815 140.323C39.235 140.51 39.599 140.766 39.907 141.093C40.215 141.41 40.4483 141.793 40.607 142.241C40.775 142.68 40.8543 143.16 40.845 143.683L40.831 144.299H34.867L34.531 143.109H39.389L39.179 143.347V143.025C39.151 142.745 39.0577 142.498 38.899 142.283C38.7403 142.059 38.535 141.886 38.283 141.765C38.0403 141.634 37.7697 141.569 37.471 141.569C37.0137 141.569 36.6263 141.658 36.309 141.835C35.9917 142.003 35.749 142.255 35.581 142.591C35.4223 142.927 35.343 143.342 35.343 143.837C35.343 144.313 35.441 144.728 35.637 145.083C35.8423 145.438 36.1317 145.713 36.505 145.909C36.8783 146.105 37.3123 146.203 37.807 146.203C38.1523 146.203 38.4697 146.147 38.759 146.035C39.0577 145.923 39.375 145.722 39.711 145.433L40.551 146.609C40.299 146.842 40.0097 147.043 39.683 147.211C39.3657 147.37 39.0297 147.496 38.675 147.589C38.3203 147.682 37.9703 147.729 37.625 147.729ZM45.9281 147.729C45.1534 147.729 44.4674 147.57 43.8701 147.253C43.2821 146.926 42.8201 146.483 42.4841 145.923C42.1574 145.354 41.9941 144.7 41.9941 143.963C41.9941 143.384 42.0874 142.857 42.2741 142.381C42.4608 141.905 42.7221 141.494 43.0581 141.149C43.3941 140.794 43.7908 140.524 44.2481 140.337C44.7148 140.141 45.2188 140.043 45.7601 140.043C46.2548 140.043 46.7074 140.136 47.1181 140.323C47.5381 140.51 47.9021 140.766 48.2101 141.093C48.5181 141.41 48.7514 141.793 48.9101 142.241C49.0781 142.68 49.1574 143.16 49.1481 143.683L49.1341 144.299H43.1701L42.8341 143.109H47.6921L47.4821 143.347V143.025C47.4541 142.745 47.3608 142.498 47.2021 142.283C47.0434 142.059 46.8381 141.886 46.5861 141.765C46.3434 141.634 46.0728 141.569 45.7741 141.569C45.3168 141.569 44.9294 141.658 44.6121 141.835C44.2948 142.003 44.0521 142.255 43.8841 142.591C43.7254 142.927 43.6461 143.342 43.6461 143.837C43.6461 144.313 43.7441 144.728 43.9401 145.083C44.1454 145.438 44.4348 145.713 44.8081 145.909C45.1814 146.105 45.6154 146.203 46.1101 146.203C46.4554 146.203 46.7728 146.147 47.0621 146.035C47.3608 145.923 47.6781 145.722 48.0141 145.433L48.8541 146.609C48.6021 146.842 48.3128 147.043 47.9861 147.211C47.6688 147.37 47.3328 147.496 46.9781 147.589C46.6234 147.682 46.2734 147.729 45.9281 147.729ZM57.2848 147.589L54.2188 137.789H56.0948L57.8588 143.599C57.9335 143.832 57.9988 144.094 58.0548 144.383C58.1108 144.672 58.1621 144.948 58.2088 145.209C58.2555 145.47 58.2881 145.676 58.3068 145.825H57.9288C58.0501 145.377 58.1435 145.018 58.2088 144.747C58.2741 144.476 58.3301 144.252 58.3768 144.075C58.4235 143.898 58.4748 143.734 58.5308 143.585L60.1968 139.343H61.7368L63.3608 143.585C63.4635 143.837 63.5475 144.084 63.6128 144.327C63.6875 144.56 63.7481 144.789 63.7948 145.013C63.8508 145.237 63.9021 145.47 63.9488 145.713L63.6128 145.797C63.6501 145.573 63.6781 145.391 63.6968 145.251C63.7155 145.102 63.7341 144.976 63.7528 144.873C63.7715 144.761 63.7901 144.654 63.8088 144.551C63.8275 144.439 63.8555 144.308 63.8928 144.159C63.9301 144 63.9861 143.8 64.0608 143.557L65.7828 137.789H67.6728L64.6068 147.589H63.2908L60.7848 141.625L60.9668 141.667L58.5868 147.589H57.2848ZM69.2298 147.589V140.211H70.9378V147.589H69.2298ZM70.0698 138.643C69.7244 138.643 69.4538 138.559 69.2578 138.391C69.0711 138.214 68.9778 137.966 68.9778 137.649C68.9778 137.35 69.0758 137.112 69.2718 136.935C69.4678 136.748 69.7338 136.655 70.0698 136.655C70.4151 136.655 70.6811 136.744 70.8678 136.921C71.0638 137.089 71.1618 137.332 71.1618 137.649C71.1618 137.938 71.0638 138.176 70.8678 138.363C70.6718 138.55 70.4058 138.643 70.0698 138.643ZM73.5297 147.589V137.789H75.3357V147.589H73.5297ZM74.3557 143.557V141.919H79.4237V143.557H74.3557ZM74.3557 139.469V137.789H80.0257V139.469H74.3557ZM82.0216 147.589V140.211H83.7296V147.589H82.0216ZM82.8616 138.643C82.5162 138.643 82.2456 138.559 82.0496 138.391C81.8629 138.214 81.7696 137.966 81.7696 137.649C81.7696 137.35 81.8676 137.112 82.0636 136.935C82.2596 136.748 82.5256 136.655 82.8616 136.655C83.2069 136.655 83.4729 136.744 83.6596 136.921C83.8556 137.089 83.9536 137.332 83.9536 137.649C83.9536 137.938 83.8556 138.176 83.6596 138.363C83.4636 138.55 83.1976 138.643 82.8616 138.643Z" fill="#334155"></path> </g> <circle opacity="0.12" cx="97" cy="164.589" r="50" fill="#3B82F6"></circle> </g> <g clip-path="url(#clip6_52_203056)"> <path d="M20.316 195.589V185.789H24.488C25.132 185.789 25.6733 185.882 26.112 186.069C26.56 186.256 26.896 186.536 27.12 186.909C27.344 187.273 27.456 187.716 27.456 188.239C27.456 188.78 27.3113 189.238 27.022 189.611C26.742 189.984 26.3407 190.241 25.818 190.381V190.101C26.2473 190.194 26.6253 190.362 26.952 190.605C27.2787 190.838 27.5307 191.132 27.708 191.487C27.8853 191.832 27.974 192.229 27.974 192.677C27.974 193.153 27.8947 193.573 27.736 193.937C27.5867 194.301 27.3627 194.604 27.064 194.847C26.7747 195.09 26.4247 195.276 26.014 195.407C25.6127 195.528 25.1553 195.589 24.642 195.589H20.316ZM22.08 193.951H24.544C25.0573 193.951 25.454 193.839 25.734 193.615C26.0233 193.382 26.168 193.05 26.168 192.621C26.168 192.36 26.098 192.136 25.958 191.949C25.818 191.762 25.622 191.622 25.37 191.529C25.118 191.426 24.8193 191.375 24.474 191.375H22.08V193.951ZM22.08 189.807H24.334C24.5953 189.807 24.8287 189.756 25.034 189.653C25.2393 189.55 25.398 189.41 25.51 189.233C25.622 189.056 25.678 188.85 25.678 188.617C25.678 188.234 25.5473 187.94 25.286 187.735C25.034 187.53 24.6653 187.427 24.18 187.427H22.08V189.807ZM29.7467 195.589V188.211H31.4267L31.4547 190.563L31.2307 190.031C31.3333 189.658 31.5107 189.322 31.7627 189.023C32.0147 188.724 32.304 188.491 32.6307 188.323C32.9667 188.146 33.312 188.057 33.6667 188.057C33.8253 188.057 33.9747 188.071 34.1147 188.099C34.264 188.127 34.3853 188.16 34.4787 188.197L34.0307 190.073C33.9187 190.017 33.788 189.975 33.6387 189.947C33.4987 189.91 33.354 189.891 33.2047 189.891C32.962 189.891 32.7333 189.938 32.5187 190.031C32.3133 190.115 32.1313 190.236 31.9727 190.395C31.8233 190.554 31.702 190.74 31.6087 190.955C31.5153 191.16 31.4687 191.389 31.4687 191.641V195.589H29.7467ZM38.8828 195.729C38.1081 195.729 37.4221 195.57 36.8248 195.253C36.2368 194.926 35.7748 194.483 35.4388 193.923C35.1121 193.354 34.9488 192.7 34.9488 191.963C34.9488 191.384 35.0421 190.857 35.2288 190.381C35.4155 189.905 35.6768 189.494 36.0128 189.149C36.3488 188.794 36.7455 188.524 37.2028 188.337C37.6695 188.141 38.1735 188.043 38.7148 188.043C39.2095 188.043 39.6621 188.136 40.0728 188.323C40.4928 188.51 40.8568 188.766 41.1648 189.093C41.4728 189.41 41.7061 189.793 41.8648 190.241C42.0328 190.68 42.1121 191.16 42.1028 191.683L42.0888 192.299H36.1248L35.7888 191.109H40.6468L40.4368 191.347V191.025C40.4088 190.745 40.3155 190.498 40.1568 190.283C39.9981 190.059 39.7928 189.886 39.5408 189.765C39.2981 189.634 39.0275 189.569 38.7288 189.569C38.2715 189.569 37.8841 189.658 37.5668 189.835C37.2495 190.003 37.0068 190.255 36.8388 190.591C36.6801 190.927 36.6008 191.342 36.6008 191.837C36.6008 192.313 36.6988 192.728 36.8948 193.083C37.1001 193.438 37.3895 193.713 37.7628 193.909C38.1361 194.105 38.5701 194.203 39.0648 194.203C39.4101 194.203 39.7275 194.147 40.0168 194.035C40.3155 193.923 40.6328 193.722 40.9688 193.433L41.8088 194.609C41.5568 194.842 41.2675 195.043 40.9408 195.211C40.6235 195.37 40.2875 195.496 39.9328 195.589C39.5781 195.682 39.2281 195.729 38.8828 195.729ZM47.9419 195.589V190.871C47.9419 190.47 47.8066 190.157 47.5359 189.933C47.2746 189.7 46.9339 189.583 46.5139 189.583C46.1219 189.583 45.7673 189.662 45.4499 189.821C45.1326 189.97 44.8386 190.213 44.5679 190.549L43.5039 189.485C43.9426 189.018 44.4279 188.664 44.9599 188.421C45.4919 188.178 46.0659 188.057 46.6819 188.057C47.2699 188.057 47.7739 188.15 48.1939 188.337C48.6233 188.524 48.9546 188.804 49.1879 189.177C49.4213 189.541 49.5379 189.989 49.5379 190.521V195.589H47.9419ZM45.8419 195.729C45.3659 195.729 44.9413 195.636 44.5679 195.449C44.1946 195.262 43.8959 195.006 43.6719 194.679C43.4573 194.343 43.3499 193.951 43.3499 193.503C43.3499 193.111 43.4199 192.77 43.5599 192.481C43.6999 192.182 43.9053 191.935 44.1759 191.739C44.4559 191.543 44.8013 191.398 45.2119 191.305C45.6319 191.202 46.1126 191.151 46.6539 191.151H48.7679L48.6419 192.383H46.5559C46.3039 192.383 46.0799 192.406 45.8839 192.453C45.6879 192.5 45.5199 192.57 45.3799 192.663C45.2399 192.756 45.1373 192.868 45.0719 192.999C45.0066 193.12 44.9739 193.27 44.9739 193.447C44.9739 193.634 45.0206 193.797 45.1139 193.937C45.2073 194.068 45.3333 194.17 45.4919 194.245C45.6506 194.32 45.8373 194.357 46.0519 194.357C46.3599 194.357 46.6493 194.306 46.9199 194.203C47.1999 194.1 47.4473 193.956 47.6619 193.769C47.8766 193.582 48.0446 193.372 48.1659 193.139L48.5159 194.091C48.3199 194.418 48.0773 194.702 47.7879 194.945C47.5079 195.188 47.1999 195.379 46.8639 195.519C46.5373 195.659 46.1966 195.729 45.8419 195.729ZM53.0528 193.335L52.7308 191.711L56.2308 188.211H58.5128L53.0528 193.335ZM51.4568 195.589V185.229H53.1648V195.589H51.4568ZM56.4268 195.589L53.7248 192.313L54.9288 191.277L58.5548 195.589H56.4268ZM60.4733 195.589V187.539C60.4733 187.1 60.5713 186.708 60.7673 186.363C60.9633 186.008 61.234 185.733 61.5793 185.537C61.9246 185.332 62.3213 185.229 62.7693 185.229C63.0866 185.229 63.3806 185.285 63.6513 185.397C63.9313 185.509 64.16 185.658 64.3373 185.845L63.8053 187.119C63.684 187.026 63.5533 186.951 63.4133 186.895C63.2826 186.83 63.1566 186.797 63.0353 186.797C62.8486 186.797 62.69 186.83 62.5593 186.895C62.438 186.951 62.3446 187.04 62.2793 187.161C62.2233 187.282 62.1953 187.432 62.1953 187.609V195.589H61.3273C61.1686 195.589 61.0146 195.589 60.8653 195.589C60.7253 195.589 60.5946 195.589 60.4733 195.589ZM59.3253 189.877V188.365H63.8613V189.877H59.3253ZM69.3376 195.589V190.871C69.3376 190.47 69.2023 190.157 68.9316 189.933C68.6703 189.7 68.3296 189.583 67.9096 189.583C67.5176 189.583 67.163 189.662 66.8456 189.821C66.5283 189.97 66.2343 190.213 65.9636 190.549L64.8996 189.485C65.3383 189.018 65.8236 188.664 66.3556 188.421C66.8876 188.178 67.4616 188.057 68.0776 188.057C68.6656 188.057 69.1696 188.15 69.5896 188.337C70.019 188.524 70.3503 188.804 70.5836 189.177C70.817 189.541 70.9336 189.989 70.9336 190.521V195.589H69.3376ZM67.2376 195.729C66.7616 195.729 66.337 195.636 65.9636 195.449C65.5903 195.262 65.2916 195.006 65.0676 194.679C64.853 194.343 64.7456 193.951 64.7456 193.503C64.7456 193.111 64.8156 192.77 64.9556 192.481C65.0956 192.182 65.301 191.935 65.5716 191.739C65.8516 191.543 66.197 191.398 66.6076 191.305C67.0276 191.202 67.5083 191.151 68.0496 191.151H70.1636L70.0376 192.383H67.9516C67.6996 192.383 67.4756 192.406 67.2796 192.453C67.0836 192.5 66.9156 192.57 66.7756 192.663C66.6356 192.756 66.533 192.868 66.4676 192.999C66.4023 193.12 66.3696 193.27 66.3696 193.447C66.3696 193.634 66.4163 193.797 66.5096 193.937C66.603 194.068 66.729 194.17 66.8876 194.245C67.0463 194.32 67.233 194.357 67.4476 194.357C67.7556 194.357 68.045 194.306 68.3156 194.203C68.5956 194.1 68.843 193.956 69.0576 193.769C69.2723 193.582 69.4403 193.372 69.5616 193.139L69.9116 194.091C69.7156 194.418 69.473 194.702 69.1836 194.945C68.9036 195.188 68.5956 195.379 68.2596 195.519C67.933 195.659 67.5923 195.729 67.2376 195.729ZM75.3165 195.729C74.6725 195.729 74.0892 195.622 73.5665 195.407C73.0532 195.183 72.6332 194.866 72.3065 194.455L73.4125 193.503C73.6925 193.811 74.0052 194.04 74.3505 194.189C74.6959 194.329 75.0599 194.399 75.4425 194.399C75.6012 194.399 75.7412 194.38 75.8625 194.343C75.9932 194.306 76.1052 194.25 76.1985 194.175C76.2919 194.1 76.3619 194.012 76.4085 193.909C76.4645 193.806 76.4925 193.694 76.4925 193.573C76.4925 193.349 76.4085 193.172 76.2405 193.041C76.1472 192.985 76.0025 192.92 75.8065 192.845C75.6105 192.761 75.3539 192.682 75.0365 192.607C74.5325 192.476 74.1079 192.327 73.7625 192.159C73.4265 191.982 73.1652 191.786 72.9785 191.571C72.8199 191.384 72.7032 191.184 72.6285 190.969C72.5539 190.745 72.5165 190.498 72.5165 190.227C72.5165 189.807 72.6379 189.434 72.8805 189.107C73.1325 188.78 73.4639 188.524 73.8745 188.337C74.2852 188.15 74.7425 188.057 75.2465 188.057C75.6199 188.057 75.9792 188.104 76.3245 188.197C76.6792 188.29 77.0059 188.426 77.3045 188.603C77.6032 188.771 77.8599 188.976 78.0745 189.219L77.1225 190.269C76.9545 190.101 76.7632 189.952 76.5485 189.821C76.3432 189.681 76.1332 189.574 75.9185 189.499C75.7039 189.424 75.5032 189.387 75.3165 189.387C75.1392 189.387 74.9805 189.406 74.8405 189.443C74.7005 189.471 74.5839 189.518 74.4905 189.583C74.3972 189.648 74.3225 189.732 74.2665 189.835C74.2199 189.928 74.1965 190.036 74.1965 190.157C74.2059 190.278 74.2339 190.39 74.2805 190.493C74.3365 190.586 74.4112 190.666 74.5045 190.731C74.5979 190.796 74.7472 190.871 74.9525 190.955C75.1579 191.039 75.4239 191.118 75.7505 191.193C76.2079 191.314 76.5905 191.45 76.8985 191.599C77.2065 191.748 77.4492 191.921 77.6265 192.117C77.8039 192.285 77.9299 192.481 78.0045 192.705C78.0792 192.929 78.1165 193.181 78.1165 193.461C78.1165 193.9 77.9905 194.292 77.7385 194.637C77.4959 194.973 77.1645 195.239 76.7445 195.435C76.3245 195.631 75.8485 195.729 75.3165 195.729ZM80.5458 195.589V186.335H82.2538V195.589H80.5458ZM79.0898 189.807V188.211H83.8638V189.807H79.0898ZM89.6728 195.589V188.211H91.3808V195.589H89.6728ZM90.5128 186.643C90.1674 186.643 89.8968 186.559 89.7008 186.391C89.5141 186.214 89.4208 185.966 89.4208 185.649C89.4208 185.35 89.5188 185.112 89.7148 184.935C89.9108 184.748 90.1768 184.655 90.5128 184.655C90.8581 184.655 91.1241 184.744 91.3108 184.921C91.5068 185.089 91.6048 185.332 91.6048 185.649C91.6048 185.938 91.5068 186.176 91.3108 186.363C91.1148 186.55 90.8488 186.643 90.5128 186.643ZM93.6646 195.589V188.211H95.3306L95.3586 189.723L95.0366 189.891C95.1393 189.564 95.3213 189.266 95.5826 188.995C95.8533 188.715 96.1753 188.491 96.5486 188.323C96.922 188.146 97.3093 188.057 97.7106 188.057C98.2706 188.057 98.7373 188.169 99.1106 188.393C99.4933 188.617 99.778 188.953 99.9646 189.401C100.151 189.849 100.245 190.409 100.245 191.081V195.589H98.5366V191.207C98.5366 190.824 98.4853 190.512 98.3826 190.269C98.28 190.017 98.1213 189.835 97.9066 189.723C97.692 189.602 97.4306 189.55 97.1226 189.569C96.8706 189.569 96.6373 189.611 96.4226 189.695C96.208 189.77 96.0213 189.882 95.8626 190.031C95.7133 190.171 95.592 190.339 95.4986 190.535C95.4146 190.722 95.3726 190.927 95.3726 191.151V195.589H94.5186C94.36 195.589 94.206 195.589 94.0566 195.589C93.9166 195.589 93.786 195.589 93.6646 195.589ZM105.46 195.729C104.769 195.729 104.149 195.561 103.598 195.225C103.047 194.889 102.613 194.432 102.296 193.853C101.979 193.274 101.82 192.621 101.82 191.893C101.82 191.165 101.979 190.512 102.296 189.933C102.613 189.354 103.047 188.897 103.598 188.561C104.149 188.225 104.769 188.057 105.46 188.057C106.113 188.057 106.711 188.188 107.252 188.449C107.803 188.701 108.223 189.046 108.512 189.485L107.574 190.633C107.434 190.437 107.257 190.26 107.042 190.101C106.827 189.942 106.594 189.816 106.342 189.723C106.099 189.63 105.861 189.583 105.628 189.583C105.208 189.583 104.835 189.686 104.508 189.891C104.191 190.087 103.939 190.362 103.752 190.717C103.565 191.062 103.472 191.454 103.472 191.893C103.472 192.332 103.565 192.724 103.752 193.069C103.948 193.414 104.209 193.69 104.536 193.895C104.863 194.1 105.227 194.203 105.628 194.203C105.88 194.203 106.118 194.166 106.342 194.091C106.566 194.007 106.781 193.89 106.986 193.741C107.201 193.592 107.397 193.405 107.574 193.181L108.512 194.329C108.204 194.74 107.77 195.076 107.21 195.337C106.65 195.598 106.067 195.729 105.46 195.729ZM109.943 195.589V185.229H111.651V195.589H109.943ZM116.283 195.729C115.751 195.729 115.289 195.608 114.897 195.365C114.514 195.122 114.215 194.782 114.001 194.343C113.795 193.904 113.693 193.377 113.693 192.761V188.211H115.401V192.397C115.401 192.976 115.536 193.433 115.807 193.769C116.087 194.105 116.474 194.273 116.969 194.273C117.211 194.273 117.431 194.236 117.627 194.161C117.832 194.077 118.009 193.965 118.159 193.825C118.308 193.676 118.425 193.498 118.509 193.293C118.593 193.088 118.635 192.868 118.635 192.635V188.211H120.343V195.589H118.677L118.649 194.049L118.957 193.881C118.845 194.226 118.653 194.539 118.383 194.819C118.121 195.099 117.809 195.323 117.445 195.491C117.081 195.65 116.693 195.729 116.283 195.729ZM125.457 195.729C124.794 195.729 124.201 195.566 123.679 195.239C123.165 194.903 122.755 194.45 122.447 193.881C122.148 193.302 121.999 192.64 121.999 191.893C121.999 191.156 122.148 190.498 122.447 189.919C122.745 189.34 123.151 188.888 123.665 188.561C124.187 188.225 124.775 188.057 125.429 188.057C125.783 188.057 126.124 188.113 126.451 188.225C126.787 188.337 127.085 188.491 127.347 188.687C127.617 188.874 127.827 189.084 127.977 189.317C128.135 189.55 128.219 189.793 128.229 190.045L127.767 190.101V185.229H129.489V195.589H127.823L127.781 193.867L128.117 193.895C128.107 194.119 128.028 194.338 127.879 194.553C127.729 194.768 127.529 194.964 127.277 195.141C127.034 195.318 126.754 195.463 126.437 195.575C126.119 195.678 125.793 195.729 125.457 195.729ZM125.779 194.273C126.18 194.273 126.535 194.175 126.843 193.979C127.151 193.774 127.389 193.494 127.557 193.139C127.734 192.775 127.823 192.36 127.823 191.893C127.823 191.426 127.734 191.016 127.557 190.661C127.389 190.306 127.151 190.026 126.843 189.821C126.535 189.616 126.18 189.513 125.779 189.513C125.368 189.513 125.009 189.616 124.701 189.821C124.402 190.026 124.164 190.306 123.987 190.661C123.809 191.016 123.721 191.426 123.721 191.893C123.721 192.36 123.809 192.775 123.987 193.139C124.164 193.494 124.402 193.774 124.701 193.979C125.009 194.175 125.368 194.273 125.779 194.273ZM135.002 195.729C134.227 195.729 133.541 195.57 132.944 195.253C132.356 194.926 131.894 194.483 131.558 193.923C131.231 193.354 131.068 192.7 131.068 191.963C131.068 191.384 131.161 190.857 131.348 190.381C131.534 189.905 131.796 189.494 132.132 189.149C132.468 188.794 132.864 188.524 133.322 188.337C133.788 188.141 134.292 188.043 134.834 188.043C135.328 188.043 135.781 188.136 136.192 188.323C136.612 188.51 136.976 188.766 137.284 189.093C137.592 189.41 137.825 189.793 137.984 190.241C138.152 190.68 138.231 191.16 138.222 191.683L138.208 192.299H132.244L131.908 191.109H136.766L136.556 191.347V191.025C136.528 190.745 136.434 190.498 136.276 190.283C136.117 190.059 135.912 189.886 135.66 189.765C135.417 189.634 135.146 189.569 134.848 189.569C134.39 189.569 134.003 189.658 133.686 189.835C133.368 190.003 133.126 190.255 132.958 190.591C132.799 190.927 132.72 191.342 132.72 191.837C132.72 192.313 132.818 192.728 133.014 193.083C133.219 193.438 133.508 193.713 133.882 193.909C134.255 194.105 134.689 194.203 135.184 194.203C135.529 194.203 135.846 194.147 136.136 194.035C136.434 193.923 136.752 193.722 137.088 193.433L137.928 194.609C137.676 194.842 137.386 195.043 137.06 195.211C136.742 195.37 136.406 195.496 136.052 195.589C135.697 195.682 135.347 195.729 135.002 195.729ZM142.829 195.729C142.166 195.729 141.573 195.566 141.051 195.239C140.537 194.903 140.127 194.45 139.819 193.881C139.52 193.302 139.371 192.64 139.371 191.893C139.371 191.156 139.52 190.498 139.819 189.919C140.117 189.34 140.523 188.888 141.037 188.561C141.559 188.225 142.147 188.057 142.801 188.057C143.155 188.057 143.496 188.113 143.823 188.225C144.159 188.337 144.457 188.491 144.719 188.687C144.989 188.874 145.199 189.084 145.349 189.317C145.507 189.55 145.591 189.793 145.601 190.045L145.139 190.101V185.229H146.861V195.589H145.195L145.153 193.867L145.489 193.895C145.479 194.119 145.4 194.338 145.251 194.553C145.101 194.768 144.901 194.964 144.649 195.141C144.406 195.318 144.126 195.463 143.809 195.575C143.491 195.678 143.165 195.729 142.829 195.729ZM143.151 194.273C143.552 194.273 143.907 194.175 144.215 193.979C144.523 193.774 144.761 193.494 144.929 193.139C145.106 192.775 145.195 192.36 145.195 191.893C145.195 191.426 145.106 191.016 144.929 190.661C144.761 190.306 144.523 190.026 144.215 189.821C143.907 189.616 143.552 189.513 143.151 189.513C142.74 189.513 142.381 189.616 142.073 189.821C141.774 190.026 141.536 190.306 141.359 190.661C141.181 191.016 141.093 191.426 141.093 191.893C141.093 192.36 141.181 192.775 141.359 193.139C141.536 193.494 141.774 193.774 142.073 193.979C142.381 194.175 142.74 194.273 143.151 194.273Z" fill="#334155"></path> </g> <g clip-path="url(#clip7_52_203056)"> <path d="M23.424 243.729C22.5653 243.729 21.8187 243.566 21.184 243.239C20.5587 242.912 20.022 242.436 19.574 241.811L20.75 240.467C21.2073 241.111 21.6507 241.554 22.08 241.797C22.5187 242.03 23.0133 242.147 23.564 242.147C23.8813 242.147 24.1707 242.1 24.432 242.007C24.6933 241.914 24.8987 241.783 25.048 241.615C25.1973 241.438 25.272 241.232 25.272 240.999C25.272 240.84 25.2393 240.696 25.174 240.565C25.118 240.425 25.0293 240.304 24.908 240.201C24.796 240.089 24.6513 239.986 24.474 239.893C24.306 239.8 24.1053 239.72 23.872 239.655C23.648 239.58 23.4007 239.52 23.13 239.473C22.6073 239.37 22.1547 239.235 21.772 239.067C21.3987 238.89 21.0813 238.675 20.82 238.423C20.568 238.162 20.3767 237.872 20.246 237.555C20.1247 237.228 20.064 236.86 20.064 236.449C20.064 235.898 20.218 235.413 20.526 234.993C20.8433 234.564 21.2633 234.228 21.786 233.985C22.318 233.742 22.9013 233.621 23.536 233.621C24.3573 233.621 25.0527 233.77 25.622 234.069C26.2007 234.368 26.6533 234.792 26.98 235.343L25.776 236.519C25.496 236.09 25.1647 235.763 24.782 235.539C24.3993 235.315 23.984 235.203 23.536 235.203C23.2 235.203 22.906 235.254 22.654 235.357C22.4113 235.45 22.22 235.586 22.08 235.763C21.94 235.931 21.87 236.136 21.87 236.379C21.87 236.556 21.9073 236.72 21.982 236.869C22.066 237.018 22.1873 237.149 22.346 237.261C22.5047 237.373 22.7053 237.471 22.948 237.555C23.1907 237.639 23.4707 237.714 23.788 237.779C24.3013 237.891 24.7587 238.031 25.16 238.199C25.5707 238.367 25.916 238.572 26.196 238.815C26.4853 239.048 26.7047 239.319 26.854 239.627C27.0033 239.926 27.078 240.262 27.078 240.635C27.078 241.27 26.9287 241.82 26.63 242.287C26.3313 242.754 25.9067 243.113 25.356 243.365C24.8053 243.608 24.1613 243.729 23.424 243.729ZM28.899 246.669V236.211H30.579L30.607 237.877L30.313 237.751C30.369 237.462 30.5277 237.191 30.789 236.939C31.0503 236.687 31.3677 236.482 31.741 236.323C32.1237 236.164 32.5203 236.085 32.931 236.085C33.5843 236.085 34.163 236.248 34.667 236.575C35.1803 236.902 35.5817 237.354 35.871 237.933C36.1697 238.502 36.319 239.156 36.319 239.893C36.319 240.63 36.1744 241.288 35.885 241.867C35.5957 242.436 35.1943 242.889 34.681 243.225C34.177 243.552 33.603 243.715 32.959 243.715C32.5297 243.715 32.1143 243.631 31.713 243.463C31.321 243.295 30.9897 243.076 30.719 242.805C30.4483 242.534 30.2757 242.254 30.201 241.965L30.621 241.755V246.669H28.899ZM32.623 242.189C33.015 242.189 33.365 242.091 33.673 241.895C33.981 241.699 34.2237 241.428 34.401 241.083C34.5783 240.738 34.667 240.341 34.667 239.893C34.667 239.445 34.5783 239.053 34.401 238.717C34.233 238.372 33.995 238.101 33.687 237.905C33.379 237.7 33.0243 237.597 32.623 237.597C32.2123 237.597 31.853 237.695 31.545 237.891C31.237 238.087 30.9943 238.358 30.817 238.703C30.6397 239.048 30.551 239.445 30.551 239.893C30.551 240.341 30.6397 240.738 30.817 241.083C30.9943 241.428 31.237 241.699 31.545 241.895C31.853 242.091 32.2123 242.189 32.623 242.189ZM42.1681 243.589V238.871C42.1681 238.47 42.0328 238.157 41.7621 237.933C41.5008 237.7 41.1601 237.583 40.7401 237.583C40.3481 237.583 39.9934 237.662 39.6761 237.821C39.3588 237.97 39.0648 238.213 38.7941 238.549L37.7301 237.485C38.1688 237.018 38.6541 236.664 39.1861 236.421C39.7181 236.178 40.2921 236.057 40.9081 236.057C41.4961 236.057 42.0001 236.15 42.4201 236.337C42.8494 236.524 43.1808 236.804 43.4141 237.177C43.6474 237.541 43.7641 237.989 43.7641 238.521V243.589H42.1681ZM40.0681 243.729C39.5921 243.729 39.1674 243.636 38.7941 243.449C38.4208 243.262 38.1221 243.006 37.8981 242.679C37.6834 242.343 37.5761 241.951 37.5761 241.503C37.5761 241.111 37.6461 240.77 37.7861 240.481C37.9261 240.182 38.1314 239.935 38.4021 239.739C38.6821 239.543 39.0274 239.398 39.4381 239.305C39.8581 239.202 40.3388 239.151 40.8801 239.151H42.9941L42.8681 240.383H40.7821C40.5301 240.383 40.3061 240.406 40.1101 240.453C39.9141 240.5 39.7461 240.57 39.6061 240.663C39.4661 240.756 39.3634 240.868 39.2981 240.999C39.2328 241.12 39.2001 241.27 39.2001 241.447C39.2001 241.634 39.2468 241.797 39.3401 241.937C39.4334 242.068 39.5594 242.17 39.7181 242.245C39.8768 242.32 40.0634 242.357 40.2781 242.357C40.5861 242.357 40.8754 242.306 41.1461 242.203C41.4261 242.1 41.6734 241.956 41.8881 241.769C42.1028 241.582 42.2708 241.372 42.3921 241.139L42.7421 242.091C42.5461 242.418 42.3034 242.702 42.0141 242.945C41.7341 243.188 41.4261 243.379 41.0901 243.519C40.7634 243.659 40.4228 243.729 40.0681 243.729Z" fill="#334155"></path> </g> <g clip-path="url(#clip8_52_203056)"> <path d="M20.316 291.589V281.789H24.39C24.95 281.789 25.454 281.924 25.902 282.195C26.3593 282.466 26.7187 282.834 26.98 283.301C27.2507 283.768 27.386 284.29 27.386 284.869C27.386 285.448 27.2507 285.975 26.98 286.451C26.7187 286.918 26.3593 287.291 25.902 287.571C25.454 287.851 24.95 287.991 24.39 287.991H22.122V291.589H20.316ZM22.122 286.325H24.264C24.5067 286.325 24.7213 286.26 24.908 286.129C25.104 285.998 25.258 285.826 25.37 285.611C25.4913 285.387 25.552 285.144 25.552 284.883C25.552 284.612 25.4913 284.37 25.37 284.155C25.258 283.94 25.104 283.772 24.908 283.651C24.7213 283.53 24.5067 283.469 24.264 283.469H22.122V286.325ZM32.3274 291.729C31.59 291.729 30.932 291.566 30.3534 291.239C29.7747 290.903 29.3174 290.446 28.9814 289.867C28.6547 289.288 28.4914 288.63 28.4914 287.893C28.4914 287.156 28.6547 286.498 28.9814 285.919C29.3174 285.34 29.7747 284.888 30.3534 284.561C30.932 284.225 31.59 284.057 32.3274 284.057C33.0554 284.057 33.7087 284.225 34.2874 284.561C34.866 284.888 35.3187 285.34 35.6454 285.919C35.9814 286.498 36.1494 287.156 36.1494 287.893C36.1494 288.63 35.9814 289.288 35.6454 289.867C35.3187 290.446 34.866 290.903 34.2874 291.239C33.7087 291.566 33.0554 291.729 32.3274 291.729ZM32.3274 290.203C32.7287 290.203 33.088 290.105 33.4054 289.909C33.7227 289.704 33.97 289.428 34.1474 289.083C34.334 288.728 34.4227 288.332 34.4134 287.893C34.4227 287.445 34.334 287.048 34.1474 286.703C33.97 286.348 33.7227 286.073 33.4054 285.877C33.088 285.681 32.7287 285.583 32.3274 285.583C31.926 285.583 31.562 285.686 31.2354 285.891C30.918 286.087 30.6707 286.362 30.4934 286.717C30.316 287.062 30.2274 287.454 30.2274 287.893C30.2274 288.332 30.316 288.728 30.4934 289.083C30.6707 289.428 30.918 289.704 31.2354 289.909C31.562 290.105 31.926 290.203 32.3274 290.203ZM41.15 291.729C40.4127 291.729 39.7547 291.566 39.176 291.239C38.5974 290.903 38.14 290.446 37.804 289.867C37.4774 289.288 37.314 288.63 37.314 287.893C37.314 287.156 37.4774 286.498 37.804 285.919C38.14 285.34 38.5974 284.888 39.176 284.561C39.7547 284.225 40.4127 284.057 41.15 284.057C41.878 284.057 42.5314 284.225 43.11 284.561C43.6887 284.888 44.1414 285.34 44.468 285.919C44.804 286.498 44.972 287.156 44.972 287.893C44.972 288.63 44.804 289.288 44.468 289.867C44.1414 290.446 43.6887 290.903 43.11 291.239C42.5314 291.566 41.878 291.729 41.15 291.729ZM41.15 290.203C41.5514 290.203 41.9107 290.105 42.228 289.909C42.5454 289.704 42.7927 289.428 42.97 289.083C43.1567 288.728 43.2454 288.332 43.236 287.893C43.2454 287.445 43.1567 287.048 42.97 286.703C42.7927 286.348 42.5454 286.073 42.228 285.877C41.9107 285.681 41.5514 285.583 41.15 285.583C40.7487 285.583 40.3847 285.686 40.058 285.891C39.7407 286.087 39.4934 286.362 39.316 286.717C39.1387 287.062 39.05 287.454 39.05 287.893C39.05 288.332 39.1387 288.728 39.316 289.083C39.4934 289.428 39.7407 289.704 40.058 289.909C40.3847 290.105 40.7487 290.203 41.15 290.203ZM46.6267 291.589V281.229H48.3347V291.589H46.6267Z" fill="#334155"></path> </g> </g> </g> <rect width="91" height="16" transform="translate(19 0.588867)" fill="white"></rect> <path d="M24.034 12.5889V4.88887H27.235C27.675 4.88887 28.071 4.9952 28.423 5.20787C28.7823 5.42053 29.0647 5.7102 29.27 6.07687C29.4827 6.44353 29.589 6.8542 29.589 7.30887C29.589 7.76353 29.4827 8.17787 29.27 8.55187C29.0647 8.91853 28.7823 9.21187 28.423 9.43187C28.071 9.65187 27.675 9.76187 27.235 9.76187H25.453V12.5889H24.034ZM25.453 8.45287H27.136C27.3267 8.45287 27.4953 8.40153 27.642 8.29887C27.796 8.1962 27.917 8.06053 28.005 7.89187C28.1003 7.71587 28.148 7.5252 28.148 7.31987C28.148 7.1072 28.1003 6.91653 28.005 6.74787C27.917 6.5792 27.796 6.4472 27.642 6.35187C27.4953 6.25653 27.3267 6.20887 27.136 6.20887H25.453V8.45287ZM31.5144 12.5889V6.79187H32.8564V12.5889H31.5144ZM32.1744 5.55987C31.903 5.55987 31.6904 5.49387 31.5364 5.36187C31.3897 5.22253 31.3164 5.0282 31.3164 4.77887C31.3164 4.5442 31.3934 4.3572 31.5474 4.21787C31.7014 4.0712 31.9104 3.99787 32.1744 3.99787C32.4457 3.99787 32.6547 4.06753 32.8014 4.20687C32.9554 4.33887 33.0324 4.52953 33.0324 4.77887C33.0324 5.0062 32.9554 5.1932 32.8014 5.33987C32.6474 5.48653 32.4384 5.55987 32.1744 5.55987ZM37.5583 12.6989C37.0156 12.6989 36.5279 12.5669 36.0953 12.3029C35.6626 12.0389 35.3216 11.6795 35.0723 11.2249C34.8229 10.7702 34.6983 10.2569 34.6983 9.68487C34.6983 9.11287 34.8229 8.59953 35.0723 8.14487C35.3216 7.6902 35.6626 7.33087 36.0953 7.06687C36.5279 6.80287 37.0156 6.67087 37.5583 6.67087C38.0716 6.67087 38.5409 6.77353 38.9663 6.97887C39.3989 7.17687 39.7289 7.4482 39.9563 7.79287L39.2193 8.69487C39.1093 8.54087 38.9699 8.40153 38.8013 8.27687C38.6326 8.1522 38.4493 8.0532 38.2513 7.97987C38.0606 7.90653 37.8736 7.86987 37.6903 7.86987C37.3603 7.86987 37.0669 7.95053 36.8103 8.11187C36.5609 8.26587 36.3629 8.4822 36.2163 8.76087C36.0696 9.0322 35.9963 9.3402 35.9963 9.68487C35.9963 10.0295 36.0696 10.3375 36.2163 10.6089C36.3703 10.8802 36.5756 11.0965 36.8323 11.2579C37.0889 11.4192 37.3749 11.4999 37.6903 11.4999C37.8883 11.4999 38.0753 11.4705 38.2513 11.4119C38.4273 11.3459 38.5959 11.2542 38.7573 11.1369C38.9259 11.0195 39.0799 10.8729 39.2193 10.6969L39.9563 11.5989C39.7143 11.9215 39.3733 12.1855 38.9333 12.3909C38.4933 12.5962 38.0349 12.6989 37.5583 12.6989ZM42.7452 10.8179L42.4922 9.54187L45.2422 6.79187H47.0352L42.7452 10.8179ZM41.4912 12.5889V4.44887H42.8332V12.5889H41.4912ZM45.3962 12.5889L43.2732 10.0149L44.2192 9.20087L47.0682 12.5889H45.3962ZM51.5757 12.5889L54.5787 4.88887H55.9097L58.8907 12.5889H57.4167L55.7557 8.18887C55.7263 8.1082 55.6787 7.97253 55.6127 7.78187C55.554 7.5912 55.488 7.3822 55.4147 7.15487C55.3413 6.92753 55.2717 6.71853 55.2057 6.52787C55.147 6.3372 55.1067 6.1942 55.0847 6.09887L55.3597 6.08787C55.3157 6.23453 55.2643 6.4032 55.2057 6.59387C55.147 6.7772 55.0847 6.96787 55.0187 7.16587C54.9527 7.36387 54.8867 7.55453 54.8207 7.73787C54.7547 7.9212 54.696 8.0862 54.6447 8.23287L52.9947 12.5889H51.5757ZM52.9397 10.8179L53.4237 9.58587H56.9327L57.4717 10.8179H52.9397ZM60.3501 12.5889V6.79187H61.6701L61.6921 7.96887L61.4721 8.05687C61.5381 7.8662 61.6371 7.6902 61.7691 7.52887C61.9011 7.3602 62.0587 7.21353 62.2421 7.08887C62.4254 6.9642 62.6197 6.86887 62.8251 6.80287C63.0304 6.72953 63.2431 6.69287 63.4631 6.69287C63.7784 6.69287 64.0571 6.7442 64.2991 6.84687C64.5411 6.94953 64.7427 7.1072 64.9041 7.31987C65.0727 7.53253 65.2011 7.80387 65.2891 8.13387L65.0801 8.08987L65.1571 7.91387C65.2451 7.73787 65.3624 7.57653 65.5091 7.42987C65.6557 7.2832 65.8207 7.15487 66.0041 7.04487C66.1874 6.92753 66.3781 6.83953 66.5761 6.78087C66.7814 6.7222 66.9794 6.69287 67.1701 6.69287C67.6101 6.69287 67.9767 6.78087 68.2701 6.95687C68.5634 7.13287 68.7834 7.40053 68.9301 7.75987C69.0767 8.1192 69.1501 8.56287 69.1501 9.09087V12.5889H67.7971V9.17887C67.7971 8.73887 67.7091 8.41253 67.5331 8.19987C67.3644 7.9872 67.1004 7.88087 66.7411 7.88087C66.5504 7.88087 66.3744 7.91387 66.2131 7.97987C66.0517 8.03853 65.9087 8.12653 65.7841 8.24387C65.6667 8.35387 65.5751 8.48587 65.5091 8.63987C65.4431 8.78653 65.4101 8.95153 65.4101 9.13487V12.5889H64.0571V9.16787C64.0571 8.74987 63.9654 8.43087 63.7821 8.21087C63.6061 7.99087 63.3531 7.88087 63.0231 7.88087C62.8324 7.88087 62.6564 7.91387 62.4951 7.97987C62.3411 8.03853 62.2017 8.12653 62.0771 8.24387C61.9597 8.35387 61.8681 8.4822 61.8021 8.62887C61.7361 8.77553 61.7031 8.93687 61.7031 9.11287V12.5889H60.3501ZM73.8694 12.6989C73.2607 12.6989 72.7217 12.5742 72.2524 12.3249C71.7904 12.0682 71.4274 11.7199 71.1634 11.2799C70.9067 10.8325 70.7784 10.3192 70.7784 9.73987C70.7784 9.2852 70.8517 8.87087 70.9984 8.49687C71.145 8.12287 71.3504 7.8002 71.6144 7.52887C71.8784 7.2502 72.19 7.03753 72.5494 6.89087C72.916 6.73687 73.312 6.65987 73.7374 6.65987C74.126 6.65987 74.4817 6.7332 74.8044 6.87987C75.1344 7.02653 75.4204 7.2282 75.6624 7.48487C75.9044 7.7342 76.0877 8.03487 76.2124 8.38687C76.3444 8.73153 76.4067 9.1092 76.3994 9.51987L76.3884 10.0039H71.7024L71.4384 9.06887H75.2554L75.0904 9.25587V9.00287C75.0684 8.78287 74.995 8.58853 74.8704 8.41987C74.7457 8.24387 74.5844 8.1082 74.3864 8.01287C74.1957 7.9102 73.983 7.85887 73.7484 7.85887C73.389 7.85887 73.0847 7.92853 72.8354 8.06787C72.586 8.19987 72.3954 8.39787 72.2634 8.66187C72.1387 8.92587 72.0764 9.2522 72.0764 9.64087C72.0764 10.0149 72.1534 10.3412 72.3074 10.6199C72.4687 10.8985 72.696 11.1149 72.9894 11.2689C73.2827 11.4229 73.6237 11.4999 74.0124 11.4999C74.2837 11.4999 74.533 11.4559 74.7604 11.3679C74.995 11.2799 75.2444 11.1222 75.5084 10.8949L76.1684 11.8189C75.9704 12.0022 75.743 12.1599 75.4864 12.2919C75.237 12.4165 74.973 12.5155 74.6944 12.5889C74.4157 12.6622 74.1407 12.6989 73.8694 12.6989ZM78.0977 12.5889V6.79187H79.4067L79.4287 7.97987L79.1757 8.11187C79.2563 7.8552 79.3993 7.62053 79.6047 7.40787C79.8173 7.18787 80.0703 7.01187 80.3637 6.87987C80.657 6.74053 80.9613 6.67087 81.2767 6.67087C81.7167 6.67087 82.0833 6.75887 82.3767 6.93487C82.6773 7.11087 82.901 7.37487 83.0477 7.72687C83.1943 8.07887 83.2677 8.51887 83.2677 9.04687V12.5889H81.9257V9.14587C81.9257 8.8452 81.8853 8.59953 81.8047 8.40887C81.724 8.21087 81.5993 8.06787 81.4307 7.97987C81.262 7.88453 81.0567 7.8442 80.8147 7.85887C80.6167 7.85887 80.4333 7.89187 80.2647 7.95787C80.096 8.01653 79.9493 8.10453 79.8247 8.22187C79.7073 8.33187 79.612 8.46387 79.5387 8.61787C79.4727 8.76453 79.4397 8.92587 79.4397 9.10187V12.5889H78.7687C78.644 12.5889 78.523 12.5889 78.4057 12.5889C78.2957 12.5889 78.193 12.5889 78.0977 12.5889ZM85.9388 12.5889V5.31787H87.2808V12.5889H85.9388ZM84.7948 8.04587V6.79187H88.5458V8.04587H84.7948ZM90.2302 12.5889V6.79187H91.5722V12.5889H90.2302ZM90.8902 5.55987C90.6188 5.55987 90.4062 5.49387 90.2522 5.36187C90.1055 5.22253 90.0322 5.0282 90.0322 4.77887C90.0322 4.5442 90.1092 4.3572 90.2632 4.21787C90.4172 4.0712 90.6262 3.99787 90.8902 3.99787C91.1615 3.99787 91.3705 4.06753 91.5172 4.20687C91.6712 4.33887 91.7482 4.52953 91.7482 4.77887C91.7482 5.0062 91.6712 5.1932 91.5172 5.33987C91.3632 5.48653 91.1542 5.55987 90.8902 5.55987ZM96.5051 12.6989C95.8964 12.6989 95.3574 12.5742 94.8881 12.3249C94.4261 12.0682 94.0631 11.7199 93.7991 11.2799C93.5424 10.8325 93.4141 10.3192 93.4141 9.73987C93.4141 9.2852 93.4874 8.87087 93.6341 8.49687C93.7808 8.12287 93.9861 7.8002 94.2501 7.52887C94.5141 7.2502 94.8258 7.03753 95.1851 6.89087C95.5518 6.73687 95.9478 6.65987 96.3731 6.65987C96.7618 6.65987 97.1174 6.7332 97.4401 6.87987C97.7701 7.02653 98.0561 7.2282 98.2981 7.48487C98.5401 7.7342 98.7234 8.03487 98.8481 8.38687C98.9801 8.73153 99.0424 9.1092 99.0351 9.51987L99.0241 10.0039H94.3381L94.0741 9.06887H97.8911L97.7261 9.25587V9.00287C97.7041 8.78287 97.6308 8.58853 97.5061 8.41987C97.3814 8.24387 97.2201 8.1082 97.0221 8.01287C96.8314 7.9102 96.6188 7.85887 96.3841 7.85887C96.0248 7.85887 95.7204 7.92853 95.4711 8.06787C95.2218 8.19987 95.0311 8.39787 94.8991 8.66187C94.7744 8.92587 94.7121 9.2522 94.7121 9.64087C94.7121 10.0149 94.7891 10.3412 94.9431 10.6199C95.1044 10.8985 95.3318 11.1149 95.6251 11.2689C95.9184 11.4229 96.2594 11.4999 96.6481 11.4999C96.9194 11.4999 97.1688 11.4559 97.3961 11.3679C97.6308 11.2799 97.8801 11.1222 98.1441 10.8949L98.8041 11.8189C98.6061 12.0022 98.3788 12.1599 98.1221 12.2919C97.8728 12.4165 97.6088 12.5155 97.3301 12.5889C97.0514 12.6622 96.7764 12.6989 96.5051 12.6989ZM102.669 12.6989C102.163 12.6989 101.705 12.6145 101.294 12.4459C100.891 12.2699 100.561 12.0205 100.304 11.6979L101.173 10.9499C101.393 11.1919 101.639 11.3715 101.91 11.4889C102.182 11.5989 102.468 11.6539 102.768 11.6539C102.893 11.6539 103.003 11.6392 103.098 11.6099C103.201 11.5805 103.289 11.5365 103.362 11.4779C103.436 11.4192 103.491 11.3495 103.527 11.2689C103.571 11.1882 103.593 11.1002 103.593 11.0049C103.593 10.8289 103.527 10.6895 103.395 10.5869C103.322 10.5429 103.208 10.4915 103.054 10.4329C102.9 10.3669 102.699 10.3045 102.449 10.2459C102.053 10.1432 101.72 10.0259 101.448 9.89387C101.184 9.75453 100.979 9.60053 100.832 9.43187C100.708 9.2852 100.616 9.12753 100.557 8.95887C100.499 8.78287 100.469 8.58853 100.469 8.37587C100.469 8.04587 100.565 7.75253 100.755 7.49587C100.953 7.2392 101.214 7.03753 101.536 6.89087C101.859 6.7442 102.218 6.67087 102.614 6.67087C102.908 6.67087 103.19 6.70753 103.461 6.78087C103.74 6.8542 103.997 6.96053 104.231 7.09987C104.466 7.23187 104.668 7.3932 104.836 7.58387L104.088 8.40887C103.956 8.27687 103.806 8.15953 103.637 8.05687C103.476 7.94687 103.311 7.86253 103.142 7.80387C102.974 7.7452 102.816 7.71587 102.669 7.71587C102.53 7.71587 102.405 7.73053 102.295 7.75987C102.185 7.78187 102.094 7.81853 102.02 7.86987C101.947 7.9212 101.888 7.9872 101.844 8.06787C101.808 8.1412 101.789 8.22553 101.789 8.32087C101.797 8.4162 101.819 8.5042 101.855 8.58487C101.899 8.6582 101.958 8.72053 102.031 8.77187C102.105 8.8232 102.222 8.88187 102.383 8.94787C102.545 9.01387 102.754 9.0762 103.01 9.13487C103.37 9.2302 103.67 9.33653 103.912 9.45387C104.154 9.5712 104.345 9.70687 104.484 9.86087C104.624 9.99287 104.723 10.1469 104.781 10.3229C104.84 10.4989 104.869 10.6969 104.869 10.9169C104.869 11.2615 104.77 11.5695 104.572 11.8409C104.382 12.1049 104.121 12.3139 103.791 12.4679C103.461 12.6219 103.087 12.6989 102.669 12.6989Z" fill="#2563EB"></path> <defs> <filter id="filter0_dd_52_203056" x="3" y="60.5889" width="296" height="262" filterUnits="userSpaceOnUse" color-interpolation-filters="sRGB"> <feFlood flood-opacity="0" result="BackgroundImageFix"></feFlood> <feColorMatrix in="SourceAlpha" type="matrix" values="0 0 0 0 0 0 0 0 0 0 0 0 0 0 0 0 0 0 127 0" result="hardAlpha"></feColorMatrix> <feMorphology radius="1" operator="dilate" in="SourceAlpha" result="effect1_dropShadow_52_203056"></feMorphology> <feOffset dy="1"></feOffset> <feGaussianBlur stdDeviation="1.5"></feGaussianBlur> <feColorMatrix type="matrix" values="0 0 0 0 0 0 0 0 0 0 0 0 0 0 0 0 0 0 0.15 0"></feColorMatrix> <feBlend mode="normal" in2="BackgroundImageFix" result="effect1_dropShadow_52_203056"></feBlend> <feColorMatrix in="SourceAlpha" type="matrix" values="0 0 0 0 0 0 0 0 0 0 0 0 0 0 0 0 0 0 127 0" result="hardAlpha"></feColorMatrix> <feOffset dy="1"></feOffset> <feGaussianBlur stdDeviation="1"></feGaussianBlur> <feColorMatrix type="matrix" values="0 0 0 0 0 0 0 0 0 0 0 0 0 0 0 0 0 0 0.3 0"></feColorMatrix> <feBlend mode="normal" in2="effect1_dropShadow_52_203056" result="effect2_dropShadow_52_203056"></feBlend> <feBlend mode="normal" in="SourceGraphic" in2="effect2_dropShadow_52_203056" result="shape"></feBlend> </filter> <clipPath id="clip0_52_203056"> <rect width="288" height="56" fill="white" transform="translate(7 7.58887)"></rect> </clipPath> <clipPath id="clip1_52_203056"> <rect width="24" height="24" fill="white" transform="translate(247 23.5889)"></rect> </clipPath> <clipPath id="clip2_52_203056"> <rect width="288" height="240" fill="white" transform="translate(7 70.5889)"></rect> </clipPath> <clipPath id="clip3_52_203056"> <rect width="264" height="20" fill="white" transform="translate(19 84.5889)"></rect> </clipPath> <clipPath id="clip4_52_203056"> <rect width="288" height="48" fill="white" transform="translate(7 118.589)"></rect> </clipPath> <clipPath id="clip5_52_203056"> <rect width="264" height="20" fill="white" transform="translate(19 132.589)"></rect> </clipPath> <clipPath id="clip6_52_203056"> <rect width="264" height="20" fill="white" transform="translate(19 180.589)"></rect> </clipPath> <clipPath id="clip7_52_203056"> <rect width="264" height="20" fill="white" transform="translate(19 228.589)"></rect> </clipPath> <clipPath id="clip8_52_203056"> <rect width="264" height="20" fill="white" transform="translate(19 276.589)"></rect> </clipPath> </defs> </svg> 