<?xml version="1.0" encoding="UTF-8"?> <svg xmlns="http://www.w3.org/2000/svg" width="390" height="325" viewBox="0 0 390 325" fill="none"> <g clip-path="url(#clip0_55_196332)"> <g filter="url(#filter0_b_55_196332)"> <g clip-path="url(#clip1_55_196332)"> <rect x="30" y="247" width="113" height="48" rx="8" fill="#E6E6E6" fill-opacity="0.7"></rect> <path d="M52.2257 263.811C51.8351 263.42 51.202 263.42 50.8114 263.811C50.4209 264.201 50.4209 264.835 50.8114 265.225L56.5862 271L50.8115 276.775C50.421 277.165 50.421 277.798 50.8115 278.189C51.202 278.579 51.8352 278.579 52.2257 278.189L58.0004 272.414L63.7751 278.189C64.1656 278.579 64.7988 278.579 65.1893 278.189C65.5798 277.798 65.5798 277.165 65.1893 276.775L59.4146 271L65.1893 265.225C65.5799 264.835 65.5799 264.201 65.1893 263.811C64.7988 263.42 64.1657 263.42 63.7751 263.811L58.0004 269.586L52.2257 263.811Z" fill="#ED9526"></path> <path d="M87.992 277.24C86.84 277.24 85.8533 276.989 85.032 276.488C84.2107 275.981 83.5787 275.277 83.136 274.376C82.6987 273.475 82.48 272.429 82.48 271.24C82.48 270.051 82.6987 269.005 83.136 268.104C83.5787 267.203 84.2107 266.501 85.032 266C85.8533 265.493 86.84 265.24 87.992 265.24C89.32 265.24 90.4267 265.573 91.312 266.24C92.1973 266.901 92.8187 267.795 93.176 268.92L91.232 269.456C91.008 268.704 90.6267 268.117 90.088 267.696C89.5493 267.269 88.8507 267.056 87.992 267.056C87.2187 267.056 86.5733 267.229 86.056 267.576C85.544 267.923 85.1573 268.411 84.896 269.04C84.64 269.664 84.5093 270.397 84.504 271.24C84.504 272.083 84.632 272.819 84.888 273.448C85.1493 274.072 85.5387 274.557 86.056 274.904C86.5733 275.251 87.2187 275.424 87.992 275.424C88.8507 275.424 89.5493 275.211 90.088 274.784C90.6267 274.357 91.008 273.771 91.232 273.024L93.176 273.56C92.8187 274.685 92.1973 275.581 91.312 276.248C90.4267 276.909 89.32 277.24 87.992 277.24ZM95.8925 277V265.24H97.8205V277H95.8925ZM104.945 277.24C104.07 277.24 103.302 277.051 102.641 276.672C101.98 276.293 101.462 275.768 101.089 275.096C100.721 274.424 100.537 273.651 100.537 272.776C100.537 271.832 100.718 271.013 101.081 270.32C101.444 269.621 101.948 269.08 102.593 268.696C103.238 268.312 103.985 268.12 104.833 268.12C105.729 268.12 106.489 268.331 107.113 268.752C107.742 269.168 108.209 269.757 108.513 270.52C108.817 271.283 108.932 272.181 108.857 273.216H106.945V272.512C106.94 271.573 106.774 270.888 106.449 270.456C106.124 270.024 105.612 269.808 104.913 269.808C104.124 269.808 103.537 270.053 103.153 270.544C102.769 271.029 102.577 271.741 102.577 272.68C102.577 273.555 102.769 274.232 103.153 274.712C103.537 275.192 104.097 275.432 104.833 275.432C105.308 275.432 105.716 275.328 106.057 275.12C106.404 274.907 106.67 274.6 106.857 274.2L108.761 274.776C108.43 275.555 107.918 276.16 107.225 276.592C106.537 277.024 105.777 277.24 104.945 277.24ZM101.969 273.216V271.76H107.913V273.216H101.969ZM113.702 277.24C113.078 277.24 112.55 277.123 112.118 276.888C111.686 276.648 111.358 276.331 111.134 275.936C110.915 275.541 110.806 275.107 110.806 274.632C110.806 274.216 110.875 273.843 111.014 273.512C111.152 273.176 111.366 272.888 111.654 272.648C111.942 272.403 112.315 272.203 112.774 272.048C113.12 271.936 113.526 271.835 113.99 271.744C114.459 271.653 114.966 271.571 115.51 271.496C116.059 271.416 116.632 271.331 117.23 271.24L116.542 271.632C116.547 271.035 116.414 270.595 116.142 270.312C115.87 270.029 115.411 269.888 114.766 269.888C114.376 269.888 114 269.979 113.638 270.16C113.275 270.341 113.022 270.653 112.878 271.096L111.118 270.544C111.331 269.813 111.736 269.227 112.334 268.784C112.936 268.341 113.747 268.12 114.766 268.12C115.534 268.12 116.208 268.245 116.79 268.496C117.376 268.747 117.811 269.157 118.094 269.728C118.248 270.032 118.342 270.344 118.374 270.664C118.406 270.979 118.422 271.323 118.422 271.696V277H116.734V275.128L117.014 275.432C116.624 276.056 116.168 276.515 115.646 276.808C115.128 277.096 114.48 277.24 113.702 277.24ZM114.086 275.704C114.523 275.704 114.896 275.627 115.206 275.472C115.515 275.317 115.76 275.128 115.942 274.904C116.128 274.68 116.254 274.469 116.318 274.272C116.419 274.027 116.475 273.747 116.486 273.432C116.502 273.112 116.51 272.853 116.51 272.656L117.102 272.832C116.52 272.923 116.022 273.003 115.606 273.072C115.19 273.141 114.832 273.208 114.534 273.272C114.235 273.331 113.971 273.397 113.742 273.472C113.518 273.552 113.328 273.645 113.174 273.752C113.019 273.859 112.899 273.981 112.814 274.12C112.734 274.259 112.694 274.421 112.694 274.608C112.694 274.821 112.747 275.011 112.854 275.176C112.96 275.336 113.115 275.464 113.318 275.56C113.526 275.656 113.782 275.704 114.086 275.704ZM121.304 277V268.36H123.008V270.464L122.8 270.192C122.907 269.904 123.048 269.643 123.224 269.408C123.406 269.168 123.622 268.971 123.872 268.816C124.086 268.672 124.32 268.56 124.576 268.48C124.838 268.395 125.104 268.344 125.376 268.328C125.648 268.307 125.912 268.317 126.168 268.36V270.16C125.912 270.085 125.616 270.061 125.28 270.088C124.95 270.115 124.651 270.208 124.384 270.368C124.118 270.512 123.899 270.696 123.728 270.92C123.563 271.144 123.44 271.4 123.36 271.688C123.28 271.971 123.24 272.277 123.24 272.608V277H121.304Z" fill="#414141"></path> </g> </g> <g filter="url(#filter1_dd_55_196332)"> <g clip-path="url(#clip2_55_196332)"> <rect x="159" y="247" width="201" height="48" rx="8" fill="#0F56B3"></rect> <path d="M176.12 277V265.48H180.88C180.992 265.48 181.136 265.485 181.312 265.496C181.488 265.501 181.651 265.517 181.8 265.544C182.467 265.645 183.016 265.867 183.448 266.208C183.885 266.549 184.208 266.981 184.416 267.504C184.629 268.021 184.736 268.597 184.736 269.232C184.736 270.171 184.499 270.979 184.024 271.656C183.549 272.328 182.821 272.744 181.84 272.904L181.016 272.976H178.048V277H176.12ZM182.736 277L180.464 272.312L182.424 271.88L184.92 277H182.736ZM178.048 271.176H180.8C180.907 271.176 181.027 271.171 181.16 271.16C181.293 271.149 181.416 271.128 181.528 271.096C181.848 271.016 182.099 270.875 182.28 270.672C182.467 270.469 182.597 270.24 182.672 269.984C182.752 269.728 182.792 269.477 182.792 269.232C182.792 268.987 182.752 268.736 182.672 268.48C182.597 268.219 182.467 267.987 182.28 267.784C182.099 267.581 181.848 267.44 181.528 267.36C181.416 267.328 181.293 267.309 181.16 267.304C181.027 267.293 180.907 267.288 180.8 267.288H178.048V271.176ZM191.411 277.24C190.536 277.24 189.768 277.051 189.107 276.672C188.445 276.293 187.928 275.768 187.555 275.096C187.187 274.424 187.003 273.651 187.003 272.776C187.003 271.832 187.184 271.013 187.547 270.32C187.909 269.621 188.413 269.08 189.059 268.696C189.704 268.312 190.451 268.12 191.299 268.12C192.195 268.12 192.955 268.331 193.579 268.752C194.208 269.168 194.675 269.757 194.979 270.52C195.283 271.283 195.397 272.181 195.323 273.216H193.411V272.512C193.405 271.573 193.24 270.888 192.915 270.456C192.589 270.024 192.077 269.808 191.379 269.808C190.589 269.808 190.003 270.053 189.619 270.544C189.235 271.029 189.043 271.741 189.043 272.68C189.043 273.555 189.235 274.232 189.619 274.712C190.003 275.192 190.563 275.432 191.299 275.432C191.773 275.432 192.181 275.328 192.523 275.12C192.869 274.907 193.136 274.6 193.323 274.2L195.227 274.776C194.896 275.555 194.384 276.16 193.691 276.592C193.003 277.024 192.243 277.24 191.411 277.24ZM188.435 273.216V271.76H194.379V273.216H188.435ZM201.244 277.24C200.177 277.24 199.31 277 198.644 276.52C197.977 276.04 197.572 275.365 197.428 274.496L199.396 274.192C199.497 274.619 199.721 274.955 200.068 275.2C200.414 275.445 200.852 275.568 201.38 275.568C201.844 275.568 202.201 275.477 202.452 275.296C202.708 275.109 202.836 274.856 202.836 274.536C202.836 274.339 202.788 274.181 202.692 274.064C202.601 273.941 202.398 273.824 202.084 273.712C201.769 273.6 201.286 273.459 200.636 273.288C199.91 273.096 199.334 272.891 198.908 272.672C198.481 272.448 198.174 272.184 197.988 271.88C197.801 271.576 197.708 271.208 197.708 270.776C197.708 270.237 197.849 269.768 198.132 269.368C198.414 268.968 198.809 268.661 199.316 268.448C199.822 268.229 200.42 268.12 201.108 268.12C201.78 268.12 202.374 268.224 202.892 268.432C203.414 268.64 203.836 268.936 204.156 269.32C204.476 269.704 204.673 270.155 204.748 270.672L202.78 271.024C202.732 270.656 202.564 270.365 202.276 270.152C201.993 269.939 201.614 269.819 201.14 269.792C200.686 269.765 200.321 269.835 200.044 270C199.766 270.16 199.628 270.387 199.628 270.68C199.628 270.845 199.684 270.987 199.796 271.104C199.908 271.221 200.132 271.339 200.468 271.456C200.809 271.573 201.316 271.717 201.988 271.888C202.676 272.064 203.225 272.267 203.636 272.496C204.052 272.72 204.35 272.989 204.532 273.304C204.718 273.619 204.812 274 204.812 274.448C204.812 275.317 204.494 276 203.86 276.496C203.23 276.992 202.358 277.24 201.244 277.24ZM211.292 277.24C210.417 277.24 209.649 277.051 208.988 276.672C208.326 276.293 207.809 275.768 207.436 275.096C207.068 274.424 206.884 273.651 206.884 272.776C206.884 271.832 207.065 271.013 207.428 270.32C207.79 269.621 208.294 269.08 208.94 268.696C209.585 268.312 210.332 268.12 211.18 268.12C212.076 268.12 212.836 268.331 213.46 268.752C214.089 269.168 214.556 269.757 214.86 270.52C215.164 271.283 215.278 272.181 215.204 273.216H213.292V272.512C213.286 271.573 213.121 270.888 212.796 270.456C212.47 270.024 211.958 269.808 211.26 269.808C210.47 269.808 209.884 270.053 209.5 270.544C209.116 271.029 208.924 271.741 208.924 272.68C208.924 273.555 209.116 274.232 209.5 274.712C209.884 275.192 210.444 275.432 211.18 275.432C211.654 275.432 212.062 275.328 212.404 275.12C212.75 274.907 213.017 274.6 213.204 274.2L215.108 274.776C214.777 275.555 214.265 276.16 213.572 276.592C212.884 277.024 212.124 277.24 211.292 277.24ZM208.316 273.216V271.76H214.26V273.216H208.316ZM222.853 277C222.282 277.107 221.722 277.152 221.173 277.136C220.629 277.125 220.141 277.027 219.709 276.84C219.277 276.648 218.949 276.347 218.725 275.936C218.527 275.563 218.423 275.181 218.413 274.792C218.402 274.403 218.397 273.963 218.397 273.472V265.96H220.317V273.36C220.317 273.707 220.319 274.011 220.325 274.272C220.335 274.533 220.391 274.747 220.493 274.912C220.685 275.232 220.991 275.411 221.413 275.448C221.834 275.485 222.314 275.464 222.853 275.384V277ZM216.829 269.872V268.36H222.853V269.872H216.829ZM229.514 277V265.48H234.274C234.386 265.48 234.53 265.485 234.706 265.496C234.882 265.501 235.044 265.517 235.194 265.544C235.86 265.645 236.41 265.867 236.842 266.208C237.279 266.549 237.602 266.981 237.81 267.504C238.023 268.021 238.13 268.597 238.13 269.232C238.13 270.171 237.892 270.979 237.418 271.656C236.943 272.328 236.215 272.744 235.234 272.904L234.41 272.976H231.442V277H229.514ZM236.13 277L233.858 272.312L235.818 271.88L238.314 277H236.13ZM231.442 271.176H234.194C234.3 271.176 234.42 271.171 234.554 271.16C234.687 271.149 234.81 271.128 234.922 271.096C235.242 271.016 235.492 270.875 235.674 270.672C235.86 270.469 235.991 270.24 236.066 269.984C236.146 269.728 236.186 269.477 236.186 269.232C236.186 268.987 236.146 268.736 236.066 268.48C235.991 268.219 235.86 267.987 235.674 267.784C235.492 267.581 235.242 267.44 234.922 267.36C234.81 267.328 234.687 267.309 234.554 267.304C234.42 267.293 234.3 267.288 234.194 267.288H231.442V271.176ZM244.804 277.24C243.93 277.24 243.162 277.051 242.5 276.672C241.839 276.293 241.322 275.768 240.948 275.096C240.58 274.424 240.396 273.651 240.396 272.776C240.396 271.832 240.578 271.013 240.94 270.32C241.303 269.621 241.807 269.08 242.452 268.696C243.098 268.312 243.844 268.12 244.692 268.12C245.588 268.12 246.348 268.331 246.972 268.752C247.602 269.168 248.068 269.757 248.372 270.52C248.676 271.283 248.791 272.181 248.716 273.216H246.804V272.512C246.799 271.573 246.634 270.888 246.308 270.456C245.983 270.024 245.471 269.808 244.772 269.808C243.983 269.808 243.396 270.053 243.012 270.544C242.628 271.029 242.436 271.741 242.436 272.68C242.436 273.555 242.628 274.232 243.012 274.712C243.396 275.192 243.956 275.432 244.692 275.432C245.167 275.432 245.575 275.328 245.916 275.12C246.263 274.907 246.53 274.6 246.716 274.2L248.62 274.776C248.29 275.555 247.778 276.16 247.084 276.592C246.396 277.024 245.636 277.24 244.804 277.24ZM241.828 273.216V271.76H247.772V273.216H241.828ZM254.637 277.24C253.571 277.24 252.704 277 252.037 276.52C251.371 276.04 250.965 275.365 250.821 274.496L252.789 274.192C252.891 274.619 253.115 274.955 253.461 275.2C253.808 275.445 254.245 275.568 254.773 275.568C255.237 275.568 255.595 275.477 255.845 275.296C256.101 275.109 256.229 274.856 256.229 274.536C256.229 274.339 256.181 274.181 256.085 274.064C255.995 273.941 255.792 273.824 255.477 273.712C255.163 273.6 254.68 273.459 254.029 273.288C253.304 273.096 252.728 272.891 252.301 272.672C251.875 272.448 251.568 272.184 251.381 271.88C251.195 271.576 251.101 271.208 251.101 270.776C251.101 270.237 251.243 269.768 251.525 269.368C251.808 268.968 252.203 268.661 252.709 268.448C253.216 268.229 253.813 268.12 254.501 268.12C255.173 268.12 255.768 268.224 256.285 268.432C256.808 268.64 257.229 268.936 257.549 269.32C257.869 269.704 258.067 270.155 258.141 270.672L256.173 271.024C256.125 270.656 255.957 270.365 255.669 270.152C255.387 269.939 255.008 269.819 254.533 269.792C254.08 269.765 253.715 269.835 253.437 270C253.16 270.16 253.021 270.387 253.021 270.68C253.021 270.845 253.077 270.987 253.189 271.104C253.301 271.221 253.525 271.339 253.861 271.456C254.203 271.573 254.709 271.717 255.381 271.888C256.069 272.064 256.619 272.267 257.029 272.496C257.445 272.72 257.744 272.989 257.925 273.304C258.112 273.619 258.205 274 258.205 274.448C258.205 275.317 257.888 276 257.253 276.496C256.624 276.992 255.752 277.24 254.637 277.24ZM263.997 277.248C263.357 277.248 262.829 277.141 262.413 276.928C261.997 276.715 261.667 276.443 261.421 276.112C261.176 275.781 260.995 275.429 260.877 275.056C260.76 274.683 260.683 274.331 260.645 274C260.613 273.664 260.597 273.392 260.597 273.184V268.36H262.549V272.52C262.549 272.787 262.568 273.088 262.605 273.424C262.643 273.755 262.728 274.075 262.861 274.384C263 274.688 263.203 274.939 263.469 275.136C263.741 275.333 264.107 275.432 264.565 275.432C264.811 275.432 265.053 275.392 265.293 275.312C265.533 275.232 265.749 275.096 265.941 274.904C266.139 274.707 266.296 274.437 266.413 274.096C266.531 273.755 266.589 273.323 266.589 272.8L267.733 273.288C267.733 274.024 267.589 274.691 267.301 275.288C267.019 275.885 266.6 276.363 266.045 276.72C265.491 277.072 264.808 277.248 263.997 277.248ZM266.821 277V274.32H266.589V268.36H268.525V277H266.821ZM271.733 277V265.24H273.661V277H271.733ZM281.922 277C281.351 277.107 280.791 277.152 280.242 277.136C279.698 277.125 279.21 277.027 278.778 276.84C278.346 276.648 278.018 276.347 277.794 275.936C277.596 275.563 277.492 275.181 277.482 274.792C277.471 274.403 277.466 273.963 277.466 273.472V265.96H279.386V273.36C279.386 273.707 279.388 274.011 279.394 274.272C279.404 274.533 279.46 274.747 279.562 274.912C279.754 275.232 280.06 275.411 280.482 275.448C280.903 275.485 281.383 275.464 281.922 275.384V277ZM275.898 269.872V268.36H281.922V269.872H275.898ZM287.915 277.24C286.849 277.24 285.982 277 285.315 276.52C284.649 276.04 284.243 275.365 284.099 274.496L286.067 274.192C286.169 274.619 286.393 274.955 286.739 275.2C287.086 275.445 287.523 275.568 288.051 275.568C288.515 275.568 288.873 275.477 289.123 275.296C289.379 275.109 289.507 274.856 289.507 274.536C289.507 274.339 289.459 274.181 289.363 274.064C289.273 273.941 289.07 273.824 288.755 273.712C288.441 273.6 287.958 273.459 287.307 273.288C286.582 273.096 286.006 272.891 285.579 272.672C285.153 272.448 284.846 272.184 284.659 271.88C284.473 271.576 284.379 271.208 284.379 270.776C284.379 270.237 284.521 269.768 284.803 269.368C285.086 268.968 285.481 268.661 285.987 268.448C286.494 268.229 287.091 268.12 287.779 268.12C288.451 268.12 289.046 268.224 289.563 268.432C290.086 268.64 290.507 268.936 290.827 269.32C291.147 269.704 291.345 270.155 291.419 270.672L289.451 271.024C289.403 270.656 289.235 270.365 288.947 270.152C288.665 269.939 288.286 269.819 287.811 269.792C287.358 269.765 286.993 269.835 286.715 270C286.438 270.16 286.299 270.387 286.299 270.68C286.299 270.845 286.355 270.987 286.467 271.104C286.579 271.221 286.803 271.339 287.139 271.456C287.481 271.573 287.987 271.717 288.659 271.888C289.347 272.064 289.897 272.267 290.307 272.496C290.723 272.72 291.022 272.989 291.203 273.304C291.39 273.619 291.483 274 291.483 274.448C291.483 275.317 291.166 276 290.531 276.496C289.902 276.992 289.03 277.24 287.915 277.24Z" fill="#C5DCFA"></path> <rect x="305" y="259" width="39" height="24" rx="12" fill="#0A3977"></rect> <path d="M315.447 276V267.761L313.557 268.916V267.054L315.447 265.92H317.169V276H315.447ZM321.02 275.986V274.516L325.332 270.673C325.668 270.374 325.902 270.092 326.032 269.826C326.163 269.56 326.228 269.303 326.228 269.056C326.228 268.72 326.156 268.421 326.011 268.16C325.867 267.894 325.666 267.684 325.409 267.53C325.157 267.376 324.866 267.299 324.534 267.299C324.184 267.299 323.874 267.381 323.603 267.544C323.337 267.703 323.13 267.915 322.98 268.181C322.831 268.447 322.761 268.734 322.77 269.042H321.034C321.034 268.37 321.184 267.784 321.482 267.285C321.786 266.786 322.201 266.398 322.728 266.123C323.26 265.848 323.874 265.71 324.569 265.71C325.213 265.71 325.792 265.855 326.305 266.144C326.819 266.429 327.222 266.825 327.516 267.334C327.81 267.838 327.957 268.419 327.957 269.077C327.957 269.558 327.892 269.961 327.761 270.288C327.631 270.615 327.435 270.916 327.173 271.191C326.917 271.466 326.597 271.772 326.214 272.108L323.155 274.817L323.001 274.397H327.957V275.986H321.02ZM334.252 276V274.334H329.786V272.759L333.013 265.92H334.938L331.711 272.759H334.252V270.134H335.96V272.759H336.905V274.334H335.96V276H334.252Z" fill="#E0E0E0"></path> </g> </g> <rect x="0.5" y="0.5" width="389" height="324" rx="19.5" stroke="#A1A1A1"></rect> <rect x="30" y="123" width="56" height="56" rx="28" fill="#E0E0E0"></rect> <rect x="102" y="123" width="136" height="20" rx="6" fill="#E0E0E0"></rect> <rect opacity="0.64" x="102" y="159" width="214" height="20" rx="6" fill="#E0E0E0"></rect> <rect opacity="0.48" x="102" y="195" width="180" height="20" rx="6" fill="#E0E0E0"></rect> <g style="mix-blend-mode:multiply"> <rect x="30" y="-37" width="56" height="56" rx="28" fill="#E0E0E0"></rect> <rect opacity="0.64" x="102" y="-1" width="198" height="20" rx="6" fill="#E0E0E0"></rect> <rect opacity="0.48" x="102" y="35" width="208" height="20" rx="6" fill="#E0E0E0"></rect> <rect opacity="0.48" x="102" y="71" width="96" height="20" rx="6" fill="#E0E0E0"></rect> </g> </g> <defs> <filter id="filter0_b_55_196332" x="-10" y="207" width="193" height="128" filterUnits="userSpaceOnUse" color-interpolation-filters="sRGB"> <feFlood flood-opacity="0" result="BackgroundImageFix"></feFlood> <feGaussianBlur in="BackgroundImageFix" stdDeviation="20"></feGaussianBlur> <feComposite in2="SourceAlpha" operator="in" result="effect1_backgroundBlur_55_196332"></feComposite> <feBlend mode="normal" in="SourceGraphic" in2="effect1_backgroundBlur_55_196332" result="shape"></feBlend> </filter> <filter id="filter1_dd_55_196332" x="155" y="245" width="209" height="56" filterUnits="userSpaceOnUse" color-interpolation-filters="sRGB"> <feFlood flood-opacity="0" result="BackgroundImageFix"></feFlood> <feColorMatrix in="SourceAlpha" type="matrix" values="0 0 0 0 0 0 0 0 0 0 0 0 0 0 0 0 0 0 127 0" result="hardAlpha"></feColorMatrix> <feOffset dy="2"></feOffset> <feGaussianBlur stdDeviation="2"></feGaussianBlur> <feColorMatrix type="matrix" values="0 0 0 0 0.0588235 0 0 0 0 0.337255 0 0 0 0 0.701961 0 0 0 0.2 0"></feColorMatrix> <feBlend mode="multiply" in2="BackgroundImageFix" result="effect1_dropShadow_55_196332"></feBlend> <feColorMatrix in="SourceAlpha" type="matrix" values="0 0 0 0 0 0 0 0 0 0 0 0 0 0 0 0 0 0 127 0" result="hardAlpha"></feColorMatrix> <feOffset dy="1"></feOffset> <feGaussianBlur stdDeviation="1"></feGaussianBlur> <feColorMatrix type="matrix" values="0 0 0 0 0.0588235 0 0 0 0 0.337255 0 0 0 0 0.701961 0 0 0 0.2 0"></feColorMatrix> <feBlend mode="multiply" in2="effect1_dropShadow_55_196332" result="effect2_dropShadow_55_196332"></feBlend> <feBlend mode="normal" in="SourceGraphic" in2="effect2_dropShadow_55_196332" result="shape"></feBlend> </filter> <clipPath id="clip0_55_196332"> <rect width="390" height="325" fill="white"></rect> </clipPath> <clipPath id="clip1_55_196332"> <rect x="30" y="247" width="113" height="48" rx="8" fill="white"></rect> </clipPath> <clipPath id="clip2_55_196332"> <rect x="159" y="247" width="201" height="48" rx="8" fill="white"></rect> </clipPath> </defs> </svg> 