<?xml version="1.0" encoding="UTF-8"?> <svg xmlns="http://www.w3.org/2000/svg" width="277" height="284" viewBox="0 0 277 284" fill="none"> <g clip-path="url(#clip0_52_208215)"> <rect width="277" height="284" rx="20" fill="white"></rect> <path d="M250 238.625C243.716 238.625 238.625 243.716 238.625 250C238.625 256.284 243.716 261.375 250 261.375C256.284 261.375 261.375 256.284 261.375 250C261.375 243.716 256.284 238.625 250 238.625ZM255.824 246.855L248.512 254.2H248.507C248.414 254.293 248.163 254.501 247.873 254.501C247.665 254.501 247.43 254.386 247.233 254.189L244.17 251.127C244.083 251.039 244.083 250.902 244.17 250.815L245.144 249.841C245.188 249.798 245.242 249.776 245.297 249.776C245.352 249.776 245.406 249.798 245.45 249.841L247.878 252.27L254.55 245.548C254.594 245.505 254.648 245.483 254.703 245.483C254.763 245.483 254.818 245.505 254.856 245.548L255.813 246.538C255.912 246.631 255.912 246.768 255.824 246.855Z" fill="#E6E4EA"></path> <path d="M66.7363 257H68.4355V242.908H66.7168L62.9668 245.604V247.371L66.6973 244.773H66.7363V257ZM77.3214 257.234C80.6027 257.234 82.4972 254.393 82.4972 249.939C82.4972 245.516 80.5929 242.674 77.3214 242.674C74.0499 242.674 72.1261 245.535 72.1261 249.949C72.1261 254.402 74.0304 257.234 77.3214 257.234ZM77.3214 255.701C75.1144 255.701 73.8937 253.455 73.8937 249.939C73.8937 246.502 75.1437 244.217 77.3214 244.217C79.4991 244.217 80.7296 246.482 80.7296 249.949C80.7296 253.465 79.5187 255.701 77.3214 255.701ZM90.592 252.234H94.5178V250.652H90.592V246.531H89.01V250.652H85.0842V252.234H89.01V256.355H90.592V252.234ZM101.391 253.221C101.557 255.652 103.608 257.234 106.684 257.234C109.838 257.234 111.889 255.604 111.889 252.996C111.889 251.004 110.727 249.832 107.788 249.188L106.225 248.846C104.301 248.426 103.549 247.664 103.549 246.551C103.549 245.115 104.907 244.256 106.665 244.256C108.5 244.256 109.721 245.203 109.877 246.746H111.635C111.557 244.354 109.526 242.674 106.713 242.674C103.793 242.674 101.743 244.305 101.743 246.629C101.743 248.631 102.963 249.91 105.786 250.525L107.348 250.867C109.301 251.297 110.083 252.078 110.083 253.26C110.083 254.646 108.696 255.652 106.782 255.652C104.76 255.652 103.354 254.734 103.149 253.221H101.391ZM114.613 244.393V246.844H113.099V248.24H114.613V254.363C114.613 256.316 115.336 257.078 117.201 257.078C117.601 257.078 118.07 257.049 118.275 257V255.574C118.158 255.594 117.767 255.623 117.572 255.623C116.703 255.623 116.312 255.203 116.312 254.275V248.24H118.285V246.844H116.312V244.393H114.613ZM124.397 257.176C127.2 257.176 129.094 255.154 129.094 251.922C129.094 248.68 127.2 246.668 124.397 246.668C121.585 246.668 119.69 248.68 119.69 251.922C119.69 255.154 121.585 257.176 124.397 257.176ZM124.397 255.682C122.6 255.682 121.419 254.314 121.419 251.922C121.419 249.529 122.6 248.162 124.397 248.162C126.194 248.162 127.366 249.529 127.366 251.922C127.366 254.314 126.194 255.682 124.397 255.682ZM136.125 246.668C134.65 246.668 133.469 247.42 132.844 248.562H132.805V246.844H131.193V260.389H132.892V255.35H132.931C133.537 256.463 134.709 257.176 136.164 257.176C138.723 257.176 140.471 255.105 140.471 251.922C140.471 248.738 138.713 246.668 136.125 246.668ZM135.793 255.682C134.055 255.682 132.883 254.188 132.883 251.922C132.883 249.666 134.055 248.162 135.793 248.162C137.599 248.162 138.732 249.627 138.732 251.922C138.732 254.227 137.599 255.682 135.793 255.682ZM142.394 249.646C142.394 251.111 143.321 252 145.235 252.459L146.847 252.85C148.009 253.133 148.409 253.553 148.409 254.285C148.409 255.203 147.56 255.789 146.183 255.789C144.806 255.789 144.024 255.232 143.819 254.07H142.12C142.315 255.975 143.8 257.176 146.183 257.176C148.448 257.176 150.118 255.926 150.118 254.158C150.118 252.703 149.376 251.902 147.325 251.404L145.714 251.014C144.581 250.74 144.063 250.262 144.063 249.559C144.063 248.67 144.884 248.055 146.124 248.055C147.374 248.055 148.155 248.709 148.282 249.773H149.903C149.835 247.977 148.351 246.668 146.124 246.668C143.927 246.668 142.394 247.908 142.394 249.646Z" fill="#232326"></path> <rect x="16" y="238" width="34" height="24" rx="12" fill="#34C759"></rect> <path d="M23.1374 253.706V251.925L28.3835 243.636H29.8686V246.172H28.963L25.4314 251.768V251.865H32.7542V253.706H23.1374ZM29.0355 256V253.163L29.0596 252.366V243.636H31.1726V256H29.0355ZM38.6679 256.169C37.7704 256.169 36.9736 256.018 36.2773 255.716C35.5851 255.414 35.0417 255.002 34.6473 254.479C34.2569 253.951 34.0638 253.354 34.0678 252.686C34.0638 252.167 34.1764 251.69 34.4059 251.255C34.6353 250.82 34.9451 250.458 35.3355 250.168C35.73 249.875 36.1686 249.687 36.6516 249.607V249.522C36.0157 249.382 35.5005 249.058 35.1061 248.55C34.7157 248.039 34.5226 247.45 34.5266 246.782C34.5226 246.146 34.6996 245.578 35.0578 245.079C35.416 244.58 35.907 244.188 36.5309 243.902C37.1547 243.612 37.867 243.467 38.6679 243.467C39.4608 243.467 40.1671 243.612 40.7869 243.902C41.4107 244.188 41.9017 244.58 42.2599 245.079C42.6221 245.578 42.8032 246.146 42.8032 246.782C42.8032 247.45 42.604 248.039 42.2056 248.55C41.8112 249.058 41.302 249.382 40.6782 249.522V249.607C41.1612 249.687 41.5958 249.875 41.9822 250.168C42.3726 250.458 42.6825 250.82 42.9119 251.255C43.1453 251.69 43.262 252.167 43.262 252.686C43.262 253.354 43.0648 253.951 42.6704 254.479C42.276 255.002 41.7327 255.414 41.0404 255.716C40.3522 256.018 39.5614 256.169 38.6679 256.169ZM38.6679 254.442C39.1308 254.442 39.5332 254.364 39.8753 254.207C40.2174 254.046 40.483 253.821 40.6722 253.531C40.8613 253.241 40.9579 252.907 40.962 252.529C40.9579 252.134 40.8553 251.786 40.6541 251.484C40.4569 251.179 40.1852 250.939 39.8391 250.766C39.497 250.593 39.1066 250.506 38.6679 250.506C38.2252 250.506 37.8308 250.593 37.4847 250.766C37.1386 250.939 36.8649 251.179 36.6637 251.484C36.4665 251.786 36.3699 252.134 36.3739 252.529C36.3699 252.907 36.4624 253.241 36.6516 253.531C36.8407 253.817 37.1064 254.04 37.4485 254.201C37.7946 254.362 38.2011 254.442 38.6679 254.442ZM38.6679 248.81C39.0462 248.81 39.3803 248.734 39.6701 248.581C39.9639 248.428 40.1953 248.214 40.3643 247.941C40.5333 247.667 40.6199 247.351 40.6239 246.993C40.6199 246.639 40.5353 246.329 40.3703 246.063C40.2053 245.794 39.9759 245.586 39.6821 245.441C39.3883 245.292 39.0503 245.218 38.6679 245.218C38.2775 245.218 37.9334 245.292 37.6356 245.441C37.3418 245.586 37.1124 245.794 36.9474 246.063C36.7864 246.329 36.7079 246.639 36.712 246.993C36.7079 247.351 36.7884 247.667 36.9534 247.941C37.1225 248.21 37.3539 248.424 37.6477 248.581C37.9455 248.734 38.2856 248.81 38.6679 248.81Z" fill="white"></path> <line x1="1.03516" y1="225.5" x2="279" y2="225.5" stroke="#E6E4EA"></line> <path d="M250 190.625C243.716 190.625 238.625 195.716 238.625 202C238.625 208.284 243.716 213.375 250 213.375C256.284 213.375 261.375 208.284 261.375 202C261.375 195.716 256.284 190.625 250 190.625ZM255.824 198.855L248.512 206.2H248.507C248.414 206.293 248.163 206.501 247.873 206.501C247.665 206.501 247.43 206.386 247.233 206.189L244.17 203.127C244.083 203.039 244.083 202.902 244.17 202.815L245.144 201.841C245.188 201.798 245.242 201.776 245.297 201.776C245.352 201.776 245.406 201.798 245.45 201.841L247.878 204.27L254.55 197.548C254.594 197.505 254.648 197.483 254.703 197.483C254.763 197.483 254.818 197.505 254.856 197.548L255.813 198.538C255.912 198.631 255.912 198.768 255.824 198.855Z" fill="#E6E4EA"></path> <path d="M63.0547 198.98H64.7539C64.7539 197.398 66.0625 196.207 67.8008 196.207C69.4121 196.207 70.4473 197.311 70.4473 198.697C70.4473 199.869 70.0078 200.631 68.1035 202.613L63.1426 207.789V209H72.4395V207.438H65.5547V207.398L68.9043 203.961C71.4922 201.305 72.2051 200.143 72.2051 198.59C72.2051 196.451 70.4082 194.674 67.8008 194.674C65.0859 194.674 63.0547 196.51 63.0547 198.98ZM81.1984 204.078V202.496H74.7921V204.078H81.1984ZM88.6487 209.234C91.5881 209.234 93.6682 207.252 93.6682 204.42C93.6682 201.715 91.7151 199.752 89.01 199.752C87.6428 199.752 86.4709 200.26 85.8069 201.207H85.7678L86.2463 196.471H92.8674V194.908H84.801L84.0784 202.945H85.6311C86.2854 201.812 87.3596 201.266 88.6975 201.266C90.5725 201.266 91.9104 202.604 91.9104 204.469C91.9104 206.363 90.5823 207.691 88.6682 207.691C86.9788 207.691 85.6995 206.656 85.5432 205.152H83.8147C83.9612 207.555 85.9534 209.234 88.6487 209.234ZM99.9067 205.221C100.073 207.652 102.124 209.234 105.2 209.234C108.354 209.234 110.405 207.604 110.405 204.996C110.405 203.004 109.243 201.832 106.303 201.188L104.741 200.846C102.817 200.426 102.065 199.664 102.065 198.551C102.065 197.115 103.422 196.256 105.18 196.256C107.016 196.256 108.237 197.203 108.393 198.746H110.151C110.073 196.354 108.041 194.674 105.229 194.674C102.309 194.674 100.258 196.305 100.258 198.629C100.258 200.631 101.479 201.91 104.301 202.525L105.864 202.867C107.817 203.297 108.598 204.078 108.598 205.26C108.598 206.646 107.211 207.652 105.297 207.652C103.276 207.652 101.87 206.734 101.665 205.221H99.9067ZM113.129 196.393V198.844H111.615V200.24H113.129V206.363C113.129 208.316 113.851 209.078 115.716 209.078C116.117 209.078 116.586 209.049 116.791 209V207.574C116.673 207.594 116.283 207.623 116.088 207.623C115.218 207.623 114.828 207.203 114.828 206.275V200.24H116.8V198.844H114.828V196.393H113.129ZM122.913 209.176C125.716 209.176 127.61 207.154 127.61 203.922C127.61 200.68 125.716 198.668 122.913 198.668C120.1 198.668 118.206 200.68 118.206 203.922C118.206 207.154 120.1 209.176 122.913 209.176ZM122.913 207.682C121.116 207.682 119.934 206.314 119.934 203.922C119.934 201.529 121.116 200.162 122.913 200.162C124.71 200.162 125.882 201.529 125.882 203.922C125.882 206.314 124.71 207.682 122.913 207.682ZM134.64 198.668C133.166 198.668 131.984 199.42 131.359 200.562H131.32V198.844H129.709V212.389H131.408V207.35H131.447C132.053 208.463 133.224 209.176 134.68 209.176C137.238 209.176 138.986 207.105 138.986 203.922C138.986 200.738 137.228 198.668 134.64 198.668ZM134.308 207.682C132.57 207.682 131.398 206.188 131.398 203.922C131.398 201.666 132.57 200.162 134.308 200.162C136.115 200.162 137.248 201.627 137.248 203.922C137.248 206.227 136.115 207.682 134.308 207.682ZM140.909 201.646C140.909 203.111 141.837 204 143.751 204.459L145.362 204.85C146.524 205.133 146.925 205.553 146.925 206.285C146.925 207.203 146.075 207.789 144.698 207.789C143.321 207.789 142.54 207.232 142.335 206.07H140.636C140.831 207.975 142.315 209.176 144.698 209.176C146.964 209.176 148.634 207.926 148.634 206.158C148.634 204.703 147.892 203.902 145.841 203.404L144.229 203.014C143.097 202.74 142.579 202.262 142.579 201.559C142.579 200.67 143.399 200.055 144.64 200.055C145.89 200.055 146.671 200.709 146.798 201.773H148.419C148.351 199.977 146.866 198.668 144.64 198.668C142.442 198.668 140.909 199.908 140.909 201.646Z" fill="#232326"></path> <rect x="16" y="190" width="34" height="24" rx="12" fill="#34C759"></rect> <path d="M23.7177 208V206.382L28.01 202.174C28.4205 201.76 28.7626 201.392 29.0362 201.07C29.3099 200.748 29.5152 200.436 29.652 200.134C29.7888 199.832 29.8573 199.51 29.8573 199.168C29.8573 198.778 29.7687 198.444 29.5916 198.166C29.4146 197.884 29.1711 197.667 28.8612 197.514C28.5513 197.361 28.1991 197.284 27.8047 197.284C27.3982 197.284 27.042 197.369 26.7362 197.538C26.4303 197.703 26.1928 197.938 26.0238 198.244C25.8588 198.55 25.7763 198.914 25.7763 199.337H23.6453C23.6453 198.552 23.8244 197.87 24.1825 197.29C24.5407 196.711 25.0338 196.262 25.6616 195.944C26.2935 195.626 27.0179 195.467 27.8349 195.467C28.664 195.467 29.3924 195.622 30.0203 195.932C30.6481 196.242 31.1351 196.667 31.4812 197.206C31.8313 197.745 32.0064 198.361 32.0064 199.053C32.0064 199.516 31.9179 199.971 31.7408 200.418C31.5637 200.864 31.2518 201.359 30.8051 201.903C30.3624 202.446 29.7406 203.104 28.9397 203.877L26.8086 206.044V206.129H32.1936V208H23.7177ZM38.394 208.169C37.8024 208.165 37.2248 208.062 36.6614 207.861C36.098 207.656 35.5908 207.324 35.1401 206.865C34.6893 206.402 34.3311 205.788 34.0655 205.024C33.7999 204.255 33.6691 203.303 33.6731 202.168C33.6731 201.11 33.7858 200.166 34.0112 199.337C34.2366 198.508 34.5605 197.808 34.9831 197.236C35.4057 196.661 35.9148 196.222 36.5105 195.92C37.1101 195.618 37.7802 195.467 38.5208 195.467C39.2975 195.467 39.9857 195.62 40.5854 195.926C41.1891 196.232 41.6761 196.651 42.0463 197.182C42.4166 197.709 42.646 198.305 42.7346 198.969H40.5311C40.4184 198.494 40.187 198.116 39.8368 197.834C39.4907 197.548 39.052 197.405 38.5208 197.405C37.6635 197.405 37.0035 197.777 36.5407 198.522C36.0819 199.267 35.8504 200.289 35.8464 201.589H35.9309C36.1281 201.235 36.3837 200.931 36.6976 200.677C37.0115 200.424 37.3657 200.228 37.7601 200.092C38.1586 199.951 38.5791 199.88 39.0218 199.88C39.7463 199.88 40.3962 200.053 40.9718 200.4C41.5513 200.746 42.0101 201.223 42.3482 201.83C42.6863 202.434 42.8533 203.126 42.8493 203.907C42.8533 204.72 42.6681 205.45 42.2939 206.098C41.9196 206.742 41.3984 207.249 40.7303 207.62C40.0622 207.99 39.2834 208.173 38.394 208.169ZM38.3819 206.358C38.8206 206.358 39.213 206.251 39.5591 206.038C39.9052 205.825 40.1789 205.537 40.3801 205.175C40.5814 204.812 40.68 204.406 40.676 203.955C40.68 203.513 40.5834 203.112 40.3862 202.754C40.193 202.396 39.9254 202.112 39.5833 201.903C39.2412 201.693 38.8508 201.589 38.4121 201.589C38.0861 201.589 37.7823 201.651 37.5005 201.776C37.2188 201.901 36.9733 202.074 36.764 202.295C36.5547 202.512 36.3897 202.766 36.269 203.056C36.1523 203.342 36.0919 203.647 36.0879 203.973C36.0919 204.404 36.1925 204.8 36.3897 205.163C36.5869 205.525 36.8586 205.815 37.2047 206.032C37.5508 206.249 37.9432 206.358 38.3819 206.358Z" fill="white"></path> <line x1="1.03516" y1="177.5" x2="279" y2="177.5" stroke="#E6E4EA"></line> <path d="M250 142.625C243.716 142.625 238.625 147.716 238.625 154C238.625 160.284 243.716 165.375 250 165.375C256.284 165.375 261.375 160.284 261.375 154C261.375 147.716 256.284 142.625 250 142.625ZM255.824 150.855L248.512 158.2H248.507C248.414 158.293 248.163 158.501 247.873 158.501C247.665 158.501 247.43 158.386 247.233 158.189L244.17 155.127C244.083 155.039 244.083 154.902 244.17 154.815L245.144 153.841C245.188 153.798 245.242 153.776 245.297 153.776C245.352 153.776 245.406 153.798 245.45 153.841L247.878 156.27L254.55 149.548C254.594 149.505 254.648 149.483 254.703 149.483C254.763 149.483 254.818 149.505 254.856 149.548L255.813 150.538C255.912 150.631 255.912 150.768 255.824 150.855Z" fill="#007AFF"></path> <path d="M66.7363 161H68.4355V146.908H66.7168L62.9668 149.604V151.371L66.6973 148.773H66.7363V161ZM76.4123 157.221C76.5784 159.652 78.6291 161.234 81.7053 161.234C84.8596 161.234 86.9104 159.604 86.9104 156.996C86.9104 155.004 85.7483 153.832 82.8088 153.188L81.2463 152.846C79.3225 152.426 78.5705 151.664 78.5705 150.551C78.5705 149.115 79.928 148.256 81.6858 148.256C83.5217 148.256 84.7424 149.203 84.8987 150.746H86.6565C86.5784 148.354 84.5471 146.674 81.7346 146.674C78.8147 146.674 76.7639 148.305 76.7639 150.629C76.7639 152.631 77.9846 153.91 80.8069 154.525L82.3694 154.867C84.3225 155.297 85.1038 156.078 85.1038 157.26C85.1038 158.646 83.717 159.652 81.803 159.652C79.7815 159.652 78.3752 158.734 78.1702 157.221H76.4123ZM89.6341 148.393V150.844H88.1205V152.24H89.6341V158.363C89.6341 160.316 90.3568 161.078 92.222 161.078C92.6224 161.078 93.0912 161.049 93.2962 161V159.574C93.1791 159.594 92.7884 159.623 92.5931 159.623C91.724 159.623 91.3334 159.203 91.3334 158.275V152.24H93.306V150.844H91.3334V148.393H89.6341ZM99.4184 161.176C102.221 161.176 104.116 159.154 104.116 155.922C104.116 152.68 102.221 150.668 99.4184 150.668C96.6059 150.668 94.7114 152.68 94.7114 155.922C94.7114 159.154 96.6059 161.176 99.4184 161.176ZM99.4184 159.682C97.6216 159.682 96.4399 158.314 96.4399 155.922C96.4399 153.529 97.6216 152.162 99.4184 152.162C101.215 152.162 102.387 153.529 102.387 155.922C102.387 158.314 101.215 159.682 99.4184 159.682ZM111.146 150.668C109.671 150.668 108.49 151.42 107.865 152.562H107.826V150.844H106.214V164.389H107.914V159.35H107.953C108.558 160.463 109.73 161.176 111.185 161.176C113.744 161.176 115.492 159.105 115.492 155.922C115.492 152.738 113.734 150.668 111.146 150.668ZM110.814 159.682C109.076 159.682 107.904 158.188 107.904 155.922C107.904 153.666 109.076 152.162 110.814 152.162C112.621 152.162 113.754 153.627 113.754 155.922C113.754 158.227 112.621 159.682 110.814 159.682Z" fill="#232326"></path> <rect x="16" y="142" width="34" height="24" rx="12" fill="#34C759"></rect> <path d="M30.0746 147.636V160H27.8349V149.816H27.7625L24.8708 151.663V149.61L27.9436 147.636H30.0746ZM37.1021 160.169C36.2972 160.169 35.5768 160.018 34.9409 159.716C34.305 159.41 33.7999 158.992 33.4256 158.461C33.0553 157.929 32.8581 157.322 32.834 156.637H35.0073C35.0475 157.145 35.2669 157.559 35.6653 157.881C36.0637 158.199 36.5427 158.358 37.1021 158.358C37.5408 158.358 37.9312 158.257 38.2733 158.056C38.6154 157.855 38.885 157.575 39.0822 157.217C39.2794 156.859 39.376 156.45 39.372 155.991C39.376 155.525 39.2774 155.11 39.0762 154.748C38.8749 154.386 38.5993 154.102 38.2491 153.897C37.899 153.687 37.4965 153.583 37.0417 153.583C36.6715 153.579 36.3072 153.647 35.949 153.788C35.5909 153.929 35.3071 154.114 35.0978 154.343L33.0755 154.011L33.7214 147.636H40.8933V149.508H35.5748L35.2186 152.786H35.291C35.5204 152.516 35.8444 152.293 36.263 152.116C36.6815 151.935 37.1403 151.844 37.6394 151.844C38.388 151.844 39.056 152.021 39.6436 152.375C40.2312 152.725 40.6941 153.208 41.0321 153.824C41.3702 154.44 41.5392 155.144 41.5392 155.937C41.5392 156.754 41.3501 157.483 40.9718 158.123C40.5975 158.758 40.0763 159.259 39.4082 159.626C38.7441 159.988 37.9754 160.169 37.1021 160.169Z" fill="white"></path> <line x1="1.03516" y1="129.5" x2="279" y2="129.5" stroke="#E6E4EA"></line> <path d="M250 94.625C243.716 94.625 238.625 99.7164 238.625 106C238.625 112.284 243.716 117.375 250 117.375C256.284 117.375 261.375 112.284 261.375 106C261.375 99.7164 256.284 94.625 250 94.625ZM255.824 102.855L248.512 110.2H248.507C248.414 110.293 248.163 110.501 247.873 110.501C247.665 110.501 247.43 110.386 247.233 110.189L244.17 107.127C244.083 107.039 244.083 106.902 244.17 106.815L245.144 105.841C245.188 105.798 245.242 105.776 245.297 105.776C245.352 105.776 245.406 105.798 245.45 105.841L247.878 108.27L254.55 101.548C254.594 101.505 254.648 101.483 254.703 101.483C254.763 101.483 254.818 101.505 254.856 101.548L255.813 102.538C255.912 102.631 255.912 102.768 255.824 102.855Z" fill="#E6E4EA"></path> <path d="M63.3672 98.9082V113H68.1035C72.293 113 74.7539 110.393 74.7539 105.949C74.7539 101.516 72.2832 98.9082 68.1035 98.9082H63.3672ZM65.125 100.49H67.9863C71.1895 100.49 72.957 102.443 72.957 105.969C72.957 109.465 71.1797 111.418 67.9863 111.418H65.125V100.49ZM77.1456 113H78.8448V102.844H77.1456V113ZM77.9952 101.037C78.5909 101.037 79.0597 100.559 79.0597 99.9727C79.0597 99.377 78.5909 98.9082 77.9952 98.9082C77.4093 98.9082 76.9308 99.377 76.9308 99.9727C76.9308 100.559 77.4093 101.037 77.9952 101.037ZM81.5198 113H83.219V106.672C83.219 105.236 84.0784 104.289 85.3967 104.289C85.8069 104.289 86.1682 104.338 86.3049 104.387V102.736C86.1682 102.717 85.9143 102.668 85.6213 102.668C84.4299 102.668 83.4924 103.381 83.1604 104.504H83.1213V102.844H81.5198V113ZM91.6556 104.143C93.2572 104.143 94.3216 105.354 94.3607 107.053H88.8431C88.9505 105.363 90.0638 104.143 91.6556 104.143ZM94.3216 110.09C94.0384 111.047 93.0912 111.701 91.8021 111.701C89.9759 111.701 88.8334 110.422 88.8334 108.479V108.381H96.1185V107.736C96.1185 104.66 94.4291 102.668 91.6849 102.668C88.8822 102.668 87.0853 104.807 87.0853 107.961C87.0853 111.154 88.8529 113.176 91.763 113.176C93.9798 113.176 95.6986 111.867 95.9916 110.09H94.3216ZM106.655 106.174C106.44 104.348 104.926 102.668 102.387 102.668C99.5845 102.668 97.7192 104.719 97.7192 107.922C97.7192 111.193 99.5942 113.176 102.407 113.176C104.711 113.176 106.411 111.75 106.674 109.729H105.004C104.711 110.949 103.803 111.682 102.416 111.682C100.659 111.682 99.4477 110.285 99.4477 107.922C99.4477 105.617 100.639 104.162 102.397 104.162C103.891 104.162 104.75 105.07 104.995 106.174H106.655ZM109.164 100.393V102.844H107.65V104.24H109.164V110.363C109.164 112.316 109.886 113.078 111.752 113.078C112.152 113.078 112.621 113.049 112.826 113V111.574C112.709 111.594 112.318 111.623 112.123 111.623C111.254 111.623 110.863 111.203 110.863 110.275V104.24H112.836V102.844H110.863V100.393H109.164ZM132.433 102.844H130.754L128.722 111.105H128.683L126.379 102.844H124.738L122.443 111.105H122.404L120.373 102.844H118.683L121.525 113H123.254L125.539 105.139H125.578L127.873 113H129.601L132.433 102.844ZM137.364 111.73C136.144 111.73 135.333 111.096 135.333 110.129C135.333 109.172 136.114 108.566 137.481 108.479L140.196 108.312V109.143C140.196 110.607 138.966 111.73 137.364 111.73ZM136.983 113.176C138.351 113.176 139.64 112.414 140.245 111.252H140.284V113H141.895V105.979C141.895 103.957 140.392 102.668 138.009 102.668C135.606 102.668 134.103 104.016 133.985 105.773H135.626C135.841 104.777 136.661 104.162 137.97 104.162C139.376 104.162 140.196 104.904 140.196 106.145V106.994L137.286 107.16C134.942 107.297 133.604 108.391 133.604 110.129C133.604 111.955 134.962 113.176 136.983 113.176ZM145.283 116.799C147.119 116.799 147.959 116.086 148.828 113.713L152.822 102.844H151.035L148.223 111.301H148.193L145.381 102.844H143.565L147.315 113.01L147.08 113.723C146.69 114.904 146.162 115.363 145.215 115.363C145 115.363 144.736 115.354 144.551 115.314V116.74C144.736 116.779 145.078 116.799 145.283 116.799Z" fill="#232326"></path> <rect x="16" y="94" width="30" height="24" rx="12" fill="#34C759"></rect> <path d="M31.2118 112.169C30.3143 112.169 29.5174 112.018 28.8212 111.716C28.1289 111.414 27.5856 111.002 27.1912 110.479C26.8008 109.951 26.6076 109.354 26.6116 108.686C26.6076 108.167 26.7203 107.69 26.9497 107.255C27.1791 106.82 27.489 106.458 27.8794 106.168C28.2738 105.875 28.7125 105.687 29.1955 105.607V105.522C28.5596 105.382 28.0444 105.058 27.65 104.55C27.2596 104.039 27.0664 103.45 27.0705 102.782C27.0664 102.146 27.2435 101.578 27.6017 101.079C27.9599 100.58 28.4509 100.188 29.0747 99.902C29.6985 99.6122 30.4109 99.4673 31.2118 99.4673C32.0046 99.4673 32.711 99.6122 33.3308 99.902C33.9546 100.188 34.4456 100.58 34.8038 101.079C35.166 101.578 35.3471 102.146 35.3471 102.782C35.3471 103.45 35.1479 104.039 34.7494 104.55C34.355 105.058 33.8459 105.382 33.2221 105.522V105.607C33.705 105.687 34.1397 105.875 34.5261 106.168C34.9165 106.458 35.2264 106.82 35.4558 107.255C35.6892 107.69 35.8059 108.167 35.8059 108.686C35.8059 109.354 35.6087 109.951 35.2143 110.479C34.8199 111.002 34.2765 111.414 33.5843 111.716C32.8961 112.018 32.1053 112.169 31.2118 112.169ZM31.2118 110.442C31.6746 110.442 32.0771 110.364 32.4192 110.207C32.7613 110.046 33.0269 109.821 33.2161 109.531C33.4052 109.241 33.5018 108.907 33.5058 108.529C33.5018 108.134 33.3992 107.786 33.1979 107.484C33.0007 107.179 32.7291 106.939 32.383 106.766C32.0409 106.593 31.6505 106.506 31.2118 106.506C30.7691 106.506 30.3747 106.593 30.0286 106.766C29.6824 106.939 29.4088 107.179 29.2075 107.484C29.0103 107.786 28.9137 108.134 28.9178 108.529C28.9137 108.907 29.0063 109.241 29.1955 109.531C29.3846 109.817 29.6502 110.04 29.9923 110.201C30.3384 110.362 30.7449 110.442 31.2118 110.442ZM31.2118 104.81C31.5901 104.81 31.9241 104.734 32.2139 104.581C32.5077 104.428 32.7391 104.214 32.9082 103.941C33.0772 103.667 33.1637 103.351 33.1678 102.993C33.1637 102.639 33.0792 102.329 32.9142 102.063C32.7492 101.794 32.5198 101.586 32.226 101.441C31.9322 101.292 31.5941 101.218 31.2118 101.218C30.8214 101.218 30.4773 101.292 30.1795 101.441C29.8857 101.586 29.6563 101.794 29.4913 102.063C29.3303 102.329 29.2518 102.639 29.2558 102.993C29.2518 103.351 29.3323 103.667 29.4973 103.941C29.6663 104.21 29.8978 104.424 30.1916 104.581C30.4894 104.734 30.8295 104.81 31.2118 104.81Z" fill="white"></path> <path d="M25.0703 48.6016C25.0078 47.9714 24.7396 47.4818 24.2656 47.1328C23.7917 46.7839 23.1484 46.6094 22.3359 46.6094C21.7839 46.6094 21.3177 46.6875 20.9375 46.8437C20.5573 46.9948 20.2656 47.2057 20.0625 47.4766C19.8646 47.7474 19.7656 48.0547 19.7656 48.3984C19.7552 48.6849 19.8151 48.9349 19.9453 49.1484C20.0807 49.362 20.2656 49.5469 20.5 49.7031C20.7344 49.8542 21.0052 49.987 21.3125 50.1016C21.6198 50.2109 21.9479 50.3047 22.2969 50.3828L23.7344 50.7266C24.4323 50.8828 25.0729 51.0911 25.6562 51.3516C26.2396 51.612 26.7448 51.9323 27.1719 52.3125C27.599 52.6927 27.9297 53.1406 28.1641 53.6562C28.4036 54.1719 28.526 54.763 28.5312 55.4297C28.526 56.4089 28.276 57.2578 27.7813 57.9766C27.2917 58.6901 26.5833 59.2448 25.6562 59.6406C24.7344 60.0312 23.6224 60.2266 22.3203 60.2266C21.0286 60.2266 19.9036 60.0286 18.9453 59.6328C17.9922 59.237 17.2474 58.651 16.7109 57.875C16.1797 57.0937 15.901 56.1276 15.875 54.9766H19.1484C19.1849 55.513 19.3385 55.9609 19.6094 56.3203C19.8854 56.6745 20.2526 56.9427 20.7109 57.125C21.1745 57.3021 21.6979 57.3906 22.2812 57.3906C22.8542 57.3906 23.3516 57.3073 23.7734 57.1406C24.2005 56.974 24.5313 56.7422 24.7656 56.4453C25 56.1484 25.1172 55.8073 25.1172 55.4219C25.1172 55.0625 25.0104 54.7604 24.7969 54.5156C24.5885 54.2708 24.2813 54.0625 23.875 53.8906C23.474 53.7187 22.9818 53.5625 22.3984 53.4219L20.6563 52.9844C19.3073 52.6562 18.2422 52.1432 17.4609 51.4453C16.6797 50.7474 16.2917 49.8073 16.2969 48.625C16.2917 47.6562 16.5495 46.8099 17.0703 46.0859C17.5964 45.362 18.3177 44.7969 19.2344 44.3906C20.151 43.9844 21.1927 43.7812 22.3594 43.7812C23.5469 43.7812 24.5833 43.9844 25.4688 44.3906C26.3594 44.7969 27.0521 45.362 27.5469 46.0859C28.0417 46.8099 28.2969 47.6484 28.3125 48.6016H25.0703ZM37.127 48V50.5H29.9004V48H37.127ZM31.541 45.125H34.8691V56.3125C34.8691 56.6198 34.916 56.8594 35.0098 57.0312C35.1035 57.1979 35.2337 57.3151 35.4004 57.3828C35.5723 57.4505 35.7702 57.4844 35.9941 57.4844C36.1504 57.4844 36.3066 57.4714 36.4629 57.4453C36.6191 57.4141 36.7389 57.3906 36.8223 57.375L37.3457 59.8516C37.179 59.9036 36.9447 59.9635 36.6426 60.0313C36.3405 60.1042 35.9733 60.1484 35.541 60.1641C34.7389 60.1953 34.0358 60.0885 33.4316 59.8437C32.8327 59.599 32.3665 59.2187 32.0332 58.7031C31.6999 58.1875 31.5358 57.5365 31.541 56.75V45.125ZM44.5879 60.2344C43.3743 60.2344 42.3249 59.9766 41.4395 59.4609C40.5592 58.9401 39.8796 58.2161 39.4004 57.2891C38.9212 56.3568 38.6816 55.276 38.6816 54.0469C38.6816 52.8073 38.9212 51.724 39.4004 50.7969C39.8796 49.8646 40.5592 49.1406 41.4395 48.625C42.3249 48.1042 43.3743 47.8438 44.5879 47.8438C45.8014 47.8438 46.8483 48.1042 47.7285 48.625C48.6139 49.1406 49.2962 49.8646 49.7754 50.7969C50.2546 51.724 50.4941 52.8073 50.4941 54.0469C50.4941 55.276 50.2546 56.3568 49.7754 57.2891C49.2962 58.2161 48.6139 58.9401 47.7285 59.4609C46.8483 59.9766 45.8014 60.2344 44.5879 60.2344ZM44.6035 57.6562C45.1556 57.6562 45.6165 57.5 45.9863 57.1875C46.3561 56.8698 46.6348 56.4375 46.8223 55.8906C47.015 55.3437 47.1113 54.7214 47.1113 54.0234C47.1113 53.3255 47.015 52.7031 46.8223 52.1562C46.6348 51.6094 46.3561 51.1771 45.9863 50.8594C45.6165 50.5417 45.1556 50.3828 44.6035 50.3828C44.0462 50.3828 43.5775 50.5417 43.1973 50.8594C42.8223 51.1771 42.5384 51.6094 42.3457 52.1562C42.1582 52.7031 42.0645 53.3255 42.0645 54.0234C42.0645 54.7214 42.1582 55.3437 42.3457 55.8906C42.5384 56.4375 42.8223 56.8698 43.1973 57.1875C43.5775 57.5 44.0462 57.6562 44.6035 57.6562ZM52.6582 64.5V48H55.9395V50.0156H56.0879C56.2337 49.6927 56.4447 49.3646 56.7207 49.0312C57.002 48.6927 57.3665 48.4115 57.8145 48.1875C58.2676 47.9583 58.8301 47.8438 59.502 47.8438C60.377 47.8438 61.1842 48.0729 61.9238 48.5313C62.6634 48.9844 63.2546 49.6693 63.6973 50.5859C64.14 51.4974 64.3613 52.6406 64.3613 54.0156C64.3613 55.3542 64.1452 56.4844 63.7129 57.4062C63.2858 58.3229 62.7025 59.0182 61.9629 59.4922C61.2285 59.9609 60.4056 60.1953 59.4941 60.1953C58.8483 60.1953 58.2988 60.0885 57.8457 59.875C57.3978 59.6615 57.0306 59.3932 56.7441 59.0703C56.4577 58.7422 56.2389 58.4115 56.0879 58.0781H55.9863V64.5H52.6582ZM55.916 54C55.916 54.7135 56.015 55.3359 56.2129 55.8672C56.4108 56.3984 56.6973 56.8125 57.0723 57.1094C57.4473 57.401 57.903 57.5469 58.4395 57.5469C58.9811 57.5469 59.4395 57.3984 59.8145 57.1016C60.1895 56.7995 60.4733 56.3828 60.666 55.8516C60.8639 55.3151 60.9629 54.6979 60.9629 54C60.9629 53.3073 60.8665 52.6979 60.6738 52.1719C60.4811 51.6458 60.1973 51.2344 59.8223 50.9375C59.4473 50.6406 58.9863 50.4922 58.4395 50.4922C57.8978 50.4922 57.4395 50.6354 57.0645 50.9219C56.6947 51.2083 56.4108 51.6146 56.2129 52.1406C56.015 52.6667 55.916 53.2865 55.916 54ZM76.5645 51.4219L73.5176 51.6094C73.4655 51.349 73.3535 51.1146 73.1816 50.9062C73.0098 50.6927 72.7832 50.5234 72.502 50.3984C72.2259 50.2682 71.8952 50.2031 71.5098 50.2031C70.9941 50.2031 70.5592 50.3125 70.2051 50.5312C69.8509 50.7448 69.6738 51.0312 69.6738 51.3906C69.6738 51.6771 69.7884 51.9193 70.0176 52.1172C70.2467 52.3151 70.64 52.474 71.1973 52.5937L73.3691 53.0312C74.5358 53.2708 75.4056 53.6562 75.9785 54.1875C76.5514 54.7187 76.8379 55.4167 76.8379 56.2812C76.8379 57.0677 76.6061 57.7578 76.1426 58.3516C75.6842 58.9453 75.054 59.4089 74.252 59.7422C73.4551 60.0703 72.5358 60.2344 71.4941 60.2344C69.9056 60.2344 68.64 59.9036 67.6973 59.2422C66.7598 58.5755 66.2103 57.6693 66.0488 56.5234L69.3223 56.3516C69.4212 56.8359 69.6608 57.2057 70.041 57.4609C70.4212 57.7109 70.9082 57.8359 71.502 57.8359C72.0853 57.8359 72.554 57.724 72.9082 57.5C73.2676 57.2708 73.4499 56.9766 73.4551 56.6172C73.4499 56.3151 73.3223 56.0677 73.0723 55.875C72.8223 55.6771 72.4368 55.526 71.916 55.4219L69.8379 55.0078C68.666 54.7734 67.7936 54.3672 67.2207 53.7891C66.653 53.2109 66.3691 52.474 66.3691 51.5781C66.3691 50.8073 66.5775 50.1432 66.9941 49.5859C67.416 49.0286 68.0072 48.599 68.7676 48.2969C69.5332 47.9948 70.429 47.8438 71.4551 47.8438C72.9707 47.8438 74.1634 48.1641 75.0332 48.8047C75.9082 49.4453 76.4186 50.3177 76.5645 51.4219ZM88.4473 60.1953C87.5358 60.1953 86.7103 59.9609 85.9707 59.4922C85.2363 59.0182 84.653 58.3229 84.2207 57.4062C83.7936 56.4844 83.5801 55.3542 83.5801 54.0156C83.5801 52.6406 83.8014 51.4974 84.2441 50.5859C84.6868 49.6693 85.2754 48.9844 86.0098 48.5313C86.7493 48.0729 87.5592 47.8438 88.4395 47.8438C89.1113 47.8438 89.6712 47.9583 90.1191 48.1875C90.5723 48.4115 90.9368 48.6927 91.2129 49.0312C91.4941 49.3646 91.7077 49.6927 91.8535 50.0156H91.9551V44H95.2754V60H91.9941V58.0781H91.8535C91.6973 58.4115 91.4759 58.7422 91.1895 59.0703C90.9082 59.3932 90.541 59.6615 90.0879 59.875C89.64 60.0885 89.0931 60.1953 88.4473 60.1953ZM89.502 57.5469C90.0384 57.5469 90.4915 57.401 90.8613 57.1094C91.2363 56.8125 91.5228 56.3984 91.7207 55.8672C91.9238 55.3359 92.0254 54.7135 92.0254 54C92.0254 53.2865 91.9264 52.6667 91.7285 52.1406C91.5306 51.6146 91.2441 51.2083 90.8691 50.9219C90.4941 50.6354 90.0384 50.4922 89.502 50.4922C88.9551 50.4922 88.4941 50.6406 88.1191 50.9375C87.7441 51.2344 87.4603 51.6458 87.2676 52.1719C87.0749 52.6979 86.9785 53.3073 86.9785 54C86.9785 54.6979 87.0749 55.3151 87.2676 55.8516C87.4655 56.3828 87.7493 56.7995 88.1191 57.1016C88.4941 57.3984 88.9551 57.5469 89.502 57.5469ZM105.707 54.8906V48H109.035V60H105.84V57.8203H105.715C105.444 58.5234 104.993 59.0885 104.363 59.5156C103.738 59.9427 102.975 60.1563 102.074 60.1563C101.272 60.1563 100.566 59.974 99.957 59.6094C99.3477 59.2448 98.8711 58.7266 98.5273 58.0547C98.1888 57.3828 98.0169 56.5781 98.0117 55.6406V48H101.34V55.0469C101.345 55.7552 101.535 56.3151 101.91 56.7266C102.285 57.138 102.788 57.3437 103.418 57.3437C103.819 57.3437 104.194 57.2526 104.543 57.0703C104.892 56.8828 105.173 56.6068 105.387 56.2422C105.605 55.8776 105.712 55.4271 105.707 54.8906ZM111.697 60V48H114.924V50.0937H115.049C115.268 49.349 115.635 48.7865 116.15 48.4063C116.666 48.0208 117.26 47.8281 117.932 47.8281C118.098 47.8281 118.278 47.8385 118.471 47.8594C118.663 47.8802 118.833 47.9089 118.979 47.9453V50.8984C118.822 50.8516 118.606 50.8099 118.33 50.7734C118.054 50.737 117.801 50.7188 117.572 50.7188C117.083 50.7188 116.645 50.8255 116.26 51.0391C115.88 51.2474 115.577 51.5391 115.354 51.9141C115.135 52.2891 115.025 52.7214 115.025 53.2109V60H111.697ZM123.777 60.2266C123.012 60.2266 122.329 60.0938 121.73 59.8281C121.132 59.5573 120.658 59.1589 120.309 58.6328C119.965 58.1016 119.793 57.4401 119.793 56.6484C119.793 55.9818 119.915 55.4219 120.16 54.9687C120.405 54.5156 120.738 54.151 121.16 53.875C121.582 53.599 122.061 53.3906 122.598 53.25C123.139 53.1094 123.707 53.0104 124.301 52.9531C124.999 52.8802 125.561 52.8125 125.988 52.75C126.415 52.6823 126.725 52.5833 126.918 52.4531C127.111 52.3229 127.207 52.1302 127.207 51.875V51.8281C127.207 51.3333 127.051 50.9505 126.738 50.6797C126.431 50.4089 125.993 50.2734 125.426 50.2734C124.827 50.2734 124.35 50.4062 123.996 50.6719C123.642 50.9323 123.408 51.2604 123.293 51.6562L120.215 51.4062C120.371 50.6771 120.678 50.0469 121.137 49.5156C121.595 48.9792 122.186 48.5677 122.91 48.2812C123.639 47.9896 124.483 47.8438 125.441 47.8438C126.108 47.8438 126.746 47.9219 127.355 48.0781C127.97 48.2344 128.514 48.4766 128.988 48.8047C129.467 49.1328 129.845 49.5547 130.121 50.0703C130.397 50.5807 130.535 51.1927 130.535 51.9062V60H127.379V58.3359H127.285C127.092 58.7109 126.835 59.0417 126.512 59.3281C126.189 59.6094 125.801 59.8307 125.348 59.9922C124.895 60.1484 124.371 60.2266 123.777 60.2266ZM124.73 57.9297C125.22 57.9297 125.652 57.8333 126.027 57.6406C126.402 57.4427 126.697 57.1771 126.91 56.8438C127.124 56.5104 127.23 56.1328 127.23 55.7109V54.4375C127.126 54.5052 126.983 54.5677 126.801 54.625C126.624 54.6771 126.423 54.7266 126.199 54.7734C125.975 54.8151 125.751 54.8542 125.527 54.8906C125.303 54.9219 125.1 54.9505 124.918 54.9766C124.527 55.0339 124.186 55.125 123.895 55.25C123.603 55.375 123.376 55.5443 123.215 55.7578C123.053 55.9661 122.973 56.2266 122.973 56.5391C122.973 56.9922 123.137 57.3385 123.465 57.5781C123.798 57.8125 124.22 57.9297 124.73 57.9297ZM139.5 48V50.5H132.273V48H139.5ZM133.914 45.125H137.242V56.3125C137.242 56.6198 137.289 56.8594 137.383 57.0312C137.477 57.1979 137.607 57.3151 137.773 57.3828C137.945 57.4505 138.143 57.4844 138.367 57.4844C138.523 57.4844 138.68 57.4714 138.836 57.4453C138.992 57.4141 139.112 57.3906 139.195 57.375L139.719 59.8516C139.552 59.9036 139.318 59.9635 139.016 60.0313C138.714 60.1042 138.346 60.1484 137.914 60.1641C137.112 60.1953 136.409 60.0885 135.805 59.8437C135.206 59.599 134.74 59.2187 134.406 58.7031C134.073 58.1875 133.909 57.5365 133.914 56.75V45.125ZM141.668 60V48H144.996V60H141.668ZM143.34 46.4531C142.845 46.4531 142.421 46.2891 142.066 45.9609C141.717 45.6276 141.543 45.2292 141.543 44.7656C141.543 44.3073 141.717 43.9141 142.066 43.5859C142.421 43.2526 142.845 43.0859 143.34 43.0859C143.835 43.0859 144.257 43.2526 144.605 43.5859C144.96 43.9141 145.137 44.3073 145.137 44.7656C145.137 45.2292 144.96 45.6276 144.605 45.9609C144.257 46.2891 143.835 46.4531 143.34 46.4531ZM153.084 60.2344C151.87 60.2344 150.821 59.9766 149.936 59.4609C149.055 58.9401 148.376 58.2161 147.896 57.2891C147.417 56.3568 147.178 55.276 147.178 54.0469C147.178 52.8073 147.417 51.724 147.896 50.7969C148.376 49.8646 149.055 49.1406 149.936 48.625C150.821 48.1042 151.87 47.8438 153.084 47.8438C154.298 47.8438 155.344 48.1042 156.225 48.625C157.11 49.1406 157.792 49.8646 158.271 50.7969C158.751 51.724 158.99 52.8073 158.99 54.0469C158.99 55.276 158.751 56.3568 158.271 57.2891C157.792 58.2161 157.11 58.9401 156.225 59.4609C155.344 59.9766 154.298 60.2344 153.084 60.2344ZM153.1 57.6562C153.652 57.6562 154.113 57.5 154.482 57.1875C154.852 56.8698 155.131 56.4375 155.318 55.8906C155.511 55.3437 155.607 54.7214 155.607 54.0234C155.607 53.3255 155.511 52.7031 155.318 52.1562C155.131 51.6094 154.852 51.1771 154.482 50.8594C154.113 50.5417 153.652 50.3828 153.1 50.3828C152.542 50.3828 152.074 50.5417 151.693 50.8594C151.318 51.1771 151.035 51.6094 150.842 52.1562C150.654 52.7031 150.561 53.3255 150.561 54.0234C150.561 54.7214 150.654 55.3437 150.842 55.8906C151.035 56.4375 151.318 56.8698 151.693 57.1875C152.074 57.5 152.542 57.6562 153.1 57.6562ZM164.482 53.0625V60H161.154V48H164.326V50.1172H164.467C164.732 49.4193 165.178 48.8672 165.803 48.4609C166.428 48.0495 167.186 47.8438 168.076 47.8438C168.91 47.8438 169.636 48.026 170.256 48.3906C170.876 48.7552 171.357 49.276 171.701 49.9531C172.045 50.625 172.217 51.4271 172.217 52.3594V60H168.889V52.9531C168.894 52.2187 168.706 51.6458 168.326 51.2344C167.946 50.8177 167.423 50.6094 166.756 50.6094C166.308 50.6094 165.912 50.7057 165.568 50.8984C165.23 51.0911 164.964 51.3724 164.771 51.7422C164.584 52.1068 164.488 52.5469 164.482 53.0625Z" fill="#232326"></path> <path d="M23.7528 23.5H22.608C22.5402 23.1707 22.4218 22.8814 22.2525 22.6321C22.0863 22.3828 21.8832 22.1735 21.6431 22.0043C21.4061 21.8319 21.143 21.7027 20.8537 21.6165C20.5644 21.5303 20.2628 21.4872 19.9489 21.4872C19.3764 21.4872 18.8578 21.6319 18.3931 21.9212C17.9315 22.2105 17.5637 22.6367 17.2898 23.1999C17.0189 23.7631 16.8835 24.4541 16.8835 25.2727C16.8835 26.0914 17.0189 26.7823 17.2898 27.3455C17.5637 27.9087 17.9315 28.335 18.3931 28.6243C18.8578 28.9136 19.3764 29.0582 19.9489 29.0582C20.2628 29.0582 20.5644 29.0152 20.8537 28.929C21.143 28.8428 21.4061 28.7151 21.6431 28.5458C21.8832 28.3735 22.0863 28.1626 22.2525 27.9134C22.4218 27.661 22.5402 27.3717 22.608 27.0455H23.7528C23.6667 27.5286 23.5097 27.9611 23.282 28.3427C23.0542 28.7243 22.7711 29.049 22.4325 29.3168C22.094 29.5814 21.7139 29.783 21.2923 29.9215C20.8737 30.06 20.4259 30.1293 19.9489 30.1293C19.1425 30.1293 18.4254 29.9323 17.7976 29.5384C17.1697 29.1444 16.6758 28.5843 16.3157 27.858C15.9556 27.1316 15.7756 26.2699 15.7756 25.2727C15.7756 24.2756 15.9556 23.4138 16.3157 22.6875C16.6758 21.9612 17.1697 21.401 17.7976 21.0071C18.4254 20.6132 19.1425 20.4162 19.9489 20.4162C20.4259 20.4162 20.8737 20.4854 21.2923 20.6239C21.7139 20.7624 22.094 20.9656 22.4325 21.2333C22.7711 21.498 23.0542 21.8211 23.282 22.2028C23.5097 22.5813 23.6667 23.0137 23.7528 23.5ZM33.5002 25.2727C33.5002 26.2699 33.3201 27.1316 32.96 27.858C32.6 28.5843 32.106 29.1444 31.4782 29.5384C30.8503 29.9323 30.1332 30.1293 29.3269 30.1293C28.5205 30.1293 27.8034 29.9323 27.1756 29.5384C26.5478 29.1444 26.0538 28.5843 25.6937 27.858C25.3336 27.1316 25.1536 26.2699 25.1536 25.2727C25.1536 24.2756 25.3336 23.4138 25.6937 22.6875C26.0538 21.9612 26.5478 21.401 27.1756 21.0071C27.8034 20.6132 28.5205 20.4162 29.3269 20.4162C30.1332 20.4162 30.8503 20.6132 31.4782 21.0071C32.106 21.401 32.6 21.9612 32.96 22.6875C33.3201 23.4138 33.5002 24.2756 33.5002 25.2727ZM32.3922 25.2727C32.3922 24.4541 32.2553 23.7631 31.9813 23.1999C31.7105 22.6367 31.3427 22.2105 30.878 21.9212C30.4164 21.6319 29.8993 21.4872 29.3269 21.4872C28.7544 21.4872 28.2358 21.6319 27.7711 21.9212C27.3095 22.2105 26.9417 22.6367 26.6678 23.1999C26.3969 23.7631 26.2615 24.4541 26.2615 25.2727C26.2615 26.0914 26.3969 26.7823 26.6678 27.3455C26.9417 27.9087 27.3095 28.335 27.7711 28.6243C28.2358 28.9136 28.7544 29.0582 29.3269 29.0582C29.8993 29.0582 30.4164 28.9136 30.878 28.6243C31.3427 28.335 31.7105 27.9087 31.9813 27.3455C32.2553 26.7823 32.3922 26.0914 32.3922 25.2727ZM41.5498 20.5455H42.6947V26.8054C42.6947 27.4517 42.5423 28.0288 42.2376 28.5366C41.936 29.0413 41.5098 29.4399 40.9589 29.7322C40.408 30.0215 39.7617 30.1662 39.02 30.1662C38.2782 30.1662 37.6319 30.0215 37.081 29.7322C36.5301 29.4399 36.1023 29.0413 35.7977 28.5366C35.496 28.0288 35.3452 27.4517 35.3452 26.8054V20.5455H36.4901V26.7131C36.4901 27.1747 36.5917 27.5856 36.7948 27.9457C36.9979 28.3027 37.2872 28.5843 37.6627 28.7905C38.0413 28.9936 38.4937 29.0952 39.02 29.0952C39.5462 29.0952 39.9986 28.9936 40.3772 28.7905C40.7557 28.5843 41.045 28.3027 41.2451 27.9457C41.4482 27.5856 41.5498 27.1747 41.5498 26.7131V20.5455ZM52.3981 20.5455V30H51.2902L46.1382 22.5767H46.0459V30H44.901V20.5455H46.0089L51.1794 27.9872H51.2717V20.5455H52.3981ZM54.092 21.5611V20.5455H61.1829V21.5611H58.2099V30H57.065V21.5611H54.092ZM62.8699 30V20.5455H68.5759V21.5611H64.0148V24.7557H68.2804V25.7713H64.0148V28.9844H68.6497V30H62.8699ZM70.5594 30V20.5455H73.754C74.4927 20.5455 75.099 20.6716 75.5729 20.924C76.0469 21.1733 76.3977 21.5165 76.6255 21.9535C76.8532 22.3905 76.9671 22.8875 76.9671 23.4446C76.9671 24.0017 76.8532 24.4956 76.6255 24.9265C76.3977 25.3574 76.0484 25.6959 75.5775 25.9421C75.1066 26.1853 74.505 26.3068 73.7725 26.3068H71.1873V25.2727H73.7356C74.2403 25.2727 74.6465 25.1989 74.9543 25.0511C75.2651 24.9034 75.4898 24.6941 75.6283 24.4233C75.7699 24.1494 75.8407 23.8232 75.8407 23.4446C75.8407 23.0661 75.7699 22.7352 75.6283 22.4521C75.4867 22.1689 75.2605 21.9504 74.9497 21.7965C74.6388 21.6396 74.228 21.5611 73.7171 21.5611H71.7043V30H70.5594ZM75.0097 25.7528L77.3364 30H76.0069L73.7171 25.7528H75.0097ZM78.7948 30V20.5455H84.5008V21.5611H79.9397V24.7557H84.2054V25.7713H79.9397V28.9844H84.5747V30H78.7948ZM89.402 30H86.4844V20.5455H89.5313C90.4484 20.5455 91.2332 20.7347 91.8857 21.1133C92.5381 21.4888 93.0382 22.0289 93.386 22.7337C93.7338 23.4354 93.9077 24.2756 93.9077 25.2543C93.9077 26.2391 93.7322 27.087 93.3814 27.7979C93.0305 28.5058 92.5197 29.0505 91.8487 29.4322C91.1778 29.8107 90.3622 30 89.402 30ZM87.6293 28.9844H89.3281C90.1099 28.9844 90.7577 28.8336 91.2717 28.532C91.7856 28.2304 92.1688 27.801 92.4212 27.244C92.6735 26.6869 92.7997 26.0237 92.7997 25.2543C92.7997 24.491 92.6751 23.8339 92.4258 23.283C92.1765 22.729 91.8041 22.3043 91.3086 22.0089C90.8131 21.7103 90.196 21.5611 89.4574 21.5611H87.6293V28.9844ZM100.469 20.5455V30H99.3244V20.5455H100.469ZM102.168 21.5611V20.5455H109.259V21.5611H106.286V30H105.141V21.5611H102.168ZM110.946 30V20.5455H116.652V21.5611H112.091V24.7557H116.356V25.7713H112.091V28.9844H116.725V30H110.946ZM118.635 20.5455H120.002L123.215 28.3935H123.326L126.539 20.5455H127.905V30H126.834V22.8168H126.742L123.787 30H122.753L119.799 22.8168H119.706V30H118.635V20.5455ZM135.291 22.9091C135.236 22.4413 135.011 22.0781 134.617 21.8196C134.223 21.5611 133.74 21.4318 133.167 21.4318C132.749 21.4318 132.383 21.4995 132.069 21.6349C131.758 21.7704 131.515 21.9566 131.339 22.1935C131.167 22.4305 131.081 22.6998 131.081 23.0014C131.081 23.2538 131.141 23.4708 131.261 23.6523C131.384 23.8308 131.541 23.9801 131.732 24.1001C131.923 24.2171 132.123 24.314 132.332 24.391C132.541 24.4648 132.734 24.5249 132.909 24.571L133.869 24.8295C134.115 24.8942 134.389 24.9834 134.691 25.0973C134.996 25.2112 135.286 25.3666 135.563 25.5636C135.843 25.7575 136.074 26.0067 136.256 26.3114C136.437 26.6161 136.528 26.9901 136.528 27.4332C136.528 27.9441 136.394 28.4058 136.127 28.8182C135.862 29.2306 135.474 29.5584 134.963 29.8015C134.455 30.0446 133.838 30.1662 133.112 30.1662C132.435 30.1662 131.849 30.0569 131.353 29.8384C130.861 29.6199 130.473 29.3152 130.19 28.9244C129.91 28.5335 129.751 28.0795 129.714 27.5625H130.896C130.927 27.9195 131.047 28.215 131.256 28.4489C131.469 28.6797 131.736 28.852 132.06 28.9659C132.386 29.0767 132.737 29.1321 133.112 29.1321C133.549 29.1321 133.941 29.0613 134.289 28.9197C134.637 28.7751 134.912 28.575 135.116 28.3196C135.319 28.0611 135.42 27.7595 135.42 27.4148C135.42 27.1009 135.333 26.8454 135.157 26.6484C134.982 26.4515 134.751 26.2914 134.465 26.1683C134.178 26.0452 133.869 25.9375 133.537 25.8452L132.373 25.5128C131.635 25.3004 131.05 24.9973 130.619 24.6033C130.188 24.2094 129.973 23.6939 129.973 23.0568C129.973 22.5275 130.116 22.0658 130.402 21.6719C130.691 21.2749 131.079 20.9671 131.566 20.7486C132.055 20.527 132.601 20.4162 133.204 20.4162C133.814 20.4162 134.355 20.5254 134.829 20.744C135.303 20.9594 135.679 21.2549 135.956 21.6303C136.236 22.0058 136.384 22.4321 136.399 22.9091H135.291Z" fill="#77767E"></path> </g> <rect x="0.5" y="0.5" width="276" height="283" rx="19.5" stroke="#A1A1A1"></rect> <defs> <clipPath id="clip0_52_208215"> <rect width="277" height="284" rx="20" fill="white"></rect> </clipPath> </defs> </svg> 