<?xml version="1.0" encoding="UTF-8"?> <svg xmlns="http://www.w3.org/2000/svg" width="800" height="600" viewBox="0 0 800 600" fill="none"> <g clip-path="url(#clip0_34_49764)"> <rect width="800" height="600" rx="30" fill="#FAE8FF"></rect> <rect x="80" y="56" width="742" height="564" rx="20" fill="#F7F7F7"></rect> <rect x="80.5" y="56.5" width="741" height="563" rx="19.5" stroke="black" stroke-opacity="0.2"></rect> <g clip-path="url(#clip1_34_49764)"> <path d="M315.846 69H130.308C124.615 69 120 73.6149 120 79.3077V326.692C120 332.385 124.615 337 130.308 337H315.846C321.539 337 326.154 332.385 326.154 326.692V79.3077C326.154 73.6149 321.539 69 315.846 69Z" fill="white"></path> <path d="M298.667 86.1794H147.487C141.795 86.1794 137.18 90.7944 137.18 96.4871V178.949C137.18 184.641 141.795 189.256 147.487 189.256H298.667C304.36 189.256 308.975 184.641 308.975 178.949V96.4871C308.975 90.7944 304.36 86.1794 298.667 86.1794Z" fill="#212121" fill-opacity="0.05"></path> <path opacity="0.2" fill-rule="evenodd" clip-rule="evenodd" d="M238.81 149.955V125.481C238.81 123.557 237.236 121.985 235.314 121.985H210.84C208.916 121.985 207.344 123.559 207.344 125.481V149.955C207.344 151.879 208.917 153.451 210.84 153.451H235.314C237.238 153.451 238.81 151.877 238.81 149.955ZM216.957 140.34L221.328 145.602L227.447 137.718L235.314 148.206H210.84L216.957 140.34Z" fill="#212121"></path> <g opacity="0.5"> <path d="M195.59 216.744H142.334C139.487 216.744 137.18 219.051 137.18 221.897C137.18 224.744 139.487 227.051 142.334 227.051H195.59C198.436 227.051 200.744 224.744 200.744 221.897C200.744 219.051 198.436 216.744 195.59 216.744Z" fill="#903AA8"></path> <path d="M233.384 216.744H214.487C211.64 216.744 209.333 219.051 209.333 221.897C209.333 224.744 211.64 227.051 214.487 227.051H233.384C236.231 227.051 238.538 224.744 238.538 221.897C238.538 219.051 236.231 216.744 233.384 216.744Z" fill="#903AA8"></path> <path d="M262.589 216.744H252.282C249.435 216.744 247.128 219.051 247.128 221.897C247.128 224.744 249.435 227.051 252.282 227.051H262.589C265.436 227.051 267.743 224.744 267.743 221.897C267.743 219.051 265.436 216.744 262.589 216.744Z" fill="#903AA8"></path> </g> <path d="M161.231 249.385H140.616C138.718 249.385 137.18 250.923 137.18 252.82C137.18 254.718 138.718 256.256 140.616 256.256H161.231C163.129 256.256 164.667 254.718 164.667 252.82C164.667 250.923 163.129 249.385 161.231 249.385Z" fill="#212121" fill-opacity="0.1"></path> <path d="M245.411 249.385H178.411C176.513 249.385 174.975 250.923 174.975 252.82C174.975 254.718 176.513 256.256 178.411 256.256H245.411C247.308 256.256 248.846 254.718 248.846 252.82C248.846 250.923 247.308 249.385 245.411 249.385Z" fill="#212121" fill-opacity="0.1"></path> <path d="M305.539 249.385H262.59C260.693 249.385 259.154 250.923 259.154 252.82C259.154 254.718 260.693 256.256 262.59 256.256H305.539C307.437 256.256 308.975 254.718 308.975 252.82C308.975 250.923 307.437 249.385 305.539 249.385Z" fill="#212121" fill-opacity="0.1"></path> <path d="M181.846 268.282H140.616C138.718 268.282 137.18 269.82 137.18 271.718C137.18 273.615 138.718 275.154 140.616 275.154H181.846C183.744 275.154 185.282 273.615 185.282 271.718C185.282 269.82 183.744 268.282 181.846 268.282Z" fill="#212121" fill-opacity="0.1"></path> <path d="M248.846 268.282H199.026C197.128 268.282 195.59 269.82 195.59 271.718C195.59 273.615 197.128 275.154 199.026 275.154H248.846C250.744 275.154 252.282 273.615 252.282 271.718C252.282 269.82 250.744 268.282 248.846 268.282Z" fill="#212121" fill-opacity="0.1"></path> <path d="M305.539 268.282H266.026C264.128 268.282 262.59 269.82 262.59 271.718C262.59 273.615 264.128 275.154 266.026 275.154H305.539C307.436 275.154 308.974 273.615 308.974 271.718C308.974 269.82 307.436 268.282 305.539 268.282Z" fill="#212121" fill-opacity="0.1"></path> <g opacity="0.05"> <path d="M145.769 319.821C150.513 319.821 154.359 315.975 154.359 311.231C154.359 306.487 150.513 302.641 145.769 302.641C141.025 302.641 137.18 306.487 137.18 311.231C137.18 315.975 141.025 319.821 145.769 319.821Z" fill="#212121"></path> <path d="M206.757 308.654H167.244C165.821 308.654 164.667 309.808 164.667 311.231C164.667 312.654 165.821 313.808 167.244 313.808H206.757C208.18 313.808 209.334 312.654 209.334 311.231C209.334 309.808 208.18 308.654 206.757 308.654Z" fill="#212121"></path> </g> <path d="M315.847 69.8589H130.308C125.09 69.8589 120.859 74.0892 120.859 79.3076V326.692C120.859 331.911 125.09 336.141 130.308 336.141H315.847C321.065 336.141 325.295 331.911 325.295 326.692V79.3076C325.295 74.0892 321.065 69.8589 315.847 69.8589Z" stroke="#212121" stroke-opacity="0.1" stroke-width="1.71795"></path> </g> <g clip-path="url(#clip2_34_49764)"> <path d="M542 69H356.462C350.769 69 346.154 73.6149 346.154 79.3077V326.692C346.154 332.385 350.769 337 356.462 337H542C547.693 337 552.308 332.385 552.308 326.692V79.3077C552.308 73.6149 547.693 69 542 69Z" fill="white"></path> <path d="M524.821 86.1794H373.642C367.949 86.1794 363.334 90.7944 363.334 96.4871V178.949C363.334 184.641 367.949 189.256 373.642 189.256H524.821C530.514 189.256 535.129 184.641 535.129 178.949V96.4871C535.129 90.7944 530.514 86.1794 524.821 86.1794Z" fill="#212121" fill-opacity="0.05"></path> <path opacity="0.2" fill-rule="evenodd" clip-rule="evenodd" d="M464.964 149.955V125.481C464.964 123.557 463.39 121.985 461.468 121.985H436.994C435.07 121.985 433.498 123.559 433.498 125.481V149.955C433.498 151.879 435.072 153.451 436.994 153.451H461.468C463.392 153.451 464.964 151.877 464.964 149.955ZM443.112 140.34L447.482 145.602L453.601 137.718L461.468 148.206H436.994L443.112 140.34Z" fill="#212121"></path> <g opacity="0.5"> <path d="M421.744 216.744H368.488C365.641 216.744 363.334 219.051 363.334 221.897C363.334 224.744 365.641 227.051 368.488 227.051H421.744C424.591 227.051 426.898 224.744 426.898 221.897C426.898 219.051 424.591 216.744 421.744 216.744Z" fill="#903AA8"></path> <path d="M459.539 216.744H440.641C437.795 216.744 435.487 219.051 435.487 221.897C435.487 224.744 437.795 227.051 440.641 227.051H459.539C462.385 227.051 464.692 224.744 464.692 221.897C464.692 219.051 462.385 216.744 459.539 216.744Z" fill="#903AA8"></path> <path d="M488.744 216.744H478.436C475.59 216.744 473.282 219.051 473.282 221.897C473.282 224.744 475.59 227.051 478.436 227.051H488.744C491.59 227.051 493.898 224.744 493.898 221.897C493.898 219.051 491.59 216.744 488.744 216.744Z" fill="#903AA8"></path> </g> <path d="M387.385 249.385H366.77C364.872 249.385 363.334 250.923 363.334 252.82C363.334 254.718 364.872 256.256 366.77 256.256H387.385C389.283 256.256 390.821 254.718 390.821 252.82C390.821 250.923 389.283 249.385 387.385 249.385Z" fill="#212121" fill-opacity="0.1"></path> <path d="M471.565 249.385H404.565C402.667 249.385 401.129 250.923 401.129 252.82C401.129 254.718 402.667 256.256 404.565 256.256H471.565C473.462 256.256 475.001 254.718 475.001 252.82C475.001 250.923 473.462 249.385 471.565 249.385Z" fill="#212121" fill-opacity="0.1"></path> <path d="M531.693 249.385H488.744C486.847 249.385 485.309 250.923 485.309 252.82C485.309 254.718 486.847 256.256 488.744 256.256H531.693C533.591 256.256 535.129 254.718 535.129 252.82C535.129 250.923 533.591 249.385 531.693 249.385Z" fill="#212121" fill-opacity="0.1"></path> <path d="M408.001 268.282H366.77C364.872 268.282 363.334 269.82 363.334 271.718C363.334 273.615 364.872 275.154 366.77 275.154H408.001C409.898 275.154 411.437 273.615 411.437 271.718C411.437 269.82 409.898 268.282 408.001 268.282Z" fill="#212121" fill-opacity="0.1"></path> <path d="M475.001 268.282H425.18C423.282 268.282 421.744 269.82 421.744 271.718C421.744 273.615 423.282 275.154 425.18 275.154H475.001C476.898 275.154 478.436 273.615 478.436 271.718C478.436 269.82 476.898 268.282 475.001 268.282Z" fill="#212121" fill-opacity="0.1"></path> <path d="M531.693 268.282H492.18C490.282 268.282 488.744 269.82 488.744 271.718C488.744 273.615 490.282 275.154 492.18 275.154H531.693C533.59 275.154 535.129 273.615 535.129 271.718C535.129 269.82 533.59 268.282 531.693 268.282Z" fill="#212121" fill-opacity="0.1"></path> <g opacity="0.05"> <path d="M371.924 319.821C376.668 319.821 380.513 315.975 380.513 311.231C380.513 306.487 376.668 302.641 371.924 302.641C367.18 302.641 363.334 306.487 363.334 311.231C363.334 315.975 367.18 319.821 371.924 319.821Z" fill="#212121"></path> <path d="M432.911 308.654H393.398C391.975 308.654 390.821 309.808 390.821 311.231C390.821 312.654 391.975 313.808 393.398 313.808H432.911C434.334 313.808 435.488 312.654 435.488 311.231C435.488 309.808 434.334 308.654 432.911 308.654Z" fill="#212121"></path> </g> <path d="M542.001 69.8589H356.462C351.244 69.8589 347.014 74.0892 347.014 79.3076V326.692C347.014 331.911 351.244 336.141 356.462 336.141H542.001C547.219 336.141 551.45 331.911 551.45 326.692V79.3076C551.45 74.0892 547.219 69.8589 542.001 69.8589Z" stroke="#212121" stroke-opacity="0.1" stroke-width="1.71795"></path> </g> <g clip-path="url(#clip3_34_49764)"> <path d="M768.154 69H582.615C576.923 69 572.308 73.6149 572.308 79.3077V326.692C572.308 332.385 576.923 337 582.615 337H768.154C773.847 337 778.461 332.385 778.461 326.692V79.3077C778.461 73.6149 773.847 69 768.154 69Z" fill="white"></path> <path d="M750.974 86.1794H599.795C594.102 86.1794 589.487 90.7944 589.487 96.4871V178.949C589.487 184.641 594.102 189.256 599.795 189.256H750.974C756.667 189.256 761.282 184.641 761.282 178.949V96.4871C761.282 90.7944 756.667 86.1794 750.974 86.1794Z" fill="#212121" fill-opacity="0.05"></path> <path opacity="0.2" fill-rule="evenodd" clip-rule="evenodd" d="M691.117 149.955V125.481C691.117 123.557 689.544 121.985 687.621 121.985H663.147C661.223 121.985 659.651 123.559 659.651 125.481V149.955C659.651 151.879 661.225 153.451 663.147 153.451H687.621C689.545 153.451 691.117 151.877 691.117 149.955ZM669.265 140.34L673.635 145.602L679.755 137.718L687.621 148.206H663.147L669.265 140.34Z" fill="#212121"></path> <g opacity="0.5"> <path d="M647.898 216.744H594.641C591.795 216.744 589.487 219.051 589.487 221.897C589.487 224.744 591.795 227.051 594.641 227.051H647.898C650.744 227.051 653.051 224.744 653.051 221.897C653.051 219.051 650.744 216.744 647.898 216.744Z" fill="#903AA8"></path> <path d="M685.692 216.744H666.794C663.948 216.744 661.641 219.051 661.641 221.897C661.641 224.744 663.948 227.051 666.794 227.051H685.692C688.538 227.051 690.846 224.744 690.846 221.897C690.846 219.051 688.538 216.744 685.692 216.744Z" fill="#903AA8"></path> <path d="M714.897 216.744H704.589C701.743 216.744 699.436 219.051 699.436 221.897C699.436 224.744 701.743 227.051 704.589 227.051H714.897C717.743 227.051 720.051 224.744 720.051 221.897C720.051 219.051 717.743 216.744 714.897 216.744Z" fill="#903AA8"></path> </g> <path d="M613.539 249.385H592.923C591.026 249.385 589.487 250.923 589.487 252.82C589.487 254.718 591.026 256.256 592.923 256.256H613.539C615.436 256.256 616.974 254.718 616.974 252.82C616.974 250.923 615.436 249.385 613.539 249.385Z" fill="#212121" fill-opacity="0.1"></path> <path d="M697.718 249.385H630.718C628.821 249.385 627.282 250.923 627.282 252.82C627.282 254.718 628.821 256.256 630.718 256.256H697.718C699.616 256.256 701.154 254.718 701.154 252.82C701.154 250.923 699.616 249.385 697.718 249.385Z" fill="#212121" fill-opacity="0.1"></path> <path d="M757.847 249.385H714.898C713 249.385 711.462 250.923 711.462 252.82C711.462 254.718 713 256.256 714.898 256.256H757.847C759.744 256.256 761.282 254.718 761.282 252.82C761.282 250.923 759.744 249.385 757.847 249.385Z" fill="#212121" fill-opacity="0.1"></path> <path d="M634.154 268.282H592.923C591.026 268.282 589.487 269.82 589.487 271.718C589.487 273.615 591.026 275.154 592.923 275.154H634.154C636.052 275.154 637.59 273.615 637.59 271.718C637.59 269.82 636.052 268.282 634.154 268.282Z" fill="#212121" fill-opacity="0.1"></path> <path d="M701.154 268.282H651.333C649.436 268.282 647.897 269.82 647.897 271.718C647.897 273.615 649.436 275.154 651.333 275.154H701.154C703.051 275.154 704.59 273.615 704.59 271.718C704.59 269.82 703.051 268.282 701.154 268.282Z" fill="#212121" fill-opacity="0.1"></path> <path d="M757.846 268.282H718.333C716.436 268.282 714.897 269.82 714.897 271.718C714.897 273.615 716.436 275.154 718.333 275.154H757.846C759.744 275.154 761.282 273.615 761.282 271.718C761.282 269.82 759.744 268.282 757.846 268.282Z" fill="#212121" fill-opacity="0.1"></path> <g opacity="0.05"> <path d="M598.077 319.821C602.821 319.821 606.667 315.975 606.667 311.231C606.667 306.487 602.821 302.641 598.077 302.641C593.333 302.641 589.487 306.487 589.487 311.231C589.487 315.975 593.333 319.821 598.077 319.821Z" fill="#212121"></path> <path d="M659.064 308.654H619.552C618.128 308.654 616.975 309.808 616.975 311.231C616.975 312.654 618.128 313.808 619.552 313.808H659.064C660.488 313.808 661.641 312.654 661.641 311.231C661.641 309.808 660.488 308.654 659.064 308.654Z" fill="#212121"></path> </g> <path d="M768.154 69.8589H582.616C577.397 69.8589 573.167 74.0892 573.167 79.3076V326.692C573.167 331.911 577.397 336.141 582.616 336.141H768.154C773.373 336.141 777.603 331.911 777.603 326.692V79.3076C777.603 74.0892 773.373 69.8589 768.154 69.8589Z" stroke="#212121" stroke-opacity="0.1" stroke-width="1.71795"></path> </g> <g clip-path="url(#clip4_34_49764)"> <path d="M315.846 369H130.308C124.615 369 120 373.615 120 379.308V626.692C120 632.385 124.615 637 130.308 637H315.846C321.539 637 326.154 632.385 326.154 626.692V379.308C326.154 373.615 321.539 369 315.846 369Z" fill="white"></path> <path d="M298.667 386.179H147.487C141.795 386.179 137.18 390.794 137.18 396.487V478.949C137.18 484.641 141.795 489.256 147.487 489.256H298.667C304.36 489.256 308.975 484.641 308.975 478.949V396.487C308.975 390.794 304.36 386.179 298.667 386.179Z" fill="#212121" fill-opacity="0.05"></path> <path opacity="0.2" fill-rule="evenodd" clip-rule="evenodd" d="M238.81 449.955V425.481C238.81 423.557 237.236 421.985 235.314 421.985H210.84C208.916 421.985 207.344 423.559 207.344 425.481V449.955C207.344 451.879 208.917 453.451 210.84 453.451H235.314C237.238 453.451 238.81 451.877 238.81 449.955ZM216.957 440.34L221.328 445.602L227.447 437.718L235.314 448.206H210.84L216.957 440.34Z" fill="#212121"></path> <path d="M195.59 516.744H142.334C139.487 516.744 137.18 519.051 137.18 521.897C137.18 524.744 139.487 527.051 142.334 527.051H195.59C198.436 527.051 200.744 524.744 200.744 521.897C200.744 519.051 198.436 516.744 195.59 516.744Z" fill="#C79CD3"></path> <path d="M233.384 516.744H214.487C211.64 516.744 209.333 519.051 209.333 521.897C209.333 524.744 211.64 527.051 214.487 527.051H233.384C236.231 527.051 238.538 524.744 238.538 521.897C238.538 519.051 236.231 516.744 233.384 516.744Z" fill="#C79CD3"></path> <path d="M262.589 516.744H252.282C249.435 516.744 247.128 519.051 247.128 521.897C247.128 524.744 249.435 527.051 252.282 527.051H262.589C265.436 527.051 267.743 524.744 267.743 521.897C267.743 519.051 265.436 516.744 262.589 516.744Z" fill="#C79CD3"></path> <path d="M161.231 549.385H140.616C138.718 549.385 137.18 550.923 137.18 552.82C137.18 554.718 138.718 556.256 140.616 556.256H161.231C163.129 556.256 164.667 554.718 164.667 552.82C164.667 550.923 163.129 549.385 161.231 549.385Z" fill="#212121" fill-opacity="0.1"></path> <path d="M245.411 549.385H178.411C176.513 549.385 174.975 550.923 174.975 552.82C174.975 554.718 176.513 556.256 178.411 556.256H245.411C247.308 556.256 248.846 554.718 248.846 552.82C248.846 550.923 247.308 549.385 245.411 549.385Z" fill="#212121" fill-opacity="0.1"></path> <path d="M305.539 549.385H262.59C260.693 549.385 259.154 550.923 259.154 552.82C259.154 554.718 260.693 556.256 262.59 556.256H305.539C307.437 556.256 308.975 554.718 308.975 552.82C308.975 550.923 307.437 549.385 305.539 549.385Z" fill="#212121" fill-opacity="0.1"></path> <path d="M181.846 568.282H140.616C138.718 568.282 137.18 569.82 137.18 571.718C137.18 573.615 138.718 575.154 140.616 575.154H181.846C183.744 575.154 185.282 573.615 185.282 571.718C185.282 569.82 183.744 568.282 181.846 568.282Z" fill="#212121" fill-opacity="0.1"></path> <path d="M248.846 568.282H199.026C197.128 568.282 195.59 569.82 195.59 571.718C195.59 573.615 197.128 575.154 199.026 575.154H248.846C250.744 575.154 252.282 573.615 252.282 571.718C252.282 569.82 250.744 568.282 248.846 568.282Z" fill="#212121" fill-opacity="0.1"></path> <path d="M305.539 568.282H266.026C264.128 568.282 262.59 569.82 262.59 571.718C262.59 573.615 264.128 575.154 266.026 575.154H305.539C307.436 575.154 308.974 573.615 308.974 571.718C308.974 569.82 307.436 568.282 305.539 568.282Z" fill="#212121" fill-opacity="0.1"></path> <path d="M315.847 369.859H130.308C125.09 369.859 120.859 374.089 120.859 379.308V626.692C120.859 631.911 125.09 636.141 130.308 636.141H315.847C321.065 636.141 325.295 631.911 325.295 626.692V379.308C325.295 374.089 321.065 369.859 315.847 369.859Z" stroke="#212121" stroke-opacity="0.1" stroke-width="1.71795"></path> </g> <g clip-path="url(#clip5_34_49764)"> <path d="M542 369H356.462C350.769 369 346.154 373.615 346.154 379.308V626.692C346.154 632.385 350.769 637 356.462 637H542C547.693 637 552.308 632.385 552.308 626.692V379.308C552.308 373.615 547.693 369 542 369Z" fill="white"></path> <path d="M524.821 386.179H373.642C367.949 386.179 363.334 390.794 363.334 396.487V478.949C363.334 484.641 367.949 489.256 373.642 489.256H524.821C530.514 489.256 535.129 484.641 535.129 478.949V396.487C535.129 390.794 530.514 386.179 524.821 386.179Z" fill="#212121" fill-opacity="0.05"></path> <path opacity="0.2" fill-rule="evenodd" clip-rule="evenodd" d="M464.964 449.955V425.481C464.964 423.557 463.39 421.985 461.468 421.985H436.994C435.07 421.985 433.498 423.559 433.498 425.481V449.955C433.498 451.879 435.072 453.451 436.994 453.451H461.468C463.392 453.451 464.964 451.877 464.964 449.955ZM443.112 440.34L447.482 445.602L453.601 437.718L461.468 448.206H436.994L443.112 440.34Z" fill="#212121"></path> <path d="M421.744 516.744H368.488C365.641 516.744 363.334 519.051 363.334 521.897C363.334 524.744 365.641 527.051 368.488 527.051H421.744C424.591 527.051 426.898 524.744 426.898 521.897C426.898 519.051 424.591 516.744 421.744 516.744Z" fill="#C79CD3"></path> <path d="M459.539 516.744H440.641C437.795 516.744 435.487 519.051 435.487 521.897C435.487 524.744 437.795 527.051 440.641 527.051H459.539C462.385 527.051 464.692 524.744 464.692 521.897C464.692 519.051 462.385 516.744 459.539 516.744Z" fill="#C79CD3"></path> <path d="M488.744 516.744H478.436C475.59 516.744 473.282 519.051 473.282 521.897C473.282 524.744 475.59 527.051 478.436 527.051H488.744C491.59 527.051 493.898 524.744 493.898 521.897C493.898 519.051 491.59 516.744 488.744 516.744Z" fill="#C79CD3"></path> <path d="M387.385 549.385H366.77C364.872 549.385 363.334 550.923 363.334 552.82C363.334 554.718 364.872 556.256 366.77 556.256H387.385C389.283 556.256 390.821 554.718 390.821 552.82C390.821 550.923 389.283 549.385 387.385 549.385Z" fill="#212121" fill-opacity="0.1"></path> <path d="M471.565 549.385H404.565C402.667 549.385 401.129 550.923 401.129 552.82C401.129 554.718 402.667 556.256 404.565 556.256H471.565C473.462 556.256 475.001 554.718 475.001 552.82C475.001 550.923 473.462 549.385 471.565 549.385Z" fill="#212121" fill-opacity="0.1"></path> <path d="M531.693 549.385H488.744C486.847 549.385 485.309 550.923 485.309 552.82C485.309 554.718 486.847 556.256 488.744 556.256H531.693C533.591 556.256 535.129 554.718 535.129 552.82C535.129 550.923 533.591 549.385 531.693 549.385Z" fill="#212121" fill-opacity="0.1"></path> <path d="M408.001 568.282H366.77C364.872 568.282 363.334 569.82 363.334 571.718C363.334 573.615 364.872 575.154 366.77 575.154H408.001C409.898 575.154 411.437 573.615 411.437 571.718C411.437 569.82 409.898 568.282 408.001 568.282Z" fill="#212121" fill-opacity="0.1"></path> <path d="M475.001 568.282H425.18C423.282 568.282 421.744 569.82 421.744 571.718C421.744 573.615 423.282 575.154 425.18 575.154H475.001C476.898 575.154 478.436 573.615 478.436 571.718C478.436 569.82 476.898 568.282 475.001 568.282Z" fill="#212121" fill-opacity="0.1"></path> <path d="M531.693 568.282H492.18C490.282 568.282 488.744 569.82 488.744 571.718C488.744 573.615 490.282 575.154 492.18 575.154H531.693C533.59 575.154 535.129 573.615 535.129 571.718C535.129 569.82 533.59 568.282 531.693 568.282Z" fill="#212121" fill-opacity="0.1"></path> <path d="M542.001 369.859H356.462C351.244 369.859 347.014 374.089 347.014 379.308V626.692C347.014 631.911 351.244 636.141 356.462 636.141H542.001C547.219 636.141 551.45 631.911 551.45 626.692V379.308C551.45 374.089 547.219 369.859 542.001 369.859Z" stroke="#212121" stroke-opacity="0.1" stroke-width="1.71795"></path> </g> <g clip-path="url(#clip6_34_49764)"> <path d="M768.154 369H582.615C576.923 369 572.308 373.615 572.308 379.308V626.692C572.308 632.385 576.923 637 582.615 637H768.154C773.847 637 778.461 632.385 778.461 626.692V379.308C778.461 373.615 773.847 369 768.154 369Z" fill="white"></path> <path d="M750.974 386.179H599.795C594.102 386.179 589.487 390.794 589.487 396.487V478.949C589.487 484.641 594.102 489.256 599.795 489.256H750.974C756.667 489.256 761.282 484.641 761.282 478.949V396.487C761.282 390.794 756.667 386.179 750.974 386.179Z" fill="#212121" fill-opacity="0.05"></path> <path opacity="0.2" fill-rule="evenodd" clip-rule="evenodd" d="M691.117 449.955V425.481C691.117 423.557 689.544 421.985 687.621 421.985H663.147C661.223 421.985 659.651 423.559 659.651 425.481V449.955C659.651 451.879 661.225 453.451 663.147 453.451H687.621C689.545 453.451 691.117 451.877 691.117 449.955ZM669.265 440.34L673.635 445.602L679.755 437.718L687.621 448.206H663.147L669.265 440.34Z" fill="#212121"></path> <g opacity="0.5"> <path d="M647.898 516.744H594.641C591.795 516.744 589.487 519.051 589.487 521.897C589.487 524.744 591.795 527.051 594.641 527.051H647.898C650.744 527.051 653.051 524.744 653.051 521.897C653.051 519.051 650.744 516.744 647.898 516.744Z" fill="#903AA8"></path> <path d="M685.692 516.744H666.794C663.948 516.744 661.641 519.051 661.641 521.897C661.641 524.744 663.948 527.051 666.794 527.051H685.692C688.538 527.051 690.846 524.744 690.846 521.897C690.846 519.051 688.538 516.744 685.692 516.744Z" fill="#903AA8"></path> <path d="M714.897 516.744H704.589C701.743 516.744 699.436 519.051 699.436 521.897C699.436 524.744 701.743 527.051 704.589 527.051H714.897C717.743 527.051 720.051 524.744 720.051 521.897C720.051 519.051 717.743 516.744 714.897 516.744Z" fill="#903AA8"></path> </g> <path d="M613.539 549.385H592.923C591.026 549.385 589.487 550.923 589.487 552.82C589.487 554.718 591.026 556.256 592.923 556.256H613.539C615.436 556.256 616.974 554.718 616.974 552.82C616.974 550.923 615.436 549.385 613.539 549.385Z" fill="#212121" fill-opacity="0.1"></path> <path d="M697.718 549.385H630.718C628.821 549.385 627.282 550.923 627.282 552.82C627.282 554.718 628.821 556.256 630.718 556.256H697.718C699.616 556.256 701.154 554.718 701.154 552.82C701.154 550.923 699.616 549.385 697.718 549.385Z" fill="#212121" fill-opacity="0.1"></path> <path d="M757.847 549.385H714.898C713 549.385 711.462 550.923 711.462 552.82C711.462 554.718 713 556.256 714.898 556.256H757.847C759.744 556.256 761.282 554.718 761.282 552.82C761.282 550.923 759.744 549.385 757.847 549.385Z" fill="#212121" fill-opacity="0.1"></path> <path d="M634.154 568.282H592.923C591.026 568.282 589.487 569.82 589.487 571.718C589.487 573.615 591.026 575.154 592.923 575.154H634.154C636.052 575.154 637.59 573.615 637.59 571.718C637.59 569.82 636.052 568.282 634.154 568.282Z" fill="#212121" fill-opacity="0.1"></path> <path d="M701.154 568.282H651.333C649.436 568.282 647.897 569.82 647.897 571.718C647.897 573.615 649.436 575.154 651.333 575.154H701.154C703.051 575.154 704.59 573.615 704.59 571.718C704.59 569.82 703.051 568.282 701.154 568.282Z" fill="#212121" fill-opacity="0.1"></path> <path d="M757.846 568.282H718.333C716.436 568.282 714.897 569.82 714.897 571.718C714.897 573.615 716.436 575.154 718.333 575.154H757.846C759.744 575.154 761.282 573.615 761.282 571.718C761.282 569.82 759.744 568.282 757.846 568.282Z" fill="#212121" fill-opacity="0.1"></path> <path d="M768.154 369.859H582.616C577.397 369.859 573.167 374.089 573.167 379.308V626.692C573.167 631.911 577.397 636.141 582.616 636.141H768.154C773.373 636.141 777.603 631.911 777.603 626.692V379.308C777.603 374.089 773.373 369.859 768.154 369.859Z" stroke="#212121" stroke-opacity="0.1" stroke-width="1.71795"></path> </g> <g filter="url(#filter0_dd_34_49764)"> <rect x="80" y="56.167" width="742" height="64" rx="10" fill="white"></rect> <rect x="770" y="72.167" width="32" height="32" rx="16" fill="#E6EFFF"></rect> <path d="M784.257 84.9471C784.427 84.5779 784.523 84.1718 784.523 83.7361C784.523 82.1041 783.201 80.7822 781.569 80.7822C779.937 80.7822 778.615 82.1041 778.615 83.7361C778.615 85.3681 779.937 86.6899 781.569 86.6899C782.005 86.6899 782.411 86.5939 782.78 86.4241L784.523 88.1668L782.78 89.9096C782.411 89.7398 782.005 89.6438 781.569 89.6438C779.937 89.6438 778.615 90.9656 778.615 92.5976C778.615 94.2296 779.937 95.5515 781.569 95.5515C783.201 95.5515 784.523 94.2296 784.523 92.5976C784.523 92.1619 784.427 91.7558 784.257 91.3865L786 89.6438L791.169 94.813H793.384V94.0745L784.257 84.9471ZM781.569 85.213C780.757 85.213 780.092 84.5558 780.092 83.7361C780.092 82.9164 780.757 82.2591 781.569 82.2591C782.381 82.2591 783.046 82.9164 783.046 83.7361C783.046 84.5558 782.381 85.213 781.569 85.213ZM781.569 94.0745C780.757 94.0745 780.092 93.4173 780.092 92.5976C780.092 91.7779 780.757 91.1207 781.569 91.1207C782.381 91.1207 783.046 91.7779 783.046 92.5976C783.046 93.4173 782.381 94.0745 781.569 94.0745ZM786 88.5361C785.793 88.5361 785.631 88.3736 785.631 88.1668C785.631 87.9601 785.793 87.7976 786 87.7976C786.207 87.7976 786.369 87.9601 786.369 88.1668C786.369 88.3736 786.207 88.5361 786 88.5361ZM791.169 81.5207L786.738 85.9515L788.215 87.4284L793.384 82.2591V81.5207H791.169Z" fill="#367BF5"></path> <rect x="734" y="72.167" width="32" height="32" rx="16" fill="#E6EFFF"></rect> <path d="M752.315 81.5208C751.938 81.5208 751.562 81.6684 751.274 81.9564L743.047 90.1829C742.471 90.7515 742.471 91.6894 743.047 92.2728L744.849 94.0746H750.506L756.945 87.6278C757.528 87.0592 757.528 86.1214 756.945 85.538L753.364 81.9564C753.076 81.6684 752.692 81.5208 752.315 81.5208ZM753.688 92.5977L752.212 94.0746H757.381V92.5977" fill="#367BF5"></path> <rect x="639" y="72.167" width="32" height="32" rx="16" fill="#FCF3D7"></rect> <g style="mix-blend-mode:multiply"> <path d="M646.877 92.5756L648.184 91.2759L649.233 92.3098L650.015 91.5344L648.967 90.4932L650.015 89.4446L651.839 91.2759L652.622 90.4932L650.798 88.6618L651.839 87.6206L652.888 88.6618L653.671 87.879L652.622 86.8378L653.671 85.7892L655.495 87.6206L656.278 86.8378L654.454 85.0064L655.495 83.9652L656.536 85.0064L657.326 84.2236L656.278 83.1824L657.326 82.1338L659.143 83.9652L659.933 83.1824L658.109 81.351L659.409 80.0439L662.547 83.1824L650.015 95.7141L646.877 92.5756Z" fill="#F3AA18"></path> </g> <rect x="675" y="72.167" width="32" height="32" rx="16" fill="#FCF3D7"></rect> <g style="mix-blend-mode:multiply"> <path d="M683.831 94.357L690.92 87.2678L689.887 86.2191L689.355 86.7435C689.067 87.0315 688.602 87.0315 688.314 86.7435L687.789 86.2191C687.501 85.9311 687.501 85.4659 687.789 85.1779L691.969 80.9982C692.257 80.7102 692.722 80.7102 693.01 80.9982L693.535 81.5225C693.823 81.8105 693.823 82.2758 693.535 82.5638L693.01 83.0733L694.059 84.1293C694.347 83.8413 694.812 83.8413 695.1 84.1293C695.388 84.4173 695.388 84.8899 695.1 85.1779L696.141 86.2191L696.666 85.6948C696.954 85.4068 697.426 85.4068 697.714 85.6948L698.231 86.2191C698.519 86.5071 698.519 86.9798 698.231 87.2678L694.059 91.4401C693.771 91.7281 693.298 91.7281 693.01 91.4401L692.493 90.9231C692.198 90.6351 692.198 90.1625 692.493 89.8745L693.01 89.3502L691.969 88.309L684.872 95.4056C684.584 95.6936 684.119 95.6936 683.831 95.4056C683.543 95.1176 683.543 94.645 683.831 94.357ZM696.902 93.4118C697.294 93.4118 697.669 93.5674 697.946 93.8443C698.223 94.1213 698.379 94.497 698.379 94.8887V95.6271H690.994V94.8887C690.994 94.497 691.15 94.1213 691.427 93.8443C691.704 93.5674 692.08 93.4118 692.471 93.4118H696.902Z" fill="#F3AA18"></path> </g> <rect x="603" y="72.167" width="32" height="32" rx="16" fill="#FCF3D7"></rect> <g style="mix-blend-mode:multiply"> <path d="M622.205 80.7822C621.917 80.7822 621.636 80.893 621.415 81.1071L619.849 82.6727L623.763 86.5939L625.328 85.0431C625.772 84.5927 625.772 83.8911 625.328 83.4628L622.988 81.1071C622.766 80.893 622.485 80.7822 622.205 80.7822ZM619.325 83.197L613.343 89.1859L615.234 89.3927L615.367 91.0838L617.05 91.2093L617.264 93.0998L623.246 87.1108L619.325 83.197ZM612.908 89.8727L611.615 94.813L616.563 93.4911L616.386 91.8961L614.68 91.7705L614.547 90.0573" fill="#F3AA18"></path> </g> <rect x="488.5" y="72.667" width="89" height="31" rx="15.5" stroke="#ABB9C0"></rect> <path d="M500.938 92.8813V91.8313H503.36V85.1813H500.924V84.3973C501.269 84.3693 501.624 84.318 501.988 84.2433C502.361 84.1687 502.725 84.052 503.08 83.8933C503.435 83.7253 503.757 83.5107 504.046 83.2493H504.606V91.8313H506.888V92.8813H500.938ZM511.569 93.0493C511.046 93.0493 510.579 92.9747 510.169 92.8253C509.758 92.6667 509.408 92.4007 509.119 92.0273C508.829 91.6447 508.61 91.136 508.461 90.5013C508.311 89.8573 508.237 89.05 508.237 88.0793C508.237 87.1087 508.311 86.306 508.461 85.6713C508.61 85.0273 508.829 84.5187 509.119 84.1453C509.408 83.7627 509.758 83.4967 510.169 83.3473C510.579 83.1887 511.046 83.1093 511.569 83.1093C512.091 83.1093 512.553 83.1887 512.955 83.3473C513.365 83.4967 513.715 83.7627 514.005 84.1453C514.294 84.5187 514.513 85.0273 514.663 85.6713C514.812 86.306 514.887 87.1087 514.887 88.0793C514.887 89.05 514.812 89.8573 514.663 90.5013C514.513 91.136 514.294 91.6447 514.005 92.0273C513.715 92.4007 513.365 92.6667 512.955 92.8253C512.553 92.9747 512.091 93.0493 511.569 93.0493ZM511.569 92.0133C512.101 92.0133 512.511 91.878 512.801 91.6073C513.099 91.3367 513.305 90.9353 513.417 90.4033C513.538 89.8713 513.599 89.2087 513.599 88.4153V87.7713C513.599 86.9687 513.538 86.3013 513.417 85.7693C513.305 85.228 513.099 84.822 512.801 84.5513C512.511 84.2807 512.101 84.1453 511.569 84.1453C511.037 84.1453 510.621 84.2807 510.323 84.5513C510.024 84.822 509.814 85.2233 509.693 85.7553C509.581 86.2873 509.525 86.9547 509.525 87.7573V88.3873C509.525 89.1807 509.581 89.848 509.693 90.3893C509.814 90.9307 510.024 91.3367 510.323 91.6073C510.621 91.878 511.037 92.0133 511.569 92.0133ZM519.844 93.0493C519.322 93.0493 518.855 92.9747 518.444 92.8253C518.034 92.6667 517.684 92.4007 517.394 92.0273C517.105 91.6447 516.886 91.136 516.736 90.5013C516.587 89.8573 516.512 89.05 516.512 88.0793C516.512 87.1087 516.587 86.306 516.736 85.6713C516.886 85.0273 517.105 84.5187 517.394 84.1453C517.684 83.7627 518.034 83.4967 518.444 83.3473C518.855 83.1887 519.322 83.1093 519.844 83.1093C520.367 83.1093 520.829 83.1887 521.23 83.3473C521.641 83.4967 521.991 83.7627 522.28 84.1453C522.57 84.5187 522.789 85.0273 522.938 85.6713C523.088 86.306 523.162 87.1087 523.162 88.0793C523.162 89.05 523.088 89.8573 522.938 90.5013C522.789 91.136 522.57 91.6447 522.28 92.0273C521.991 92.4007 521.641 92.6667 521.23 92.8253C520.829 92.9747 520.367 93.0493 519.844 93.0493ZM519.844 92.0133C520.376 92.0133 520.787 91.878 521.076 91.6073C521.375 91.3367 521.58 90.9353 521.692 90.4033C521.814 89.8713 521.874 89.2087 521.874 88.4153V87.7713C521.874 86.9687 521.814 86.3013 521.692 85.7693C521.58 85.228 521.375 84.822 521.076 84.5513C520.787 84.2807 520.376 84.1453 519.844 84.1453C519.312 84.1453 518.897 84.2807 518.598 84.5513C518.3 84.822 518.09 85.2233 517.968 85.7553C517.856 86.2873 517.8 86.9547 517.8 87.7573V88.3873C517.8 89.1807 517.856 89.848 517.968 90.3893C518.09 90.9307 518.3 91.3367 518.598 91.6073C518.897 91.878 519.312 92.0133 519.844 92.0133ZM526.748 92.8813L533.678 83.2773H534.798L527.854 92.8813H526.748ZM527.518 88.1633C527.079 88.1633 526.696 88.0887 526.37 87.9393C526.052 87.7807 525.81 87.5193 525.642 87.1553C525.474 86.7913 525.39 86.2873 525.39 85.6433C525.39 84.99 525.474 84.4813 525.642 84.1173C525.81 83.7533 526.052 83.4967 526.37 83.3473C526.696 83.1887 527.079 83.1093 527.518 83.1093C527.966 83.1093 528.344 83.1887 528.652 83.3473C528.96 83.4967 529.198 83.7533 529.366 84.1173C529.543 84.4813 529.632 84.99 529.632 85.6433C529.632 86.2873 529.543 86.796 529.366 87.1693C529.198 87.5333 528.96 87.79 528.652 87.9393C528.344 88.0887 527.966 88.1633 527.518 88.1633ZM527.518 87.3373C527.938 87.3373 528.218 87.1973 528.358 86.9173C528.498 86.628 528.568 86.2267 528.568 85.7133V85.5733C528.568 85.228 528.54 84.934 528.484 84.6913C528.428 84.4487 528.32 84.262 528.162 84.1313C528.012 84.0007 527.798 83.9353 527.518 83.9353C527.107 83.9353 526.827 84.08 526.678 84.3693C526.528 84.6493 526.454 85.0507 526.454 85.5733V85.7133C526.454 86.2267 526.528 86.628 526.678 86.9173C526.827 87.1973 527.107 87.3373 527.518 87.3373ZM534.014 93.0493C533.575 93.0493 533.197 92.9747 532.88 92.8253C532.562 92.6667 532.32 92.4053 532.152 92.0413C531.984 91.6773 531.9 91.1733 531.9 90.5293C531.9 89.876 531.984 89.3673 532.152 89.0033C532.32 88.6393 532.562 88.3827 532.88 88.2333C533.197 88.0747 533.575 87.9953 534.014 87.9953C534.462 87.9953 534.84 88.0747 535.148 88.2333C535.465 88.3827 535.708 88.6393 535.876 89.0033C536.044 89.3673 536.128 89.876 536.128 90.5293C536.128 91.1733 536.044 91.682 535.876 92.0553C535.708 92.4193 535.465 92.676 535.148 92.8253C534.84 92.9747 534.462 93.0493 534.014 93.0493ZM534.014 92.2233C534.443 92.2233 534.723 92.0833 534.854 91.8033C534.994 91.514 535.064 91.108 535.064 90.5853V90.4593C535.064 90.114 535.036 89.82 534.98 89.5773C534.924 89.3347 534.821 89.148 534.672 89.0173C534.522 88.8867 534.303 88.8213 534.014 88.8213C533.603 88.8213 533.323 88.966 533.174 89.2553C533.034 89.5353 532.964 89.9367 532.964 90.4593V90.5853C532.964 91.108 533.034 91.514 533.174 91.8033C533.323 92.0833 533.603 92.2233 534.014 92.2233Z" fill="black"></path> <path d="M551 85.167L556 90.167L561 85.167H551Z" fill="#78909C"></path> <rect x="322.5" y="72.667" width="161" height="31" rx="15.5" stroke="#ABB9C0"></rect> <path d="M334.098 92.8813L337.892 83.2773H339.642L343.45 92.8813H342.008L341.07 90.5013H336.394L335.47 92.8813H334.098ZM336.828 89.3673H340.622L339.46 86.3573C339.432 86.2733 339.39 86.1567 339.334 86.0073C339.278 85.858 339.217 85.6947 339.152 85.5173C339.087 85.3307 339.021 85.144 338.956 84.9573C338.891 84.7613 338.83 84.584 338.774 84.4253H338.69C338.625 84.612 338.55 84.8267 338.466 85.0693C338.382 85.312 338.298 85.55 338.214 85.7833C338.13 86.0073 338.06 86.1987 338.004 86.3573L336.828 89.3673ZM347.559 93.0493C346.85 93.0493 346.252 92.914 345.767 92.6433C345.291 92.3633 344.927 91.9387 344.675 91.3693C344.432 90.7907 344.311 90.0673 344.311 89.1993C344.311 88.3313 344.432 87.6127 344.675 87.0433C344.927 86.474 345.296 86.0493 345.781 85.7693C346.276 85.4893 346.882 85.3493 347.601 85.3493C348.105 85.3493 348.539 85.4147 348.903 85.5453C349.276 85.676 349.584 85.8673 349.827 86.1193C350.07 86.3713 350.247 86.6747 350.359 87.0293C350.48 87.384 350.541 87.79 350.541 88.2473H349.295C349.295 87.818 349.234 87.468 349.113 87.1973C349.001 86.9173 348.819 86.712 348.567 86.5813C348.315 86.4413 347.984 86.3713 347.573 86.3713C347.162 86.3713 346.808 86.4647 346.509 86.6513C346.21 86.8287 345.982 87.1133 345.823 87.5053C345.664 87.8973 345.585 88.4153 345.585 89.0593V89.3533C345.585 89.96 345.66 90.464 345.809 90.8653C345.968 91.2667 346.196 91.5607 346.495 91.7473C346.794 91.934 347.158 92.0273 347.587 92.0273C348.007 92.0273 348.343 91.9527 348.595 91.8033C348.856 91.654 349.043 91.4393 349.155 91.1593C349.276 90.8793 349.337 90.5433 349.337 90.1513H350.541C350.541 90.562 350.48 90.9447 350.359 91.2993C350.247 91.654 350.07 91.962 349.827 92.2233C349.584 92.4847 349.276 92.69 348.903 92.8393C348.53 92.9793 348.082 93.0493 347.559 93.0493ZM353.991 93.0493C353.608 93.0493 353.309 92.9793 353.095 92.8393C352.88 92.69 352.726 92.4987 352.633 92.2653C352.539 92.0227 352.493 91.766 352.493 91.4953V86.5533H351.541V85.5173H352.521L352.745 83.4593H353.725V85.5173H355.111V86.5533H353.725V91.3133C353.725 91.5467 353.767 91.724 353.851 91.8453C353.935 91.9573 354.093 92.0133 354.327 92.0133H355.111V92.8253C355.017 92.872 354.905 92.9093 354.775 92.9373C354.644 92.9653 354.509 92.9887 354.369 93.0073C354.238 93.0353 354.112 93.0493 353.991 93.0493ZM356.675 84.1313V82.7593H357.907V84.1313H356.675ZM356.675 92.8813V85.5173H357.907V92.8813H356.675ZM362.016 92.8813L359.286 85.5173H360.574L361.918 89.1993C361.983 89.3767 362.058 89.6007 362.142 89.8713C362.226 90.1327 362.31 90.4033 362.394 90.6833C362.487 90.954 362.562 91.1967 362.618 91.4113H362.688C362.753 91.206 362.828 90.968 362.912 90.6973C362.996 90.4173 363.08 90.1467 363.164 89.8853C363.257 89.6147 363.336 89.386 363.402 89.1993L364.732 85.5173H365.978L363.248 92.8813H362.016ZM370.246 93.0493C369.518 93.0493 368.902 92.914 368.398 92.6433C367.903 92.3633 367.525 91.9387 367.264 91.3693C367.012 90.8 366.886 90.0767 366.886 89.1993C366.886 88.3127 367.012 87.5893 367.264 87.0293C367.525 86.46 367.908 86.04 368.412 85.7693C368.916 85.4893 369.546 85.3493 370.302 85.3493C370.993 85.3493 371.571 85.4847 372.038 85.7553C372.505 86.0167 372.855 86.4133 373.088 86.9453C373.331 87.468 373.452 88.126 373.452 88.9193V89.5073H368.16C368.179 90.0953 368.263 90.5807 368.412 90.9633C368.571 91.3367 368.804 91.612 369.112 91.7893C369.42 91.9573 369.807 92.0413 370.274 92.0413C370.591 92.0413 370.867 92.004 371.1 91.9293C371.343 91.8453 371.543 91.7287 371.702 91.5793C371.87 91.43 371.996 91.2527 372.08 91.0473C372.164 90.842 372.211 90.618 372.22 90.3753H373.424C373.415 90.7673 373.34 91.1313 373.2 91.4673C373.06 91.794 372.855 92.074 372.584 92.3073C372.313 92.5407 371.982 92.7227 371.59 92.8533C371.198 92.984 370.75 93.0493 370.246 93.0493ZM368.188 88.5833H372.178C372.178 88.1727 372.131 87.8273 372.038 87.5473C371.945 87.2673 371.809 87.0387 371.632 86.8613C371.464 86.684 371.263 86.558 371.03 86.4833C370.806 86.3993 370.549 86.3573 370.26 86.3573C369.831 86.3573 369.467 86.4367 369.168 86.5953C368.869 86.754 368.641 86.9967 368.482 87.3233C368.323 87.65 368.225 88.07 368.188 88.5833ZM378.402 95.3033V85.5173H379.382L379.508 86.5673H379.606C379.858 86.1567 380.18 85.8533 380.572 85.6573C380.964 85.452 381.407 85.3493 381.902 85.3493C382.518 85.3493 383.04 85.4847 383.47 85.7553C383.899 86.026 384.23 86.4507 384.464 87.0293C384.697 87.5987 384.814 88.3407 384.814 89.2553C384.814 90.114 384.692 90.828 384.45 91.3973C384.216 91.9573 383.885 92.3727 383.456 92.6433C383.026 92.914 382.527 93.0493 381.958 93.0493C381.64 93.0493 381.342 93.012 381.062 92.9373C380.782 92.8627 380.53 92.746 380.306 92.5873C380.082 92.4193 379.886 92.2093 379.718 91.9573H379.634V95.3033H378.402ZM381.566 91.9713C382.023 91.9713 382.396 91.8827 382.686 91.7053C382.975 91.5187 383.19 91.234 383.33 90.8513C383.47 90.4593 383.54 89.96 383.54 89.3533V89.0593C383.54 88.4153 383.465 87.902 383.316 87.5193C383.166 87.1273 382.947 86.8473 382.658 86.6793C382.378 86.5113 382.028 86.4273 381.608 86.4273C381.15 86.4273 380.772 86.53 380.474 86.7353C380.184 86.9313 379.97 87.23 379.83 87.6313C379.699 88.0327 379.634 88.5227 379.634 89.1013V89.3113C379.634 89.8247 379.68 90.254 379.774 90.5993C379.876 90.9353 380.016 91.206 380.194 91.4113C380.38 91.6167 380.59 91.7613 380.824 91.8453C381.057 91.9293 381.304 91.9713 381.566 91.9713ZM386.595 92.8813V85.5173H387.589L387.701 86.7353H387.799C387.874 86.502 387.976 86.2827 388.107 86.0773C388.238 85.8627 388.415 85.69 388.639 85.5593C388.863 85.4193 389.138 85.3493 389.465 85.3493C389.605 85.3493 389.731 85.3633 389.843 85.3913C389.964 85.41 390.053 85.4333 390.109 85.4613V86.5953H389.647C389.33 86.5953 389.054 86.6513 388.821 86.7633C388.597 86.866 388.41 87.0153 388.261 87.2113C388.112 87.4073 388 87.6407 387.925 87.9113C387.86 88.182 387.827 88.4713 387.827 88.7793V92.8813H386.595ZM394.381 93.0493C393.634 93.0493 393.004 92.914 392.491 92.6433C391.987 92.3633 391.599 91.9387 391.329 91.3693C391.067 90.8 390.937 90.0767 390.937 89.1993C390.937 88.3127 391.067 87.5893 391.329 87.0293C391.599 86.46 391.987 86.04 392.491 85.7693C393.004 85.4893 393.634 85.3493 394.381 85.3493C395.127 85.3493 395.753 85.4893 396.257 85.7693C396.77 86.04 397.157 86.46 397.419 87.0293C397.68 87.5893 397.811 88.3127 397.811 89.1993C397.811 90.0767 397.68 90.8 397.419 91.3693C397.157 91.9387 396.77 92.3633 396.257 92.6433C395.753 92.914 395.127 93.0493 394.381 93.0493ZM394.381 92.0133C394.857 92.0133 395.253 91.92 395.571 91.7333C395.888 91.5467 396.126 91.2573 396.285 90.8653C396.453 90.464 396.537 89.96 396.537 89.3533V89.0453C396.537 88.4293 396.453 87.9253 396.285 87.5333C396.126 87.1413 395.888 86.852 395.571 86.6653C395.253 86.4787 394.857 86.3853 394.381 86.3853C393.905 86.3853 393.503 86.4787 393.177 86.6653C392.859 86.852 392.621 87.1413 392.463 87.5333C392.304 87.9253 392.225 88.4293 392.225 89.0453V89.3533C392.225 89.96 392.304 90.464 392.463 90.8653C392.621 91.2573 392.859 91.5467 393.177 91.7333C393.503 91.92 393.905 92.0133 394.381 92.0133ZM399.591 84.1313V82.7593H400.823V84.1313H399.591ZM399.269 95.4293C399.166 95.4293 399.054 95.42 398.933 95.4013C398.812 95.392 398.695 95.3733 398.583 95.3453C398.471 95.3267 398.378 95.3033 398.303 95.2753V94.4213H398.933C399.148 94.4213 399.311 94.3607 399.423 94.2393C399.535 94.1273 399.591 93.964 399.591 93.7493V85.5173H400.823V93.7773C400.823 94.0573 400.776 94.3233 400.683 94.5753C400.59 94.8273 400.431 95.0327 400.207 95.1913C399.992 95.35 399.68 95.4293 399.269 95.4293ZM405.898 93.0493C405.17 93.0493 404.554 92.914 404.05 92.6433C403.556 92.3633 403.178 91.9387 402.916 91.3693C402.664 90.8 402.538 90.0767 402.538 89.1993C402.538 88.3127 402.664 87.5893 402.916 87.0293C403.178 86.46 403.56 86.04 404.064 85.7693C404.568 85.4893 405.198 85.3493 405.954 85.3493C406.645 85.3493 407.224 85.4847 407.69 85.7553C408.157 86.0167 408.507 86.4133 408.74 86.9453C408.983 87.468 409.104 88.126 409.104 88.9193V89.5073H403.812C403.831 90.0953 403.915 90.5807 404.064 90.9633C404.223 91.3367 404.456 91.612 404.764 91.7893C405.072 91.9573 405.46 92.0413 405.926 92.0413C406.244 92.0413 406.519 92.004 406.752 91.9293C406.995 91.8453 407.196 91.7287 407.354 91.5793C407.522 91.43 407.648 91.2527 407.732 91.0473C407.816 90.842 407.863 90.618 407.872 90.3753H409.076C409.067 90.7673 408.992 91.1313 408.852 91.4673C408.712 91.794 408.507 92.074 408.236 92.3073C407.966 92.5407 407.634 92.7227 407.242 92.8533C406.85 92.984 406.402 93.0493 405.898 93.0493ZM403.84 88.5833H407.83C407.83 88.1727 407.784 87.8273 407.69 87.5473C407.597 87.2673 407.462 87.0387 407.284 86.8613C407.116 86.684 406.916 86.558 406.682 86.4833C406.458 86.3993 406.202 86.3573 405.912 86.3573C405.483 86.3573 405.119 86.4367 404.82 86.5953C404.522 86.754 404.293 86.9967 404.134 87.3233C403.976 87.65 403.878 88.07 403.84 88.5833ZM413.678 93.0493C412.969 93.0493 412.371 92.914 411.886 92.6433C411.41 92.3633 411.046 91.9387 410.794 91.3693C410.551 90.7907 410.43 90.0673 410.43 89.1993C410.43 88.3313 410.551 87.6127 410.794 87.0433C411.046 86.474 411.415 86.0493 411.9 85.7693C412.395 85.4893 413.001 85.3493 413.72 85.3493C414.224 85.3493 414.658 85.4147 415.022 85.5453C415.395 85.676 415.703 85.8673 415.946 86.1193C416.189 86.3713 416.366 86.6747 416.478 87.0293C416.599 87.384 416.66 87.79 416.66 88.2473H415.414C415.414 87.818 415.353 87.468 415.232 87.1973C415.12 86.9173 414.938 86.712 414.686 86.5813C414.434 86.4413 414.103 86.3713 413.692 86.3713C413.281 86.3713 412.927 86.4647 412.628 86.6513C412.329 86.8287 412.101 87.1133 411.942 87.5053C411.783 87.8973 411.704 88.4153 411.704 89.0593V89.3533C411.704 89.96 411.779 90.464 411.928 90.8653C412.087 91.2667 412.315 91.5607 412.614 91.7473C412.913 91.934 413.277 92.0273 413.706 92.0273C414.126 92.0273 414.462 91.9527 414.714 91.8033C414.975 91.654 415.162 91.4393 415.274 91.1593C415.395 90.8793 415.456 90.5433 415.456 90.1513H416.66C416.66 90.562 416.599 90.9447 416.478 91.2993C416.366 91.654 416.189 91.962 415.946 92.2233C415.703 92.4847 415.395 92.69 415.022 92.8393C414.649 92.9793 414.201 93.0493 413.678 93.0493ZM420.11 93.0493C419.727 93.0493 419.429 92.9793 419.214 92.8393C418.999 92.69 418.845 92.4987 418.752 92.2653C418.659 92.0227 418.612 91.766 418.612 91.4953V86.5533H417.66V85.5173H418.64L418.864 83.4593H419.844V85.5173H421.23V86.5533H419.844V91.3133C419.844 91.5467 419.886 91.724 419.97 91.8453C420.054 91.9573 420.213 92.0133 420.446 92.0133H421.23V92.8253C421.137 92.872 421.025 92.9093 420.894 92.9373C420.763 92.9653 420.628 92.9887 420.488 93.0073C420.357 93.0353 420.231 93.0493 420.11 93.0493ZM425.37 93.0493C424.866 93.0493 424.423 92.998 424.04 92.8953C423.657 92.7927 423.34 92.6433 423.088 92.4473C422.836 92.2513 422.645 92.018 422.514 91.7473C422.383 91.4767 422.318 91.1687 422.318 90.8233C422.318 90.7767 422.318 90.7347 422.318 90.6973C422.318 90.6507 422.323 90.6133 422.332 90.5853H423.55C423.541 90.6227 423.536 90.6553 423.536 90.6833C423.536 90.7113 423.536 90.7393 423.536 90.7673C423.545 91.094 423.629 91.3507 423.788 91.5373C423.956 91.724 424.185 91.8547 424.474 91.9293C424.763 92.004 425.085 92.0413 425.44 92.0413C425.748 92.0413 426.033 92.004 426.294 91.9293C426.555 91.8453 426.761 91.724 426.91 91.5653C427.069 91.3973 427.148 91.1873 427.148 90.9353C427.148 90.6273 427.045 90.394 426.84 90.2353C426.644 90.0673 426.383 89.9367 426.056 89.8433C425.729 89.75 425.389 89.652 425.034 89.5493C424.735 89.4653 424.437 89.372 424.138 89.2693C423.839 89.1667 423.569 89.0407 423.326 88.8913C423.093 88.742 422.901 88.5507 422.752 88.3173C422.612 88.0747 422.542 87.7713 422.542 87.4073C422.542 87.0807 422.607 86.7913 422.738 86.5393C422.878 86.2873 423.074 86.0727 423.326 85.8953C423.578 85.718 423.881 85.5873 424.236 85.5033C424.6 85.41 425.001 85.3633 425.44 85.3633C425.907 85.3633 426.313 85.4147 426.658 85.5173C427.013 85.62 427.307 85.7647 427.54 85.9513C427.773 86.138 427.946 86.3527 428.058 86.5953C428.17 86.8287 428.226 87.0807 428.226 87.3513C428.226 87.4073 428.226 87.4633 428.226 87.5193C428.226 87.566 428.221 87.6033 428.212 87.6313H427.008V87.4773C427.008 87.2907 426.957 87.1133 426.854 86.9453C426.761 86.768 426.593 86.628 426.35 86.5253C426.117 86.4133 425.79 86.3573 425.37 86.3573C425.099 86.3573 424.866 86.3807 424.67 86.4273C424.474 86.4647 424.311 86.53 424.18 86.6233C424.049 86.7073 423.951 86.81 423.886 86.9313C423.821 87.0433 423.788 87.174 423.788 87.3233C423.788 87.566 423.867 87.7527 424.026 87.8833C424.185 88.014 424.395 88.1213 424.656 88.2053C424.927 88.2893 425.216 88.3827 425.524 88.4853C425.851 88.5787 426.182 88.6767 426.518 88.7793C426.863 88.8727 427.176 88.994 427.456 89.1433C427.745 89.2927 427.974 89.498 428.142 89.7593C428.319 90.0113 428.408 90.3473 428.408 90.7673C428.408 91.1593 428.333 91.5 428.184 91.7893C428.035 92.0787 427.82 92.3167 427.54 92.5033C427.269 92.69 426.947 92.8253 426.574 92.9093C426.21 93.0027 425.809 93.0493 425.37 93.0493Z" fill="black"></path> <path d="M457 85.167L462 90.167L467 85.167H457Z" fill="#78909C"></path> <rect x="230.5" y="72.667" width="87" height="31" rx="15.5" stroke="#ABB9C0"></rect> <path d="M244.842 92.8813L242.168 83.2773H243.596L245.304 89.7593C245.332 89.862 245.365 90.0113 245.402 90.2073C245.449 90.394 245.495 90.59 245.542 90.7953C245.589 91.0007 245.626 91.1827 245.654 91.3413H245.752C245.78 91.22 245.803 91.0847 245.822 90.9353C245.85 90.786 245.878 90.6367 245.906 90.4873C245.943 90.338 245.976 90.198 246.004 90.0673C246.032 89.9367 246.051 89.834 246.06 89.7593L247.656 83.2773H249.378L250.974 89.7593C251.002 89.862 251.035 90.0113 251.072 90.2073C251.119 90.394 251.161 90.59 251.198 90.7953C251.245 91.0007 251.282 91.1827 251.31 91.3413H251.408C251.436 91.22 251.464 91.0893 251.492 90.9493C251.52 90.8 251.553 90.6507 251.59 90.5013C251.627 90.352 251.66 90.212 251.688 90.0813C251.725 89.9507 251.753 89.8433 251.772 89.7593L253.494 83.2773H254.754L252.08 92.8813H250.484L248.818 86.3573C248.79 86.2173 248.757 86.054 248.72 85.8673C248.683 85.6713 248.645 85.4707 248.608 85.2653C248.571 85.06 248.538 84.8827 248.51 84.7333H248.426C248.407 84.892 248.379 85.074 248.342 85.2793C248.305 85.4847 248.263 85.6853 248.216 85.8813C248.179 86.0773 248.146 86.236 248.118 86.3573L246.494 92.8813H244.842ZM258.461 93.0493C257.733 93.0493 257.117 92.914 256.613 92.6433C256.118 92.3633 255.74 91.9387 255.479 91.3693C255.227 90.8 255.101 90.0767 255.101 89.1993C255.101 88.3127 255.227 87.5893 255.479 87.0293C255.74 86.46 256.123 86.04 256.627 85.7693C257.131 85.4893 257.761 85.3493 258.517 85.3493C259.207 85.3493 259.786 85.4847 260.253 85.7553C260.719 86.0167 261.069 86.4133 261.303 86.9453C261.545 87.468 261.667 88.126 261.667 88.9193V89.5073H256.375C256.393 90.0953 256.477 90.5807 256.627 90.9633C256.785 91.3367 257.019 91.612 257.327 91.7893C257.635 91.9573 258.022 92.0413 258.489 92.0413C258.806 92.0413 259.081 92.004 259.315 91.9293C259.557 91.8453 259.758 91.7287 259.917 91.5793C260.085 91.43 260.211 91.2527 260.295 91.0473C260.379 90.842 260.425 90.618 260.435 90.3753H261.639C261.629 90.7673 261.555 91.1313 261.415 91.4673C261.275 91.794 261.069 92.074 260.799 92.3073C260.528 92.5407 260.197 92.7227 259.805 92.8533C259.413 92.984 258.965 93.0493 258.461 93.0493ZM256.403 88.5833H260.393C260.393 88.1727 260.346 87.8273 260.253 87.5473C260.159 87.2673 260.024 87.0387 259.847 86.8613C259.679 86.684 259.478 86.558 259.245 86.4833C259.021 86.3993 258.764 86.3573 258.475 86.3573C258.045 86.3573 257.681 86.4367 257.383 86.5953C257.084 86.754 256.855 86.9967 256.697 87.3233C256.538 87.65 256.44 88.07 256.403 88.5833ZM266.381 93.0493C265.653 93.0493 265.037 92.914 264.533 92.6433C264.038 92.3633 263.66 91.9387 263.399 91.3693C263.147 90.8 263.021 90.0767 263.021 89.1993C263.021 88.3127 263.147 87.5893 263.399 87.0293C263.66 86.46 264.043 86.04 264.547 85.7693C265.051 85.4893 265.681 85.3493 266.437 85.3493C267.127 85.3493 267.706 85.4847 268.173 85.7553C268.639 86.0167 268.989 86.4133 269.223 86.9453C269.465 87.468 269.587 88.126 269.587 88.9193V89.5073H264.295C264.313 90.0953 264.397 90.5807 264.547 90.9633C264.705 91.3367 264.939 91.612 265.247 91.7893C265.555 91.9573 265.942 92.0413 266.409 92.0413C266.726 92.0413 267.001 92.004 267.235 91.9293C267.477 91.8453 267.678 91.7287 267.837 91.5793C268.005 91.43 268.131 91.2527 268.215 91.0473C268.299 90.842 268.345 90.618 268.355 90.3753H269.559C269.549 90.7673 269.475 91.1313 269.335 91.4673C269.195 91.794 268.989 92.074 268.719 92.3073C268.448 92.5407 268.117 92.7227 267.725 92.8533C267.333 92.984 266.885 93.0493 266.381 93.0493ZM264.323 88.5833H268.313C268.313 88.1727 268.266 87.8273 268.173 87.5473C268.079 87.2673 267.944 87.0387 267.767 86.8613C267.599 86.684 267.398 86.558 267.165 86.4833C266.941 86.3993 266.684 86.3573 266.395 86.3573C265.965 86.3573 265.601 86.4367 265.303 86.5953C265.004 86.754 264.775 86.9967 264.617 87.3233C264.458 87.65 264.36 88.07 264.323 88.5833ZM271.361 92.8813V82.7593H272.593V89.0873L275.715 85.5173H277.171L274.651 88.3733L277.311 92.8813H275.897L273.853 89.2833L272.593 90.5573V92.8813H271.361Z" fill="black"></path> <path d="M291 85.167L296 90.167L301 85.167H291Z" fill="#78909C"></path> <rect x="172" y="72.167" width="32" height="32" rx="16" fill="#DCF7E3"></rect> <path d="M191.692 82.2591V81.5207C191.692 81.3248 191.614 81.137 191.476 80.9985C191.337 80.86 191.149 80.7822 190.954 80.7822H182.092C181.896 80.7822 181.708 80.86 181.57 80.9985C181.431 81.137 181.354 81.3248 181.354 81.5207V84.4745C181.354 84.6704 181.431 84.8582 181.57 84.9967C181.708 85.1352 181.896 85.213 182.092 85.213H190.954C191.149 85.213 191.337 85.1352 191.476 84.9967C191.614 84.8582 191.692 84.6704 191.692 84.4745V83.7361H192.43V86.6899H185.046V94.813C185.046 95.0088 185.124 95.1967 185.262 95.3352C185.401 95.4737 185.588 95.5515 185.784 95.5515H187.261C187.457 95.5515 187.645 95.4737 187.783 95.3352C187.922 95.1967 188 95.0088 188 94.813V88.1668H193.907V82.2591H191.692Z" fill="#2FA84F"></path> <rect x="136" y="72.167" width="32" height="32" rx="16" fill="#DCF7E3"></rect> <path d="M156.431 81.5208H147.569V84.4746H156.431V81.5208ZM157.169 88.1669C156.973 88.1669 156.785 88.0891 156.647 87.9506C156.508 87.8121 156.431 87.6243 156.431 87.4284C156.431 87.2326 156.508 87.0448 156.647 86.9063C156.785 86.7678 156.973 86.69 157.169 86.69C157.365 86.69 157.553 86.7678 157.691 86.9063C157.83 87.0448 157.908 87.2326 157.908 87.4284C157.908 87.6243 157.83 87.8121 157.691 87.9506C157.553 88.0891 157.365 88.1669 157.169 88.1669ZM154.954 93.3361H149.046V89.6438H154.954V93.3361ZM157.169 85.2131H146.831C146.243 85.2131 145.68 85.4465 145.264 85.8619C144.849 86.2774 144.615 86.8409 144.615 87.4284V91.8592H147.569V94.8131H156.431V91.8592H159.384V87.4284C159.384 86.8409 159.151 86.2774 158.736 85.8619C158.32 85.4465 157.757 85.2131 157.169 85.2131Z" fill="#2FA84F"></path> <rect x="100" y="72.167" width="32" height="32" rx="16" fill="#DCF7E3"></rect> <path d="M120.43 92.5977H116V88.322C115.512 88.7724 114.87 89.0531 114.154 89.0531C112.647 89.0531 111.421 87.8272 111.421 86.3208C111.421 85.5961 111.709 84.9011 112.221 84.3887C112.734 83.8763 113.429 83.5884 114.154 83.5884C115.66 83.5884 116.886 84.8143 116.886 86.3208C116.886 87.0371 116.605 87.6795 116.155 88.1669H120.43V92.5977ZM121.169 81.5208H110.83C110.011 81.5208 109.354 82.178 109.354 82.9977V93.3361C109.354 93.7278 109.509 94.1035 109.786 94.3805C110.063 94.6575 110.439 94.8131 110.83 94.8131H121.169C121.561 94.8131 121.936 94.6575 122.213 94.3805C122.49 94.1035 122.646 93.7278 122.646 93.3361V82.9977C122.646 82.178 121.981 81.5208 121.169 81.5208Z" fill="#2FA84F"></path> </g> </g> <defs> <filter id="filter0_dd_34_49764" x="74.34" y="52.6295" width="753.32" height="75.32" filterUnits="userSpaceOnUse" color-interpolation-filters="sRGB"> <feFlood flood-opacity="0" result="BackgroundImageFix"></feFlood> <feColorMatrix in="SourceAlpha" type="matrix" values="0 0 0 0 0 0 0 0 0 0 0 0 0 0 0 0 0 0 127 0" result="hardAlpha"></feColorMatrix> <feOffset></feOffset> <feGaussianBlur stdDeviation="0.353749"></feGaussianBlur> <feColorMatrix type="matrix" values="0 0 0 0 0.0352941 0 0 0 0 0.117647 0 0 0 0 0.258824 0 0 0 0.31 0"></feColorMatrix> <feBlend mode="normal" in2="BackgroundImageFix" result="effect1_dropShadow_34_49764"></feBlend> <feColorMatrix in="SourceAlpha" type="matrix" values="0 0 0 0 0 0 0 0 0 0 0 0 0 0 0 0 0 0 127 0" result="hardAlpha"></feColorMatrix> <feOffset dy="2.12249"></feOffset> <feGaussianBlur stdDeviation="2.82999"></feGaussianBlur> <feColorMatrix type="matrix" values="0 0 0 0 0.0352941 0 0 0 0 0.117647 0 0 0 0 0.258824 0 0 0 0.16 0"></feColorMatrix> <feBlend mode="normal" in2="effect1_dropShadow_34_49764" result="effect2_dropShadow_34_49764"></feBlend> <feBlend mode="normal" in="SourceGraphic" in2="effect2_dropShadow_34_49764" result="shape"></feBlend> </filter> <clipPath id="clip0_34_49764"> <rect width="800" height="600" rx="30" fill="white"></rect> </clipPath> <clipPath id="clip1_34_49764"> <rect width="206.154" height="268" fill="white" transform="translate(120 69)"></rect> </clipPath> <clipPath id="clip2_34_49764"> <rect width="206.154" height="268" fill="white" transform="translate(346.154 69)"></rect> </clipPath> <clipPath id="clip3_34_49764"> <rect width="206.154" height="268" fill="white" transform="translate(572.308 69)"></rect> </clipPath> <clipPath id="clip4_34_49764"> <rect width="206.154" height="268" fill="white" transform="translate(120 369)"></rect> </clipPath> <clipPath id="clip5_34_49764"> <rect width="206.154" height="268" fill="white" transform="translate(346.154 369)"></rect> </clipPath> <clipPath id="clip6_34_49764"> <rect width="206.154" height="268" fill="white" transform="translate(572.308 369)"></rect> </clipPath> </defs> </svg> 