<?xml version="1.0" encoding="UTF-8"?> <svg xmlns="http://www.w3.org/2000/svg" width="344" height="448" viewBox="0 0 344 448" fill="none"> <rect x="0.5" y="0.5" width="343" height="447" rx="19.5" fill="white"></rect> <path d="M218.12 49V38.92H219.807V47.418H224.259V49H218.12ZM225.655 40.292V38.745H227.342V40.292H225.655ZM225.655 49V41.44H227.342V49H225.655ZM231.553 49L228.809 41.44H230.496L232.4 46.921L234.297 41.44H235.991L233.247 49H231.553ZM240.481 49.21C239.715 49.21 239.043 49.0443 238.465 48.713C237.886 48.3817 237.433 47.922 237.107 47.334C236.785 46.746 236.624 46.0693 236.624 45.304C236.624 44.478 236.782 43.7617 237.1 43.155C237.417 42.5437 237.858 42.07 238.423 41.734C238.987 41.398 239.641 41.23 240.383 41.23C241.167 41.23 241.832 41.4143 242.378 41.783C242.928 42.147 243.337 42.6627 243.603 43.33C243.869 43.9973 243.969 44.7837 243.904 45.689H242.231V45.073C242.226 44.2517 242.081 43.652 241.797 43.274C241.512 42.896 241.064 42.707 240.453 42.707C239.762 42.707 239.249 42.9217 238.913 43.351C238.577 43.7757 238.409 44.3987 238.409 45.22C238.409 45.9853 238.577 46.578 238.913 46.998C239.249 47.418 239.739 47.628 240.383 47.628C240.798 47.628 241.155 47.537 241.454 47.355C241.757 47.1683 241.99 46.9 242.154 46.55L243.82 47.054C243.53 47.7353 243.082 48.265 242.476 48.643C241.874 49.021 241.209 49.21 240.481 49.21ZM237.877 45.689V44.415H243.078V45.689H237.877ZM248.408 49V41.44H249.899V43.281L249.717 43.043C249.81 42.791 249.934 42.5623 250.088 42.357C250.247 42.147 250.436 41.9743 250.655 41.839C250.842 41.713 251.047 41.615 251.271 41.545C251.5 41.4703 251.733 41.426 251.971 41.412C252.209 41.3933 252.44 41.4027 252.664 41.44V43.015C252.44 42.9497 252.181 42.9287 251.887 42.952C251.598 42.9753 251.336 43.057 251.103 43.197C250.87 43.323 250.678 43.484 250.529 43.68C250.384 43.876 250.277 44.1 250.207 44.352C250.137 44.5993 250.102 44.8677 250.102 45.157V49H248.408ZM257.37 49.21C256.605 49.21 255.933 49.0443 255.354 48.713C254.776 48.3817 254.323 47.922 253.996 47.334C253.674 46.746 253.513 46.0693 253.513 45.304C253.513 44.478 253.672 43.7617 253.989 43.155C254.307 42.5437 254.748 42.07 255.312 41.734C255.877 41.398 256.53 41.23 257.272 41.23C258.056 41.23 258.721 41.4143 259.267 41.783C259.818 42.147 260.226 42.6627 260.492 43.33C260.758 43.9973 260.859 44.7837 260.793 45.689H259.12V45.073C259.116 44.2517 258.971 43.652 258.686 43.274C258.402 42.896 257.954 42.707 257.342 42.707C256.652 42.707 256.138 42.9217 255.802 43.351C255.466 43.7757 255.298 44.3987 255.298 45.22C255.298 45.9853 255.466 46.578 255.802 46.998C256.138 47.418 256.628 47.628 257.272 47.628C257.688 47.628 258.045 47.537 258.343 47.355C258.647 47.1683 258.88 46.9 259.043 46.55L260.709 47.054C260.42 47.7353 259.972 48.265 259.365 48.643C258.763 49.021 258.098 49.21 257.37 49.21ZM254.766 45.689V44.415H259.967V45.689H254.766ZM265.344 49.21C264.411 49.21 263.652 49 263.069 48.58C262.486 48.16 262.131 47.5697 262.005 46.809L263.727 46.543C263.816 46.9163 264.012 47.2103 264.315 47.425C264.618 47.6397 265.001 47.747 265.463 47.747C265.869 47.747 266.182 47.6677 266.401 47.509C266.625 47.3457 266.737 47.124 266.737 46.844C266.737 46.6713 266.695 46.5337 266.611 46.431C266.532 46.3237 266.354 46.221 266.079 46.123C265.804 46.025 265.381 45.9013 264.812 45.752C264.177 45.584 263.673 45.4043 263.3 45.213C262.927 45.017 262.658 44.786 262.495 44.52C262.332 44.254 262.25 43.932 262.25 43.554C262.25 43.0827 262.374 42.672 262.621 42.322C262.868 41.972 263.214 41.7037 263.657 41.517C264.1 41.3257 264.623 41.23 265.225 41.23C265.813 41.23 266.333 41.321 266.786 41.503C267.243 41.685 267.612 41.944 267.892 42.28C268.172 42.616 268.345 43.0103 268.41 43.463L266.688 43.771C266.646 43.449 266.499 43.1947 266.247 43.008C266 42.8213 265.668 42.7163 265.253 42.693C264.856 42.6697 264.537 42.7303 264.294 42.875C264.051 43.015 263.93 43.2133 263.93 43.47C263.93 43.6147 263.979 43.7383 264.077 43.841C264.175 43.9437 264.371 44.0463 264.665 44.149C264.964 44.2517 265.407 44.3777 265.995 44.527C266.597 44.681 267.078 44.8583 267.437 45.059C267.801 45.255 268.062 45.4907 268.221 45.766C268.384 46.0413 268.466 46.375 268.466 46.767C268.466 47.5277 268.188 48.125 267.633 48.559C267.082 48.993 266.319 49.21 265.344 49.21ZM272.904 49.217C272.344 49.217 271.882 49.1237 271.518 48.937C271.154 48.7503 270.865 48.5123 270.65 48.223C270.436 47.9337 270.277 47.6257 270.174 47.299C270.072 46.9723 270.004 46.6643 269.971 46.375C269.943 46.081 269.929 45.843 269.929 45.661V41.44H271.637V45.08C271.637 45.3133 271.654 45.577 271.686 45.871C271.719 46.1603 271.794 46.4403 271.91 46.711C272.032 46.977 272.209 47.1963 272.442 47.369C272.68 47.5417 273 47.628 273.401 47.628C273.616 47.628 273.828 47.593 274.038 47.523C274.248 47.453 274.437 47.334 274.605 47.166C274.778 46.9933 274.916 46.7577 275.018 46.459C275.121 46.1603 275.172 45.7823 275.172 45.325L276.173 45.752C276.173 46.396 276.047 46.9793 275.795 47.502C275.548 48.0247 275.182 48.4423 274.696 48.755C274.211 49.063 273.614 49.217 272.904 49.217ZM275.375 49V46.655H275.172V41.44H276.866V49H275.375ZM279.043 49V38.71H280.73V49H279.043ZM287.328 49C286.828 49.0933 286.338 49.133 285.858 49.119C285.382 49.1097 284.955 49.0233 284.577 48.86C284.199 48.692 283.912 48.4283 283.716 48.069C283.543 47.7423 283.452 47.4087 283.443 47.068C283.433 46.7273 283.429 46.3423 283.429 45.913V39.34H285.109V45.815C285.109 46.1183 285.111 46.3843 285.116 46.613C285.125 46.8417 285.174 47.0283 285.263 47.173C285.431 47.453 285.699 47.6093 286.068 47.642C286.436 47.6747 286.856 47.656 287.328 47.586V49ZM282.057 42.763V41.44H287.328V42.763H282.057ZM291.942 49.21C291.009 49.21 290.251 49 289.667 48.58C289.084 48.16 288.729 47.5697 288.603 46.809L290.325 46.543C290.414 46.9163 290.61 47.2103 290.913 47.425C291.217 47.6397 291.599 47.747 292.061 47.747C292.467 47.747 292.78 47.6677 292.999 47.509C293.223 47.3457 293.335 47.124 293.335 46.844C293.335 46.6713 293.293 46.5337 293.209 46.431C293.13 46.3237 292.953 46.221 292.677 46.123C292.402 46.025 291.98 45.9013 291.41 45.752C290.776 45.584 290.272 45.4043 289.898 45.213C289.525 45.017 289.257 44.786 289.093 44.52C288.93 44.254 288.848 43.932 288.848 43.554C288.848 43.0827 288.972 42.672 289.219 42.322C289.467 41.972 289.812 41.7037 290.255 41.517C290.699 41.3257 291.221 41.23 291.823 41.23C292.411 41.23 292.932 41.321 293.384 41.503C293.842 41.685 294.21 41.944 294.49 42.28C294.77 42.616 294.943 43.0103 295.008 43.463L293.286 43.771C293.244 43.449 293.097 43.1947 292.845 43.008C292.598 42.8213 292.267 42.7163 291.851 42.693C291.455 42.6697 291.135 42.7303 290.892 42.875C290.65 43.015 290.528 43.2133 290.528 43.47C290.528 43.6147 290.577 43.7383 290.675 43.841C290.773 43.9437 290.969 44.0463 291.263 44.149C291.562 44.2517 292.005 44.3777 292.593 44.527C293.195 44.681 293.676 44.8583 294.035 45.059C294.399 45.255 294.661 45.4907 294.819 45.766C294.983 46.0413 295.064 46.375 295.064 46.767C295.064 47.5277 294.787 48.125 294.231 48.559C293.681 48.993 292.918 49.21 291.942 49.21Z" fill="#414141"></path> <path d="M310.243 48.3137L306 44.071L307.414 42.6568L310.243 45.4853L315.899 39.8284L317.314 41.2426L310.243 48.3137Z" fill="#1F8B24"></path> <path fill-rule="evenodd" clip-rule="evenodd" d="M301 37C301 34.7909 302.791 33 305 33H319C321.209 33 323 34.7909 323 37V51C323 53.2091 321.209 55 319 55H305C302.791 55 301 53.2091 301 51V37ZM305 35H319C320.105 35 321 35.8954 321 37V51C321 52.1046 320.105 53 319 53H305C303.895 53 303 52.1046 303 51V37C303 35.8954 303.895 35 305 35Z" fill="#1F8B24"></path> <path d="M25.844 53V45.86L20 35.72H22.928L27.116 42.98L31.304 35.72H34.232L28.388 45.86V53H25.844ZM39.6127 53.36C38.3167 53.36 37.1927 53.068 36.2407 52.484C35.2887 51.9 34.5527 51.096 34.0327 50.072C33.5207 49.04 33.2647 47.852 33.2647 46.508C33.2647 45.156 33.5287 43.968 34.0567 42.944C34.5847 41.912 35.3247 41.112 36.2767 40.544C37.2287 39.968 38.3407 39.68 39.6127 39.68C40.9087 39.68 42.0327 39.972 42.9847 40.556C43.9367 41.14 44.6727 41.944 45.1927 42.968C45.7127 43.992 45.9727 45.172 45.9727 46.508C45.9727 47.86 45.7087 49.052 45.1807 50.084C44.6607 51.108 43.9247 51.912 42.9727 52.496C42.0207 53.072 40.9007 53.36 39.6127 53.36ZM39.6127 50.996C40.8527 50.996 41.7767 50.58 42.3847 49.748C43.0007 48.908 43.3087 47.828 43.3087 46.508C43.3087 45.156 42.9967 44.076 42.3727 43.268C41.7567 42.452 40.8367 42.044 39.6127 42.044C38.7727 42.044 38.0807 42.236 37.5367 42.62C36.9927 42.996 36.5887 43.52 36.3247 44.192C36.0607 44.856 35.9287 45.628 35.9287 46.508C35.9287 47.868 36.2407 48.956 36.8647 49.772C37.4887 50.588 38.4047 50.996 39.6127 50.996ZM53.4937 53.348C52.5977 53.348 51.8457 53.204 51.2377 52.916C50.6297 52.628 50.1337 52.252 49.7497 51.788C49.3737 51.316 49.0857 50.804 48.8857 50.252C48.6857 49.7 48.5497 49.16 48.4777 48.632C48.4057 48.104 48.3697 47.64 48.3697 47.24V40.04H50.9137V46.412C50.9137 46.916 50.9537 47.436 51.0337 47.972C51.1217 48.5 51.2817 48.992 51.5137 49.448C51.7537 49.904 52.0857 50.272 52.5097 50.552C52.9417 50.832 53.5017 50.972 54.1897 50.972C54.6377 50.972 55.0617 50.9 55.4617 50.756C55.8617 50.604 56.2097 50.364 56.5057 50.036C56.8097 49.708 57.0457 49.276 57.2137 48.74C57.3897 48.204 57.4777 47.552 57.4777 46.784L59.0377 47.372C59.0377 48.548 58.8177 49.588 58.3777 50.492C57.9377 51.388 57.3057 52.088 56.4817 52.592C55.6577 53.096 54.6617 53.348 53.4937 53.348ZM57.7777 53V49.256H57.4777V40.04H60.0097V53H57.7777ZM63.3753 53V40.04H65.6073V43.184L65.2953 42.776C65.4553 42.36 65.6633 41.98 65.9193 41.636C66.1753 41.284 66.4713 40.996 66.8073 40.772C67.1353 40.532 67.4993 40.348 67.8993 40.22C68.3073 40.084 68.7233 40.004 69.1473 39.98C69.5713 39.948 69.9793 39.968 70.3713 40.04V42.392C69.9473 42.28 69.4753 42.248 68.9553 42.296C68.4433 42.344 67.9713 42.508 67.5393 42.788C67.1313 43.052 66.8073 43.372 66.5673 43.748C66.3353 44.124 66.1673 44.544 66.0633 45.008C65.9593 45.464 65.9073 45.948 65.9073 46.46V53H63.3753ZM81.7693 53V38.084H76.0213V35.72H90.0253V38.084H84.2773V53H81.7693ZM90.7503 53V40.04H92.9823V43.184L92.6703 42.776C92.8303 42.36 93.0383 41.98 93.2943 41.636C93.5503 41.284 93.8463 40.996 94.1823 40.772C94.5103 40.532 94.8743 40.348 95.2743 40.22C95.6823 40.084 96.0983 40.004 96.5223 39.98C96.9463 39.948 97.3543 39.968 97.7463 40.04V42.392C97.3223 42.28 96.8503 42.248 96.3303 42.296C95.8183 42.344 95.3463 42.508 94.9143 42.788C94.5063 43.052 94.1823 43.372 93.9423 43.748C93.7103 44.124 93.5423 44.544 93.4383 45.008C93.3343 45.464 93.2823 45.948 93.2823 46.46V53H90.7503ZM100.272 37.916V35.48H102.78V37.916H100.272ZM100.272 53V40.04H102.78V53H100.272ZM112.467 53.36C111.227 53.36 110.187 53.06 109.347 52.46C108.507 51.852 107.871 51.032 107.439 50C107.007 48.968 106.791 47.804 106.791 46.508C106.791 45.212 107.003 44.048 107.427 43.016C107.859 41.984 108.491 41.172 109.323 40.58C110.163 39.98 111.195 39.68 112.419 39.68C113.635 39.68 114.683 39.98 115.563 40.58C116.451 41.172 117.135 41.984 117.615 43.016C118.095 44.04 118.335 45.204 118.335 46.508C118.335 47.804 118.095 48.972 117.615 50.012C117.143 51.044 116.467 51.86 115.587 52.46C114.715 53.06 113.675 53.36 112.467 53.36ZM106.371 58.76V40.04H108.603V49.364H108.891V58.76H106.371ZM112.119 51.092C112.919 51.092 113.579 50.888 114.099 50.48C114.627 50.072 115.019 49.524 115.275 48.836C115.539 48.14 115.671 47.364 115.671 46.508C115.671 45.66 115.539 44.892 115.275 44.204C115.019 43.516 114.623 42.968 114.087 42.56C113.551 42.152 112.867 41.948 112.035 41.948C111.251 41.948 110.603 42.14 110.091 42.524C109.587 42.908 109.211 43.444 108.963 44.132C108.723 44.82 108.603 45.612 108.603 46.508C108.603 47.404 108.723 48.196 108.963 48.884C109.203 49.572 109.583 50.112 110.103 50.504C110.623 50.896 111.295 51.092 112.119 51.092ZM125.706 53.348C124.13 53.348 122.846 53 121.854 52.304C120.862 51.608 120.254 50.628 120.03 49.364L122.598 48.968C122.758 49.64 123.126 50.172 123.702 50.564C124.286 50.948 125.01 51.14 125.874 51.14C126.658 51.14 127.27 50.98 127.71 50.66C128.158 50.34 128.382 49.9 128.382 49.34C128.382 49.012 128.302 48.748 128.142 48.548C127.99 48.34 127.666 48.144 127.17 47.96C126.674 47.776 125.918 47.548 124.902 47.276C123.79 46.988 122.906 46.68 122.25 46.352C121.602 46.016 121.138 45.628 120.858 45.188C120.586 44.74 120.45 44.2 120.45 43.568C120.45 42.784 120.658 42.1 121.074 41.516C121.49 40.932 122.074 40.48 122.826 40.16C123.586 39.84 124.474 39.68 125.49 39.68C126.482 39.68 127.366 39.836 128.142 40.148C128.918 40.46 129.546 40.904 130.026 41.48C130.506 42.048 130.794 42.716 130.89 43.484L128.322 43.952C128.234 43.328 127.942 42.836 127.446 42.476C126.95 42.116 126.306 41.92 125.514 41.888C124.754 41.856 124.138 41.984 123.666 42.272C123.194 42.552 122.958 42.94 122.958 43.436C122.958 43.724 123.046 43.968 123.222 44.168C123.406 44.368 123.758 44.56 124.278 44.744C124.798 44.928 125.566 45.148 126.582 45.404C127.67 45.684 128.534 45.996 129.174 46.34C129.814 46.676 130.27 47.08 130.542 47.552C130.822 48.016 130.962 48.58 130.962 49.244C130.962 50.524 130.494 51.528 129.558 52.256C128.63 52.984 127.346 53.348 125.706 53.348Z" fill="black"></path> <rect x="20.5" y="80.5" width="303" height="47" rx="7.5" fill="white" stroke="#A1A1A1"></rect> <path fill-rule="evenodd" clip-rule="evenodd" d="M48.8688 107.457C51.3126 104.319 51.0918 99.7781 48.2067 96.893C45.0825 93.7688 40.0171 93.7688 36.893 96.893C33.7688 100.017 33.7688 105.082 36.893 108.207C39.7781 111.092 44.3188 111.313 47.4573 108.869C47.4708 108.884 47.4849 108.899 47.4996 108.914L51.7422 113.156C52.1327 113.547 52.7659 113.547 53.1564 113.156C53.5469 112.766 53.5469 112.133 53.1564 111.742L48.9138 107.5C48.8991 107.485 48.8841 107.471 48.8688 107.457ZM46.7924 98.3072C49.1356 100.65 49.1356 104.449 46.7924 106.792C44.4493 109.136 40.6503 109.136 38.3072 106.792C35.964 104.449 35.964 100.65 38.3072 98.3072C40.6503 95.964 44.4493 95.964 46.7924 98.3072Z" fill="#A1A1A1"></path> <path d="M69.28 110V98.48H70.456V108.872H75.928V110H69.28ZM81.1687 110.24C80.31 110.24 79.5767 110.045 78.9687 109.656C78.3607 109.267 77.894 108.728 77.5687 108.04C77.2433 107.352 77.0807 106.563 77.0807 105.672C77.0807 104.765 77.246 103.971 77.5767 103.288C77.9073 102.605 78.3767 102.075 78.9847 101.696C79.598 101.312 80.326 101.12 81.1687 101.12C82.0327 101.12 82.7687 101.315 83.3767 101.704C83.99 102.088 84.4567 102.624 84.7767 103.312C85.102 103.995 85.2647 104.781 85.2647 105.672C85.2647 106.579 85.102 107.376 84.7767 108.064C84.4513 108.747 83.982 109.28 83.3687 109.664C82.7553 110.048 82.022 110.24 81.1687 110.24ZM81.1687 109.112C82.1287 109.112 82.8433 108.795 83.3127 108.16C83.782 107.52 84.0167 106.691 84.0167 105.672C84.0167 104.627 83.7793 103.795 83.3047 103.176C82.8353 102.557 82.1233 102.248 81.1687 102.248C80.5233 102.248 79.99 102.395 79.5687 102.688C79.1527 102.976 78.8407 103.379 78.6327 103.896C78.43 104.408 78.3287 105 78.3287 105.672C78.3287 106.712 78.5687 107.547 79.0487 108.176C79.5287 108.8 80.2353 109.112 81.1687 109.112ZM90.4441 110.232C89.4308 110.232 88.5961 110.013 87.9401 109.576C87.2894 109.139 86.8894 108.531 86.7401 107.752L87.9401 107.552C88.0681 108.043 88.3588 108.435 88.8121 108.728C89.2708 109.016 89.8361 109.16 90.5081 109.16C91.1641 109.16 91.6814 109.024 92.0601 108.752C92.4388 108.475 92.6281 108.099 92.6281 107.624C92.6281 107.357 92.5668 107.141 92.4441 106.976C92.3268 106.805 92.0841 106.648 91.7161 106.504C91.3481 106.36 90.7988 106.189 90.0681 105.992C89.2841 105.779 88.6708 105.565 88.2281 105.352C87.7854 105.139 87.4708 104.893 87.2841 104.616C87.0974 104.333 87.0041 103.989 87.0041 103.584C87.0041 103.093 87.1428 102.664 87.4201 102.296C87.6974 101.923 88.0814 101.635 88.5721 101.432C89.0628 101.224 89.6334 101.12 90.2841 101.12C90.9348 101.12 91.5161 101.227 92.0281 101.44C92.5454 101.648 92.9614 101.941 93.2761 102.32C93.5908 102.699 93.7774 103.139 93.8361 103.64L92.6361 103.856C92.5561 103.349 92.3028 102.949 91.8761 102.656C91.4548 102.357 90.9188 102.203 90.2681 102.192C89.6548 102.176 89.1561 102.293 88.7721 102.544C88.3881 102.789 88.1961 103.117 88.1961 103.528C88.1961 103.757 88.2654 103.955 88.4041 104.12C88.5428 104.28 88.7934 104.432 89.1561 104.576C89.5241 104.72 90.0468 104.877 90.7241 105.048C91.5188 105.251 92.1428 105.464 92.5961 105.688C93.0494 105.912 93.3721 106.176 93.5641 106.48C93.7561 106.784 93.8521 107.16 93.8521 107.608C93.8521 108.424 93.5481 109.067 92.9401 109.536C92.3374 110 91.5054 110.232 90.4441 110.232ZM98.5671 110L102.535 98.48H104.095L108.063 110H106.839L103.071 99.136H103.535L99.7911 110H98.5671ZM100.335 107.208V106.104H106.287V107.208H100.335ZM116.017 110V105.592C116.017 105.112 115.971 104.672 115.881 104.272C115.79 103.867 115.643 103.515 115.441 103.216C115.243 102.912 114.985 102.677 114.665 102.512C114.35 102.347 113.966 102.264 113.513 102.264C113.097 102.264 112.729 102.336 112.409 102.48C112.094 102.624 111.827 102.832 111.609 103.104C111.395 103.371 111.233 103.696 111.121 104.08C111.009 104.464 110.953 104.901 110.953 105.392L110.121 105.208C110.121 104.323 110.275 103.579 110.585 102.976C110.894 102.373 111.321 101.917 111.865 101.608C112.409 101.299 113.033 101.144 113.737 101.144C114.254 101.144 114.705 101.224 115.089 101.384C115.478 101.544 115.806 101.76 116.073 102.032C116.345 102.304 116.563 102.616 116.729 102.968C116.894 103.315 117.014 103.685 117.089 104.08C117.163 104.469 117.201 104.859 117.201 105.248V110H116.017ZM109.769 110V101.36H110.833V103.488H110.953V110H109.769ZM122.977 114.08C122.535 114.08 122.097 114.013 121.665 113.88C121.239 113.752 120.844 113.547 120.481 113.264C120.119 112.987 119.815 112.624 119.569 112.176L120.633 111.584C120.873 112.064 121.209 112.408 121.641 112.616C122.079 112.829 122.524 112.936 122.977 112.936C123.601 112.936 124.105 112.819 124.489 112.584C124.879 112.355 125.161 112.013 125.337 111.56C125.513 111.107 125.599 110.541 125.593 109.864V107.56H125.729V101.36H126.777V109.88C126.777 110.125 126.769 110.36 126.753 110.584C126.743 110.813 126.719 111.037 126.681 111.256C126.58 111.901 126.369 112.432 126.049 112.848C125.735 113.264 125.319 113.573 124.801 113.776C124.289 113.979 123.681 114.08 122.977 114.08ZM122.897 110.24C122.092 110.24 121.404 110.04 120.833 109.64C120.263 109.235 119.825 108.688 119.521 108C119.217 107.312 119.065 106.536 119.065 105.672C119.065 104.813 119.215 104.04 119.513 103.352C119.817 102.664 120.252 102.12 120.817 101.72C121.383 101.32 122.06 101.12 122.849 101.12C123.66 101.12 124.343 101.317 124.897 101.712C125.452 102.107 125.871 102.648 126.153 103.336C126.441 104.019 126.585 104.797 126.585 105.672C126.585 106.531 126.444 107.307 126.161 108C125.879 108.688 125.463 109.235 124.913 109.64C124.364 110.04 123.692 110.24 122.897 110.24ZM123.017 109.144C123.631 109.144 124.137 108.995 124.537 108.696C124.937 108.397 125.236 107.987 125.433 107.464C125.631 106.936 125.729 106.339 125.729 105.672C125.729 104.995 125.631 104.397 125.433 103.88C125.236 103.357 124.937 102.949 124.537 102.656C124.143 102.363 123.644 102.216 123.041 102.216C122.423 102.216 121.911 102.368 121.505 102.672C121.1 102.976 120.799 103.389 120.601 103.912C120.409 104.435 120.313 105.021 120.313 105.672C120.313 106.328 120.412 106.92 120.609 107.448C120.812 107.971 121.113 108.384 121.513 108.688C121.913 108.992 122.415 109.144 123.017 109.144ZM132.939 110.24C132.096 110.24 131.366 110.053 130.747 109.68C130.134 109.307 129.656 108.781 129.315 108.104C128.974 107.427 128.803 106.632 128.803 105.72C128.803 104.776 128.971 103.96 129.307 103.272C129.643 102.584 130.115 102.053 130.723 101.68C131.336 101.307 132.059 101.12 132.891 101.12C133.744 101.12 134.472 101.317 135.075 101.712C135.678 102.101 136.134 102.661 136.443 103.392C136.752 104.123 136.894 104.995 136.867 106.008H135.667V105.592C135.646 104.472 135.403 103.627 134.939 103.056C134.48 102.485 133.808 102.2 132.923 102.2C131.995 102.2 131.283 102.501 130.787 103.104C130.296 103.707 130.051 104.565 130.051 105.68C130.051 106.768 130.296 107.613 130.787 108.216C131.283 108.813 131.984 109.112 132.891 109.112C133.51 109.112 134.048 108.971 134.507 108.688C134.971 108.4 135.336 107.987 135.603 107.448L136.699 107.872C136.358 108.624 135.854 109.208 135.187 109.624C134.526 110.035 133.776 110.24 132.939 110.24ZM129.635 106.008V105.024H136.235V106.008H129.635ZM139.071 110V98.24H140.247V110H139.071ZM146.57 110.24C145.728 110.24 144.997 110.053 144.378 109.68C143.765 109.307 143.288 108.781 142.946 108.104C142.605 107.427 142.434 106.632 142.434 105.72C142.434 104.776 142.602 103.96 142.938 103.272C143.274 102.584 143.746 102.053 144.354 101.68C144.968 101.307 145.69 101.12 146.522 101.12C147.376 101.12 148.104 101.317 148.706 101.712C149.309 102.101 149.765 102.661 150.074 103.392C150.384 104.123 150.525 104.995 150.498 106.008H149.298V105.592C149.277 104.472 149.034 103.627 148.57 103.056C148.112 102.485 147.44 102.2 146.554 102.2C145.626 102.2 144.914 102.501 144.418 103.104C143.928 103.707 143.682 104.565 143.682 105.68C143.682 106.768 143.928 107.613 144.418 108.216C144.914 108.813 145.616 109.112 146.522 109.112C147.141 109.112 147.68 108.971 148.138 108.688C148.602 108.4 148.968 107.987 149.234 107.448L150.33 107.872C149.989 108.624 149.485 109.208 148.818 109.624C148.157 110.035 147.408 110.24 146.57 110.24ZM143.266 106.008V105.024H149.866V106.008H143.266ZM155.766 110.232C154.753 110.232 153.918 110.013 153.262 109.576C152.612 109.139 152.212 108.531 152.062 107.752L153.262 107.552C153.39 108.043 153.681 108.435 154.134 108.728C154.593 109.016 155.158 109.16 155.83 109.16C156.486 109.16 157.004 109.024 157.382 108.752C157.761 108.475 157.95 108.099 157.95 107.624C157.95 107.357 157.889 107.141 157.766 106.976C157.649 106.805 157.406 106.648 157.038 106.504C156.67 106.36 156.121 106.189 155.39 105.992C154.606 105.779 153.993 105.565 153.55 105.352C153.108 105.139 152.793 104.893 152.606 104.616C152.42 104.333 152.326 103.989 152.326 103.584C152.326 103.093 152.465 102.664 152.742 102.296C153.02 101.923 153.404 101.635 153.894 101.432C154.385 101.224 154.956 101.12 155.606 101.12C156.257 101.12 156.838 101.227 157.35 101.44C157.868 101.648 158.284 101.941 158.598 102.32C158.913 102.699 159.1 103.139 159.158 103.64L157.958 103.856C157.878 103.349 157.625 102.949 157.198 102.656C156.777 102.357 156.241 102.203 155.59 102.192C154.977 102.176 154.478 102.293 154.094 102.544C153.71 102.789 153.518 103.117 153.518 103.528C153.518 103.757 153.588 103.955 153.726 104.12C153.865 104.28 154.116 104.432 154.478 104.576C154.846 104.72 155.369 104.877 156.046 105.048C156.841 105.251 157.465 105.464 157.918 105.688C158.372 105.912 158.694 106.176 158.886 106.48C159.078 106.784 159.174 107.16 159.174 107.608C159.174 108.424 158.87 109.067 158.262 109.536C157.66 110 156.828 110.232 155.766 110.232ZM161.057 111.672L161.129 111.088C161.343 111.104 161.497 111.061 161.593 110.96C161.689 110.859 161.748 110.723 161.769 110.552C161.791 110.381 161.796 110.197 161.785 110H161.057V108.312H162.425V110.32C162.425 110.811 162.3 111.179 162.049 111.424C161.804 111.669 161.473 111.752 161.057 111.672ZM173.872 110.24C172.725 110.24 171.757 109.987 170.968 109.48C170.179 108.968 169.581 108.261 169.176 107.36C168.771 106.459 168.568 105.419 168.568 104.24C168.568 103.061 168.771 102.021 169.176 101.12C169.581 100.219 170.179 99.5147 170.968 99.008C171.757 98.496 172.725 98.24 173.872 98.24C175.211 98.24 176.304 98.584 177.152 99.272C178 99.9547 178.581 100.872 178.896 102.024L177.696 102.336C177.451 101.424 177.011 100.701 176.376 100.168C175.741 99.6347 174.907 99.368 173.872 99.368C172.971 99.368 172.221 99.5733 171.624 99.984C171.027 100.395 170.576 100.968 170.272 101.704C169.973 102.435 169.819 103.28 169.808 104.24C169.803 105.2 169.949 106.045 170.248 106.776C170.552 107.507 171.005 108.08 171.608 108.496C172.216 108.907 172.971 109.112 173.872 109.112C174.907 109.112 175.741 108.845 176.376 108.312C177.011 107.773 177.451 107.051 177.696 106.144L178.896 106.456C178.581 107.608 178 108.528 177.152 109.216C176.304 109.899 175.211 110.24 173.872 110.24ZM179.818 110L183.786 98.48H185.346L189.314 110H188.09L184.322 99.136H184.786L181.042 110H179.818ZM181.586 107.208V106.104H187.538V107.208H181.586Z" fill="black"></path> <path d="M297.01 97.1274H299.01C300.114 97.1274 301.468 97.8967 302.033 98.8455L304.509 103H309.01C309.562 103 310.01 103.448 310.01 104C310.01 104.552 309.562 105 309.01 105H304.414L301.938 109.154C301.373 110.103 300.019 110.872 298.914 110.872H296.914L300.414 105H293.425L291.99 107.453H289.99L292.01 104L292.01 103.967L290.01 100.547H292.01L293.444 103H300.509L297.01 97.1274Z" fill="#1672EC"></path> <rect x="28" y="68" width="77" height="20" rx="4" fill="white"></rect> <path d="M32.84 83V74.36H35.462C35.554 74.36 35.71 74.362 35.93 74.366C36.154 74.37 36.368 74.386 36.572 74.414C37.228 74.506 37.776 74.75 38.216 75.146C38.656 75.542 38.986 76.046 39.206 76.658C39.426 77.27 39.536 77.944 39.536 78.68C39.536 79.416 39.426 80.09 39.206 80.702C38.986 81.314 38.656 81.818 38.216 82.214C37.776 82.61 37.228 82.854 36.572 82.946C36.372 82.97 36.158 82.986 35.93 82.994C35.702 82.998 35.546 83 35.462 83H32.84ZM33.752 82.154H35.462C35.626 82.154 35.802 82.15 35.99 82.142C36.182 82.13 36.346 82.11 36.482 82.082C36.986 81.994 37.392 81.79 37.7 81.47C38.012 81.15 38.24 80.75 38.384 80.27C38.528 79.786 38.6 79.256 38.6 78.68C38.6 78.1 38.528 77.568 38.384 77.084C38.24 76.6 38.012 76.2 37.7 75.884C37.388 75.568 36.982 75.366 36.482 75.278C36.346 75.25 36.18 75.232 35.984 75.224C35.792 75.212 35.618 75.206 35.462 75.206H33.752V82.154ZM44.0045 83.18C43.3725 83.18 42.8245 83.04 42.3605 82.76C41.9005 82.48 41.5425 82.086 41.2865 81.578C41.0305 81.07 40.9025 80.474 40.9025 79.79C40.9025 79.082 41.0285 78.47 41.2805 77.954C41.5325 77.438 41.8865 77.04 42.3425 76.76C42.8025 76.48 43.3445 76.34 43.9685 76.34C44.6085 76.34 45.1545 76.488 45.6065 76.784C46.0585 77.076 46.4005 77.496 46.6325 78.044C46.8645 78.592 46.9705 79.246 46.9505 80.006H46.0505V79.694C46.0345 78.854 45.8525 78.22 45.5045 77.792C45.1605 77.364 44.6565 77.15 43.9925 77.15C43.2965 77.15 42.7625 77.376 42.3905 77.828C42.0225 78.28 41.8385 78.924 41.8385 79.76C41.8385 80.576 42.0225 81.21 42.3905 81.662C42.7625 82.11 43.2885 82.334 43.9685 82.334C44.4325 82.334 44.8365 82.228 45.1805 82.016C45.5285 81.8 45.8025 81.49 46.0025 81.086L46.8245 81.404C46.5685 81.968 46.1905 82.406 45.6905 82.718C45.1945 83.026 44.6325 83.18 44.0045 83.18ZM41.5265 80.006V79.268H46.4765V80.006H41.5265ZM51.06 83.174C50.3 83.174 49.674 83.01 49.182 82.682C48.694 82.354 48.394 81.898 48.282 81.314L49.182 81.164C49.278 81.532 49.496 81.826 49.836 82.046C50.18 82.262 50.604 82.37 51.108 82.37C51.6 82.37 51.988 82.268 52.272 82.064C52.556 81.856 52.698 81.574 52.698 81.218C52.698 81.018 52.652 80.856 52.56 80.732C52.472 80.604 52.29 80.486 52.014 80.378C51.738 80.27 51.326 80.142 50.778 79.994C50.19 79.834 49.73 79.674 49.398 79.514C49.066 79.354 48.83 79.17 48.69 78.962C48.55 78.75 48.48 78.492 48.48 78.188C48.48 77.82 48.584 77.498 48.792 77.222C49 76.942 49.288 76.726 49.656 76.574C50.024 76.418 50.452 76.34 50.94 76.34C51.428 76.34 51.864 76.42 52.248 76.58C52.636 76.736 52.948 76.956 53.184 77.24C53.42 77.524 53.56 77.854 53.604 78.23L52.704 78.392C52.644 78.012 52.454 77.712 52.134 77.492C51.818 77.268 51.416 77.152 50.928 77.144C50.468 77.132 50.094 77.22 49.806 77.408C49.518 77.592 49.374 77.838 49.374 78.146C49.374 78.318 49.426 78.466 49.53 78.59C49.634 78.71 49.822 78.824 50.094 78.932C50.37 79.04 50.762 79.158 51.27 79.286C51.866 79.438 52.334 79.598 52.674 79.766C53.014 79.934 53.256 80.132 53.4 80.36C53.544 80.588 53.616 80.87 53.616 81.206C53.616 81.818 53.388 82.3 52.932 82.652C52.48 83 51.856 83.174 51.06 83.174ZM58.8347 83C58.4707 83.076 58.1107 83.106 57.7547 83.09C57.4027 83.074 57.0867 82.998 56.8067 82.862C56.5307 82.726 56.3207 82.514 56.1767 82.226C56.0607 81.986 55.9967 81.744 55.9847 81.5C55.9767 81.252 55.9727 80.97 55.9727 80.654V74.72H56.8487V80.618C56.8487 80.89 56.8507 81.118 56.8547 81.302C56.8627 81.482 56.9047 81.642 56.9807 81.782C57.1247 82.05 57.3527 82.21 57.6647 82.262C57.9807 82.314 58.3707 82.302 58.8347 82.226V83ZM54.5867 77.276V76.52H58.8347V77.276H54.5867ZM60.5914 75.29V74.3H61.4734V75.29H60.5914ZM60.5914 83V76.52H61.4734V83H60.5914ZM68.3122 83V79.694C68.3122 79.334 68.2782 79.004 68.2102 78.704C68.1422 78.4 68.0322 78.136 67.8802 77.912C67.7322 77.684 67.5382 77.508 67.2982 77.384C67.0622 77.26 66.7742 77.198 66.4342 77.198C66.1222 77.198 65.8462 77.252 65.6062 77.36C65.3702 77.468 65.1702 77.624 65.0062 77.828C64.8462 78.028 64.7242 78.272 64.6402 78.56C64.5562 78.848 64.5142 79.176 64.5142 79.544L63.8902 79.406C63.8902 78.742 64.0062 78.184 64.2382 77.732C64.4702 77.28 64.7902 76.938 65.1982 76.706C65.6062 76.474 66.0742 76.358 66.6022 76.358C66.9902 76.358 67.3282 76.418 67.6162 76.538C67.9082 76.658 68.1542 76.82 68.3542 77.024C68.5582 77.228 68.7222 77.462 68.8462 77.726C68.9702 77.986 69.0602 78.264 69.1162 78.56C69.1722 78.852 69.2002 79.144 69.2002 79.436V83H68.3122ZM63.6262 83V76.52H64.4242V78.116H64.5142V83H63.6262ZM72.9712 83.18C72.4832 83.18 72.0732 83.092 71.7412 82.916C71.4132 82.74 71.1672 82.506 71.0032 82.214C70.8392 81.922 70.7572 81.604 70.7572 81.26C70.7572 80.908 70.8272 80.608 70.9672 80.36C71.1112 80.108 71.3052 79.902 71.5492 79.742C71.7972 79.582 72.0832 79.46 72.4072 79.376C72.7352 79.296 73.0972 79.226 73.4932 79.166C73.8932 79.102 74.2832 79.048 74.6632 79.004C75.0472 78.956 75.3832 78.91 75.6712 78.866L75.3592 79.058C75.3712 78.418 75.2472 77.944 74.9872 77.636C74.7272 77.328 74.2752 77.174 73.6312 77.174C73.1872 77.174 72.8112 77.274 72.5032 77.474C72.1992 77.674 71.9852 77.99 71.8612 78.422L71.0032 78.17C71.1512 77.59 71.4492 77.14 71.8972 76.82C72.3452 76.5 72.9272 76.34 73.6432 76.34C74.2352 76.34 74.7372 76.452 75.1492 76.676C75.5652 76.896 75.8592 77.216 76.0312 77.636C76.1112 77.824 76.1632 78.034 76.1872 78.266C76.2112 78.498 76.2232 78.734 76.2232 78.974V83H75.4372V81.374L75.6652 81.47C75.4452 82.026 75.1032 82.45 74.6392 82.742C74.1752 83.034 73.6192 83.18 72.9712 83.18ZM73.0732 82.418C73.4852 82.418 73.8452 82.344 74.1532 82.196C74.4612 82.048 74.7092 81.846 74.8972 81.59C75.0852 81.33 75.2072 81.038 75.2632 80.714C75.3112 80.506 75.3372 80.278 75.3412 80.03C75.3452 79.778 75.3472 79.59 75.3472 79.466L75.6832 79.64C75.3832 79.68 75.0572 79.72 74.7052 79.76C74.3572 79.8 74.0132 79.846 73.6732 79.898C73.3372 79.95 73.0332 80.012 72.7612 80.084C72.5772 80.136 72.3992 80.21 72.2272 80.306C72.0552 80.398 71.9132 80.522 71.8012 80.678C71.6932 80.834 71.6392 81.028 71.6392 81.26C71.6392 81.448 71.6852 81.63 71.7772 81.806C71.8732 81.982 72.0252 82.128 72.2332 82.244C72.4452 82.36 72.7252 82.418 73.0732 82.418ZM81.6732 83C81.3092 83.076 80.9492 83.106 80.5932 83.09C80.2412 83.074 79.9252 82.998 79.6452 82.862C79.3692 82.726 79.1592 82.514 79.0152 82.226C78.8992 81.986 78.8352 81.744 78.8232 81.5C78.8152 81.252 78.8112 80.97 78.8112 80.654V74.72H79.6872V80.618C79.6872 80.89 79.6892 81.118 79.6932 81.302C79.7012 81.482 79.7432 81.642 79.8192 81.782C79.9632 82.05 80.1912 82.21 80.5032 82.262C80.8192 82.314 81.2092 82.302 81.6732 82.226V83ZM77.4252 77.276V76.52H81.6732V77.276H77.4252ZM83.4298 75.29V74.3H84.3118V75.29H83.4298ZM83.4298 83V76.52H84.3118V83H83.4298ZM89.1766 83.18C88.5326 83.18 87.9826 83.034 87.5266 82.742C87.0706 82.45 86.7206 82.046 86.4766 81.53C86.2326 81.014 86.1106 80.422 86.1106 79.754C86.1106 79.074 86.2346 78.478 86.4826 77.966C86.7306 77.454 87.0826 77.056 87.5386 76.772C87.9986 76.484 88.5446 76.34 89.1766 76.34C89.8246 76.34 90.3766 76.486 90.8326 76.778C91.2926 77.066 91.6426 77.468 91.8826 77.984C92.1266 78.496 92.2486 79.086 92.2486 79.754C92.2486 80.434 92.1266 81.032 91.8826 81.548C91.6386 82.06 91.2866 82.46 90.8266 82.748C90.3666 83.036 89.8166 83.18 89.1766 83.18ZM89.1766 82.334C89.8966 82.334 90.4326 82.096 90.7846 81.62C91.1366 81.14 91.3126 80.518 91.3126 79.754C91.3126 78.97 91.1346 78.346 90.7786 77.882C90.4266 77.418 89.8926 77.186 89.1766 77.186C88.6926 77.186 88.2926 77.296 87.9766 77.516C87.6646 77.732 87.4306 78.034 87.2746 78.422C87.1226 78.806 87.0466 79.25 87.0466 79.754C87.0466 80.534 87.2266 81.16 87.5866 81.632C87.9466 82.1 88.4766 82.334 89.1766 82.334ZM98.6122 83V79.694C98.6122 79.334 98.5782 79.004 98.5102 78.704C98.4422 78.4 98.3322 78.136 98.1802 77.912C98.0322 77.684 97.8382 77.508 97.5982 77.384C97.3622 77.26 97.0742 77.198 96.7342 77.198C96.4222 77.198 96.1462 77.252 95.9062 77.36C95.6702 77.468 95.4702 77.624 95.3062 77.828C95.1462 78.028 95.0242 78.272 94.9402 78.56C94.8562 78.848 94.8142 79.176 94.8142 79.544L94.1902 79.406C94.1902 78.742 94.3062 78.184 94.5382 77.732C94.7702 77.28 95.0902 76.938 95.4982 76.706C95.9062 76.474 96.3742 76.358 96.9022 76.358C97.2902 76.358 97.6282 76.418 97.9162 76.538C98.2082 76.658 98.4542 76.82 98.6542 77.024C98.8582 77.228 99.0222 77.462 99.1462 77.726C99.2702 77.986 99.3602 78.264 99.4162 78.56C99.4722 78.852 99.5002 79.144 99.5002 79.436V83H98.6122ZM93.9262 83V76.52H94.7242V78.116H94.8142V83H93.9262Z" fill="#616161"></path> <path d="M21.12 174V162.48H24.792C24.888 162.48 25.0773 162.483 25.36 162.488C25.648 162.493 25.9253 162.512 26.192 162.544C27.104 162.661 27.8747 162.987 28.504 163.52C29.1387 164.048 29.6187 164.723 29.944 165.544C30.2693 166.365 30.432 167.264 30.432 168.24C30.432 169.216 30.2693 170.115 29.944 170.936C29.6187 171.757 29.1387 172.435 28.504 172.968C27.8747 173.496 27.104 173.819 26.192 173.936C25.9307 173.968 25.656 173.987 25.368 173.992C25.08 173.997 24.888 174 24.792 174H21.12ZM23.08 172.184H24.792C24.952 172.184 25.1547 172.179 25.4 172.168C25.6507 172.157 25.872 172.133 26.064 172.096C26.608 171.995 27.0507 171.752 27.392 171.368C27.7333 170.984 27.984 170.517 28.144 169.968C28.3093 169.419 28.392 168.843 28.392 168.24C28.392 167.616 28.3093 167.029 28.144 166.48C27.9787 165.931 27.7227 165.469 27.376 165.096C27.0347 164.723 26.5973 164.485 26.064 164.384C25.872 164.341 25.6507 164.317 25.4 164.312C25.1547 164.301 24.952 164.296 24.792 164.296H23.08V172.184ZM34.8191 174.24C34.1951 174.24 33.6671 174.123 33.2351 173.888C32.8031 173.648 32.4751 173.331 32.2511 172.936C32.0325 172.541 31.9231 172.107 31.9231 171.632C31.9231 171.216 31.9925 170.843 32.1311 170.512C32.2698 170.176 32.4831 169.888 32.7711 169.648C33.0591 169.403 33.4325 169.203 33.8911 169.048C34.2378 168.936 34.6431 168.835 35.1071 168.744C35.5765 168.653 36.0831 168.571 36.6271 168.496C37.1765 168.416 37.7498 168.331 38.3471 168.24L37.6591 168.632C37.6645 168.035 37.5311 167.595 37.2591 167.312C36.9871 167.029 36.5285 166.888 35.8831 166.888C35.4938 166.888 35.1178 166.979 34.7551 167.16C34.3925 167.341 34.1391 167.653 33.9951 168.096L32.2351 167.544C32.4485 166.813 32.8538 166.227 33.4511 165.784C34.0538 165.341 34.8645 165.12 35.8831 165.12C36.6511 165.12 37.3258 165.245 37.9071 165.496C38.4938 165.747 38.9285 166.157 39.2111 166.728C39.3658 167.032 39.4591 167.344 39.4911 167.664C39.5231 167.979 39.5391 168.323 39.5391 168.696V174H37.8511V172.128L38.1311 172.432C37.7418 173.056 37.2858 173.515 36.7631 173.808C36.2458 174.096 35.5978 174.24 34.8191 174.24ZM35.2031 172.704C35.6405 172.704 36.0138 172.627 36.3231 172.472C36.6325 172.317 36.8778 172.128 37.0591 171.904C37.2458 171.68 37.3711 171.469 37.4351 171.272C37.5365 171.027 37.5925 170.747 37.6031 170.432C37.6191 170.112 37.6271 169.853 37.6271 169.656L38.2191 169.832C37.6378 169.923 37.1391 170.003 36.7231 170.072C36.3071 170.141 35.9498 170.208 35.6511 170.272C35.3525 170.331 35.0885 170.397 34.8591 170.472C34.6351 170.552 34.4458 170.645 34.2911 170.752C34.1365 170.859 34.0165 170.981 33.9311 171.12C33.8511 171.259 33.8111 171.421 33.8111 171.608C33.8111 171.821 33.8645 172.011 33.9711 172.176C34.0778 172.336 34.2325 172.464 34.4351 172.56C34.6431 172.656 34.8991 172.704 35.2031 172.704ZM46.7659 174C46.1952 174.107 45.6352 174.152 45.0859 174.136C44.5419 174.125 44.0539 174.027 43.6219 173.84C43.1899 173.648 42.8619 173.347 42.6379 172.936C42.4405 172.563 42.3365 172.181 42.3259 171.792C42.3152 171.403 42.3099 170.963 42.3099 170.472V162.96H44.2299V170.36C44.2299 170.707 44.2325 171.011 44.2379 171.272C44.2485 171.533 44.3045 171.747 44.4059 171.912C44.5979 172.232 44.9045 172.411 45.3259 172.448C45.7472 172.485 46.2272 172.464 46.7659 172.384V174ZM40.7419 166.872V165.36H46.7659V166.872H40.7419ZM52.1943 174.24C51.3196 174.24 50.5516 174.051 49.8902 173.672C49.2289 173.293 48.7116 172.768 48.3382 172.096C47.9702 171.424 47.7862 170.651 47.7862 169.776C47.7862 168.832 47.9676 168.013 48.3302 167.32C48.6929 166.621 49.1969 166.08 49.8422 165.696C50.4876 165.312 51.2343 165.12 52.0823 165.12C52.9783 165.12 53.7383 165.331 54.3623 165.752C54.9916 166.168 55.4583 166.757 55.7622 167.52C56.0663 168.283 56.1809 169.181 56.1062 170.216H54.1943V169.512C54.1889 168.573 54.0236 167.888 53.6983 167.456C53.3729 167.024 52.8609 166.808 52.1623 166.808C51.3729 166.808 50.7862 167.053 50.4022 167.544C50.0182 168.029 49.8262 168.741 49.8262 169.68C49.8262 170.555 50.0182 171.232 50.4022 171.712C50.7862 172.192 51.3463 172.432 52.0823 172.432C52.5569 172.432 52.9649 172.328 53.3063 172.12C53.6529 171.907 53.9196 171.6 54.1063 171.2L56.0103 171.776C55.6796 172.555 55.1676 173.16 54.4743 173.592C53.7863 174.024 53.0263 174.24 52.1943 174.24ZM49.2182 170.216V168.76H55.1623V170.216H49.2182ZM61.3073 174.24C60.2406 174.24 59.3739 174 58.7072 173.52C58.0406 173.04 57.6352 172.365 57.4912 171.496L59.4592 171.192C59.5606 171.619 59.7846 171.955 60.1312 172.2C60.4779 172.445 60.9152 172.568 61.4432 172.568C61.9072 172.568 62.2646 172.477 62.5152 172.296C62.7712 172.109 62.8993 171.856 62.8993 171.536C62.8993 171.339 62.8513 171.181 62.7552 171.064C62.6646 170.941 62.4619 170.824 62.1473 170.712C61.8326 170.6 61.3499 170.459 60.6992 170.288C59.9739 170.096 59.3979 169.891 58.9712 169.672C58.5446 169.448 58.2379 169.184 58.0512 168.88C57.8646 168.576 57.7712 168.208 57.7712 167.776C57.7712 167.237 57.9126 166.768 58.1952 166.368C58.4779 165.968 58.8726 165.661 59.3792 165.448C59.8859 165.229 60.4832 165.12 61.1712 165.12C61.8432 165.12 62.4379 165.224 62.9552 165.432C63.4779 165.64 63.8993 165.936 64.2193 166.32C64.5393 166.704 64.7366 167.155 64.8113 167.672L62.8432 168.024C62.7952 167.656 62.6272 167.365 62.3393 167.152C62.0566 166.939 61.6779 166.819 61.2032 166.792C60.7499 166.765 60.3846 166.835 60.1072 167C59.8299 167.16 59.6912 167.387 59.6912 167.68C59.6912 167.845 59.7472 167.987 59.8592 168.104C59.9712 168.221 60.1952 168.339 60.5312 168.456C60.8726 168.573 61.3793 168.717 62.0512 168.888C62.7393 169.064 63.2886 169.267 63.6993 169.496C64.1152 169.72 64.4139 169.989 64.5953 170.304C64.7819 170.619 64.8752 171 64.8752 171.448C64.8752 172.317 64.5579 173 63.9233 173.496C63.2939 173.992 62.4219 174.24 61.3073 174.24Z" fill="#616161"></path> <rect x="20.5" y="192.5" width="303" height="47" rx="7.5" fill="white" stroke="#A1A1A1"></rect> <path d="M48 214C48.5523 214 49 214.448 49 215C49 215.552 48.5523 216 48 216H40C39.4477 216 39 215.552 39 215C39 214.448 39.4477 214 40 214H48Z" fill="#A1A1A1"></path> <path fill-rule="evenodd" clip-rule="evenodd" d="M50 207C51.6569 207 53 208.343 53 210V222C53 223.657 51.6569 225 50 225H38C36.3431 225 35 223.657 35 222V210C35 208.343 36.3431 207 38 207H50ZM51 222V212H37V222C37 222.552 37.4477 223 38 223H50C50.5523 223 51 222.552 51 222Z" fill="#A1A1A1"></path> <path d="M72.184 222V211.608H68.16V210.48H77.384V211.608H73.36V222H72.184ZM85.1757 222V217.592C85.1757 217.112 85.1303 216.672 85.0397 216.272C84.949 215.867 84.8023 215.515 84.5997 215.216C84.4023 214.912 84.1437 214.677 83.8237 214.512C83.509 214.347 83.125 214.264 82.6717 214.264C82.2557 214.264 81.8877 214.336 81.5677 214.48C81.253 214.624 80.9863 214.832 80.7677 215.104C80.5543 215.371 80.3917 215.696 80.2797 216.08C80.1677 216.464 80.1117 216.901 80.1117 217.392L79.2797 217.208C79.2797 216.323 79.4343 215.579 79.7437 214.976C80.053 214.373 80.4797 213.917 81.0237 213.608C81.5677 213.299 82.1917 213.144 82.8957 213.144C83.413 213.144 83.8637 213.224 84.2477 213.384C84.637 213.544 84.965 213.76 85.2317 214.032C85.5037 214.304 85.7223 214.616 85.8877 214.968C86.053 215.315 86.173 215.685 86.2477 216.08C86.3223 216.469 86.3597 216.859 86.3597 217.248V222H85.1757ZM78.9277 222V210.48H79.9917V216.984H80.1117V222H78.9277ZM92.0085 222.216C91.4911 222.216 91.0378 222.136 90.6485 221.976C90.2645 221.816 89.9365 221.6 89.6645 221.328C89.3978 221.056 89.1818 220.747 89.0165 220.4C88.8511 220.048 88.7311 219.677 88.6565 219.288C88.5818 218.893 88.5445 218.501 88.5445 218.112V213.36H89.7285V217.768C89.7285 218.243 89.7738 218.683 89.8645 219.088C89.9551 219.493 90.0991 219.848 90.2965 220.152C90.4991 220.451 90.7578 220.683 91.0725 220.848C91.3925 221.013 91.7791 221.096 92.2325 221.096C92.6485 221.096 93.0138 221.024 93.3285 220.88C93.6485 220.736 93.9151 220.531 94.1285 220.264C94.3471 219.992 94.5125 219.664 94.6245 219.28C94.7365 218.891 94.7925 218.453 94.7925 217.968L95.6245 218.152C95.6245 219.037 95.4698 219.781 95.1605 220.384C94.8511 220.987 94.4245 221.443 93.8805 221.752C93.3365 222.061 92.7125 222.216 92.0085 222.216ZM94.9125 222V219.872H94.7925V213.36H95.9685V222H94.9125ZM98.3133 223.672L98.3853 223.088C98.5986 223.104 98.7533 223.061 98.8493 222.96C98.9453 222.859 99.0039 222.723 99.0253 222.552C99.0466 222.381 99.0519 222.197 99.0413 222H98.3133V220.312H99.6813V222.32C99.6813 222.811 99.5559 223.179 99.3053 223.424C99.0599 223.669 98.7293 223.752 98.3133 223.672ZM110.464 222.24C109.659 222.24 108.933 222.107 108.288 221.84C107.648 221.568 107.117 221.184 106.696 220.688C106.28 220.192 106.008 219.603 105.88 218.92L107.08 218.72C107.272 219.467 107.677 220.053 108.296 220.48C108.915 220.901 109.653 221.112 110.512 221.112C111.077 221.112 111.584 221.024 112.032 220.848C112.48 220.667 112.832 220.411 113.088 220.08C113.344 219.749 113.472 219.357 113.472 218.904C113.472 218.605 113.419 218.352 113.312 218.144C113.205 217.931 113.064 217.755 112.888 217.616C112.712 217.477 112.52 217.363 112.312 217.272C112.104 217.176 111.901 217.099 111.704 217.04L108.784 216.168C108.432 216.067 108.107 215.939 107.808 215.784C107.509 215.624 107.248 215.435 107.024 215.216C106.805 214.992 106.635 214.731 106.512 214.432C106.389 214.133 106.328 213.792 106.328 213.408C106.328 212.757 106.499 212.195 106.84 211.72C107.181 211.245 107.648 210.88 108.24 210.624C108.832 210.368 109.507 210.243 110.264 210.248C111.032 210.248 111.717 210.384 112.32 210.656C112.928 210.928 113.429 211.317 113.824 211.824C114.219 212.325 114.48 212.92 114.608 213.608L113.376 213.832C113.296 213.331 113.112 212.896 112.824 212.528C112.536 212.16 112.168 211.877 111.72 211.68C111.277 211.477 110.789 211.373 110.256 211.368C109.739 211.368 109.277 211.456 108.872 211.632C108.472 211.803 108.155 212.037 107.92 212.336C107.685 212.635 107.568 212.976 107.568 213.36C107.568 213.749 107.675 214.061 107.888 214.296C108.107 214.531 108.373 214.715 108.688 214.848C109.008 214.981 109.317 215.091 109.616 215.176L111.872 215.84C112.107 215.904 112.381 215.997 112.696 216.12C113.016 216.237 113.325 216.408 113.624 216.632C113.928 216.851 114.179 217.139 114.376 217.496C114.573 217.853 114.672 218.307 114.672 218.856C114.672 219.389 114.565 219.867 114.352 220.288C114.144 220.709 113.848 221.064 113.464 221.352C113.085 221.64 112.64 221.859 112.128 222.008C111.621 222.163 111.067 222.24 110.464 222.24ZM120.248 222.24C119.406 222.24 118.675 222.053 118.056 221.68C117.443 221.307 116.966 220.781 116.624 220.104C116.283 219.427 116.112 218.632 116.112 217.72C116.112 216.776 116.28 215.96 116.616 215.272C116.952 214.584 117.424 214.053 118.032 213.68C118.646 213.307 119.368 213.12 120.2 213.12C121.054 213.12 121.782 213.317 122.384 213.712C122.987 214.101 123.443 214.661 123.752 215.392C124.062 216.123 124.203 216.995 124.176 218.008H122.976V217.592C122.955 216.472 122.712 215.627 122.248 215.056C121.79 214.485 121.118 214.2 120.232 214.2C119.304 214.2 118.592 214.501 118.096 215.104C117.606 215.707 117.36 216.565 117.36 217.68C117.36 218.768 117.606 219.613 118.096 220.216C118.592 220.813 119.294 221.112 120.2 221.112C120.819 221.112 121.358 220.971 121.816 220.688C122.28 220.4 122.646 219.987 122.912 219.448L124.008 219.872C123.667 220.624 123.163 221.208 122.496 221.624C121.835 222.035 121.086 222.24 120.248 222.24ZM116.944 218.008V217.024H123.544V218.008H116.944ZM129.866 222.24C129.071 222.24 128.399 222.04 127.85 221.64C127.301 221.235 126.885 220.688 126.602 220C126.319 219.307 126.178 218.531 126.178 217.672C126.178 216.797 126.319 216.019 126.602 215.336C126.89 214.648 127.311 214.107 127.866 213.712C128.421 213.317 129.103 213.12 129.914 213.12C130.703 213.12 131.381 213.32 131.946 213.72C132.511 214.12 132.943 214.664 133.242 215.352C133.546 216.04 133.698 216.813 133.698 217.672C133.698 218.536 133.546 219.312 133.242 220C132.938 220.688 132.501 221.235 131.93 221.64C131.359 222.04 130.671 222.24 129.866 222.24ZM125.978 225.84V213.36H127.034V219.864H127.162V225.84H125.978ZM129.746 221.144C130.349 221.144 130.85 220.992 131.25 220.688C131.65 220.384 131.949 219.971 132.146 219.448C132.349 218.92 132.45 218.328 132.45 217.672C132.45 217.021 132.351 216.435 132.154 215.912C131.957 215.389 131.655 214.976 131.25 214.672C130.85 214.368 130.341 214.216 129.722 214.216C129.119 214.216 128.618 214.363 128.218 214.656C127.823 214.949 127.527 215.357 127.33 215.88C127.133 216.397 127.034 216.995 127.034 217.672C127.034 218.339 127.133 218.936 127.33 219.464C127.527 219.987 127.826 220.397 128.226 220.696C128.626 220.995 129.133 221.144 129.746 221.144ZM142.971 222V211.792L140.803 213.096V211.776L142.971 210.48H144.163V222H142.971ZM153.25 222.24C152.535 222.24 151.895 222.075 151.33 221.744C150.765 221.413 150.317 220.965 149.986 220.4C149.655 219.829 149.49 219.189 149.49 218.48V214C149.49 213.291 149.655 212.653 149.986 212.088C150.317 211.517 150.765 211.067 151.33 210.736C151.895 210.405 152.535 210.24 153.25 210.24C153.959 210.24 154.597 210.405 155.162 210.736C155.733 211.067 156.183 211.517 156.514 212.088C156.845 212.653 157.01 213.291 157.01 214V218.48C157.01 219.189 156.845 219.829 156.514 220.4C156.183 220.965 155.733 221.413 155.162 221.744C154.597 222.075 153.959 222.24 153.25 222.24ZM153.25 221.104C153.719 221.104 154.149 220.989 154.538 220.76C154.927 220.525 155.237 220.213 155.466 219.824C155.701 219.435 155.818 219.005 155.818 218.536V213.944C155.818 213.469 155.701 213.037 155.466 212.648C155.237 212.259 154.927 211.949 154.538 211.72C154.149 211.485 153.719 211.368 153.25 211.368C152.775 211.368 152.343 211.485 151.954 211.72C151.565 211.949 151.253 212.259 151.018 212.648C150.789 213.037 150.674 213.469 150.674 213.944V218.536C150.674 219.005 150.789 219.435 151.018 219.824C151.253 220.213 151.565 220.525 151.954 220.76C152.343 220.989 152.775 221.104 153.25 221.104ZM181.243 222.24C180.437 222.24 179.712 222.107 179.067 221.84C178.427 221.568 177.896 221.184 177.475 220.688C177.059 220.192 176.787 219.603 176.659 218.92L177.859 218.72C178.051 219.467 178.456 220.053 179.075 220.48C179.693 220.901 180.432 221.112 181.291 221.112C181.856 221.112 182.363 221.024 182.811 220.848C183.259 220.667 183.611 220.411 183.867 220.08C184.123 219.749 184.251 219.357 184.251 218.904C184.251 218.605 184.197 218.352 184.091 218.144C183.984 217.931 183.843 217.755 183.667 217.616C183.491 217.477 183.299 217.363 183.091 217.272C182.883 217.176 182.68 217.099 182.483 217.04L179.563 216.168C179.211 216.067 178.885 215.939 178.587 215.784C178.288 215.624 178.027 215.435 177.803 215.216C177.584 214.992 177.413 214.731 177.291 214.432C177.168 214.133 177.107 213.792 177.107 213.408C177.107 212.757 177.277 212.195 177.619 211.72C177.96 211.245 178.427 210.88 179.019 210.624C179.611 210.368 180.285 210.243 181.043 210.248C181.811 210.248 182.496 210.384 183.099 210.656C183.707 210.928 184.208 211.317 184.603 211.824C184.997 212.325 185.259 212.92 185.387 213.608L184.155 213.832C184.075 213.331 183.891 212.896 183.603 212.528C183.315 212.16 182.947 211.877 182.499 211.68C182.056 211.477 181.568 211.373 181.035 211.368C180.517 211.368 180.056 211.456 179.651 211.632C179.251 211.803 178.933 212.037 178.699 212.336C178.464 212.635 178.347 212.976 178.347 213.36C178.347 213.749 178.453 214.061 178.667 214.296C178.885 214.531 179.152 214.715 179.467 214.848C179.787 214.981 180.096 215.091 180.395 215.176L182.651 215.84C182.885 215.904 183.16 215.997 183.475 216.12C183.795 216.237 184.104 216.408 184.403 216.632C184.707 216.851 184.957 217.139 185.155 217.496C185.352 217.853 185.451 218.307 185.451 218.856C185.451 219.389 185.344 219.867 185.131 220.288C184.923 220.709 184.627 221.064 184.243 221.352C183.864 221.64 183.419 221.859 182.907 222.008C182.4 222.163 181.845 222.24 181.243 222.24ZM189.843 222.24C189.192 222.24 188.645 222.123 188.203 221.888C187.765 221.653 187.437 221.341 187.219 220.952C187 220.563 186.891 220.139 186.891 219.68C186.891 219.211 186.984 218.811 187.171 218.48C187.363 218.144 187.621 217.869 187.947 217.656C188.277 217.443 188.659 217.28 189.091 217.168C189.528 217.061 190.011 216.968 190.539 216.888C191.072 216.803 191.592 216.731 192.099 216.672C192.611 216.608 193.059 216.547 193.443 216.488L193.027 216.744C193.043 215.891 192.877 215.259 192.531 214.848C192.184 214.437 191.581 214.232 190.723 214.232C190.131 214.232 189.629 214.365 189.219 214.632C188.813 214.899 188.528 215.32 188.363 215.896L187.219 215.56C187.416 214.787 187.813 214.187 188.411 213.76C189.008 213.333 189.784 213.12 190.739 213.12C191.528 213.12 192.197 213.269 192.747 213.568C193.301 213.861 193.693 214.288 193.923 214.848C194.029 215.099 194.099 215.379 194.131 215.688C194.163 215.997 194.179 216.312 194.179 216.632V222H193.131V219.832L193.435 219.96C193.141 220.701 192.685 221.267 192.067 221.656C191.448 222.045 190.707 222.24 189.843 222.24ZM189.979 221.224C190.528 221.224 191.008 221.125 191.419 220.928C191.829 220.731 192.16 220.461 192.411 220.12C192.661 219.773 192.824 219.384 192.899 218.952C192.963 218.675 192.997 218.371 193.003 218.04C193.008 217.704 193.011 217.453 193.011 217.288L193.459 217.52C193.059 217.573 192.624 217.627 192.155 217.68C191.691 217.733 191.232 217.795 190.779 217.864C190.331 217.933 189.925 218.016 189.563 218.112C189.317 218.181 189.08 218.28 188.851 218.408C188.621 218.531 188.432 218.696 188.283 218.904C188.139 219.112 188.067 219.371 188.067 219.68C188.067 219.931 188.128 220.173 188.251 220.408C188.379 220.643 188.581 220.837 188.859 220.992C189.141 221.147 189.515 221.224 189.979 221.224ZM201.234 222C200.749 222.101 200.269 222.141 199.794 222.12C199.325 222.099 198.904 221.997 198.53 221.816C198.162 221.635 197.882 221.352 197.69 220.968C197.536 220.648 197.45 220.325 197.434 220C197.424 219.669 197.418 219.293 197.418 218.872V210.96H198.586V218.824C198.586 219.187 198.589 219.491 198.594 219.736C198.605 219.976 198.661 220.189 198.762 220.376C198.954 220.733 199.258 220.947 199.674 221.016C200.096 221.085 200.616 221.069 201.234 220.968V222ZM195.57 214.368V213.36H201.234V214.368H195.57ZM203.045 223.672L203.117 223.088C203.331 223.104 203.485 223.061 203.581 222.96C203.677 222.859 203.736 222.723 203.757 222.552C203.779 222.381 203.784 222.197 203.773 222H203.045V220.312H204.413V222.32C204.413 222.811 204.288 223.179 204.037 223.424C203.792 223.669 203.461 223.752 203.045 223.672ZM215.196 222.24C214.391 222.24 213.665 222.107 213.02 221.84C212.38 221.568 211.849 221.184 211.428 220.688C211.012 220.192 210.74 219.603 210.612 218.92L211.812 218.72C212.004 219.467 212.409 220.053 213.028 220.48C213.647 220.901 214.385 221.112 215.244 221.112C215.809 221.112 216.316 221.024 216.764 220.848C217.212 220.667 217.564 220.411 217.82 220.08C218.076 219.749 218.204 219.357 218.204 218.904C218.204 218.605 218.151 218.352 218.044 218.144C217.937 217.931 217.796 217.755 217.62 217.616C217.444 217.477 217.252 217.363 217.044 217.272C216.836 217.176 216.633 217.099 216.436 217.04L213.516 216.168C213.164 216.067 212.839 215.939 212.54 215.784C212.241 215.624 211.98 215.435 211.756 215.216C211.537 214.992 211.367 214.731 211.244 214.432C211.121 214.133 211.06 213.792 211.06 213.408C211.06 212.757 211.231 212.195 211.572 211.72C211.913 211.245 212.38 210.88 212.972 210.624C213.564 210.368 214.239 210.243 214.996 210.248C215.764 210.248 216.449 210.384 217.052 210.656C217.66 210.928 218.161 211.317 218.556 211.824C218.951 212.325 219.212 212.92 219.34 213.608L218.108 213.832C218.028 213.331 217.844 212.896 217.556 212.528C217.268 212.16 216.9 211.877 216.452 211.68C216.009 211.477 215.521 211.373 214.988 211.368C214.471 211.368 214.009 211.456 213.604 211.632C213.204 211.803 212.887 212.037 212.652 212.336C212.417 212.635 212.3 212.976 212.3 213.36C212.3 213.749 212.407 214.061 212.62 214.296C212.839 214.531 213.105 214.715 213.42 214.848C213.74 214.981 214.049 215.091 214.348 215.176L216.604 215.84C216.839 215.904 217.113 215.997 217.428 216.12C217.748 216.237 218.057 216.408 218.356 216.632C218.66 216.851 218.911 217.139 219.108 217.496C219.305 217.853 219.404 218.307 219.404 218.856C219.404 219.389 219.297 219.867 219.084 220.288C218.876 220.709 218.58 221.064 218.196 221.352C217.817 221.64 217.372 221.859 216.86 222.008C216.353 222.163 215.799 222.24 215.196 222.24ZM224.98 222.24C224.137 222.24 223.407 222.053 222.788 221.68C222.175 221.307 221.697 220.781 221.356 220.104C221.015 219.427 220.844 218.632 220.844 217.72C220.844 216.776 221.012 215.96 221.348 215.272C221.684 214.584 222.156 214.053 222.764 213.68C223.377 213.307 224.1 213.12 224.932 213.12C225.785 213.12 226.513 213.317 227.116 213.712C227.719 214.101 228.175 214.661 228.484 215.392C228.793 216.123 228.935 216.995 228.908 218.008H227.708V217.592C227.687 216.472 227.444 215.627 226.98 215.056C226.521 214.485 225.849 214.2 224.964 214.2C224.036 214.2 223.324 214.501 222.828 215.104C222.337 215.707 222.092 216.565 222.092 217.68C222.092 218.768 222.337 219.613 222.828 220.216C223.324 220.813 224.025 221.112 224.932 221.112C225.551 221.112 226.089 220.971 226.548 220.688C227.012 220.4 227.377 219.987 227.644 219.448L228.74 219.872C228.399 220.624 227.895 221.208 227.228 221.624C226.567 222.035 225.817 222.24 224.98 222.24ZM221.676 218.008V217.024H228.276V218.008H221.676ZM234.598 222.24C233.803 222.24 233.131 222.04 232.582 221.64C232.033 221.235 231.617 220.688 231.334 220C231.051 219.307 230.91 218.531 230.91 217.672C230.91 216.797 231.051 216.019 231.334 215.336C231.622 214.648 232.043 214.107 232.598 213.712C233.153 213.317 233.835 213.12 234.646 213.12C235.435 213.12 236.113 213.32 236.678 213.72C237.243 214.12 237.675 214.664 237.974 215.352C238.278 216.04 238.43 216.813 238.43 217.672C238.43 218.536 238.278 219.312 237.974 220C237.67 220.688 237.233 221.235 236.662 221.64C236.091 222.04 235.403 222.24 234.598 222.24ZM230.71 225.84V213.36H231.766V219.864H231.894V225.84H230.71ZM234.478 221.144C235.081 221.144 235.582 220.992 235.982 220.688C236.382 220.384 236.681 219.971 236.878 219.448C237.081 218.92 237.182 218.328 237.182 217.672C237.182 217.021 237.083 216.435 236.886 215.912C236.689 215.389 236.387 214.976 235.982 214.672C235.582 214.368 235.073 214.216 234.454 214.216C233.851 214.216 233.35 214.363 232.95 214.656C232.555 214.949 232.259 215.357 232.062 215.88C231.865 216.397 231.766 216.995 231.766 217.672C231.766 218.339 231.865 218.936 232.062 219.464C232.259 219.987 232.558 220.397 232.958 220.696C233.358 220.995 233.865 221.144 234.478 221.144ZM247.703 222V211.792L245.535 213.096V211.776L247.703 210.48H248.895V222H247.703ZM257.958 210.24C258.683 210.24 259.339 210.416 259.926 210.768C260.518 211.115 260.987 211.589 261.334 212.192C261.681 212.789 261.854 213.464 261.854 214.216V218.208C261.854 218.981 261.681 219.672 261.334 220.28C260.987 220.883 260.513 221.36 259.91 221.712C259.313 222.059 258.633 222.232 257.87 222.232C257.214 222.232 256.606 222.088 256.046 221.8C255.491 221.507 255.033 221.104 254.67 220.592L255.566 219.848C255.811 220.227 256.137 220.533 256.542 220.768C256.953 220.997 257.395 221.112 257.87 221.112C258.414 221.112 258.894 220.981 259.31 220.72C259.731 220.459 260.062 220.117 260.302 219.696C260.547 219.269 260.67 218.808 260.67 218.312V215.8L260.958 216.136C260.627 216.664 260.187 217.091 259.638 217.416C259.094 217.741 258.497 217.904 257.846 217.904C257.137 217.904 256.494 217.736 255.918 217.4C255.347 217.059 254.894 216.6 254.558 216.024C254.227 215.448 254.062 214.803 254.062 214.088C254.062 213.379 254.238 212.733 254.59 212.152C254.942 211.571 255.414 211.107 256.006 210.76C256.598 210.413 257.249 210.24 257.958 210.24ZM257.958 211.384C257.457 211.384 257.001 211.504 256.59 211.744C256.179 211.984 255.851 212.309 255.606 212.72C255.366 213.131 255.246 213.587 255.246 214.088C255.246 214.589 255.366 215.048 255.606 215.464C255.846 215.875 256.171 216.203 256.582 216.448C256.993 216.688 257.449 216.808 257.95 216.808C258.451 216.808 258.907 216.688 259.318 216.448C259.734 216.203 260.062 215.875 260.302 215.464C260.547 215.048 260.67 214.589 260.67 214.088C260.67 213.592 260.547 213.139 260.302 212.728C260.062 212.317 259.737 211.992 259.326 211.752C258.915 211.507 258.459 211.384 257.958 211.384Z" fill="black"></path> <path d="M167.193 218.824C166.841 218.824 166.521 218.744 166.233 218.584C165.945 218.419 165.715 218.195 165.545 217.912C165.374 217.629 165.289 217.312 165.289 216.96C165.289 216.603 165.374 216.283 165.545 216C165.715 215.717 165.945 215.496 166.233 215.336C166.521 215.176 166.841 215.096 167.193 215.096C167.523 215.096 167.827 215.176 168.105 215.336C168.382 215.496 168.603 215.717 168.769 216C168.939 216.283 169.025 216.603 169.025 216.96C169.025 217.312 168.939 217.629 168.769 217.912C168.603 218.195 168.382 218.419 168.105 218.584C167.827 218.744 167.523 218.824 167.193 218.824Z" fill="#A1A1A1"></path> <path d="M21.12 286V274.48H25.88C25.992 274.48 26.136 274.485 26.312 274.496C26.488 274.501 26.6507 274.517 26.8 274.544C27.4667 274.645 28.016 274.867 28.448 275.208C28.8853 275.549 29.208 275.981 29.416 276.504C29.6293 277.021 29.736 277.597 29.736 278.232C29.736 278.861 29.6293 279.437 29.416 279.96C29.2027 280.477 28.8773 280.907 28.44 281.248C28.008 281.589 27.4613 281.811 26.8 281.912C26.6507 281.933 26.4853 281.949 26.304 281.96C26.128 281.971 25.9867 281.976 25.88 281.976H23.048V286H21.12ZM23.048 280.176H25.8C25.9067 280.176 26.0267 280.171 26.16 280.16C26.2933 280.149 26.416 280.128 26.528 280.096C26.848 280.016 27.0987 279.875 27.28 279.672C27.4667 279.469 27.5973 279.24 27.672 278.984C27.752 278.728 27.792 278.477 27.792 278.232C27.792 277.987 27.752 277.736 27.672 277.48C27.5973 277.219 27.4667 276.987 27.28 276.784C27.0987 276.581 26.848 276.44 26.528 276.36C26.416 276.328 26.2933 276.309 26.16 276.304C26.0267 276.293 25.9067 276.288 25.8 276.288H23.048V280.176ZM33.616 286.24C32.992 286.24 32.464 286.123 32.032 285.888C31.6 285.648 31.272 285.331 31.048 284.936C30.8293 284.541 30.72 284.107 30.72 283.632C30.72 283.216 30.7893 282.843 30.928 282.512C31.0667 282.176 31.28 281.888 31.568 281.648C31.856 281.403 32.2293 281.203 32.688 281.048C33.0347 280.936 33.44 280.835 33.904 280.744C34.3733 280.653 34.88 280.571 35.424 280.496C35.9733 280.416 36.5467 280.331 37.144 280.24L36.456 280.632C36.4613 280.035 36.328 279.595 36.056 279.312C35.784 279.029 35.3253 278.888 34.68 278.888C34.2907 278.888 33.9147 278.979 33.552 279.16C33.1893 279.341 32.936 279.653 32.792 280.096L31.032 279.544C31.2453 278.813 31.6507 278.227 32.248 277.784C32.8507 277.341 33.6613 277.12 34.68 277.12C35.448 277.12 36.1227 277.245 36.704 277.496C37.2907 277.747 37.7253 278.157 38.008 278.728C38.1627 279.032 38.256 279.344 38.288 279.664C38.32 279.979 38.336 280.323 38.336 280.696V286H36.648V284.128L36.928 284.432C36.5387 285.056 36.0827 285.515 35.56 285.808C35.0427 286.096 34.3947 286.24 33.616 286.24ZM34 284.704C34.4373 284.704 34.8107 284.627 35.12 284.472C35.4293 284.317 35.6747 284.128 35.856 283.904C36.0427 283.68 36.168 283.469 36.232 283.272C36.3333 283.027 36.3893 282.747 36.4 282.432C36.416 282.112 36.424 281.853 36.424 281.656L37.016 281.832C36.4347 281.923 35.936 282.003 35.52 282.072C35.104 282.141 34.7467 282.208 34.448 282.272C34.1493 282.331 33.8853 282.397 33.656 282.472C33.432 282.552 33.2427 282.645 33.088 282.752C32.9333 282.859 32.8133 282.981 32.728 283.12C32.648 283.259 32.608 283.421 32.608 283.608C32.608 283.821 32.6613 284.011 32.768 284.176C32.8747 284.336 33.0293 284.464 33.232 284.56C33.44 284.656 33.696 284.704 34 284.704ZM43.8348 286.24C42.7681 286.24 41.9014 286 41.2347 285.52C40.5681 285.04 40.1627 284.365 40.0187 283.496L41.9867 283.192C42.0881 283.619 42.3121 283.955 42.6588 284.2C43.0054 284.445 43.4427 284.568 43.9707 284.568C44.4347 284.568 44.7921 284.477 45.0427 284.296C45.2988 284.109 45.4268 283.856 45.4268 283.536C45.4268 283.339 45.3788 283.181 45.2828 283.064C45.1921 282.941 44.9894 282.824 44.6748 282.712C44.3601 282.6 43.8774 282.459 43.2268 282.288C42.5014 282.096 41.9254 281.891 41.4987 281.672C41.0721 281.448 40.7654 281.184 40.5787 280.88C40.3921 280.576 40.2987 280.208 40.2987 279.776C40.2987 279.237 40.4401 278.768 40.7227 278.368C41.0054 277.968 41.4001 277.661 41.9067 277.448C42.4134 277.229 43.0107 277.12 43.6988 277.12C44.3707 277.12 44.9654 277.224 45.4827 277.432C46.0054 277.64 46.4268 277.936 46.7468 278.32C47.0668 278.704 47.2641 279.155 47.3388 279.672L45.3707 280.024C45.3227 279.656 45.1548 279.365 44.8668 279.152C44.5841 278.939 44.2054 278.819 43.7308 278.792C43.2774 278.765 42.9121 278.835 42.6347 279C42.3574 279.16 42.2188 279.387 42.2188 279.68C42.2188 279.845 42.2747 279.987 42.3867 280.104C42.4987 280.221 42.7227 280.339 43.0587 280.456C43.4001 280.573 43.9068 280.717 44.5788 280.888C45.2668 281.064 45.8161 281.267 46.2268 281.496C46.6428 281.72 46.9414 281.989 47.1228 282.304C47.3094 282.619 47.4028 283 47.4028 283.448C47.4028 284.317 47.0854 285 46.4508 285.496C45.8214 285.992 44.9494 286.24 43.8348 286.24ZM53.163 286.24C52.2883 286.24 51.5203 286.051 50.859 285.672C50.1977 285.293 49.6803 284.768 49.307 284.096C48.939 283.424 48.755 282.651 48.755 281.776C48.755 280.832 48.9363 280.013 49.299 279.32C49.6617 278.621 50.1657 278.08 50.811 277.696C51.4563 277.312 52.203 277.12 53.051 277.12C53.947 277.12 54.707 277.331 55.331 277.752C55.9603 278.168 56.427 278.757 56.731 279.52C57.035 280.283 57.1497 281.181 57.075 282.216H55.163V281.512C55.1577 280.573 54.9923 279.888 54.667 279.456C54.3417 279.024 53.8297 278.808 53.131 278.808C52.3417 278.808 51.755 279.053 51.371 279.544C50.987 280.029 50.795 280.741 50.795 281.68C50.795 282.555 50.987 283.232 51.371 283.712C51.755 284.192 52.315 284.432 53.051 284.432C53.5257 284.432 53.9337 284.328 54.275 284.12C54.6217 283.907 54.8883 283.6 55.075 283.2L56.979 283.776C56.6483 284.555 56.1363 285.16 55.443 285.592C54.755 286.024 53.995 286.24 53.163 286.24ZM50.187 282.216V280.76H56.131V282.216H50.187ZM64.6816 286V281.84C64.6816 281.568 64.663 281.267 64.6256 280.936C64.5883 280.605 64.5003 280.288 64.3616 279.984C64.2283 279.675 64.0256 279.421 63.7536 279.224C63.487 279.027 63.1243 278.928 62.6656 278.928C62.4203 278.928 62.1776 278.968 61.9376 279.048C61.6976 279.128 61.479 279.267 61.2816 279.464C61.0896 279.656 60.935 279.923 60.8176 280.264C60.7003 280.6 60.6416 281.032 60.6416 281.56L59.4976 281.072C59.4976 280.336 59.639 279.669 59.9216 279.072C60.2096 278.475 60.631 278 61.1856 277.648C61.7403 277.291 62.423 277.112 63.2336 277.112C63.8736 277.112 64.4016 277.219 64.8176 277.432C65.2336 277.645 65.5643 277.917 65.8096 278.248C66.055 278.579 66.2363 278.931 66.3536 279.304C66.471 279.677 66.5456 280.032 66.5776 280.368C66.615 280.699 66.6336 280.968 66.6336 281.176V286H64.6816ZM58.6896 286V277.36H60.4096V280.04H60.6416V286H58.6896ZM72.4333 290.08C71.9533 290.08 71.4919 290.005 71.0493 289.856C70.6119 289.707 70.2173 289.491 69.8653 289.208C69.5133 288.931 69.2253 288.595 69.0013 288.2L70.7773 287.32C70.9426 287.635 71.1746 287.867 71.4733 288.016C71.7773 288.171 72.0999 288.248 72.4413 288.248C72.8413 288.248 73.1986 288.176 73.5133 288.032C73.8279 287.893 74.0706 287.685 74.2413 287.408C74.4173 287.136 74.4999 286.795 74.4893 286.384V283.928H74.7293V277.36H76.4173V286.416C76.4173 286.635 76.4066 286.843 76.3853 287.04C76.3693 287.243 76.3399 287.44 76.2973 287.632C76.1693 288.192 75.9239 288.651 75.5613 289.008C75.1986 289.371 74.7479 289.64 74.2093 289.816C73.6759 289.992 73.0839 290.08 72.4333 290.08ZM72.2653 286.24C71.4706 286.24 70.7773 286.04 70.1853 285.64C69.5933 285.24 69.1346 284.696 68.8093 284.008C68.4839 283.32 68.3213 282.544 68.3213 281.68C68.3213 280.805 68.4839 280.027 68.8093 279.344C69.1399 278.656 69.6066 278.115 70.2093 277.72C70.8119 277.32 71.5213 277.12 72.3373 277.12C73.1586 277.12 73.8466 277.32 74.4013 277.72C74.9613 278.115 75.3853 278.656 75.6733 279.344C75.9613 280.032 76.1053 280.811 76.1053 281.68C76.1053 282.539 75.9613 283.315 75.6733 284.008C75.3853 284.696 74.9559 285.24 74.3853 285.64C73.8146 286.04 73.1079 286.24 72.2653 286.24ZM72.5613 284.512C73.0786 284.512 73.4946 284.395 73.8093 284.16C74.1293 283.92 74.3613 283.587 74.5053 283.16C74.6546 282.733 74.7293 282.24 74.7293 281.68C74.7293 281.115 74.6546 280.621 74.5053 280.2C74.3613 279.773 74.1346 279.443 73.8253 279.208C73.5159 278.968 73.1159 278.848 72.6253 278.848C72.1079 278.848 71.6813 278.976 71.3453 279.232C71.0093 279.483 70.7613 279.824 70.6013 280.256C70.4413 280.683 70.3613 281.157 70.3613 281.68C70.3613 282.208 70.4386 282.688 70.5933 283.12C70.7533 283.547 70.9959 283.885 71.3213 284.136C71.6466 284.387 72.0599 284.512 72.5613 284.512ZM82.6686 286.24C81.794 286.24 81.026 286.051 80.3646 285.672C79.7033 285.293 79.186 284.768 78.8126 284.096C78.4446 283.424 78.2606 282.651 78.2606 281.776C78.2606 280.832 78.442 280.013 78.8046 279.32C79.1673 278.621 79.6713 278.08 80.3166 277.696C80.962 277.312 81.7086 277.12 82.5566 277.12C83.4526 277.12 84.2126 277.331 84.8366 277.752C85.466 278.168 85.9326 278.757 86.2366 279.52C86.5406 280.283 86.6553 281.181 86.5806 282.216H84.6686V281.512C84.6633 280.573 84.498 279.888 84.1726 279.456C83.8473 279.024 83.3353 278.808 82.6366 278.808C81.8473 278.808 81.2606 279.053 80.8766 279.544C80.4926 280.029 80.3006 280.741 80.3006 281.68C80.3006 282.555 80.4926 283.232 80.8766 283.712C81.2606 284.192 81.8206 284.432 82.5566 284.432C83.0313 284.432 83.4393 284.328 83.7806 284.12C84.1273 283.907 84.394 283.6 84.5806 283.2L86.4846 283.776C86.154 284.555 85.642 285.16 84.9486 285.592C84.2606 286.024 83.5006 286.24 82.6686 286.24ZM79.6926 282.216V280.76H85.6366V282.216H79.6926ZM88.4456 286V277.36H90.1496V279.464L89.9416 279.192C90.0483 278.904 90.1896 278.643 90.3656 278.408C90.547 278.168 90.763 277.971 91.0136 277.816C91.227 277.672 91.4616 277.56 91.7176 277.48C91.979 277.395 92.2456 277.344 92.5176 277.328C92.7896 277.307 93.0536 277.317 93.3096 277.36V279.16C93.0536 279.085 92.7576 279.061 92.4216 279.088C92.091 279.115 91.7923 279.208 91.5256 279.368C91.259 279.512 91.0403 279.696 90.8696 279.92C90.7043 280.144 90.5816 280.4 90.5016 280.688C90.4216 280.971 90.3816 281.277 90.3816 281.608V286H88.4456ZM97.9397 286.24C96.8731 286.24 96.0064 286 95.3397 285.52C94.6731 285.04 94.2677 284.365 94.1237 283.496L96.0917 283.192C96.1931 283.619 96.4171 283.955 96.7637 284.2C97.1104 284.445 97.5477 284.568 98.0757 284.568C98.5397 284.568 98.8971 284.477 99.1477 284.296C99.4037 284.109 99.5317 283.856 99.5317 283.536C99.5317 283.339 99.4837 283.181 99.3877 283.064C99.2971 282.941 99.0944 282.824 98.7797 282.712C98.4651 282.6 97.9824 282.459 97.3317 282.288C96.6064 282.096 96.0304 281.891 95.6037 281.672C95.1771 281.448 94.8704 281.184 94.6837 280.88C94.4971 280.576 94.4037 280.208 94.4037 279.776C94.4037 279.237 94.5451 278.768 94.8277 278.368C95.1104 277.968 95.5051 277.661 96.0117 277.448C96.5184 277.229 97.1157 277.12 97.8037 277.12C98.4757 277.12 99.0704 277.224 99.5877 277.432C100.11 277.64 100.532 277.936 100.852 278.32C101.172 278.704 101.369 279.155 101.444 279.672L99.4757 280.024C99.4277 279.656 99.2597 279.365 98.9717 279.152C98.6891 278.939 98.3104 278.819 97.8357 278.792C97.3824 278.765 97.0171 278.835 96.7397 279C96.4624 279.16 96.3237 279.387 96.3237 279.68C96.3237 279.845 96.3797 279.987 96.4917 280.104C96.6037 280.221 96.8277 280.339 97.1637 280.456C97.5051 280.573 98.0117 280.717 98.6837 280.888C99.3717 281.064 99.9211 281.267 100.332 281.496C100.748 281.72 101.046 281.989 101.228 282.304C101.414 282.619 101.508 283 101.508 283.448C101.508 284.317 101.19 285 100.556 285.496C99.9264 285.992 99.0544 286.24 97.9397 286.24Z" fill="#616161"></path> <rect x="20.5" y="304.5" width="303" height="47" rx="7.5" fill="white" stroke="#A1A1A1"></rect> <path fill-rule="evenodd" clip-rule="evenodd" d="M41 327C43.2091 327 45 325.209 45 323C45 320.791 43.2091 319 41 319C38.7909 319 37 320.791 37 323C37 325.209 38.7909 327 41 327ZM41 325C42.1046 325 43 324.105 43 323C43 321.895 42.1046 321 41 321C39.8954 321 39 321.895 39 323C39 324.105 39.8954 325 41 325Z" fill="#A1A1A1"></path> <path d="M45 330C45.5523 330 46 330.448 46 331V337H48V331C48 329.343 46.6569 328 45 328H37C35.3431 328 34 329.343 34 331V337H36V331C36 330.448 36.4477 330 37 330H45Z" fill="#A1A1A1"></path> <path d="M50 323H52V325H54V327H52V329H50V327H48V325H50V323Z" fill="#A1A1A1"></path> <path d="M74.56 334V331.768H69.168V330.648L73.024 322.48H74.344L70.488 330.648H74.56V327.288H75.744V330.648H77V331.768H75.744V334H74.56ZM85.2546 334.24C84.6039 334.24 84.0573 334.123 83.6146 333.888C83.1773 333.653 82.8493 333.341 82.6306 332.952C82.4119 332.563 82.3026 332.139 82.3026 331.68C82.3026 331.211 82.3959 330.811 82.5826 330.48C82.7746 330.144 83.0333 329.869 83.3586 329.656C83.6893 329.443 84.0706 329.28 84.5026 329.168C84.9399 329.061 85.4226 328.968 85.9506 328.888C86.4839 328.803 87.0039 328.731 87.5106 328.672C88.0226 328.608 88.4706 328.547 88.8546 328.488L88.4386 328.744C88.4546 327.891 88.2893 327.259 87.9426 326.848C87.5959 326.437 86.9933 326.232 86.1346 326.232C85.5426 326.232 85.0413 326.365 84.6306 326.632C84.2253 326.899 83.9399 327.32 83.7746 327.896L82.6306 327.56C82.8279 326.787 83.2253 326.187 83.8226 325.76C84.4199 325.333 85.1959 325.12 86.1506 325.12C86.9399 325.12 87.6093 325.269 88.1586 325.568C88.7133 325.861 89.1053 326.288 89.3346 326.848C89.4413 327.099 89.5106 327.379 89.5426 327.688C89.5746 327.997 89.5906 328.312 89.5906 328.632V334H88.5426V331.832L88.8466 331.96C88.5533 332.701 88.0973 333.267 87.4786 333.656C86.8599 334.045 86.1186 334.24 85.2546 334.24ZM85.3906 333.224C85.9399 333.224 86.4199 333.125 86.8306 332.928C87.2413 332.731 87.5719 332.461 87.8226 332.12C88.0733 331.773 88.2359 331.384 88.3106 330.952C88.3746 330.675 88.4093 330.371 88.4146 330.04C88.4199 329.704 88.4226 329.453 88.4226 329.288L88.8706 329.52C88.4706 329.573 88.0359 329.627 87.5666 329.68C87.1026 329.733 86.6439 329.795 86.1906 329.864C85.7426 329.933 85.3373 330.016 84.9746 330.112C84.7293 330.181 84.4919 330.28 84.2626 330.408C84.0333 330.531 83.8439 330.696 83.6946 330.904C83.5506 331.112 83.4786 331.371 83.4786 331.68C83.4786 331.931 83.5399 332.173 83.6626 332.408C83.7906 332.643 83.9933 332.837 84.2706 332.992C84.5533 333.147 84.9266 333.224 85.3906 333.224ZM95.294 334.24C94.4887 334.24 93.8007 334.04 93.23 333.64C92.6594 333.235 92.222 332.688 91.918 332C91.614 331.312 91.462 330.536 91.462 329.672C91.462 328.813 91.6114 328.04 91.91 327.352C92.214 326.664 92.6487 326.12 93.214 325.72C93.7794 325.32 94.4567 325.12 95.246 325.12C96.0567 325.12 96.7394 325.317 97.294 325.712C97.8487 326.107 98.2674 326.648 98.55 327.336C98.838 328.019 98.982 328.797 98.982 329.672C98.982 330.531 98.8407 331.307 98.558 332C98.2754 332.688 97.8594 333.235 97.31 333.64C96.7607 334.04 96.0887 334.24 95.294 334.24ZM95.414 333.144C96.0274 333.144 96.534 332.995 96.934 332.696C97.334 332.397 97.6327 331.987 97.83 331.464C98.0274 330.936 98.126 330.339 98.126 329.672C98.126 328.995 98.0274 328.397 97.83 327.88C97.6327 327.357 97.334 326.949 96.934 326.656C96.5394 326.363 96.0407 326.216 95.438 326.216C94.8194 326.216 94.3074 326.368 93.902 326.672C93.4967 326.976 93.1954 327.389 92.998 327.912C92.806 328.435 92.71 329.021 92.71 329.672C92.71 330.328 92.8087 330.92 93.006 331.448C93.2087 331.971 93.51 332.384 93.91 332.688C94.31 332.992 94.8114 333.144 95.414 333.144ZM98.126 334V327.496H97.998V322.48H99.182V334H98.126ZM104.999 334.216C104.482 334.216 104.029 334.136 103.639 333.976C103.255 333.816 102.927 333.6 102.655 333.328C102.389 333.056 102.173 332.747 102.007 332.4C101.842 332.048 101.722 331.677 101.647 331.288C101.573 330.893 101.535 330.501 101.535 330.112V325.36H102.719V329.768C102.719 330.243 102.765 330.683 102.855 331.088C102.946 331.493 103.09 331.848 103.287 332.152C103.49 332.451 103.749 332.683 104.063 332.848C104.383 333.013 104.77 333.096 105.223 333.096C105.639 333.096 106.005 333.024 106.319 332.88C106.639 332.736 106.906 332.531 107.119 332.264C107.338 331.992 107.503 331.664 107.615 331.28C107.727 330.891 107.783 330.453 107.783 329.968L108.615 330.152C108.615 331.037 108.461 331.781 108.151 332.384C107.842 332.987 107.415 333.443 106.871 333.752C106.327 334.061 105.703 334.216 104.999 334.216ZM107.903 334V331.872H107.783V325.36H108.959V334H107.903ZM111.624 334V322.24H112.8V334H111.624ZM120.171 334C119.686 334.101 119.206 334.141 118.731 334.12C118.262 334.099 117.841 333.997 117.467 333.816C117.099 333.635 116.819 333.352 116.627 332.968C116.473 332.648 116.387 332.325 116.371 332C116.361 331.669 116.355 331.293 116.355 330.872V322.96H117.523V330.824C117.523 331.187 117.526 331.491 117.531 331.736C117.542 331.976 117.598 332.189 117.699 332.376C117.891 332.733 118.195 332.947 118.611 333.016C119.033 333.085 119.553 333.069 120.171 332.968V334ZM114.507 326.368V325.36H120.171V326.368H114.507ZM125.366 334.232C124.353 334.232 123.518 334.013 122.862 333.576C122.212 333.139 121.812 332.531 121.662 331.752L122.862 331.552C122.99 332.043 123.281 332.435 123.734 332.728C124.193 333.016 124.758 333.16 125.43 333.16C126.086 333.16 126.604 333.024 126.982 332.752C127.361 332.475 127.55 332.099 127.55 331.624C127.55 331.357 127.489 331.141 127.366 330.976C127.249 330.805 127.006 330.648 126.638 330.504C126.27 330.36 125.721 330.189 124.99 329.992C124.206 329.779 123.593 329.565 123.15 329.352C122.708 329.139 122.393 328.893 122.206 328.616C122.02 328.333 121.926 327.989 121.926 327.584C121.926 327.093 122.065 326.664 122.342 326.296C122.62 325.923 123.004 325.635 123.494 325.432C123.985 325.224 124.556 325.12 125.206 325.12C125.857 325.12 126.438 325.227 126.95 325.44C127.468 325.648 127.884 325.941 128.198 326.32C128.513 326.699 128.7 327.139 128.758 327.64L127.558 327.856C127.478 327.349 127.225 326.949 126.798 326.656C126.377 326.357 125.841 326.203 125.19 326.192C124.577 326.176 124.078 326.293 123.694 326.544C123.31 326.789 123.118 327.117 123.118 327.528C123.118 327.757 123.188 327.955 123.326 328.12C123.465 328.28 123.716 328.432 124.078 328.576C124.446 328.72 124.969 328.877 125.646 329.048C126.441 329.251 127.065 329.464 127.518 329.688C127.972 329.912 128.294 330.176 128.486 330.48C128.678 330.784 128.774 331.16 128.774 331.608C128.774 332.424 128.47 333.067 127.862 333.536C127.26 334 126.428 334.232 125.366 334.232ZM137.281 331.896V328.744H134.129V327.736H137.281V324.584H138.289V327.736H141.433V328.744H138.289V331.896H137.281ZM147.321 333.992L147.329 332.92L152.537 328.216C152.985 327.811 153.281 327.427 153.425 327.064C153.574 326.696 153.649 326.312 153.649 325.912C153.649 325.437 153.537 325.008 153.313 324.624C153.089 324.24 152.787 323.936 152.409 323.712C152.03 323.483 151.606 323.368 151.137 323.368C150.646 323.368 150.209 323.485 149.825 323.72C149.441 323.955 149.137 324.264 148.913 324.648C148.694 325.032 148.587 325.451 148.593 325.904H147.393C147.393 325.205 147.558 324.579 147.889 324.024C148.219 323.469 148.667 323.035 149.233 322.72C149.798 322.4 150.438 322.24 151.153 322.24C151.851 322.24 152.478 322.405 153.033 322.736C153.593 323.061 154.033 323.504 154.353 324.064C154.678 324.619 154.841 325.237 154.841 325.92C154.841 326.4 154.782 326.824 154.665 327.192C154.553 327.555 154.374 327.893 154.129 328.208C153.889 328.517 153.582 328.837 153.209 329.168L148.585 333.344L148.401 332.864H154.841V333.992H147.321ZM164.495 334.24C163.626 334.24 162.89 334.045 162.287 333.656C161.685 333.267 161.226 332.731 160.911 332.048C160.602 331.36 160.442 330.571 160.431 329.68C160.442 328.773 160.607 327.979 160.927 327.296C161.247 326.608 161.709 326.075 162.311 325.696C162.914 325.312 163.645 325.12 164.503 325.12C165.378 325.12 166.138 325.333 166.783 325.76C167.434 326.187 167.879 326.771 168.119 327.512L166.967 327.88C166.765 327.363 166.442 326.963 165.999 326.68C165.562 326.392 165.061 326.248 164.495 326.248C163.861 326.248 163.335 326.395 162.919 326.688C162.503 326.976 162.194 327.379 161.991 327.896C161.789 328.413 161.685 329.008 161.679 329.68C161.69 330.715 161.93 331.547 162.399 332.176C162.869 332.8 163.567 333.112 164.495 333.112C165.082 333.112 165.581 332.979 165.991 332.712C166.407 332.44 166.722 332.045 166.935 331.528L168.119 331.88C167.799 332.648 167.33 333.235 166.711 333.64C166.093 334.04 165.354 334.24 164.495 334.24ZM176.279 334V329.592C176.279 329.112 176.234 328.672 176.143 328.272C176.053 327.867 175.906 327.515 175.703 327.216C175.506 326.912 175.247 326.677 174.927 326.512C174.613 326.347 174.229 326.264 173.775 326.264C173.359 326.264 172.991 326.336 172.671 326.48C172.357 326.624 172.09 326.832 171.871 327.104C171.658 327.371 171.495 327.696 171.383 328.08C171.271 328.464 171.215 328.901 171.215 329.392L170.383 329.208C170.383 328.323 170.538 327.579 170.847 326.976C171.157 326.373 171.583 325.917 172.127 325.608C172.671 325.299 173.295 325.144 173.999 325.144C174.517 325.144 174.967 325.224 175.351 325.384C175.741 325.544 176.069 325.76 176.335 326.032C176.607 326.304 176.826 326.616 176.991 326.968C177.157 327.315 177.277 327.685 177.351 328.08C177.426 328.469 177.463 328.859 177.463 329.248V334H176.279ZM170.031 334V322.48H171.095V328.984H171.215V334H170.031ZM179.968 323.72V322.4H181.144V323.72H179.968ZM179.968 334V325.36H181.144V334H179.968ZM183.971 334V322.24H185.147V334H183.971ZM191.167 334.24C190.361 334.24 189.673 334.04 189.103 333.64C188.532 333.235 188.095 332.688 187.791 332C187.487 331.312 187.335 330.536 187.335 329.672C187.335 328.813 187.484 328.04 187.783 327.352C188.087 326.664 188.521 326.12 189.087 325.72C189.652 325.32 190.329 325.12 191.119 325.12C191.929 325.12 192.612 325.317 193.167 325.712C193.721 326.107 194.14 326.648 194.423 327.336C194.711 328.019 194.855 328.797 194.855 329.672C194.855 330.531 194.713 331.307 194.431 332C194.148 332.688 193.732 333.235 193.183 333.64C192.633 334.04 191.961 334.24 191.167 334.24ZM191.287 333.144C191.9 333.144 192.407 332.995 192.807 332.696C193.207 332.397 193.505 331.987 193.703 331.464C193.9 330.936 193.999 330.339 193.999 329.672C193.999 328.995 193.9 328.397 193.703 327.88C193.505 327.357 193.207 326.949 192.807 326.656C192.412 326.363 191.913 326.216 191.311 326.216C190.692 326.216 190.18 326.368 189.775 326.672C189.369 326.976 189.068 327.389 188.871 327.912C188.679 328.435 188.583 329.021 188.583 329.672C188.583 330.328 188.681 330.92 188.879 331.448C189.081 331.971 189.383 332.384 189.783 332.688C190.183 332.992 190.684 333.144 191.287 333.144ZM193.999 334V327.496H193.871V322.48H195.055V334H193.999ZM197.568 334V325.36H198.624V327.44L198.416 327.168C198.512 326.912 198.637 326.677 198.792 326.464C198.946 326.245 199.114 326.067 199.296 325.928C199.52 325.731 199.781 325.581 200.08 325.48C200.378 325.373 200.68 325.312 200.984 325.296C201.288 325.275 201.565 325.296 201.816 325.36V326.464C201.501 326.384 201.157 326.365 200.784 326.408C200.41 326.451 200.066 326.6 199.752 326.856C199.464 327.08 199.248 327.349 199.104 327.664C198.96 327.973 198.864 328.304 198.816 328.656C198.768 329.003 198.744 329.347 198.744 329.688V334H197.568ZM207.102 334.24C206.259 334.24 205.529 334.053 204.91 333.68C204.297 333.307 203.819 332.781 203.478 332.104C203.137 331.427 202.966 330.632 202.966 329.72C202.966 328.776 203.134 327.96 203.47 327.272C203.806 326.584 204.278 326.053 204.886 325.68C205.499 325.307 206.222 325.12 207.054 325.12C207.907 325.12 208.635 325.317 209.238 325.712C209.841 326.101 210.297 326.661 210.606 327.392C210.915 328.123 211.057 328.995 211.03 330.008H209.83V329.592C209.809 328.472 209.566 327.627 209.102 327.056C208.643 326.485 207.971 326.2 207.086 326.2C206.158 326.2 205.446 326.501 204.95 327.104C204.459 327.707 204.214 328.565 204.214 329.68C204.214 330.768 204.459 331.613 204.95 332.216C205.446 332.813 206.147 333.112 207.054 333.112C207.673 333.112 208.211 332.971 208.67 332.688C209.134 332.4 209.499 331.987 209.766 331.448L210.862 331.872C210.521 332.624 210.017 333.208 209.35 333.624C208.689 334.035 207.939 334.24 207.102 334.24ZM203.798 330.008V329.024H210.398V330.008H203.798ZM219.08 334V329.592C219.08 329.112 219.034 328.672 218.944 328.272C218.853 327.867 218.706 327.515 218.504 327.216C218.306 326.912 218.048 326.677 217.728 326.512C217.413 326.347 217.029 326.264 216.576 326.264C216.16 326.264 215.792 326.336 215.472 326.48C215.157 326.624 214.89 326.832 214.672 327.104C214.458 327.371 214.296 327.696 214.184 328.08C214.072 328.464 214.016 328.901 214.016 329.392L213.184 329.208C213.184 328.323 213.338 327.579 213.648 326.976C213.957 326.373 214.384 325.917 214.928 325.608C215.472 325.299 216.096 325.144 216.8 325.144C217.317 325.144 217.768 325.224 218.152 325.384C218.541 325.544 218.869 325.76 219.136 326.032C219.408 326.304 219.626 326.616 219.792 326.968C219.957 327.315 220.077 327.685 220.152 328.08C220.226 328.469 220.264 328.859 220.264 329.248V334H219.08ZM212.832 334V325.36H213.896V327.488H214.016V334H212.832Z" fill="black"></path> <path d="M300.384 330.539C300.184 330.779 299.816 330.779 299.616 330.539L295.683 325.82C295.412 325.494 295.644 325 296.068 325L303.932 325C304.356 325 304.588 325.494 304.317 325.82L300.384 330.539Z" fill="#616161"></path> <g filter="url(#filter0_b_52_202503)"> <rect x="20" y="380" width="304" height="48" rx="8" fill="#DBEAFE"></rect> <path d="M147.884 410.24C147.041 410.24 146.281 410.093 145.604 409.8C144.932 409.507 144.377 409.088 143.94 408.544C143.508 407.995 143.233 407.344 143.116 406.592L145.116 406.288C145.287 406.971 145.636 407.499 146.164 407.872C146.697 408.245 147.311 408.432 148.004 408.432C148.415 408.432 148.801 408.368 149.164 408.24C149.527 408.112 149.82 407.925 150.044 407.68C150.273 407.435 150.388 407.133 150.388 406.776C150.388 406.616 150.361 406.469 150.308 406.336C150.255 406.197 150.175 406.075 150.068 405.968C149.967 405.861 149.833 405.765 149.668 405.68C149.508 405.589 149.321 405.512 149.108 405.448L146.132 404.568C145.876 404.493 145.599 404.395 145.3 404.272C145.007 404.144 144.727 403.971 144.46 403.752C144.199 403.528 143.983 403.245 143.812 402.904C143.647 402.557 143.564 402.131 143.564 401.624C143.564 400.883 143.751 400.261 144.124 399.76C144.503 399.253 145.009 398.875 145.644 398.624C146.284 398.373 146.993 398.251 147.772 398.256C148.561 398.261 149.265 398.397 149.884 398.664C150.503 398.925 151.02 399.307 151.436 399.808C151.852 400.309 152.145 400.915 152.316 401.624L150.244 401.984C150.159 401.579 149.993 401.235 149.748 400.952C149.508 400.664 149.212 400.445 148.86 400.296C148.513 400.147 148.143 400.067 147.748 400.056C147.364 400.051 147.007 400.109 146.676 400.232C146.351 400.349 146.087 400.52 145.884 400.744C145.687 400.968 145.588 401.229 145.588 401.528C145.588 401.811 145.673 402.043 145.844 402.224C146.015 402.4 146.225 402.541 146.476 402.648C146.732 402.749 146.991 402.835 147.252 402.904L149.316 403.48C149.599 403.555 149.916 403.656 150.268 403.784C150.62 403.912 150.959 404.091 151.284 404.32C151.609 404.549 151.876 404.851 152.084 405.224C152.297 405.597 152.404 406.072 152.404 406.648C152.404 407.245 152.279 407.771 152.028 408.224C151.783 408.672 151.449 409.045 151.028 409.344C150.607 409.643 150.124 409.867 149.58 410.016C149.041 410.165 148.476 410.24 147.884 410.24ZM158.864 410.24C157.989 410.24 157.221 410.051 156.56 409.672C155.898 409.293 155.381 408.768 155.008 408.096C154.64 407.424 154.456 406.651 154.456 405.776C154.456 404.832 154.637 404.013 155 403.32C155.362 402.621 155.866 402.08 156.512 401.696C157.157 401.312 157.904 401.12 158.752 401.12C159.648 401.12 160.408 401.331 161.032 401.752C161.661 402.168 162.128 402.757 162.432 403.52C162.736 404.283 162.85 405.181 162.776 406.216H160.864V405.512C160.858 404.573 160.693 403.888 160.368 403.456C160.042 403.024 159.53 402.808 158.832 402.808C158.042 402.808 157.456 403.053 157.072 403.544C156.688 404.029 156.496 404.741 156.496 405.68C156.496 406.555 156.688 407.232 157.072 407.712C157.456 408.192 158.016 408.432 158.752 408.432C159.226 408.432 159.634 408.328 159.976 408.12C160.322 407.907 160.589 407.6 160.776 407.2L162.68 407.776C162.349 408.555 161.837 409.16 161.144 409.592C160.456 410.024 159.696 410.24 158.864 410.24ZM155.888 406.216V404.76H161.832V406.216H155.888ZM167.62 410.24C166.996 410.24 166.468 410.123 166.036 409.888C165.604 409.648 165.276 409.331 165.052 408.936C164.834 408.541 164.724 408.107 164.724 407.632C164.724 407.216 164.794 406.843 164.932 406.512C165.071 406.176 165.284 405.888 165.572 405.648C165.86 405.403 166.234 405.203 166.692 405.048C167.039 404.936 167.444 404.835 167.908 404.744C168.378 404.653 168.884 404.571 169.428 404.496C169.978 404.416 170.551 404.331 171.148 404.24L170.46 404.632C170.466 404.035 170.332 403.595 170.06 403.312C169.788 403.029 169.33 402.888 168.684 402.888C168.295 402.888 167.919 402.979 167.556 403.16C167.194 403.341 166.94 403.653 166.796 404.096L165.036 403.544C165.25 402.813 165.655 402.227 166.252 401.784C166.855 401.341 167.666 401.12 168.684 401.12C169.452 401.12 170.127 401.245 170.708 401.496C171.295 401.747 171.73 402.157 172.012 402.728C172.167 403.032 172.26 403.344 172.292 403.664C172.324 403.979 172.34 404.323 172.34 404.696V410H170.652V408.128L170.932 408.432C170.543 409.056 170.087 409.515 169.564 409.808C169.047 410.096 168.399 410.24 167.62 410.24ZM168.004 408.704C168.442 408.704 168.815 408.627 169.124 408.472C169.434 408.317 169.679 408.128 169.86 407.904C170.047 407.68 170.172 407.469 170.236 407.272C170.338 407.027 170.394 406.747 170.404 406.432C170.42 406.112 170.428 405.853 170.428 405.656L171.02 405.832C170.439 405.923 169.94 406.003 169.524 406.072C169.108 406.141 168.751 406.208 168.452 406.272C168.154 406.331 167.89 406.397 167.66 406.472C167.436 406.552 167.247 406.645 167.092 406.752C166.938 406.859 166.818 406.981 166.732 407.12C166.652 407.259 166.612 407.421 166.612 407.608C166.612 407.821 166.666 408.011 166.772 408.176C166.879 408.336 167.034 408.464 167.236 408.56C167.444 408.656 167.7 408.704 168.004 408.704ZM175.223 410V401.36H176.927V403.464L176.719 403.192C176.826 402.904 176.967 402.643 177.143 402.408C177.324 402.168 177.54 401.971 177.791 401.816C178.004 401.672 178.239 401.56 178.495 401.48C178.756 401.395 179.023 401.344 179.295 401.328C179.567 401.307 179.831 401.317 180.087 401.36V403.16C179.831 403.085 179.535 403.061 179.199 403.088C178.868 403.115 178.57 403.208 178.303 403.368C178.036 403.512 177.818 403.696 177.647 403.92C177.482 404.144 177.359 404.4 177.279 404.688C177.199 404.971 177.159 405.277 177.159 405.608V410H175.223ZM186.01 410.24C185.119 410.24 184.359 410.043 183.73 409.648C183.1 409.248 182.618 408.704 182.282 408.016C181.951 407.328 181.783 406.549 181.778 405.68C181.783 404.795 181.956 404.011 182.298 403.328C182.644 402.64 183.135 402.101 183.77 401.712C184.404 401.317 185.159 401.12 186.034 401.12C187.015 401.12 187.844 401.368 188.522 401.864C189.204 402.355 189.65 403.027 189.858 403.88L187.938 404.4C187.788 403.936 187.54 403.576 187.194 403.32C186.847 403.059 186.452 402.928 186.01 402.928C185.508 402.928 185.095 403.048 184.77 403.288C184.444 403.523 184.204 403.848 184.05 404.264C183.895 404.68 183.818 405.152 183.818 405.68C183.818 406.501 184.002 407.165 184.37 407.672C184.738 408.179 185.284 408.432 186.01 408.432C186.522 408.432 186.924 408.315 187.218 408.08C187.516 407.845 187.74 407.507 187.89 407.064L189.858 407.504C189.591 408.384 189.124 409.061 188.458 409.536C187.791 410.005 186.975 410.24 186.01 410.24ZM198.237 410V405.84C198.237 405.568 198.218 405.267 198.181 404.936C198.143 404.605 198.055 404.288 197.917 403.984C197.783 403.675 197.581 403.421 197.309 403.224C197.042 403.027 196.679 402.928 196.221 402.928C195.975 402.928 195.733 402.968 195.493 403.048C195.253 403.128 195.034 403.267 194.837 403.464C194.645 403.656 194.49 403.923 194.373 404.264C194.255 404.6 194.197 405.032 194.197 405.56L193.053 405.072C193.053 404.336 193.194 403.669 193.477 403.072C193.765 402.475 194.186 402 194.741 401.648C195.295 401.291 195.978 401.112 196.789 401.112C197.429 401.112 197.957 401.219 198.373 401.432C198.789 401.645 199.119 401.917 199.365 402.248C199.61 402.579 199.791 402.931 199.909 403.304C200.026 403.677 200.101 404.032 200.133 404.368C200.17 404.699 200.189 404.968 200.189 405.176V410H198.237ZM192.245 410V398.48H193.965V404.544H194.197V410H192.245Z" fill="#414141"></path> </g> <rect x="0.5" y="0.5" width="343" height="447" rx="19.5" stroke="#A1A1A1"></rect> <defs> <filter id="filter0_b_52_202503" x="-20" y="340" width="384" height="128" filterUnits="userSpaceOnUse" color-interpolation-filters="sRGB"> <feFlood flood-opacity="0" result="BackgroundImageFix"></feFlood> <feGaussianBlur in="BackgroundImageFix" stdDeviation="20"></feGaussianBlur> <feComposite in2="SourceAlpha" operator="in" result="effect1_backgroundBlur_52_202503"></feComposite> <feBlend mode="normal" in="SourceGraphic" in2="effect1_backgroundBlur_52_202503" result="shape"></feBlend> </filter> </defs> </svg> 