<?xml version="1.0" encoding="UTF-8"?> <svg xmlns="http://www.w3.org/2000/svg" width="572" height="173" viewBox="0 0 572 173" fill="none"> <rect width="132.727" height="132.727" rx="59.7273" transform="matrix(-1 0 0 1 136.182 40.2728)" fill="url(#paint0_linear_8884_42602)" fill-opacity="0.5"></rect> <g clip-path="url(#clip0_8884_42602)"> <path d="M69.8173 146.455C64.3195 146.455 59.8627 141.998 59.8627 136.5H79.7718C79.7718 141.998 75.315 146.455 69.8173 146.455Z" fill="#616161"></path> <path d="M64.8641 72.2885C64.8482 72.1263 64.84 71.9619 64.84 71.7955C64.84 69.0467 67.0684 66.8183 69.8173 66.8183C72.5662 66.8183 74.7946 69.0467 74.7946 71.7955C74.7946 71.9619 74.7864 72.1263 74.7705 72.2885C86.1417 74.585 94.7035 84.6336 94.7035 96.6819C94.7035 102.145 97.1923 126.546 104.658 131.523H34.9764C42.4423 126.546 44.9308 102.145 44.9308 96.6819C44.9308 84.6335 53.4927 74.5849 64.8641 72.2885Z" fill="#616161"></path> </g> <g filter="url(#filter0_dd_8884_42602)"> <rect x="91.5293" y="27" width="53.0909" height="52" rx="26" fill="#0F56B3"></rect> <path d="M117.011 66V47.02L112.531 49.7741V44.7968L117.011 42.1091H121.623V66H117.011Z" fill="#C5DCFA"></path> </g> <rect width="132.727" height="132.727" rx="59.7273" transform="matrix(-1 0 0 1 323.25 40.2728)" fill="url(#paint1_linear_8884_42602)" fill-opacity="0.5"></rect> <g clip-path="url(#clip1_8884_42602)"> <path fill-rule="evenodd" clip-rule="evenodd" d="M273.477 76.7728C267.293 76.7728 262.096 81.0027 260.623 86.7273H233.659V93.3637H260.623C262.096 99.0883 267.293 103.318 273.477 103.318C280.808 103.318 286.75 97.3759 286.75 90.0455C286.75 82.7152 280.808 76.7728 273.477 76.7728ZM273.477 96.6819C269.812 96.6819 266.841 93.7107 266.841 90.0455C266.841 86.3804 269.812 83.4092 273.477 83.4092C277.142 83.4092 280.114 86.3804 280.114 90.0455C280.114 93.7107 277.142 96.6819 273.477 96.6819Z" fill="#616161"></path> <path fill-rule="evenodd" clip-rule="evenodd" d="M240.295 133.182C246.48 133.182 251.677 128.952 253.15 123.227H280.114V116.591H253.15C251.677 110.866 246.48 106.636 240.295 106.636C232.965 106.636 227.023 112.579 227.023 119.909C227.023 127.239 232.965 133.182 240.295 133.182ZM240.295 126.546C236.63 126.546 233.659 123.574 233.659 119.909C233.659 116.244 236.63 113.273 240.295 113.273C243.961 113.273 246.932 116.244 246.932 119.909C246.932 123.574 243.961 126.546 240.295 126.546Z" fill="#616161"></path> </g> <g filter="url(#filter1_dd_8884_42602)"> <rect x="278.598" y="27" width="53.0909" height="53.0909" rx="26.5455" fill="#1F8B24"></rect> <path d="M296.79 66.6032V62.6877L306.811 53.795C307.563 53.1313 308.094 52.5064 308.403 51.9202C308.713 51.334 308.868 50.7865 308.868 50.2777C308.868 49.5477 308.719 48.9007 308.42 48.3366C308.121 47.7614 307.701 47.3135 307.159 46.9927C306.617 46.6609 305.981 46.495 305.251 46.495C304.488 46.495 303.813 46.672 303.227 47.0259C302.652 47.3688 302.204 47.8278 301.883 48.4029C301.562 48.967 301.413 49.5809 301.435 50.2445H296.79C296.79 48.6076 297.149 47.1918 297.868 45.9973C298.587 44.8027 299.588 43.8792 300.871 43.2266C302.154 42.574 303.647 42.2477 305.351 42.2477C306.91 42.2477 308.304 42.5906 309.532 43.2763C310.77 43.951 311.744 44.8967 312.452 46.1134C313.159 47.3301 313.513 48.7403 313.513 50.3441C313.513 51.5276 313.347 52.512 313.016 53.2973C312.684 54.0715 312.192 54.7904 311.539 55.4541C310.886 56.1067 310.085 56.8477 309.133 57.6773L302.663 63.3514L302.298 62.3559H313.513V66.6032H296.79Z" fill="#C5F2C7"></path> </g> <rect width="132.727" height="132.727" rx="59.7273" transform="matrix(-1 0 0 1 510.318 40.2728)" fill="url(#paint2_linear_8884_42602)" fill-opacity="0.5"></rect> <g clip-path="url(#clip2_8884_42602)"> <path fill-rule="evenodd" clip-rule="evenodd" d="M443.954 71.7955C450.826 71.7955 456.397 77.3665 456.397 84.2387V86.7274H431.511V84.2387C431.511 77.3665 437.082 71.7955 443.954 71.7955ZM426.534 86.7274V84.2387C426.534 74.6177 434.333 66.8183 443.954 66.8183C453.575 66.8183 461.374 74.6177 461.374 84.2387V86.7274H478.795V136.5C478.795 141.998 474.338 146.455 468.84 146.455H419.068C413.57 146.455 409.113 141.998 409.113 136.5V86.7274H426.534Z" fill="#616161"></path> </g> <g filter="url(#filter2_dd_8884_42602)"> <rect x="465.666" y="27" width="53.0909" height="53.0909" rx="26.5455" fill="#DA100B"></rect> <path d="M491.7 67.0677C490.506 67.0677 489.367 66.8299 488.283 66.3543C487.199 65.8676 486.253 65.1874 485.446 64.3136C484.649 63.4398 484.08 62.4112 483.737 61.2277L488.117 60.0664C488.349 60.9401 488.803 61.6204 489.477 62.107C490.163 62.5826 490.904 62.8204 491.7 62.8204C492.386 62.8204 493.011 62.6545 493.575 62.3227C494.15 61.9909 494.604 61.5429 494.936 60.9789C495.279 60.4148 495.45 59.7898 495.45 59.1041C495.45 58.0754 495.096 57.1961 494.388 56.4661C493.691 55.7251 492.795 55.3545 491.7 55.3545C491.369 55.3545 491.048 55.4043 490.738 55.5039C490.429 55.5923 490.13 55.7195 489.842 55.8854L487.818 52.335L495.417 46.0304L495.749 46.9927H484.666V42.7454H499.598V46.9927L493.691 52.7L493.658 51.4391C495.03 51.6492 496.186 52.1304 497.126 52.8825C498.077 53.6235 498.796 54.5416 499.283 55.6366C499.78 56.7205 500.029 57.8764 500.029 59.1041C500.029 60.6083 499.648 61.9632 498.884 63.1689C498.121 64.3634 497.109 65.3146 495.848 66.0225C494.587 66.7193 493.205 67.0677 491.7 67.0677Z" fill="#FCD0CF"></path> </g> <defs> <filter id="filter0_dd_8884_42602" x="38.4384" y="0.454542" width="159.274" height="158.182" filterUnits="userSpaceOnUse" color-interpolation-filters="sRGB"> <feFlood flood-opacity="0" result="BackgroundImageFix"></feFlood> <feColorMatrix in="SourceAlpha" type="matrix" values="0 0 0 0 0 0 0 0 0 0 0 0 0 0 0 0 0 0 127 0" result="hardAlpha"></feColorMatrix> <feOffset dy="26.5455"></feOffset> <feGaussianBlur stdDeviation="26.5455"></feGaussianBlur> <feColorMatrix type="matrix" values="0 0 0 0 0.0588235 0 0 0 0 0.337255 0 0 0 0 0.701961 0 0 0 0.14 0"></feColorMatrix> <feBlend mode="multiply" in2="BackgroundImageFix" result="effect1_dropShadow_8884_42602"></feBlend> <feColorMatrix in="SourceAlpha" type="matrix" values="0 0 0 0 0 0 0 0 0 0 0 0 0 0 0 0 0 0 127 0" result="hardAlpha"></feColorMatrix> <feOffset dy="13.2727"></feOffset> <feGaussianBlur stdDeviation="13.2727"></feGaussianBlur> <feColorMatrix type="matrix" values="0 0 0 0 0.0588235 0 0 0 0 0.337255 0 0 0 0 0.701961 0 0 0 0.14 0"></feColorMatrix> <feBlend mode="multiply" in2="effect1_dropShadow_8884_42602" result="effect2_dropShadow_8884_42602"></feBlend> <feBlend mode="normal" in="SourceGraphic" in2="effect2_dropShadow_8884_42602" result="shape"></feBlend> </filter> <filter id="filter1_dd_8884_42602" x="225.507" y="0.454542" width="159.274" height="159.273" filterUnits="userSpaceOnUse" color-interpolation-filters="sRGB"> <feFlood flood-opacity="0" result="BackgroundImageFix"></feFlood> <feColorMatrix in="SourceAlpha" type="matrix" values="0 0 0 0 0 0 0 0 0 0 0 0 0 0 0 0 0 0 127 0" result="hardAlpha"></feColorMatrix> <feOffset dy="26.5455"></feOffset> <feGaussianBlur stdDeviation="26.5455"></feGaussianBlur> <feColorMatrix type="matrix" values="0 0 0 0 0.121569 0 0 0 0 0.545098 0 0 0 0 0.141176 0 0 0 0.14 0"></feColorMatrix> <feBlend mode="multiply" in2="BackgroundImageFix" result="effect1_dropShadow_8884_42602"></feBlend> <feColorMatrix in="SourceAlpha" type="matrix" values="0 0 0 0 0 0 0 0 0 0 0 0 0 0 0 0 0 0 127 0" result="hardAlpha"></feColorMatrix> <feOffset dy="13.2727"></feOffset> <feGaussianBlur stdDeviation="13.2727"></feGaussianBlur> <feColorMatrix type="matrix" values="0 0 0 0 0.121569 0 0 0 0 0.545098 0 0 0 0 0.141176 0 0 0 0.14 0"></feColorMatrix> <feBlend mode="multiply" in2="effect1_dropShadow_8884_42602" result="effect2_dropShadow_8884_42602"></feBlend> <feBlend mode="normal" in="SourceGraphic" in2="effect2_dropShadow_8884_42602" result="shape"></feBlend> </filter> <filter id="filter2_dd_8884_42602" x="412.575" y="0.454542" width="159.274" height="159.273" filterUnits="userSpaceOnUse" color-interpolation-filters="sRGB"> <feFlood flood-opacity="0" result="BackgroundImageFix"></feFlood> <feColorMatrix in="SourceAlpha" type="matrix" values="0 0 0 0 0 0 0 0 0 0 0 0 0 0 0 0 0 0 127 0" result="hardAlpha"></feColorMatrix> <feOffset dy="26.5455"></feOffset> <feGaussianBlur stdDeviation="26.5455"></feGaussianBlur> <feColorMatrix type="matrix" values="0 0 0 0 0.854902 0 0 0 0 0.0627451 0 0 0 0 0.0431373 0 0 0 0.14 0"></feColorMatrix> <feBlend mode="multiply" in2="BackgroundImageFix" result="effect1_dropShadow_8884_42602"></feBlend> <feColorMatrix in="SourceAlpha" type="matrix" values="0 0 0 0 0 0 0 0 0 0 0 0 0 0 0 0 0 0 127 0" result="hardAlpha"></feColorMatrix> <feOffset dy="13.2727"></feOffset> <feGaussianBlur stdDeviation="13.2727"></feGaussianBlur> <feColorMatrix type="matrix" values="0 0 0 0 0.854902 0 0 0 0 0.0627451 0 0 0 0 0.0431373 0 0 0 0.14 0"></feColorMatrix> <feBlend mode="multiply" in2="effect1_dropShadow_8884_42602" result="effect2_dropShadow_8884_42602"></feBlend> <feBlend mode="normal" in="SourceGraphic" in2="effect2_dropShadow_8884_42602" result="shape"></feBlend> </filter> <linearGradient id="paint0_linear_8884_42602" x1="66.3636" y1="0" x2="66.3636" y2="132.727" gradientUnits="userSpaceOnUse"> <stop stop-color="#C9CCE6"></stop> <stop offset="1" stop-color="#E6E6E6"></stop> </linearGradient> <linearGradient id="paint1_linear_8884_42602" x1="66.3636" y1="0" x2="66.3636" y2="132.727" gradientUnits="userSpaceOnUse"> <stop stop-color="#B5D8AF"></stop> <stop offset="1" stop-color="#E6E6E6"></stop> </linearGradient> <linearGradient id="paint2_linear_8884_42602" x1="66.3636" y1="0" x2="66.3636" y2="132.727" gradientUnits="userSpaceOnUse"> <stop stop-color="#E6C9D0"></stop> <stop offset="1" stop-color="#E6E6E6"></stop> </linearGradient> <clipPath id="clip0_8884_42602"> <rect width="79.6364" height="79.6364" fill="white" transform="matrix(-1 0 0 1 109.637 66.8183)"></rect> </clipPath> <clipPath id="clip1_8884_42602"> <rect width="79.6364" height="79.6364" fill="white" transform="matrix(-1 0 0 1 296.705 66.8183)"></rect> </clipPath> <clipPath id="clip2_8884_42602"> <rect width="79.6364" height="79.6364" fill="white" transform="matrix(-1 0 0 1 483.773 66.8183)"></rect> </clipPath> </defs> </svg> 