<?xml version="1.0" encoding="UTF-8"?> <svg xmlns="http://www.w3.org/2000/svg" width="284" height="435" viewBox="0 0 284 435" fill="none"> <g clip-path="url(#clip0_8690_353080)"> <rect width="284" height="435" fill="white"></rect> <rect x="34.75" y="4.75" width="174.5" height="46.5" rx="9.25" fill="white" stroke="#1F8B24" stroke-width="1.5"></rect> <path d="M57.6639 34.208C57.0879 34.208 56.5385 34.0933 56.0159 33.864C55.4932 33.6293 55.0372 33.3013 54.6479 32.88C54.2639 32.4587 53.9892 31.9627 53.8239 31.392L55.9359 30.832C56.0479 31.2533 56.2665 31.5813 56.5919 31.816C56.9225 32.0453 57.2799 32.16 57.6639 32.16C57.9945 32.16 58.2959 32.08 58.5679 31.92C58.8452 31.76 59.0639 31.544 59.2239 31.272C59.3892 31 59.4719 30.6987 59.4719 30.368C59.4719 29.872 59.3012 29.448 58.9599 29.096C58.6239 28.7387 58.1919 28.56 57.6639 28.56C57.5039 28.56 57.3492 28.584 57.1999 28.632C57.0505 28.6747 56.9065 28.736 56.7679 28.816L55.7919 27.104L59.4559 24.064L59.6159 24.528H54.2719V22.48H61.4719V24.528L58.6239 27.28L58.6079 26.672C59.2692 26.7733 59.8265 27.0053 60.2799 27.368C60.7385 27.7253 61.0852 28.168 61.3199 28.696C61.5599 29.2187 61.6799 29.776 61.6799 30.368C61.6799 31.0933 61.4959 31.7467 61.1279 32.328C60.7599 32.904 60.2719 33.3627 59.6639 33.704C59.0559 34.04 58.3892 34.208 57.6639 34.208ZM75.1984 34.24C74.393 34.24 73.6677 34.1067 73.0224 33.84C72.3824 33.568 71.8517 33.184 71.4304 32.688C71.0144 32.192 70.7424 31.6027 70.6144 30.92L71.8144 30.72C72.0064 31.4667 72.4117 32.0533 73.0304 32.48C73.649 32.9013 74.3877 33.112 75.2464 33.112C75.8117 33.112 76.3184 33.024 76.7664 32.848C77.2144 32.6667 77.5664 32.4107 77.8224 32.08C78.0784 31.7493 78.2064 31.3573 78.2064 30.904C78.2064 30.6053 78.153 30.352 78.0464 30.144C77.9397 29.9307 77.7984 29.7547 77.6224 29.616C77.4464 29.4773 77.2544 29.3627 77.0464 29.272C76.8384 29.176 76.6357 29.0987 76.4384 29.04L73.5184 28.168C73.1664 28.0667 72.841 27.9387 72.5424 27.784C72.2437 27.624 71.9824 27.4347 71.7584 27.216C71.5397 26.992 71.369 26.7307 71.2464 26.432C71.1237 26.1333 71.0624 25.792 71.0624 25.408C71.0624 24.7573 71.233 24.1947 71.5744 23.72C71.9157 23.2453 72.3824 22.88 72.9744 22.624C73.5664 22.368 74.241 22.2427 74.9984 22.248C75.7664 22.248 76.4517 22.384 77.0544 22.656C77.6624 22.928 78.1637 23.3173 78.5584 23.824C78.953 24.3253 79.2144 24.92 79.3424 25.608L78.1104 25.832C78.0304 25.3307 77.8464 24.896 77.5584 24.528C77.2704 24.16 76.9024 23.8773 76.4544 23.68C76.0117 23.4773 75.5237 23.3733 74.9904 23.368C74.473 23.368 74.0117 23.456 73.6064 23.632C73.2064 23.8027 72.889 24.0373 72.6544 24.336C72.4197 24.6347 72.3024 24.976 72.3024 25.36C72.3024 25.7493 72.409 26.0613 72.6224 26.296C72.841 26.5307 73.1077 26.7147 73.4224 26.848C73.7424 26.9813 74.0517 27.0907 74.3504 27.176L76.6064 27.84C76.841 27.904 77.1157 27.9973 77.4304 28.12C77.7504 28.2373 78.0597 28.408 78.3584 28.632C78.6624 28.8507 78.913 29.1387 79.1104 29.496C79.3077 29.8533 79.4064 30.3067 79.4064 30.856C79.4064 31.3893 79.2997 31.8667 79.0864 32.288C78.8784 32.7093 78.5824 33.064 78.1984 33.352C77.8197 33.64 77.3744 33.8587 76.8624 34.008C76.3557 34.1627 75.801 34.24 75.1984 34.24ZM84.9826 34.24C84.1399 34.24 83.4092 34.0533 82.7906 33.68C82.1772 33.3067 81.6999 32.7813 81.3586 32.104C81.0172 31.4267 80.8466 30.632 80.8466 29.72C80.8466 28.776 81.0146 27.96 81.3506 27.272C81.6866 26.584 82.1586 26.0533 82.7666 25.68C83.3799 25.3067 84.1026 25.12 84.9346 25.12C85.7879 25.12 86.5159 25.3173 87.1186 25.712C87.7212 26.1013 88.1772 26.6613 88.4866 27.392C88.7959 28.1227 88.9372 28.9947 88.9106 30.008H87.7106V29.592C87.6892 28.472 87.4466 27.6267 86.9826 27.056C86.5239 26.4853 85.8519 26.2 84.9666 26.2C84.0386 26.2 83.3266 26.5013 82.8306 27.104C82.3399 27.7067 82.0946 28.5653 82.0946 29.68C82.0946 30.768 82.3399 31.6133 82.8306 32.216C83.3266 32.8133 84.0279 33.112 84.9346 33.112C85.5532 33.112 86.0919 32.9707 86.5506 32.688C87.0146 32.4 87.3799 31.9867 87.6466 31.448L88.7426 31.872C88.4012 32.624 87.8972 33.208 87.2306 33.624C86.5692 34.0347 85.8199 34.24 84.9826 34.24ZM81.6786 30.008V29.024H88.2786V30.008H81.6786ZM91.1147 34V22.24H92.2907V34H91.1147ZM98.6139 34.24C97.7712 34.24 97.0406 34.0533 96.4219 33.68C95.8086 33.3067 95.3312 32.7813 94.9899 32.104C94.6486 31.4267 94.4779 30.632 94.4779 29.72C94.4779 28.776 94.6459 27.96 94.9819 27.272C95.3179 26.584 95.7899 26.0533 96.3979 25.68C97.0112 25.3067 97.7339 25.12 98.5659 25.12C99.4192 25.12 100.147 25.3173 100.75 25.712C101.353 26.1013 101.809 26.6613 102.118 27.392C102.427 28.1227 102.569 28.9947 102.542 30.008H101.342V29.592C101.321 28.472 101.078 27.6267 100.614 27.056C100.155 26.4853 99.4832 26.2 98.5979 26.2C97.6699 26.2 96.9579 26.5013 96.4619 27.104C95.9712 27.7067 95.7259 28.5653 95.7259 29.68C95.7259 30.768 95.9712 31.6133 96.4619 32.216C96.9579 32.8133 97.6592 33.112 98.5659 33.112C99.1846 33.112 99.7232 32.9707 100.182 32.688C100.646 32.4 101.011 31.9867 101.278 31.448L102.374 31.872C102.033 32.624 101.529 33.208 100.862 33.624C100.201 34.0347 99.4512 34.24 98.6139 34.24ZM95.3099 30.008V29.024H101.91V30.008H95.3099ZM108.17 34.24C107.301 34.24 106.565 34.0453 105.962 33.656C105.359 33.2667 104.901 32.7307 104.586 32.048C104.277 31.36 104.117 30.5707 104.106 29.68C104.117 28.7733 104.282 27.9787 104.602 27.296C104.922 26.608 105.383 26.0747 105.986 25.696C106.589 25.312 107.319 25.12 108.178 25.12C109.053 25.12 109.813 25.3333 110.458 25.76C111.109 26.1867 111.554 26.7707 111.794 27.512L110.642 27.88C110.439 27.3627 110.117 26.9627 109.674 26.68C109.237 26.392 108.735 26.248 108.17 26.248C107.535 26.248 107.01 26.3947 106.594 26.688C106.178 26.976 105.869 27.3787 105.666 27.896C105.463 28.4133 105.359 29.008 105.354 29.68C105.365 30.7147 105.605 31.5467 106.074 32.176C106.543 32.8 107.242 33.112 108.17 33.112C108.757 33.112 109.255 32.9787 109.666 32.712C110.082 32.44 110.397 32.0453 110.61 31.528L111.794 31.88C111.474 32.648 111.005 33.2347 110.386 33.64C109.767 34.04 109.029 34.24 108.17 34.24ZM118.418 34C117.933 34.1013 117.453 34.1413 116.978 34.12C116.509 34.0987 116.088 33.9973 115.714 33.816C115.346 33.6347 115.066 33.352 114.874 32.968C114.72 32.648 114.634 32.3253 114.618 32C114.608 31.6693 114.602 31.2933 114.602 30.872V22.96H115.77V30.824C115.77 31.1867 115.773 31.4907 115.778 31.736C115.789 31.976 115.845 32.1893 115.946 32.376C116.138 32.7333 116.442 32.9467 116.858 33.016C117.28 33.0853 117.8 33.0693 118.418 32.968V34ZM112.754 26.368V25.36H118.418V26.368H112.754ZM123.733 34.24C122.89 34.24 122.159 34.0533 121.541 33.68C120.927 33.3067 120.45 32.7813 120.109 32.104C119.767 31.4267 119.597 30.632 119.597 29.72C119.597 28.776 119.765 27.96 120.101 27.272C120.437 26.584 120.909 26.0533 121.517 25.68C122.13 25.3067 122.853 25.12 123.685 25.12C124.538 25.12 125.266 25.3173 125.869 25.712C126.471 26.1013 126.927 26.6613 127.237 27.392C127.546 28.1227 127.687 28.9947 127.661 30.008H126.461V29.592C126.439 28.472 126.197 27.6267 125.733 27.056C125.274 26.4853 124.602 26.2 123.717 26.2C122.789 26.2 122.077 26.5013 121.581 27.104C121.09 27.7067 120.845 28.5653 120.845 29.68C120.845 30.768 121.09 31.6133 121.581 32.216C122.077 32.8133 122.778 33.112 123.685 33.112C124.303 33.112 124.842 32.9707 125.301 32.688C125.765 32.4 126.13 31.9867 126.397 31.448L127.493 31.872C127.151 32.624 126.647 33.208 125.981 33.624C125.319 34.0347 124.57 34.24 123.733 34.24ZM120.429 30.008V29.024H127.029V30.008H120.429ZM133.057 34.24C132.252 34.24 131.564 34.04 130.993 33.64C130.422 33.2347 129.985 32.688 129.681 32C129.377 31.312 129.225 30.536 129.225 29.672C129.225 28.8133 129.374 28.04 129.673 27.352C129.977 26.664 130.412 26.12 130.977 25.72C131.542 25.32 132.22 25.12 133.009 25.12C133.82 25.12 134.502 25.3173 135.057 25.712C135.612 26.1067 136.03 26.648 136.313 27.336C136.601 28.0187 136.745 28.7973 136.745 29.672C136.745 30.5307 136.604 31.3067 136.321 32C136.038 32.688 135.622 33.2347 135.073 33.64C134.524 34.04 133.852 34.24 133.057 34.24ZM133.177 33.144C133.79 33.144 134.297 32.9947 134.697 32.696C135.097 32.3973 135.396 31.9867 135.593 31.464C135.79 30.936 135.889 30.3387 135.889 29.672C135.889 28.9947 135.79 28.3973 135.593 27.88C135.396 27.3573 135.097 26.9493 134.697 26.656C134.302 26.3627 133.804 26.216 133.201 26.216C132.582 26.216 132.07 26.368 131.665 26.672C131.26 26.976 130.958 27.3893 130.761 27.912C130.569 28.4347 130.473 29.0213 130.473 29.672C130.473 30.328 130.572 30.92 130.769 31.448C130.972 31.9707 131.273 32.384 131.673 32.688C132.073 32.992 132.574 33.144 133.177 33.144ZM135.889 34V27.496H135.761V22.48H136.945V34H135.889ZM143.154 34V32.632H144.522V34H143.154ZM147.485 34V32.632H148.853V34H147.485ZM151.817 34V32.632H153.185V34H151.817Z" fill="black"></path> <path d="M185.616 25.4609C185.816 25.2211 186.184 25.2211 186.384 25.4609L190.317 30.1799C190.588 30.5056 190.356 31 189.932 31L182.068 31C181.644 31 181.412 30.5056 181.683 30.1799L185.616 25.4609Z" fill="#616161"></path> <rect x="32" y="2" width="180" height="52" rx="12" stroke="#C5F2C7" stroke-opacity="0.5" stroke-width="4"></rect> <g filter="url(#filter0_dd_8690_353080)"> <path d="M34 80C34 70.5719 34 65.8579 36.9289 62.9289C39.8579 60 44.5719 60 54 60H238C243.657 60 246.485 60 248.243 61.7574C250 63.5147 250 66.3431 250 72V365C250 374.428 250 379.142 247.071 382.071C244.142 385 239.428 385 230 385H54C44.5719 385 39.8579 385 36.9289 382.071C34 379.142 34 374.428 34 365V80Z" fill="white"></path> <path d="M54 60.5H238C240.843 60.5 242.924 60.5011 244.517 60.7152C246.095 60.9274 247.119 61.3406 247.889 62.1109C248.659 62.8812 249.073 63.9046 249.285 65.483C249.499 67.0758 249.5 69.1574 249.5 72V365C249.5 369.728 249.499 373.224 249.138 375.906C248.78 378.574 248.074 380.361 246.718 381.718C245.361 383.074 243.574 383.78 240.906 384.138C238.224 384.499 234.728 384.5 230 384.5H54C49.2718 384.5 45.776 384.499 43.0939 384.138C40.4262 383.78 38.6386 383.074 37.2825 381.718C35.9264 380.361 35.2203 378.574 34.8617 375.906C34.5011 373.224 34.5 369.728 34.5 365V80C34.5 75.2718 34.5011 71.776 34.8617 69.0939C35.2203 66.4262 35.9264 64.6386 37.2825 63.2825C38.6386 61.9264 40.4262 61.2203 43.0939 60.8617C45.776 60.5011 49.2718 60.5 54 60.5Z" stroke="#C0C0C0"></path> </g> <g filter="url(#filter1_d_8690_353080)"> <path d="M88.12 95V83.48H91.728C91.8347 83.48 92.032 83.4827 92.32 83.488C92.6133 83.4933 92.8933 83.5147 93.16 83.552C94.0613 83.664 94.8187 83.9867 95.432 84.52C96.0507 85.0533 96.5173 85.7307 96.832 86.552C97.1467 87.368 97.304 88.264 97.304 89.24C97.304 90.2213 97.1467 91.1227 96.832 91.944C96.5173 92.76 96.0507 93.4347 95.432 93.968C94.8187 94.496 94.0613 94.816 93.16 94.928C92.8933 94.9653 92.6133 94.9867 92.32 94.992C92.032 94.9973 91.8347 95 91.728 95H88.12ZM89.832 93.408H91.728C91.9093 93.408 92.1253 93.4027 92.376 93.392C92.6267 93.3813 92.848 93.36 93.04 93.328C93.6267 93.216 94.1013 92.9627 94.464 92.568C94.832 92.168 95.1013 91.6773 95.272 91.096C95.4427 90.5147 95.528 89.896 95.528 89.24C95.528 88.5627 95.44 87.936 95.264 87.36C95.088 86.7787 94.816 86.2933 94.448 85.904C94.0853 85.5093 93.616 85.2587 93.04 85.152C92.848 85.1147 92.624 85.0933 92.368 85.088C92.1173 85.0773 91.904 85.072 91.728 85.072H89.832V93.408ZM99.4357 95V86.36H100.924V88.456L100.716 88.184C100.822 87.9067 100.961 87.6533 101.132 87.424C101.302 87.1893 101.5 86.9973 101.724 86.848C101.942 86.688 102.185 86.5653 102.452 86.48C102.724 86.3893 103.001 86.336 103.284 86.32C103.566 86.2987 103.838 86.312 104.1 86.36V87.928C103.817 87.8533 103.502 87.832 103.156 87.864C102.814 87.896 102.5 88.0053 102.212 88.192C101.94 88.368 101.724 88.5813 101.564 88.832C101.409 89.0827 101.297 89.3627 101.228 89.672C101.158 89.976 101.124 90.2987 101.124 90.64V95H99.4357ZM108.082 95.24C107.442 95.24 106.906 95.1227 106.474 94.888C106.042 94.648 105.714 94.3333 105.49 93.944C105.271 93.5493 105.162 93.1173 105.162 92.648C105.162 92.2107 105.239 91.8267 105.394 91.496C105.549 91.1653 105.778 90.8853 106.082 90.656C106.386 90.4213 106.759 90.232 107.202 90.088C107.586 89.976 108.021 89.8773 108.506 89.792C108.991 89.7067 109.501 89.6267 110.034 89.552C110.573 89.4773 111.106 89.4027 111.634 89.328L111.026 89.664C111.037 88.9867 110.893 88.4853 110.594 88.16C110.301 87.8293 109.794 87.664 109.074 87.664C108.621 87.664 108.205 87.7707 107.826 87.984C107.447 88.192 107.183 88.5387 107.034 89.024L105.474 88.544C105.687 87.8027 106.093 87.2133 106.69 86.776C107.293 86.3387 108.093 86.12 109.09 86.12C109.863 86.12 110.535 86.2533 111.106 86.52C111.682 86.7813 112.103 87.1973 112.37 87.768C112.509 88.0507 112.594 88.3493 112.626 88.664C112.658 88.9787 112.674 89.3173 112.674 89.68V95H111.194V93.024L111.482 93.28C111.125 93.9413 110.669 94.4347 110.114 94.76C109.565 95.08 108.887 95.24 108.082 95.24ZM108.378 93.872C108.853 93.872 109.261 93.7893 109.602 93.624C109.943 93.4533 110.218 93.2373 110.426 92.976C110.634 92.7147 110.77 92.4427 110.834 92.16C110.925 91.904 110.975 91.616 110.986 91.296C111.002 90.976 111.01 90.72 111.01 90.528L111.554 90.728C111.026 90.808 110.546 90.88 110.114 90.944C109.682 91.008 109.29 91.072 108.938 91.136C108.591 91.1947 108.282 91.2667 108.01 91.352C107.781 91.432 107.575 91.528 107.394 91.64C107.218 91.752 107.077 91.888 106.97 92.048C106.869 92.208 106.818 92.4027 106.818 92.632C106.818 92.856 106.874 93.064 106.986 93.256C107.098 93.4427 107.269 93.592 107.498 93.704C107.727 93.816 108.021 93.872 108.378 93.872ZM125.372 95L125.38 89.616C125.38 88.992 125.22 88.5067 124.9 88.16C124.58 87.808 124.159 87.632 123.636 87.632C123.316 87.632 123.023 87.7067 122.756 87.856C122.495 88 122.281 88.2187 122.116 88.512C121.956 88.8 121.876 89.1627 121.876 89.6L121.068 89.192C121.057 88.584 121.185 88.0507 121.452 87.592C121.724 87.1333 122.092 86.7787 122.556 86.528C123.02 86.272 123.54 86.144 124.116 86.144C125.049 86.144 125.772 86.424 126.284 86.984C126.796 87.544 127.052 88.288 127.052 89.216L127.044 95H125.372ZM115.012 95V86.36H116.5V88.856H116.692V95H115.012ZM120.196 95L120.204 89.648C120.204 89.0187 120.044 88.5253 119.724 88.168C119.409 87.8107 118.985 87.632 118.452 87.632C117.924 87.632 117.497 87.8133 117.172 88.176C116.852 88.5387 116.692 89.0133 116.692 89.6L115.892 89.088C115.892 88.5227 116.028 88.0187 116.3 87.576C116.572 87.1333 116.94 86.784 117.404 86.528C117.868 86.272 118.393 86.144 118.98 86.144C119.593 86.144 120.116 86.2747 120.548 86.536C120.98 86.792 121.308 87.152 121.532 87.616C121.761 88.08 121.876 88.6187 121.876 89.232L121.868 95H120.196ZM131.838 95.24C131.198 95.24 130.662 95.1227 130.23 94.888C129.798 94.648 129.47 94.3333 129.246 93.944C129.028 93.5493 128.918 93.1173 128.918 92.648C128.918 92.2107 128.996 91.8267 129.15 91.496C129.305 91.1653 129.534 90.8853 129.838 90.656C130.142 90.4213 130.516 90.232 130.958 90.088C131.342 89.976 131.777 89.8773 132.262 89.792C132.748 89.7067 133.257 89.6267 133.79 89.552C134.329 89.4773 134.862 89.4027 135.39 89.328L134.782 89.664C134.793 88.9867 134.649 88.4853 134.35 88.16C134.057 87.8293 133.55 87.664 132.83 87.664C132.377 87.664 131.961 87.7707 131.582 87.984C131.204 88.192 130.94 88.5387 130.79 89.024L129.23 88.544C129.444 87.8027 129.849 87.2133 130.446 86.776C131.049 86.3387 131.849 86.12 132.846 86.12C133.62 86.12 134.292 86.2533 134.862 86.52C135.438 86.7813 135.86 87.1973 136.126 87.768C136.265 88.0507 136.35 88.3493 136.382 88.664C136.414 88.9787 136.43 89.3173 136.43 89.68V95H134.95V93.024L135.238 93.28C134.881 93.9413 134.425 94.4347 133.87 94.76C133.321 95.08 132.644 95.24 131.838 95.24ZM132.134 93.872C132.609 93.872 133.017 93.7893 133.358 93.624C133.7 93.4533 133.974 93.2373 134.182 92.976C134.39 92.7147 134.526 92.4427 134.59 92.16C134.681 91.904 134.732 91.616 134.742 91.296C134.758 90.976 134.766 90.72 134.766 90.528L135.31 90.728C134.782 90.808 134.302 90.88 133.87 90.944C133.438 91.008 133.046 91.072 132.694 91.136C132.348 91.1947 132.038 91.2667 131.766 91.352C131.537 91.432 131.332 91.528 131.15 91.64C130.974 91.752 130.833 91.888 130.726 92.048C130.625 92.208 130.574 92.4027 130.574 92.632C130.574 92.856 130.63 93.064 130.742 93.256C130.854 93.4427 131.025 93.592 131.254 93.704C131.484 93.816 131.777 93.872 132.134 93.872ZM88.12 129V117.48H94.944V119.152H89.792V122.4H93.984V124.08H89.792V129H88.12ZM98.7819 129.24C98.1419 129.24 97.6059 129.123 97.1739 128.888C96.7419 128.648 96.4139 128.333 96.1899 127.944C95.9713 127.549 95.8619 127.117 95.8619 126.648C95.8619 126.211 95.9393 125.827 96.0939 125.496C96.2486 125.165 96.4779 124.885 96.7819 124.656C97.0859 124.421 97.4593 124.232 97.9019 124.088C98.2859 123.976 98.7206 123.877 99.2059 123.792C99.6913 123.707 100.201 123.627 100.734 123.552C101.273 123.477 101.806 123.403 102.334 123.328L101.726 123.664C101.737 122.987 101.593 122.485 101.294 122.16C101.001 121.829 100.494 121.664 99.7739 121.664C99.3206 121.664 98.9046 121.771 98.5259 121.984C98.1473 122.192 97.8833 122.539 97.7339 123.024L96.1739 122.544C96.3873 121.803 96.7926 121.213 97.3899 120.776C97.9926 120.339 98.7926 120.12 99.7899 120.12C100.563 120.12 101.235 120.253 101.806 120.52C102.382 120.781 102.803 121.197 103.07 121.768C103.209 122.051 103.294 122.349 103.326 122.664C103.358 122.979 103.374 123.317 103.374 123.68V129H101.894V127.024L102.182 127.28C101.825 127.941 101.369 128.435 100.814 128.76C100.265 129.08 99.5873 129.24 98.7819 129.24ZM99.0779 127.872C99.5526 127.872 99.9606 127.789 100.302 127.624C100.643 127.453 100.918 127.237 101.126 126.976C101.334 126.715 101.47 126.443 101.534 126.16C101.625 125.904 101.675 125.616 101.686 125.296C101.702 124.976 101.71 124.72 101.71 124.528L102.254 124.728C101.726 124.808 101.246 124.88 100.814 124.944C100.382 125.008 99.9899 125.072 99.6379 125.136C99.2913 125.195 98.9819 125.267 98.7099 125.352C98.4806 125.432 98.2753 125.528 98.0939 125.64C97.9179 125.752 97.7766 125.888 97.6699 126.048C97.5686 126.208 97.5179 126.403 97.5179 126.632C97.5179 126.856 97.5739 127.064 97.6859 127.256C97.7979 127.443 97.9686 127.592 98.1979 127.704C98.4273 127.816 98.7206 127.872 99.0779 127.872ZM111.784 129V124.752C111.784 124.416 111.755 124.072 111.696 123.72C111.643 123.363 111.536 123.032 111.376 122.728C111.221 122.424 111 122.179 110.712 121.992C110.429 121.805 110.059 121.712 109.6 121.712C109.301 121.712 109.019 121.763 108.752 121.864C108.485 121.96 108.251 122.117 108.048 122.336C107.851 122.555 107.693 122.843 107.576 123.2C107.464 123.557 107.408 123.992 107.408 124.504L106.368 124.112C106.368 123.328 106.515 122.637 106.808 122.04C107.101 121.437 107.523 120.968 108.072 120.632C108.621 120.296 109.285 120.128 110.064 120.128C110.661 120.128 111.163 120.224 111.568 120.416C111.973 120.608 112.301 120.861 112.552 121.176C112.808 121.485 113.003 121.824 113.136 122.192C113.269 122.56 113.36 122.92 113.408 123.272C113.456 123.624 113.48 123.933 113.48 124.2V129H111.784ZM105.712 129V120.36H107.208V122.856H107.408V129H105.712ZM120.777 129C120.233 129.107 119.699 129.152 119.177 129.136C118.654 129.12 118.187 129.019 117.777 128.832C117.366 128.645 117.057 128.352 116.849 127.952C116.662 127.595 116.561 127.232 116.545 126.864C116.534 126.491 116.529 126.069 116.529 125.6V117.96H118.209V125.52C118.209 125.867 118.211 126.168 118.217 126.424C118.227 126.68 118.283 126.896 118.385 127.072C118.577 127.403 118.881 127.592 119.297 127.64C119.718 127.683 120.211 127.664 120.777 127.584V129ZM114.873 121.704V120.36H120.777V121.704H114.873ZM125.307 129.24C124.667 129.24 124.131 129.123 123.699 128.888C123.267 128.648 122.939 128.333 122.715 127.944C122.496 127.549 122.387 127.117 122.387 126.648C122.387 126.211 122.464 125.827 122.619 125.496C122.774 125.165 123.003 124.885 123.307 124.656C123.611 124.421 123.984 124.232 124.427 124.088C124.811 123.976 125.246 123.877 125.731 123.792C126.216 123.707 126.726 123.627 127.259 123.552C127.798 123.477 128.331 123.403 128.859 123.328L128.251 123.664C128.262 122.987 128.118 122.485 127.819 122.16C127.526 121.829 127.019 121.664 126.299 121.664C125.846 121.664 125.43 121.771 125.051 121.984C124.672 122.192 124.408 122.539 124.259 123.024L122.699 122.544C122.912 121.803 123.318 121.213 123.915 120.776C124.518 120.339 125.318 120.12 126.315 120.12C127.088 120.12 127.76 120.253 128.331 120.52C128.907 120.781 129.328 121.197 129.595 121.768C129.734 122.051 129.819 122.349 129.851 122.664C129.883 122.979 129.899 123.317 129.899 123.68V129H128.419V127.024L128.707 127.28C128.35 127.941 127.894 128.435 127.339 128.76C126.79 129.08 126.112 129.24 125.307 129.24ZM125.603 127.872C126.078 127.872 126.486 127.789 126.827 127.624C127.168 127.453 127.443 127.237 127.651 126.976C127.859 126.715 127.995 126.443 128.059 126.16C128.15 125.904 128.2 125.616 128.211 125.296C128.227 124.976 128.235 124.72 128.235 124.528L128.779 124.728C128.251 124.808 127.771 124.88 127.339 124.944C126.907 125.008 126.515 125.072 126.163 125.136C125.816 125.195 125.507 125.267 125.235 125.352C125.006 125.432 124.8 125.528 124.619 125.64C124.443 125.752 124.302 125.888 124.195 126.048C124.094 126.208 124.043 126.403 124.043 126.632C124.043 126.856 124.099 127.064 124.211 127.256C124.323 127.443 124.494 127.592 124.723 127.704C124.952 127.816 125.246 127.872 125.603 127.872ZM135.549 129.232C134.499 129.232 133.643 129 132.981 128.536C132.32 128.072 131.915 127.419 131.765 126.576L133.477 126.312C133.584 126.76 133.829 127.115 134.213 127.376C134.603 127.632 135.085 127.76 135.661 127.76C136.184 127.76 136.592 127.653 136.885 127.44C137.184 127.227 137.333 126.933 137.333 126.56C137.333 126.341 137.28 126.165 137.173 126.032C137.072 125.893 136.856 125.763 136.525 125.64C136.195 125.517 135.691 125.365 135.013 125.184C134.272 124.992 133.683 124.787 133.245 124.568C132.813 124.344 132.504 124.085 132.317 123.792C132.136 123.493 132.045 123.133 132.045 122.712C132.045 122.189 132.184 121.733 132.461 121.344C132.739 120.955 133.128 120.653 133.629 120.44C134.136 120.227 134.728 120.12 135.405 120.12C136.067 120.12 136.656 120.224 137.173 120.432C137.691 120.64 138.109 120.936 138.429 121.32C138.749 121.699 138.941 122.144 139.005 122.656L137.293 122.968C137.235 122.552 137.04 122.224 136.709 121.984C136.379 121.744 135.949 121.613 135.421 121.592C134.915 121.571 134.504 121.656 134.189 121.848C133.875 122.035 133.717 122.293 133.717 122.624C133.717 122.816 133.776 122.979 133.893 123.112C134.016 123.245 134.251 123.373 134.597 123.496C134.944 123.619 135.456 123.765 136.133 123.936C136.859 124.123 137.435 124.331 137.861 124.56C138.288 124.784 138.592 125.053 138.773 125.368C138.96 125.677 139.053 126.053 139.053 126.496C139.053 127.349 138.741 128.019 138.117 128.504C137.499 128.989 136.643 129.232 135.549 129.232ZM141.948 132.84L143.62 128.288L143.644 129.632L139.876 120.36H141.62L144.436 127.52H143.924L146.612 120.36H148.308L143.54 132.84H141.948ZM88.12 163V151.48H89.792V156.448H95.552V151.48H97.232V163H95.552V158.024H89.792V163H88.12ZM103.5 163.24C102.636 163.24 101.887 163.045 101.252 162.656C100.618 162.267 100.127 161.731 99.7802 161.048C99.4388 160.36 99.2682 159.568 99.2682 158.672C99.2682 157.771 99.4442 156.979 99.7962 156.296C100.148 155.608 100.642 155.075 101.276 154.696C101.911 154.312 102.652 154.12 103.5 154.12C104.364 154.12 105.114 154.315 105.748 154.704C106.383 155.093 106.874 155.629 107.22 156.312C107.567 156.995 107.74 157.781 107.74 158.672C107.74 159.573 107.564 160.368 107.212 161.056C106.866 161.739 106.375 162.275 105.74 162.664C105.106 163.048 104.359 163.24 103.5 163.24ZM103.5 161.664C104.327 161.664 104.943 161.387 105.348 160.832C105.759 160.272 105.964 159.552 105.964 158.672C105.964 157.771 105.756 157.051 105.34 156.512C104.93 155.968 104.316 155.696 103.5 155.696C102.94 155.696 102.479 155.824 102.116 156.08C101.754 156.331 101.484 156.68 101.308 157.128C101.132 157.571 101.044 158.085 101.044 158.672C101.044 159.579 101.252 160.304 101.668 160.848C102.084 161.392 102.695 161.664 103.5 161.664ZM109.767 163V154.36H111.255V156.456L111.047 156.184C111.154 155.907 111.292 155.653 111.463 155.424C111.634 155.189 111.831 154.997 112.055 154.848C112.274 154.688 112.516 154.565 112.783 154.48C113.055 154.389 113.332 154.336 113.615 154.32C113.898 154.299 114.17 154.312 114.431 154.36V155.928C114.148 155.853 113.834 155.832 113.487 155.864C113.146 155.896 112.831 156.005 112.543 156.192C112.271 156.368 112.055 156.581 111.895 156.832C111.74 157.083 111.628 157.363 111.559 157.672C111.49 157.976 111.455 158.299 111.455 158.64V163H109.767ZM116.223 163V154.36H117.711V156.456L117.503 156.184C117.61 155.907 117.749 155.653 117.919 155.424C118.09 155.189 118.287 154.997 118.511 154.848C118.73 154.688 118.973 154.565 119.239 154.48C119.511 154.389 119.789 154.336 120.071 154.32C120.354 154.299 120.626 154.312 120.887 154.36V155.928C120.605 155.853 120.29 155.832 119.943 155.864C119.602 155.896 119.287 156.005 118.999 156.192C118.727 156.368 118.511 156.581 118.351 156.832C118.197 157.083 118.085 157.363 118.015 157.672C117.946 157.976 117.911 158.299 117.911 158.64V163H116.223ZM126.275 163.24C125.411 163.24 124.662 163.045 124.027 162.656C123.393 162.267 122.902 161.731 122.555 161.048C122.214 160.36 122.043 159.568 122.043 158.672C122.043 157.771 122.219 156.979 122.571 156.296C122.923 155.608 123.417 155.075 124.051 154.696C124.686 154.312 125.427 154.12 126.275 154.12C127.139 154.12 127.889 154.315 128.523 154.704C129.158 155.093 129.649 155.629 129.995 156.312C130.342 156.995 130.515 157.781 130.515 158.672C130.515 159.573 130.339 160.368 129.987 161.056C129.641 161.739 129.15 162.275 128.515 162.664C127.881 163.048 127.134 163.24 126.275 163.24ZM126.275 161.664C127.102 161.664 127.718 161.387 128.123 160.832C128.534 160.272 128.739 159.552 128.739 158.672C128.739 157.771 128.531 157.051 128.115 156.512C127.705 155.968 127.091 155.696 126.275 155.696C125.715 155.696 125.254 155.824 124.891 156.08C124.529 156.331 124.259 156.68 124.083 157.128C123.907 157.571 123.819 158.085 123.819 158.672C123.819 159.579 124.027 160.304 124.443 160.848C124.859 161.392 125.47 161.664 126.275 161.664ZM132.542 163V154.36H134.03V156.456L133.822 156.184C133.929 155.907 134.067 155.653 134.238 155.424C134.409 155.189 134.606 154.997 134.83 154.848C135.049 154.688 135.291 154.565 135.558 154.48C135.83 154.389 136.107 154.336 136.39 154.32C136.673 154.299 136.945 154.312 137.206 154.36V155.928C136.923 155.853 136.609 155.832 136.262 155.864C135.921 155.896 135.606 156.005 135.318 156.192C135.046 156.368 134.83 156.581 134.67 156.832C134.515 157.083 134.403 157.363 134.334 157.672C134.265 157.976 134.23 158.299 134.23 158.64V163H132.542Z" fill="black"></path> </g> <g clip-path="url(#clip1_8690_353080)"> <g filter="url(#filter2_d_8690_353080)"> <path d="M87.32 217L91.288 205.48H92.848L96.816 217H95.592L91.824 206.136H92.288L88.544 217H87.32ZM89.088 214.208V213.104H95.04V214.208H89.088ZM102.113 217.24C101.244 217.24 100.508 217.045 99.9054 216.656C99.3028 216.267 98.8441 215.731 98.5294 215.048C98.2201 214.36 98.0601 213.571 98.0494 212.68C98.0601 211.773 98.2254 210.979 98.5454 210.296C98.8654 209.608 99.3268 209.075 99.9294 208.696C100.532 208.312 101.263 208.12 102.121 208.12C102.996 208.12 103.756 208.333 104.401 208.76C105.052 209.187 105.497 209.771 105.737 210.512L104.585 210.88C104.383 210.363 104.06 209.963 103.617 209.68C103.18 209.392 102.679 209.248 102.113 209.248C101.479 209.248 100.953 209.395 100.537 209.688C100.121 209.976 99.8121 210.379 99.6094 210.896C99.4068 211.413 99.3028 212.008 99.2974 212.68C99.3081 213.715 99.5481 214.547 100.017 215.176C100.487 215.8 101.185 216.112 102.113 216.112C102.7 216.112 103.199 215.979 103.609 215.712C104.025 215.44 104.34 215.045 104.553 214.528L105.737 214.88C105.417 215.648 104.948 216.235 104.329 216.64C103.711 217.04 102.972 217.24 102.113 217.24ZM112.362 217C111.876 217.101 111.396 217.141 110.922 217.12C110.452 217.099 110.031 216.997 109.658 216.816C109.29 216.635 109.01 216.352 108.818 215.968C108.663 215.648 108.578 215.325 108.562 215C108.551 214.669 108.546 214.293 108.546 213.872V205.96H109.714V213.824C109.714 214.187 109.716 214.491 109.722 214.736C109.732 214.976 109.788 215.189 109.89 215.376C110.082 215.733 110.386 215.947 110.802 216.016C111.223 216.085 111.743 216.069 112.362 215.968V217ZM106.698 209.368V208.36H112.362V209.368H106.698ZM114.493 206.72V205.4H115.669V206.72H114.493ZM114.493 217V208.36H115.669V217H114.493ZM121.944 217.24C121.085 217.24 120.352 217.045 119.744 216.656C119.136 216.267 118.669 215.728 118.344 215.04C118.018 214.352 117.856 213.563 117.856 212.672C117.856 211.765 118.021 210.971 118.352 210.288C118.682 209.605 119.152 209.075 119.76 208.696C120.373 208.312 121.101 208.12 121.944 208.12C122.808 208.12 123.544 208.315 124.152 208.704C124.765 209.088 125.232 209.624 125.552 210.312C125.877 210.995 126.04 211.781 126.04 212.672C126.04 213.579 125.877 214.376 125.552 215.064C125.226 215.747 124.757 216.28 124.144 216.664C123.53 217.048 122.797 217.24 121.944 217.24ZM121.944 216.112C122.904 216.112 123.618 215.795 124.088 215.16C124.557 214.52 124.792 213.691 124.792 212.672C124.792 211.627 124.554 210.795 124.08 210.176C123.61 209.557 122.898 209.248 121.944 209.248C121.298 209.248 120.765 209.395 120.344 209.688C119.928 209.976 119.616 210.379 119.408 210.896C119.205 211.408 119.104 212 119.104 212.672C119.104 213.712 119.344 214.547 119.824 215.176C120.304 215.8 121.01 216.112 121.944 216.112ZM134.313 217V212.592C134.313 212.112 134.268 211.672 134.177 211.272C134.087 210.867 133.94 210.515 133.737 210.216C133.54 209.912 133.281 209.677 132.961 209.512C132.647 209.347 132.263 209.264 131.809 209.264C131.393 209.264 131.025 209.336 130.705 209.48C130.391 209.624 130.124 209.832 129.905 210.104C129.692 210.371 129.529 210.696 129.417 211.08C129.305 211.464 129.249 211.901 129.249 212.392L128.417 212.208C128.417 211.323 128.572 210.579 128.881 209.976C129.191 209.373 129.617 208.917 130.161 208.608C130.705 208.299 131.329 208.144 132.033 208.144C132.551 208.144 133.001 208.224 133.385 208.384C133.775 208.544 134.103 208.76 134.369 209.032C134.641 209.304 134.86 209.616 135.025 209.968C135.191 210.315 135.311 210.685 135.385 211.08C135.46 211.469 135.497 211.859 135.497 212.248V217H134.313ZM128.065 217V208.36H129.129V210.488H129.249V217H128.065ZM87.32 251L91.288 239.48H92.848L96.816 251H95.592L91.824 240.136H92.288L88.544 251H87.32ZM89.088 248.208V247.104H95.04V248.208H89.088ZM104.769 251V246.592C104.769 246.112 104.724 245.672 104.633 245.272C104.543 244.867 104.396 244.515 104.193 244.216C103.996 243.912 103.737 243.677 103.417 243.512C103.103 243.347 102.719 243.264 102.265 243.264C101.849 243.264 101.481 243.336 101.161 243.48C100.847 243.624 100.58 243.832 100.361 244.104C100.148 244.371 99.9854 244.696 99.8734 245.08C99.7614 245.464 99.7054 245.901 99.7054 246.392L98.8734 246.208C98.8734 245.323 99.0281 244.579 99.3374 243.976C99.6468 243.373 100.073 242.917 100.617 242.608C101.161 242.299 101.785 242.144 102.489 242.144C103.007 242.144 103.457 242.224 103.841 242.384C104.231 242.544 104.559 242.76 104.825 243.032C105.097 243.304 105.316 243.616 105.481 243.968C105.647 244.315 105.767 244.685 105.841 245.08C105.916 245.469 105.953 245.859 105.953 246.248V251H104.769ZM98.5214 251V242.36H99.5854V244.488H99.7054V251H98.5214ZM108.458 240.72V239.4H109.634V240.72H108.458ZM108.458 251V242.36H109.634V251H108.458ZM122.605 251L122.613 245.328C122.613 244.661 122.427 244.139 122.053 243.76C121.685 243.376 121.216 243.184 120.645 243.184C120.32 243.184 120.003 243.259 119.693 243.408C119.384 243.557 119.128 243.797 118.925 244.128C118.728 244.459 118.629 244.891 118.629 245.424L117.933 245.224C117.917 244.605 118.037 244.064 118.293 243.6C118.555 243.136 118.912 242.776 119.365 242.52C119.824 242.259 120.341 242.128 120.917 242.128C121.787 242.128 122.483 242.397 123.005 242.936C123.528 243.469 123.789 244.192 123.789 245.104L123.781 251H122.605ZM112.293 251V242.36H113.349V244.488H113.477V251H112.293ZM117.461 251L117.469 245.408C117.469 244.72 117.285 244.179 116.917 243.784C116.555 243.384 116.075 243.184 115.477 243.184C114.88 243.184 114.397 243.389 114.029 243.8C113.661 244.205 113.477 244.747 113.477 245.424L112.773 245.04C112.773 244.485 112.904 243.989 113.165 243.552C113.427 243.109 113.784 242.763 114.237 242.512C114.691 242.256 115.205 242.128 115.781 242.128C116.331 242.128 116.819 242.245 117.245 242.48C117.677 242.715 118.016 243.056 118.261 243.504C118.507 243.952 118.629 244.496 118.629 245.136L118.621 251H117.461ZM128.605 251.24C127.954 251.24 127.407 251.123 126.965 250.888C126.527 250.653 126.199 250.341 125.981 249.952C125.762 249.563 125.653 249.139 125.653 248.68C125.653 248.211 125.746 247.811 125.933 247.48C126.125 247.144 126.383 246.869 126.709 246.656C127.039 246.443 127.421 246.28 127.853 246.168C128.29 246.061 128.773 245.968 129.301 245.888C129.834 245.803 130.354 245.731 130.861 245.672C131.373 245.608 131.821 245.547 132.205 245.488L131.789 245.744C131.805 244.891 131.639 244.259 131.293 243.848C130.946 243.437 130.343 243.232 129.485 243.232C128.893 243.232 128.391 243.365 127.981 243.632C127.575 243.899 127.29 244.32 127.125 244.896L125.981 244.56C126.178 243.787 126.575 243.187 127.173 242.76C127.77 242.333 128.546 242.12 129.501 242.12C130.29 242.12 130.959 242.269 131.509 242.568C132.063 242.861 132.455 243.288 132.685 243.848C132.791 244.099 132.861 244.379 132.893 244.688C132.925 244.997 132.941 245.312 132.941 245.632V251H131.893V248.832L132.197 248.96C131.903 249.701 131.447 250.267 130.829 250.656C130.21 251.045 129.469 251.24 128.605 251.24ZM128.741 250.224C129.29 250.224 129.77 250.125 130.181 249.928C130.591 249.731 130.922 249.461 131.173 249.12C131.423 248.773 131.586 248.384 131.661 247.952C131.725 247.675 131.759 247.371 131.765 247.04C131.77 246.704 131.773 246.453 131.773 246.288L132.221 246.52C131.821 246.573 131.386 246.627 130.917 246.68C130.453 246.733 129.994 246.795 129.541 246.864C129.093 246.933 128.687 247.016 128.325 247.112C128.079 247.181 127.842 247.28 127.613 247.408C127.383 247.531 127.194 247.696 127.045 247.904C126.901 248.112 126.829 248.371 126.829 248.68C126.829 248.931 126.89 249.173 127.013 249.408C127.141 249.643 127.343 249.837 127.621 249.992C127.903 250.147 128.277 250.224 128.741 250.224ZM139.996 251C139.511 251.101 139.031 251.141 138.556 251.12C138.087 251.099 137.665 250.997 137.292 250.816C136.924 250.635 136.644 250.352 136.452 249.968C136.297 249.648 136.212 249.325 136.196 249C136.185 248.669 136.18 248.293 136.18 247.872V239.96H137.348V247.824C137.348 248.187 137.351 248.491 137.356 248.736C137.367 248.976 137.423 249.189 137.524 249.376C137.716 249.733 138.02 249.947 138.436 250.016C138.857 250.085 139.377 250.069 139.996 249.968V251ZM134.332 243.368V242.36H139.996V243.368H134.332ZM142.127 240.72V239.4H143.303V240.72H142.127ZM142.127 251V242.36H143.303V251H142.127ZM149.578 251.24C148.72 251.24 147.986 251.045 147.378 250.656C146.77 250.267 146.304 249.728 145.978 249.04C145.653 248.352 145.49 247.563 145.49 246.672C145.49 245.765 145.656 244.971 145.986 244.288C146.317 243.605 146.786 243.075 147.394 242.696C148.008 242.312 148.736 242.12 149.578 242.12C150.442 242.12 151.178 242.315 151.786 242.704C152.4 243.088 152.866 243.624 153.186 244.312C153.512 244.995 153.674 245.781 153.674 246.672C153.674 247.579 153.512 248.376 153.186 249.064C152.861 249.747 152.392 250.28 151.778 250.664C151.165 251.048 150.432 251.24 149.578 251.24ZM149.578 250.112C150.538 250.112 151.253 249.795 151.722 249.16C152.192 248.52 152.426 247.691 152.426 246.672C152.426 245.627 152.189 244.795 151.714 244.176C151.245 243.557 150.533 243.248 149.578 243.248C148.933 243.248 148.4 243.395 147.978 243.688C147.562 243.976 147.25 244.379 147.042 244.896C146.84 245.408 146.738 246 146.738 246.672C146.738 247.712 146.978 248.547 147.458 249.176C147.938 249.8 148.645 250.112 149.578 250.112ZM161.948 251V246.592C161.948 246.112 161.903 245.672 161.812 245.272C161.721 244.867 161.575 244.515 161.372 244.216C161.175 243.912 160.916 243.677 160.596 243.512C160.281 243.347 159.897 243.264 159.444 243.264C159.028 243.264 158.66 243.336 158.34 243.48C158.025 243.624 157.759 243.832 157.54 244.104C157.327 244.371 157.164 244.696 157.052 245.08C156.94 245.464 156.884 245.901 156.884 246.392L156.052 246.208C156.052 245.323 156.207 244.579 156.516 243.976C156.825 243.373 157.252 242.917 157.796 242.608C158.34 242.299 158.964 242.144 159.668 242.144C160.185 242.144 160.636 242.224 161.02 242.384C161.409 242.544 161.737 242.76 162.004 243.032C162.276 243.304 162.495 243.616 162.66 243.968C162.825 244.315 162.945 244.685 163.02 245.08C163.095 245.469 163.132 245.859 163.132 246.248V251H161.948ZM155.7 251V242.36H156.764V244.488H156.884V251H155.7ZM88.12 285V273.48H92.648C93.3787 273.48 93.992 273.629 94.488 273.928C94.984 274.227 95.3573 274.613 95.608 275.088C95.8587 275.557 95.984 276.053 95.984 276.576C95.984 277.211 95.8267 277.755 95.512 278.208C95.2027 278.661 94.784 278.971 94.256 279.136L94.24 278.744C94.976 278.925 95.5413 279.28 95.936 279.808C96.3307 280.331 96.528 280.941 96.528 281.64C96.528 282.317 96.392 282.907 96.12 283.408C95.8533 283.909 95.4613 284.301 94.944 284.584C94.432 284.861 93.8107 285 93.08 285H88.12ZM89.816 283.408H92.824C93.2027 283.408 93.5413 283.336 93.84 283.192C94.144 283.048 94.3813 282.843 94.552 282.576C94.728 282.304 94.816 281.981 94.816 281.608C94.816 281.261 94.7387 280.949 94.584 280.672C94.4347 280.389 94.216 280.168 93.928 280.008C93.6453 279.843 93.312 279.76 92.928 279.76H89.816V283.408ZM89.816 278.184H92.624C92.9333 278.184 93.2107 278.123 93.456 278C93.7067 277.872 93.904 277.691 94.048 277.456C94.1973 277.216 94.272 276.928 94.272 276.592C94.272 276.144 94.1227 275.776 93.824 275.488C93.5253 275.2 93.1253 275.056 92.624 275.056H89.816V278.184ZM98.5488 274.944V273.32H100.221V274.944H98.5488ZM98.5488 285V276.36H100.221V285H98.5488ZM106.644 285.24C105.78 285.24 105.031 285.045 104.396 284.656C103.761 284.267 103.271 283.731 102.924 283.048C102.583 282.36 102.412 281.568 102.412 280.672C102.412 279.771 102.588 278.979 102.94 278.296C103.292 277.608 103.785 277.075 104.42 276.696C105.055 276.312 105.796 276.12 106.644 276.12C107.508 276.12 108.257 276.315 108.892 276.704C109.527 277.093 110.017 277.629 110.364 278.312C110.711 278.995 110.884 279.781 110.884 280.672C110.884 281.573 110.708 282.368 110.356 283.056C110.009 283.739 109.519 284.275 108.884 284.664C108.249 285.048 107.503 285.24 106.644 285.24ZM106.644 283.664C107.471 283.664 108.087 283.387 108.492 282.832C108.903 282.272 109.108 281.552 109.108 280.672C109.108 279.771 108.9 279.051 108.484 278.512C108.073 277.968 107.46 277.696 106.644 277.696C106.084 277.696 105.623 277.824 105.26 278.08C104.897 278.331 104.628 278.68 104.452 279.128C104.276 279.571 104.188 280.085 104.188 280.672C104.188 281.579 104.396 282.304 104.812 282.848C105.228 283.392 105.839 283.664 106.644 283.664ZM116.471 289.08C116.007 289.08 115.556 289.008 115.119 288.864C114.687 288.72 114.292 288.507 113.935 288.224C113.577 287.947 113.281 287.603 113.047 287.192L114.591 286.408C114.777 286.776 115.044 287.045 115.391 287.216C115.737 287.387 116.103 287.472 116.487 287.472C116.961 287.472 117.367 287.387 117.703 287.216C118.039 287.051 118.292 286.8 118.463 286.464C118.639 286.128 118.724 285.712 118.719 285.216V282.8H118.919V276.36H120.399V285.232C120.399 285.461 120.391 285.68 120.375 285.888C120.359 286.096 120.329 286.304 120.287 286.512C120.164 287.093 119.929 287.573 119.583 287.952C119.241 288.331 118.804 288.613 118.271 288.8C117.743 288.987 117.143 289.08 116.471 289.08ZM116.343 285.24C115.537 285.24 114.841 285.04 114.255 284.64C113.673 284.24 113.223 283.696 112.903 283.008C112.588 282.315 112.431 281.536 112.431 280.672C112.431 279.803 112.591 279.027 112.911 278.344C113.231 277.656 113.684 277.115 114.271 276.72C114.863 276.32 115.564 276.12 116.375 276.12C117.191 276.12 117.876 276.32 118.431 276.72C118.991 277.115 119.412 277.656 119.695 278.344C119.983 279.032 120.127 279.808 120.127 280.672C120.127 281.536 119.983 282.312 119.695 283C119.407 283.688 118.983 284.235 118.423 284.64C117.863 285.04 117.169 285.24 116.343 285.24ZM116.575 283.728C117.124 283.728 117.572 283.597 117.919 283.336C118.265 283.075 118.519 282.715 118.679 282.256C118.839 281.797 118.919 281.269 118.919 280.672C118.919 280.075 118.836 279.547 118.671 279.088C118.511 278.629 118.26 278.272 117.919 278.016C117.583 277.76 117.153 277.632 116.631 277.632C116.076 277.632 115.62 277.768 115.263 278.04C114.905 278.312 114.639 278.677 114.463 279.136C114.292 279.595 114.207 280.107 114.207 280.672C114.207 281.243 114.292 281.76 114.463 282.224C114.639 282.683 114.9 283.048 115.247 283.32C115.599 283.592 116.041 283.728 116.575 283.728ZM122.914 285V276.36H124.402V278.456L124.194 278.184C124.301 277.907 124.439 277.653 124.61 277.424C124.781 277.189 124.978 276.997 125.202 276.848C125.421 276.688 125.663 276.565 125.93 276.48C126.202 276.389 126.479 276.336 126.762 276.32C127.045 276.299 127.317 276.312 127.578 276.36V277.928C127.295 277.853 126.981 277.832 126.634 277.864C126.293 277.896 125.978 278.005 125.69 278.192C125.418 278.368 125.202 278.581 125.042 278.832C124.887 279.083 124.775 279.363 124.706 279.672C124.637 279.976 124.602 280.299 124.602 280.64V285H122.914ZM131.56 285.24C130.92 285.24 130.384 285.123 129.952 284.888C129.52 284.648 129.192 284.333 128.968 283.944C128.75 283.549 128.64 283.117 128.64 282.648C128.64 282.211 128.718 281.827 128.872 281.496C129.027 281.165 129.256 280.885 129.56 280.656C129.864 280.421 130.238 280.232 130.68 280.088C131.064 279.976 131.499 279.877 131.984 279.792C132.47 279.707 132.979 279.627 133.512 279.552C134.051 279.477 134.584 279.403 135.112 279.328L134.504 279.664C134.515 278.987 134.371 278.485 134.072 278.16C133.779 277.829 133.272 277.664 132.552 277.664C132.099 277.664 131.683 277.771 131.304 277.984C130.926 278.192 130.662 278.539 130.512 279.024L128.952 278.544C129.166 277.803 129.571 277.213 130.168 276.776C130.771 276.339 131.571 276.12 132.568 276.12C133.342 276.12 134.014 276.253 134.584 276.52C135.16 276.781 135.582 277.197 135.848 277.768C135.987 278.051 136.072 278.349 136.104 278.664C136.136 278.979 136.152 279.317 136.152 279.68V285H134.672V283.024L134.96 283.28C134.603 283.941 134.147 284.435 133.592 284.76C133.043 285.08 132.366 285.24 131.56 285.24ZM131.856 283.872C132.331 283.872 132.739 283.789 133.08 283.624C133.422 283.453 133.696 283.237 133.904 282.976C134.112 282.715 134.248 282.443 134.312 282.16C134.403 281.904 134.454 281.616 134.464 281.296C134.48 280.976 134.488 280.72 134.488 280.528L135.032 280.728C134.504 280.808 134.024 280.88 133.592 280.944C133.16 281.008 132.768 281.072 132.416 281.136C132.07 281.195 131.76 281.267 131.488 281.352C131.259 281.432 131.054 281.528 130.872 281.64C130.696 281.752 130.555 281.888 130.448 282.048C130.347 282.208 130.296 282.403 130.296 282.632C130.296 282.856 130.352 283.064 130.464 283.256C130.576 283.443 130.747 283.592 130.976 283.704C131.206 283.816 131.499 283.872 131.856 283.872ZM142.554 285.24C141.728 285.24 141.034 285.04 140.474 284.64C139.914 284.235 139.49 283.688 139.202 283C138.914 282.312 138.77 281.536 138.77 280.672C138.77 279.808 138.912 279.032 139.194 278.344C139.482 277.656 139.904 277.115 140.458 276.72C141.018 276.32 141.706 276.12 142.522 276.12C143.333 276.12 144.032 276.32 144.618 276.72C145.21 277.115 145.666 277.656 145.986 278.344C146.306 279.027 146.466 279.803 146.466 280.672C146.466 281.536 146.306 282.315 145.986 283.008C145.672 283.696 145.221 284.24 144.634 284.64C144.053 285.04 143.36 285.24 142.554 285.24ZM138.49 288.84V276.36H139.978V282.576H140.17V288.84H138.49ZM142.322 283.728C142.856 283.728 143.296 283.592 143.642 283.32C143.994 283.048 144.256 282.683 144.426 282.224C144.602 281.76 144.69 281.243 144.69 280.672C144.69 280.107 144.602 279.595 144.426 279.136C144.256 278.677 143.992 278.312 143.634 278.04C143.277 277.768 142.821 277.632 142.266 277.632C141.744 277.632 141.312 277.76 140.97 278.016C140.634 278.272 140.384 278.629 140.218 279.088C140.058 279.547 139.978 280.075 139.978 280.672C139.978 281.269 140.058 281.797 140.218 282.256C140.378 282.715 140.632 283.075 140.978 283.336C141.325 283.597 141.773 283.728 142.322 283.728ZM154.566 285V280.752C154.566 280.416 154.536 280.072 154.478 279.72C154.424 279.363 154.318 279.032 154.158 278.728C154.003 278.424 153.782 278.179 153.494 277.992C153.211 277.805 152.84 277.712 152.382 277.712C152.083 277.712 151.8 277.763 151.534 277.864C151.267 277.96 151.032 278.117 150.83 278.336C150.632 278.555 150.475 278.843 150.358 279.2C150.246 279.557 150.19 279.992 150.19 280.504L149.15 280.112C149.15 279.328 149.296 278.637 149.59 278.04C149.883 277.437 150.304 276.968 150.854 276.632C151.403 276.296 152.067 276.128 152.846 276.128C153.443 276.128 153.944 276.224 154.35 276.416C154.755 276.608 155.083 276.861 155.334 277.176C155.59 277.485 155.784 277.824 155.918 278.192C156.051 278.56 156.142 278.92 156.19 279.272C156.238 279.624 156.262 279.933 156.262 280.2V285H154.566ZM148.494 285V273.48H149.99V279.696H150.19V285H148.494ZM159.782 288.84L161.454 284.288L161.478 285.632L157.71 276.36H159.454L162.27 283.52H161.758L164.446 276.36H166.142L161.374 288.84H159.782ZM92.784 319.24C91.6373 319.24 90.6693 318.987 89.88 318.48C89.0907 317.968 88.4933 317.261 88.088 316.36C87.6827 315.459 87.48 314.419 87.48 313.24C87.48 312.061 87.6827 311.021 88.088 310.12C88.4933 309.219 89.0907 308.515 89.88 308.008C90.6693 307.496 91.6373 307.24 92.784 307.24C94.1227 307.24 95.216 307.584 96.064 308.272C96.912 308.955 97.4933 309.872 97.808 311.024L96.608 311.336C96.3627 310.424 95.9227 309.701 95.288 309.168C94.6533 308.635 93.8187 308.368 92.784 308.368C91.8827 308.368 91.1333 308.573 90.536 308.984C89.9387 309.395 89.488 309.968 89.184 310.704C88.8853 311.435 88.7307 312.28 88.72 313.24C88.7147 314.2 88.8613 315.045 89.16 315.776C89.464 316.507 89.9173 317.08 90.52 317.496C91.128 317.907 91.8827 318.112 92.784 318.112C93.8187 318.112 94.6533 317.845 95.288 317.312C95.9227 316.773 96.3627 316.051 96.608 315.144L97.808 315.456C97.4933 316.608 96.912 317.528 96.064 318.216C95.216 318.899 94.1227 319.24 92.784 319.24ZM103.45 319.24C102.591 319.24 101.858 319.045 101.25 318.656C100.642 318.267 100.175 317.728 99.8499 317.04C99.5246 316.352 99.3619 315.563 99.3619 314.672C99.3619 313.765 99.5273 312.971 99.8579 312.288C100.189 311.605 100.658 311.075 101.266 310.696C101.879 310.312 102.607 310.12 103.45 310.12C104.314 310.12 105.05 310.315 105.658 310.704C106.271 311.088 106.738 311.624 107.058 312.312C107.383 312.995 107.546 313.781 107.546 314.672C107.546 315.579 107.383 316.376 107.058 317.064C106.733 317.747 106.263 318.28 105.65 318.664C105.037 319.048 104.303 319.24 103.45 319.24ZM103.45 318.112C104.41 318.112 105.125 317.795 105.594 317.16C106.063 316.52 106.298 315.691 106.298 314.672C106.298 313.627 106.061 312.795 105.586 312.176C105.117 311.557 104.405 311.248 103.45 311.248C102.805 311.248 102.271 311.395 101.85 311.688C101.434 311.976 101.122 312.379 100.914 312.896C100.711 313.408 100.61 314 100.61 314.672C100.61 315.712 100.85 316.547 101.33 317.176C101.81 317.8 102.517 318.112 103.45 318.112ZM119.883 319L119.891 313.328C119.891 312.661 119.705 312.139 119.331 311.76C118.963 311.376 118.494 311.184 117.923 311.184C117.598 311.184 117.281 311.259 116.971 311.408C116.662 311.557 116.406 311.797 116.203 312.128C116.006 312.459 115.907 312.891 115.907 313.424L115.211 313.224C115.195 312.605 115.315 312.064 115.571 311.6C115.833 311.136 116.19 310.776 116.643 310.52C117.102 310.259 117.619 310.128 118.195 310.128C119.065 310.128 119.761 310.397 120.283 310.936C120.806 311.469 121.067 312.192 121.067 313.104L121.059 319H119.883ZM109.571 319V310.36H110.627V312.488H110.755V319H109.571ZM114.739 319L114.747 313.408C114.747 312.72 114.563 312.179 114.195 311.784C113.833 311.384 113.353 311.184 112.755 311.184C112.158 311.184 111.675 311.389 111.307 311.8C110.939 312.205 110.755 312.747 110.755 313.424L110.051 313.04C110.051 312.485 110.182 311.989 110.443 311.552C110.705 311.109 111.062 310.763 111.515 310.512C111.969 310.256 112.483 310.128 113.059 310.128C113.609 310.128 114.097 310.245 114.523 310.48C114.955 310.715 115.294 311.056 115.539 311.504C115.785 311.952 115.907 312.496 115.907 313.136L115.899 319H114.739ZM127.02 319.24C126.177 319.24 125.447 319.053 124.828 318.68C124.215 318.307 123.737 317.781 123.396 317.104C123.055 316.427 122.884 315.632 122.884 314.72C122.884 313.776 123.052 312.96 123.388 312.272C123.724 311.584 124.196 311.053 124.804 310.68C125.417 310.307 126.14 310.12 126.972 310.12C127.825 310.12 128.553 310.317 129.156 310.712C129.759 311.101 130.215 311.661 130.524 312.392C130.833 313.123 130.975 313.995 130.948 315.008H129.748V314.592C129.727 313.472 129.484 312.627 129.02 312.056C128.561 311.485 127.889 311.2 127.004 311.2C126.076 311.2 125.364 311.501 124.868 312.104C124.377 312.707 124.132 313.565 124.132 314.68C124.132 315.768 124.377 316.613 124.868 317.216C125.364 317.813 126.065 318.112 126.972 318.112C127.591 318.112 128.129 317.971 128.588 317.688C129.052 317.4 129.417 316.987 129.684 316.448L130.78 316.872C130.439 317.624 129.935 318.208 129.268 318.624C128.607 319.035 127.857 319.24 127.02 319.24ZM123.716 315.008V314.024H130.316V315.008H123.716ZM136.344 319.24C135.539 319.24 134.851 319.04 134.28 318.64C133.709 318.235 133.272 317.688 132.968 317C132.664 316.312 132.512 315.536 132.512 314.672C132.512 313.813 132.661 313.04 132.96 312.352C133.264 311.664 133.699 311.12 134.264 310.72C134.829 310.32 135.507 310.12 136.296 310.12C137.107 310.12 137.789 310.317 138.344 310.712C138.899 311.107 139.317 311.648 139.6 312.336C139.888 313.019 140.032 313.797 140.032 314.672C140.032 315.531 139.891 316.307 139.608 317C139.325 317.688 138.909 318.235 138.36 318.64C137.811 319.04 137.139 319.24 136.344 319.24ZM136.464 318.144C137.077 318.144 137.584 317.995 137.984 317.696C138.384 317.397 138.683 316.987 138.88 316.464C139.077 315.936 139.176 315.339 139.176 314.672C139.176 313.995 139.077 313.397 138.88 312.88C138.683 312.357 138.384 311.949 137.984 311.656C137.589 311.363 137.091 311.216 136.488 311.216C135.869 311.216 135.357 311.368 134.952 311.672C134.547 311.976 134.245 312.389 134.048 312.912C133.856 313.435 133.76 314.021 133.76 314.672C133.76 315.328 133.859 315.92 134.056 316.448C134.259 316.971 134.56 317.384 134.96 317.688C135.36 317.992 135.861 318.144 136.464 318.144ZM139.176 319V312.496H139.048V307.48H140.232V319H139.176ZM143.977 322.84L145.649 318.304L145.673 319.648L141.889 310.36H143.137L146.241 318.128H145.729L148.593 310.36H149.793L145.153 322.84H143.977ZM92.784 353.24C91.6373 353.24 90.6693 352.987 89.88 352.48C89.0907 351.968 88.4933 351.261 88.088 350.36C87.6827 349.459 87.48 348.419 87.48 347.24C87.48 346.061 87.6827 345.021 88.088 344.12C88.4933 343.219 89.0907 342.515 89.88 342.008C90.6693 341.496 91.6373 341.24 92.784 341.24C94.1227 341.24 95.216 341.584 96.064 342.272C96.912 342.955 97.4933 343.872 97.808 345.024L96.608 345.336C96.3627 344.424 95.9227 343.701 95.288 343.168C94.6533 342.635 93.8187 342.368 92.784 342.368C91.8827 342.368 91.1333 342.573 90.536 342.984C89.9387 343.395 89.488 343.968 89.184 344.704C88.8853 345.435 88.7307 346.28 88.72 347.24C88.7147 348.2 88.8613 349.045 89.16 349.776C89.464 350.507 89.9173 351.08 90.52 351.496C91.128 351.907 91.8827 352.112 92.784 352.112C93.8187 352.112 94.6533 351.845 95.288 351.312C95.9227 350.773 96.3627 350.051 96.608 349.144L97.808 349.456C97.4933 350.608 96.912 351.528 96.064 352.216C95.216 352.899 94.1227 353.24 92.784 353.24ZM99.8419 353V344.36H100.898V346.44L100.69 346.168C100.786 345.912 100.911 345.677 101.066 345.464C101.221 345.245 101.389 345.067 101.57 344.928C101.794 344.731 102.055 344.581 102.354 344.48C102.653 344.373 102.954 344.312 103.258 344.296C103.562 344.275 103.839 344.296 104.09 344.36V345.464C103.775 345.384 103.431 345.365 103.058 345.408C102.685 345.451 102.341 345.6 102.026 345.856C101.738 346.08 101.522 346.349 101.378 346.664C101.234 346.973 101.138 347.304 101.09 347.656C101.042 348.003 101.018 348.347 101.018 348.688V353H99.8419ZM106.036 342.72V341.4H107.212V342.72H106.036ZM106.036 353V344.36H107.212V353H106.036ZM120.184 353L120.192 347.328C120.192 346.661 120.005 346.139 119.632 345.76C119.264 345.376 118.794 345.184 118.224 345.184C117.898 345.184 117.581 345.259 117.272 345.408C116.962 345.557 116.706 345.797 116.504 346.128C116.306 346.459 116.208 346.891 116.208 347.424L115.512 347.224C115.496 346.605 115.616 346.064 115.872 345.6C116.133 345.136 116.49 344.776 116.944 344.52C117.402 344.259 117.92 344.128 118.496 344.128C119.365 344.128 120.061 344.397 120.584 344.936C121.106 345.469 121.368 346.192 121.368 347.104L121.36 353H120.184ZM109.872 353V344.36H110.928V346.488H111.056V353H109.872ZM115.04 353L115.048 347.408C115.048 346.72 114.864 346.179 114.496 345.784C114.133 345.384 113.653 345.184 113.056 345.184C112.458 345.184 111.976 345.389 111.608 345.8C111.24 346.205 111.056 346.747 111.056 347.424L110.352 347.04C110.352 346.485 110.482 345.989 110.744 345.552C111.005 345.109 111.362 344.763 111.816 344.512C112.269 344.256 112.784 344.128 113.36 344.128C113.909 344.128 114.397 344.245 114.824 344.48C115.256 344.715 115.594 345.056 115.84 345.504C116.085 345.952 116.208 346.496 116.208 347.136L116.2 353H115.04ZM127.32 353.24C126.477 353.24 125.747 353.053 125.128 352.68C124.515 352.307 124.037 351.781 123.696 351.104C123.355 350.427 123.184 349.632 123.184 348.72C123.184 347.776 123.352 346.96 123.688 346.272C124.024 345.584 124.496 345.053 125.104 344.68C125.717 344.307 126.44 344.12 127.272 344.12C128.125 344.12 128.853 344.317 129.456 344.712C130.059 345.101 130.515 345.661 130.824 346.392C131.133 347.123 131.275 347.995 131.248 349.008H130.048V348.592C130.027 347.472 129.784 346.627 129.32 346.056C128.861 345.485 128.189 345.2 127.304 345.2C126.376 345.2 125.664 345.501 125.168 346.104C124.677 346.707 124.432 347.565 124.432 348.68C124.432 349.768 124.677 350.613 125.168 351.216C125.664 351.813 126.365 352.112 127.272 352.112C127.891 352.112 128.429 351.971 128.888 351.688C129.352 351.4 129.717 350.987 129.984 350.448L131.08 350.872C130.739 351.624 130.235 352.208 129.568 352.624C128.907 353.035 128.157 353.24 127.32 353.24ZM124.016 349.008V348.024H130.616V349.008H124.016ZM88.12 387V375.48H91.616C91.7387 375.48 91.9467 375.483 92.24 375.488C92.5387 375.493 92.824 375.515 93.096 375.552C93.9707 375.675 94.7013 376 95.288 376.528C95.8747 377.056 96.3147 377.728 96.608 378.544C96.9013 379.36 97.048 380.259 97.048 381.24C97.048 382.221 96.9013 383.12 96.608 383.936C96.3147 384.752 95.8747 385.424 95.288 385.952C94.7013 386.48 93.9707 386.805 93.096 386.928C92.8293 386.96 92.544 386.981 92.24 386.992C91.936 386.997 91.728 387 91.616 387H88.12ZM89.336 385.872H91.616C91.8347 385.872 92.0693 385.867 92.32 385.856C92.576 385.84 92.7947 385.813 92.976 385.776C93.648 385.659 94.1893 385.387 94.6 384.96C95.016 384.533 95.32 384 95.512 383.36C95.704 382.715 95.8 382.008 95.8 381.24C95.8 380.467 95.704 379.757 95.512 379.112C95.32 378.467 95.016 377.933 94.6 377.512C94.184 377.091 93.6427 376.821 92.976 376.704C92.7947 376.667 92.5733 376.643 92.312 376.632C92.056 376.616 91.824 376.608 91.616 376.608H89.336V385.872ZM102.747 387.24C101.888 387.24 101.155 387.045 100.547 386.656C99.9388 386.267 99.4721 385.728 99.1468 385.04C98.8215 384.352 98.6588 383.563 98.6588 382.672C98.6588 381.765 98.8241 380.971 99.1548 380.288C99.4855 379.605 99.9548 379.075 100.563 378.696C101.176 378.312 101.904 378.12 102.747 378.12C103.611 378.12 104.347 378.315 104.955 378.704C105.568 379.088 106.035 379.624 106.355 380.312C106.68 380.995 106.843 381.781 106.843 382.672C106.843 383.579 106.68 384.376 106.355 385.064C106.029 385.747 105.56 386.28 104.947 386.664C104.333 387.048 103.6 387.24 102.747 387.24ZM102.747 386.112C103.707 386.112 104.421 385.795 104.891 385.16C105.36 384.52 105.595 383.691 105.595 382.672C105.595 381.627 105.357 380.795 104.883 380.176C104.413 379.557 103.701 379.248 102.747 379.248C102.101 379.248 101.568 379.395 101.147 379.688C100.731 379.976 100.419 380.379 100.211 380.896C100.008 381.408 99.9068 382 99.9068 382.672C99.9068 383.712 100.147 384.547 100.627 385.176C101.107 385.8 101.813 386.112 102.747 386.112ZM112.46 387.24C111.591 387.24 110.855 387.045 110.252 386.656C109.65 386.267 109.191 385.731 108.876 385.048C108.567 384.36 108.407 383.571 108.396 382.68C108.407 381.773 108.572 380.979 108.892 380.296C109.212 379.608 109.674 379.075 110.276 378.696C110.879 378.312 111.61 378.12 112.468 378.12C113.343 378.12 114.103 378.333 114.748 378.76C115.399 379.187 115.844 379.771 116.084 380.512L114.932 380.88C114.73 380.363 114.407 379.963 113.964 379.68C113.527 379.392 113.026 379.248 112.46 379.248C111.826 379.248 111.3 379.395 110.884 379.688C110.468 379.976 110.159 380.379 109.956 380.896C109.754 381.413 109.65 382.008 109.644 382.68C109.655 383.715 109.895 384.547 110.364 385.176C110.834 385.8 111.532 386.112 112.46 386.112C113.047 386.112 113.546 385.979 113.956 385.712C114.372 385.44 114.687 385.045 114.9 384.528L116.084 384.88C115.764 385.648 115.295 386.235 114.676 386.64C114.058 387.04 113.319 387.24 112.46 387.24ZM121.309 387.216C120.791 387.216 120.338 387.136 119.949 386.976C119.565 386.816 119.237 386.6 118.965 386.328C118.698 386.056 118.482 385.747 118.317 385.4C118.151 385.048 118.031 384.677 117.957 384.288C117.882 383.893 117.845 383.501 117.845 383.112V378.36H119.029V382.768C119.029 383.243 119.074 383.683 119.165 384.088C119.255 384.493 119.399 384.848 119.597 385.152C119.799 385.451 120.058 385.683 120.373 385.848C120.693 386.013 121.079 386.096 121.533 386.096C121.949 386.096 122.314 386.024 122.629 385.88C122.949 385.736 123.215 385.531 123.429 385.264C123.647 384.992 123.813 384.664 123.925 384.28C124.037 383.891 124.093 383.453 124.093 382.968L124.925 383.152C124.925 384.037 124.77 384.781 124.461 385.384C124.151 385.987 123.725 386.443 123.181 386.752C122.637 387.061 122.013 387.216 121.309 387.216ZM124.213 387V384.872H124.093V378.36H125.269V387H124.213ZM138.077 387L138.085 381.328C138.085 380.661 137.899 380.139 137.525 379.76C137.157 379.376 136.688 379.184 136.117 379.184C135.792 379.184 135.475 379.259 135.165 379.408C134.856 379.557 134.6 379.797 134.397 380.128C134.2 380.459 134.101 380.891 134.101 381.424L133.405 381.224C133.389 380.605 133.509 380.064 133.765 379.6C134.027 379.136 134.384 378.776 134.837 378.52C135.296 378.259 135.813 378.128 136.389 378.128C137.259 378.128 137.955 378.397 138.477 378.936C139 379.469 139.261 380.192 139.261 381.104L139.253 387H138.077ZM127.765 387V378.36H128.821V380.488H128.949V387H127.765ZM132.933 387L132.941 381.408C132.941 380.72 132.757 380.179 132.389 379.784C132.027 379.384 131.547 379.184 130.949 379.184C130.352 379.184 129.869 379.389 129.501 379.8C129.133 380.205 128.949 380.747 128.949 381.424L128.245 381.04C128.245 380.485 128.376 379.989 128.637 379.552C128.899 379.109 129.256 378.763 129.709 378.512C130.163 378.256 130.677 378.128 131.253 378.128C131.803 378.128 132.291 378.245 132.717 378.48C133.149 378.715 133.488 379.056 133.733 379.504C133.979 379.952 134.101 380.496 134.101 381.136L134.093 387H132.933ZM145.214 387.24C144.371 387.24 143.64 387.053 143.022 386.68C142.408 386.307 141.931 385.781 141.59 385.104C141.248 384.427 141.078 383.632 141.078 382.72C141.078 381.776 141.246 380.96 141.582 380.272C141.918 379.584 142.39 379.053 142.998 378.68C143.611 378.307 144.334 378.12 145.166 378.12C146.019 378.12 146.747 378.317 147.35 378.712C147.952 379.101 148.408 379.661 148.718 380.392C149.027 381.123 149.168 381.995 149.142 383.008H147.942V382.592C147.92 381.472 147.678 380.627 147.214 380.056C146.755 379.485 146.083 379.2 145.198 379.2C144.27 379.2 143.558 379.501 143.062 380.104C142.571 380.707 142.326 381.565 142.326 382.68C142.326 383.768 142.571 384.613 143.062 385.216C143.558 385.813 144.259 386.112 145.166 386.112C145.784 386.112 146.323 385.971 146.782 385.688C147.246 385.4 147.611 384.987 147.878 384.448L148.974 384.872C148.632 385.624 148.128 386.208 147.462 386.624C146.8 387.035 146.051 387.24 145.214 387.24ZM141.91 383.008V382.024H148.51V383.008H141.91ZM157.192 387V382.592C157.192 382.112 157.146 381.672 157.056 381.272C156.965 380.867 156.818 380.515 156.616 380.216C156.418 379.912 156.16 379.677 155.84 379.512C155.525 379.347 155.141 379.264 154.688 379.264C154.272 379.264 153.904 379.336 153.584 379.48C153.269 379.624 153.002 379.832 152.784 380.104C152.57 380.371 152.408 380.696 152.296 381.08C152.184 381.464 152.128 381.901 152.128 382.392L151.296 382.208C151.296 381.323 151.45 380.579 151.76 379.976C152.069 379.373 152.496 378.917 153.04 378.608C153.584 378.299 154.208 378.144 154.912 378.144C155.429 378.144 155.88 378.224 156.264 378.384C156.653 378.544 156.981 378.76 157.248 379.032C157.52 379.304 157.738 379.616 157.904 379.968C158.069 380.315 158.189 380.685 158.264 381.08C158.338 381.469 158.376 381.859 158.376 382.248V387H157.192ZM150.944 387V378.36H152.008V380.488H152.128V387H150.944ZM165.424 387C164.939 387.101 164.459 387.141 163.984 387.12C163.515 387.099 163.094 386.997 162.72 386.816C162.352 386.635 162.072 386.352 161.88 385.968C161.726 385.648 161.64 385.325 161.624 385C161.614 384.669 161.608 384.293 161.608 383.872V375.96H162.776V383.824C162.776 384.187 162.779 384.491 162.784 384.736C162.795 384.976 162.851 385.189 162.952 385.376C163.144 385.733 163.448 385.947 163.864 386.016C164.286 386.085 164.806 386.069 165.424 385.968V387ZM159.76 379.368V378.36H165.424V379.368H159.76ZM169.867 387.24C169.217 387.24 168.67 387.123 168.227 386.888C167.79 386.653 167.462 386.341 167.243 385.952C167.025 385.563 166.915 385.139 166.915 384.68C166.915 384.211 167.009 383.811 167.195 383.48C167.387 383.144 167.646 382.869 167.971 382.656C168.302 382.443 168.683 382.28 169.115 382.168C169.553 382.061 170.035 381.968 170.563 381.888C171.097 381.803 171.617 381.731 172.123 381.672C172.635 381.608 173.083 381.547 173.467 381.488L173.051 381.744C173.067 380.891 172.902 380.259 172.555 379.848C172.209 379.437 171.606 379.232 170.747 379.232C170.155 379.232 169.654 379.365 169.243 379.632C168.838 379.899 168.553 380.32 168.387 380.896L167.243 380.56C167.441 379.787 167.838 379.187 168.435 378.76C169.033 378.333 169.809 378.12 170.763 378.12C171.553 378.12 172.222 378.269 172.771 378.568C173.326 378.861 173.718 379.288 173.947 379.848C174.054 380.099 174.123 380.379 174.155 380.688C174.187 380.997 174.203 381.312 174.203 381.632V387H173.155V384.832L173.459 384.96C173.166 385.701 172.71 386.267 172.091 386.656C171.473 387.045 170.731 387.24 169.867 387.24ZM170.003 386.224C170.553 386.224 171.033 386.125 171.443 385.928C171.854 385.731 172.185 385.461 172.435 385.12C172.686 384.773 172.849 384.384 172.923 383.952C172.987 383.675 173.022 383.371 173.027 383.04C173.033 382.704 173.035 382.453 173.035 382.288L173.483 382.52C173.083 382.573 172.649 382.627 172.179 382.68C171.715 382.733 171.257 382.795 170.803 382.864C170.355 382.933 169.95 383.016 169.587 383.112C169.342 383.181 169.105 383.28 168.875 383.408C168.646 383.531 168.457 383.696 168.307 383.904C168.163 384.112 168.091 384.371 168.091 384.68C168.091 384.931 168.153 385.173 168.275 385.408C168.403 385.643 168.606 385.837 168.883 385.992C169.166 386.147 169.539 386.224 170.003 386.224ZM176.555 387V378.36H177.611V380.44L177.403 380.168C177.499 379.912 177.624 379.677 177.779 379.464C177.933 379.245 178.101 379.067 178.283 378.928C178.507 378.731 178.768 378.581 179.067 378.48C179.365 378.373 179.667 378.312 179.971 378.296C180.275 378.275 180.552 378.296 180.803 378.36V379.464C180.488 379.384 180.144 379.365 179.771 379.408C179.397 379.451 179.053 379.6 178.739 379.856C178.451 380.08 178.235 380.349 178.091 380.664C177.947 380.973 177.851 381.304 177.803 381.656C177.755 382.003 177.731 382.347 177.731 382.688V387H176.555ZM183.712 390.84L185.384 386.304L185.408 387.648L181.624 378.36H182.872L185.976 386.128H185.464L188.328 378.36H189.528L184.888 390.84H183.712Z" fill="black"></path> </g> </g> <line x1="43" y1="185.5" x2="241" y2="185.5" stroke="#E0E0E0"></line> <path fill-rule="evenodd" clip-rule="evenodd" d="M53.833 205.667C53.833 203.826 55.3254 202.333 57.1663 202.333H68.833C70.674 202.333 72.1663 203.826 72.1663 205.667V217.333C72.1663 219.174 70.674 220.667 68.833 220.667H57.1663C55.3254 220.667 53.833 219.174 53.833 217.333V205.667ZM57.1663 204H68.833C69.7535 204 70.4997 204.746 70.4997 205.667V217.333C70.4997 218.254 69.7535 219 68.833 219H57.1663C56.2459 219 55.4997 218.254 55.4997 217.333V205.667C55.4997 204.746 56.2459 204 57.1663 204Z" fill="#A1A1A1"></path> <path fill-rule="evenodd" clip-rule="evenodd" d="M53.833 83.6667C53.833 81.8257 55.3254 80.3333 57.1663 80.3333H68.833C70.674 80.3333 72.1663 81.8257 72.1663 83.6667V95.3333C72.1663 97.1743 70.674 98.6667 68.833 98.6667H57.1663C55.3254 98.6667 53.833 97.1743 53.833 95.3333V83.6667ZM57.1663 82H68.833C69.7535 82 70.4997 82.7462 70.4997 83.6667V95.3333C70.4997 96.2538 69.7535 97 68.833 97H57.1663C56.2459 97 55.4997 96.2538 55.4997 95.3333V83.6667C55.4997 82.7462 56.2459 82 57.1663 82Z" fill="#9A0FBF"></path> <path d="M61.4424 93.835C61.2797 93.9977 61.0159 93.9977 60.8532 93.835L56.8118 89.7936C56.6495 89.6313 56.649 89.3683 56.8107 89.2054L57.5291 88.4819C57.6917 88.3182 57.9563 88.3177 58.1194 88.4809L60.8532 91.2146C61.0159 91.3774 61.2797 91.3774 61.4424 91.2146L67.8799 84.7772C68.0431 84.614 68.3077 84.6145 68.4702 84.7782L69.1886 85.5017C69.3503 85.6646 69.3499 85.9276 69.1876 86.0899L61.4424 93.835ZM69.4812 81.1667H56.5182C55.4904 81.1667 54.6663 81.9908 54.6663 83.0185V95.9815C54.6663 96.4726 54.8614 96.9437 55.2087 97.2909C55.556 97.6382 56.0271 97.8333 56.5182 97.8333H69.4812C69.9723 97.8333 70.4433 97.6382 70.7906 97.2909C71.1379 96.9437 71.333 96.4726 71.333 95.9815V83.0185C71.333 81.9908 70.4997 81.1667 69.4812 81.1667Z" fill="#9A0FBF"></path> <path fill-rule="evenodd" clip-rule="evenodd" d="M53.833 117.667C53.833 115.826 55.3254 114.333 57.1663 114.333H68.833C70.674 114.333 72.1663 115.826 72.1663 117.667V129.333C72.1663 131.174 70.674 132.667 68.833 132.667H57.1663C55.3254 132.667 53.833 131.174 53.833 129.333V117.667ZM57.1663 116H68.833C69.7535 116 70.4997 116.746 70.4997 117.667V129.333C70.4997 130.254 69.7535 131 68.833 131H57.1663C56.2459 131 55.4997 130.254 55.4997 129.333V117.667C55.4997 116.746 56.2459 116 57.1663 116Z" fill="#9A0FBF"></path> <path d="M61.4424 127.835C61.2797 127.998 61.0159 127.998 60.8532 127.835L56.8118 123.794C56.6495 123.631 56.649 123.368 56.8107 123.205L57.5291 122.482C57.6917 122.318 57.9563 122.318 58.1194 122.481L60.8532 125.215C61.0159 125.377 61.2797 125.377 61.4424 125.215L67.8799 118.777C68.0431 118.614 68.3077 118.615 68.4702 118.778L69.1886 119.502C69.3503 119.665 69.3499 119.928 69.1876 120.09L61.4424 127.835ZM69.4812 115.167H56.5182C55.4904 115.167 54.6663 115.991 54.6663 117.019V129.981C54.6663 130.473 54.8614 130.944 55.2087 131.291C55.556 131.638 56.0271 131.833 56.5182 131.833H69.4812C69.9723 131.833 70.4433 131.638 70.7906 131.291C71.1379 130.944 71.333 130.473 71.333 129.981V117.019C71.333 115.991 70.4997 115.167 69.4812 115.167Z" fill="#9A0FBF"></path> <path fill-rule="evenodd" clip-rule="evenodd" d="M53.833 151.667C53.833 149.826 55.3254 148.333 57.1663 148.333H68.833C70.674 148.333 72.1663 149.826 72.1663 151.667V163.333C72.1663 165.174 70.674 166.667 68.833 166.667H57.1663C55.3254 166.667 53.833 165.174 53.833 163.333V151.667ZM57.1663 150H68.833C69.7535 150 70.4997 150.746 70.4997 151.667V163.333C70.4997 164.254 69.7535 165 68.833 165H57.1663C56.2459 165 55.4997 164.254 55.4997 163.333V151.667C55.4997 150.746 56.2459 150 57.1663 150Z" fill="#9A0FBF"></path> <path d="M61.4424 161.835C61.2797 161.998 61.0159 161.998 60.8532 161.835L56.8118 157.794C56.6495 157.631 56.649 157.368 56.8107 157.205L57.5291 156.482C57.6917 156.318 57.9563 156.318 58.1194 156.481L60.8532 159.215C61.0159 159.377 61.2797 159.377 61.4424 159.215L67.8799 152.777C68.0431 152.614 68.3077 152.615 68.4702 152.778L69.1886 153.502C69.3503 153.665 69.3499 153.928 69.1876 154.09L61.4424 161.835ZM69.4812 149.167H56.5182C55.4904 149.167 54.6663 149.991 54.6663 151.019V163.981C54.6663 164.473 54.8614 164.944 55.2087 165.291C55.556 165.638 56.0271 165.833 56.5182 165.833H69.4812C69.9723 165.833 70.4433 165.638 70.7906 165.291C71.1379 164.944 71.333 164.473 71.333 163.981V151.019C71.333 149.991 70.4997 149.167 69.4812 149.167Z" fill="#9A0FBF"></path> <path fill-rule="evenodd" clip-rule="evenodd" d="M53.833 239.667C53.833 237.826 55.3254 236.333 57.1663 236.333H68.833C70.674 236.333 72.1663 237.826 72.1663 239.667V251.333C72.1663 253.174 70.674 254.667 68.833 254.667H57.1663C55.3254 254.667 53.833 253.174 53.833 251.333V239.667ZM57.1663 238H68.833C69.7535 238 70.4997 238.746 70.4997 239.667V251.333C70.4997 252.254 69.7535 253 68.833 253H57.1663C56.2459 253 55.4997 252.254 55.4997 251.333V239.667C55.4997 238.746 56.2459 238 57.1663 238Z" fill="#A1A1A1"></path> <path fill-rule="evenodd" clip-rule="evenodd" d="M53.833 273.667C53.833 271.826 55.3254 270.333 57.1663 270.333H68.833C70.674 270.333 72.1663 271.826 72.1663 273.667V285.333C72.1663 287.174 70.674 288.667 68.833 288.667H57.1663C55.3254 288.667 53.833 287.174 53.833 285.333V273.667ZM57.1663 272H68.833C69.7535 272 70.4997 272.746 70.4997 273.667V285.333C70.4997 286.254 69.7535 287 68.833 287H57.1663C56.2459 287 55.4997 286.254 55.4997 285.333V273.667C55.4997 272.746 56.2459 272 57.1663 272Z" fill="#9A0FBF"></path> <path fill-rule="evenodd" clip-rule="evenodd" d="M53.833 307.667C53.833 305.826 55.3254 304.333 57.1663 304.333H68.833C70.674 304.333 72.1663 305.826 72.1663 307.667V319.333C72.1663 321.174 70.674 322.667 68.833 322.667H57.1663C55.3254 322.667 53.833 321.174 53.833 319.333V307.667ZM57.1663 306H68.833C69.7535 306 70.4997 306.746 70.4997 307.667V319.333C70.4997 320.254 69.7535 321 68.833 321H57.1663C56.2459 321 55.4997 320.254 55.4997 319.333V307.667C55.4997 306.746 56.2459 306 57.1663 306Z" fill="#A1A1A1"></path> <path fill-rule="evenodd" clip-rule="evenodd" d="M53.833 341.667C53.833 339.826 55.3254 338.333 57.1663 338.333H68.833C70.674 338.333 72.1663 339.826 72.1663 341.667V353.333C72.1663 355.174 70.674 356.667 68.833 356.667H57.1663C55.3254 356.667 53.833 355.174 53.833 353.333V341.667ZM57.1663 340H68.833C69.7535 340 70.4997 340.746 70.4997 341.667V353.333C70.4997 354.254 69.7535 355 68.833 355H57.1663C56.2459 355 55.4997 354.254 55.4997 353.333V341.667C55.4997 340.746 56.2459 340 57.1663 340Z" fill="#A1A1A1"></path> <g clip-path="url(#clip2_8690_353080)"> <path fill-rule="evenodd" clip-rule="evenodd" d="M53.833 375.667C53.833 373.826 55.3254 372.333 57.1663 372.333H68.833C70.674 372.333 72.1663 373.826 72.1663 375.667V387.333C72.1663 389.174 70.674 390.667 68.833 390.667H57.1663C55.3254 390.667 53.833 389.174 53.833 387.333V375.667ZM57.1663 374H68.833C69.7535 374 70.4997 374.746 70.4997 375.667V387.333C70.4997 388.254 69.7535 389 68.833 389H57.1663C56.2459 389 55.4997 388.254 55.4997 387.333V375.667C55.4997 374.746 56.2459 374 57.1663 374Z" fill="#A1A1A1"></path> </g> <rect opacity="0.5" x="239" y="65" width="6" height="48" rx="3" fill="#A1A1A1"></rect> <g filter="url(#filter3_dd_8690_353080)"> <path d="M146.925 288.632L126.886 283.754L132.071 303.09L136.246 299.53L143.146 304.628L148.111 299.53L142.53 293.026L146.925 288.632Z" fill="black" stroke="black" stroke-width="0.818182"></path> <path d="M149.195 298.736L144.027 293.569L147.756 289.84C148.079 289.517 148.212 289.049 148.107 288.605C148.002 288.16 147.674 287.801 147.241 287.657L126.852 282.183C126.378 282.025 125.855 282.149 125.502 282.502C125.149 282.855 125.026 283.377 125.184 283.851L130.657 304.24C130.802 304.673 131.161 305.001 131.605 305.106C132.05 305.211 132.517 305.078 132.84 304.755L136.569 301.026L141.737 306.194C141.994 306.452 142.332 306.58 142.669 306.58C143.007 306.58 143.344 306.452 143.601 306.194L149.195 300.601C149.71 300.086 149.71 299.251 149.195 298.736ZM142.669 303.397L137.501 298.23C136.987 297.715 136.152 297.715 135.637 298.23L132.484 301.382L128.519 285.519L144.383 289.484L141.23 292.636C140.716 293.151 140.715 293.986 141.23 294.501L146.398 299.669L142.669 303.397Z" fill="white"></path> </g> </g> <defs> <filter id="filter0_dd_8690_353080" x="0" y="42" width="284" height="393" filterUnits="userSpaceOnUse" color-interpolation-filters="sRGB"> <feFlood flood-opacity="0" result="BackgroundImageFix"></feFlood> <feColorMatrix in="SourceAlpha" type="matrix" values="0 0 0 0 0 0 0 0 0 0 0 0 0 0 0 0 0 0 127 0" result="hardAlpha"></feColorMatrix> <feMorphology radius="2" operator="dilate" in="SourceAlpha" result="effect1_dropShadow_8690_353080"></feMorphology> <feOffset dy="16"></feOffset> <feGaussianBlur stdDeviation="16"></feGaussianBlur> <feColorMatrix type="matrix" values="0 0 0 0 0.380392 0 0 0 0 0.380392 0 0 0 0 0.380392 0 0 0 0.06 0"></feColorMatrix> <feBlend mode="multiply" in2="BackgroundImageFix" result="effect1_dropShadow_8690_353080"></feBlend> <feColorMatrix in="SourceAlpha" type="matrix" values="0 0 0 0 0 0 0 0 0 0 0 0 0 0 0 0 0 0 127 0" result="hardAlpha"></feColorMatrix> <feMorphology radius="2" operator="dilate" in="SourceAlpha" result="effect2_dropShadow_8690_353080"></feMorphology> <feOffset dy="8"></feOffset> <feGaussianBlur stdDeviation="8"></feGaussianBlur> <feColorMatrix type="matrix" values="0 0 0 0 0.380392 0 0 0 0 0.380392 0 0 0 0 0.380392 0 0 0 0.06 0"></feColorMatrix> <feBlend mode="multiply" in2="effect1_dropShadow_8690_353080" result="effect2_dropShadow_8690_353080"></feBlend> <feBlend mode="normal" in="SourceGraphic" in2="effect2_dropShadow_8690_353080" result="shape"></feBlend> </filter> <filter id="filter1_d_8690_353080" x="86.1201" y="82.48" width="64.1875" height="83.76" filterUnits="userSpaceOnUse" color-interpolation-filters="sRGB"> <feFlood flood-opacity="0" result="BackgroundImageFix"></feFlood> <feColorMatrix in="SourceAlpha" type="matrix" values="0 0 0 0 0 0 0 0 0 0 0 0 0 0 0 0 0 0 127 0" result="hardAlpha"></feColorMatrix> <feOffset dy="1"></feOffset> <feGaussianBlur stdDeviation="1"></feGaussianBlur> <feComposite in2="hardAlpha" operator="out"></feComposite> <feColorMatrix type="matrix" values="0 0 0 0 1 0 0 0 0 1 0 0 0 0 1 0 0 0 1 0"></feColorMatrix> <feBlend mode="normal" in2="BackgroundImageFix" result="effect1_dropShadow_8690_353080"></feBlend> <feBlend mode="normal" in="SourceGraphic" in2="effect1_dropShadow_8690_353080" result="shape"></feBlend> </filter> <filter id="filter2_d_8690_353080" x="85.3203" y="204.4" width="106.208" height="189.44" filterUnits="userSpaceOnUse" color-interpolation-filters="sRGB"> <feFlood flood-opacity="0" result="BackgroundImageFix"></feFlood> <feColorMatrix in="SourceAlpha" type="matrix" values="0 0 0 0 0 0 0 0 0 0 0 0 0 0 0 0 0 0 127 0" result="hardAlpha"></feColorMatrix> <feOffset dy="1"></feOffset> <feGaussianBlur stdDeviation="1"></feGaussianBlur> <feComposite in2="hardAlpha" operator="out"></feComposite> <feColorMatrix type="matrix" values="0 0 0 0 1 0 0 0 0 1 0 0 0 0 1 0 0 0 1 0"></feColorMatrix> <feBlend mode="normal" in2="BackgroundImageFix" result="effect1_dropShadow_8690_353080"></feBlend> <feBlend mode="normal" in="SourceGraphic" in2="effect1_dropShadow_8690_353080" result="shape"></feBlend> </filter> <filter id="filter3_dd_8690_353080" x="93" y="258" width="77" height="77" filterUnits="userSpaceOnUse" color-interpolation-filters="sRGB"> <feFlood flood-opacity="0" result="BackgroundImageFix"></feFlood> <feColorMatrix in="SourceAlpha" type="matrix" values="0 0 0 0 0 0 0 0 0 0 0 0 0 0 0 0 0 0 127 0" result="hardAlpha"></feColorMatrix> <feOffset dy="8"></feOffset> <feGaussianBlur stdDeviation="8"></feGaussianBlur> <feColorMatrix type="matrix" values="0 0 0 0 0.380392 0 0 0 0 0.380392 0 0 0 0 0.380392 0 0 0 0.14 0"></feColorMatrix> <feBlend mode="multiply" in2="BackgroundImageFix" result="effect1_dropShadow_8690_353080"></feBlend> <feColorMatrix in="SourceAlpha" type="matrix" values="0 0 0 0 0 0 0 0 0 0 0 0 0 0 0 0 0 0 127 0" result="hardAlpha"></feColorMatrix> <feOffset dy="4"></feOffset> <feGaussianBlur stdDeviation="4"></feGaussianBlur> <feColorMatrix type="matrix" values="0 0 0 0 0.380392 0 0 0 0 0.380392 0 0 0 0 0.380392 0 0 0 0.14 0"></feColorMatrix> <feBlend mode="multiply" in2="effect1_dropShadow_8690_353080" result="effect2_dropShadow_8690_353080"></feBlend> <feBlend mode="normal" in="SourceGraphic" in2="effect2_dropShadow_8690_353080" result="shape"></feBlend> </filter> <clipPath id="clip0_8690_353080"> <rect width="284" height="435" fill="white"></rect> </clipPath> <clipPath id="clip1_8690_353080"> <rect width="103" height="190" fill="white" transform="translate(87 194)"></rect> </clipPath> <clipPath id="clip2_8690_353080"> <rect width="20" height="12" fill="white" transform="translate(53 372)"></rect> </clipPath> </defs> </svg> 