<?xml version="1.0" encoding="UTF-8"?> <svg xmlns="http://www.w3.org/2000/svg" width="284" height="337" viewBox="0 0 284 337" fill="none"> <g clip-path="url(#clip0_8687_352869)"> <rect width="284" height="337" fill="white"></rect> <rect x="34.75" y="4.75" width="166.5" height="46.5" rx="9.25" fill="white" stroke="#1F8B24" stroke-width="1.5"></rect> <path d="M58.7279 34.24C57.5812 34.24 56.6132 33.9867 55.8239 33.48C55.0345 32.968 54.4372 32.2613 54.0319 31.36C53.6265 30.4587 53.4239 29.4187 53.4239 28.24C53.4239 27.0613 53.6265 26.0213 54.0319 25.12C54.4372 24.2187 55.0345 23.5147 55.8239 23.008C56.6132 22.496 57.5812 22.24 58.7279 22.24C60.0665 22.24 61.1599 22.584 62.0079 23.272C62.8559 23.9547 63.4372 24.872 63.7519 26.024L62.5519 26.336C62.3065 25.424 61.8665 24.7013 61.2319 24.168C60.5972 23.6347 59.7625 23.368 58.7279 23.368C57.8265 23.368 57.0772 23.5733 56.4799 23.984C55.8825 24.3947 55.4319 24.968 55.1279 25.704C54.8292 26.4347 54.6745 27.28 54.6639 28.24C54.6585 29.2 54.8052 30.0453 55.1039 30.776C55.4079 31.5067 55.8612 32.08 56.4639 32.496C57.0719 32.9067 57.8265 33.112 58.7279 33.112C59.7625 33.112 60.5972 32.8453 61.2319 32.312C61.8665 31.7733 62.3065 31.0507 62.5519 30.144L63.7519 30.456C63.4372 31.608 62.8559 32.528 62.0079 33.216C61.1599 33.8987 60.0665 34.24 58.7279 34.24ZM72.0258 34V29.592C72.0258 29.112 71.9804 28.672 71.8898 28.272C71.7991 27.8667 71.6524 27.5147 71.4498 27.216C71.2524 26.912 70.9938 26.6773 70.6738 26.512C70.3591 26.3467 69.9751 26.264 69.5218 26.264C69.1058 26.264 68.7378 26.336 68.4178 26.48C68.1031 26.624 67.8364 26.832 67.6178 27.104C67.4044 27.3707 67.2418 27.696 67.1298 28.08C67.0178 28.464 66.9618 28.9013 66.9618 29.392L66.1298 29.208C66.1298 28.3227 66.2844 27.5787 66.5938 26.976C66.9031 26.3733 67.3298 25.9173 67.8738 25.608C68.4178 25.2987 69.0418 25.144 69.7458 25.144C70.2631 25.144 70.7138 25.224 71.0978 25.384C71.4871 25.544 71.8151 25.76 72.0818 26.032C72.3538 26.304 72.5724 26.616 72.7378 26.968C72.9031 27.3147 73.0231 27.6853 73.0978 28.08C73.1724 28.4693 73.2098 28.8587 73.2098 29.248V34H72.0258ZM65.7778 34V22.48H66.8418V28.984H66.9618V34H65.7778ZM79.1626 34.24C78.3039 34.24 77.5706 34.0453 76.9626 33.656C76.3546 33.2667 75.8879 32.728 75.5626 32.04C75.2372 31.352 75.0746 30.5627 75.0746 29.672C75.0746 28.7653 75.2399 27.9707 75.5706 27.288C75.9012 26.6053 76.3706 26.0747 76.9786 25.696C77.5919 25.312 78.3199 25.12 79.1626 25.12C80.0266 25.12 80.7626 25.3147 81.3706 25.704C81.9839 26.088 82.4506 26.624 82.7706 27.312C83.0959 27.9947 83.2586 28.7813 83.2586 29.672C83.2586 30.5787 83.0959 31.376 82.7706 32.064C82.4452 32.7467 81.9759 33.28 81.3626 33.664C80.7492 34.048 80.0159 34.24 79.1626 34.24ZM79.1626 33.112C80.1226 33.112 80.8372 32.7947 81.3066 32.16C81.7759 31.52 82.0106 30.6907 82.0106 29.672C82.0106 28.6267 81.7732 27.7947 81.2986 27.176C80.8292 26.5573 80.1172 26.248 79.1626 26.248C78.5172 26.248 77.9839 26.3947 77.5626 26.688C77.1466 26.976 76.8346 27.3787 76.6266 27.896C76.4239 28.408 76.3226 29 76.3226 29.672C76.3226 30.712 76.5626 31.5467 77.0426 32.176C77.5226 32.8 78.2292 33.112 79.1626 33.112ZM88.9001 34.24C88.0415 34.24 87.3081 34.0453 86.7001 33.656C86.0921 33.2667 85.6255 32.728 85.3001 32.04C84.9748 31.352 84.8121 30.5627 84.8121 29.672C84.8121 28.7653 84.9775 27.9707 85.3081 27.288C85.6388 26.6053 86.1081 26.0747 86.7161 25.696C87.3295 25.312 88.0575 25.12 88.9001 25.12C89.7641 25.12 90.5001 25.3147 91.1081 25.704C91.7215 26.088 92.1881 26.624 92.5081 27.312C92.8335 27.9947 92.9961 28.7813 92.9961 29.672C92.9961 30.5787 92.8335 31.376 92.5081 32.064C92.1828 32.7467 91.7135 33.28 91.1001 33.664C90.4868 34.048 89.7535 34.24 88.9001 34.24ZM88.9001 33.112C89.8601 33.112 90.5748 32.7947 91.0441 32.16C91.5135 31.52 91.7481 30.6907 91.7481 29.672C91.7481 28.6267 91.5108 27.7947 91.0361 27.176C90.5668 26.5573 89.8548 26.248 88.9001 26.248C88.2548 26.248 87.7215 26.3947 87.3001 26.688C86.8841 26.976 86.5721 27.3787 86.3641 27.896C86.1615 28.408 86.0601 29 86.0601 29.672C86.0601 30.712 86.3001 31.5467 86.7801 32.176C87.2601 32.8 87.9668 33.112 88.9001 33.112ZM98.1756 34.232C97.1622 34.232 96.3276 34.0133 95.6716 33.576C95.0209 33.1387 94.6209 32.5307 94.4716 31.752L95.6716 31.552C95.7996 32.0427 96.0902 32.4347 96.5436 32.728C97.0022 33.016 97.5676 33.16 98.2396 33.16C98.8956 33.16 99.4129 33.024 99.7916 32.752C100.17 32.4747 100.36 32.0987 100.36 31.624C100.36 31.3573 100.298 31.1413 100.176 30.976C100.058 30.8053 99.8156 30.648 99.4476 30.504C99.0796 30.36 98.5302 30.1893 97.7996 29.992C97.0156 29.7787 96.4022 29.5653 95.9596 29.352C95.5169 29.1387 95.2022 28.8933 95.0156 28.616C94.8289 28.3333 94.7356 27.9893 94.7356 27.584C94.7356 27.0933 94.8742 26.664 95.1516 26.296C95.4289 25.9227 95.8129 25.6347 96.3036 25.432C96.7942 25.224 97.3649 25.12 98.0156 25.12C98.6662 25.12 99.2476 25.2267 99.7596 25.44C100.277 25.648 100.693 25.9413 101.008 26.32C101.322 26.6987 101.509 27.1387 101.568 27.64L100.368 27.856C100.288 27.3493 100.034 26.9493 99.6076 26.656C99.1862 26.3573 98.6502 26.2027 97.9996 26.192C97.3862 26.176 96.8876 26.2933 96.5036 26.544C96.1196 26.7893 95.9276 27.1173 95.9276 27.528C95.9276 27.7573 95.9969 27.9547 96.1356 28.12C96.2742 28.28 96.5249 28.432 96.8876 28.576C97.2556 28.72 97.7782 28.8773 98.4556 29.048C99.2502 29.2507 99.8742 29.464 100.328 29.688C100.781 29.912 101.104 30.176 101.296 30.48C101.488 30.784 101.584 31.16 101.584 31.608C101.584 32.424 101.28 33.0667 100.672 33.536C100.069 34 99.2369 34.232 98.1756 34.232ZM107.283 34.24C106.44 34.24 105.709 34.0533 105.091 33.68C104.477 33.3067 104 32.7813 103.659 32.104C103.317 31.4267 103.147 30.632 103.147 29.72C103.147 28.776 103.315 27.96 103.651 27.272C103.987 26.584 104.459 26.0533 105.067 25.68C105.68 25.3067 106.403 25.12 107.235 25.12C108.088 25.12 108.816 25.3173 109.419 25.712C110.021 26.1013 110.477 26.6613 110.787 27.392C111.096 28.1227 111.237 28.9947 111.211 30.008H110.011V29.592C109.989 28.472 109.747 27.6267 109.283 27.056C108.824 26.4853 108.152 26.2 107.267 26.2C106.339 26.2 105.627 26.5013 105.131 27.104C104.64 27.7067 104.395 28.5653 104.395 29.68C104.395 30.768 104.64 31.6133 105.131 32.216C105.627 32.8133 106.328 33.112 107.235 33.112C107.853 33.112 108.392 32.9707 108.851 32.688C109.315 32.4 109.68 31.9867 109.947 31.448L111.043 31.872C110.701 32.624 110.197 33.208 109.531 33.624C108.869 34.0347 108.12 34.24 107.283 34.24ZM103.979 30.008V29.024H110.579V30.008H103.979ZM122.967 34V29.592C122.967 29.112 122.921 28.672 122.831 28.272C122.74 27.8667 122.593 27.5147 122.391 27.216C122.193 26.912 121.935 26.6773 121.615 26.512C121.3 26.3467 120.916 26.264 120.463 26.264C120.047 26.264 119.679 26.336 119.359 26.48C119.044 26.624 118.777 26.832 118.559 27.104C118.345 27.3707 118.183 27.696 118.071 28.08C117.959 28.464 117.903 28.9013 117.903 29.392L117.071 29.208C117.071 28.3227 117.225 27.5787 117.535 26.976C117.844 26.3733 118.271 25.9173 118.815 25.608C119.359 25.2987 119.983 25.144 120.687 25.144C121.204 25.144 121.655 25.224 122.039 25.384C122.428 25.544 122.756 25.76 123.023 26.032C123.295 26.304 123.513 26.616 123.679 26.968C123.844 27.3147 123.964 27.6853 124.039 28.08C124.113 28.4693 124.151 28.8587 124.151 29.248V34H122.967ZM116.719 34V22.48H117.783V28.984H117.903V34H116.719ZM130.152 34.24C129.309 34.24 128.578 34.0533 127.96 33.68C127.346 33.3067 126.869 32.7813 126.528 32.104C126.186 31.4267 126.016 30.632 126.016 29.72C126.016 28.776 126.184 27.96 126.52 27.272C126.856 26.584 127.328 26.0533 127.936 25.68C128.549 25.3067 129.272 25.12 130.104 25.12C130.957 25.12 131.685 25.3173 132.288 25.712C132.89 26.1013 133.346 26.6613 133.656 27.392C133.965 28.1227 134.106 28.9947 134.08 30.008H132.88V29.592C132.858 28.472 132.616 27.6267 132.152 27.056C131.693 26.4853 131.021 26.2 130.136 26.2C129.208 26.2 128.496 26.5013 128 27.104C127.509 27.7067 127.264 28.5653 127.264 29.68C127.264 30.768 127.509 31.6133 128 32.216C128.496 32.8133 129.197 33.112 130.104 33.112C130.722 33.112 131.261 32.9707 131.72 32.688C132.184 32.4 132.549 31.9867 132.816 31.448L133.912 31.872C133.57 32.624 133.066 33.208 132.4 33.624C131.738 34.0347 130.989 34.24 130.152 34.24ZM126.848 30.008V29.024H133.448V30.008H126.848ZM136.124 34V25.36H137.18V27.44L136.972 27.168C137.068 26.912 137.193 26.6773 137.348 26.464C137.502 26.2453 137.67 26.0667 137.852 25.928C138.076 25.7307 138.337 25.5813 138.636 25.48C138.934 25.3733 139.236 25.312 139.54 25.296C139.844 25.2747 140.121 25.296 140.372 25.36V26.464C140.057 26.384 139.713 26.3653 139.34 26.408C138.966 26.4507 138.622 26.6 138.308 26.856C138.02 27.08 137.804 27.3493 137.66 27.664C137.516 27.9733 137.42 28.304 137.372 28.656C137.324 29.0027 137.3 29.3467 137.3 29.688V34H136.124ZM145.658 34.24C144.815 34.24 144.085 34.0533 143.466 33.68C142.853 33.3067 142.375 32.7813 142.034 32.104C141.693 31.4267 141.522 30.632 141.522 29.72C141.522 28.776 141.69 27.96 142.026 27.272C142.362 26.584 142.834 26.0533 143.442 25.68C144.055 25.3067 144.778 25.12 145.61 25.12C146.463 25.12 147.191 25.3173 147.794 25.712C148.397 26.1013 148.853 26.6613 149.162 27.392C149.471 28.1227 149.613 28.9947 149.586 30.008H148.386V29.592C148.365 28.472 148.122 27.6267 147.658 27.056C147.199 26.4853 146.527 26.2 145.642 26.2C144.714 26.2 144.002 26.5013 143.506 27.104C143.015 27.7067 142.77 28.5653 142.77 29.68C142.77 30.768 143.015 31.6133 143.506 32.216C144.002 32.8133 144.703 33.112 145.61 33.112C146.229 33.112 146.767 32.9707 147.226 32.688C147.69 32.4 148.055 31.9867 148.322 31.448L149.418 31.872C149.077 32.624 148.573 33.208 147.906 33.624C147.245 34.0347 146.495 34.24 145.658 34.24ZM142.354 30.008V29.024H148.954V30.008H142.354ZM152.43 34V32.68H153.606V34H152.43ZM152.43 31.12V22.48H153.606V31.12H152.43Z" fill="black"></path> <path d="M177.616 25.4609C177.816 25.2211 178.184 25.2211 178.384 25.4609L182.317 30.1799C182.588 30.5056 182.356 31 181.932 31L174.068 31C173.644 31 173.412 30.5056 173.683 30.1799L177.616 25.4609Z" fill="#616161"></path> <rect x="32" y="2" width="172" height="52" rx="12" stroke="#B2DBB4" stroke-opacity="0.5" stroke-width="4"></rect> <g filter="url(#filter0_dd_8687_352869)"> <rect x="34" y="60" width="216" height="227" rx="10" fill="white"></rect> <rect x="34.5" y="60.5" width="215" height="226" rx="9.5" stroke="#C0C0C0"></rect> </g> <g filter="url(#filter1_i_8687_352869)"> <rect x="46" y="109" width="192" height="42" rx="6" fill="#E6E6E6" fill-opacity="0.5"></rect> </g> <g filter="url(#filter2_d_8687_352869)"> <path d="M62.12 94V82.48H68.736V83.656H63.296V87.656H67.776V88.824H63.296V94H62.12ZM70.6113 83.72V82.4H71.7873V83.72H70.6113ZM70.6113 94V85.36H71.7873V94H70.6113ZM74.4545 94V85.36H75.5105V87.44L75.3025 87.168C75.3985 86.912 75.5238 86.6773 75.6785 86.464C75.8331 86.2453 76.0011 86.0667 76.1825 85.928C76.4065 85.7307 76.6678 85.5813 76.9665 85.48C77.2651 85.3733 77.5665 85.312 77.8705 85.296C78.1745 85.2747 78.4518 85.296 78.7025 85.36V86.464C78.3878 86.384 78.0438 86.3653 77.6705 86.408C77.2971 86.4507 76.9531 86.6 76.6385 86.856C76.3505 87.08 76.1345 87.3493 75.9905 87.664C75.8465 87.9733 75.7505 88.304 75.7025 88.656C75.6545 89.0027 75.6305 89.3467 75.6305 89.688V94H74.4545ZM83.4004 94.232C82.3871 94.232 81.5524 94.0133 80.8964 93.576C80.2457 93.1387 79.8457 92.5307 79.6964 91.752L80.8964 91.552C81.0244 92.0427 81.3151 92.4347 81.7684 92.728C82.2271 93.016 82.7924 93.16 83.4644 93.16C84.1204 93.16 84.6377 93.024 85.0164 92.752C85.3951 92.4747 85.5844 92.0987 85.5844 91.624C85.5844 91.3573 85.5231 91.1413 85.4004 90.976C85.2831 90.8053 85.0404 90.648 84.6724 90.504C84.3044 90.36 83.7551 90.1893 83.0244 89.992C82.2404 89.7787 81.6271 89.5653 81.1844 89.352C80.7417 89.1387 80.4271 88.8933 80.2404 88.616C80.0537 88.3333 79.9604 87.9893 79.9604 87.584C79.9604 87.0933 80.0991 86.664 80.3764 86.296C80.6537 85.9227 81.0377 85.6347 81.5284 85.432C82.0191 85.224 82.5897 85.12 83.2404 85.12C83.8911 85.12 84.4724 85.2267 84.9844 85.44C85.5017 85.648 85.9177 85.9413 86.2324 86.32C86.5471 86.6987 86.7337 87.1387 86.7924 87.64L85.5924 87.856C85.5124 87.3493 85.2591 86.9493 84.8324 86.656C84.4111 86.3573 83.8751 86.2027 83.2244 86.192C82.6111 86.176 82.1124 86.2933 81.7284 86.544C81.3444 86.7893 81.1524 87.1173 81.1524 87.528C81.1524 87.7573 81.2217 87.9547 81.3604 88.12C81.4991 88.28 81.7497 88.432 82.1124 88.576C82.4804 88.72 83.0031 88.8773 83.6804 89.048C84.4751 89.2507 85.0991 89.464 85.5524 89.688C86.0057 89.912 86.3284 90.176 86.5204 90.48C86.7124 90.784 86.8084 91.16 86.8084 91.608C86.8084 92.424 86.5044 93.0667 85.8964 93.536C85.2937 94 84.4617 94.232 83.4004 94.232ZM93.5554 94C93.0701 94.1013 92.5901 94.1413 92.1154 94.12C91.6461 94.0987 91.2248 93.9973 90.8514 93.816C90.4834 93.6347 90.2034 93.352 90.0114 92.968C89.8568 92.648 89.7714 92.3253 89.7554 92C89.7448 91.6693 89.7394 91.2933 89.7394 90.872V82.96H90.9074V90.824C90.9074 91.1867 90.9101 91.4907 90.9154 91.736C90.9261 91.976 90.9821 92.1893 91.0834 92.376C91.2754 92.7333 91.5794 92.9467 91.9954 93.016C92.4168 93.0853 92.9368 93.0693 93.5554 92.968V94ZM87.8914 86.368V85.36H93.5554V86.368H87.8914ZM99.1584 83.72V82.4H100.334V83.72H99.1584ZM99.1584 94V85.36H100.334V94H99.1584ZM107.706 94C107.22 94.1013 106.74 94.1413 106.266 94.12C105.796 94.0987 105.375 93.9973 105.002 93.816C104.634 93.6347 104.354 93.352 104.162 92.968C104.007 92.648 103.922 92.3253 103.906 92C103.895 91.6693 103.89 91.2933 103.89 90.872V82.96H105.058V90.824C105.058 91.1867 105.06 91.4907 105.066 91.736C105.076 91.976 105.132 92.1893 105.234 92.376C105.426 92.7333 105.73 92.9467 106.146 93.016C106.567 93.0853 107.087 93.0693 107.706 92.968V94ZM102.042 86.368V85.36H107.706V86.368H102.042ZM113.02 94.24C112.177 94.24 111.447 94.0533 110.828 93.68C110.215 93.3067 109.737 92.7813 109.396 92.104C109.055 91.4267 108.884 90.632 108.884 89.72C108.884 88.776 109.052 87.96 109.388 87.272C109.724 86.584 110.196 86.0533 110.804 85.68C111.417 85.3067 112.14 85.12 112.972 85.12C113.825 85.12 114.553 85.3173 115.156 85.712C115.759 86.1013 116.215 86.6613 116.524 87.392C116.833 88.1227 116.975 88.9947 116.948 90.008H115.748V89.592C115.727 88.472 115.484 87.6267 115.02 87.056C114.561 86.4853 113.889 86.2 113.004 86.2C112.076 86.2 111.364 86.5013 110.868 87.104C110.377 87.7067 110.132 88.5653 110.132 89.68C110.132 90.768 110.377 91.6133 110.868 92.216C111.364 92.8133 112.065 93.112 112.972 93.112C113.591 93.112 114.129 92.9707 114.588 92.688C115.052 92.4 115.417 91.9867 115.684 91.448L116.78 91.872C116.439 92.624 115.935 93.208 115.268 93.624C114.607 94.0347 113.857 94.24 113.02 94.24ZM109.716 90.008V89.024H116.316V90.008H109.716ZM129.062 94L129.07 88.328C129.07 87.6613 128.883 87.1387 128.51 86.76C128.142 86.376 127.673 86.184 127.102 86.184C126.777 86.184 126.459 86.2587 126.15 86.408C125.841 86.5573 125.585 86.7973 125.382 87.128C125.185 87.4587 125.086 87.8907 125.086 88.424L124.39 88.224C124.374 87.6053 124.494 87.064 124.75 86.6C125.011 86.136 125.369 85.776 125.822 85.52C126.281 85.2587 126.798 85.128 127.374 85.128C128.243 85.128 128.939 85.3973 129.462 85.936C129.985 86.4693 130.246 87.192 130.246 88.104L130.238 94H129.062ZM118.75 94V85.36H119.806V87.488H119.934V94H118.75ZM123.918 94L123.926 88.408C123.926 87.72 123.742 87.1787 123.374 86.784C123.011 86.384 122.531 86.184 121.934 86.184C121.337 86.184 120.854 86.3893 120.486 86.8C120.118 87.2053 119.934 87.7467 119.934 88.424L119.23 88.04C119.23 87.4853 119.361 86.9893 119.622 86.552C119.883 86.1093 120.241 85.7627 120.694 85.512C121.147 85.256 121.662 85.128 122.238 85.128C122.787 85.128 123.275 85.2453 123.702 85.48C124.134 85.7147 124.473 86.056 124.718 86.504C124.963 86.952 125.086 87.496 125.086 88.136L125.078 94H123.918ZM66.384 136.24C65.5413 136.24 64.7813 136.093 64.104 135.8C63.432 135.507 62.8773 135.088 62.44 134.544C62.008 133.995 61.7333 133.344 61.616 132.592L63.616 132.288C63.7867 132.971 64.136 133.499 64.664 133.872C65.1973 134.245 65.8107 134.432 66.504 134.432C66.9147 134.432 67.3013 134.368 67.664 134.24C68.0267 134.112 68.32 133.925 68.544 133.68C68.7733 133.435 68.888 133.133 68.888 132.776C68.888 132.616 68.8613 132.469 68.808 132.336C68.7547 132.197 68.6747 132.075 68.568 131.968C68.4667 131.861 68.3333 131.765 68.168 131.68C68.008 131.589 67.8213 131.512 67.608 131.448L64.632 130.568C64.376 130.493 64.0987 130.395 63.8 130.272C63.5067 130.144 63.2267 129.971 62.96 129.752C62.6987 129.528 62.4827 129.245 62.312 128.904C62.1467 128.557 62.064 128.131 62.064 127.624C62.064 126.883 62.2507 126.261 62.624 125.76C63.0027 125.253 63.5093 124.875 64.144 124.624C64.784 124.373 65.4933 124.251 66.272 124.256C67.0613 124.261 67.7653 124.397 68.384 124.664C69.0027 124.925 69.52 125.307 69.936 125.808C70.352 126.309 70.6453 126.915 70.816 127.624L68.744 127.984C68.6587 127.579 68.4933 127.235 68.248 126.952C68.008 126.664 67.712 126.445 67.36 126.296C67.0133 126.147 66.6427 126.067 66.248 126.056C65.864 126.051 65.5067 126.109 65.176 126.232C64.8507 126.349 64.5867 126.52 64.384 126.744C64.1867 126.968 64.088 127.229 64.088 127.528C64.088 127.811 64.1733 128.043 64.344 128.224C64.5147 128.4 64.7253 128.541 64.976 128.648C65.232 128.749 65.4907 128.835 65.752 128.904L67.816 129.48C68.0987 129.555 68.416 129.656 68.768 129.784C69.12 129.912 69.4587 130.091 69.784 130.32C70.1093 130.549 70.376 130.851 70.584 131.224C70.7973 131.597 70.904 132.072 70.904 132.648C70.904 133.245 70.7787 133.771 70.528 134.224C70.2827 134.672 69.9493 135.045 69.528 135.344C69.1067 135.643 68.624 135.867 68.08 136.016C67.5413 136.165 66.976 136.24 66.384 136.24ZM76.8324 136.24C75.9578 136.24 75.1898 136.051 74.5284 135.672C73.8671 135.293 73.3498 134.768 72.9764 134.096C72.6084 133.424 72.4244 132.651 72.4244 131.776C72.4244 130.832 72.6058 130.013 72.9684 129.32C73.3311 128.621 73.8351 128.08 74.4804 127.696C75.1258 127.312 75.8724 127.12 76.7204 127.12C77.6164 127.12 78.3764 127.331 79.0004 127.752C79.6298 128.168 80.0964 128.757 80.4004 129.52C80.7044 130.283 80.8191 131.181 80.7444 132.216H78.8324V131.512C78.8271 130.573 78.6618 129.888 78.3364 129.456C78.0111 129.024 77.4991 128.808 76.8004 128.808C76.0111 128.808 75.4244 129.053 75.0404 129.544C74.6564 130.029 74.4644 130.741 74.4644 131.68C74.4644 132.555 74.6564 133.232 75.0404 133.712C75.4244 134.192 75.9844 134.432 76.7204 134.432C77.1951 134.432 77.6031 134.328 77.9444 134.12C78.2911 133.907 78.5578 133.6 78.7444 133.2L80.6484 133.776C80.3178 134.555 79.8058 135.16 79.1124 135.592C78.4244 136.024 77.6644 136.24 76.8324 136.24ZM73.8564 132.216V130.76H79.8004V132.216H73.8564ZM86.5502 136.24C85.6596 136.24 84.8996 136.043 84.2702 135.648C83.6409 135.248 83.1582 134.704 82.8222 134.016C82.4916 133.328 82.3236 132.549 82.3182 131.68C82.3236 130.795 82.4969 130.011 82.8382 129.328C83.1849 128.64 83.6756 128.101 84.3102 127.712C84.9449 127.317 85.6996 127.12 86.5742 127.12C87.5556 127.12 88.3849 127.368 89.0622 127.864C89.7449 128.355 90.1902 129.027 90.3982 129.88L88.4782 130.4C88.3289 129.936 88.0809 129.576 87.7342 129.32C87.3876 129.059 86.9929 128.928 86.5502 128.928C86.0489 128.928 85.6356 129.048 85.3102 129.288C84.9849 129.523 84.7449 129.848 84.5902 130.264C84.4356 130.68 84.3582 131.152 84.3582 131.68C84.3582 132.501 84.5422 133.165 84.9102 133.672C85.2782 134.179 85.8249 134.432 86.5502 134.432C87.0622 134.432 87.4649 134.315 87.7582 134.08C88.0569 133.845 88.2809 133.507 88.4302 133.064L90.3982 133.504C90.1316 134.384 89.6649 135.061 88.9982 135.536C88.3316 136.005 87.5156 136.24 86.5502 136.24ZM95.8518 136.24C94.9878 136.24 94.2331 136.045 93.5878 135.656C92.9424 135.267 92.4411 134.731 92.0838 134.048C91.7318 133.36 91.5558 132.571 91.5558 131.68C91.5558 130.773 91.7371 129.979 92.0998 129.296C92.4624 128.613 92.9664 128.08 93.6118 127.696C94.2571 127.312 95.0038 127.12 95.8518 127.12C96.7211 127.12 97.4784 127.315 98.1238 127.704C98.7691 128.093 99.2704 128.632 99.6278 129.32C99.9851 130.003 100.164 130.789 100.164 131.68C100.164 132.576 99.9824 133.368 99.6198 134.056C99.2624 134.739 98.7611 135.275 98.1158 135.664C97.4704 136.048 96.7158 136.24 95.8518 136.24ZM95.8518 134.432C96.6198 134.432 97.1904 134.176 97.5638 133.664C97.9371 133.152 98.1238 132.491 98.1238 131.68C98.1238 130.843 97.9344 130.176 97.5558 129.68C97.1771 129.179 96.6091 128.928 95.8518 128.928C95.3344 128.928 94.9078 129.045 94.5718 129.28C94.2411 129.509 93.9958 129.832 93.8358 130.248C93.6758 130.659 93.5958 131.136 93.5958 131.68C93.5958 132.517 93.7851 133.187 94.1638 133.688C94.5478 134.184 95.1104 134.432 95.8518 134.432ZM108.171 136V131.84C108.171 131.568 108.153 131.267 108.115 130.936C108.078 130.605 107.99 130.288 107.851 129.984C107.718 129.675 107.515 129.421 107.243 129.224C106.977 129.027 106.614 128.928 106.155 128.928C105.91 128.928 105.667 128.968 105.427 129.048C105.187 129.128 104.969 129.267 104.771 129.464C104.579 129.656 104.425 129.923 104.307 130.264C104.19 130.6 104.131 131.032 104.131 131.56L102.987 131.072C102.987 130.336 103.129 129.669 103.411 129.072C103.699 128.475 104.121 128 104.675 127.648C105.23 127.291 105.913 127.112 106.723 127.112C107.363 127.112 107.891 127.219 108.307 127.432C108.723 127.645 109.054 127.917 109.299 128.248C109.545 128.579 109.726 128.931 109.843 129.304C109.961 129.677 110.035 130.032 110.067 130.368C110.105 130.699 110.123 130.968 110.123 131.176V136H108.171ZM102.179 136V127.36H103.899V130.04H104.131V136H102.179ZM115.803 136.24C115.008 136.24 114.315 136.04 113.723 135.64C113.131 135.24 112.672 134.696 112.347 134.008C112.022 133.32 111.859 132.544 111.859 131.68C111.859 130.805 112.022 130.027 112.347 129.344C112.678 128.656 113.144 128.115 113.747 127.72C114.35 127.32 115.059 127.12 115.875 127.12C116.696 127.12 117.384 127.32 117.939 127.72C118.499 128.115 118.923 128.656 119.211 129.344C119.499 130.032 119.643 130.811 119.643 131.68C119.643 132.539 119.499 133.315 119.211 134.008C118.923 134.696 118.494 135.24 117.923 135.64C117.352 136.04 116.646 136.24 115.803 136.24ZM116.099 134.512C116.616 134.512 117.032 134.395 117.347 134.16C117.667 133.92 117.899 133.587 118.043 133.16C118.192 132.733 118.267 132.24 118.267 131.68C118.267 131.115 118.192 130.621 118.043 130.2C117.899 129.773 117.672 129.443 117.363 129.208C117.054 128.968 116.654 128.848 116.163 128.848C115.646 128.848 115.219 128.976 114.883 129.232C114.547 129.483 114.299 129.824 114.139 130.256C113.979 130.683 113.899 131.157 113.899 131.68C113.899 132.208 113.976 132.688 114.131 133.12C114.291 133.547 114.534 133.885 114.859 134.136C115.184 134.387 115.598 134.512 116.099 134.512ZM118.267 136V129.936H118.027V124.48H119.971V136H118.267ZM65.184 178V167.608H61.16V166.48H70.384V167.608H66.36V178H65.184ZM78.1757 178V173.592C78.1757 173.112 78.1303 172.672 78.0397 172.272C77.949 171.867 77.8023 171.515 77.5997 171.216C77.4023 170.912 77.1437 170.677 76.8237 170.512C76.509 170.347 76.125 170.264 75.6717 170.264C75.2557 170.264 74.8877 170.336 74.5677 170.48C74.253 170.624 73.9863 170.832 73.7677 171.104C73.5543 171.371 73.3917 171.696 73.2797 172.08C73.1677 172.464 73.1117 172.901 73.1117 173.392L72.2797 173.208C72.2797 172.323 72.4343 171.579 72.7437 170.976C73.053 170.373 73.4797 169.917 74.0237 169.608C74.5677 169.299 75.1917 169.144 75.8957 169.144C76.413 169.144 76.8637 169.224 77.2477 169.384C77.637 169.544 77.965 169.76 78.2317 170.032C78.5037 170.304 78.7223 170.616 78.8877 170.968C79.053 171.315 79.173 171.685 79.2477 172.08C79.3223 172.469 79.3597 172.859 79.3597 173.248V178H78.1757ZM71.9277 178V166.48H72.9917V172.984H73.1117V178H71.9277ZM81.8645 167.72V166.4H83.0405V167.72H81.8645ZM81.8645 178V169.36H83.0405V178H81.8645ZM85.7077 178V169.36H86.7637V171.44L86.5557 171.168C86.6517 170.912 86.777 170.677 86.9317 170.464C87.0863 170.245 87.2543 170.067 87.4357 169.928C87.6597 169.731 87.921 169.581 88.2197 169.48C88.5183 169.373 88.8197 169.312 89.1237 169.296C89.4277 169.275 89.705 169.296 89.9557 169.36V170.464C89.641 170.384 89.297 170.365 88.9237 170.408C88.5503 170.451 88.2063 170.6 87.8917 170.856C87.6037 171.08 87.3877 171.349 87.2437 171.664C87.0997 171.973 87.0037 172.304 86.9557 172.656C86.9077 173.003 86.8837 173.347 86.8837 173.688V178H85.7077ZM94.9378 178.24C94.1325 178.24 93.4445 178.04 92.8738 177.64C92.3032 177.235 91.8658 176.688 91.5618 176C91.2578 175.312 91.1058 174.536 91.1058 173.672C91.1058 172.813 91.2552 172.04 91.5538 171.352C91.8578 170.664 92.2925 170.12 92.8578 169.72C93.4232 169.32 94.1005 169.12 94.8898 169.12C95.7005 169.12 96.3832 169.317 96.9378 169.712C97.4925 170.107 97.9112 170.648 98.1938 171.336C98.4818 172.019 98.6258 172.797 98.6258 173.672C98.6258 174.531 98.4845 175.307 98.2018 176C97.9192 176.688 97.5032 177.235 96.9538 177.64C96.4045 178.04 95.7325 178.24 94.9378 178.24ZM95.0578 177.144C95.6712 177.144 96.1778 176.995 96.5778 176.696C96.9778 176.397 97.2765 175.987 97.4738 175.464C97.6712 174.936 97.7698 174.339 97.7698 173.672C97.7698 172.995 97.6712 172.397 97.4738 171.88C97.2765 171.357 96.9778 170.949 96.5778 170.656C96.1832 170.363 95.6845 170.216 95.0818 170.216C94.4632 170.216 93.9512 170.368 93.5458 170.672C93.1405 170.976 92.8392 171.389 92.6418 171.912C92.4498 172.435 92.3538 173.021 92.3538 173.672C92.3538 174.328 92.4525 174.92 92.6498 175.448C92.8525 175.971 93.1538 176.384 93.5538 176.688C93.9538 176.992 94.4552 177.144 95.0578 177.144ZM97.7698 178V171.496H97.6418V166.48H98.8258V178H97.7698ZM62.12 220V208.48H68.736V209.656H63.296V213.656H67.776V214.824H63.296V220H62.12ZM73.8249 220.24C72.9663 220.24 72.2329 220.045 71.6249 219.656C71.0169 219.267 70.5503 218.728 70.2249 218.04C69.8996 217.352 69.7369 216.563 69.7369 215.672C69.7369 214.765 69.9023 213.971 70.2329 213.288C70.5636 212.605 71.0329 212.075 71.6409 211.696C72.2543 211.312 72.9823 211.12 73.8249 211.12C74.6889 211.12 75.4249 211.315 76.0329 211.704C76.6463 212.088 77.1129 212.624 77.4329 213.312C77.7583 213.995 77.9209 214.781 77.9209 215.672C77.9209 216.579 77.7583 217.376 77.4329 218.064C77.1076 218.747 76.6383 219.28 76.0249 219.664C75.4116 220.048 74.6783 220.24 73.8249 220.24ZM73.8249 219.112C74.7849 219.112 75.4996 218.795 75.9689 218.16C76.4383 217.52 76.6729 216.691 76.6729 215.672C76.6729 214.627 76.4356 213.795 75.9609 213.176C75.4916 212.557 74.7796 212.248 73.8249 212.248C73.1796 212.248 72.6463 212.395 72.2249 212.688C71.8089 212.976 71.4969 213.379 71.2889 213.896C71.0863 214.408 70.9849 215 70.9849 215.672C70.9849 216.712 71.2249 217.547 71.7049 218.176C72.1849 218.8 72.8916 219.112 73.8249 219.112ZM83.2585 220.216C82.7411 220.216 82.2878 220.136 81.8985 219.976C81.5145 219.816 81.1865 219.6 80.9145 219.328C80.6478 219.056 80.4318 218.747 80.2665 218.4C80.1011 218.048 79.9811 217.677 79.9065 217.288C79.8318 216.893 79.7945 216.501 79.7945 216.112V211.36H80.9785V215.768C80.9785 216.243 81.0238 216.683 81.1145 217.088C81.2051 217.493 81.3491 217.848 81.5465 218.152C81.7491 218.451 82.0078 218.683 82.3225 218.848C82.6425 219.013 83.0291 219.096 83.4825 219.096C83.8985 219.096 84.2638 219.024 84.5785 218.88C84.8985 218.736 85.1651 218.531 85.3785 218.264C85.5971 217.992 85.7625 217.664 85.8745 217.28C85.9865 216.891 86.0425 216.453 86.0425 215.968L86.8745 216.152C86.8745 217.037 86.7198 217.781 86.4105 218.384C86.1011 218.987 85.6745 219.443 85.1305 219.752C84.5865 220.061 83.9625 220.216 83.2585 220.216ZM86.1625 220V217.872H86.0425V211.36H87.2185V220H86.1625ZM89.7233 220V211.36H90.7793V213.44L90.5713 213.168C90.6673 212.912 90.7926 212.677 90.9473 212.464C91.1019 212.245 91.2699 212.067 91.4513 211.928C91.6753 211.731 91.9366 211.581 92.2353 211.48C92.5339 211.373 92.8353 211.312 93.1393 211.296C93.4433 211.275 93.7206 211.296 93.9713 211.36V212.464C93.6566 212.384 93.3126 212.365 92.9393 212.408C92.5659 212.451 92.2219 212.6 91.9073 212.856C91.6193 213.08 91.4033 213.349 91.2593 213.664C91.1153 213.973 91.0193 214.304 90.9713 214.656C90.9233 215.003 90.8993 215.347 90.8993 215.688V220H89.7233ZM100.462 220C99.9764 220.101 99.4964 220.141 99.0217 220.12C98.5524 220.099 98.131 219.997 97.7577 219.816C97.3897 219.635 97.1097 219.352 96.9177 218.968C96.763 218.648 96.6777 218.325 96.6617 218C96.651 217.669 96.6457 217.293 96.6457 216.872V208.96H97.8137V216.824C97.8137 217.187 97.8164 217.491 97.8217 217.736C97.8324 217.976 97.8884 218.189 97.9897 218.376C98.1817 218.733 98.4857 218.947 98.9017 219.016C99.323 219.085 99.843 219.069 100.462 218.968V220ZM94.7977 212.368V211.36H100.462V212.368H94.7977ZM108.673 220V215.592C108.673 215.112 108.627 214.672 108.537 214.272C108.446 213.867 108.299 213.515 108.097 213.216C107.899 212.912 107.641 212.677 107.321 212.512C107.006 212.347 106.622 212.264 106.169 212.264C105.753 212.264 105.385 212.336 105.065 212.48C104.75 212.624 104.483 212.832 104.265 213.104C104.051 213.371 103.889 213.696 103.777 214.08C103.665 214.464 103.609 214.901 103.609 215.392L102.777 215.208C102.777 214.323 102.931 213.579 103.241 212.976C103.55 212.373 103.977 211.917 104.521 211.608C105.065 211.299 105.689 211.144 106.393 211.144C106.91 211.144 107.361 211.224 107.745 211.384C108.134 211.544 108.462 211.76 108.729 212.032C109.001 212.304 109.219 212.616 109.385 212.968C109.55 213.315 109.67 213.685 109.745 214.08C109.819 214.469 109.857 214.859 109.857 215.248V220H108.673ZM102.425 220V208.48H103.489V214.984H103.609V220H102.425ZM62.12 262V250.48H68.736V251.656H63.296V255.656H67.776V256.824H63.296V262H62.12ZM70.6113 251.72V250.4H71.7873V251.72H70.6113ZM70.6113 262V253.36H71.7873V262H70.6113ZM75.3105 262V252.72C75.3105 252.496 75.3211 252.275 75.3425 252.056C75.3691 251.837 75.4198 251.629 75.4945 251.432C75.5691 251.229 75.6865 251.043 75.8465 250.872C76.0225 250.68 76.2145 250.541 76.4225 250.456C76.6305 250.365 76.8465 250.307 77.0705 250.28C77.2998 250.253 77.5238 250.24 77.7425 250.24H78.8465V251.232H77.8225C77.3745 251.232 77.0385 251.341 76.8145 251.56C76.5958 251.779 76.4865 252.123 76.4865 252.592V262H75.3105ZM73.8145 254.368V253.36H78.8465V254.368H73.8145ZM85.0992 262C84.6138 262.101 84.1338 262.141 83.6592 262.12C83.1898 262.099 82.7685 261.997 82.3952 261.816C82.0272 261.635 81.7472 261.352 81.5552 260.968C81.4005 260.648 81.3152 260.325 81.2992 260C81.2885 259.669 81.2832 259.293 81.2832 258.872V250.96H82.4512V258.824C82.4512 259.187 82.4538 259.491 82.4592 259.736C82.4698 259.976 82.5258 260.189 82.6272 260.376C82.8192 260.733 83.1232 260.947 83.5392 261.016C83.9605 261.085 84.4805 261.069 85.0992 260.968V262ZM79.4352 254.368V253.36H85.0992V254.368H79.4352ZM93.3102 262V257.592C93.3102 257.112 93.2649 256.672 93.1742 256.272C93.0835 255.867 92.9369 255.515 92.7342 255.216C92.5369 254.912 92.2782 254.677 91.9582 254.512C91.6435 254.347 91.2595 254.264 90.8062 254.264C90.3902 254.264 90.0222 254.336 89.7022 254.48C89.3875 254.624 89.1209 254.832 88.9022 255.104C88.6889 255.371 88.5262 255.696 88.4142 256.08C88.3022 256.464 88.2462 256.901 88.2462 257.392L87.4142 257.208C87.4142 256.323 87.5689 255.579 87.8782 254.976C88.1875 254.373 88.6142 253.917 89.1582 253.608C89.7022 253.299 90.3262 253.144 91.0302 253.144C91.5475 253.144 91.9982 253.224 92.3822 253.384C92.7715 253.544 93.0995 253.76 93.3662 254.032C93.6382 254.304 93.8569 254.616 94.0222 254.968C94.1875 255.315 94.3075 255.685 94.3822 256.08C94.4569 256.469 94.4942 256.859 94.4942 257.248V262H93.3102ZM87.0622 262V250.48H88.1262V256.984H88.2462V262H87.0622Z" fill="black"></path> </g> <g filter="url(#filter3_dd_8687_352869)"> <path d="M216.379 146.412L197.626 141.848L202.479 159.942L206.385 156.611L212.842 161.382L217.489 156.611L212.266 150.525L216.379 146.412Z" fill="black"></path> <path d="M216.379 146.412L197.626 141.848L202.479 159.942L206.385 156.611L212.842 161.382L217.489 156.611L212.266 150.525L216.379 146.412Z" stroke="black" stroke-width="0.765661"></path> </g> <path d="M218.503 155.868L213.666 151.032L217.156 147.543C217.458 147.24 217.583 146.803 217.484 146.387C217.386 145.971 217.079 145.635 216.674 145.5L197.594 140.378C197.15 140.23 196.662 140.345 196.331 140.676C196.001 141.006 195.885 141.495 196.033 141.938L201.155 161.019C201.291 161.424 201.626 161.731 202.042 161.829C202.458 161.928 202.896 161.803 203.198 161.501L206.688 158.011L211.524 162.847C211.765 163.088 212.08 163.209 212.396 163.209C212.712 163.209 213.027 163.088 213.268 162.847L218.503 157.613C218.984 157.131 218.984 156.35 218.503 155.868ZM212.396 160.23L207.56 155.394C207.078 154.912 206.297 154.912 205.815 155.394L202.865 158.345L199.154 143.499L214 147.21L211.049 150.16C210.568 150.641 210.568 151.423 211.049 151.905L215.885 156.741L212.396 160.23Z" fill="white"></path> <path d="M196.927 134.075C197.608 134.075 198.161 133.523 198.161 132.841V126.467C198.161 125.786 197.608 125.233 196.927 125.233C196.246 125.233 195.693 125.786 195.693 126.467V132.841C195.693 133.523 196.246 134.075 196.927 134.075Z" fill="#A1A1A1"></path> <path d="M187.332 129.931C186.85 129.449 186.069 129.449 185.587 129.931C185.105 130.413 185.105 131.194 185.587 131.676L190.001 136.09C190.483 136.572 191.264 136.572 191.746 136.09C192.228 135.608 192.228 134.827 191.746 134.345L187.332 129.931Z" fill="#A1A1A1"></path> <path d="M189.878 146.577L185.587 150.868C185.105 151.35 185.105 152.131 185.587 152.613C186.069 153.095 186.85 153.095 187.332 152.613L191.623 148.322C192.105 147.84 192.105 147.059 191.623 146.577C191.141 146.095 190.36 146.095 189.878 146.577Z" fill="#A1A1A1"></path> <path d="M204.1 135.843L208.268 131.676C208.75 131.194 208.75 130.413 208.268 129.931C207.786 129.449 207.005 129.449 206.523 129.931L202.355 134.099C201.874 134.581 201.874 135.362 202.355 135.843C202.837 136.325 203.619 136.325 204.1 135.843Z" fill="#A1A1A1"></path> <path d="M189.607 141.272C189.607 140.591 189.055 140.038 188.373 140.038H182.122C181.441 140.038 180.889 140.591 180.889 141.272C180.889 141.953 181.441 142.506 182.122 142.506H188.373C189.055 142.506 189.607 141.953 189.607 141.272Z" fill="#A1A1A1"></path> </g> <defs> <filter id="filter0_dd_8687_352869" x="0" y="42" width="284" height="295" filterUnits="userSpaceOnUse" color-interpolation-filters="sRGB"> <feFlood flood-opacity="0" result="BackgroundImageFix"></feFlood> <feColorMatrix in="SourceAlpha" type="matrix" values="0 0 0 0 0 0 0 0 0 0 0 0 0 0 0 0 0 0 127 0" result="hardAlpha"></feColorMatrix> <feMorphology radius="2" operator="dilate" in="SourceAlpha" result="effect1_dropShadow_8687_352869"></feMorphology> <feOffset dy="16"></feOffset> <feGaussianBlur stdDeviation="16"></feGaussianBlur> <feColorMatrix type="matrix" values="0 0 0 0 0.380392 0 0 0 0 0.380392 0 0 0 0 0.380392 0 0 0 0.06 0"></feColorMatrix> <feBlend mode="multiply" in2="BackgroundImageFix" result="effect1_dropShadow_8687_352869"></feBlend> <feColorMatrix in="SourceAlpha" type="matrix" values="0 0 0 0 0 0 0 0 0 0 0 0 0 0 0 0 0 0 127 0" result="hardAlpha"></feColorMatrix> <feMorphology radius="2" operator="dilate" in="SourceAlpha" result="effect2_dropShadow_8687_352869"></feMorphology> <feOffset dy="8"></feOffset> <feGaussianBlur stdDeviation="8"></feGaussianBlur> <feColorMatrix type="matrix" values="0 0 0 0 0.380392 0 0 0 0 0.380392 0 0 0 0 0.380392 0 0 0 0.06 0"></feColorMatrix> <feBlend mode="multiply" in2="effect1_dropShadow_8687_352869" result="effect2_dropShadow_8687_352869"></feBlend> <feBlend mode="normal" in="SourceGraphic" in2="effect2_dropShadow_8687_352869" result="shape"></feBlend> </filter> <filter id="filter1_i_8687_352869" x="46" y="109" width="192" height="44" filterUnits="userSpaceOnUse" color-interpolation-filters="sRGB"> <feFlood flood-opacity="0" result="BackgroundImageFix"></feFlood> <feBlend mode="normal" in="SourceGraphic" in2="BackgroundImageFix" result="shape"></feBlend> <feColorMatrix in="SourceAlpha" type="matrix" values="0 0 0 0 0 0 0 0 0 0 0 0 0 0 0 0 0 0 127 0" result="hardAlpha"></feColorMatrix> <feOffset dy="2"></feOffset> <feGaussianBlur stdDeviation="1.5"></feGaussianBlur> <feComposite in2="hardAlpha" operator="arithmetic" k2="-1" k3="1"></feComposite> <feColorMatrix type="matrix" values="0 0 0 0 0.115208 0 0 0 0 0.235025 0 0 0 0 0.543125 0 0 0 0.16 0"></feColorMatrix> <feBlend mode="normal" in2="shape" result="effect1_innerShadow_8687_352869"></feBlend> </filter> <filter id="filter2_d_8687_352869" x="59.1602" y="81.4" width="73.0859" height="183.752" filterUnits="userSpaceOnUse" color-interpolation-filters="sRGB"> <feFlood flood-opacity="0" result="BackgroundImageFix"></feFlood> <feColorMatrix in="SourceAlpha" type="matrix" values="0 0 0 0 0 0 0 0 0 0 0 0 0 0 0 0 0 0 127 0" result="hardAlpha"></feColorMatrix> <feOffset dy="1"></feOffset> <feGaussianBlur stdDeviation="1"></feGaussianBlur> <feComposite in2="hardAlpha" operator="out"></feComposite> <feColorMatrix type="matrix" values="0 0 0 0 1 0 0 0 0 1 0 0 0 0 1 0 0 0 1 0"></feColorMatrix> <feBlend mode="normal" in2="BackgroundImageFix" result="effect1_dropShadow_8687_352869"></feBlend> <feBlend mode="normal" in="SourceGraphic" in2="effect1_dropShadow_8687_352869" result="shape"></feBlend> </filter> <filter id="filter3_dd_8687_352869" x="181.089" y="133.323" width="52.9189" height="52.5652" filterUnits="userSpaceOnUse" color-interpolation-filters="sRGB"> <feFlood flood-opacity="0" result="BackgroundImageFix"></feFlood> <feColorMatrix in="SourceAlpha" type="matrix" values="0 0 0 0 0 0 0 0 0 0 0 0 0 0 0 0 0 0 127 0" result="hardAlpha"></feColorMatrix> <feOffset dy="8"></feOffset> <feGaussianBlur stdDeviation="8"></feGaussianBlur> <feColorMatrix type="matrix" values="0 0 0 0 0.380392 0 0 0 0 0.380392 0 0 0 0 0.380392 0 0 0 0.14 0"></feColorMatrix> <feBlend mode="multiply" in2="BackgroundImageFix" result="effect1_dropShadow_8687_352869"></feBlend> <feColorMatrix in="SourceAlpha" type="matrix" values="0 0 0 0 0 0 0 0 0 0 0 0 0 0 0 0 0 0 127 0" result="hardAlpha"></feColorMatrix> <feOffset dy="4"></feOffset> <feGaussianBlur stdDeviation="4"></feGaussianBlur> <feColorMatrix type="matrix" values="0 0 0 0 0.380392 0 0 0 0 0.380392 0 0 0 0 0.380392 0 0 0 0.14 0"></feColorMatrix> <feBlend mode="multiply" in2="effect1_dropShadow_8687_352869" result="effect2_dropShadow_8687_352869"></feBlend> <feBlend mode="normal" in="SourceGraphic" in2="effect2_dropShadow_8687_352869" result="shape"></feBlend> </filter> <clipPath id="clip0_8687_352869"> <rect width="284" height="337" fill="white"></rect> </clipPath> </defs> </svg> 