<?xml version="1.0" encoding="UTF-8"?> <svg xmlns="http://www.w3.org/2000/svg" width="284" height="435" viewBox="0 0 284 435" fill="none"> <g clip-path="url(#clip0_8687_352870)"> <rect width="284" height="435" fill="white"></rect> <rect x="34.75" y="4.75" width="174.5" height="46.5" rx="9.25" fill="white" stroke="#1F8B24" stroke-width="1.5"></rect> <path d="M58.6799 34.24C57.8692 34.24 57.1385 34.0987 56.4879 33.816C55.8372 33.5333 55.2825 33.1307 54.8239 32.608C54.3705 32.0853 54.0239 31.456 53.7839 30.72C53.5439 29.9787 53.4239 29.152 53.4239 28.24C53.4239 27.0347 53.6319 25.984 54.0479 25.088C54.4692 24.1867 55.0719 23.488 55.8559 22.992C56.6399 22.496 57.5812 22.248 58.6799 22.248C59.9065 22.248 60.9039 22.536 61.6719 23.112C62.4452 23.6827 62.9839 24.4507 63.2879 25.416L62.1039 25.704C61.8532 25 61.4399 24.4373 60.8639 24.016C60.2932 23.5947 59.5812 23.384 58.7279 23.384C57.8265 23.3787 57.0772 23.5813 56.4799 23.992C55.8825 24.3973 55.4319 24.968 55.1279 25.704C54.8292 26.4347 54.6772 27.28 54.6719 28.24C54.6665 29.2 54.8132 30.0453 55.1119 30.776C55.4159 31.5013 55.8692 32.072 56.4719 32.488C57.0745 32.8987 57.8265 33.1067 58.7279 33.112C59.5545 33.112 60.2372 32.952 60.7759 32.632C61.3145 32.312 61.7225 31.8533 61.9999 31.256C62.2825 30.6587 62.4425 29.952 62.4799 29.136H59.8239V28.128H63.7119C63.7279 28.2507 63.7359 28.3813 63.7359 28.52C63.7412 28.6533 63.7439 28.7493 63.7439 28.808C63.7439 29.848 63.5572 30.7787 63.1839 31.6C62.8105 32.416 62.2479 33.0613 61.4959 33.536C60.7492 34.0053 59.8105 34.24 58.6799 34.24ZM65.6139 34V25.36H66.6699V27.44L66.4619 27.168C66.5579 26.912 66.6832 26.6773 66.8379 26.464C66.9926 26.2453 67.1606 26.0667 67.3419 25.928C67.5659 25.7307 67.8272 25.5813 68.1259 25.48C68.4246 25.3733 68.7259 25.312 69.0299 25.296C69.3339 25.2747 69.6112 25.296 69.8619 25.36V26.464C69.5472 26.384 69.2032 26.3653 68.8299 26.408C68.4566 26.4507 68.1126 26.6 67.7979 26.856C67.5099 27.08 67.2939 27.3493 67.1499 27.664C67.0059 27.9733 66.9099 28.304 66.8619 28.656C66.8139 29.0027 66.7899 29.3467 66.7899 29.688V34H65.6139ZM75.1001 34.24C74.2414 34.24 73.5081 34.0453 72.9001 33.656C72.2921 33.2667 71.8254 32.728 71.5001 32.04C71.1747 31.352 71.0121 30.5627 71.0121 29.672C71.0121 28.7653 71.1774 27.9707 71.5081 27.288C71.8387 26.6053 72.3081 26.0747 72.9161 25.696C73.5294 25.312 74.2574 25.12 75.1001 25.12C75.9641 25.12 76.7001 25.3147 77.3081 25.704C77.9214 26.088 78.3881 26.624 78.7081 27.312C79.0334 27.9947 79.1961 28.7813 79.1961 29.672C79.1961 30.5787 79.0334 31.376 78.7081 32.064C78.3827 32.7467 77.9134 33.28 77.3001 33.664C76.6867 34.048 75.9534 34.24 75.1001 34.24ZM75.1001 33.112C76.0601 33.112 76.7747 32.7947 77.2441 32.16C77.7134 31.52 77.9481 30.6907 77.9481 29.672C77.9481 28.6267 77.7107 27.7947 77.2361 27.176C76.7667 26.5573 76.0547 26.248 75.1001 26.248C74.4547 26.248 73.9214 26.3947 73.5001 26.688C73.0841 26.976 72.7721 27.3787 72.5641 27.896C72.3614 28.408 72.2601 29 72.2601 29.672C72.2601 30.712 72.5001 31.5467 72.9801 32.176C73.4601 32.8 74.1667 33.112 75.1001 33.112ZM84.5336 34.216C84.0163 34.216 83.563 34.136 83.1736 33.976C82.7896 33.816 82.4616 33.6 82.1896 33.328C81.923 33.056 81.707 32.7467 81.5416 32.4C81.3763 32.048 81.2563 31.6773 81.1816 31.288C81.107 30.8933 81.0696 30.5013 81.0696 30.112V25.36H82.2536V29.768C82.2536 30.2427 82.299 30.6827 82.3896 31.088C82.4803 31.4933 82.6243 31.848 82.8216 32.152C83.0243 32.4507 83.283 32.6827 83.5976 32.848C83.9176 33.0133 84.3043 33.096 84.7576 33.096C85.1736 33.096 85.539 33.024 85.8536 32.88C86.1736 32.736 86.4403 32.5307 86.6536 32.264C86.8723 31.992 87.0376 31.664 87.1496 31.28C87.2616 30.8907 87.3176 30.4533 87.3176 29.968L88.1496 30.152C88.1496 31.0373 87.995 31.7813 87.6856 32.384C87.3763 32.9867 86.9496 33.4427 86.4056 33.752C85.8616 34.0613 85.2376 34.216 84.5336 34.216ZM87.4376 34V31.872H87.3176V25.36H88.4936V34H87.4376ZM94.8784 34.24C94.0838 34.24 93.4118 34.04 92.8624 33.64C92.3131 33.2347 91.8971 32.688 91.6144 32C91.3318 31.3067 91.1904 30.5307 91.1904 29.672C91.1904 28.7973 91.3318 28.0187 91.6144 27.336C91.9024 26.648 92.3238 26.1067 92.8784 25.712C93.4331 25.3173 94.1158 25.12 94.9264 25.12C95.7158 25.12 96.3931 25.32 96.9584 25.72C97.5238 26.12 97.9558 26.664 98.2544 27.352C98.5584 28.04 98.7104 28.8133 98.7104 29.672C98.7104 30.536 98.5584 31.312 98.2544 32C97.9504 32.688 97.5131 33.2347 96.9424 33.64C96.3718 34.04 95.6838 34.24 94.8784 34.24ZM90.9904 37.84V25.36H92.0464V31.864H92.1744V37.84H90.9904ZM94.7584 33.144C95.3611 33.144 95.8624 32.992 96.2624 32.688C96.6624 32.384 96.9611 31.9707 97.1584 31.448C97.3611 30.92 97.4624 30.328 97.4624 29.672C97.4624 29.0213 97.3638 28.4347 97.1664 27.912C96.9691 27.3893 96.6678 26.976 96.2624 26.672C95.8624 26.368 95.3531 26.216 94.7344 26.216C94.1318 26.216 93.6304 26.3627 93.2304 26.656C92.8358 26.9493 92.5398 27.3573 92.3424 27.88C92.1451 28.3973 92.0464 28.9947 92.0464 29.672C92.0464 30.3387 92.1451 30.936 92.3424 31.464C92.5398 31.9867 92.8384 32.3973 93.2384 32.696C93.6384 32.9947 94.1451 33.144 94.7584 33.144ZM104.392 34.24C103.549 34.24 102.819 34.0533 102.2 33.68C101.587 33.3067 101.109 32.7813 100.768 32.104C100.427 31.4267 100.256 30.632 100.256 29.72C100.256 28.776 100.424 27.96 100.76 27.272C101.096 26.584 101.568 26.0533 102.176 25.68C102.789 25.3067 103.512 25.12 104.344 25.12C105.197 25.12 105.925 25.3173 106.528 25.712C107.131 26.1013 107.587 26.6613 107.896 27.392C108.205 28.1227 108.347 28.9947 108.32 30.008H107.12V29.592C107.099 28.472 106.856 27.6267 106.392 27.056C105.933 26.4853 105.261 26.2 104.376 26.2C103.448 26.2 102.736 26.5013 102.24 27.104C101.749 27.7067 101.504 28.5653 101.504 29.68C101.504 30.768 101.749 31.6133 102.24 32.216C102.736 32.8133 103.437 33.112 104.344 33.112C104.963 33.112 105.501 32.9707 105.96 32.688C106.424 32.4 106.789 31.9867 107.056 31.448L108.152 31.872C107.811 32.624 107.307 33.208 106.64 33.624C105.979 34.0347 105.229 34.24 104.392 34.24ZM101.088 30.008V29.024H107.688V30.008H101.088ZM113.716 34.24C112.911 34.24 112.223 34.04 111.652 33.64C111.081 33.2347 110.644 32.688 110.34 32C110.036 31.312 109.884 30.536 109.884 29.672C109.884 28.8133 110.033 28.04 110.332 27.352C110.636 26.664 111.071 26.12 111.636 25.72C112.201 25.32 112.879 25.12 113.668 25.12C114.479 25.12 115.161 25.3173 115.716 25.712C116.271 26.1067 116.689 26.648 116.972 27.336C117.26 28.0187 117.404 28.7973 117.404 29.672C117.404 30.5307 117.263 31.3067 116.98 32C116.697 32.688 116.281 33.2347 115.732 33.64C115.183 34.04 114.511 34.24 113.716 34.24ZM113.836 33.144C114.449 33.144 114.956 32.9947 115.356 32.696C115.756 32.3973 116.055 31.9867 116.252 31.464C116.449 30.936 116.548 30.3387 116.548 29.672C116.548 28.9947 116.449 28.3973 116.252 27.88C116.055 27.3573 115.756 26.9493 115.356 26.656C114.961 26.3627 114.463 26.216 113.86 26.216C113.241 26.216 112.729 26.368 112.324 26.672C111.919 26.976 111.617 27.3893 111.42 27.912C111.228 28.4347 111.132 29.0213 111.132 29.672C111.132 30.328 111.231 30.92 111.428 31.448C111.631 31.9707 111.932 32.384 112.332 32.688C112.732 32.992 113.233 33.144 113.836 33.144ZM116.548 34V27.496H116.42V22.48H117.604V34H116.548ZM123.749 23.72V22.4H124.925V23.72H123.749ZM123.749 34V25.36H124.925V34H123.749ZM132.296 34C131.811 34.1013 131.331 34.1413 130.856 34.12C130.387 34.0987 129.966 33.9973 129.592 33.816C129.224 33.6347 128.944 33.352 128.752 32.968C128.598 32.648 128.512 32.3253 128.496 32C128.486 31.6693 128.48 31.2933 128.48 30.872V22.96H129.648V30.824C129.648 31.1867 129.651 31.4907 129.656 31.736C129.667 31.976 129.723 32.1893 129.824 32.376C130.016 32.7333 130.32 32.9467 130.736 33.016C131.158 33.0853 131.678 33.0693 132.296 32.968V34ZM126.632 26.368V25.36H132.296V26.368H126.632ZM137.611 34.24C136.768 34.24 136.038 34.0533 135.419 33.68C134.806 33.3067 134.328 32.7813 133.987 32.104C133.646 31.4267 133.475 30.632 133.475 29.72C133.475 28.776 133.643 27.96 133.979 27.272C134.315 26.584 134.787 26.0533 135.395 25.68C136.008 25.3067 136.731 25.12 137.563 25.12C138.416 25.12 139.144 25.3173 139.747 25.712C140.35 26.1013 140.806 26.6613 141.115 27.392C141.424 28.1227 141.566 28.9947 141.539 30.008H140.339V29.592C140.318 28.472 140.075 27.6267 139.611 27.056C139.152 26.4853 138.48 26.2 137.595 26.2C136.667 26.2 135.955 26.5013 135.459 27.104C134.968 27.7067 134.723 28.5653 134.723 29.68C134.723 30.768 134.968 31.6133 135.459 32.216C135.955 32.8133 136.656 33.112 137.563 33.112C138.182 33.112 138.72 32.9707 139.179 32.688C139.643 32.4 140.008 31.9867 140.275 31.448L141.371 31.872C141.03 32.624 140.526 33.208 139.859 33.624C139.198 34.0347 138.448 34.24 137.611 34.24ZM134.307 30.008V29.024H140.907V30.008H134.307ZM153.653 34L153.661 28.328C153.661 27.6613 153.474 27.1387 153.101 26.76C152.733 26.376 152.263 26.184 151.693 26.184C151.367 26.184 151.05 26.2587 150.741 26.408C150.431 26.5573 150.175 26.7973 149.973 27.128C149.775 27.4587 149.677 27.8907 149.677 28.424L148.981 28.224C148.965 27.6053 149.085 27.064 149.341 26.6C149.602 26.136 149.959 25.776 150.413 25.52C150.871 25.2587 151.389 25.128 151.965 25.128C152.834 25.128 153.53 25.3973 154.053 25.936C154.575 26.4693 154.837 27.192 154.837 28.104L154.829 34H153.653ZM143.341 34V25.36H144.397V27.488H144.525V34H143.341ZM148.509 34L148.517 28.408C148.517 27.72 148.333 27.1787 147.965 26.784C147.602 26.384 147.122 26.184 146.525 26.184C145.927 26.184 145.445 26.3893 145.077 26.8C144.709 27.2053 144.525 27.7467 144.525 28.424L143.821 28.04C143.821 27.4853 143.951 26.9893 144.213 26.552C144.474 26.1093 144.831 25.7627 145.285 25.512C145.738 25.256 146.253 25.128 146.829 25.128C147.378 25.128 147.866 25.2453 148.293 25.48C148.725 25.7147 149.063 26.056 149.309 26.504C149.554 26.952 149.677 27.496 149.677 28.136L149.669 34H148.509ZM160.404 34.232C159.391 34.232 158.556 34.0133 157.9 33.576C157.249 33.1387 156.849 32.5307 156.7 31.752L157.9 31.552C158.028 32.0427 158.319 32.4347 158.772 32.728C159.231 33.016 159.796 33.16 160.468 33.16C161.124 33.16 161.641 33.024 162.02 32.752C162.399 32.4747 162.588 32.0987 162.588 31.624C162.588 31.3573 162.527 31.1413 162.404 30.976C162.287 30.8053 162.044 30.648 161.676 30.504C161.308 30.36 160.759 30.1893 160.028 29.992C159.244 29.7787 158.631 29.5653 158.188 29.352C157.745 29.1387 157.431 28.8933 157.244 28.616C157.057 28.3333 156.964 27.9893 156.964 27.584C156.964 27.0933 157.103 26.664 157.38 26.296C157.657 25.9227 158.041 25.6347 158.532 25.432C159.023 25.224 159.593 25.12 160.244 25.12C160.895 25.12 161.476 25.2267 161.988 25.44C162.505 25.648 162.921 25.9413 163.236 26.32C163.551 26.6987 163.737 27.1387 163.796 27.64L162.596 27.856C162.516 27.3493 162.263 26.9493 161.836 26.656C161.415 26.3573 160.879 26.2027 160.228 26.192C159.615 26.176 159.116 26.2933 158.732 26.544C158.348 26.7893 158.156 27.1173 158.156 27.528C158.156 27.7573 158.225 27.9547 158.364 28.12C158.503 28.28 158.753 28.432 159.116 28.576C159.484 28.72 160.007 28.8773 160.684 29.048C161.479 29.2507 162.103 29.464 162.556 29.688C163.009 29.912 163.332 30.176 163.524 30.48C163.716 30.784 163.812 31.16 163.812 31.608C163.812 32.424 163.508 33.0667 162.9 33.536C162.297 34 161.465 34.232 160.404 34.232Z" fill="black"></path> <path d="M185.616 25.4609C185.816 25.2211 186.184 25.2211 186.384 25.4609L190.317 30.1799C190.588 30.5056 190.356 31 189.932 31L182.068 31C181.644 31 181.412 30.5056 181.683 30.1799L185.616 25.4609Z" fill="#616161"></path> <rect x="32" y="2" width="180" height="52" rx="12" stroke="#C5F2C7" stroke-opacity="0.5" stroke-width="4"></rect> <g filter="url(#filter0_dd_8687_352870)"> <rect x="34" y="60" width="216" height="325" rx="10" fill="white"></rect> <rect x="34.5" y="60.5" width="215" height="324" rx="9.5" stroke="#C0C0C0"></rect> </g> <g filter="url(#filter1_i_8687_352870)"> <rect x="46" y="166.5" width="192" height="36" rx="6" fill="#E6E6E6" fill-opacity="0.5"></rect> </g> <g filter="url(#filter2_d_8687_352870)"> <path d="M70.12 120V108.48H76.736V109.656H71.296V113.656H75.776V114.824H71.296V120H70.12ZM78.6113 109.72V108.4H79.7873V109.72H78.6113ZM78.6113 120V111.36H79.7873V120H78.6113ZM82.4545 120V111.36H83.5105V113.44L83.3025 113.168C83.3985 112.912 83.5238 112.677 83.6785 112.464C83.8331 112.245 84.0011 112.067 84.1825 111.928C84.4065 111.731 84.6678 111.581 84.9665 111.48C85.2651 111.373 85.5665 111.312 85.8705 111.296C86.1745 111.275 86.4518 111.296 86.7025 111.36V112.464C86.3878 112.384 86.0438 112.365 85.6705 112.408C85.2971 112.451 84.9531 112.6 84.6385 112.856C84.3505 113.08 84.1345 113.349 83.9905 113.664C83.8465 113.973 83.7505 114.304 83.7025 114.656C83.6545 115.003 83.6305 115.347 83.6305 115.688V120H82.4545ZM91.4004 120.232C90.3871 120.232 89.5524 120.013 88.8964 119.576C88.2457 119.139 87.8457 118.531 87.6964 117.752L88.8964 117.552C89.0244 118.043 89.3151 118.435 89.7684 118.728C90.2271 119.016 90.7924 119.16 91.4644 119.16C92.1204 119.16 92.6377 119.024 93.0164 118.752C93.3951 118.475 93.5844 118.099 93.5844 117.624C93.5844 117.357 93.5231 117.141 93.4004 116.976C93.2831 116.805 93.0404 116.648 92.6724 116.504C92.3044 116.36 91.7551 116.189 91.0244 115.992C90.2404 115.779 89.6271 115.565 89.1844 115.352C88.7417 115.139 88.4271 114.893 88.2404 114.616C88.0537 114.333 87.9604 113.989 87.9604 113.584C87.9604 113.093 88.0991 112.664 88.3764 112.296C88.6537 111.923 89.0377 111.635 89.5284 111.432C90.0191 111.224 90.5897 111.12 91.2404 111.12C91.8911 111.12 92.4724 111.227 92.9844 111.44C93.5017 111.648 93.9177 111.941 94.2324 112.32C94.5471 112.699 94.7337 113.139 94.7924 113.64L93.5924 113.856C93.5124 113.349 93.2591 112.949 92.8324 112.656C92.4111 112.357 91.8751 112.203 91.2244 112.192C90.6111 112.176 90.1124 112.293 89.7284 112.544C89.3444 112.789 89.1524 113.117 89.1524 113.528C89.1524 113.757 89.2217 113.955 89.3604 114.12C89.4991 114.28 89.7497 114.432 90.1124 114.576C90.4804 114.72 91.0031 114.877 91.6804 115.048C92.4751 115.251 93.0991 115.464 93.5524 115.688C94.0057 115.912 94.3284 116.176 94.5204 116.48C94.7124 116.784 94.8084 117.16 94.8084 117.608C94.8084 118.424 94.5044 119.067 93.8964 119.536C93.2937 120 92.4617 120.232 91.4004 120.232ZM101.555 120C101.07 120.101 100.59 120.141 100.115 120.12C99.6461 120.099 99.2248 119.997 98.8514 119.816C98.4834 119.635 98.2034 119.352 98.0114 118.968C97.8568 118.648 97.7714 118.325 97.7554 118C97.7448 117.669 97.7394 117.293 97.7394 116.872V108.96H98.9074V116.824C98.9074 117.187 98.9101 117.491 98.9154 117.736C98.9261 117.976 98.9821 118.189 99.0834 118.376C99.2754 118.733 99.5794 118.947 99.9954 119.016C100.417 119.085 100.937 119.069 101.555 118.968V120ZM95.8914 112.368V111.36H101.555V112.368H95.8914ZM107.158 109.72V108.4H108.334V109.72H107.158ZM107.158 120V111.36H108.334V120H107.158ZM115.706 120C115.22 120.101 114.74 120.141 114.266 120.12C113.796 120.099 113.375 119.997 113.002 119.816C112.634 119.635 112.354 119.352 112.162 118.968C112.007 118.648 111.922 118.325 111.906 118C111.895 117.669 111.89 117.293 111.89 116.872V108.96H113.058V116.824C113.058 117.187 113.06 117.491 113.066 117.736C113.076 117.976 113.132 118.189 113.234 118.376C113.426 118.733 113.73 118.947 114.146 119.016C114.567 119.085 115.087 119.069 115.706 118.968V120ZM110.042 112.368V111.36H115.706V112.368H110.042ZM121.02 120.24C120.177 120.24 119.447 120.053 118.828 119.68C118.215 119.307 117.737 118.781 117.396 118.104C117.055 117.427 116.884 116.632 116.884 115.72C116.884 114.776 117.052 113.96 117.388 113.272C117.724 112.584 118.196 112.053 118.804 111.68C119.417 111.307 120.14 111.12 120.972 111.12C121.825 111.12 122.553 111.317 123.156 111.712C123.759 112.101 124.215 112.661 124.524 113.392C124.833 114.123 124.975 114.995 124.948 116.008H123.748V115.592C123.727 114.472 123.484 113.627 123.02 113.056C122.561 112.485 121.889 112.2 121.004 112.2C120.076 112.2 119.364 112.501 118.868 113.104C118.377 113.707 118.132 114.565 118.132 115.68C118.132 116.768 118.377 117.613 118.868 118.216C119.364 118.813 120.065 119.112 120.972 119.112C121.591 119.112 122.129 118.971 122.588 118.688C123.052 118.4 123.417 117.987 123.684 117.448L124.78 117.872C124.439 118.624 123.935 119.208 123.268 119.624C122.607 120.035 121.857 120.24 121.02 120.24ZM117.716 116.008V115.024H124.316V116.008H117.716ZM137.062 120L137.07 114.328C137.07 113.661 136.883 113.139 136.51 112.76C136.142 112.376 135.673 112.184 135.102 112.184C134.777 112.184 134.459 112.259 134.15 112.408C133.841 112.557 133.585 112.797 133.382 113.128C133.185 113.459 133.086 113.891 133.086 114.424L132.39 114.224C132.374 113.605 132.494 113.064 132.75 112.6C133.011 112.136 133.369 111.776 133.822 111.52C134.281 111.259 134.798 111.128 135.374 111.128C136.243 111.128 136.939 111.397 137.462 111.936C137.985 112.469 138.246 113.192 138.246 114.104L138.238 120H137.062ZM126.75 120V111.36H127.806V113.488H127.934V120H126.75ZM131.918 120L131.926 114.408C131.926 113.72 131.742 113.179 131.374 112.784C131.011 112.384 130.531 112.184 129.934 112.184C129.337 112.184 128.854 112.389 128.486 112.8C128.118 113.205 127.934 113.747 127.934 114.424L127.23 114.04C127.23 113.485 127.361 112.989 127.622 112.552C127.883 112.109 128.241 111.763 128.694 111.512C129.147 111.256 129.662 111.128 130.238 111.128C130.787 111.128 131.275 111.245 131.702 111.48C132.134 111.715 132.473 112.056 132.718 112.504C132.963 112.952 133.086 113.496 133.086 114.136L133.078 120H131.918ZM74.12 155.24C73.3147 155.24 72.5893 155.107 71.944 154.84C71.304 154.568 70.7733 154.184 70.352 153.688C69.936 153.192 69.664 152.603 69.536 151.92L70.736 151.72C70.928 152.467 71.3333 153.053 71.952 153.48C72.5707 153.901 73.3093 154.112 74.168 154.112C74.7333 154.112 75.24 154.024 75.688 153.848C76.136 153.667 76.488 153.411 76.744 153.08C77 152.749 77.128 152.357 77.128 151.904C77.128 151.605 77.0747 151.352 76.968 151.144C76.8613 150.931 76.72 150.755 76.544 150.616C76.368 150.477 76.176 150.363 75.968 150.272C75.76 150.176 75.5573 150.099 75.36 150.04L72.44 149.168C72.088 149.067 71.7627 148.939 71.464 148.784C71.1653 148.624 70.904 148.435 70.68 148.216C70.4613 147.992 70.2907 147.731 70.168 147.432C70.0453 147.133 69.984 146.792 69.984 146.408C69.984 145.757 70.1547 145.195 70.496 144.72C70.8373 144.245 71.304 143.88 71.896 143.624C72.488 143.368 73.1627 143.243 73.92 143.248C74.688 143.248 75.3733 143.384 75.976 143.656C76.584 143.928 77.0853 144.317 77.48 144.824C77.8747 145.325 78.136 145.92 78.264 146.608L77.032 146.832C76.952 146.331 76.768 145.896 76.48 145.528C76.192 145.16 75.824 144.877 75.376 144.68C74.9333 144.477 74.4453 144.373 73.912 144.368C73.3947 144.368 72.9333 144.456 72.528 144.632C72.128 144.803 71.8107 145.037 71.576 145.336C71.3413 145.635 71.224 145.976 71.224 146.36C71.224 146.749 71.3307 147.061 71.544 147.296C71.7627 147.531 72.0293 147.715 72.344 147.848C72.664 147.981 72.9733 148.091 73.272 148.176L75.528 148.84C75.7627 148.904 76.0373 148.997 76.352 149.12C76.672 149.237 76.9813 149.408 77.28 149.632C77.584 149.851 77.8347 150.139 78.032 150.496C78.2293 150.853 78.328 151.307 78.328 151.856C78.328 152.389 78.2213 152.867 78.008 153.288C77.8 153.709 77.504 154.064 77.12 154.352C76.7413 154.64 76.296 154.859 75.784 155.008C75.2773 155.163 74.7227 155.24 74.12 155.24ZM83.9042 155.24C83.0615 155.24 82.3308 155.053 81.7122 154.68C81.0988 154.307 80.6215 153.781 80.2802 153.104C79.9388 152.427 79.7682 151.632 79.7682 150.72C79.7682 149.776 79.9362 148.96 80.2722 148.272C80.6082 147.584 81.0802 147.053 81.6882 146.68C82.3015 146.307 83.0242 146.12 83.8562 146.12C84.7095 146.12 85.4375 146.317 86.0402 146.712C86.6428 147.101 87.0988 147.661 87.4082 148.392C87.7175 149.123 87.8588 149.995 87.8322 151.008H86.6322V150.592C86.6108 149.472 86.3682 148.627 85.9042 148.056C85.4455 147.485 84.7735 147.2 83.8882 147.2C82.9602 147.2 82.2482 147.501 81.7522 148.104C81.2615 148.707 81.0162 149.565 81.0162 150.68C81.0162 151.768 81.2615 152.613 81.7522 153.216C82.2482 153.813 82.9495 154.112 83.8562 154.112C84.4748 154.112 85.0135 153.971 85.4722 153.688C85.9362 153.4 86.3015 152.987 86.5682 152.448L87.6642 152.872C87.3228 153.624 86.8188 154.208 86.1522 154.624C85.4908 155.035 84.7415 155.24 83.9042 155.24ZM80.6002 151.008V150.024H87.2002V151.008H80.6002ZM93.4603 155.24C92.591 155.24 91.855 155.045 91.2523 154.656C90.6497 154.267 90.191 153.731 89.8763 153.048C89.567 152.36 89.407 151.571 89.3963 150.68C89.407 149.773 89.5723 148.979 89.8923 148.296C90.2123 147.608 90.6737 147.075 91.2763 146.696C91.879 146.312 92.6097 146.12 93.4683 146.12C94.343 146.12 95.103 146.333 95.7483 146.76C96.399 147.187 96.8443 147.771 97.0843 148.512L95.9323 148.88C95.7297 148.363 95.407 147.963 94.9643 147.68C94.527 147.392 94.0257 147.248 93.4603 147.248C92.8257 147.248 92.3003 147.395 91.8843 147.688C91.4683 147.976 91.159 148.379 90.9563 148.896C90.7537 149.413 90.6497 150.008 90.6443 150.68C90.655 151.715 90.895 152.547 91.3643 153.176C91.8337 153.8 92.5323 154.112 93.4603 154.112C94.047 154.112 94.5457 153.979 94.9563 153.712C95.3723 153.44 95.687 153.045 95.9004 152.528L97.0843 152.88C96.7643 153.648 96.295 154.235 95.6764 154.64C95.0577 155.04 94.319 155.24 93.4603 155.24ZM102.378 155.24C101.519 155.24 100.786 155.045 100.178 154.656C99.5702 154.267 99.1035 153.728 98.7782 153.04C98.4528 152.352 98.2902 151.563 98.2902 150.672C98.2902 149.765 98.4555 148.971 98.7862 148.288C99.1168 147.605 99.5862 147.075 100.194 146.696C100.807 146.312 101.535 146.12 102.378 146.12C103.242 146.12 103.978 146.315 104.586 146.704C105.199 147.088 105.666 147.624 105.986 148.312C106.311 148.995 106.474 149.781 106.474 150.672C106.474 151.579 106.311 152.376 105.986 153.064C105.661 153.747 105.191 154.28 104.578 154.664C103.965 155.048 103.231 155.24 102.378 155.24ZM102.378 154.112C103.338 154.112 104.053 153.795 104.522 153.16C104.991 152.52 105.226 151.691 105.226 150.672C105.226 149.627 104.989 148.795 104.514 148.176C104.045 147.557 103.333 147.248 102.378 147.248C101.733 147.248 101.199 147.395 100.778 147.688C100.362 147.976 100.05 148.379 99.8422 148.896C99.6395 149.408 99.5382 150 99.5382 150.672C99.5382 151.712 99.7782 152.547 100.258 153.176C100.738 153.8 101.445 154.112 102.378 154.112ZM114.748 155V150.592C114.748 150.112 114.702 149.672 114.612 149.272C114.521 148.867 114.374 148.515 114.172 148.216C113.974 147.912 113.716 147.677 113.396 147.512C113.081 147.347 112.697 147.264 112.244 147.264C111.828 147.264 111.46 147.336 111.14 147.48C110.825 147.624 110.558 147.832 110.34 148.104C110.126 148.371 109.964 148.696 109.852 149.08C109.74 149.464 109.684 149.901 109.684 150.392L108.852 150.208C108.852 149.323 109.006 148.579 109.316 147.976C109.625 147.373 110.052 146.917 110.596 146.608C111.14 146.299 111.764 146.144 112.468 146.144C112.985 146.144 113.436 146.224 113.82 146.384C114.209 146.544 114.537 146.76 114.804 147.032C115.076 147.304 115.294 147.616 115.46 147.968C115.625 148.315 115.745 148.685 115.82 149.08C115.894 149.469 115.932 149.859 115.932 150.248V155H114.748ZM108.5 155V146.36H109.564V148.488H109.684V155H108.5ZM121.582 155.24C120.776 155.24 120.088 155.04 119.518 154.64C118.947 154.235 118.51 153.688 118.206 153C117.902 152.312 117.75 151.536 117.75 150.672C117.75 149.813 117.899 149.04 118.198 148.352C118.502 147.664 118.936 147.12 119.502 146.72C120.067 146.32 120.744 146.12 121.534 146.12C122.344 146.12 123.027 146.317 123.582 146.712C124.136 147.107 124.555 147.648 124.838 148.336C125.126 149.019 125.27 149.797 125.27 150.672C125.27 151.531 125.128 152.307 124.846 153C124.563 153.688 124.147 154.235 123.598 154.64C123.048 155.04 122.376 155.24 121.582 155.24ZM121.702 154.144C122.315 154.144 122.822 153.995 123.222 153.696C123.622 153.397 123.92 152.987 124.118 152.464C124.315 151.936 124.414 151.339 124.414 150.672C124.414 149.995 124.315 149.397 124.118 148.88C123.92 148.357 123.622 147.949 123.222 147.656C122.827 147.363 122.328 147.216 121.726 147.216C121.107 147.216 120.595 147.368 120.19 147.672C119.784 147.976 119.483 148.389 119.286 148.912C119.094 149.435 118.998 150.021 118.998 150.672C118.998 151.328 119.096 151.92 119.294 152.448C119.496 152.971 119.798 153.384 120.198 153.688C120.598 153.992 121.099 154.144 121.702 154.144ZM124.414 155V148.496H124.286V143.48H125.47V155H124.414ZM73.184 190V179.608H69.16V178.48H78.384V179.608H74.36V190H73.184ZM86.1757 190V185.592C86.1757 185.112 86.1303 184.672 86.0397 184.272C85.949 183.867 85.8023 183.515 85.5997 183.216C85.4023 182.912 85.1437 182.677 84.8237 182.512C84.509 182.347 84.125 182.264 83.6717 182.264C83.2557 182.264 82.8877 182.336 82.5677 182.48C82.253 182.624 81.9863 182.832 81.7677 183.104C81.5543 183.371 81.3917 183.696 81.2797 184.08C81.1677 184.464 81.1117 184.901 81.1117 185.392L80.2797 185.208C80.2797 184.323 80.4343 183.579 80.7437 182.976C81.053 182.373 81.4797 181.917 82.0237 181.608C82.5677 181.299 83.1917 181.144 83.8957 181.144C84.413 181.144 84.8637 181.224 85.2477 181.384C85.637 181.544 85.965 181.76 86.2317 182.032C86.5037 182.304 86.7223 182.616 86.8877 182.968C87.053 183.315 87.173 183.685 87.2477 184.08C87.3223 184.469 87.3597 184.859 87.3597 185.248V190H86.1757ZM79.9277 190V178.48H80.9917V184.984H81.1117V190H79.9277ZM89.8645 179.72V178.4H91.0405V179.72H89.8645ZM89.8645 190V181.36H91.0405V190H89.8645ZM93.7077 190V181.36H94.7637V183.44L94.5557 183.168C94.6517 182.912 94.777 182.677 94.9317 182.464C95.0863 182.245 95.2543 182.067 95.4357 181.928C95.6597 181.731 95.921 181.581 96.2197 181.48C96.5183 181.373 96.8197 181.312 97.1237 181.296C97.4277 181.275 97.705 181.296 97.9557 181.36V182.464C97.641 182.384 97.297 182.365 96.9237 182.408C96.5503 182.451 96.2063 182.6 95.8917 182.856C95.6037 183.08 95.3877 183.349 95.2437 183.664C95.0997 183.973 95.0037 184.304 94.9557 184.656C94.9077 185.003 94.8837 185.347 94.8837 185.688V190H93.7077ZM102.938 190.24C102.132 190.24 101.444 190.04 100.874 189.64C100.303 189.235 99.8658 188.688 99.5618 188C99.2578 187.312 99.1058 186.536 99.1058 185.672C99.1058 184.813 99.2552 184.04 99.5538 183.352C99.8578 182.664 100.292 182.12 100.858 181.72C101.423 181.32 102.1 181.12 102.89 181.12C103.7 181.12 104.383 181.317 104.938 181.712C105.492 182.107 105.911 182.648 106.194 183.336C106.482 184.019 106.626 184.797 106.626 185.672C106.626 186.531 106.484 187.307 106.202 188C105.919 188.688 105.503 189.235 104.954 189.64C104.404 190.04 103.732 190.24 102.938 190.24ZM103.058 189.144C103.671 189.144 104.178 188.995 104.578 188.696C104.978 188.397 105.276 187.987 105.474 187.464C105.671 186.936 105.77 186.339 105.77 185.672C105.77 184.995 105.671 184.397 105.474 183.88C105.276 183.357 104.978 182.949 104.578 182.656C104.183 182.363 103.684 182.216 103.082 182.216C102.463 182.216 101.951 182.368 101.546 182.672C101.14 182.976 100.839 183.389 100.642 183.912C100.45 184.435 100.354 185.021 100.354 185.672C100.354 186.328 100.452 186.92 100.65 187.448C100.852 187.971 101.154 188.384 101.554 188.688C101.954 188.992 102.455 189.144 103.058 189.144ZM105.77 190V183.496H105.642V178.48H106.826V190H105.77Z" fill="black"></path> </g> <g filter="url(#filter3_d_8687_352870)"> <path d="M70.12 256V244.48H76.736V245.656H71.296V249.656H75.776V250.824H71.296V256H70.12ZM78.6113 245.72V244.4H79.7873V245.72H78.6113ZM78.6113 256V247.36H79.7873V256H78.6113ZM82.4545 256V247.36H83.5105V249.44L83.3025 249.168C83.3985 248.912 83.5238 248.677 83.6785 248.464C83.8331 248.245 84.0011 248.067 84.1825 247.928C84.4065 247.731 84.6678 247.581 84.9665 247.48C85.2651 247.373 85.5665 247.312 85.8705 247.296C86.1745 247.275 86.4518 247.296 86.7025 247.36V248.464C86.3878 248.384 86.0438 248.365 85.6705 248.408C85.2971 248.451 84.9531 248.6 84.6385 248.856C84.3505 249.08 84.1345 249.349 83.9905 249.664C83.8465 249.973 83.7505 250.304 83.7025 250.656C83.6545 251.003 83.6305 251.347 83.6305 251.688V256H82.4545ZM91.4004 256.232C90.3871 256.232 89.5524 256.013 88.8964 255.576C88.2457 255.139 87.8457 254.531 87.6964 253.752L88.8964 253.552C89.0244 254.043 89.3151 254.435 89.7684 254.728C90.2271 255.016 90.7924 255.16 91.4644 255.16C92.1204 255.16 92.6377 255.024 93.0164 254.752C93.3951 254.475 93.5844 254.099 93.5844 253.624C93.5844 253.357 93.5231 253.141 93.4004 252.976C93.2831 252.805 93.0404 252.648 92.6724 252.504C92.3044 252.36 91.7551 252.189 91.0244 251.992C90.2404 251.779 89.6271 251.565 89.1844 251.352C88.7417 251.139 88.4271 250.893 88.2404 250.616C88.0537 250.333 87.9604 249.989 87.9604 249.584C87.9604 249.093 88.0991 248.664 88.3764 248.296C88.6537 247.923 89.0377 247.635 89.5284 247.432C90.0191 247.224 90.5897 247.12 91.2404 247.12C91.8911 247.12 92.4724 247.227 92.9844 247.44C93.5017 247.648 93.9177 247.941 94.2324 248.32C94.5471 248.699 94.7337 249.139 94.7924 249.64L93.5924 249.856C93.5124 249.349 93.2591 248.949 92.8324 248.656C92.4111 248.357 91.8751 248.203 91.2244 248.192C90.6111 248.176 90.1124 248.293 89.7284 248.544C89.3444 248.789 89.1524 249.117 89.1524 249.528C89.1524 249.757 89.2217 249.955 89.3604 250.12C89.4991 250.28 89.7497 250.432 90.1124 250.576C90.4804 250.72 91.0031 250.877 91.6804 251.048C92.4751 251.251 93.0991 251.464 93.5524 251.688C94.0057 251.912 94.3284 252.176 94.5204 252.48C94.7124 252.784 94.8084 253.16 94.8084 253.608C94.8084 254.424 94.5044 255.067 93.8964 255.536C93.2937 256 92.4617 256.232 91.4004 256.232ZM101.555 256C101.07 256.101 100.59 256.141 100.115 256.12C99.6461 256.099 99.2248 255.997 98.8514 255.816C98.4834 255.635 98.2034 255.352 98.0114 254.968C97.8568 254.648 97.7714 254.325 97.7554 254C97.7448 253.669 97.7394 253.293 97.7394 252.872V244.96H98.9074V252.824C98.9074 253.187 98.9101 253.491 98.9154 253.736C98.9261 253.976 98.9821 254.189 99.0834 254.376C99.2754 254.733 99.5794 254.947 99.9954 255.016C100.417 255.085 100.937 255.069 101.555 254.968V256ZM95.8914 248.368V247.36H101.555V248.368H95.8914ZM107.158 245.72V244.4H108.334V245.72H107.158ZM107.158 256V247.36H108.334V256H107.158ZM115.706 256C115.22 256.101 114.74 256.141 114.266 256.12C113.796 256.099 113.375 255.997 113.002 255.816C112.634 255.635 112.354 255.352 112.162 254.968C112.007 254.648 111.922 254.325 111.906 254C111.895 253.669 111.89 253.293 111.89 252.872V244.96H113.058V252.824C113.058 253.187 113.06 253.491 113.066 253.736C113.076 253.976 113.132 254.189 113.234 254.376C113.426 254.733 113.73 254.947 114.146 255.016C114.567 255.085 115.087 255.069 115.706 254.968V256ZM110.042 248.368V247.36H115.706V248.368H110.042ZM121.02 256.24C120.177 256.24 119.447 256.053 118.828 255.68C118.215 255.307 117.737 254.781 117.396 254.104C117.055 253.427 116.884 252.632 116.884 251.72C116.884 250.776 117.052 249.96 117.388 249.272C117.724 248.584 118.196 248.053 118.804 247.68C119.417 247.307 120.14 247.12 120.972 247.12C121.825 247.12 122.553 247.317 123.156 247.712C123.759 248.101 124.215 248.661 124.524 249.392C124.833 250.123 124.975 250.995 124.948 252.008H123.748V251.592C123.727 250.472 123.484 249.627 123.02 249.056C122.561 248.485 121.889 248.2 121.004 248.2C120.076 248.2 119.364 248.501 118.868 249.104C118.377 249.707 118.132 250.565 118.132 251.68C118.132 252.768 118.377 253.613 118.868 254.216C119.364 254.813 120.065 255.112 120.972 255.112C121.591 255.112 122.129 254.971 122.588 254.688C123.052 254.4 123.417 253.987 123.684 253.448L124.78 253.872C124.439 254.624 123.935 255.208 123.268 255.624C122.607 256.035 121.857 256.24 121.02 256.24ZM117.716 252.008V251.024H124.316V252.008H117.716ZM137.062 256L137.07 250.328C137.07 249.661 136.883 249.139 136.51 248.76C136.142 248.376 135.673 248.184 135.102 248.184C134.777 248.184 134.459 248.259 134.15 248.408C133.841 248.557 133.585 248.797 133.382 249.128C133.185 249.459 133.086 249.891 133.086 250.424L132.39 250.224C132.374 249.605 132.494 249.064 132.75 248.6C133.011 248.136 133.369 247.776 133.822 247.52C134.281 247.259 134.798 247.128 135.374 247.128C136.243 247.128 136.939 247.397 137.462 247.936C137.985 248.469 138.246 249.192 138.246 250.104L138.238 256H137.062ZM126.75 256V247.36H127.806V249.488H127.934V256H126.75ZM131.918 256L131.926 250.408C131.926 249.72 131.742 249.179 131.374 248.784C131.011 248.384 130.531 248.184 129.934 248.184C129.337 248.184 128.854 248.389 128.486 248.8C128.118 249.205 127.934 249.747 127.934 250.424L127.23 250.04C127.23 249.485 127.361 248.989 127.622 248.552C127.883 248.109 128.241 247.763 128.694 247.512C129.147 247.256 129.662 247.128 130.238 247.128C130.787 247.128 131.275 247.245 131.702 247.48C132.134 247.715 132.473 248.056 132.718 248.504C132.963 248.952 133.086 249.496 133.086 250.136L133.078 256H131.918ZM74.12 291.24C73.3147 291.24 72.5893 291.107 71.944 290.84C71.304 290.568 70.7733 290.184 70.352 289.688C69.936 289.192 69.664 288.603 69.536 287.92L70.736 287.72C70.928 288.467 71.3333 289.053 71.952 289.48C72.5707 289.901 73.3093 290.112 74.168 290.112C74.7333 290.112 75.24 290.024 75.688 289.848C76.136 289.667 76.488 289.411 76.744 289.08C77 288.749 77.128 288.357 77.128 287.904C77.128 287.605 77.0747 287.352 76.968 287.144C76.8613 286.931 76.72 286.755 76.544 286.616C76.368 286.477 76.176 286.363 75.968 286.272C75.76 286.176 75.5573 286.099 75.36 286.04L72.44 285.168C72.088 285.067 71.7627 284.939 71.464 284.784C71.1653 284.624 70.904 284.435 70.68 284.216C70.4613 283.992 70.2907 283.731 70.168 283.432C70.0453 283.133 69.984 282.792 69.984 282.408C69.984 281.757 70.1547 281.195 70.496 280.72C70.8373 280.245 71.304 279.88 71.896 279.624C72.488 279.368 73.1627 279.243 73.92 279.248C74.688 279.248 75.3733 279.384 75.976 279.656C76.584 279.928 77.0853 280.317 77.48 280.824C77.8747 281.325 78.136 281.92 78.264 282.608L77.032 282.832C76.952 282.331 76.768 281.896 76.48 281.528C76.192 281.16 75.824 280.877 75.376 280.68C74.9333 280.477 74.4453 280.373 73.912 280.368C73.3947 280.368 72.9333 280.456 72.528 280.632C72.128 280.803 71.8107 281.037 71.576 281.336C71.3413 281.635 71.224 281.976 71.224 282.36C71.224 282.749 71.3307 283.061 71.544 283.296C71.7627 283.531 72.0293 283.715 72.344 283.848C72.664 283.981 72.9733 284.091 73.272 284.176L75.528 284.84C75.7627 284.904 76.0373 284.997 76.352 285.12C76.672 285.237 76.9813 285.408 77.28 285.632C77.584 285.851 77.8347 286.139 78.032 286.496C78.2293 286.853 78.328 287.307 78.328 287.856C78.328 288.389 78.2213 288.867 78.008 289.288C77.8 289.709 77.504 290.064 77.12 290.352C76.7413 290.64 76.296 290.859 75.784 291.008C75.2773 291.163 74.7227 291.24 74.12 291.24ZM83.9042 291.24C83.0615 291.24 82.3308 291.053 81.7122 290.68C81.0988 290.307 80.6215 289.781 80.2802 289.104C79.9388 288.427 79.7682 287.632 79.7682 286.72C79.7682 285.776 79.9362 284.96 80.2722 284.272C80.6082 283.584 81.0802 283.053 81.6882 282.68C82.3015 282.307 83.0242 282.12 83.8562 282.12C84.7095 282.12 85.4375 282.317 86.0402 282.712C86.6428 283.101 87.0988 283.661 87.4082 284.392C87.7175 285.123 87.8588 285.995 87.8322 287.008H86.6322V286.592C86.6108 285.472 86.3682 284.627 85.9042 284.056C85.4455 283.485 84.7735 283.2 83.8882 283.2C82.9602 283.2 82.2482 283.501 81.7522 284.104C81.2615 284.707 81.0162 285.565 81.0162 286.68C81.0162 287.768 81.2615 288.613 81.7522 289.216C82.2482 289.813 82.9495 290.112 83.8562 290.112C84.4748 290.112 85.0135 289.971 85.4722 289.688C85.9362 289.4 86.3015 288.987 86.5682 288.448L87.6642 288.872C87.3228 289.624 86.8188 290.208 86.1522 290.624C85.4908 291.035 84.7415 291.24 83.9042 291.24ZM80.6002 287.008V286.024H87.2002V287.008H80.6002ZM93.4603 291.24C92.591 291.24 91.855 291.045 91.2523 290.656C90.6497 290.267 90.191 289.731 89.8763 289.048C89.567 288.36 89.407 287.571 89.3963 286.68C89.407 285.773 89.5723 284.979 89.8923 284.296C90.2123 283.608 90.6737 283.075 91.2763 282.696C91.879 282.312 92.6097 282.12 93.4683 282.12C94.343 282.12 95.103 282.333 95.7483 282.76C96.399 283.187 96.8443 283.771 97.0843 284.512L95.9323 284.88C95.7297 284.363 95.407 283.963 94.9643 283.68C94.527 283.392 94.0257 283.248 93.4603 283.248C92.8257 283.248 92.3003 283.395 91.8843 283.688C91.4683 283.976 91.159 284.379 90.9563 284.896C90.7537 285.413 90.6497 286.008 90.6443 286.68C90.655 287.715 90.895 288.547 91.3643 289.176C91.8337 289.8 92.5323 290.112 93.4603 290.112C94.047 290.112 94.5457 289.979 94.9563 289.712C95.3723 289.44 95.687 289.045 95.9004 288.528L97.0843 288.88C96.7643 289.648 96.295 290.235 95.6764 290.64C95.0577 291.04 94.319 291.24 93.4603 291.24ZM102.378 291.24C101.519 291.24 100.786 291.045 100.178 290.656C99.5702 290.267 99.1035 289.728 98.7782 289.04C98.4528 288.352 98.2902 287.563 98.2902 286.672C98.2902 285.765 98.4555 284.971 98.7862 284.288C99.1168 283.605 99.5862 283.075 100.194 282.696C100.807 282.312 101.535 282.12 102.378 282.12C103.242 282.12 103.978 282.315 104.586 282.704C105.199 283.088 105.666 283.624 105.986 284.312C106.311 284.995 106.474 285.781 106.474 286.672C106.474 287.579 106.311 288.376 105.986 289.064C105.661 289.747 105.191 290.28 104.578 290.664C103.965 291.048 103.231 291.24 102.378 291.24ZM102.378 290.112C103.338 290.112 104.053 289.795 104.522 289.16C104.991 288.52 105.226 287.691 105.226 286.672C105.226 285.627 104.989 284.795 104.514 284.176C104.045 283.557 103.333 283.248 102.378 283.248C101.733 283.248 101.199 283.395 100.778 283.688C100.362 283.976 100.05 284.379 99.8422 284.896C99.6395 285.408 99.5382 286 99.5382 286.672C99.5382 287.712 99.7782 288.547 100.258 289.176C100.738 289.8 101.445 290.112 102.378 290.112ZM114.748 291V286.592C114.748 286.112 114.702 285.672 114.612 285.272C114.521 284.867 114.374 284.515 114.172 284.216C113.974 283.912 113.716 283.677 113.396 283.512C113.081 283.347 112.697 283.264 112.244 283.264C111.828 283.264 111.46 283.336 111.14 283.48C110.825 283.624 110.558 283.832 110.34 284.104C110.126 284.371 109.964 284.696 109.852 285.08C109.74 285.464 109.684 285.901 109.684 286.392L108.852 286.208C108.852 285.323 109.006 284.579 109.316 283.976C109.625 283.373 110.052 282.917 110.596 282.608C111.14 282.299 111.764 282.144 112.468 282.144C112.985 282.144 113.436 282.224 113.82 282.384C114.209 282.544 114.537 282.76 114.804 283.032C115.076 283.304 115.294 283.616 115.46 283.968C115.625 284.315 115.745 284.685 115.82 285.08C115.894 285.469 115.932 285.859 115.932 286.248V291H114.748ZM108.5 291V282.36H109.564V284.488H109.684V291H108.5ZM121.582 291.24C120.776 291.24 120.088 291.04 119.518 290.64C118.947 290.235 118.51 289.688 118.206 289C117.902 288.312 117.75 287.536 117.75 286.672C117.75 285.813 117.899 285.04 118.198 284.352C118.502 283.664 118.936 283.12 119.502 282.72C120.067 282.32 120.744 282.12 121.534 282.12C122.344 282.12 123.027 282.317 123.582 282.712C124.136 283.107 124.555 283.648 124.838 284.336C125.126 285.019 125.27 285.797 125.27 286.672C125.27 287.531 125.128 288.307 124.846 289C124.563 289.688 124.147 290.235 123.598 290.64C123.048 291.04 122.376 291.24 121.582 291.24ZM121.702 290.144C122.315 290.144 122.822 289.995 123.222 289.696C123.622 289.397 123.92 288.987 124.118 288.464C124.315 287.936 124.414 287.339 124.414 286.672C124.414 285.995 124.315 285.397 124.118 284.88C123.92 284.357 123.622 283.949 123.222 283.656C122.827 283.363 122.328 283.216 121.726 283.216C121.107 283.216 120.595 283.368 120.19 283.672C119.784 283.976 119.483 284.389 119.286 284.912C119.094 285.435 118.998 286.021 118.998 286.672C118.998 287.328 119.096 287.92 119.294 288.448C119.496 288.971 119.798 289.384 120.198 289.688C120.598 289.992 121.099 290.144 121.702 290.144ZM124.414 291V284.496H124.286V279.48H125.47V291H124.414ZM73.184 326V315.608H69.16V314.48H78.384V315.608H74.36V326H73.184ZM86.1757 326V321.592C86.1757 321.112 86.1303 320.672 86.0397 320.272C85.949 319.867 85.8023 319.515 85.5997 319.216C85.4023 318.912 85.1437 318.677 84.8237 318.512C84.509 318.347 84.125 318.264 83.6717 318.264C83.2557 318.264 82.8877 318.336 82.5677 318.48C82.253 318.624 81.9863 318.832 81.7677 319.104C81.5543 319.371 81.3917 319.696 81.2797 320.08C81.1677 320.464 81.1117 320.901 81.1117 321.392L80.2797 321.208C80.2797 320.323 80.4343 319.579 80.7437 318.976C81.053 318.373 81.4797 317.917 82.0237 317.608C82.5677 317.299 83.1917 317.144 83.8957 317.144C84.413 317.144 84.8637 317.224 85.2477 317.384C85.637 317.544 85.965 317.76 86.2317 318.032C86.5037 318.304 86.7223 318.616 86.8877 318.968C87.053 319.315 87.173 319.685 87.2477 320.08C87.3223 320.469 87.3597 320.859 87.3597 321.248V326H86.1757ZM79.9277 326V314.48H80.9917V320.984H81.1117V326H79.9277ZM89.8645 315.72V314.4H91.0405V315.72H89.8645ZM89.8645 326V317.36H91.0405V326H89.8645ZM93.7077 326V317.36H94.7637V319.44L94.5557 319.168C94.6517 318.912 94.777 318.677 94.9317 318.464C95.0863 318.245 95.2543 318.067 95.4357 317.928C95.6597 317.731 95.921 317.581 96.2197 317.48C96.5183 317.373 96.8197 317.312 97.1237 317.296C97.4277 317.275 97.705 317.296 97.9557 317.36V318.464C97.641 318.384 97.297 318.365 96.9237 318.408C96.5503 318.451 96.2063 318.6 95.8917 318.856C95.6037 319.08 95.3877 319.349 95.2437 319.664C95.0997 319.973 95.0037 320.304 94.9557 320.656C94.9077 321.003 94.8837 321.347 94.8837 321.688V326H93.7077ZM102.938 326.24C102.132 326.24 101.444 326.04 100.874 325.64C100.303 325.235 99.8658 324.688 99.5618 324C99.2578 323.312 99.1058 322.536 99.1058 321.672C99.1058 320.813 99.2552 320.04 99.5538 319.352C99.8578 318.664 100.292 318.12 100.858 317.72C101.423 317.32 102.1 317.12 102.89 317.12C103.7 317.12 104.383 317.317 104.938 317.712C105.492 318.107 105.911 318.648 106.194 319.336C106.482 320.019 106.626 320.797 106.626 321.672C106.626 322.531 106.484 323.307 106.202 324C105.919 324.688 105.503 325.235 104.954 325.64C104.404 326.04 103.732 326.24 102.938 326.24ZM103.058 325.144C103.671 325.144 104.178 324.995 104.578 324.696C104.978 324.397 105.276 323.987 105.474 323.464C105.671 322.936 105.77 322.339 105.77 321.672C105.77 320.995 105.671 320.397 105.474 319.88C105.276 319.357 104.978 318.949 104.578 318.656C104.183 318.363 103.684 318.216 103.082 318.216C102.463 318.216 101.951 318.368 101.546 318.672C101.14 318.976 100.839 319.389 100.642 319.912C100.45 320.435 100.354 321.021 100.354 321.672C100.354 322.328 100.452 322.92 100.65 323.448C100.852 323.971 101.154 324.384 101.554 324.688C101.954 324.992 102.455 325.144 103.058 325.144ZM105.77 326V319.496H105.642V314.48H106.826V326H105.77ZM70.12 361V349.48H76.736V350.656H71.296V354.656H75.776V355.824H71.296V361H70.12ZM81.8249 361.24C80.9663 361.24 80.2329 361.045 79.6249 360.656C79.0169 360.267 78.5503 359.728 78.2249 359.04C77.8996 358.352 77.7369 357.563 77.7369 356.672C77.7369 355.765 77.9023 354.971 78.2329 354.288C78.5636 353.605 79.0329 353.075 79.6409 352.696C80.2543 352.312 80.9823 352.12 81.8249 352.12C82.6889 352.12 83.4249 352.315 84.0329 352.704C84.6463 353.088 85.1129 353.624 85.4329 354.312C85.7583 354.995 85.9209 355.781 85.9209 356.672C85.9209 357.579 85.7583 358.376 85.4329 359.064C85.1076 359.747 84.6383 360.28 84.0249 360.664C83.4116 361.048 82.6783 361.24 81.8249 361.24ZM81.8249 360.112C82.7849 360.112 83.4996 359.795 83.9689 359.16C84.4383 358.52 84.6729 357.691 84.6729 356.672C84.6729 355.627 84.4356 354.795 83.9609 354.176C83.4916 353.557 82.7796 353.248 81.8249 353.248C81.1796 353.248 80.6463 353.395 80.2249 353.688C79.8089 353.976 79.4969 354.379 79.2889 354.896C79.0863 355.408 78.9849 356 78.9849 356.672C78.9849 357.712 79.2249 358.547 79.7049 359.176C80.1849 359.8 80.8916 360.112 81.8249 360.112ZM91.2585 361.216C90.7411 361.216 90.2878 361.136 89.8985 360.976C89.5145 360.816 89.1865 360.6 88.9145 360.328C88.6478 360.056 88.4318 359.747 88.2665 359.4C88.1011 359.048 87.9811 358.677 87.9065 358.288C87.8318 357.893 87.7945 357.501 87.7945 357.112V352.36H88.9785V356.768C88.9785 357.243 89.0238 357.683 89.1145 358.088C89.2051 358.493 89.3491 358.848 89.5465 359.152C89.7491 359.451 90.0078 359.683 90.3225 359.848C90.6425 360.013 91.0291 360.096 91.4825 360.096C91.8985 360.096 92.2638 360.024 92.5785 359.88C92.8985 359.736 93.1651 359.531 93.3785 359.264C93.5971 358.992 93.7625 358.664 93.8745 358.28C93.9865 357.891 94.0425 357.453 94.0425 356.968L94.8745 357.152C94.8745 358.037 94.7198 358.781 94.4105 359.384C94.1011 359.987 93.6745 360.443 93.1305 360.752C92.5865 361.061 91.9625 361.216 91.2585 361.216ZM94.1625 361V358.872H94.0425V352.36H95.2185V361H94.1625ZM97.7233 361V352.36H98.7793V354.44L98.5713 354.168C98.6673 353.912 98.7926 353.677 98.9473 353.464C99.1019 353.245 99.2699 353.067 99.4513 352.928C99.6753 352.731 99.9366 352.581 100.235 352.48C100.534 352.373 100.835 352.312 101.139 352.296C101.443 352.275 101.721 352.296 101.971 352.36V353.464C101.657 353.384 101.313 353.365 100.939 353.408C100.566 353.451 100.222 353.6 99.9073 353.856C99.6193 354.08 99.4033 354.349 99.2593 354.664C99.1153 354.973 99.0193 355.304 98.9713 355.656C98.9233 356.003 98.8993 356.347 98.8993 356.688V361H97.7233ZM108.462 361C107.976 361.101 107.496 361.141 107.022 361.12C106.552 361.099 106.131 360.997 105.758 360.816C105.39 360.635 105.11 360.352 104.918 359.968C104.763 359.648 104.678 359.325 104.662 359C104.651 358.669 104.646 358.293 104.646 357.872V349.96H105.814V357.824C105.814 358.187 105.816 358.491 105.822 358.736C105.832 358.976 105.888 359.189 105.99 359.376C106.182 359.733 106.486 359.947 106.902 360.016C107.323 360.085 107.843 360.069 108.462 359.968V361ZM102.798 353.368V352.36H108.462V353.368H102.798ZM116.673 361V356.592C116.673 356.112 116.627 355.672 116.537 355.272C116.446 354.867 116.299 354.515 116.097 354.216C115.899 353.912 115.641 353.677 115.321 353.512C115.006 353.347 114.622 353.264 114.169 353.264C113.753 353.264 113.385 353.336 113.065 353.48C112.75 353.624 112.483 353.832 112.265 354.104C112.051 354.371 111.889 354.696 111.777 355.08C111.665 355.464 111.609 355.901 111.609 356.392L110.777 356.208C110.777 355.323 110.931 354.579 111.241 353.976C111.55 353.373 111.977 352.917 112.521 352.608C113.065 352.299 113.689 352.144 114.393 352.144C114.91 352.144 115.361 352.224 115.745 352.384C116.134 352.544 116.462 352.76 116.729 353.032C117.001 353.304 117.219 353.616 117.385 353.968C117.55 354.315 117.67 354.685 117.745 355.08C117.819 355.469 117.857 355.859 117.857 356.248V361H116.673ZM110.425 361V349.48H111.489V355.984H111.609V361H110.425Z" fill="black"></path> </g> <g filter="url(#filter4_d_8687_352870)"> <path d="M53.98 90V79.92H58.145C58.243 79.92 58.369 79.9247 58.523 79.934C58.677 79.9387 58.8193 79.9527 58.95 79.976C59.5333 80.0647 60.014 80.2583 60.392 80.557C60.7747 80.8557 61.057 81.2337 61.239 81.691C61.4257 82.1437 61.519 82.6477 61.519 83.203C61.519 83.7537 61.4257 84.2577 61.239 84.715C61.0523 85.1677 60.7677 85.5433 60.385 85.842C60.007 86.1407 59.5287 86.3343 58.95 86.423C58.8193 86.4417 58.6747 86.4557 58.516 86.465C58.362 86.4743 58.2383 86.479 58.145 86.479H55.667V90H53.98ZM55.667 84.904H58.075C58.1683 84.904 58.2733 84.8993 58.39 84.89C58.5067 84.8807 58.614 84.862 58.712 84.834C58.992 84.764 59.2113 84.6403 59.37 84.463C59.5333 84.2857 59.6477 84.085 59.713 83.861C59.783 83.637 59.818 83.4177 59.818 83.203C59.818 82.9883 59.783 82.769 59.713 82.545C59.6477 82.3163 59.5333 82.1133 59.37 81.936C59.2113 81.7587 58.992 81.635 58.712 81.565C58.614 81.537 58.5067 81.5207 58.39 81.516C58.2733 81.5067 58.1683 81.502 58.075 81.502H55.667V84.904ZM63.1566 90V82.44H64.6476V84.281L64.4656 84.043C64.5589 83.791 64.6826 83.5623 64.8366 83.357C64.9953 83.147 65.1843 82.9743 65.4036 82.839C65.5903 82.713 65.7956 82.615 66.0196 82.545C66.2483 82.4703 66.4816 82.426 66.7196 82.412C66.9576 82.3933 67.1886 82.4027 67.4126 82.44V84.015C67.1886 83.9497 66.9296 83.9287 66.6356 83.952C66.3463 83.9753 66.0849 84.057 65.8516 84.197C65.6183 84.323 65.4269 84.484 65.2776 84.68C65.1329 84.876 65.0256 85.1 64.9556 85.352C64.8856 85.5993 64.8506 85.8677 64.8506 86.157V90H63.1566ZM69.1236 81.292V79.745H70.8106V81.292H69.1236ZM69.1236 90V82.44H70.8106V90H69.1236ZM82.2216 90V85.408C82.2216 84.89 82.0933 84.4863 81.8366 84.197C81.58 83.903 81.2323 83.756 80.7936 83.756C80.523 83.756 80.2803 83.819 80.0656 83.945C79.851 84.0663 79.6806 84.2483 79.5546 84.491C79.4286 84.729 79.3656 85.0137 79.3656 85.345L78.6166 84.904C78.612 84.3813 78.7286 83.9217 78.9666 83.525C79.2093 83.1237 79.536 82.811 79.9466 82.587C80.3573 82.363 80.8146 82.251 81.3186 82.251C82.154 82.251 82.7933 82.503 83.2366 83.007C83.6846 83.5063 83.9086 84.1643 83.9086 84.981V90H82.2216ZM73.1286 90V82.44H74.6196V84.785H74.8296V90H73.1286ZM77.6856 90V85.429C77.6856 84.9017 77.5573 84.491 77.3006 84.197C77.044 83.903 76.694 83.756 76.2506 83.756C75.8213 83.756 75.476 83.903 75.2146 84.197C74.958 84.491 74.8296 84.8737 74.8296 85.345L74.0736 84.841C74.0736 84.351 74.195 83.91 74.4376 83.518C74.6803 83.126 75.007 82.818 75.4176 82.594C75.833 82.3653 76.2973 82.251 76.8106 82.251C77.3753 82.251 77.8466 82.3723 78.2246 82.615C78.6073 82.853 78.892 83.1797 79.0786 83.595C79.27 84.0057 79.3656 84.47 79.3656 84.988V90H77.6856ZM88.0836 90.21C87.5376 90.21 87.0756 90.1073 86.6976 89.902C86.3196 89.692 86.0326 89.4143 85.8366 89.069C85.6453 88.7237 85.5496 88.3433 85.5496 87.928C85.5496 87.564 85.6103 87.2373 85.7316 86.948C85.853 86.654 86.0396 86.402 86.2916 86.192C86.5436 85.9773 86.8703 85.8023 87.2716 85.667C87.575 85.569 87.9296 85.4803 88.3356 85.401C88.7463 85.3217 89.1896 85.2493 89.6656 85.184C90.1463 85.114 90.648 85.0393 91.1706 84.96L90.5686 85.303C90.5733 84.7803 90.4566 84.3953 90.2186 84.148C89.9806 83.9007 89.5793 83.777 89.0146 83.777C88.674 83.777 88.345 83.8563 88.0276 84.015C87.7103 84.1737 87.4886 84.4467 87.3626 84.834L85.8226 84.351C86.0093 83.7117 86.364 83.1983 86.8866 82.811C87.414 82.4237 88.1233 82.23 89.0146 82.23C89.6866 82.23 90.277 82.3397 90.7856 82.559C91.299 82.7783 91.6793 83.1377 91.9266 83.637C92.062 83.903 92.1436 84.176 92.1716 84.456C92.1996 84.7313 92.2136 85.0323 92.2136 85.359V90H90.7366V88.362L90.9816 88.628C90.641 89.174 90.242 89.5753 89.7846 89.832C89.332 90.084 88.765 90.21 88.0836 90.21ZM88.4196 88.866C88.8023 88.866 89.129 88.7983 89.3996 88.663C89.6703 88.5277 89.885 88.362 90.0436 88.166C90.207 87.97 90.3166 87.7857 90.3726 87.613C90.4613 87.3983 90.5103 87.1533 90.5196 86.878C90.5336 86.598 90.5406 86.3717 90.5406 86.199L91.0586 86.353C90.55 86.4323 90.1136 86.5023 89.7496 86.563C89.3856 86.6237 89.073 86.682 88.8116 86.738C88.5503 86.7893 88.3193 86.8477 88.1186 86.913C87.9226 86.983 87.757 87.0647 87.6216 87.158C87.4863 87.2513 87.3813 87.3587 87.3066 87.48C87.2366 87.6013 87.2016 87.7437 87.2016 87.907C87.2016 88.0937 87.2483 88.2593 87.3416 88.404C87.435 88.544 87.5703 88.656 87.7476 88.74C87.9296 88.824 88.1536 88.866 88.4196 88.866ZM94.2712 90V82.44H95.7622V84.281L95.5802 84.043C95.6736 83.791 95.7972 83.5623 95.9512 83.357C96.1099 83.147 96.2989 82.9743 96.5182 82.839C96.7049 82.713 96.9102 82.615 97.1342 82.545C97.3629 82.4703 97.5962 82.426 97.8342 82.412C98.0722 82.3933 98.3032 82.4027 98.5272 82.44V84.015C98.3032 83.9497 98.0442 83.9287 97.7502 83.952C97.4609 83.9753 97.1996 84.057 96.9662 84.197C96.7329 84.323 96.5416 84.484 96.3922 84.68C96.2476 84.876 96.1402 85.1 96.0702 85.352C96.0002 85.5993 95.9652 85.8677 95.9652 86.157V90H94.2712ZM100.86 93.36L102.316 89.363L102.344 90.539L99.0468 82.44H100.804L103.142 88.432H102.694L104.969 82.44H106.656L102.442 93.36H100.86Z" fill="#9A0FBF"></path> </g> <g filter="url(#filter5_d_8687_352870)"> <path d="M57.711 226.21C56.9737 226.21 56.3087 226.082 55.716 225.825C55.128 225.568 54.6427 225.202 54.26 224.726C53.882 224.245 53.6417 223.676 53.539 223.018L55.289 222.752C55.4383 223.349 55.744 223.811 56.206 224.138C56.6727 224.465 57.2093 224.628 57.816 224.628C58.1753 224.628 58.5137 224.572 58.831 224.46C59.1483 224.348 59.405 224.185 59.601 223.97C59.8017 223.755 59.902 223.492 59.902 223.179C59.902 223.039 59.8787 222.911 59.832 222.794C59.7853 222.673 59.7153 222.565 59.622 222.472C59.5333 222.379 59.4167 222.295 59.272 222.22C59.132 222.141 58.9687 222.073 58.782 222.017L56.178 221.247C55.954 221.182 55.7113 221.095 55.45 220.988C55.1933 220.876 54.9483 220.724 54.715 220.533C54.4863 220.337 54.2973 220.09 54.148 219.791C54.0033 219.488 53.931 219.114 53.931 218.671C53.931 218.022 54.0943 217.479 54.421 217.04C54.7523 216.597 55.1957 216.265 55.751 216.046C56.311 215.827 56.9317 215.719 57.613 215.724C58.3037 215.729 58.9197 215.848 59.461 216.081C60.0023 216.31 60.455 216.643 60.819 217.082C61.183 217.521 61.4397 218.05 61.589 218.671L59.776 218.986C59.7013 218.631 59.5567 218.33 59.342 218.083C59.132 217.831 58.873 217.64 58.565 217.509C58.2617 217.378 57.9373 217.308 57.592 217.299C57.256 217.294 56.9433 217.346 56.654 217.453C56.3693 217.556 56.1383 217.705 55.961 217.901C55.7883 218.097 55.702 218.326 55.702 218.587C55.702 218.834 55.7767 219.037 55.926 219.196C56.0753 219.35 56.2597 219.474 56.479 219.567C56.703 219.656 56.9293 219.73 57.158 219.791L58.964 220.295C59.2113 220.36 59.489 220.449 59.797 220.561C60.105 220.673 60.4013 220.829 60.686 221.03C60.9707 221.231 61.204 221.494 61.386 221.821C61.5727 222.148 61.666 222.563 61.666 223.067C61.666 223.59 61.5563 224.049 61.337 224.446C61.1223 224.838 60.8307 225.165 60.462 225.426C60.0933 225.687 59.671 225.883 59.195 226.014C58.7237 226.145 58.229 226.21 57.711 226.21ZM66.8534 226.21C66.088 226.21 65.416 226.044 64.8374 225.713C64.2587 225.382 63.806 224.922 63.4794 224.334C63.1574 223.746 62.9964 223.069 62.9964 222.304C62.9964 221.478 63.155 220.762 63.4724 220.155C63.7897 219.544 64.2307 219.07 64.7954 218.734C65.36 218.398 66.0134 218.23 66.7554 218.23C67.5394 218.23 68.2044 218.414 68.7504 218.783C69.301 219.147 69.7094 219.663 69.9754 220.33C70.2414 220.997 70.3417 221.784 70.2764 222.689H68.6034V222.073C68.5987 221.252 68.454 220.652 68.1694 220.274C67.8847 219.896 67.4367 219.707 66.8254 219.707C66.1347 219.707 65.6214 219.922 65.2854 220.351C64.9494 220.776 64.7814 221.399 64.7814 222.22C64.7814 222.985 64.9494 223.578 65.2854 223.998C65.6214 224.418 66.1114 224.628 66.7554 224.628C67.1707 224.628 67.5277 224.537 67.8264 224.355C68.1297 224.168 68.363 223.9 68.5264 223.55L70.1924 224.054C69.903 224.735 69.455 225.265 68.8484 225.643C68.2464 226.021 67.5814 226.21 66.8534 226.21ZM64.2494 222.689V221.415H69.4504V222.689H64.2494ZM75.3564 226.21C74.5771 226.21 73.9121 226.037 73.3614 225.692C72.8108 225.342 72.3884 224.866 72.0944 224.264C71.8051 223.662 71.6581 222.981 71.6534 222.22C71.6581 221.445 71.8098 220.759 72.1084 220.162C72.4118 219.56 72.8411 219.089 73.3964 218.748C73.9518 218.403 74.6121 218.23 75.3774 218.23C76.2361 218.23 76.9618 218.447 77.5544 218.881C78.1518 219.31 78.5414 219.898 78.7234 220.645L77.0434 221.1C76.9128 220.694 76.6958 220.379 76.3924 220.155C76.0891 219.926 75.7438 219.812 75.3564 219.812C74.9178 219.812 74.5561 219.917 74.2714 220.127C73.9868 220.332 73.7768 220.617 73.6414 220.981C73.5061 221.345 73.4384 221.758 73.4384 222.22C73.4384 222.939 73.5994 223.52 73.9214 223.963C74.2434 224.406 74.7218 224.628 75.3564 224.628C75.8044 224.628 76.1568 224.525 76.4134 224.32C76.6748 224.115 76.8708 223.818 77.0014 223.431L78.7234 223.816C78.4901 224.586 78.0818 225.179 77.4984 225.594C76.9151 226.005 76.2011 226.21 75.3564 226.21ZM83.4953 226.21C82.7393 226.21 82.079 226.04 81.5143 225.699C80.9496 225.358 80.511 224.889 80.1983 224.292C79.8903 223.69 79.7363 222.999 79.7363 222.22C79.7363 221.427 79.895 220.731 80.2123 220.134C80.5296 219.537 80.9706 219.07 81.5353 218.734C82.1 218.398 82.7533 218.23 83.4953 218.23C84.256 218.23 84.9186 218.4 85.4833 218.741C86.048 219.082 86.4866 219.553 86.7993 220.155C87.112 220.752 87.2683 221.441 87.2683 222.22C87.2683 223.004 87.1096 223.697 86.7923 224.299C86.4796 224.896 86.041 225.365 85.4763 225.706C84.9116 226.042 84.2513 226.21 83.4953 226.21ZM83.4953 224.628C84.1673 224.628 84.6666 224.404 84.9933 223.956C85.32 223.508 85.4833 222.929 85.4833 222.22C85.4833 221.487 85.3176 220.904 84.9863 220.47C84.655 220.031 84.158 219.812 83.4953 219.812C83.0426 219.812 82.6693 219.915 82.3753 220.12C82.086 220.321 81.8713 220.603 81.7313 220.967C81.5913 221.326 81.5213 221.744 81.5213 222.22C81.5213 222.953 81.687 223.538 82.0183 223.977C82.3543 224.411 82.8466 224.628 83.4953 224.628ZM94.2748 226V222.36C94.2748 222.122 94.2585 221.858 94.2258 221.569C94.1931 221.28 94.1161 221.002 93.9948 220.736C93.8781 220.465 93.7008 220.244 93.4628 220.071C93.2295 219.898 92.9121 219.812 92.5108 219.812C92.2961 219.812 92.0838 219.847 91.8738 219.917C91.6638 219.987 91.4725 220.108 91.2998 220.281C91.1318 220.449 90.9965 220.682 90.8938 220.981C90.7911 221.275 90.7398 221.653 90.7398 222.115L89.7388 221.688C89.7388 221.044 89.8625 220.461 90.1098 219.938C90.3618 219.415 90.7305 219 91.2158 218.692C91.7011 218.379 92.2985 218.223 93.0078 218.223C93.5678 218.223 94.0298 218.316 94.3938 218.503C94.7578 218.69 95.0471 218.928 95.2618 219.217C95.4765 219.506 95.6351 219.814 95.7378 220.141C95.8405 220.468 95.9058 220.778 95.9338 221.072C95.9665 221.361 95.9828 221.597 95.9828 221.779V226H94.2748ZM89.0318 226V218.44H90.5368V220.785H90.7398V226H89.0318ZM100.953 226.21C100.257 226.21 99.6506 226.035 99.1326 225.685C98.6146 225.335 98.2133 224.859 97.9286 224.257C97.644 223.655 97.5016 222.976 97.5016 222.22C97.5016 221.455 97.644 220.773 97.9286 220.176C98.218 219.574 98.6263 219.1 99.1536 218.755C99.681 218.405 100.302 218.23 101.016 218.23C101.734 218.23 102.336 218.405 102.822 218.755C103.312 219.1 103.683 219.574 103.935 220.176C104.187 220.778 104.313 221.459 104.313 222.22C104.313 222.971 104.187 223.65 103.935 224.257C103.683 224.859 103.307 225.335 102.808 225.685C102.308 226.035 101.69 226.21 100.953 226.21ZM101.212 224.698C101.664 224.698 102.028 224.595 102.304 224.39C102.584 224.18 102.787 223.888 102.913 223.515C103.043 223.142 103.109 222.71 103.109 222.22C103.109 221.725 103.043 221.294 102.913 220.925C102.787 220.552 102.588 220.262 102.318 220.057C102.047 219.847 101.697 219.742 101.268 219.742C100.815 219.742 100.442 219.854 100.148 220.078C99.8536 220.297 99.6366 220.596 99.4966 220.974C99.3566 221.347 99.2866 221.763 99.2866 222.22C99.2866 222.682 99.3543 223.102 99.4896 223.48C99.6296 223.853 99.842 224.15 100.127 224.369C100.411 224.588 100.773 224.698 101.212 224.698ZM103.109 226V220.694H102.899V215.92H104.6V226H103.109ZM108.911 226.21C108.365 226.21 107.903 226.107 107.525 225.902C107.147 225.692 106.86 225.414 106.664 225.069C106.473 224.724 106.377 224.343 106.377 223.928C106.377 223.564 106.438 223.237 106.559 222.948C106.681 222.654 106.867 222.402 107.119 222.192C107.371 221.977 107.698 221.802 108.099 221.667C108.403 221.569 108.757 221.48 109.163 221.401C109.574 221.322 110.017 221.249 110.493 221.184C110.974 221.114 111.476 221.039 111.998 220.96L111.396 221.303C111.401 220.78 111.284 220.395 111.046 220.148C110.808 219.901 110.407 219.777 109.842 219.777C109.502 219.777 109.173 219.856 108.855 220.015C108.538 220.174 108.316 220.447 108.19 220.834L106.65 220.351C106.837 219.712 107.192 219.198 107.714 218.811C108.242 218.424 108.951 218.23 109.842 218.23C110.514 218.23 111.105 218.34 111.613 218.559C112.127 218.778 112.507 219.138 112.754 219.637C112.89 219.903 112.971 220.176 112.999 220.456C113.027 220.731 113.041 221.032 113.041 221.359V226H111.564V224.362L111.809 224.628C111.469 225.174 111.07 225.575 110.612 225.832C110.16 226.084 109.593 226.21 108.911 226.21ZM109.247 224.866C109.63 224.866 109.957 224.798 110.227 224.663C110.498 224.528 110.713 224.362 110.871 224.166C111.035 223.97 111.144 223.786 111.2 223.613C111.289 223.398 111.338 223.153 111.347 222.878C111.361 222.598 111.368 222.372 111.368 222.199L111.886 222.353C111.378 222.432 110.941 222.502 110.577 222.563C110.213 222.624 109.901 222.682 109.639 222.738C109.378 222.789 109.147 222.848 108.946 222.913C108.75 222.983 108.585 223.065 108.449 223.158C108.314 223.251 108.209 223.359 108.134 223.48C108.064 223.601 108.029 223.744 108.029 223.907C108.029 224.094 108.076 224.259 108.169 224.404C108.263 224.544 108.398 224.656 108.575 224.74C108.757 224.824 108.981 224.866 109.247 224.866ZM115.099 226V218.44H116.59V220.281L116.408 220.043C116.501 219.791 116.625 219.562 116.779 219.357C116.938 219.147 117.127 218.974 117.346 218.839C117.533 218.713 117.738 218.615 117.962 218.545C118.191 218.47 118.424 218.426 118.662 218.412C118.9 218.393 119.131 218.403 119.355 218.44V220.015C119.131 219.95 118.872 219.929 118.578 219.952C118.289 219.975 118.027 220.057 117.794 220.197C117.561 220.323 117.369 220.484 117.22 220.68C117.075 220.876 116.968 221.1 116.898 221.352C116.828 221.599 116.793 221.868 116.793 222.157V226H115.099ZM121.688 229.36L123.144 225.363L123.172 226.539L119.875 218.44H121.632L123.97 224.432H123.522L125.797 218.44H127.484L123.27 229.36H121.688Z" fill="#9A0FBF"></path> </g> <g filter="url(#filter6_dd_8687_352870)"> <path d="M138.925 193.632L118.886 188.754L124.071 208.09L128.246 204.53L135.146 209.628L140.111 204.53L134.53 198.026L138.925 193.632Z" fill="black" stroke="black" stroke-width="0.818182"></path> <path d="M141.195 203.736L136.027 198.569L139.756 194.84C140.079 194.517 140.212 194.049 140.107 193.605C140.002 193.16 139.674 192.801 139.241 192.657L118.852 187.183C118.378 187.025 117.855 187.149 117.502 187.502C117.149 187.855 117.026 188.377 117.184 188.851L122.657 209.24C122.802 209.673 123.161 210.001 123.605 210.106C124.05 210.211 124.517 210.078 124.84 209.755L128.569 206.026L133.737 211.194C133.994 211.452 134.332 211.58 134.669 211.58C135.007 211.58 135.344 211.452 135.601 211.194L141.195 205.601C141.71 205.086 141.71 204.251 141.195 203.736ZM134.669 208.397L129.501 203.23C128.987 202.715 128.152 202.715 127.637 203.23L124.484 206.382L120.519 190.519L136.383 194.484L133.23 197.636C132.716 198.151 132.715 198.986 133.23 199.501L138.398 204.669L134.669 208.397Z" fill="white"></path> </g> </g> <defs> <filter id="filter0_dd_8687_352870" x="0" y="42" width="284" height="393" filterUnits="userSpaceOnUse" color-interpolation-filters="sRGB"> <feFlood flood-opacity="0" result="BackgroundImageFix"></feFlood> <feColorMatrix in="SourceAlpha" type="matrix" values="0 0 0 0 0 0 0 0 0 0 0 0 0 0 0 0 0 0 127 0" result="hardAlpha"></feColorMatrix> <feMorphology radius="2" operator="dilate" in="SourceAlpha" result="effect1_dropShadow_8687_352870"></feMorphology> <feOffset dy="16"></feOffset> <feGaussianBlur stdDeviation="16"></feGaussianBlur> <feColorMatrix type="matrix" values="0 0 0 0 0.380392 0 0 0 0 0.380392 0 0 0 0 0.380392 0 0 0 0.06 0"></feColorMatrix> <feBlend mode="multiply" in2="BackgroundImageFix" result="effect1_dropShadow_8687_352870"></feBlend> <feColorMatrix in="SourceAlpha" type="matrix" values="0 0 0 0 0 0 0 0 0 0 0 0 0 0 0 0 0 0 127 0" result="hardAlpha"></feColorMatrix> <feMorphology radius="2" operator="dilate" in="SourceAlpha" result="effect2_dropShadow_8687_352870"></feMorphology> <feOffset dy="8"></feOffset> <feGaussianBlur stdDeviation="8"></feGaussianBlur> <feColorMatrix type="matrix" values="0 0 0 0 0.380392 0 0 0 0 0.380392 0 0 0 0 0.380392 0 0 0 0.06 0"></feColorMatrix> <feBlend mode="multiply" in2="effect1_dropShadow_8687_352870" result="effect2_dropShadow_8687_352870"></feBlend> <feBlend mode="normal" in="SourceGraphic" in2="effect2_dropShadow_8687_352870" result="shape"></feBlend> </filter> <filter id="filter1_i_8687_352870" x="46" y="166.5" width="192" height="38" filterUnits="userSpaceOnUse" color-interpolation-filters="sRGB"> <feFlood flood-opacity="0" result="BackgroundImageFix"></feFlood> <feBlend mode="normal" in="SourceGraphic" in2="BackgroundImageFix" result="shape"></feBlend> <feColorMatrix in="SourceAlpha" type="matrix" values="0 0 0 0 0 0 0 0 0 0 0 0 0 0 0 0 0 0 127 0" result="hardAlpha"></feColorMatrix> <feOffset dy="2"></feOffset> <feGaussianBlur stdDeviation="1.5"></feGaussianBlur> <feComposite in2="hardAlpha" operator="arithmetic" k2="-1" k3="1"></feComposite> <feColorMatrix type="matrix" values="0 0 0 0 0.115208 0 0 0 0 0.235025 0 0 0 0 0.543125 0 0 0 0.16 0"></feColorMatrix> <feBlend mode="normal" in2="shape" result="effect1_innerShadow_8687_352870"></feBlend> </filter> <filter id="filter2_d_8687_352870" x="67.1602" y="107.4" width="73.0859" height="85.84" filterUnits="userSpaceOnUse" color-interpolation-filters="sRGB"> <feFlood flood-opacity="0" result="BackgroundImageFix"></feFlood> <feColorMatrix in="SourceAlpha" type="matrix" values="0 0 0 0 0 0 0 0 0 0 0 0 0 0 0 0 0 0 127 0" result="hardAlpha"></feColorMatrix> <feOffset dy="1"></feOffset> <feGaussianBlur stdDeviation="1"></feGaussianBlur> <feComposite in2="hardAlpha" operator="out"></feComposite> <feColorMatrix type="matrix" values="0 0 0 0 1 0 0 0 0 1 0 0 0 0 1 0 0 0 1 0"></feColorMatrix> <feBlend mode="normal" in2="BackgroundImageFix" result="effect1_dropShadow_8687_352870"></feBlend> <feBlend mode="normal" in="SourceGraphic" in2="effect1_dropShadow_8687_352870" result="shape"></feBlend> </filter> <filter id="filter3_d_8687_352870" x="67.1602" y="243.4" width="73.0859" height="120.84" filterUnits="userSpaceOnUse" color-interpolation-filters="sRGB"> <feFlood flood-opacity="0" result="BackgroundImageFix"></feFlood> <feColorMatrix in="SourceAlpha" type="matrix" values="0 0 0 0 0 0 0 0 0 0 0 0 0 0 0 0 0 0 127 0" result="hardAlpha"></feColorMatrix> <feOffset dy="1"></feOffset> <feGaussianBlur stdDeviation="1"></feGaussianBlur> <feComposite in2="hardAlpha" operator="out"></feComposite> <feColorMatrix type="matrix" values="0 0 0 0 1 0 0 0 0 1 0 0 0 0 1 0 0 0 1 0"></feColorMatrix> <feBlend mode="normal" in2="BackgroundImageFix" result="effect1_dropShadow_8687_352870"></feBlend> <feBlend mode="normal" in="SourceGraphic" in2="effect1_dropShadow_8687_352870" result="shape"></feBlend> </filter> <filter id="filter4_d_8687_352870" x="51.9805" y="78.745" width="56.6758" height="17.615" filterUnits="userSpaceOnUse" color-interpolation-filters="sRGB"> <feFlood flood-opacity="0" result="BackgroundImageFix"></feFlood> <feColorMatrix in="SourceAlpha" type="matrix" values="0 0 0 0 0 0 0 0 0 0 0 0 0 0 0 0 0 0 127 0" result="hardAlpha"></feColorMatrix> <feOffset dy="1"></feOffset> <feGaussianBlur stdDeviation="1"></feGaussianBlur> <feComposite in2="hardAlpha" operator="out"></feComposite> <feColorMatrix type="matrix" values="0 0 0 0 1 0 0 0 0 1 0 0 0 0 1 0 0 0 1 0"></feColorMatrix> <feBlend mode="normal" in2="BackgroundImageFix" result="effect1_dropShadow_8687_352870"></feBlend> <feBlend mode="normal" in="SourceGraphic" in2="effect1_dropShadow_8687_352870" result="shape"></feBlend> </filter> <filter id="filter5_d_8687_352870" x="51.5391" y="214.717" width="77.9443" height="17.643" filterUnits="userSpaceOnUse" color-interpolation-filters="sRGB"> <feFlood flood-opacity="0" result="BackgroundImageFix"></feFlood> <feColorMatrix in="SourceAlpha" type="matrix" values="0 0 0 0 0 0 0 0 0 0 0 0 0 0 0 0 0 0 127 0" result="hardAlpha"></feColorMatrix> <feOffset dy="1"></feOffset> <feGaussianBlur stdDeviation="1"></feGaussianBlur> <feComposite in2="hardAlpha" operator="out"></feComposite> <feColorMatrix type="matrix" values="0 0 0 0 1 0 0 0 0 1 0 0 0 0 1 0 0 0 1 0"></feColorMatrix> <feBlend mode="normal" in2="BackgroundImageFix" result="effect1_dropShadow_8687_352870"></feBlend> <feBlend mode="normal" in="SourceGraphic" in2="effect1_dropShadow_8687_352870" result="shape"></feBlend> </filter> <filter id="filter6_dd_8687_352870" x="85" y="163" width="77" height="77" filterUnits="userSpaceOnUse" color-interpolation-filters="sRGB"> <feFlood flood-opacity="0" result="BackgroundImageFix"></feFlood> <feColorMatrix in="SourceAlpha" type="matrix" values="0 0 0 0 0 0 0 0 0 0 0 0 0 0 0 0 0 0 127 0" result="hardAlpha"></feColorMatrix> <feOffset dy="8"></feOffset> <feGaussianBlur stdDeviation="8"></feGaussianBlur> <feColorMatrix type="matrix" values="0 0 0 0 0.380392 0 0 0 0 0.380392 0 0 0 0 0.380392 0 0 0 0.14 0"></feColorMatrix> <feBlend mode="multiply" in2="BackgroundImageFix" result="effect1_dropShadow_8687_352870"></feBlend> <feColorMatrix in="SourceAlpha" type="matrix" values="0 0 0 0 0 0 0 0 0 0 0 0 0 0 0 0 0 0 127 0" result="hardAlpha"></feColorMatrix> <feOffset dy="4"></feOffset> <feGaussianBlur stdDeviation="4"></feGaussianBlur> <feColorMatrix type="matrix" values="0 0 0 0 0.380392 0 0 0 0 0.380392 0 0 0 0 0.380392 0 0 0 0.14 0"></feColorMatrix> <feBlend mode="multiply" in2="effect1_dropShadow_8687_352870" result="effect2_dropShadow_8687_352870"></feBlend> <feBlend mode="normal" in="SourceGraphic" in2="effect2_dropShadow_8687_352870" result="shape"></feBlend> </filter> <clipPath id="clip0_8687_352870"> <rect width="284" height="435" fill="white"></rect> </clipPath> </defs> </svg> 