<?xml version="1.0" encoding="UTF-8"?> <svg xmlns="http://www.w3.org/2000/svg" width="221" height="256" viewBox="0 0 221 256" fill="none"> <g clip-path="url(#clip0_8616_110031)"> <rect width="221" height="256" fill="white"></rect> <g filter="url(#filter0_dd_8616_110031)"> <path d="M6 22C6 14.4575 6 10.6863 8.34315 8.34315C10.6863 6 14.4575 6 22 6H206C209.771 6 211.657 6 212.828 7.17157C214 8.34315 214 10.2288 214 14V230C214 237.542 214 241.314 211.657 243.657C209.314 246 205.542 246 198 246H22C14.4575 246 10.6863 246 8.34315 243.657C6 241.314 6 237.542 6 230V22Z" fill="white"></path> </g> <rect x="30" y="25" width="132" height="12" rx="4" fill="#A1A1A1"></rect> <rect x="30" y="72" width="96" height="12" rx="4" fill="#A1A1A1"></rect> <rect x="30" y="120" width="32" height="12" rx="4" fill="#A1A1A1"></rect> <rect x="70" y="120" width="104" height="12" rx="4" fill="#A1A1A1"></rect> <rect x="30" y="168" width="123" height="12" rx="4" fill="#A1A1A1"></rect> <rect x="30" y="216" width="132" height="12" rx="4" fill="#A1A1A1"></rect> <line x1="6" y1="53.5" x2="215" y2="53.5" stroke="#E0E0E0"></line> <line x1="6" y1="101.5" x2="215" y2="101.5" stroke="#E0E0E0"></line> <line x1="6" y1="149.5" x2="215" y2="149.5" stroke="#E0E0E0"></line> <line x1="6" y1="197.5" x2="215" y2="197.5" stroke="#E0E0E0"></line> <rect opacity="0.5" x="205" y="9" width="6" height="104" rx="3" fill="#A1A1A1"></rect> <g style="mix-blend-mode:multiply" opacity="0.5"> <rect x="6" y="149" width="208" height="49" fill="#C5DCFA"></rect> </g> <g filter="url(#filter1_dd_8616_110031)"> <path d="M166.925 182.632L146.886 177.754L152.071 197.09L156.246 193.53L163.146 198.628L168.111 193.53L162.53 187.026L166.925 182.632Z" fill="black" stroke="black" stroke-width="0.818182"></path> <path d="M169.195 192.736L164.027 187.568L167.756 183.84C168.079 183.517 168.212 183.049 168.107 182.604C168.002 182.16 167.674 181.801 167.241 181.657L146.852 176.183C146.378 176.025 145.855 176.149 145.502 176.502C145.149 176.855 145.026 177.377 145.184 177.851L150.657 198.24C150.802 198.673 151.161 199.001 151.605 199.106C152.05 199.211 152.517 199.078 152.84 198.755L156.569 195.026L161.737 200.194C161.994 200.451 162.332 200.58 162.669 200.58C163.007 200.58 163.344 200.452 163.601 200.194L169.195 194.601C169.71 194.086 169.71 193.251 169.195 192.736ZM162.669 197.397L157.501 192.23C156.987 191.715 156.152 191.715 155.637 192.23L152.484 195.382L148.519 179.518L164.383 183.484L161.23 186.636C160.716 187.151 160.715 187.986 161.23 188.501L166.398 193.668L162.669 197.397Z" fill="white"></path> </g> </g> <defs> <filter id="filter0_dd_8616_110031" x="-2" y="2" width="224" height="256" filterUnits="userSpaceOnUse" color-interpolation-filters="sRGB"> <feFlood flood-opacity="0" result="BackgroundImageFix"></feFlood> <feColorMatrix in="SourceAlpha" type="matrix" values="0 0 0 0 0 0 0 0 0 0 0 0 0 0 0 0 0 0 127 0" result="hardAlpha"></feColorMatrix> <feOffset dy="4"></feOffset> <feGaussianBlur stdDeviation="4"></feGaussianBlur> <feColorMatrix type="matrix" values="0 0 0 0 0.380392 0 0 0 0 0.380392 0 0 0 0 0.380392 0 0 0 0.18 0"></feColorMatrix> <feBlend mode="multiply" in2="BackgroundImageFix" result="effect1_dropShadow_8616_110031"></feBlend> <feColorMatrix in="SourceAlpha" type="matrix" values="0 0 0 0 0 0 0 0 0 0 0 0 0 0 0 0 0 0 127 0" result="hardAlpha"></feColorMatrix> <feOffset dy="2"></feOffset> <feGaussianBlur stdDeviation="2"></feGaussianBlur> <feColorMatrix type="matrix" values="0 0 0 0 0.380392 0 0 0 0 0.380392 0 0 0 0 0.380392 0 0 0 0.18 0"></feColorMatrix> <feBlend mode="multiply" in2="effect1_dropShadow_8616_110031" result="effect2_dropShadow_8616_110031"></feBlend> <feBlend mode="normal" in="SourceGraphic" in2="effect2_dropShadow_8616_110031" result="shape"></feBlend> </filter> <filter id="filter1_dd_8616_110031" x="113" y="152" width="77" height="77" filterUnits="userSpaceOnUse" color-interpolation-filters="sRGB"> <feFlood flood-opacity="0" result="BackgroundImageFix"></feFlood> <feColorMatrix in="SourceAlpha" type="matrix" values="0 0 0 0 0 0 0 0 0 0 0 0 0 0 0 0 0 0 127 0" result="hardAlpha"></feColorMatrix> <feOffset dy="8"></feOffset> <feGaussianBlur stdDeviation="8"></feGaussianBlur> <feColorMatrix type="matrix" values="0 0 0 0 0.380392 0 0 0 0 0.380392 0 0 0 0 0.380392 0 0 0 0.14 0"></feColorMatrix> <feBlend mode="multiply" in2="BackgroundImageFix" result="effect1_dropShadow_8616_110031"></feBlend> <feColorMatrix in="SourceAlpha" type="matrix" values="0 0 0 0 0 0 0 0 0 0 0 0 0 0 0 0 0 0 127 0" result="hardAlpha"></feColorMatrix> <feOffset dy="4"></feOffset> <feGaussianBlur stdDeviation="4"></feGaussianBlur> <feColorMatrix type="matrix" values="0 0 0 0 0.380392 0 0 0 0 0.380392 0 0 0 0 0.380392 0 0 0 0.14 0"></feColorMatrix> <feBlend mode="multiply" in2="effect1_dropShadow_8616_110031" result="effect2_dropShadow_8616_110031"></feBlend> <feBlend mode="normal" in="SourceGraphic" in2="effect2_dropShadow_8616_110031" result="shape"></feBlend> </filter> <clipPath id="clip0_8616_110031"> <rect width="221" height="256" fill="white"></rect> </clipPath> </defs> </svg> 