<?xml version="1.0" encoding="UTF-8"?> <svg xmlns="http://www.w3.org/2000/svg" width="640" height="480" viewBox="0 0 640 480" fill="none"> <g clip-path="url(#clip0_9013_375351)"> <rect width="640" height="480" rx="24" fill="#F7F6F8"></rect> <rect x="18" y="18" width="4" height="4" rx="2" fill="#D9D4E8"></rect> <rect x="58" y="18" width="4" height="4" rx="2" fill="#D9D4E8"></rect> <rect x="98" y="18" width="4" height="4" rx="2" fill="#D9D4E8"></rect> <rect x="138" y="18" width="4" height="4" rx="2" fill="#D9D4E8"></rect> <rect x="178" y="18" width="4" height="4" rx="2" fill="#D9D4E8"></rect> <rect x="218" y="18" width="4" height="4" rx="2" fill="#D9D4E8"></rect> <rect x="258" y="18" width="4" height="4" rx="2" fill="#D9D4E8"></rect> <rect x="298" y="18" width="4" height="4" rx="2" fill="#D9D4E8"></rect> <rect x="338" y="18" width="4" height="4" rx="2" fill="#D9D4E8"></rect> <rect x="378" y="18" width="4" height="4" rx="2" fill="#D9D4E8"></rect> <rect x="418" y="18" width="4" height="4" rx="2" fill="#D9D4E8"></rect> <rect x="458" y="18" width="4" height="4" rx="2" fill="#D9D4E8"></rect> <rect x="498" y="18" width="4" height="4" rx="2" fill="#D9D4E8"></rect> <rect x="538" y="18" width="4" height="4" rx="2" fill="#D9D4E8"></rect> <rect x="578" y="18" width="4" height="4" rx="2" fill="#D9D4E8"></rect> <rect x="618" y="18" width="4" height="4" rx="2" fill="#D9D4E8"></rect> <rect x="18" y="58" width="4" height="4" rx="2" fill="#D9D4E8"></rect> <rect x="58" y="58" width="4" height="4" rx="2" fill="#D9D4E8"></rect> <rect x="98" y="58" width="4" height="4" rx="2" fill="#D9D4E8"></rect> <rect x="138" y="58" width="4" height="4" rx="2" fill="#D9D4E8"></rect> <rect x="178" y="58" width="4" height="4" rx="2" fill="#D9D4E8"></rect> <rect x="218" y="58" width="4" height="4" rx="2" fill="#D9D4E8"></rect> <rect x="258" y="58" width="4" height="4" rx="2" fill="#D9D4E8"></rect> <rect x="298" y="58" width="4" height="4" rx="2" fill="#D9D4E8"></rect> <rect x="338" y="58" width="4" height="4" rx="2" fill="#D9D4E8"></rect> <rect x="378" y="58" width="4" height="4" rx="2" fill="#D9D4E8"></rect> <rect x="418" y="58" width="4" height="4" rx="2" fill="#D9D4E8"></rect> <rect x="458" y="58" width="4" height="4" rx="2" fill="#D9D4E8"></rect> <rect x="498" y="58" width="4" height="4" rx="2" fill="#D9D4E8"></rect> <rect x="538" y="58" width="4" height="4" rx="2" fill="#D9D4E8"></rect> <rect x="578" y="58" width="4" height="4" rx="2" fill="#D9D4E8"></rect> <rect x="618" y="58" width="4" height="4" rx="2" fill="#D9D4E8"></rect> <rect x="18" y="98" width="4" height="4" rx="2" fill="#D9D4E8"></rect> <rect x="58" y="98" width="4" height="4" rx="2" fill="#D9D4E8"></rect> <rect x="98" y="98" width="4" height="4" rx="2" fill="#D9D4E8"></rect> <rect x="138" y="98" width="4" height="4" rx="2" fill="#D9D4E8"></rect> <rect x="178" y="98" width="4" height="4" rx="2" fill="#D9D4E8"></rect> <rect x="218" y="98" width="4" height="4" rx="2" fill="#D9D4E8"></rect> <rect x="258" y="98" width="4" height="4" rx="2" fill="#D9D4E8"></rect> <rect x="298" y="98" width="4" height="4" rx="2" fill="#D9D4E8"></rect> <rect x="338" y="98" width="4" height="4" rx="2" fill="#D9D4E8"></rect> <rect x="378" y="98" width="4" height="4" rx="2" fill="#D9D4E8"></rect> <rect x="418" y="98" width="4" height="4" rx="2" fill="#D9D4E8"></rect> <rect x="458" y="98" width="4" height="4" rx="2" fill="#D9D4E8"></rect> <rect x="498" y="98" width="4" height="4" rx="2" fill="#D9D4E8"></rect> <rect x="538" y="98" width="4" height="4" rx="2" fill="#D9D4E8"></rect> <rect x="578" y="98" width="4" height="4" rx="2" fill="#D9D4E8"></rect> <rect x="618" y="98" width="4" height="4" rx="2" fill="#D9D4E8"></rect> <rect x="18" y="138" width="4" height="4" rx="2" fill="#D9D4E8"></rect> <rect x="58" y="138" width="4" height="4" rx="2" fill="#D9D4E8"></rect> <rect x="98" y="138" width="4" height="4" rx="2" fill="#D9D4E8"></rect> <rect x="138" y="138" width="4" height="4" rx="2" fill="#D9D4E8"></rect> <rect x="178" y="138" width="4" height="4" rx="2" fill="#D9D4E8"></rect> <rect x="218" y="138" width="4" height="4" rx="2" fill="#D9D4E8"></rect> <rect x="258" y="138" width="4" height="4" rx="2" fill="#D9D4E8"></rect> <rect x="298" y="138" width="4" height="4" rx="2" fill="#D9D4E8"></rect> <rect x="338" y="138" width="4" height="4" rx="2" fill="#D9D4E8"></rect> <rect x="378" y="138" width="4" height="4" rx="2" fill="#D9D4E8"></rect> <rect x="418" y="138" width="4" height="4" rx="2" fill="#D9D4E8"></rect> <rect x="458" y="138" width="4" height="4" rx="2" fill="#D9D4E8"></rect> <rect x="498" y="138" width="4" height="4" rx="2" fill="#D9D4E8"></rect> <rect x="538" y="138" width="4" height="4" rx="2" fill="#D9D4E8"></rect> <rect x="578" y="138" width="4" height="4" rx="2" fill="#D9D4E8"></rect> <rect x="618" y="138" width="4" height="4" rx="2" fill="#D9D4E8"></rect> <rect x="18" y="178" width="4" height="4" rx="2" fill="#D9D4E8"></rect> <rect x="58" y="178" width="4" height="4" rx="2" fill="#D9D4E8"></rect> <rect x="98" y="178" width="4" height="4" rx="2" fill="#D9D4E8"></rect> <rect x="138" y="178" width="4" height="4" rx="2" fill="#D9D4E8"></rect> <rect x="178" y="178" width="4" height="4" rx="2" fill="#D9D4E8"></rect> <rect x="218" y="178" width="4" height="4" rx="2" fill="#D9D4E8"></rect> <rect x="258" y="178" width="4" height="4" rx="2" fill="#D9D4E8"></rect> <rect x="298" y="178" width="4" height="4" rx="2" fill="#D9D4E8"></rect> <rect x="338" y="178" width="4" height="4" rx="2" fill="#D9D4E8"></rect> <rect x="378" y="178" width="4" height="4" rx="2" fill="#D9D4E8"></rect> <rect x="418" y="178" width="4" height="4" rx="2" fill="#D9D4E8"></rect> <rect x="458" y="178" width="4" height="4" rx="2" fill="#D9D4E8"></rect> <rect x="498" y="178" width="4" height="4" rx="2" fill="#D9D4E8"></rect> <rect x="538" y="178" width="4" height="4" rx="2" fill="#D9D4E8"></rect> <rect x="578" y="178" width="4" height="4" rx="2" fill="#D9D4E8"></rect> <rect x="618" y="178" width="4" height="4" rx="2" fill="#D9D4E8"></rect> <rect x="18" y="218" width="4" height="4" rx="2" fill="#D9D4E8"></rect> <rect x="58" y="218" width="4" height="4" rx="2" fill="#D9D4E8"></rect> <rect x="98" y="218" width="4" height="4" rx="2" fill="#D9D4E8"></rect> <rect x="138" y="218" width="4" height="4" rx="2" fill="#D9D4E8"></rect> <rect x="178" y="218" width="4" height="4" rx="2" fill="#D9D4E8"></rect> <rect x="218" y="218" width="4" height="4" rx="2" fill="#D9D4E8"></rect> <rect x="258" y="218" width="4" height="4" rx="2" fill="#D9D4E8"></rect> <rect x="298" y="218" width="4" height="4" rx="2" fill="#D9D4E8"></rect> <rect x="338" y="218" width="4" height="4" rx="2" fill="#D9D4E8"></rect> <rect x="378" y="218" width="4" height="4" rx="2" fill="#D9D4E8"></rect> <rect x="418" y="218" width="4" height="4" rx="2" fill="#D9D4E8"></rect> <rect x="458" y="218" width="4" height="4" rx="2" fill="#D9D4E8"></rect> <rect x="498" y="218" width="4" height="4" rx="2" fill="#D9D4E8"></rect> <rect x="538" y="218" width="4" height="4" rx="2" fill="#D9D4E8"></rect> <rect x="578" y="218" width="4" height="4" rx="2" fill="#D9D4E8"></rect> <rect x="618" y="218" width="4" height="4" rx="2" fill="#D9D4E8"></rect> <rect x="18" y="258" width="4" height="4" rx="2" fill="#D9D4E8"></rect> <rect x="58" y="258" width="4" height="4" rx="2" fill="#D9D4E8"></rect> <rect x="98" y="258" width="4" height="4" rx="2" fill="#D9D4E8"></rect> <rect x="138" y="258" width="4" height="4" rx="2" fill="#D9D4E8"></rect> <rect x="178" y="258" width="4" height="4" rx="2" fill="#D9D4E8"></rect> <rect x="218" y="258" width="4" height="4" rx="2" fill="#D9D4E8"></rect> <rect x="258" y="258" width="4" height="4" rx="2" fill="#D9D4E8"></rect> <rect x="298" y="258" width="4" height="4" rx="2" fill="#D9D4E8"></rect> <rect x="338" y="258" width="4" height="4" rx="2" fill="#D9D4E8"></rect> <rect x="378" y="258" width="4" height="4" rx="2" fill="#D9D4E8"></rect> <rect x="418" y="258" width="4" height="4" rx="2" fill="#D9D4E8"></rect> <rect x="458" y="258" width="4" height="4" rx="2" fill="#D9D4E8"></rect> <rect x="498" y="258" width="4" height="4" rx="2" fill="#D9D4E8"></rect> <rect x="538" y="258" width="4" height="4" rx="2" fill="#D9D4E8"></rect> <rect x="578" y="258" width="4" height="4" rx="2" fill="#D9D4E8"></rect> <rect x="618" y="258" width="4" height="4" rx="2" fill="#D9D4E8"></rect> <rect x="18" y="298" width="4" height="4" rx="2" fill="#D9D4E8"></rect> <rect x="58" y="298" width="4" height="4" rx="2" fill="#D9D4E8"></rect> <rect x="98" y="298" width="4" height="4" rx="2" fill="#D9D4E8"></rect> <rect x="138" y="298" width="4" height="4" rx="2" fill="#D9D4E8"></rect> <rect x="178" y="298" width="4" height="4" rx="2" fill="#D9D4E8"></rect> <rect x="218" y="298" width="4" height="4" rx="2" fill="#D9D4E8"></rect> <rect x="258" y="298" width="4" height="4" rx="2" fill="#D9D4E8"></rect> <rect x="298" y="298" width="4" height="4" rx="2" fill="#D9D4E8"></rect> <rect x="338" y="298" width="4" height="4" rx="2" fill="#D9D4E8"></rect> <rect x="378" y="298" width="4" height="4" rx="2" fill="#D9D4E8"></rect> <rect x="418" y="298" width="4" height="4" rx="2" fill="#D9D4E8"></rect> <rect x="458" y="298" width="4" height="4" rx="2" fill="#D9D4E8"></rect> <rect x="498" y="298" width="4" height="4" rx="2" fill="#D9D4E8"></rect> <rect x="538" y="298" width="4" height="4" rx="2" fill="#D9D4E8"></rect> <rect x="578" y="298" width="4" height="4" rx="2" fill="#D9D4E8"></rect> <rect x="618" y="298" width="4" height="4" rx="2" fill="#D9D4E8"></rect> <rect x="18" y="338" width="4" height="4" rx="2" fill="#D9D4E8"></rect> <rect x="58" y="338" width="4" height="4" rx="2" fill="#D9D4E8"></rect> <rect x="98" y="338" width="4" height="4" rx="2" fill="#D9D4E8"></rect> <rect x="138" y="338" width="4" height="4" rx="2" fill="#D9D4E8"></rect> <rect x="178" y="338" width="4" height="4" rx="2" fill="#D9D4E8"></rect> <rect x="218" y="338" width="4" height="4" rx="2" fill="#D9D4E8"></rect> <rect x="258" y="338" width="4" height="4" rx="2" fill="#D9D4E8"></rect> <rect x="298" y="338" width="4" height="4" rx="2" fill="#D9D4E8"></rect> <rect x="338" y="338" width="4" height="4" rx="2" fill="#D9D4E8"></rect> <rect x="378" y="338" width="4" height="4" rx="2" fill="#D9D4E8"></rect> <rect x="418" y="338" width="4" height="4" rx="2" fill="#D9D4E8"></rect> <rect x="458" y="338" width="4" height="4" rx="2" fill="#D9D4E8"></rect> <rect x="498" y="338" width="4" height="4" rx="2" fill="#D9D4E8"></rect> <rect x="538" y="338" width="4" height="4" rx="2" fill="#D9D4E8"></rect> <rect x="578" y="338" width="4" height="4" rx="2" fill="#D9D4E8"></rect> <rect x="618" y="338" width="4" height="4" rx="2" fill="#D9D4E8"></rect> <rect x="18" y="378" width="4" height="4" rx="2" fill="#D9D4E8"></rect> <rect x="58" y="378" width="4" height="4" rx="2" fill="#D9D4E8"></rect> <rect x="98" y="378" width="4" height="4" rx="2" fill="#D9D4E8"></rect> <rect x="138" y="378" width="4" height="4" rx="2" fill="#D9D4E8"></rect> <rect x="178" y="378" width="4" height="4" rx="2" fill="#D9D4E8"></rect> <rect x="218" y="378" width="4" height="4" rx="2" fill="#D9D4E8"></rect> <rect x="258" y="378" width="4" height="4" rx="2" fill="#D9D4E8"></rect> <rect x="298" y="378" width="4" height="4" rx="2" fill="#D9D4E8"></rect> <rect x="338" y="378" width="4" height="4" rx="2" fill="#D9D4E8"></rect> <rect x="378" y="378" width="4" height="4" rx="2" fill="#D9D4E8"></rect> <rect x="418" y="378" width="4" height="4" rx="2" fill="#D9D4E8"></rect> <rect x="458" y="378" width="4" height="4" rx="2" fill="#D9D4E8"></rect> <rect x="498" y="378" width="4" height="4" rx="2" fill="#D9D4E8"></rect> <rect x="538" y="378" width="4" height="4" rx="2" fill="#D9D4E8"></rect> <rect x="578" y="378" width="4" height="4" rx="2" fill="#D9D4E8"></rect> <rect x="618" y="378" width="4" height="4" rx="2" fill="#D9D4E8"></rect> <rect x="18" y="418" width="4" height="4" rx="2" fill="#D9D4E8"></rect> <rect x="58" y="418" width="4" height="4" rx="2" fill="#D9D4E8"></rect> <rect x="98" y="418" width="4" height="4" rx="2" fill="#D9D4E8"></rect> <rect x="138" y="418" width="4" height="4" rx="2" fill="#D9D4E8"></rect> <rect x="178" y="418" width="4" height="4" rx="2" fill="#D9D4E8"></rect> <rect x="218" y="418" width="4" height="4" rx="2" fill="#D9D4E8"></rect> <rect x="258" y="418" width="4" height="4" rx="2" fill="#D9D4E8"></rect> <rect x="298" y="418" width="4" height="4" rx="2" fill="#D9D4E8"></rect> <rect x="338" y="418" width="4" height="4" rx="2" fill="#D9D4E8"></rect> <rect x="378" y="418" width="4" height="4" rx="2" fill="#D9D4E8"></rect> <rect x="418" y="418" width="4" height="4" rx="2" fill="#D9D4E8"></rect> <rect x="458" y="418" width="4" height="4" rx="2" fill="#D9D4E8"></rect> <rect x="498" y="418" width="4" height="4" rx="2" fill="#D9D4E8"></rect> <rect x="538" y="418" width="4" height="4" rx="2" fill="#D9D4E8"></rect> <rect x="578" y="418" width="4" height="4" rx="2" fill="#D9D4E8"></rect> <rect x="618" y="418" width="4" height="4" rx="2" fill="#D9D4E8"></rect> <rect x="18" y="458" width="4" height="4" rx="2" fill="#D9D4E8"></rect> <rect x="58" y="458" width="4" height="4" rx="2" fill="#D9D4E8"></rect> <rect x="98" y="458" width="4" height="4" rx="2" fill="#D9D4E8"></rect> <rect x="138" y="458" width="4" height="4" rx="2" fill="#D9D4E8"></rect> <rect x="178" y="458" width="4" height="4" rx="2" fill="#D9D4E8"></rect> <rect x="218" y="458" width="4" height="4" rx="2" fill="#D9D4E8"></rect> <rect x="258" y="458" width="4" height="4" rx="2" fill="#D9D4E8"></rect> <rect x="298" y="458" width="4" height="4" rx="2" fill="#D9D4E8"></rect> <rect x="338" y="458" width="4" height="4" rx="2" fill="#D9D4E8"></rect> <rect x="378" y="458" width="4" height="4" rx="2" fill="#D9D4E8"></rect> <rect x="418" y="458" width="4" height="4" rx="2" fill="#D9D4E8"></rect> <rect x="458" y="458" width="4" height="4" rx="2" fill="#D9D4E8"></rect> <rect x="498" y="458" width="4" height="4" rx="2" fill="#D9D4E8"></rect> <rect x="538" y="458" width="4" height="4" rx="2" fill="#D9D4E8"></rect> <rect x="578" y="458" width="4" height="4" rx="2" fill="#D9D4E8"></rect> <rect x="618" y="458" width="4" height="4" rx="2" fill="#D9D4E8"></rect> <g filter="url(#filter0_ddddi_9013_375351)"> <rect x="103" y="180" width="435" height="120" rx="20" fill="white"></rect> <g filter="url(#filter1_i_9013_375351)"> <rect x="134" y="212" width="52" height="52" rx="13" fill="white"></rect> <path d="M154.498 243.613L148.537 237.652C147.775 236.89 146.541 236.89 145.779 237.652L144.86 238.571C144.098 239.332 144.098 240.567 144.86 241.329L153.579 250.048C154.341 250.81 155.575 250.81 156.337 250.048L175.948 230.437C176.71 229.675 176.71 228.44 175.948 227.679L175.029 226.76C174.267 225.998 173.033 225.998 172.271 226.76L155.418 243.613C155.164 243.867 154.752 243.867 154.498 243.613Z" fill="#00776A" stroke="#00776A" stroke-width="1.3" stroke-linejoin="bevel"></path> <rect x="135.3" y="213.3" width="49.4" height="49.4" rx="11.7" stroke="url(#paint0_linear_9013_375351)" stroke-width="2.6"></rect> </g> <rect x="210" y="206" width="220" height="16" rx="8" fill="#969EBC"></rect> <rect x="213" y="235" width="186" height="30" rx="7" fill="#D9DCE5" stroke="url(#paint1_linear_9013_375351)" stroke-width="2"></rect> <rect x="104" y="181" width="433" height="118" rx="19" stroke="url(#paint2_linear_9013_375351)" stroke-width="2"></rect> </g> <path d="M173 221C168.582 221 165 224.582 165 229C165 233.418 168.582 237 173 237C177.418 237 181 233.418 181 229C181 224.582 177.418 221 173 221ZM171.5 229L171.5 400L174.5 400L174.5 229L171.5 229Z" fill="url(#paint3_linear_9013_375351)" fill-opacity="0.25"></path> <path d="M124.082 407V392.084H118.334V389.72H132.338V392.084H126.59V407H124.082ZM134.498 391.916V389.48H137.006V391.916H134.498ZM134.498 407V394.04H137.006V407H134.498ZM146.154 407.36C144.826 407.36 143.698 407.064 142.77 406.472C141.842 405.88 141.13 405.068 140.634 404.036C140.146 403.004 139.898 401.832 139.89 400.52C139.898 399.184 140.154 398.004 140.658 396.98C141.162 395.948 141.882 395.14 142.818 394.556C143.754 393.972 144.878 393.68 146.19 393.68C147.606 393.68 148.814 394.032 149.814 394.736C150.822 395.44 151.486 396.404 151.806 397.628L149.31 398.348C149.062 397.62 148.654 397.056 148.086 396.656C147.526 396.248 146.882 396.044 146.154 396.044C145.33 396.044 144.654 396.24 144.126 396.632C143.598 397.016 143.206 397.544 142.95 398.216C142.694 398.888 142.562 399.656 142.554 400.52C142.562 401.856 142.866 402.936 143.466 403.76C144.074 404.584 144.97 404.996 146.154 404.996C146.962 404.996 147.614 404.812 148.11 404.444C148.614 404.068 148.998 403.532 149.262 402.836L151.806 403.436C151.382 404.7 150.682 405.672 149.706 406.352C148.73 407.024 147.546 407.36 146.154 407.36ZM154.238 407L154.25 389.72H156.794V400.28L161.882 394.04H165.074L159.698 400.52L165.626 407H162.218L156.794 400.76V407H154.238ZM171.641 407V389.72H173.909L180.173 402.716L186.401 389.72H188.693V406.988H186.317V395.168L180.737 407H179.597L174.005 395.168V407H171.641ZM195.715 407.36C194.755 407.36 193.951 407.184 193.303 406.832C192.655 406.472 192.163 406 191.827 405.416C191.499 404.824 191.335 404.176 191.335 403.472C191.335 402.816 191.451 402.24 191.683 401.744C191.915 401.248 192.259 400.828 192.715 400.484C193.171 400.132 193.731 399.848 194.395 399.632C194.971 399.464 195.623 399.316 196.351 399.188C197.079 399.06 197.843 398.94 198.643 398.828C199.451 398.716 200.251 398.604 201.043 398.492L200.131 398.996C200.147 397.98 199.931 397.228 199.483 396.74C199.043 396.244 198.283 395.996 197.203 395.996C196.523 395.996 195.899 396.156 195.331 396.476C194.763 396.788 194.367 397.308 194.143 398.036L191.803 397.316C192.123 396.204 192.731 395.32 193.627 394.664C194.531 394.008 195.731 393.68 197.227 393.68C198.387 393.68 199.395 393.88 200.251 394.28C201.115 394.672 201.747 395.296 202.147 396.152C202.355 396.576 202.483 397.024 202.531 397.496C202.579 397.968 202.603 398.476 202.603 399.02V407H200.383V404.036L200.815 404.42C200.279 405.412 199.595 406.152 198.763 406.64C197.939 407.12 196.923 407.36 195.715 407.36ZM196.159 405.308C196.871 405.308 197.483 405.184 197.995 404.936C198.507 404.68 198.919 404.356 199.231 403.964C199.543 403.572 199.747 403.164 199.843 402.74C199.979 402.356 200.055 401.924 200.071 401.444C200.095 400.964 200.107 400.58 200.107 400.292L200.923 400.592C200.131 400.712 199.411 400.82 198.763 400.916C198.115 401.012 197.527 401.108 196.999 401.204C196.479 401.292 196.015 401.4 195.607 401.528C195.263 401.648 194.955 401.792 194.683 401.96C194.419 402.128 194.207 402.332 194.047 402.572C193.895 402.812 193.819 403.104 193.819 403.448C193.819 403.784 193.903 404.096 194.071 404.384C194.239 404.664 194.495 404.888 194.839 405.056C195.183 405.224 195.623 405.308 196.159 405.308ZM205.719 407V394.04H207.951V397.184L207.639 396.776C207.799 396.36 208.007 395.98 208.263 395.636C208.519 395.284 208.815 394.996 209.151 394.772C209.479 394.532 209.843 394.348 210.243 394.22C210.651 394.084 211.067 394.004 211.491 393.98C211.915 393.948 212.323 393.968 212.715 394.04V396.392C212.291 396.28 211.819 396.248 211.299 396.296C210.787 396.344 210.315 396.508 209.883 396.788C209.475 397.052 209.151 397.372 208.911 397.748C208.679 398.124 208.511 398.544 208.407 399.008C208.303 399.464 208.251 399.948 208.251 400.46V407H205.719ZM214.988 407L215 389.72H217.544V400.28L222.632 394.04H225.824L220.448 400.52L226.376 407H222.968L217.544 400.76V407H214.988Z" fill="#818181"></path> </g> <rect x="1.5" y="1.5" width="637" height="477" rx="22.5" stroke="#E8E0EF" stroke-width="3"></rect> <defs> <filter id="filter0_ddddi_9013_375351" x="92" y="178" width="457" height="161" filterUnits="userSpaceOnUse" color-interpolation-filters="sRGB"> <feFlood flood-opacity="0" result="BackgroundImageFix"></feFlood> <feColorMatrix in="SourceAlpha" type="matrix" values="0 0 0 0 0 0 0 0 0 0 0 0 0 0 0 0 0 0 127 0" result="hardAlpha"></feColorMatrix> <feOffset dy="2"></feOffset> <feGaussianBlur stdDeviation="2"></feGaussianBlur> <feColorMatrix type="matrix" values="0 0 0 0 0.654902 0 0 0 0 0.615686 0 0 0 0 0.843137 0 0 0 0.1 0"></feColorMatrix> <feBlend mode="normal" in2="BackgroundImageFix" result="effect1_dropShadow_9013_375351"></feBlend> <feColorMatrix in="SourceAlpha" type="matrix" values="0 0 0 0 0 0 0 0 0 0 0 0 0 0 0 0 0 0 127 0" result="hardAlpha"></feColorMatrix> <feOffset dy="7"></feOffset> <feGaussianBlur stdDeviation="3.5"></feGaussianBlur> <feColorMatrix type="matrix" values="0 0 0 0 0.654902 0 0 0 0 0.615686 0 0 0 0 0.843137 0 0 0 0.09 0"></feColorMatrix> <feBlend mode="normal" in2="effect1_dropShadow_9013_375351" result="effect2_dropShadow_9013_375351"></feBlend> <feColorMatrix in="SourceAlpha" type="matrix" values="0 0 0 0 0 0 0 0 0 0 0 0 0 0 0 0 0 0 127 0" result="hardAlpha"></feColorMatrix> <feOffset dy="16"></feOffset> <feGaussianBlur stdDeviation="4.5"></feGaussianBlur> <feColorMatrix type="matrix" values="0 0 0 0 0.654902 0 0 0 0 0.615686 0 0 0 0 0.843137 0 0 0 0.05 0"></feColorMatrix> <feBlend mode="normal" in2="effect2_dropShadow_9013_375351" result="effect3_dropShadow_9013_375351"></feBlend> <feColorMatrix in="SourceAlpha" type="matrix" values="0 0 0 0 0 0 0 0 0 0 0 0 0 0 0 0 0 0 127 0" result="hardAlpha"></feColorMatrix> <feOffset dy="28"></feOffset> <feGaussianBlur stdDeviation="5.5"></feGaussianBlur> <feColorMatrix type="matrix" values="0 0 0 0 0.654902 0 0 0 0 0.615686 0 0 0 0 0.843137 0 0 0 0.01 0"></feColorMatrix> <feBlend mode="normal" in2="effect3_dropShadow_9013_375351" result="effect4_dropShadow_9013_375351"></feBlend> <feBlend mode="normal" in="SourceGraphic" in2="effect4_dropShadow_9013_375351" result="shape"></feBlend> <feColorMatrix in="SourceAlpha" type="matrix" values="0 0 0 0 0 0 0 0 0 0 0 0 0 0 0 0 0 0 127 0" result="hardAlpha"></feColorMatrix> <feOffset dy="-10"></feOffset> <feGaussianBlur stdDeviation="1"></feGaussianBlur> <feComposite in2="hardAlpha" operator="arithmetic" k2="-1" k3="1"></feComposite> <feColorMatrix type="matrix" values="0 0 0 0 0.73 0 0 0 0 0.744002 0 0 0 0 0.87 0 0 0 0.25 0"></feColorMatrix> <feBlend mode="normal" in2="shape" result="effect5_innerShadow_9013_375351"></feBlend> </filter> <filter id="filter1_i_9013_375351" x="134" y="212" width="52" height="57.2" filterUnits="userSpaceOnUse" color-interpolation-filters="sRGB"> <feFlood flood-opacity="0" result="BackgroundImageFix"></feFlood> <feBlend mode="normal" in="SourceGraphic" in2="BackgroundImageFix" result="shape"></feBlend> <feColorMatrix in="SourceAlpha" type="matrix" values="0 0 0 0 0 0 0 0 0 0 0 0 0 0 0 0 0 0 127 0" result="hardAlpha"></feColorMatrix> <feOffset dy="5.2"></feOffset> <feGaussianBlur stdDeviation="5.2"></feGaussianBlur> <feComposite in2="hardAlpha" operator="arithmetic" k2="-1" k3="1"></feComposite> <feColorMatrix type="matrix" values="0 0 0 0 0.663542 0 0 0 0 0.836458 0 0 0 0 0.680833 0 0 0 0.67 0"></feColorMatrix> <feBlend mode="normal" in2="shape" result="effect1_innerShadow_9013_375351"></feBlend> </filter> <linearGradient id="paint0_linear_9013_375351" x1="160" y1="212" x2="160" y2="264" gradientUnits="userSpaceOnUse"> <stop stop-color="#00776A"></stop> <stop offset="1" stop-color="#1EA42B"></stop> </linearGradient> <linearGradient id="paint1_linear_9013_375351" x1="306" y1="234" x2="306" y2="266" gradientUnits="userSpaceOnUse"> <stop offset="0.265625" stop-color="#A3AFD3" stop-opacity="0"></stop> <stop offset="1" stop-color="#C2C9DF"></stop> </linearGradient> <linearGradient id="paint2_linear_9013_375351" x1="320.5" y1="180" x2="320.5" y2="300" gradientUnits="userSpaceOnUse"> <stop stop-color="#D9DFEB"></stop> <stop offset="1" stop-color="#C5CDDC"></stop> </linearGradient> <linearGradient id="paint3_linear_9013_375351" x1="173" y1="229" x2="173" y2="400" gradientUnits="userSpaceOnUse"> <stop></stop> <stop offset="1" stop-opacity="0"></stop> </linearGradient> <clipPath id="clip0_9013_375351"> <rect width="640" height="480" rx="24" fill="white"></rect> </clipPath> </defs> </svg> 