<?xml version="1.0" encoding="UTF-8"?> <svg xmlns="http://www.w3.org/2000/svg" width="640" height="480" viewBox="0 0 640 480" fill="none"> <g clip-path="url(#clip0_9011_373488)"> <rect width="640" height="480" rx="24" fill="#F7F6F8"></rect> <rect x="18" y="18" width="4" height="4" rx="2" fill="#D9D4E8"></rect> <rect x="58" y="18" width="4" height="4" rx="2" fill="#D9D4E8"></rect> <rect x="98" y="18" width="4" height="4" rx="2" fill="#D9D4E8"></rect> <rect x="138" y="18" width="4" height="4" rx="2" fill="#D9D4E8"></rect> <rect x="178" y="18" width="4" height="4" rx="2" fill="#D9D4E8"></rect> <rect x="218" y="18" width="4" height="4" rx="2" fill="#D9D4E8"></rect> <rect x="258" y="18" width="4" height="4" rx="2" fill="#D9D4E8"></rect> <rect x="298" y="18" width="4" height="4" rx="2" fill="#D9D4E8"></rect> <rect x="338" y="18" width="4" height="4" rx="2" fill="#D9D4E8"></rect> <rect x="378" y="18" width="4" height="4" rx="2" fill="#D9D4E8"></rect> <rect x="418" y="18" width="4" height="4" rx="2" fill="#D9D4E8"></rect> <rect x="458" y="18" width="4" height="4" rx="2" fill="#D9D4E8"></rect> <rect x="498" y="18" width="4" height="4" rx="2" fill="#D9D4E8"></rect> <rect x="538" y="18" width="4" height="4" rx="2" fill="#D9D4E8"></rect> <rect x="578" y="18" width="4" height="4" rx="2" fill="#D9D4E8"></rect> <rect x="618" y="18" width="4" height="4" rx="2" fill="#D9D4E8"></rect> <rect x="18" y="58" width="4" height="4" rx="2" fill="#D9D4E8"></rect> <rect x="58" y="58" width="4" height="4" rx="2" fill="#D9D4E8"></rect> <rect x="98" y="58" width="4" height="4" rx="2" fill="#D9D4E8"></rect> <rect x="138" y="58" width="4" height="4" rx="2" fill="#D9D4E8"></rect> <rect x="178" y="58" width="4" height="4" rx="2" fill="#D9D4E8"></rect> <rect x="218" y="58" width="4" height="4" rx="2" fill="#D9D4E8"></rect> <rect x="258" y="58" width="4" height="4" rx="2" fill="#D9D4E8"></rect> <rect x="298" y="58" width="4" height="4" rx="2" fill="#D9D4E8"></rect> <rect x="338" y="58" width="4" height="4" rx="2" fill="#D9D4E8"></rect> <rect x="378" y="58" width="4" height="4" rx="2" fill="#D9D4E8"></rect> <rect x="418" y="58" width="4" height="4" rx="2" fill="#D9D4E8"></rect> <rect x="458" y="58" width="4" height="4" rx="2" fill="#D9D4E8"></rect> <rect x="498" y="58" width="4" height="4" rx="2" fill="#D9D4E8"></rect> <rect x="538" y="58" width="4" height="4" rx="2" fill="#D9D4E8"></rect> <rect x="578" y="58" width="4" height="4" rx="2" fill="#D9D4E8"></rect> <rect x="618" y="58" width="4" height="4" rx="2" fill="#D9D4E8"></rect> <rect x="18" y="98" width="4" height="4" rx="2" fill="#D9D4E8"></rect> <rect x="58" y="98" width="4" height="4" rx="2" fill="#D9D4E8"></rect> <rect x="98" y="98" width="4" height="4" rx="2" fill="#D9D4E8"></rect> <rect x="138" y="98" width="4" height="4" rx="2" fill="#D9D4E8"></rect> <rect x="178" y="98" width="4" height="4" rx="2" fill="#D9D4E8"></rect> <rect x="218" y="98" width="4" height="4" rx="2" fill="#D9D4E8"></rect> <rect x="258" y="98" width="4" height="4" rx="2" fill="#D9D4E8"></rect> <rect x="298" y="98" width="4" height="4" rx="2" fill="#D9D4E8"></rect> <rect x="338" y="98" width="4" height="4" rx="2" fill="#D9D4E8"></rect> <rect x="378" y="98" width="4" height="4" rx="2" fill="#D9D4E8"></rect> <rect x="418" y="98" width="4" height="4" rx="2" fill="#D9D4E8"></rect> <rect x="458" y="98" width="4" height="4" rx="2" fill="#D9D4E8"></rect> <rect x="498" y="98" width="4" height="4" rx="2" fill="#D9D4E8"></rect> <rect x="538" y="98" width="4" height="4" rx="2" fill="#D9D4E8"></rect> <rect x="578" y="98" width="4" height="4" rx="2" fill="#D9D4E8"></rect> <rect x="618" y="98" width="4" height="4" rx="2" fill="#D9D4E8"></rect> <rect x="18" y="138" width="4" height="4" rx="2" fill="#D9D4E8"></rect> <rect x="58" y="138" width="4" height="4" rx="2" fill="#D9D4E8"></rect> <rect x="98" y="138" width="4" height="4" rx="2" fill="#D9D4E8"></rect> <rect x="138" y="138" width="4" height="4" rx="2" fill="#D9D4E8"></rect> <rect x="178" y="138" width="4" height="4" rx="2" fill="#D9D4E8"></rect> <rect x="218" y="138" width="4" height="4" rx="2" fill="#D9D4E8"></rect> <rect x="258" y="138" width="4" height="4" rx="2" fill="#D9D4E8"></rect> <rect x="298" y="138" width="4" height="4" rx="2" fill="#D9D4E8"></rect> <rect x="338" y="138" width="4" height="4" rx="2" fill="#D9D4E8"></rect> <rect x="378" y="138" width="4" height="4" rx="2" fill="#D9D4E8"></rect> <rect x="418" y="138" width="4" height="4" rx="2" fill="#D9D4E8"></rect> <rect x="458" y="138" width="4" height="4" rx="2" fill="#D9D4E8"></rect> <rect x="498" y="138" width="4" height="4" rx="2" fill="#D9D4E8"></rect> <rect x="538" y="138" width="4" height="4" rx="2" fill="#D9D4E8"></rect> <rect x="578" y="138" width="4" height="4" rx="2" fill="#D9D4E8"></rect> <rect x="618" y="138" width="4" height="4" rx="2" fill="#D9D4E8"></rect> <rect x="18" y="178" width="4" height="4" rx="2" fill="#D9D4E8"></rect> <rect x="58" y="178" width="4" height="4" rx="2" fill="#D9D4E8"></rect> <rect x="98" y="178" width="4" height="4" rx="2" fill="#D9D4E8"></rect> <rect x="138" y="178" width="4" height="4" rx="2" fill="#D9D4E8"></rect> <rect x="178" y="178" width="4" height="4" rx="2" fill="#D9D4E8"></rect> <rect x="218" y="178" width="4" height="4" rx="2" fill="#D9D4E8"></rect> <rect x="258" y="178" width="4" height="4" rx="2" fill="#D9D4E8"></rect> <rect x="298" y="178" width="4" height="4" rx="2" fill="#D9D4E8"></rect> <rect x="338" y="178" width="4" height="4" rx="2" fill="#D9D4E8"></rect> <rect x="378" y="178" width="4" height="4" rx="2" fill="#D9D4E8"></rect> <rect x="418" y="178" width="4" height="4" rx="2" fill="#D9D4E8"></rect> <rect x="458" y="178" width="4" height="4" rx="2" fill="#D9D4E8"></rect> <rect x="498" y="178" width="4" height="4" rx="2" fill="#D9D4E8"></rect> <rect x="538" y="178" width="4" height="4" rx="2" fill="#D9D4E8"></rect> <rect x="578" y="178" width="4" height="4" rx="2" fill="#D9D4E8"></rect> <rect x="618" y="178" width="4" height="4" rx="2" fill="#D9D4E8"></rect> <rect x="18" y="218" width="4" height="4" rx="2" fill="#D9D4E8"></rect> <rect x="58" y="218" width="4" height="4" rx="2" fill="#D9D4E8"></rect> <rect x="98" y="218" width="4" height="4" rx="2" fill="#D9D4E8"></rect> <rect x="138" y="218" width="4" height="4" rx="2" fill="#D9D4E8"></rect> <rect x="178" y="218" width="4" height="4" rx="2" fill="#D9D4E8"></rect> <rect x="218" y="218" width="4" height="4" rx="2" fill="#D9D4E8"></rect> <rect x="258" y="218" width="4" height="4" rx="2" fill="#D9D4E8"></rect> <rect x="298" y="218" width="4" height="4" rx="2" fill="#D9D4E8"></rect> <rect x="338" y="218" width="4" height="4" rx="2" fill="#D9D4E8"></rect> <rect x="378" y="218" width="4" height="4" rx="2" fill="#D9D4E8"></rect> <rect x="418" y="218" width="4" height="4" rx="2" fill="#D9D4E8"></rect> <rect x="458" y="218" width="4" height="4" rx="2" fill="#D9D4E8"></rect> <rect x="498" y="218" width="4" height="4" rx="2" fill="#D9D4E8"></rect> <rect x="538" y="218" width="4" height="4" rx="2" fill="#D9D4E8"></rect> <rect x="578" y="218" width="4" height="4" rx="2" fill="#D9D4E8"></rect> <rect x="618" y="218" width="4" height="4" rx="2" fill="#D9D4E8"></rect> <rect x="18" y="258" width="4" height="4" rx="2" fill="#D9D4E8"></rect> <rect x="58" y="258" width="4" height="4" rx="2" fill="#D9D4E8"></rect> <rect x="98" y="258" width="4" height="4" rx="2" fill="#D9D4E8"></rect> <rect x="138" y="258" width="4" height="4" rx="2" fill="#D9D4E8"></rect> <rect x="178" y="258" width="4" height="4" rx="2" fill="#D9D4E8"></rect> <rect x="218" y="258" width="4" height="4" rx="2" fill="#D9D4E8"></rect> <rect x="258" y="258" width="4" height="4" rx="2" fill="#D9D4E8"></rect> <rect x="298" y="258" width="4" height="4" rx="2" fill="#D9D4E8"></rect> <rect x="338" y="258" width="4" height="4" rx="2" fill="#D9D4E8"></rect> <rect x="378" y="258" width="4" height="4" rx="2" fill="#D9D4E8"></rect> <rect x="418" y="258" width="4" height="4" rx="2" fill="#D9D4E8"></rect> <rect x="458" y="258" width="4" height="4" rx="2" fill="#D9D4E8"></rect> <rect x="498" y="258" width="4" height="4" rx="2" fill="#D9D4E8"></rect> <rect x="538" y="258" width="4" height="4" rx="2" fill="#D9D4E8"></rect> <rect x="578" y="258" width="4" height="4" rx="2" fill="#D9D4E8"></rect> <rect x="618" y="258" width="4" height="4" rx="2" fill="#D9D4E8"></rect> <rect x="18" y="298" width="4" height="4" rx="2" fill="#D9D4E8"></rect> <rect x="58" y="298" width="4" height="4" rx="2" fill="#D9D4E8"></rect> <rect x="98" y="298" width="4" height="4" rx="2" fill="#D9D4E8"></rect> <rect x="138" y="298" width="4" height="4" rx="2" fill="#D9D4E8"></rect> <rect x="178" y="298" width="4" height="4" rx="2" fill="#D9D4E8"></rect> <rect x="218" y="298" width="4" height="4" rx="2" fill="#D9D4E8"></rect> <rect x="258" y="298" width="4" height="4" rx="2" fill="#D9D4E8"></rect> <rect x="298" y="298" width="4" height="4" rx="2" fill="#D9D4E8"></rect> <rect x="338" y="298" width="4" height="4" rx="2" fill="#D9D4E8"></rect> <rect x="378" y="298" width="4" height="4" rx="2" fill="#D9D4E8"></rect> <rect x="418" y="298" width="4" height="4" rx="2" fill="#D9D4E8"></rect> <rect x="458" y="298" width="4" height="4" rx="2" fill="#D9D4E8"></rect> <rect x="498" y="298" width="4" height="4" rx="2" fill="#D9D4E8"></rect> <rect x="538" y="298" width="4" height="4" rx="2" fill="#D9D4E8"></rect> <rect x="578" y="298" width="4" height="4" rx="2" fill="#D9D4E8"></rect> <rect x="618" y="298" width="4" height="4" rx="2" fill="#D9D4E8"></rect> <rect x="18" y="338" width="4" height="4" rx="2" fill="#D9D4E8"></rect> <rect x="58" y="338" width="4" height="4" rx="2" fill="#D9D4E8"></rect> <rect x="98" y="338" width="4" height="4" rx="2" fill="#D9D4E8"></rect> <rect x="138" y="338" width="4" height="4" rx="2" fill="#D9D4E8"></rect> <rect x="178" y="338" width="4" height="4" rx="2" fill="#D9D4E8"></rect> <rect x="218" y="338" width="4" height="4" rx="2" fill="#D9D4E8"></rect> <rect x="258" y="338" width="4" height="4" rx="2" fill="#D9D4E8"></rect> <rect x="298" y="338" width="4" height="4" rx="2" fill="#D9D4E8"></rect> <rect x="338" y="338" width="4" height="4" rx="2" fill="#D9D4E8"></rect> <rect x="378" y="338" width="4" height="4" rx="2" fill="#D9D4E8"></rect> <rect x="418" y="338" width="4" height="4" rx="2" fill="#D9D4E8"></rect> <rect x="458" y="338" width="4" height="4" rx="2" fill="#D9D4E8"></rect> <rect x="498" y="338" width="4" height="4" rx="2" fill="#D9D4E8"></rect> <rect x="538" y="338" width="4" height="4" rx="2" fill="#D9D4E8"></rect> <rect x="578" y="338" width="4" height="4" rx="2" fill="#D9D4E8"></rect> <rect x="618" y="338" width="4" height="4" rx="2" fill="#D9D4E8"></rect> <rect x="18" y="378" width="4" height="4" rx="2" fill="#D9D4E8"></rect> <rect x="58" y="378" width="4" height="4" rx="2" fill="#D9D4E8"></rect> <rect x="98" y="378" width="4" height="4" rx="2" fill="#D9D4E8"></rect> <rect x="138" y="378" width="4" height="4" rx="2" fill="#D9D4E8"></rect> <rect x="178" y="378" width="4" height="4" rx="2" fill="#D9D4E8"></rect> <rect x="218" y="378" width="4" height="4" rx="2" fill="#D9D4E8"></rect> <rect x="258" y="378" width="4" height="4" rx="2" fill="#D9D4E8"></rect> <rect x="298" y="378" width="4" height="4" rx="2" fill="#D9D4E8"></rect> <rect x="338" y="378" width="4" height="4" rx="2" fill="#D9D4E8"></rect> <rect x="378" y="378" width="4" height="4" rx="2" fill="#D9D4E8"></rect> <rect x="418" y="378" width="4" height="4" rx="2" fill="#D9D4E8"></rect> <rect x="458" y="378" width="4" height="4" rx="2" fill="#D9D4E8"></rect> <rect x="498" y="378" width="4" height="4" rx="2" fill="#D9D4E8"></rect> <rect x="538" y="378" width="4" height="4" rx="2" fill="#D9D4E8"></rect> <rect x="578" y="378" width="4" height="4" rx="2" fill="#D9D4E8"></rect> <rect x="618" y="378" width="4" height="4" rx="2" fill="#D9D4E8"></rect> <rect x="18" y="418" width="4" height="4" rx="2" fill="#D9D4E8"></rect> <rect x="58" y="418" width="4" height="4" rx="2" fill="#D9D4E8"></rect> <rect x="98" y="418" width="4" height="4" rx="2" fill="#D9D4E8"></rect> <rect x="138" y="418" width="4" height="4" rx="2" fill="#D9D4E8"></rect> <rect x="178" y="418" width="4" height="4" rx="2" fill="#D9D4E8"></rect> <rect x="218" y="418" width="4" height="4" rx="2" fill="#D9D4E8"></rect> <rect x="258" y="418" width="4" height="4" rx="2" fill="#D9D4E8"></rect> <rect x="298" y="418" width="4" height="4" rx="2" fill="#D9D4E8"></rect> <rect x="338" y="418" width="4" height="4" rx="2" fill="#D9D4E8"></rect> <rect x="378" y="418" width="4" height="4" rx="2" fill="#D9D4E8"></rect> <rect x="418" y="418" width="4" height="4" rx="2" fill="#D9D4E8"></rect> <rect x="458" y="418" width="4" height="4" rx="2" fill="#D9D4E8"></rect> <rect x="498" y="418" width="4" height="4" rx="2" fill="#D9D4E8"></rect> <rect x="538" y="418" width="4" height="4" rx="2" fill="#D9D4E8"></rect> <rect x="578" y="418" width="4" height="4" rx="2" fill="#D9D4E8"></rect> <rect x="618" y="418" width="4" height="4" rx="2" fill="#D9D4E8"></rect> <rect x="18" y="458" width="4" height="4" rx="2" fill="#D9D4E8"></rect> <rect x="58" y="458" width="4" height="4" rx="2" fill="#D9D4E8"></rect> <rect x="98" y="458" width="4" height="4" rx="2" fill="#D9D4E8"></rect> <rect x="138" y="458" width="4" height="4" rx="2" fill="#D9D4E8"></rect> <rect x="178" y="458" width="4" height="4" rx="2" fill="#D9D4E8"></rect> <rect x="218" y="458" width="4" height="4" rx="2" fill="#D9D4E8"></rect> <rect x="258" y="458" width="4" height="4" rx="2" fill="#D9D4E8"></rect> <rect x="298" y="458" width="4" height="4" rx="2" fill="#D9D4E8"></rect> <rect x="338" y="458" width="4" height="4" rx="2" fill="#D9D4E8"></rect> <rect x="378" y="458" width="4" height="4" rx="2" fill="#D9D4E8"></rect> <rect x="418" y="458" width="4" height="4" rx="2" fill="#D9D4E8"></rect> <rect x="458" y="458" width="4" height="4" rx="2" fill="#D9D4E8"></rect> <rect x="498" y="458" width="4" height="4" rx="2" fill="#D9D4E8"></rect> <rect x="538" y="458" width="4" height="4" rx="2" fill="#D9D4E8"></rect> <rect x="578" y="458" width="4" height="4" rx="2" fill="#D9D4E8"></rect> <rect x="618" y="458" width="4" height="4" rx="2" fill="#D9D4E8"></rect> <g filter="url(#filter0_ddddi_9011_373488)"> <rect x="103" y="180" width="435" height="120" rx="20" fill="white"></rect> <g filter="url(#filter1_i_9011_373488)"> <rect x="140" y="220" width="40" height="40" rx="10" fill="white"></rect> <rect x="141.5" y="221.5" width="37" height="37" rx="8.5" stroke="url(#paint0_linear_9011_373488)" stroke-width="3"></rect> </g> <rect x="202" y="206" width="220" height="16" rx="8" fill="#969EBC"></rect> <rect x="205" y="235" width="186" height="30" rx="7" fill="#D9DCE5" stroke="url(#paint1_linear_9011_373488)" stroke-width="2"></rect> <rect x="104" y="181" width="433" height="118" rx="19" stroke="url(#paint2_linear_9011_373488)" stroke-width="2"></rect> </g> <path d="M432 253C427.582 253 424 256.582 424 261C424 265.418 427.582 269 432 269C436.418 269 440 265.418 440 261C440 256.582 436.418 253 432 253ZM430.5 261L430.5 401L433.5 401L433.5 261L430.5 261Z" fill="url(#paint3_linear_9011_373488)" fill-opacity="0.25"></path> <path d="M211.447 407.36C209.719 407.36 208.247 406.984 207.031 406.232C205.815 405.472 204.883 404.416 204.235 403.064C203.595 401.712 203.275 400.144 203.275 398.36C203.275 396.576 203.595 395.008 204.235 393.656C204.883 392.304 205.815 391.252 207.031 390.5C208.247 389.74 209.719 389.36 211.447 389.36C213.439 389.36 215.087 389.864 216.391 390.872C217.703 391.88 218.615 393.236 219.127 394.94L216.583 395.624C216.247 394.416 215.647 393.468 214.783 392.78C213.927 392.092 212.815 391.748 211.447 391.748C210.223 391.748 209.203 392.024 208.387 392.576C207.571 393.128 206.955 393.9 206.539 394.892C206.131 395.884 205.927 397.04 205.927 398.36C205.919 399.68 206.119 400.836 206.527 401.828C206.943 402.82 207.559 403.592 208.375 404.144C209.199 404.696 210.223 404.972 211.447 404.972C212.815 404.972 213.927 404.628 214.783 403.94C215.647 403.244 216.247 402.296 216.583 401.096L219.127 401.78C218.615 403.484 217.703 404.84 216.391 405.848C215.087 406.856 213.439 407.36 211.447 407.36ZM230.862 407V400.628C230.862 400.124 230.818 399.608 230.73 399.08C230.65 398.544 230.49 398.048 230.25 397.592C230.018 397.136 229.686 396.768 229.254 396.488C228.83 396.208 228.274 396.068 227.586 396.068C227.138 396.068 226.714 396.144 226.314 396.296C225.914 396.44 225.562 396.676 225.258 397.004C224.962 397.332 224.726 397.764 224.55 398.3C224.382 398.836 224.298 399.488 224.298 400.256L222.738 399.668C222.738 398.492 222.958 397.456 223.398 396.56C223.838 395.656 224.47 394.952 225.294 394.448C226.118 393.944 227.114 393.692 228.282 393.692C229.178 393.692 229.93 393.836 230.538 394.124C231.146 394.412 231.638 394.792 232.014 395.264C232.398 395.728 232.69 396.236 232.89 396.788C233.09 397.34 233.226 397.88 233.298 398.408C233.37 398.936 233.406 399.4 233.406 399.8V407H230.862ZM221.754 407V389.72H223.998V399.044H224.298V407H221.754ZM242.28 407.36C240.992 407.36 239.86 407.08 238.884 406.52C237.916 405.952 237.16 405.164 236.616 404.156C236.08 403.14 235.812 401.964 235.812 400.628C235.812 399.212 236.076 397.984 236.604 396.944C237.14 395.904 237.884 395.1 238.836 394.532C239.788 393.964 240.896 393.68 242.16 393.68C243.48 393.68 244.604 393.988 245.532 394.604C246.46 395.212 247.152 396.08 247.608 397.208C248.072 398.336 248.256 399.676 248.16 401.228H245.652V400.316C245.636 398.812 245.348 397.7 244.788 396.98C244.236 396.26 243.392 395.9 242.256 395.9C241 395.9 240.056 396.296 239.424 397.088C238.792 397.88 238.476 399.024 238.476 400.52C238.476 401.944 238.792 403.048 239.424 403.832C240.056 404.608 240.968 404.996 242.16 404.996C242.944 404.996 243.62 404.82 244.188 404.468C244.764 404.108 245.212 403.596 245.532 402.932L247.992 403.712C247.488 404.872 246.724 405.772 245.7 406.412C244.676 407.044 243.536 407.36 242.28 407.36ZM237.66 401.228V399.272H246.912V401.228H237.66ZM256.396 407.36C255.068 407.36 253.94 407.064 253.012 406.472C252.084 405.88 251.372 405.068 250.876 404.036C250.388 403.004 250.14 401.832 250.132 400.52C250.14 399.184 250.396 398.004 250.9 396.98C251.404 395.948 252.124 395.14 253.06 394.556C253.996 393.972 255.12 393.68 256.432 393.68C257.848 393.68 259.056 394.032 260.056 394.736C261.064 395.44 261.728 396.404 262.048 397.628L259.552 398.348C259.304 397.62 258.896 397.056 258.328 396.656C257.768 396.248 257.124 396.044 256.396 396.044C255.572 396.044 254.896 396.24 254.368 396.632C253.84 397.016 253.448 397.544 253.192 398.216C252.936 398.888 252.804 399.656 252.796 400.52C252.804 401.856 253.108 402.936 253.708 403.76C254.316 404.584 255.212 404.996 256.396 404.996C257.204 404.996 257.856 404.812 258.352 404.444C258.856 404.068 259.24 403.532 259.504 402.836L262.048 403.436C261.624 404.7 260.924 405.672 259.948 406.352C258.972 407.024 257.788 407.36 256.396 407.36ZM264.481 407L264.493 389.72H267.037V400.28L272.125 394.04H275.317L269.941 400.52L275.869 407H272.461L267.037 400.76V407H264.481ZM283.162 407.36C281.922 407.36 280.882 407.06 280.042 406.46C279.202 405.852 278.566 405.032 278.134 404C277.702 402.968 277.486 401.804 277.486 400.508C277.486 399.212 277.698 398.048 278.122 397.016C278.554 395.984 279.186 395.172 280.018 394.58C280.858 393.98 281.89 393.68 283.114 393.68C284.33 393.68 285.378 393.98 286.258 394.58C287.146 395.172 287.83 395.984 288.31 397.016C288.79 398.04 289.03 399.204 289.03 400.508C289.03 401.804 288.79 402.972 288.31 404.012C287.838 405.044 287.162 405.86 286.282 406.46C285.41 407.06 284.37 407.36 283.162 407.36ZM277.066 407V389.72H279.586V397.676H279.298V407H277.066ZM282.814 405.092C283.614 405.092 284.274 404.888 284.794 404.48C285.322 404.072 285.714 403.524 285.97 402.836C286.234 402.14 286.366 401.364 286.366 400.508C286.366 399.66 286.234 398.892 285.97 398.204C285.714 397.516 285.318 396.968 284.782 396.56C284.246 396.152 283.562 395.948 282.73 395.948C281.946 395.948 281.298 396.14 280.786 396.524C280.282 396.908 279.906 397.444 279.658 398.132C279.418 398.82 279.298 399.612 279.298 400.508C279.298 401.404 279.418 402.196 279.658 402.884C279.898 403.572 280.278 404.112 280.798 404.504C281.318 404.896 281.99 405.092 282.814 405.092ZM297.308 407.36C296.012 407.36 294.888 407.068 293.936 406.484C292.984 405.9 292.248 405.096 291.728 404.072C291.216 403.04 290.96 401.852 290.96 400.508C290.96 399.156 291.224 397.968 291.752 396.944C292.28 395.912 293.02 395.112 293.972 394.544C294.924 393.968 296.036 393.68 297.308 393.68C298.604 393.68 299.728 393.972 300.68 394.556C301.632 395.14 302.368 395.944 302.888 396.968C303.408 397.992 303.668 399.172 303.668 400.508C303.668 401.86 303.404 403.052 302.876 404.084C302.356 405.108 301.62 405.912 300.668 406.496C299.716 407.072 298.596 407.36 297.308 407.36ZM297.308 404.996C298.548 404.996 299.472 404.58 300.08 403.748C300.696 402.908 301.004 401.828 301.004 400.508C301.004 399.156 300.692 398.076 300.068 397.268C299.452 396.452 298.532 396.044 297.308 396.044C296.468 396.044 295.776 396.236 295.232 396.62C294.688 396.996 294.284 397.52 294.02 398.192C293.756 398.856 293.624 399.628 293.624 400.508C293.624 401.868 293.936 402.956 294.56 403.772C295.184 404.588 296.1 404.996 297.308 404.996ZM304.513 407L309.361 400.448L304.621 394.04H307.597L310.825 398.492L314.017 394.04H316.993L312.253 400.448L317.113 407H314.125L310.825 402.404L307.501 407H304.513ZM331.048 407.36C329.32 407.36 327.848 406.984 326.632 406.232C325.416 405.472 324.484 404.416 323.836 403.064C323.196 401.712 322.876 400.144 322.876 398.36C322.876 396.576 323.196 395.008 323.836 393.656C324.484 392.304 325.416 391.252 326.632 390.5C327.848 389.74 329.32 389.36 331.048 389.36C333.04 389.36 334.688 389.864 335.992 390.872C337.304 391.88 338.216 393.236 338.728 394.94L336.184 395.624C335.848 394.416 335.248 393.468 334.384 392.78C333.528 392.092 332.416 391.748 331.048 391.748C329.824 391.748 328.804 392.024 327.988 392.576C327.172 393.128 326.556 393.9 326.14 394.892C325.732 395.884 325.528 397.04 325.528 398.36C325.52 399.68 325.72 400.836 326.128 401.828C326.544 402.82 327.16 403.592 327.976 404.144C328.8 404.696 329.824 404.972 331.048 404.972C332.416 404.972 333.528 404.628 334.384 403.94C335.248 403.244 335.848 402.296 336.184 401.096L338.728 401.78C338.216 403.484 337.304 404.84 335.992 405.848C334.688 406.856 333.04 407.36 331.048 407.36ZM346.996 407.36C345.7 407.36 344.576 407.068 343.624 406.484C342.672 405.9 341.936 405.096 341.416 404.072C340.904 403.04 340.648 401.852 340.648 400.508C340.648 399.156 340.912 397.968 341.44 396.944C341.968 395.912 342.708 395.112 343.66 394.544C344.612 393.968 345.724 393.68 346.996 393.68C348.292 393.68 349.416 393.972 350.368 394.556C351.32 395.14 352.056 395.944 352.576 396.968C353.096 397.992 353.356 399.172 353.356 400.508C353.356 401.86 353.092 403.052 352.564 404.084C352.044 405.108 351.308 405.912 350.356 406.496C349.404 407.072 348.284 407.36 346.996 407.36ZM346.996 404.996C348.236 404.996 349.16 404.58 349.768 403.748C350.384 402.908 350.692 401.828 350.692 400.508C350.692 399.156 350.38 398.076 349.756 397.268C349.14 396.452 348.22 396.044 346.996 396.044C346.156 396.044 345.464 396.236 344.92 396.62C344.376 396.996 343.972 397.52 343.708 398.192C343.444 398.856 343.312 399.628 343.312 400.508C343.312 401.868 343.624 402.956 344.248 403.772C344.872 404.588 345.788 404.996 346.996 404.996ZM365.089 407V400.628C365.089 400.124 365.045 399.608 364.957 399.08C364.877 398.544 364.717 398.048 364.477 397.592C364.245 397.136 363.913 396.768 363.481 396.488C363.057 396.208 362.501 396.068 361.812 396.068C361.365 396.068 360.941 396.144 360.541 396.296C360.141 396.44 359.789 396.676 359.485 397.004C359.189 397.332 358.953 397.764 358.777 398.3C358.609 398.836 358.525 399.488 358.525 400.256L356.965 399.668C356.965 398.492 357.185 397.456 357.625 396.56C358.065 395.656 358.697 394.952 359.521 394.448C360.345 393.944 361.341 393.692 362.509 393.692C363.405 393.692 364.157 393.836 364.765 394.124C365.373 394.412 365.865 394.792 366.241 395.264C366.625 395.728 366.917 396.236 367.117 396.788C367.317 397.34 367.453 397.88 367.525 398.408C367.597 398.936 367.633 399.4 367.633 399.8V407H365.089ZM355.981 407V394.04H358.225V397.784H358.525V407H355.981ZM378.174 407C377.358 407.16 376.558 407.228 375.774 407.204C374.99 407.18 374.29 407.028 373.674 406.748C373.058 406.468 372.594 406.028 372.282 405.428C372.002 404.892 371.85 404.348 371.826 403.796C371.81 403.236 371.802 402.604 371.802 401.9V390.44H374.322V401.78C374.322 402.3 374.326 402.752 374.334 403.136C374.35 403.52 374.434 403.844 374.586 404.108C374.874 404.604 375.33 404.888 375.954 404.96C376.586 405.024 377.326 404.996 378.174 404.876V407ZM369.318 396.056V394.04H378.174V396.056H369.318ZM384.567 407.36C383.607 407.36 382.803 407.184 382.155 406.832C381.507 406.472 381.015 406 380.679 405.416C380.351 404.824 380.187 404.176 380.187 403.472C380.187 402.816 380.303 402.24 380.535 401.744C380.767 401.248 381.111 400.828 381.567 400.484C382.023 400.132 382.583 399.848 383.247 399.632C383.823 399.464 384.475 399.316 385.203 399.188C385.931 399.06 386.695 398.94 387.495 398.828C388.303 398.716 389.103 398.604 389.895 398.492L388.983 398.996C388.999 397.98 388.783 397.228 388.335 396.74C387.895 396.244 387.135 395.996 386.055 395.996C385.375 395.996 384.751 396.156 384.183 396.476C383.615 396.788 383.219 397.308 382.995 398.036L380.655 397.316C380.975 396.204 381.583 395.32 382.479 394.664C383.383 394.008 384.583 393.68 386.079 393.68C387.239 393.68 388.247 393.88 389.103 394.28C389.967 394.672 390.599 395.296 390.999 396.152C391.207 396.576 391.335 397.024 391.383 397.496C391.431 397.968 391.455 398.476 391.455 399.02V407H389.235V404.036L389.667 404.42C389.131 405.412 388.447 406.152 387.615 406.64C386.791 407.12 385.775 407.36 384.567 407.36ZM385.011 405.308C385.723 405.308 386.335 405.184 386.847 404.936C387.359 404.68 387.771 404.356 388.083 403.964C388.395 403.572 388.599 403.164 388.695 402.74C388.831 402.356 388.907 401.924 388.923 401.444C388.947 400.964 388.959 400.58 388.959 400.292L389.775 400.592C388.983 400.712 388.263 400.82 387.615 400.916C386.967 401.012 386.379 401.108 385.851 401.204C385.331 401.292 384.867 401.4 384.459 401.528C384.115 401.648 383.807 401.792 383.535 401.96C383.271 402.128 383.059 402.332 382.899 402.572C382.747 402.812 382.671 403.104 382.671 403.448C382.671 403.784 382.755 404.096 382.923 404.384C383.091 404.664 383.347 404.888 383.691 405.056C384.035 405.224 384.475 405.308 385.011 405.308ZM394.811 391.916V389.48H397.319V391.916H394.811ZM394.811 407V394.04H397.319V407H394.811ZM410.018 407V400.628C410.018 400.124 409.974 399.608 409.886 399.08C409.806 398.544 409.646 398.048 409.406 397.592C409.174 397.136 408.842 396.768 408.41 396.488C407.986 396.208 407.43 396.068 406.742 396.068C406.294 396.068 405.87 396.144 405.47 396.296C405.07 396.44 404.718 396.676 404.414 397.004C404.118 397.332 403.882 397.764 403.706 398.3C403.538 398.836 403.454 399.488 403.454 400.256L401.894 399.668C401.894 398.492 402.114 397.456 402.554 396.56C402.994 395.656 403.626 394.952 404.45 394.448C405.274 393.944 406.27 393.692 407.438 393.692C408.334 393.692 409.086 393.836 409.694 394.124C410.302 394.412 410.794 394.792 411.17 395.264C411.554 395.728 411.846 396.236 412.046 396.788C412.246 397.34 412.382 397.88 412.454 398.408C412.526 398.936 412.562 399.4 412.562 399.8V407H410.018ZM400.91 407V394.04H403.154V397.784H403.454V407H400.91ZM421.272 407.36C419.984 407.36 418.852 407.08 417.876 406.52C416.908 405.952 416.152 405.164 415.608 404.156C415.072 403.14 414.804 401.964 414.804 400.628C414.804 399.212 415.068 397.984 415.596 396.944C416.132 395.904 416.876 395.1 417.828 394.532C418.78 393.964 419.888 393.68 421.152 393.68C422.472 393.68 423.596 393.988 424.524 394.604C425.452 395.212 426.144 396.08 426.6 397.208C427.064 398.336 427.248 399.676 427.152 401.228H424.644V400.316C424.628 398.812 424.34 397.7 423.78 396.98C423.228 396.26 422.384 395.9 421.248 395.9C419.992 395.9 419.048 396.296 418.416 397.088C417.784 397.88 417.468 399.024 417.468 400.52C417.468 401.944 417.784 403.048 418.416 403.832C419.048 404.608 419.96 404.996 421.152 404.996C421.936 404.996 422.612 404.82 423.18 404.468C423.756 404.108 424.204 403.596 424.524 402.932L426.984 403.712C426.48 404.872 425.716 405.772 424.692 406.412C423.668 407.044 422.528 407.36 421.272 407.36ZM416.652 401.228V399.272H425.904V401.228H416.652ZM429.844 407V394.04H432.076V397.184L431.764 396.776C431.924 396.36 432.132 395.98 432.388 395.636C432.644 395.284 432.94 394.996 433.276 394.772C433.604 394.532 433.968 394.348 434.368 394.22C434.776 394.084 435.192 394.004 435.616 393.98C436.04 393.948 436.448 393.968 436.84 394.04V396.392C436.416 396.28 435.944 396.248 435.424 396.296C434.912 396.344 434.44 396.508 434.008 396.788C433.6 397.052 433.276 397.372 433.036 397.748C432.804 398.124 432.636 398.544 432.532 399.008C432.428 399.464 432.376 399.948 432.376 400.46V407H429.844Z" fill="#818181"></path> </g> <rect x="1.5" y="1.5" width="637" height="477" rx="22.5" stroke="#E8E0EF" stroke-width="3"></rect> <defs> <filter id="filter0_ddddi_9011_373488" x="92" y="178" width="457" height="161" filterUnits="userSpaceOnUse" color-interpolation-filters="sRGB"> <feFlood flood-opacity="0" result="BackgroundImageFix"></feFlood> <feColorMatrix in="SourceAlpha" type="matrix" values="0 0 0 0 0 0 0 0 0 0 0 0 0 0 0 0 0 0 127 0" result="hardAlpha"></feColorMatrix> <feOffset dy="2"></feOffset> <feGaussianBlur stdDeviation="2"></feGaussianBlur> <feColorMatrix type="matrix" values="0 0 0 0 0.654902 0 0 0 0 0.615686 0 0 0 0 0.843137 0 0 0 0.1 0"></feColorMatrix> <feBlend mode="normal" in2="BackgroundImageFix" result="effect1_dropShadow_9011_373488"></feBlend> <feColorMatrix in="SourceAlpha" type="matrix" values="0 0 0 0 0 0 0 0 0 0 0 0 0 0 0 0 0 0 127 0" result="hardAlpha"></feColorMatrix> <feOffset dy="7"></feOffset> <feGaussianBlur stdDeviation="3.5"></feGaussianBlur> <feColorMatrix type="matrix" values="0 0 0 0 0.654902 0 0 0 0 0.615686 0 0 0 0 0.843137 0 0 0 0.09 0"></feColorMatrix> <feBlend mode="normal" in2="effect1_dropShadow_9011_373488" result="effect2_dropShadow_9011_373488"></feBlend> <feColorMatrix in="SourceAlpha" type="matrix" values="0 0 0 0 0 0 0 0 0 0 0 0 0 0 0 0 0 0 127 0" result="hardAlpha"></feColorMatrix> <feOffset dy="16"></feOffset> <feGaussianBlur stdDeviation="4.5"></feGaussianBlur> <feColorMatrix type="matrix" values="0 0 0 0 0.654902 0 0 0 0 0.615686 0 0 0 0 0.843137 0 0 0 0.05 0"></feColorMatrix> <feBlend mode="normal" in2="effect2_dropShadow_9011_373488" result="effect3_dropShadow_9011_373488"></feBlend> <feColorMatrix in="SourceAlpha" type="matrix" values="0 0 0 0 0 0 0 0 0 0 0 0 0 0 0 0 0 0 127 0" result="hardAlpha"></feColorMatrix> <feOffset dy="28"></feOffset> <feGaussianBlur stdDeviation="5.5"></feGaussianBlur> <feColorMatrix type="matrix" values="0 0 0 0 0.654902 0 0 0 0 0.615686 0 0 0 0 0.843137 0 0 0 0.01 0"></feColorMatrix> <feBlend mode="normal" in2="effect3_dropShadow_9011_373488" result="effect4_dropShadow_9011_373488"></feBlend> <feBlend mode="normal" in="SourceGraphic" in2="effect4_dropShadow_9011_373488" result="shape"></feBlend> <feColorMatrix in="SourceAlpha" type="matrix" values="0 0 0 0 0 0 0 0 0 0 0 0 0 0 0 0 0 0 127 0" result="hardAlpha"></feColorMatrix> <feOffset dy="-10"></feOffset> <feGaussianBlur stdDeviation="1"></feGaussianBlur> <feComposite in2="hardAlpha" operator="arithmetic" k2="-1" k3="1"></feComposite> <feColorMatrix type="matrix" values="0 0 0 0 0.73 0 0 0 0 0.744002 0 0 0 0 0.87 0 0 0 0.25 0"></feColorMatrix> <feBlend mode="normal" in2="shape" result="effect5_innerShadow_9011_373488"></feBlend> </filter> <filter id="filter1_i_9011_373488" x="140" y="220" width="40" height="44" filterUnits="userSpaceOnUse" color-interpolation-filters="sRGB"> <feFlood flood-opacity="0" result="BackgroundImageFix"></feFlood> <feBlend mode="normal" in="SourceGraphic" in2="BackgroundImageFix" result="shape"></feBlend> <feColorMatrix in="SourceAlpha" type="matrix" values="0 0 0 0 0 0 0 0 0 0 0 0 0 0 0 0 0 0 127 0" result="hardAlpha"></feColorMatrix> <feOffset dy="4"></feOffset> <feGaussianBlur stdDeviation="4"></feGaussianBlur> <feComposite in2="hardAlpha" operator="arithmetic" k2="-1" k3="1"></feComposite> <feColorMatrix type="matrix" values="0 0 0 0 0.56125 0 0 0 0 0.584 0 0 0 0 0.78875 0 0 0 0.67 0"></feColorMatrix> <feBlend mode="normal" in2="shape" result="effect1_innerShadow_9011_373488"></feBlend> </filter> <linearGradient id="paint0_linear_9011_373488" x1="160" y1="220" x2="160" y2="260" gradientUnits="userSpaceOnUse"> <stop stop-color="#969EBC"></stop> <stop offset="1" stop-color="#B8C1E0"></stop> </linearGradient> <linearGradient id="paint1_linear_9011_373488" x1="298" y1="234" x2="298" y2="266" gradientUnits="userSpaceOnUse"> <stop offset="0.265625" stop-color="#A3AFD3" stop-opacity="0"></stop> <stop offset="1" stop-color="#C2C9DF"></stop> </linearGradient> <linearGradient id="paint2_linear_9011_373488" x1="320.5" y1="180" x2="320.5" y2="300" gradientUnits="userSpaceOnUse"> <stop stop-color="#D9DFEB"></stop> <stop offset="1" stop-color="#C5CDDC"></stop> </linearGradient> <linearGradient id="paint3_linear_9011_373488" x1="432" y1="261" x2="432" y2="401" gradientUnits="userSpaceOnUse"> <stop></stop> <stop offset="1" stop-opacity="0"></stop> </linearGradient> <clipPath id="clip0_9011_373488"> <rect width="640" height="480" rx="24" fill="white"></rect> </clipPath> </defs> </svg> 